/* XPM */
static const char * Tile_3_3_4_3_4[] = {
/* width height ncolors chars_per_pixel */
"32 32 179 2",
/* colors */
"   c #C5AEAE",
" . c #6E1212",
" X c #5C1010",
" o c #A2838F",
" O c #6E1F1F",
" + c #7F4C52",
" @ c #C6A3A3",
" # c #811515",
" $ c #811919",
" % c #C6AFAF",
" & c #6F1212",
" * c #5D0F0F",
" = c #6F2020",
" - c #C7A3A3",
" ; c #821515",
" : c #6F2E31",
" > c #942727",
" , c #701212",
" < c #701717",
" 1 c #5E0F0F",
" 2 c #823134",
" 3 c #C8A3A3",
" 4 c #A48D9A",
" 5 c #831515",
" 6 c #831717",
" 7 c #711212",
" 8 c #832828",
" 9 c #5F1313",
" 0 c #93818C",
" q c #841515",
" w c #5F1D1D",
" e c #833838",
" r c #95464B",
" t c #841B1B",
" y c #C9AEAE",
" u c #721212",
" i c #A59FAE",
" p c #600F0F",
" a c #601212",
" s c #A76969",
" d c #843134",
" f c #94818C",
" g c #851515",
" h c #CAAEAE",
" j c #731212",
" k c #731313",
" l c #965056",
" z c #611010",
" x c #95818C",
" c c #95818D",
" v c #611D1D",
" b c #861616",
" n c #DCD7D7",
" m c #B9A0A0",
" M c #853B3B",
" N c #CBAFAF",
" B c #741313",
" V c #966F79",
" C c #612C2F",
" Z c #621010",
" A c #983E3E",
" S c #863235",
" D c #500D0D",
" F c #96818D",
" G c #871616",
" H c #DDD7D7",
" J c #863B3B",
" K c #CCAFAF",
" L c #751313",
" P c #CCB5B5",
" I c #622C2F",
" U c #A8A0AF",
" Y c #631010",
" T c #510D0D",
" R c #97818D",
" E c #DED7D7",
" W c #DED8D8",
" Q c #AA7777",
" ! c #761313",
" ~ c #761414",
" ^ c #874949",
" / c #CDBCBC",
" ( c #AB6767",
" ) c #641717",
" _ c #883235",
" ` c #520D0D",
" ' c #641A1B",
" ] c #891616",
" [ c #762A2A",
" { c #DFD8D8",
" } c #883B3B",
" | c #DFD9D9",
".  c #CEAFAF",
".. c #988B98",
".X c #771313",
".o c #642C2F",
".O c #651010",
".+ c #AAAABA",
".@ c #530D0D",
".# c #651A1B",
".$ c #530E0E",
".% c #8A1616",
".& c #998B98",
".* c #781313",
".= c #8A2021",
".- c #781414",
".; c #661111",
".: c #CFBDBD",
".> c #9C3F3F",
"., c #540E0E",
".< c #8B1616",
".1 c #661E1E",
".2 c #8A3C3C",
".3 c #791313",
".4 c #9B7079",
".5 c #671111",
".6 c #D0BDBD",
".7 c #AE6767",
".8 c #550E0E",
".9 c #9B828E",
".0 c #8C1818",
".q c #8B3C3C",
".w c #D1AFAF",
".e c #7A1414",
".r c #8C2424",
".t c #BFADAD",
".y c #7A2121",
".u c #560E0E",
".i c #794747",
".p c #E3DDDD",
".a c #9C8C99",
".s c #7B1414",
".d c #C0ADAD",
".f c #691111",
".g c #570E0E",
".h c #9D828E",
".j c #AF9292",
".k c #8E1B1B",
".l c #7C1414",
".z c #C1ADAD",
".x c #6A1111",
".c c #6A1212",
".v c #580E0E",
".b c #9E828E",
".n c #B09292",
".m c #7D1414",
".M c #8D6262",
".N c #C2ADAD",
".B c #6B1111",
".V c #D4BDBD",
".C c #590E0E",
".Z c #590F0F",
".A c #9F828E",
".S c #B19292",
".D c #7E1414",
".F c #8E6262",
".G c #C3ADAD",
".H c None",
".J c #7D3C3C",
".K c #6C1111",
".L c #6C1212",
".P c #D5BDBD",
".I c #8E6E77",
".U c #8E6E78",
".Y c #5A0E0E",
".T c #5A0F0F",
".R c #5A1010",
".E c #6C1D1D",
".W c #A0838E",
".Q c #A08C99",
".! c #7F1E20",
".~ c #6D1212",
".^ c #904C4F",
"./ c #913336",
".( c #5B0F0F",
".) c #A1838F",
"._ c #801414",
".` c #A18D9A",
".' c #801515",
/* pixels */
".H.H.H.H.H.H.H.H.H.H.H.H.H.H.H.H.H.H.H.H.H.H.H.H.H.H.H.H.H.H.H.H",
".H.H.H.H.H.H.H.H.H.H.H.H.H.H.H.H.H.H.H.H.H.H.H.H.H.H.H.H.H.H.H.H",
".H.H.H.H.H.H.H.H.H.H.H.H.H.H.H.H.H.H.H.H.H.H.H.H.H.H.H.H.H.H.H.H",
".H.H.H.H.H.H.H.H.H.H.H.H.H.H.H.H.H.H.H.H.H.H.H.H.H.H.H.H.H.H.H.H",
".H.H.H.H.H.H.H.H.H.H.H.H.H.H.H.H.H.H.H.H.H.H.H.H.H.H.H.H.H.H.H.H",
".H.H.H.H.H.H.H.H.H.H.H.H.H.H.H.H.H.H.H.H.H.H.H.H.H.H.H.H.H.H.H.H",
".H.H.H.H.H.H.H.H.H.H.H.H.H.H.H.H.H.H.H.H.H H.H.H.H.H.H.H.H.H.H.H",
".H.H.H.H.H.H.H.H.H.H.H.H.H.H.H.H.H.H.H.n v v.S.H.H.H.H.H.H.H.H.H",
".H.H.H.H.H.H.H.H.H.H.H.H.H.H.H.H.H.j w.g.f.~.g.1 /.H.H.H.H.H.H.H",
".H.H.H.H.H.H.H.H.H.H.H.H.H.H n.F.8 * 7.D # 5 t Y.u.J |.H.H.H.H.H",
".H.H.H.H.H.H.H.H.H.H.H.H n.M., z ~ 6 ; _.`.4.= G L 1 9 Q.p.H.H.H",
".H.H.H.P P %.G.N.z.d.t.i.8 Y !.'.' S.`.+.+.+.+ l.% 5 ,.T e.w.H.H",
".H.H m.E ) X.v.8.$.8.C Y B.l.m d.`.+.+.+.+.+.+.+ U r ] ;.~.R s.H",
".H 3 < 8.l ! ,.x.5.B u.-.e 2.Q.+.+.+.+.+.+.+.+.+.+.+ 4./.0.c [.H",
".H.< $.^.).W.W.A.b.h.9 V.Q.+.+.+.+.+.+.+.+.+.+.+.+.+.+ o ] j a W",
".H.> > =.+.+.+.+.+.+.+.+.+.+.+.+.+.+.+.+.+.+.+.+.+.+.+ U ].e.Z  ",
".H.7.k 1.I.+.+.+.+.+.+.+.+.+.+.+.+.+.+.+.+.+.+.+.+.+.+.+.!.(.( ^",
".H. .< <.g.#.a.+.+.+.+.+.+.+.+.+.+.+.+.+.+.+.+.+.+.+.. C.u Z O.N",
".H.H.< 5 L.(.v : i.+.+.+.+.+.+.+.+.+.+.+.+.+.+.+.& C.@ *.x 7.y.H",
".H.H.V A g._.L.g.( +.+.+.+.+.+.+.+.+.+.+.+.+.& I D.v Y.L & . M E",
".H.H.H.H @.r g.3 p.u '.U R R F F F c x f 0.o T.8 z.K , , J.:.H.H",
".H.H.H.H.H.H ( b 5 B 1.u.Z.T.Y.g.8.@ ` `.@.(.5 7 B k }.:.H.H.H.H",
".H.H.H.H.H.H.H { A b ; k.~.f.O Z p Z.;.x & L.X !.2.:.H.H.H.H.H.H",
".H.H.H.H.H.H.H.H.H -.r b q ;.'.m.s.* L L.X.*.q.6.H.H.H.H.H.H.H.H",
".H.H.H.H.H.H.H.H.H.H.H K K K N N h h h y y.6.H.H.H.H.H.H.H.H.H.H",
".H.H.H.H.H.H.H.H.H.H.H.H.H.H.H.H.H.H.H.H.H.H.H.H.H.H.H.H.H.H.H.H",
".H.H.H.H.H.H.H.H.H.H.H.H.H.H.H.H.H.H.H.H.H.H.H.H.H.H.H.H.H.H.H.H",
".H.H.H.H.H.H.H.H.H.H.H.H.H.H.H.H.H.H.H.H.H.H.H.H.H.H.H.H.H.H.H.H",
".H.H.H.H.H.H.H.H.H.H.H.H.H.H.H.H.H.H.H.H.H.H.H.H.H.H.H.H.H.H.H.H",
".H.H.H.H.H.H.H.H.H.H.H.H.H.H.H.H.H.H.H.H.H.H.H.H.H.H.H.H.H.H.H.H",
".H.H.H.H.H.H.H.H.H.H.H.H.H.H.H.H.H.H.H.H.H.H.H.H.H.H.H.H.H.H.H.H",
".H.H.H.H.H.H.H.H.H.H.H.H.H.H.H.H.H.H.H.H.H.H.H.H.H.H.H.H.H.H.H.H"
};
