/* XPM */
static const char * Tile_3_4_6_4[] = {
/* width height ncolors chars_per_pixel */
"32 32 196 2",
/* colors */
"   c #7F3E3E",
" . c #6E1212",
" X c #D7BFBF",
" o c #5C0F0F",
" O c #A28D9A",
" + c #811515",
" @ c #6F1212",
" # c #5D0F0F",
" $ c #5D1111",
" % c #6F1F1F",
" & c #C7A3A3",
" * c #821515",
" = c #701212",
" - c #A55959",
" ; c #935555",
" : c #823134",
" > c #A48D9A",
" , c #831515",
" < c #831616",
" 1 c #831717",
" 2 c #831A1A",
" 3 c #711212",
" 4 c #70383C",
" 5 c #C9A3A3",
" 6 c #93818C",
" 7 c #841515",
" 8 c #5F1D1D",
" 9 c #95464B",
" 0 c #C9AEAE",
" q c #94727C",
" w c #600F0F",
" e c #601010",
" r c #A76666",
" t c #843134",
" y c #94818C",
" u c #851515",
" i c #CAAEAE",
" p c #731212",
" a c #731313",
" s c #CAB3B3",
" d c #965056",
" f c #844848",
" g c #611010",
" h c #A7858F",
" j c #611515",
" k c #732829",
" l c #95818C",
" z c #95818D",
" x c #861515",
" c c #611D1D",
" v c #861616",
" b c #DCD7D7",
" n c #853B3B",
" m c #CBAFAF",
" M c #741313",
" N c #966F79",
" B c #862323",
" V c #612C2F",
" C c #854848",
" Z c #621010",
" A c #863235",
" S c #500D0D",
" D c #96818D",
" F c #871616",
" G c #DDD7D7",
" H c #863B3B",
" J c #CCAFAF",
" K c #751313",
" L c #622C2F",
" P c #A8A0AF",
" I c #631010",
" U c #864949",
" Y c #631111",
" T c #CCBCBC",
" R c #631717",
" E c #510D0D",
" W c #97818D",
" Q c #881616",
" ! c #DED7D7",
" ~ c #CDAFAF",
" ^ c #761313",
" / c #761414",
" ( c #641010",
" ) c #874949",
" _ c #DFC8C8",
" ` c #987781",
" ' c #CDBDBD",
" ] c #883235",
" [ c #520D0D",
" { c #9A3F3F",
" } c #98828E",
" | c #891616",
".  c #DFD8D8",
".. c #883B3B",
".X c #CEAFAF",
".o c #988B98",
".O c #771313",
".+ c #642C2F",
".@ c #651010",
".# c #AAAABA",
".$ c #530D0D",
".% c #530E0E",
".& c #8A1616",
".* c #E0D8D8",
".= c #E0DADA",
".- c #998B98",
".; c #781313",
".: c #9A6C74",
".> c #8A2021",
"., c #781414",
".< c #9A7079",
".1 c #661010",
".2 c #661111",
".3 c #894B4B",
".4 c #CFBDBD",
".5 c #BE9494",
".6 c #9C3F3F",
".7 c #540E0E",
".8 c #782828",
".9 c #661E1E",
".0 c #9A838F",
".q c #8A3C3C",
".w c #791313",
".e c #9C4C4C",
".r c #9B7079",
".t c #8B2424",
".y c #671111",
".u c #D0BDBD",
".i c #550E0E",
".p c #671C1D",
".a c #9B828E",
".s c #8A5656",
".d c #8B3C3C",
".f c #9B8C99",
".g c #7A1414",
".h c #793939",
".j c #BFADAD",
".k c #7A2121",
".l c #AF6767",
".z c #560E0E",
".x c #794747",
".c c #9C828E",
".v c #8D1A1A",
".b c #8D1E1E",
".n c #7B1414",
".m c #C0ADAD",
".M c #691111",
".N c #8C4E4E",
".B c #570E0E",
".V c #570F0F",
".C c #AF9292",
".Z c #7B2F30",
".A c #8D3C41",
".S c #E4DEDE",
".D c #7C1414",
".F c #B07D7D",
".G c #C1ADAD",
".H c #6A1111",
".J c #D3BDBD",
".K c #6A1313",
".L c #8C6D77",
".P c #580E0E",
".I c #9E828E",
".U c #B09292",
".Y c #7C3232",
".T c #7D1414",
".R c #8D6262",
".E c #C2ADAD",
".W c #6B1111",
".Q c #8D6E77",
".! c #590E0E",
".~ c #590F0F",
".^ c #9F828E",
"./ c #B19292",
".( c #7E1414",
".) c #8E6262",
"._ c None",
".` c #6C1111",
".' c #6C1212",
".] c #903336",
".[ c #5A0E0E",
".{ c #5A0F0F",
".} c #A0838E",
".| c #C4A2A2",
"X  c #A08C99",
"X. c #7F1515",
"XX c #912424",
"Xo c #C4AEAE",
"XO c #6D1212",
"X+ c #8F6E78",
"X@ c #5B0F0F",
"X# c #5B1010",
"X$ c #A1838F",
"X% c #B39292",
"X& c #A18D9A",
"X* c #801515",
/* pixels */
"._._._._._._._._._._._._._._._._._._._._._ G._._._._._._._._._._",
"._._._._._._._._._._._._._._._._._._._.U c c./._._._._._._._._._",
"._._._._._._._._._._._._._._._._._.C 8.B.MXO.z.9 '._._._._._._._",
"._._._._._._._._._._._._._._ b.).i # 3.( + < 2 Z.z  .=._._._._._",
"._._._._._._._._._._._._ b.R.7 g / 1 * ]X&.r.> x p # j.F.S._._._",
"._._._ _ X sXo.E.G.m.j.x.i I ^X*X* AX&.#.#.#.# d.&X* ..{.Y.|._._",
"._._.s.8 R $.!.i.%.i.! I M.D.T tX&.#.#.#.#.#.#.# P 9 F +.`.~ ;._",
"._ -X#.t.D K @.M.1.H 3.,.g :X .#.#.#.#.#.#.#.#.#.#.# >.] | Y.N._",
".X x.{.:X$X$.}.^.I.c.a NX .#.#.#.#.#.#.#.#.#.#.#.#.#.#X$ vX@.3._",
".X.T.~.0.#.#.#.#.#.#.#.#.#.#.#.#.#.#.#.#.#.#.#.#.#.#.#X$ ,X@ )._",
" ~.w.P }.#.#.#.#.#.#.#.#.#.#.#.#.#.#.#.#.#.#.#.#.#.#.#X$.(.P U._",
" ~.g.P W.#.#.#.#.#.#.#.#.#.#.#.#.#.#.#.#.#.#.#.#.#.#.#.}.(X@ f._",
" J.(.P.Q.#.#.#.#.#.#.#.#.#.#.#.#.#.#.#.#.#.#.#.#.#.#.#.}X* #.h._",
".e + e 4.#.#.#.#.#.#.#.#.#.#.#.#.#.#.#.#.#.#.#.#.#.#.#.A ,.W.z._",
".5 +XO.!.#.#.#.#.#.#.#.#.#.#.#.#.#.#.#.#.#.#.#.#.#.#.#.< 7.;.P T",
". X*.O.z.f.#.#.#.#.#.#.#.#.#.#.#.#.#.#.#.#.#.#.#.#.#.# O uX*.!X%",
"._ B.D.P.L.#.#.#.#.#.#.#.#.#.#.#.#.#.#.#.#.#.#.#.#.#.#.#.g # # C",
"._ rX. ( # q.#.#.#.#.#.#.#.#.#.#.#.#.#.#.#.#.#.#.#.#.o V.z Z %.E",
"._.J Q.b.K.P k h.#.#.#.#.#.#.#.#.#.#.#.#.#.#.#.#.- V.$ #.H 3.k._",
"._._.*.6.v., o.~.Z `.#.#.#.#.#.#.#.#.#.#.#.#.- L S.P I.' @ . n !",
"._._._._ 5XX ,.W.P.V.pX+ W W D D D z l y 6.+ E.i g.` = = H.4._._",
"._._._._._._.l v ^.HX@.z.~.{.[.B.i.$ [ [.$X@.y 3 M a...4._._._._",
"._._._._._._._.* {X*.T pXO.M.@ Z w Z.2.H @ K.O ^.q.4._._._._._._",
"._._._._._._._._._ &.t u 7 *X*.T.n.; K K.O.;.d.u._._._._._._._._",
"._._._._._._._._._._._ J J J m m i i i 0 0.u._._._._._._._._._._",
"._._._._._._._._._._._._._._._._._._._._._._._._._._._._._._._._",
"._._._._._._._._._._._._._._._._._._._._._._._._._._._._._._._._",
"._._._._._._._._._._._._._._._._._._._._._._._._._._._._._._._._",
"._._._._._._._._._._._._._._._._._._._._._._._._._._._._._._._._",
"._._._._._._._._._._._._._._._._._._._._._._._._._._._._._._._._",
"._._._._._._._._._._._._._._._._._._._._._._._._._._._._._._._._",
"._._._._._._._._._._._._._._._._._._._._._._._._._._._._._._._._"
};
