/* XPM */
static const char * Tile_3_6_3_6[] = {
/* width height ncolors chars_per_pixel */
"32 32 179 2",
/* colors */
"   c #C5AEAE",
" . c #6E1212",
" X c #906E78",
" o c #802323",
" O c #5C0F0F",
" + c #915555",
" @ c #6E1F1F",
" # c #811515",
" $ c #811818",
" % c #811E1E",
" & c #6F1212",
" * c #5D0F0F",
" = c #917883",
" - c #821717",
" ; c #93464B",
" : c #701212",
" > c #701D1D",
" , c #5E1111",
" < c #93585D",
" 1 c #831515",
" 2 c #936363",
" 3 c #952525",
" 4 c #711212",
" 5 c #711515",
" 6 c #A49FAE",
" 7 c #5F0F0F",
" 8 c #5F1010",
" 9 c #841515",
" 0 c #841616",
" q c #841717",
" w c #954748",
" e c #721313",
" r c #842323",
" t c #A59FAE",
" y c #600F0F",
" u c #601111",
" i c #C9BCBC",
" p c #722525",
" a c #963F42",
" s c #851515",
" d c #851616",
" f c #722E31",
" g c #731313",
" h c #A85959",
" j c #611010",
" k c #732020",
" l c #724046",
" z c #B99393",
" x c #DCD7D7",
" c c #741313",
" v c #741414",
" b c #A7A0AF",
" n c #621111",
" m c #621D1D",
" M c #871616",
" N c #871717",
" B c #863839",
" V c #DDD7D7",
" C c #751313",
" Z c #751414",
" A c #A8A0AF",
" S c #631313",
" D c #881616",
" F c #881818",
" G c #881B1B",
" H c #BBA1A1",
" J c #761313",
" K c #761414",
" L c #632C2F",
" P c #762020",
" I c #891616",
" U c #762A2A",
" Y c #891919",
" T c #BCA1A1",
" R c #771313",
" E c #651010",
" W c #CEBCBC",
" Q c #CEBDBD",
" ! c #876D76",
" ~ c #AAAABA",
" ^ c #8A1616",
" / c #651E1E",
" ( c #8A1717",
" ) c #8A1818",
" _ c #E0D8D8",
" ` c #9C2A2A",
" ' c #998B98",
" ] c #781313",
" [ c #8A2021",
" { c #661010",
" } c #540D0D",
" | c #661A1C",
".  c #540E0E",
".. c #8B1616",
".X c #8B1717",
".o c #AC9191",
".O c #BEA1A1",
".+ c #9A8C98",
".@ c #8B2121",
".# c #791616",
".$ c #783939",
".% c #550E0E",
".& c #8C1C1C",
".* c #8B3C40",
".= c #8B3C41",
".- c #8C2020",
".; c #7A1414",
".: c #681111",
".> c #D1BDBD",
"., c #8A6D77",
".< c #560E0E",
".1 c #8B5555",
".2 c #8C3C41",
".3 c #8D2021",
".4 c #7B1414",
".5 c #AF7A80",
".6 c #AE9CA9",
".7 c #691111",
".8 c #8D2A2A",
".9 c #691212",
".0 c #570E0E",
".q c #691B1B",
".w c #8D3C41",
".e c #8E1F1F",
".r c #9D8C99",
".t c #7C1414",
".y c #8E2222",
".u c #7C1717",
".i c #7C1818",
".p c #8E2525",
".a c #7B3A3A",
".s c #C1ADAD",
".d c #6A1111",
".f c #9E7A85",
".g c #C29595",
".h c #D3C2C2",
".j c #580E0E",
".k c #B09292",
".l c #8E3C41",
".z c #8E3D41",
".x c #7D1A1A",
".c c #7C3B3B",
".v c #6B1111",
".b c #6B1212",
".n c #D4BDBD",
".m c #6B1414",
".M c #9F7A85",
".N c #8F3336",
".B c #590E0E",
".V c #590F0F",
".C c #A06565",
".Z c #8F3D41",
".A c #7E1414",
".S c #902424",
".D c #8F454A",
".F c #6B2D30",
".G c None",
".H c #902828",
".J c #6C1111",
".K c #7E1F1F",
".L c #5A0E0E",
".P c #5A0F0F",
".I c #5A1010",
".U c #7D4C52",
".Y c #903D41",
".T c #A16C6C",
".R c #7F1515",
".E c #7F1616",
".W c #912424",
".Q c #6C2D31",
".! c #6D1212",
".~ c #6D1414",
".^ c #5B0F0F",
"./ c #6D1C1D",
".( c #5B1010",
".) c #B39292",
"._ c #913D41",
".` c #921F1F",
".' c #922020",
/* pixels */
".G.G.G.G.G.G.G.G.G.G.G.G.G x / j.P m H.G.G.G.G.G.G.G.G.G.G.G.G.G",
".G.G.G.G.G.G.G.G.G.G.G.G.k y.v G.t {.%.$ V.G.G.G.G.G.G.G.G.G.G.G",
".G.G.G.G.G.G.G.G.G.G V.a.d C J ..A 0 %.^.P.).G.G.G.G.G.G.G.G.G.G",
".G.G.G.G.G.G.G.G.G T.: c.E ].J X b.D.&.y.:.<.c Q.G.G.G.G.G.G.G.G",
".G.G.G.G.G.G.G V + 4 $.p : f t ~ ~ ~.f [ M g.V ,.T.G.G.G.G.G.G.G",
".G.G.G.G.G.G.O P R.t : | = ~ ~ ~ ~ ~ ~ b ; ^ q.9.B U.h.G.G.G.G.G",
".G.G.G.G.G   : g.J 7 l 6 ~ ~ ~ ~ ~ ~ ~ ~ ~.M.3.`.H j.s.G.G.G.G.G",
".G.G.G.G.G   :.v.< ' ~ ~ ~ ~ ~ ~ ~ ~ ~ ~ ~ ~ A.N...~.<.G.G.G.G.G",
".G.G.G.G.G   : &.j ~ ~ ~ ~ ~ ~ ~ ~ ~ ~ ~ ~ ~ ~.* 1.J }.G.G.G.G.G",
".G.G.G.G.G   : ..0 ~ ~ ~ ~ ~ ~ ~ ~ ~ ~ ~ ~ ~ ~.= 1.7.<.G.G.G.G.G",
".G.G.G.G.G   : &.j ~ ~ ~ ~ ~ ~ ~ ~ ~ ~ ~ ~ ~ ~.2 9 &.%.G.G.G.G.G",
".G.G.G.G.G   : ..< ~ ~ ~ ~ ~ ~ ~ ~ ~ ~ ~ ~ ~ ~.w Y.J.B.G.G.G.G.G",
".G.G.G.G.G   : :.j ~ ~ ~ ~ ~ ~ ~ ~ ~ ~ ~ ~ ~ ~.w F v.P.G.G.G.G.G",
".G.G.G.G.G   : ..< ~ ~ ~ ~ ~ ~ ~ ~ ~ ~ ~ ~ ~ ~.l 3 :.V.G.G.G.G.G",
".G.G.G.G.G   : :.< ~ ~ ~ ~ ~ ~ ~ ~ ~ ~ ~ ~ ~ ~.z ).i.L.G.G.G.G.G",
".G.G.G.G.G   : &.< ~ ~ ~ ~ ~ ~ ~ ~ ~ ~ ~ ~ ~ ~.Z.' 4.^.G.G.G.G.G",
".G.G.G.G.G   & :.< ~ ~ ~ ~ ~ ~ ~ ~ ~ ~ ~ ~ ~ ~.Z I.u.^.G.G.G.G.G",
".G.G.G.G.G   : &.< ~ ~ ~ ~ ~ ~.,.F.r ~ ~ ~ ~ ~.Z ( Z O.G.G.G.G.G",
".G.G.G.G.G   : ..% ~ ~ ~ ~ 6 L.0.^.( < ~ ~ ~ ~.Y ^ K *.G.G.G.G.G",
".G.G.G.G.G   & &.< ~ ~ ~ !.j.b.t -.m.0 B.6 ~ ~.Y ^ e 8.G.G.G.G.G",
".G.G.G.G.G   & ..% ~.+.Q.J.@.e # D `.x.^ @.5 ~._...K u.G.G.G.G.G",
".G.G.G.G.G   . &.<.U.J.A I d r.>.n.W.X.R E.I w a ^ 5 n.G.G.G.G.G",
".G.G.G.G.G   :.!.%.; N s.4.C.G.G.G.G.g.. M R O.q.8 o S.G.G.G.G.G",
".G.G.G.G.G   & ..%.-.# k W.G.G.G.G.G.G _ h I #.7.V > p.G.G.G.G.G",
".G.G.G.G.G.G z./.  j 2.G.G.G.G.G.G.G.G.G.G.n.S M.t.1 x.G.G.G.G.G",
".G.G.G.G.G.G.G.G.o i.G.G.G.G.G.G.G.G.G.G.G.G.G.g.n.G.G.G.G.G.G.G",
".G.G.G.G.G.G.G.G.G.G.G.G.G.G.G.G.G.G.G.G.G.G.G.G.G.G.G.G.G.G.G.G",
".G.G.G.G.G.G.G.G.G.G.G.G.G.G.G.G.G.G.G.G.G.G.G.G.G.G.G.G.G.G.G.G",
".G.G.G.G.G.G.G.G.G.G.G.G.G.G.G.G.G.G.G.G.G.G.G.G.G.G.G.G.G.G.G.G",
".G.G.G.G.G.G.G.G.G.G.G.G.G.G.G.G.G.G.G.G.G.G.G.G.G.G.G.G.G.G.G.G",
".G.G.G.G.G.G.G.G.G.G.G.G.G.G.G.G.G.G.G.G.G.G.G.G.G.G.G.G.G.G.G.G",
".G.G.G.G.G.G.G.G.G.G.G.G.G.G.G.G.G.G.G.G.G.G.G.G.G.G.G.G.G.G.G.G"
};
