/* XPM */
static const char * Tile_6_6_6[] = {
/* width height ncolors chars_per_pixel */
"32 32 222 2",
/* colors */
"   c #7F3A3A",
" . c #6E1212",
" X c #914C50",
" o c #906E78",
" O c #5C0F0F",
" + c #6E1C1C",
" @ c #5C1010",
" # c #A2838F",
" $ c #923D41",
" % c #811515",
" & c #B49CA8",
" * c #932626",
" = c #811E20",
" - c #6F1212",
" ; c #6E373C",
" : c #812525",
" > c #5D0F0F",
" , c #933D41",
" < c #821515",
" 1 c #701212",
" 2 c #935056",
" 3 c #5E0F0F",
" 4 c #5E1212",
" 5 c #A48D9A",
" 6 c #952222",
" 7 c #A57077",
" 8 c #711212",
" 9 c #70383C",
" 0 c #A49FAE",
" q c #5F0F0F",
" w c #B79393",
" e c #5F191A",
" r c #841515",
" t c #946363",
" y c #833B3B",
" u c #B88383",
" i c #721212",
" p c #721313",
" a c #71383C",
" s c #A59FAE",
" d c #600F0F",
" f c #601010",
" g c #C9BCBC",
" h c #601313",
" j c #722020",
" k c #601414",
" l c #B89797",
" z c #956464",
" x c #731212",
" c c #731313",
" v c #731414",
" b c #72383C",
" n c #A69FAE",
" m c #611010",
" M c #CABCBC",
" N c #DCCACA",
" B c #611414",
" V c #4F0D0D",
" C c #861616",
" Z c #DCD7D7",
" A c #982626",
" S c #741212",
" D c #861F21",
" F c #741313",
" G c #982C2C",
" H c #862424",
" J c #A7A0AF",
" K c #A7A1B0",
" L c #621010",
" P c #854949",
" I c #CBBCBC",
" U c #863134",
" Y c #500D0D",
" T c #871616",
" R c #734A51",
" E c #871818",
" W c #DDD7D7",
" Q c #751313",
" ! c #751414",
" ~ c #864246",
" ^ c #74393D",
" / c #A8A0AF",
" ( c #631010",
" ) c #CCBCBC",
" _ c #873235",
" ` c #510D0D",
" ' c #752626",
" ] c #97828E",
" [ c #881616",
" { c #DED7D7",
" } c #881E1E",
" | c #761313",
".  c #753838",
".. c #641010",
".X c #CDBCBC",
".o c #AA8892",
".O c #520D0D",
".+ c #9A3F3F",
".@ c #AB6C70",
".# c #891616",
".$ c #891717",
".% c #883B3C",
".& c #891B1B",
".* c #771313",
".= c #651010",
".- c #AC6767",
".; c #AAAABA",
".: c #530D0D",
".> c #99818D",
"., c #8A1616",
".< c #651E1E",
".1 c #AB9191",
".2 c #E0D8D8",
".3 c #8A1D1D",
".4 c #998B98",
".5 c #781313",
".6 c #AB99A6",
".7 c #77393D",
".8 c #773A3F",
".9 c #661010",
".0 c #781D1E",
".q c #894A4E",
".w c #9C3F3F",
".e c #661A1B",
".r c #540E0E",
".t c #9A828D",
".y c #8B1616",
".u c #791414",
".i c #8B2121",
".p c #791616",
".a c #783939",
".s c #671111",
".d c #9B7983",
".f c #ACA6B4",
".g c #AE6767",
".h c #9D3F3F",
".j c #550E0E",
".k c #9B828E",
".l c #671E1E",
".z c #8C1717",
".x c #9C6565",
".c c #9E2B2B",
".v c #7A1414",
".b c #681111",
".n c #8A6D77",
".m c #7A2121",
".M c #8B4E54",
".N c #67373B",
".B c #560E0E",
".V c #9C828E",
".C c #7A3033",
".Z c #9C8C99",
".A c #8D2021",
".S c #7B1414",
".D c #8B636C",
".F c #C0ADAD",
".G c #691111",
".H c #68373B",
".J c #570E0E",
".K c #691B1C",
".L c #9D828E",
".P c #7C1414",
".I c #8E2222",
".U c #9E707A",
".Y c #6A1111",
".T c #6A1212",
".R c #8D4D51",
".E c #C29595",
".W c #580E0E",
".Q c #580F0F",
".! c #7C2929",
".~ c #9E828E",
".^ c #B09292",
"./ c #8F1D1D",
".( c #8F1E1E",
".) c #8D6262",
"._ c #B17C7C",
".` c #6B1111",
".' c #D4BDBD",
".] c #6A373B",
".[ c #590E0E",
".{ c #7C4747",
".} c #590F0F",
".| c #6B1C1C",
"X  c #9F828E",
"X. c #9F838E",
"XX c #7C4C52",
"Xo c #591819",
"XO c #7E1414",
"X+ c #A14D4D",
"X@ c #7E1515",
"X# c #D5B3B3",
"X$ c #7E1616",
"X% c None",
"X& c #6C1111",
"X* c #902A2A",
"X= c #6C1212",
"X- c #7D3F43",
"X; c #7D3F44",
"X: c #6B373B",
"X> c #8F5054",
"X, c #5A0E0E",
"X< c #5A0F0F",
"X1 c #A0838E",
"X2 c #B29292",
"X3 c #A16666",
"X4 c #7F1515",
"X5 c #7F1616",
"X6 c #912424",
"X7 c #6C2D30",
"X8 c #912727",
"X9 c #C4ADAD",
"X0 c #6D1212",
"Xq c #6C373B",
"Xw c #6C373C",
"Xe c #5B0F0F",
"Xr c #5B1010",
"Xt c #A1838F",
"Xy c #B39292",
"Xu c #6D2121",
"Xi c #A34D4D",
"Xp c #5B1C1C",
/* pixels */
"X%X%X%X%X%X%.l.` . 8 i c F c p 8 1 -X0.`.G.9 ( L f.[ uX%X%X%X%X%",
"X%X%X%X%X%.F.s 1 i.*.S.i * E T [.#.#.,.,.,.,.z 6.c :.!X%X%X%X%X%",
"X%X%X%X%X%.a 8 -.D.>.t.k.V.V.L.~X X.X1X1XtXtXt #.y H BX#X%X%X%X%",
"X%X%X%X% I.s.5.`.;.;.;.;.;.;.;.;.;.;.;.;.;.;.;.; ,.&.J.-X%X%X%X%",
"X%X%X%X% t c |.7.;.;.;.;.;.;.;.;.;.;.;.;.;.;.;.; 5.#.s.| NX%X%X%",
"X%X%X% W.GX5X0.Z.;.;.;.;.;.;.;.;.;.;.;.;.;.;.;.;.;.A x.Q._X%X%X%",
"X%X%X%Xy FX$.K.;.;.;.;.;.;.;.;.;.;.;.;.;.;.;.;.;.;.U r.[ +X%X%X%",
"X%X%X% j G iXX.;.;.;.;.;.;.;.;.;.;.;.;.;.;.;.;.;.; / T LXr lX%X%",
"X%X%X9 | }.. s.;.;.;.;.;.;.;.;.;.;.;.;.;.;.;.;.;.;.; $ F.jXuX%X%",
"X%X% y.3 pX7.;.;.;.;.;.;.;.;.;.;.;.;.;.;.;.;.;.;.;.;XtXO qXe.XX%",
"X%.X.*.I.9.n.;.;.;.;.;.;.;.;.;.;.;.;.;.;.;.;.;.;.;.;.; D.Y.r PX%",
"X%.xXO.pXe.;.;.;.;.;.;.;.;.;.;.;.;.;.;.;.;.;.;.;.;.;.; 2 | 3 O W",
" { SXO.bX:.;.;.;.;.;.;.;.;.;.;.;.;.;.;.;.;.;.;.;.;.;.; J.S.Y.BX2",
" w.u QXe.4.;.;.;.;.;.;.;.;.;.;.;.;.;.;.;.;.;.;.;.;.;.;.; _.*X<.<",
".m.u.bXo.;.;.;.;.;.;.;.;.;.;.;.;.;.;.;.;.;.;.;.;.;.;.;.;X..P.`.B",
"X3 8X< R.;.;.;.;.;.;.;.;.;.;.;.;.;.;.;.;.;.;.;.;.;.;.;.;.; =.v.[",
".+ v.r ].;.;.;.;.;.;.;.;.;.;.;.;.;.;.;.;.;.;.;.;.;.;.;.;.; U.SXe",
".#X8.JX-.;.;.;.;.;.;.;.;.;.;.;.;.;.;.;.;.;.;.;.;.;.;.;.; J.SX=.j",
"X+ A.b h K.;.;.;.;.;.;.;.;.;.;.;.;.;.;.;.;.;.;.;.;.;.;.;.M c.WX,",
".'.,X*.W.d.;.;.;.;.;.;.;.;.;.;.;.;.;.;.;.;.;.;.;.;.;.;.;.0.s.B.{",
"X%.w.( f ~.;.;.;.;.;.;.;.;.;.;.;.;.;.;.;.;.;.;.;.;.;.;.k ..B.B g",
"X%.E.y ! k.6.;.;.;.;.;.;.;.;.;.;.;.;.;.;.;.;.;.;.;.;.;.C d.jXpX%",
"X%X%X6 %.[ 7.;.;.;.;.;.;.;.;.;.;.;.;.;.;.;.;.;.;.;.; n.s.r `.1X%",
"X%X%.g.#.`.%.;.;.;.;.;.;.;.;.;.;.;.;.;.;.;.;.;.;.;.; o O Y Y ZX%",
"X%X%.2.yXO @ &.;.;.;.;.;.;.;.;.;.;.;.;.;.;.;.;.;.;.;.e ` `.)X%X%",
"X%X%X%Xi C >.@.;.;.;.;.;.;.;.;.;.;.;.;.;.;.;.;.;.;.Z.J.:.B MX%X%",
"X%X%X%.'., F '.f.;.;.;.;.;.;.;.;.;.;.;.;.;.;.;.;.; a.:X<. X%X%X%",
"X%X%X%X%.hX4 4.o.;.;.;.;.;.;.;.;.;.;.;.;.;.;.;.; 0.BXe q.^X%X%X%",
"X%X%X%X%.E [ ( X.;.;.;.;.;.;.;.;.;.;.;.;.;.;.;.;.n.}.. dX%X%X%X%",
"X%X%X%X%X%X6X@ BX>.R.qX;.8 ^ b 9 ;Xw.].H.N.H.]Xq e.=.s zX%X%X%X%",
"X%X%X%X%X%.g.$.T OX<.W.}X<.}.W.B.r.O V `.jX< q (.b -.s )X%X%X%X%",
"X%X%X%X%X%.2.,./ T r <X4.P.5 F 8X0.G.9 ( m f L.=.GX&  X%X%X%X%X%"
};
