/* XPM */
static const char * Tile_4_8_8[] = {
/* width height ncolors chars_per_pixel */
"32 32 148 2",
/* colors */
"   c #C5AEAE",
" . c #6E1212",
" X c #6E1313",
" o c #6E1414",
" O c #5C0F0F",
" + c #5C1C1C",
" @ c #811515",
" # c #C6AAAA",
" $ c #6F1212",
" % c #5D0F0F",
" & c #C7A3A3",
" * c #5D191A",
" = c #5D1C1C",
" - c #821B1B",
" ; c #C7AEAE",
" : c #701212",
" > c #D9BDBD",
" , c #5E0F0F",
" < c #701C1D",
" 1 c #5E1010",
" 2 c #935656",
" 3 c #702020",
" 4 c #702121",
" 5 c #831515",
" 6 c #B77E7E",
" 7 c #C8AEAE",
" 8 c #711212",
" 9 c #824348",
" 0 c #A49FAE",
" q c #5F0F0F",
" w c #711C1D",
" e c #5F1010",
" r c #841515",
" t c #712B2B",
" y c #962727",
" u c #C9AEAE",
" i c #721313",
" p c #834348",
" a c #A59FAE",
" s c #600F0F",
" d c #601010",
" f c #851616",
" g c #851717",
" h c #CAAEAE",
" j c #731313",
" k c #A85959",
" l c #A69FAE",
" z c #611010",
" x c #965656",
" c c #611111",
" v c #957A84",
" b c #732222",
" n c #845353",
" m c #861616",
" M c #DCD7D7",
" N c #861B1B",
" B c #CBAFAF",
" V c #741313",
" C c #621010",
" Z c #741D1E",
" A c #621515",
" S c #500D0D",
" D c #871616",
" F c #DDD7D7",
" G c #CCAFAF",
" H c #CCB0B0",
" J c #751313",
" K c #631010",
" L c #631212",
" P c #872D2D",
" I c #510D0D",
" U c #881616",
" Y c #881717",
" T c #CDAFAF",
" R c #761414",
" E c #641010",
" W c #641212",
" Q c #641313",
" ! c #641414",
" ~ c #520D0D",
" ^ c #891616",
" / c #891D1D",
" ( c #771313",
" ) c #651010",
" _ c #AAAABA",
" ` c #530D0D",
" ' c #651A1B",
" ] c #885454",
" [ c #8A1616",
" { c #781313",
" } c #781414",
" | c #791414",
".  c #791616",
".. c #9B7079",
".X c #671111",
".o c #550E0E",
".O c #8A5555",
".+ c #9B828E",
".@ c #8C1D1D",
".# c #BFA3A3",
".$ c #7A1414",
".% c #8C2222",
".& c #9C707A",
".* c #7A1D1D",
".= c #560E0E",
".- c #9C828E",
".; c #681E1E",
".: c #7B1414",
".> c #691111",
"., c #C19595",
".< c #691919",
".1 c #570E0E",
".2 c #8C5555",
".3 c #9D828E",
".4 c #691E1E",
".5 c #C1A5A5",
".6 c #7C1414",
".7 c #7C1818",
".8 c #D3BDBD",
".9 c #580E0E",
".0 c #9E828E",
".q c #7D1515",
".w c #8F2424",
".e c #D4B7B7",
".r c #9F7A85",
".t c #590E0E",
".y c #6B1B1C",
".u c #9F828E",
".i c #9F838E",
".p c #7E1414",
".a c #7E1515",
".s c None",
".d c #A07A85",
".f c #6B373B",
".g c #5A0F0F",
".h c #A0838E",
".j c #7F1414",
".k c #5A1C1C",
".l c #7F1515",
".z c #6C2D31",
".x c #6D1212",
".c c #6C373B",
".v c #5B0E0E",
".b c #5B0F0F",
".n c #905555",
".m c #5B1C1C",
".M c #801515",
".N c #801616",
/* pixels */
".s.s.s.s.s.s.s.s.s.s.s n K.x : :.x.> ) t 4 >.s.s.s.s.s.s.s.s.s.s",
".s.s.s.s.s.s.s.s.s.s ].> { J |.a / g @.w % b.e.s.s.s.s.s.s.s.s.s",
".s.s.s.s.s.s.s.s.s.2 $.%.$ Z.+.-.3.0.. U.N O 3 H.s.s.s.s.s.s.s.s",
".s.s.s.s.s.s.s.s.n J y.6 w l _ _ _ _ _.d [.p %.< #.s.s.s.s.s.s.s",
".s.s.s.s.s.s.s 2.$.@ {.y a _ _ _ _ _ _ _.d ^.$.b !.5.s.s.s.s.s.s",
".s.s.s.s.s.s x.$ N 8 ' a _ _ _ _ _ _ _ _ _.d D.6.g c.#.s.s.s.s.s",
".s.s.s.s.s ; J J ) * 0 _ _ _ _ _ _ _ _ _ _ _.r D.p , L.s.s.s.s.s",
".s.s.s.s.s 7.$ . ` 0 _ _ _ _ _ _ _ _ _ _ _ _ _.& m E z.s.s.s.s.s",
".s.s.s.s.s u.M. .1 _ _ _ _ _ _ _ _ _ _ _ _ _ _.h.l.g ,.s.s.s.s.s",
".s.s.s.s.s h r -.= _ _ _ _ _ _ _ _ _ _ _ _ _ _.u (.=.g.s.s.s.s.s",
".s.s.s.s.s B D |.9 _ _ _ _ _ _ _ _ _ _ _ _ _ _.3 ..b.=.s.s.s.s.s",
".s.s.s.s.s G ^ R O _ _ _ _ _ _ _ _ _ _ _ _ _ _.- . C ~.s.s.s.s.s",
".s.s.s.s.s T [.* 1 v _ _ _ _ _ _ _ _ _ _ _ _ _ p V.X I.s.s.s.s.s",
".s.s.s.s.s.8 U.M.b d v _ _ _ _ _ _ _ _ _ _ _ 9 V j q.k.s.s.s.s.s",
".s.s.s.s.s.s & U.6.t d v _ _ _ _ _ _ _ _ _ 9 V V K = M.s.s.s.s.s",
".s.s.s.s.s.s.s & U.q.b e v _ _ _ _ _ _ _ 9 V j C + M.s.s.s.s.s.s",
".s.s.s.s.s.s.s.s & U.:.g e v _ _ _ _ _ 9 V j s.m M.s.s.s.s.s.s.s",
".s.s.s.s.s.s.s.s.s & U.q.g e v _ _ _ 9 V i q.m M.s.s.s.s.s.s.s.s",
".s.s.s.s.s.s.s.s.s.s & U.a , Q _ _.+ J 8 ,.m M.s.s.s.s.s.s.s.s.s",
".s.s.s.s.s.s.s.s.s.s.s., f C W _ _.-.6 . ` M.s.s.s.s.s.s.s.s.s.s",
".s.s.s.s.s.s.s.s.s.s.s B }.1 O _ _.0 5.7.v.s.s.s.s.s.s.s.s.s.s.s",
".s.s.s.s.s.s.s.s.s.s.s u.> I.o _ _.i Y.:.g.s.s.s.s.s.s.s.s.s.s.s",
".s.s.s.s.s.s.s.s.s.s.s   ,.o S _ _.h [.p A.s.s.s.s.s.s.s.s.s.s.s",
".s.s.s.s.s.s.s.s.s.s.s F.4 z.o.f.c.z o P 6.s.s.s.s.s.s.s.s.s.s.s",
".s.s.s.s.s.s.s.s.s.s.s.s F <.b | ( j X.O.s.s.s.s.s.s.s.s.s.s.s.s",
".s.s.s.s.s.s.s.s.s.s.s.s.s F.;.j U [ k.s.s.s.s.s.s.s.s.s.s.s.s.s",
".s.s.s.s.s.s.s.s.s.s.s.s.s.s.s.s.s.s.s.s.s.s.s.s.s.s.s.s.s.s.s.s",
".s.s.s.s.s.s.s.s.s.s.s.s.s.s.s.s.s.s.s.s.s.s.s.s.s.s.s.s.s.s.s.s",
".s.s.s.s.s.s.s.s.s.s.s.s.s.s.s.s.s.s.s.s.s.s.s.s.s.s.s.s.s.s.s.s",
".s.s.s.s.s.s.s.s.s.s.s.s.s.s.s.s.s.s.s.s.s.s.s.s.s.s.s.s.s.s.s.s",
".s.s.s.s.s.s.s.s.s.s.s.s.s.s.s.s.s.s.s.s.s.s.s.s.s.s.s.s.s.s.s.s",
".s.s.s.s.s.s.s.s.s.s.s.s.s.s.s.s.s.s.s.s.s.s.s.s.s.s.s.s.s.s.s.s"
};
