/* XPM */
static const char * Tile_3_3_3_4_4[] = {
/* width height ncolors chars_per_pixel */
"32 32 176 2",
/* colors */
"   c #6D2E31",
" . c #6E1212",
" X c #802222",
" o c #5C0F0F",
" O c #C6A3A3",
" + c #A28D9A",
" @ c #811515",
" # c #811616",
" $ c #6F1212",
" % c #811F20",
" & c #5D0F0F",
" * c #6E4045",
" = c #6F2222",
" - c #933D3D",
" ; c #821515",
" : c #701212",
" > c #5E0F0F",
" , c #A56666",
" < c #A48D9A",
" 1 c #831515",
" 2 c #94464B",
" 3 c #823B3F",
" 4 c #C8AEAE",
" 5 c #711212",
" 6 c #703838",
" 7 c #A49FAE",
" 8 c #5F0F0F",
" 9 c #5F1111",
" 0 c #937883",
" q c #953E3E",
" w c #825353",
" e c #841515",
" r c #5F1D1D",
" t c #841818",
" y c #B79E9E",
" u c #712E32",
" i c #B7A0A0",
" p c #C9AEAE",
" a c #721212",
" s c #841F1F",
" d c #721313",
" f c #946F78",
" g c #A59FAE",
" h c #601D1D",
" j c #851616",
" k c #B8A0A0",
" l c #843B3F",
" z c #CAAEAE",
" x c #731212",
" c c #731313",
" v c #852323",
" b c #A6A0AE",
" n c #610F0F",
" m c #611010",
" M c #A86767",
" N c #611A1B",
" B c #861616",
" V c #966464",
" C c #DCD7D7",
" Z c #853B3F",
" A c #CBAFAF",
" S c #861F20",
" D c #741313",
" F c #741414",
" G c #862323",
" H c #A7A0AF",
" J c #CBBCBC",
" K c #983E3E",
" L c #855454",
" P c #871616",
" I c #DDD7D7",
" U c #BAA1A1",
" Y c #CCAFAF",
" T c #751313",
" R c #872323",
" E c #A8A0AF",
" W c #631010",
" Q c #985656",
" ! c #AA6767",
" ~ c #985E5E",
" ^ c #510D0D",
" / c #881616",
" ( c #DED7D7",
" ) c #DED8D8",
" _ c #873C40",
" ` c #761313",
" ' c #874449",
" ] c #641010",
" [ c #AB6767",
" { c #520D0D",
" } c #891616",
" | c #641E1E",
".  c #DFD7D7",
".. c #DFD8D8",
".X c #BCA1A1",
".o c #771313",
".O c #651010",
".+ c #997984",
".@ c #AAAABA",
".# c #530D0D",
".$ c #651A1B",
".% c #8A1616",
".& c #8A1A1A",
".* c #781414",
".= c #661111",
".- c #9B5757",
".; c #540E0E",
".: c #8B1616",
".> c #774B51",
"., c #8B1F1F",
".< c #791313",
".1 c #8B2021",
".2 c #D0B4B4",
".3 c #8B2323",
".4 c #9B7079",
".5 c #671111",
".6 c #784146",
".7 c #9B7A85",
".8 c #550E0E",
".9 c #8A5555",
".0 c #8C1717",
".q c #8C2021",
".w c #7A1414",
".e c #7A1B1B",
".r c #681111",
".t c #7A1E1F",
".y c #560E0E",
".u c #9C8C99",
".i c #7B1414",
".p c #7B1818",
".a c #682C30",
".s c #9F3333",
".d c #7B1D1F",
".f c #691111",
".g c #D2BDBD",
".h c #8B6D77",
".j c #7B2121",
".k c #8D3336",
".l c #570E0E",
".z c #691F1F",
".x c #8E1D1D",
".c c #7C1414",
".v c #9E707A",
".b c #C1ADAD",
".n c #6A1111",
".m c #D3BDBD",
".M c #8D4F55",
".N c #580E0E",
".B c #C2A2A2",
".V c #581819",
".C c #7D1E1F",
".Z c #8D6D77",
".A c #9F7A85",
".S c #8F3336",
".D c #590E0E",
".F c #6B1B1B",
".G c #C3A0A0",
".H c #C3A2A2",
".J c #7E1414",
".K c #902222",
".L c #C3ADAD",
".P c None",
".I c #8E7782",
".U c #7F1515",
".Y c #8F6262",
".T c #7F1818",
".R c #6D1414",
".E c #8F6E78",
".W c #5B0F0F",
".Q c #8F7883",
".! c #913D3D",
".~ c #5B181A",
".^ c #C5A3A3",
"./ c #5B1C1C",
".( c #801515",
".) c #801616",
/* pixels */
".P.P.P.P.P.P.P.P.P.P.P.P.P.P.g A.L.b.P.P.P.P.P.P.P.P.P.P.P.P.P.P",
".P.P.P.P.P.P.P.P.P.P.P.P.P.  v @ $.y U.P.P.P.P.P.P.P.P.P.P.P.P.P",
".P.P.P.P.P.P.P.P.P.P.P.P.P.!.w T ;.O.l I.P.P.P.P.P.P.P.P.P.P.P.P",
".P.P.P.P.P.P.P.P.P.P.P.P ,.i n.y S., & | I.P.P.P.P.P.P.P.P.P.P.P",
".P.P.P.P.P.P.P.P.P.P.P.H.w.f.#.h + B.3.N.9.P.P.P.P.P.P.P.P.P.P.P",
".P.P.P.P.P.P.P.P.P.P ( X :.;.a.@.@.4.x d.; V.P.P.P.P.P.P.P.P.P.P",
".P.P.P.P.P.P.P.P.P.P X ..l.~ 7.@.@.@.k.& ].D.X.P.P.P.P.P.P.P.P.P",
".P.P.P.P.P.P.P.P.P.- a > {.Q.@.@.@.@ E.1.( o.z ).P.P.P.P.P.P.P.P",
".P.P.P.P.P.P.P.P.B c.5 {.>.@.@.@.@.@.@.A.%.i.l =.P.P.P.P.P.P.P.P",
".P.P.P.P.P.P.P ( D $.D.V.@.@.@.@.@.@.@.@ 2 } c.N ~.P.P.P.P.P.P.P",
".P.P.P.P.P.P.P.j c m ^ 7.@.@.@.@.@.@.@.@.@.q P ] 9.G.P.P.P.P.P.P",
".P.P.P.P.P.P Q T.n.#.I.@.@.@.@.@.@.@.@.@.@ <.:.K >.F.2.P.P.P.P.P",
".P.P.P.P.P 4.o :.l *.@.@.@.@.@.@.@.@.@.@.@.@.v.0.s o y.P.P.P.P.P",
".P.P.P.P.P p.c 5.#.@.@.@.@.@.@.@.@.@.@.@.@.@.@.S j ].l.P.P.P.P.P",
".P.P.P.P.P p.(.p.y.@.@.@.@.@.@.@.@.@.@.@.@.@.@ _.w W.y.P.P.P.P.P",
".P.P.P.P.P z e s.y.@.@.@.@.@.@.@.@.@.@.@.@.@.@ Z ` W.;.P.P.P.P.P",
".P.P.P.P.P A P.*.N.@.@.@.@.@.@.@.@.@.@.@.@.@.@ l c.O.#.P.P.P.P.P",
".P.P.P.P.P Y }.e.W.@.@.@.@.@.@.@.@.@.@.@.@.@.@ 3 x.f {.P.P.P.P.P",
".P.P.P.P.P Y /.R > g.@.@.@.@.@.@.@.@.@.@.@.@.@ f `.n ^.P.P.P.P.P",
".P.P.P.P.P.m P.<.l u.@.@.@.@.@.@.@.@.@.@.@.@ b `.o >./.P.P.P.P.P",
".P.P.P.P.P.P [ j ..N.E.@.@.@.@.@.@.@.@.@.@.@.t.w.r { C.P.P.P.P.P",
".P.P.P.P.P.P.P K ; m o.u.@.@.@.@.@.@.@.@.@ '.i d.l i.P.P.P.P.P.P",
".P.P.P.P.P.P.P...3.i.N.$.@.@.@.@.@.@.@.@.+.i.i 8 w.P.P.P.P.P.P.P",
".P.P.P.P.P.P.P.P O 1 a.y.6.@.@.@.@.@.@ b.w.U.f 6.P.P.P.P.P.P.P.P",
".P.P.P.P.P.P.P.P.P !.(.=.N 0.@.@.@.@.@.C # c r C.P.P.P.P.P.P.P.P",
".P.P.P.P.P.P.P.P.P.P q.i o N g.@.@.@.M t F.; k.P.P.P.P.P.P.P.P.P",
".P.P.P.P.P.P.P.P.P.P.. R T.l  .@.@.7.(.T.N.Y.P.P.P.P.P.P.P.P.P.P",
".P.P.P.P.P.P.P.P.P.P.P.^.J ..8.Z H %.) o L.P.P.P.P.P.P.P.P.P.P.P",
".P.P.P.P.P.P.P.P.P.P.P.P M.c.5.y.d ;.= h C.P.P.P.P.P.P.P.P.P.P.P",
".P.P.P.P.P.P.P.P.P.P.P.P.P -.i & & :.; J.P.P.P.P.P.P.P.P.P.P.P.P",
".P.P.P.P.P.P.P.P.P.P.P.P.P.  G.*.D.D U.P.P.P.P.P.P.P.P.P.P.P.P.P",
".P.P.P.P.P.P.P.P.P.P.P.P.P.P.P.P.P.P.P.P.P.P.P.P.P.P.P.P.P.P.P.P"
};
