/* XPM */
static const char * Tile_4_6_12[] = {
/* width height ncolors chars_per_pixel */
"32 32 208 2",
/* colors */
"   c #6D2D30",
" . c #6E1212",
" X c #5C0F0F",
" o c #A2838F",
" O c #A36666",
" + c #803134",
" @ c #811515",
" # c #916363",
" $ c #6E2E31",
" % c #6F1212",
" & c #924B4B",
" * c #811F20",
" = c #5D0F0F",
" - c #A38D9A",
" ; c #813639",
" : c #701212",
" > c #5E0F0F",
" , c #5E1010",
" < c #5E1313",
" 1 c #936363",
" 2 c #A57076",
" 3 c #823B3F",
" 4 c #711212",
" 5 c #711313",
" 6 c #A65959",
" 7 c #711414",
" 8 c #711717",
" 9 c #A49FAE",
" 0 c #5F0F0F",
" q c #824D53",
" w c #DACCCC",
" e c #824E54",
" r c #B79595",
" t c #841515",
" y c #833B3B",
" u c #962828",
" i c #721212",
" p c #721313",
" a c #955056",
" s c #A59FAE",
" d c #601010",
" f c #722121",
" g c #834F55",
" h c #851515",
" j c #851616",
" k c #843B3F",
" l c #731313",
" z c #956F79",
" x c #723838",
" c c #731818",
" v c #A6A0AF",
" b c #611010",
" n c #611111",
" m c #611212",
" M c #845057",
" N c #95818D",
" B c #861515",
" V c #861616",
" C c #861717",
" Z c #DCD7D7",
" A c #B9A1A1",
" S c #741313",
" D c #975056",
" F c #621010",
" G c #741D1E",
" H c #621111",
" J c #500D0D",
" K c #742727",
" L c #871616",
" P c #976464",
" I c #DDD7D7",
" U c #992929",
" Y c #CCAFAF",
" T c #751313",
" R c #872323",
" E c #A8A0AF",
" W c #631010",
" Q c #CCBCBC",
" ! c #864E54",
" ~ c #631616",
" ^ c #985E60",
" / c #510D0D",
" ( c #881616",
" ) c #DED7D7",
" _ c #881919",
" ` c #DED8D8",
" ' c #CDAFAF",
" ] c #761313",
" [ c #874949",
" { c #CDBCBC",
" } c #520D0D",
" | c #641A1B",
".  c #98818D",
".. c #891616",
".X c #754B51",
".o c #DFD7D7",
".O c #996666",
".+ c #DFD8D8",
".@ c #891A1A",
".# c #891C1C",
".$ c #AB7777",
".% c #988B98",
".& c #771313",
".* c #771818",
".= c #892525",
".- c #651010",
".; c #772525",
".: c #AAAABA",
".> c #530D0D",
"., c #9B3F3F",
".< c #530E0E",
".1 c #8A1717",
".2 c #764B51",
".3 c #9A6464",
".4 c #E0D8D8",
".5 c #893C3C",
".6 c #781313",
".7 c #781414",
".8 c #9C2F2F",
".9 c #781717",
".0 c #773A3E",
".q c #661010",
".w c #661111",
".e c #CFBDBD",
".r c #AD6767",
".t c #661616",
".y c #540D0D",
".u c #540E0E",
".i c #8B1616",
".p c #661E1E",
".a c #8B1B1B",
".s c #8A3C3C",
".d c #9A8C98",
".f c #791414",
".g c #791717",
".h c #671111",
".j c #550E0E",
".k c #9B828E",
".l c #8C1717",
".z c #9C6565",
".x c #E2DCDC",
".c c #8C2021",
".v c #7A1414",
".b c #7A1515",
".n c #7A1616",
".m c #7A1818",
".M c #672C30",
".N c #681111",
".B c #D1BDBD",
".V c #681818",
".C c #560E0E",
".Z c #9C828E",
".A c #794B52",
".S c #7A2F33",
".D c #9C8C99",
".F c #8D2021",
".G c #7B1414",
".H c #9E4D4D",
".J c #8B6262",
".K c #7B1616",
".L c #9D707A",
".P c #691111",
".I c #68373B",
".U c #570E0E",
".Y c #9D828E",
".T c #7C1414",
".R c #9E707A",
".E c #7C1B1B",
".W c #C1ADAD",
".Q c #6A1111",
".! c #C29595",
".~ c #580E0E",
".^ c #580F0F",
"./ c #9E828E",
".( c #B09292",
".) c #C2A0A0",
"._ c #D4B1B1",
".` c #7D1414",
".' c #C2ADAD",
".] c #6B1111",
".[ c #D4BDBD",
".{ c #7D2121",
".} c #8F3336",
".| c #590E0E",
"X  c #590F0F",
"X. c #9F838E",
"XX c #6B1F1F",
"Xo c #B27373",
"XO c #7E1414",
"X+ c #C3ADAD",
"X@ c None",
"X# c #6C1111",
"X$ c #7E1E1E",
"X% c #6C1212",
"X& c #5A0E0E",
"X* c #5A0F0F",
"X= c #A0838E",
"X- c #903D3D",
"X; c #7F1414",
"X: c #7F1616",
"X> c #8F6363",
"X, c #912424",
"X< c #6D1212",
"X1 c #5B0F0F",
"X2 c #5B1010",
"X3 c #A1838F",
"X4 c #6D2020",
"X5 c #801515",
/* pixels */
"X@X@X@X@X@X@X@X@X@X@X@X@X@X@X@X@X@X@X@X@X@X@X@X@X@X@X@X@X@X@X@X@",
"X@X@X@X@X@X@X@X@X@X@X@X@X@X@X@X@X@X@X@X@X@X@X@X@X@X@X@X@X@X@X@X@",
"X@X@X@X@X@X@X@X@X@X@X@X@X@.W.W.'.'.'X+ IX@X@X@X@X@X@X@X@X@X@X@X@",
"X@X@X@X@X@X@X@X@X@X@ Z.J.> }.u.<.u.j.C.~XX rX@X@X@X@X@X@X@X@X@X@",
"X@X@X@X@X@X@X@X@ ZX>X& FX< 4 T.n.=.m p % X.| K.)X@X@X@X@X@X@X@X@",
"X@X@X@X@X@X@ Z 1 bX# ].v ].TXO @ t j t L u.*X*X2.s._X@X@X@X@X@X@",
"X@X@X@X@X@ I FX#.6X:.f i !.Z.Y././X.X..L.c.l t pX1 <XoX@X@X@X@X@",
"X@X@X@X@X@ PX% 4X<.P q s.:.:.:.:.:.:.:.:.:.R.F.i U cX4.xX@X@X@X@",
"X@X@X@X@ IX#.7 . $ s.:.:.:.:.:.:.:.:.:.:.:.:.: o.i C >.$X@X@X@X@",
"X@X@X@X@.z.7.b W.d.:.:.:.:.:.:.:.:.:.:.:.:.:.:.: D (.N.t `X@X@X@",
"X@X@X@.e l.6.q.M.:.:.:.:.:.:.:.:.:.:.:.:.:.:.:.: E..X5X .OX@X@X@",
"X@X@X@ O.G.N.y.%.:.:.:.:.:.:.:.:.:.:.:.:.:.:.:.:.: a V.N.pX@X@X@",
"X@X@X@ & ].w }.:.:.:.:.:.:.:.:.:.:.:.:.:.:.:.:.:.:X= h %X1X@X@X@",
"X@X@X@ [ %.w /.:.:.:.:.:.:.:.:.:.:.:.:.:.:.:.:.:.:X= L.E ,X@X@X@",
"X@X@ {.| b 0 J.:.:.:.:.:.:.:.:.:.:.:.:.:.:.:.:.:.:X3 (.9.U xX@X@",
"X@X@ # ~ > W.2.:.:.:.:.:.:.:.:.:.:.:.:.:.:.:.:.:.: E.F L SX* QX@",
"X@.+ 8 f ;. .:.:.:.:.:.:.:.:.:.:.:.:.:.:.:.:.:.:.:.: E.L * T ^X@",
"X@.r.`.^ 2.:.:.:.:.:.:.:.:.:.:.:.:.:.:.:.:.:.:.:.:.:.: sX#.8.{X@",
"X@.! B.q.V v.:.:.:.:.:.:.:.:.:.:.:.:.:.:.:.:.:.:.:.:.:.S.#X; yX@",
"X@.4..X5X&.0.:.:.:.:.:.:.:.:.:.:.:.:.:.:.:.:.:.:.:.:.k ].&.-.(X@",
"X@X@ 6 tX<.|.:.:.:.:.: 9.I.y.j.C.U.|X1   e v.:.:.:.: k.G.q.> ZX@",
"X@X@ Y V . =.:.:.: 9.X }.-.] . 5 7X%.P 0.C n g v.:.: 3 S.w }X@X@",
"X@X@ ' (X$.;.D s.A.>.j.q S.TXO @ t j h.a.b 0.C H M N | 4.h /X@X@",
"X@X@ '.. RX*.U.C.j >.Q : G z.Y././X.X..} ( _.g d.~ m FX# b JX@X@",
"X@X@.4X, (.T.]X< ].& + z.:.:.:.:.:.:.:.: -.}.1.@.K.P ..].h AX@X@",
"X@X@X@X@ '.H.`X;X-.BX@X@X@X@X@X@X@X@X@X@X@X@.[.,...5X<.3 IX@X@X@",
"X@X@X@X@X@X@X@.oX@X@X@X@X@X@X@X@X@X@X@X@X@X@X@X@ w )X@X@X@X@X@X@",
"X@X@X@X@X@X@X@X@X@X@X@X@X@X@X@X@X@X@X@X@X@X@X@X@X@X@X@X@X@X@X@X@",
"X@X@X@X@X@X@X@X@X@X@X@X@X@X@X@X@X@X@X@X@X@X@X@X@X@X@X@X@X@X@X@X@",
"X@X@X@X@X@X@X@X@X@X@X@X@X@X@X@X@X@X@X@X@X@X@X@X@X@X@X@X@X@X@X@X@",
"X@X@X@X@X@X@X@X@X@X@X@X@X@X@X@X@X@X@X@X@X@X@X@X@X@X@X@X@X@X@X@X@",
"X@X@X@X@X@X@X@X@X@X@X@X@X@X@X@X@X@X@X@X@X@X@X@X@X@X@X@X@X@X@X@X@"
};
