/* XPM */
static const char * Tile_3_3_3_3_6[] = {
/* width height ncolors chars_per_pixel */
"32 32 195 2",
/* colors */
"   c #6E1212",
" . c #906E78",
" X c #5C0F0F",
" o c #5C1010",
" O c #B49292",
" + c #811515",
" @ c #6F1212",
" # c #6E373C",
" $ c #5D0F0F",
" % c #804848",
" & c #6F1C1C",
" * c #925656",
" = c #B59393",
" - c #5D191A",
" ; c #701212",
" : c #5E0F0F",
" > c #701D1D",
" , c #935656",
" < c #5E1212",
" 1 c #A48D9A",
" 2 c #831515",
" 3 c #831616",
" 4 c #711212",
" 5 c #945053",
" 6 c #A49FAE",
" 7 c #5F0F0F",
" 8 c #711C1D",
" 9 c #5F1010",
" 0 c #5F1313",
" q c #946363",
" w c #962323",
" e c #841919",
" r c #833B3B",
" t c #833B3F",
" y c #DADADD",
" u c #721212",
" i c #721313",
" p c #A59FAE",
" a c #600F0F",
" s c #834848",
" d c #601010",
" f c #C9BCBC",
" g c #601212",
" h c #B89393",
" j c #60191B",
" k c #851616",
" l c #731313",
" z c #731414",
" x c #731515",
" c c #723539",
" v c #965056",
" b c #844449",
" n c #72383C",
" m c #611010",
" M c #CABCBC",
" N c #732020",
" B c #DCD7D7",
" V c #741313",
" C c #A7A1B0",
" Z c #621010",
" A c #621111",
" S c #742020",
" D c #500D0D",
" F c #871616",
" G c #DDD7D7",
" H c #871B1B",
" J c #751313",
" K c #977171",
" L c #A8A0AF",
" P c #631010",
" I c #864949",
" U c #752020",
" Y c #510D0D",
" T c #865454",
" R c #881616",
" E c #752F32",
" W c #881D1D",
" Q c #761313",
" ! c #641010",
" ~ c #987680",
" ^ c #754244",
" / c #520D0D",
" ( c #891616",
" ) c #891717",
" _ c #754B51",
" ` c #891818",
" ' c #891919",
" ] c #BCA1A1",
" [ c #883C40",
" { c #891F1F",
" } c #771313",
" | c #884447",
".  c #763939",
".. c #CEBCBC",
".X c #AAAABA",
".o c #530D0D",
".O c #530E0E",
".+ c #8A1616",
".@ c #9A6464",
".# c #8A1919",
".$ c #E0D8D8",
".% c #998B98",
".& c #781313",
".* c #781414",
".= c #AB9AA6",
".- c #781616",
".; c #652C2F",
".: c #661010",
".> c #661111",
"., c #CFBDBD",
".< c #661414",
".1 c #886D76",
".2 c #9C3F3F",
".3 c #661A1B",
".4 c #540E0E",
".5 c #782A2A",
".6 c #BDBDC8",
".7 c #8B1B1B",
".8 c #CFCFD5",
".9 c #9A8B98",
".0 c #791313",
".q c #791414",
".w c #8B2121",
".e c #783B3F",
".r c #671111",
".t c #AE6767",
".y c #9D3F3F",
".u c #671A1A",
".i c #784747",
".p c #792F33",
".a c #8C2021",
".s c #E2E2E3",
".d c #7A1818",
".f c #681111",
".g c #560E0E",
".h c #794747",
".j c #8C3D41",
".k c #9C8C99",
".l c #7B1414",
".z c #9D707A",
".x c #691111",
".c c #8B6D77",
".v c #7B2222",
".b c #7A4247",
".n c #D2C1C1",
".m c #570E0E",
".M c #7A4747",
".N c #691B1B",
".B c #AEAEBD",
".V c #7C1414",
".C c #7C1616",
".Z c #6A1111",
".A c #8D4E4E",
".S c #C29595",
".D c #6A1818",
".F c #580E0E",
".G c #7B4747",
".H c #580F0F",
".J c #9E828E",
".K c #8D585E",
".L c #B09292",
".P c #7D1414",
".I c #D3D3D8",
".U c #7C3A3A",
".Y c #8E4848",
".T c #6B1111",
".R c #D4BDBD",
".E c #590E0E",
".W c #590F0F",
".Q c #9F838E",
".! c #6B1F1F",
".~ c #7C4C52",
".^ c #8F3D41",
"./ c #7E1515",
".( c #902424",
".) c #B1A0AC",
"._ c None",
".` c #6C1111",
".' c #6C1212",
".] c #903336",
".[ c #7D4747",
".{ c #5A0F0F",
".} c #A0838E",
".| c #8E7782",
"X  c #C4A8A8",
"X. c #912424",
"XX c #6C2D30",
"Xo c #7E3A3A",
"XO c #6D1111",
"X+ c #6D1212",
"X@ c #A25D60",
"X# c #5B0E0E",
"X$ c #A1838F",
"X% c #913D41",
"X& c #5B191A",
/* pixels */
"._._._._._._._._._._._._._._._._._._._._._._._._._._._._._._._._",
"._._._._._._._._._._._._._._._._._._._._._._._._._._._._._._._._",
"._._._._._._._._._._._._._._._._._._._._._._._._._._._._._._._._",
"._._._._._._._._._._._._._._._._._._._._._._._._._._._._._._._._",
"._._._._._._._._._ K.h.h.M.G.[ % s I.A.n._._._._._._._._._._._._",
"._._._._._._._._ BX#.fX+X+.T.f ! a $.F.Y._._._._._._._._._._._._",
"._._._._._._._._ T.f V./ k R ( ( ) `.C <X ._._._._._._._._._._._",
"._._._._._._._ M 9 V ;.p t [.j.^X%.a.7 7.5 y._._._._._._._._._._",
"._._._._._._._. X+.* 8.X.X.X.X.X.X 1.+.d o ~.6.s._._._._._._._._",
"._._._._._._.L.f.l u ..X.X.X.X.X.X.X v.# Z.D C.X.8._._._._._._._",
"._._._._._ G.! }.l E.X.X.X.X.X.X.X.X L.a H.H.K.X.X.B.I._._._._._",
"._._._._._ q @ e  .k.X.X.X.X.X.X.X.X.X.z ( x 0 b.e n # ^.i f._._",
"._._._._ G.f W V.b.X.X.X.X.X.X.X.X.X.X.X.] '.r.{.F.F.o /.m.U.s._",
"._._._._Xo.&.w.: p.X.X.X.X.X.X.X.X.X.X.X 1.+ ` 2.P Q @.f.mX+ h._",
"._._._ ] ; W  .~.X.X.X.X.X.X.X.X.X.X.X.X.X 1X$X$.}.Q.JXX d u U._",
"._._._ N./ J.3 p.X.X.X.X.X.X.X.X.X.X.X.X.X.X.X.X.X.X 6.FX+ @ =._",
"._._ O l.l.:.c.X.X.X.X.X.X.X.X.X.X.X.X.X.X.X.X.X.X.X _ m i S._._",
"._ G  .qX+ j.X.X.X.X.X.X.X.X.X.X.X.X.X.X.X.X.X.X.X.%.{ @ @..._._",
"._ , V z $.9.X.X.X.X.X.X.X.X.X.X.X.X.X.X.X.X.X.X.X.;.> u r._._._",
"._.,.v g c.X.X.X.X.X.X.X.X.X.X.X.X.X.X.X.X.X.X.X.| X ;  ..._._._",
"._.2 {.W 5.X.X.X.X.X.X.X.X.X.X.X.X.X.X.X.X.X.X.XX&.x 4.@._._._._",
"._.t w.'.u.).X.X.X.X.X.X.X.X.X.X.X.X.X.X.X.X.X.1 $ 4XO G._._._._",
"._.$X. 3 :X@.X.X.X.X.X.X.X.X.X.X.X.X.X.X.X.X 6 -X+ ; =._._._._._",
"._._.S.+ @.N.=.X.X.X.X.X.X.X.X.X.X.X.X.X.X.X _ 7 u S._._._._._._",
"._._._.y 2 : |.X.X.X.X.X.X.X.X.X.X.X.X.X.X 6.E   ; =._._._._._._",
"._._._.R (.&.H.D & >.< A : X.E.g.o D D Y.4.F.x 4 r._._._._._._._",
"._._._._.t R.-.`.r P m : X.E.g.O.4.m X m.>.` iX+..._._._._._._._",
"._._._._.$.( ( R F k 2 +./.V.0 Q l ;X+.Z.Z.Z.` *._._._._._._._._",
"._._._._._._._._._._._._._._._._._._._._._._._._._._._._._._._._",
"._._._._._._._._._._._._._._._._._._._._._._._._._._._._._._._._",
"._._._._._._._._._._._._._._._._._._._._._._._._._._._._._._._._",
"._._._._._._._._._._._._._._._._._._._._._._._._._._._._._._._._"
};
