/* XPM */
static const char * IconUnList[] = {
/* width height ncolors chars_per_pixel */
"32 32 241 2",
/* colors */
"   c #9FCB9F",
" . c #9EC99E",
" X c #ADADAD",
" o c #9CC79C",
" O c #9BC59B",
" + c #9AC59A",
" @ c #100909",
" # c #ABD9D9",
" $ c #A9A9A9",
" % c #0E0707",
" & c #96BF96",
" * c #B48DB4",
" = c #B38DB3",
" - c #928F8F",
" ; c #A1A1A1",
" : c #91B991",
" > c #8FB78F",
" , c #AC87AC",
" < c #8EB58E",
" 1 c #474242",
" 2 c #A985A9",
" 3 c #A883A8",
" 4 c #8BB18B",
" 5 c #1C1B1B",
" 6 c #87AB87",
" 7 c #A27FA2",
" 8 c #86AB86",
" 9 c #939393",
" 0 c #85A985",
" q c #919191",
" w c #82A582",
" e c #80A380",
" r c #121111",
" t c #7FA17F",
" y c #7EA17E",
" u c #7C9D7C",
" i c #867F86",
" p c #8D6F8D",
" a c #C298C1",
" s c #120A0A",
" d c #100808",
" f c #8BB2B2",
" g c #9AC4C4",
" h c #98C2C2",
" j c #A3D0D0",
" k c #725B72",
" l c #AEDEDE",
" z c #110C0C",
" x c #656565",
" c c #636363",
" v c #675367",
" b c #A17EA0",
" n c #42313C",
" m c #393333",
" M c #0E0C0C",
" N c #BDBBBB",
" B c #221919",
" V c #373E3E",
" C c #465746",
" Z c #4B4B4B",
" A c #7F7E7E",
" S c #474747",
" D c #ADABAB",
" F c #120909",
" G c #3A473A",
" H c #31292E",
" J c #2B3128",
" K c #1D1717",
" L c #252C2C",
" P c #3B3B3B",
" I c #98C1C1",
" U c #664E62",
" Y c #3A313A",
" T c #392F39",
" R c None",
" E c #D9FAD9",
" W c #AAD9D9",
" Q c #0D0707",
" ! c #F0BCF0",
" ~ c #2B272B",
" ^ c #C5FCC5",
" / c #C2F8C2",
" ( c #232323",
" ) c #C0F4C0",
" _ c #E6B4E6",
" ` c #BEF2BE",
" ' c #E3B2E3",
" ] c #BCF0BC",
" [ c #BBEEBB",
" { c #1D1D1D",
" } c #1D1B1D",
" | c #1C191C",
".  c #BCE6BC",
".. c #B7EAB7",
".X c #B6E8B6",
".o c #6C8888",
".O c #B3E4B3",
".+ c #131313",
".@ c #B1E2B1",
".# c #111111",
".$ c #AFE0AF",
".% c #AEDEAE",
".& c #0F0F0F",
".* c #ADDCAD",
".= c #ACDCAC",
".- c #0D0D0D",
".; c #ADDAAD",
".: c #ABDAAB",
".> c #BCBCBC",
"., c #A9D8A9",
".< c #7EA0A0",
".1 c #A8D6A8",
".2 c #CA9ECA",
".3 c #A7D4A7",
".4 c #A6D4A6",
".5 c #1E1417",
".6 c #A5D2A5",
".7 c #C49AC4",
".8 c #303939",
".9 c #AEAEAE",
".0 c #9DC89D",
".q c #9AC49A",
".w c #0F0808",
".e c #AAD8D8",
".r c #B790B7",
".t c #98C298",
".y c #98C098",
".u c #97C097",
".i c #B48EB4",
".p c #96BE96",
".a c #95BE95",
".s c #B28CB2",
".d c #939090",
".f c #92BA92",
".g c #A0A0A0",
".h c #484343",
".j c #987695",
".k c #89AE89",
".l c #88AE88",
".z c #1B1A1A",
".x c #A380A3",
".c c #87AC87",
".v c #85AA85",
".b c #9E7C9E",
".n c #7EA07E",
".m c #7C9E7C",
".M c #666060",
".N c #779677",
".B c #759275",
".V c #282B23",
".C c #85A9A9",
".Z c #110909",
".A c #8CB3B3",
".S c #0F0707",
".D c #99C3C3",
".F c #A2CFCF",
".G c #666666",
".H c #1F1D1D",
".J c #685468",
".K c #54675E",
".L c #9E7B9D",
".P c #3C3636",
".I c #624E62",
".U c #516651",
".Y c #7E9F7D",
".T c #545454",
".R c #4F404F",
".E c #484848",
".W c #876B86",
".Q c #464646",
".! c #EDFFED",
".~ c #AEACAC",
".^ c #6D896C",
"./ c #130A0A",
".( c #3A463A",
".) c #7DA0A0",
"._ c #8CB2B2",
".` c #384438",
".' c #3C3C3C",
".] c #99C2C2",
".[ c #354035",
".{ c #383838",
".} c #343E34",
".| c #3A303A",
"X  c #323C32",
"X. c #93BCBC",
"XX c #A2CECE",
"Xo c #D1FBD1",
"XO c #9CC8C8",
"X+ c #455555",
"X@ c #0E0808",
"X# c #A9D8D8",
"X$ c #F1BDF1",
"X% c #2C2C2C",
"X& c #C7FDC7",
"X* c #C6FDC6",
"X= c #B6E8E8",
"X- c #EDBBED",
"X; c #B4E6E6",
"X: c #C3F9C3",
"X> c #D7D7D7",
"X, c #3C3535",
"X< c #C2F7C2",
"X1 c #9A7898",
"X2 c #414D3D",
"X3 c #202020",
"X4 c #1E1E1E",
"X5 c #BAEDBA",
"X6 c #1C1C1C",
"X7 c #DFAFDF",
"X8 c #1C1A1C",
"X9 c #1A1C1A",
"X0 c #B8EBB8",
"Xq c #191C19",
"Xw c #171A17",
"Xe c #181818",
"Xr c #B5E7B5",
"Xt c #7C9B9B",
"Xy c #4A4949",
"Xu c #B3E3B3",
"Xi c #393535",
"Xp c #121212",
"Xa c #B0E1B0",
"Xs c #769595",
"Xd c #101010",
"Xf c #0E0E0E",
"Xg c #BFBFBF",
"Xh c #BDBDBD",
"Xj c #CDA1CD",
"Xk c #7FA1A1",
"Xl c #CB9FCB",
"Xz c #CA9FCA",
"Xx c #B9B9B9",
"Xc c #C89DC8",
"Xv c #8AAFAF",
"Xb c #88ADAD",
"Xn c #A3CFA3",
"Xm c #383737",
"XM c #A2CFA2",
"XN c #171310",
"XB c #A1CDA1",
/* pixels */
" R R R R R R R R R R R R R B.w.h R R R R R RX>./ % - R R R R R R",
" R R R R R R R R R R R R R.M F % R R R R R R RX, @ 5X6.- {.EXg R",
" R R R R R R R R R R R R R N./ % D R R R R R R.{Xf LXs.K.o LXp $",
" R R R R R R R R R R R R R R B.w.h R R R R RX>.#X+X=X=X=X= #X+.&",
" R R R R R R R R R R R R R R.M F % R R R R R.9XpX;X=X=X=X=X= l.-",
" R R R R R R R R R R R R R R N./ % D R R R R.9Xp I gX.XO # W W.-",
" R.~ 1 D R R R R R R R R R R R B d m R R R R.9Xp I.CXk.A g j.e.-",
" R B.w.h R R R R R R R R R R R.d F %X> R R R.9.+ I.C.<.A.D j WXf",
" R.M.Z.w R R R R R R R R R R RX>./ % - R R R.9.+ I.C.)._.D.F WXf",
" R N./ % D R R R R R R R R R R RX, d.H i S R.9.+ h.C.) f h.F.eXf",
" R R B.S.h R R R R R R R R R R R.d./ r.iXf.>.9.+ h.C.) f IXX.e.-",
" R R.M F % R R R R R R R R R R RX> z TXj v.{.9.+ h.CXs.oX+Xt.eXf",
" R R N./ % D R R R R R R R R R R RX%.WXjX7Xf i.+ h.CXs./.S VX#.-",
" R R R B d.h R R R R R R R R R RXhX8.x.2X-.R.&.+.].C.) ~.Z.SX#Xf",
" R R R.M s %X> R R R R R R R R R x k.xXl _.7XfXp.].C.).G./ QXk.-",
" R R RX>./X@Xm S S c.> R R R RX>.# 3 2Xz ' !.|Xd.].C.)Xk./.S V.-",
" R R R.g MXw.[.( G GXq ( X R R 9 Y 7 7X1 H a.7Xf.oXb.)XvX%.Z %.-",
" R R.gXf G.0.:.OX5 )Xu C.+Xx RX3 p.b ,./.S U ! TXp.+.8.8.z./ Q A",
" R ;.&.^ &XM.=Xr ] / ^ ^ 6Xe A | 2 b.s n.Z.5 ! aXf i ZXyXy./.S m",
"X>Xd.U.k.uXn.*Xr [X< ^X&X* uXe k.x.x *.j./ % a ! T x R R RX,.Z %",
" xX9.m 8.p  .:.@X5XoXoX*X&X<X  k.b 3.i.2./.S UX$ =XfX> R R.d./ %",
" PX  e.v : o.6.*XrXo.!X:X:X<.U ~.L 2.rXc n.Z.5 !.J.-X> R RX>./.w",
"Xp.B w t <.u  .1XaXr ] ` ` `.k.-.I p ,Xc.b./ %.W Y.T R R R RX, F",
".+.N.k.m.c >.qXB.,.%.O.XX0...6.- }X8 T.J.R./.w z.TX> R R R R.d./",
".+.m < t t.l.f OXB.3.:.%Xa.$.1X6 9 Z.'XpX3.P F % R R R R R RX>./",
".'.^ &.c.m e.k :.t .XM.4.3.6.N.Q R R R R R N./ % D R R R R R RX,",
".9X .;.y 0 u y.Y.^.V.n.0 +.t J q R R R R R R B.S.h R R R R R R.d",
" R (.K E.p.v.n u./.wX2 > 4X2X6 R R R R R R R.M F % R R R R R R R",
" RXh (.N.  O 4 w J.ZXN e G {X> R R R R R R R N./ Q D R R R R R R",
" R RXh (.} t.a.a.^./ %.VX4 ; R R R R R R R R R B d.h R R R R R R",
" R R RX>.G.+.+.(.`./.SXiX> R R R R R R R R R R.M./ % R R R R R R",
" R R R R R R.9.9.9.P F K R R R R R R R R R R R N./ % - R R R R R"
};
