/* XPM */
static const char * IconNewScene[] = {
/* width height ncolors chars_per_pixel */
"32 32 83 1",
/* colors */
"  c #DCD6DB",
". c #8E5D88",
"X c #595939",
"o c #656548",
"O c #365513",
"+ c #59310E",
"@ c #C1A39F",
"# c #73160A",
"$ c #14751C",
"% c #AD8EA9",
"& c #B7908B",
"* c #5F1556",
"= c #5F2A0D",
"- c #C8AFAC",
"; c #844E7D",
": c #8EB1B1",
"> c #418383",
", c #6E311B",
"< c #914D44",
"1 c #A26C65",
"2 c #D6DDDD",
"3 c #DADAD7",
"4 c #C3CABD",
"5 c None",
"6 c #985951",
"7 c #37370F",
"8 c #A18295",
"9 c #43431E",
"0 c #317979",
"q c #6C1D0B",
"w c #C0AABD",
"e c #6B170D",
"r c #9CA3A3",
"t c #4E8B8B",
"y c #8A3F35",
"u c #ADCAB0",
"i c #70160B",
"p c #167618",
"a c #531816",
"s c #7B2419",
"d c #9B5E56",
"f c #C5AFAD",
"g c #92927E",
"h c #823026",
"j c #B8B8AD",
"k c #9DBABA",
"l c #48994F",
"z c #C4C4BC",
"x c #627E4B",
"c c #382C2C",
"v c #A8766F",
"b c #5B1813",
"n c #995B53",
"m c #B99590",
"M c #BACCCC",
"N c #CABAC8",
"B c #245914",
"V c #6F6F54",
"C c #2C4A12",
"Z c #7B4174",
"A c #A06760",
"S c #7B7B63",
"D c #B18681",
"F c #055F5F",
"G c #905E5A",
"H c #156868",
"J c #834636",
"K c #0F7D19",
"L c #9D9A84",
"P c #296215",
"I c #55054B",
"U c #D7CCCA",
"Y c #5D9494",
"T c #4E1426",
"R c #4B1919",
"E c #8EA385",
"W c #DED8D7",
"Q c #BDB0B0",
"! c #CFBDBB",
"~ c #A2A292",
"^ c #B79DB4",
"/ c #AEAEA1",
"( c #565E3A",
/* pixels */
"55:HF0M5555555555555555555555555",
"2HFFFFFt555555555555555555555555",
"YFFFFFFFM55555555555555555555555",
">FFFFFFFY55555555555555555555555",
"HFFFFFFF>55555555555555555555555",
">FFFFFFF:55555555555555555555555",
"kHFFFFF025555 .*IZN5555555555555",
"520FFFY55555 *IIIII^555555555555",
"555rc2555555ZIIIIIII555555555555",
"555QR555555 IIIIIIII%55555555555",
"555QRRRRRRRTIIIIIIIIZ55555555555",
"555QRQQQQQQ8IIIIIIIIZ55555555555",
"555QR5555555IIIIIIIIw55555555555",
"555QR5555555^IIIIII;555555555555",
"555QR55555555 *III^5555555~oS355",
"555QR5555555555l$5555555397777/5",
"5U5QR5555555555lK555555597777793",
"<s5QR5-#-555555lKuuuuuuE7777777o",
"<#mQR5-#-555555lKKKKKKKC7777777o",
"<#sQR5-#-555555lKuuuuuu(7777777o",
"<s#GR5-#-5W-!55lK555555z7777777/",
"<<yiR5-#-v###Av,K5yn5-<!/97777S5",
"<<!#b5-#1#D5@###K5#<5-#-55~oS355",
"<<5yi5-##y555sd#P-##5<#555jgj355",
"<<5f#m-##s<<<sy#Om##Wyy5397777/5",
"<<5Qes-##D<<<<Ws+<s#-#A597777793",
"<<5Qa#d##-55555<qs<#y#-~7777777o",
"<<5QRy###m555U5x##LJ##u(7777777o",
"<<5QR!##hsW5Ws&4##pO#=KB7777777o",
"<<5QR5y#-6###655ss5!#A5z7777777/",
"555QR5W555m<A55555555555/77777V5",
"555QR55555555555555555555zX79~55"
};
