/* XPM */
static const char * IconPolyline[] = {
/* width height ncolors chars_per_pixel */
"32 32 86 1",
/* colors */
"  c #0D0D06",
". c #DCDCDB",
"X c #191915",
"o c #5E5E5C",
"O c #171713",
"+ c #91918E",
"@ c #13130F",
"# c #464641",
"$ c #090905",
"% c #4E4E4C",
"& c #070703",
"* c #383833",
"= c #7D7D7A",
"- c #424240",
"; c #22221D",
": c #323230",
"> c #676764",
", c #ACACAB",
"< c #61615E",
"1 c #1A1A15",
"2 c #5F5F5C",
"3 c #9E9E9D",
"4 c #51514E",
"5 c #0A0A05",
"6 c #90908F",
"7 c #434340",
"8 c #2B2B25",
"9 c #333330",
"0 c #ADADAB",
"q c #1D1D17",
"w c #62625E",
"e c #1B1B15",
"r c #171711",
"t c None",
"y c #9F9F9D",
"u c #0D0D07",
"i c #52524E",
"p c #0B0B05",
"a c #171714",
"s c #91918F",
"d c #8F8F8D",
"f c #464642",
"g c #0B0B08",
"h c #070704",
"j c #343430",
"k c #BABABA",
"l c #1C1C15",
"z c #101009",
"x c #0E0E07",
"c c #D7D7D6",
"v c #0C0C08",
"b c #4F4F4D",
"n c #080804",
"m c #373732",
"M c #C3C3C2",
"N c #BDBDBC",
"B c #BBBBBA",
"V c #ABABAA",
"C c #191914",
"Z c #0D0D08",
"A c #0B0B06",
"S c #50504D",
"D c #090904",
"F c #8F8F8E",
"G c #383832",
"H c #42423F",
"J c #BCBCBA",
"K c #14140E",
"L c #A0A09E",
"P c #10100A",
"I c #9C9C9A",
"U c #53534F",
"Y c #0C0C06",
"T c #1C1C19",
"R c #DBDBDB",
"E c #929290",
"W c #161613",
"Q c #D7D7D7",
"! c #90908E",
"~ c #454541",
"^ c #3F3F3B",
"/ c #080805",
"( c #060603",
") c #7C7C7A",
"_ c #1D1D16",
"` c #191912",
/* pixels */
"tttttttttttttttttttttttttttttttt",
"ttttttttttttttttttttB6tttttttttt",
"ttttttttttttttttBF-n5DEttttttttt",
"ttttttttttttVo-nAKz`*qTttttttttt",
"ttttttttVo9DAuxx_w0tt8vItttttttt",
"tttttH:n5Z;rufsQtttttsP@Rttttttt",
"tttttCAYYew,tttttttttt_D=ttttttt",
"ttttt<~+QtttttttttttttsYW.tttttt",
"ttttttttttttttttttttttt_n>tttttt",
"tttttttttttttttttttttttJYgMttttt",
"tttttttttttttttttttttttt*n^ttttt",
"ttttttttttttttttttttttttJY/Ntttt",
"tttttttttttttttttttttttttGDXtttt",
"tttttttttttttttttttttttttJph!ttt",
"ttttttttttttttttttttttttttw5attt",
"ttttttttttttttttttttttttttQYnFtt",
"tttttttttttttttttttttttttttwpnct",
"tttttttttttttttQi#-ttttttttQYn2t",
"tttttttttttttty1nA$dtttttttt<Ahc",
"ttttttttttttc4D&dQYhctttttttt $7",
"tttttttttttyC&Wktt<5:ttttttt+YhB",
"tttttttttcSh(%ctttQendttttttl59t",
"ttttttttya&&3tttttt+YOctttt+YhBt",
"ttttttcS&&Wcttttttttm$bttttl59tt",
"ttttt3OhnbttttttttttBzn3tt, hBtt",
"tttcbnna3ttttttttttttUAOttm59ttt",
"tt3ODDjctttttttttttttQuD2B hBttt",
"t9D5$2ttttttttttttttttwYhe59tttt",
"t!5Cyttttttttttttttttttlp hBtttt",
"tt)ctttttttttttttttttttLm~2ttttt",
"tttttttttttttttttttttttttttttttt",
"tttttttttttttttttttttttttttttttt"
};
