/* XPM */
static const char * IconMenuViews[] = {
/* width height ncolors chars_per_pixel */
"32 32 102 2",
/* colors */
"   c #000000",
" . c #DBCDCD",
" X c #D9D9E2",
" o c #B86C6C",
" O c #9F7867",
" + c #202029",
" @ c #B9B9D3",
" # c #30303C",
" $ c #B0B0D4",
" % c #A6A0CA",
" & c #78AD78",
" * c #77AB77",
" = c #D6B7B7",
" - c #76A976",
" ; c #8A96AB",
" : c #99A8BD",
" > c #D6C4C4",
" , c #D4C2C2",
" < c #787899",
" 1 c #241515",
" 2 c #BA6D6D",
" 3 c #558F55",
" 4 c #B58596",
" 5 c #9898C2",
" 6 c #A15E5E",
" 7 c #437143",
" 8 c #6DA376",
" 9 c #D8C5C5",
" 0 c #3B613B",
" q c #A47467",
" w c #777797",
" e c #2A472A",
" r c None",
" t c #482A2A",
" y c #0D0707",
" u c #213521",
" i c #A8A8CA",
" p c #CFDECF",
" a c #A86F67",
" s c #311D1D",
" d c #1A2B1A",
" f c #BE7676",
" g c #182918",
" h c #E0E0E3",
" j c #DAC6C6",
" k c #B08293",
" l c #633A3A",
" z c #0B0B0B",
" x c #070707",
" c c #010101",
" v c #AC6C67",
" b c #0B0B0E",
" n c #8D8DA8",
" m c #6C3F3F",
" M c #857FA0",
" N c #2B2B37",
" B c #ADADD1",
" V c #553232",
" C c #B06767",
" Z c #D7B8B8",
" A c #4B4B60",
" S c #72A272",
" D c #95A1B9",
" F c #874F4F",
" G c #60A260",
" H c #AB6565",
" J c #5EA05E",
" K c #5D9E5D",
" L c #5C9C5C",
" P c #5B9A5B",
" I c #704242",
" U c #8383A7",
" Y c #BDBDD9",
" T c #497C49",
" R c #A3A3D0",
" E c #404051",
" W c #D9B9B9",
" Q c #6FA678",
" ! c #BB7474",
" ~ c #699C72",
" ^ c #375E37",
" / c #355A35",
" ( c #2F502F",
" ) c #2C4A2C",
" _ c #D4D4DB",
" ` c #945757",
" ' c #243C24",
" ] c #B2B2CA",
" [ c #ABABCD",
" { c #A2A2CE",
" } c #E1E1E4",
" | c #CBD7CB",
".  c #CAB7B3",
".. c #A49FC9",
".X c #AD6565",
".o c #D4B6B6",
".O c #0A0E0A",
".+ c #060606",
".@ c #3B2323",
".# c #63637F",
".$ c #D2C1C1",
".% c #020202",
/* pixels */
" r r r r r r r r r r r r r r h Y $ _ r r r r r r r r r r r r r r",
" r r r r r r r r r r r r h @ { R R R i _ r r r r r r r r r r r r",
" r r r r r r r r r r h @ { R R R R R R R i _ r r r r r r r r r r",
" r r r r r r r r } ] w < U R R R R R R 5 < < n X r r r r r r r r",
" r r r r r r h Y { <     N R R R R R R <     N R B _ r r r r r r",
" r r r r } @ { R R <     N R R R R R R <     N R R R i X r r r r",
" r r h @ R R R R R <   x N R R R R R R <     N R R R R R [ _ r r",
" r r ~ D R R R R R <   x N R R R R R R <     N R R R R R.. k j r",
" r r J P 8 : R R R <  .% N R R R R R R <     N R R R % 4 o o , r",
" r r P P P P Q : R 5  .+ z # < < < < E b    .# R % 4 2 o o o j r",
" r r J P P P P P Q : A.%                   + % 4.X.@ H o o o , r",
" r r G P T g g e P P ~ ;.# N         + N M k H t     t o o o.$ r",
" r r J P 7     ( P P P P ~ D R R R R.. k H t         y 6 o o , r",
" r r L P 7     ^ P P P P P P ~ D.. k o V         y I o o o o 9 r",
" r r J P 7     ) P P P P P P P P a o ` y     y I o o o o o o , r",
" r r G P 7     7 P P P P P P P P v o F     l o o o o o o o o.$ r",
" r r L P 7     ( P P P P P P P P O o F     F o o o o o o o o 9 r",
" r r K P 7     ^ P P P P P P P P v o F     F H m o o o o o o > r",
" r r G P 7     ^ P P P P P P P P v o F     1   y o o o o o o.$ r",
" r r J P 7     ( P P P P P P P P q o F           I o o o o o , r",
" r r G P 7     ( P P P P P P P P v o F       y I o o o o o o.$ r",
" r r L P 7     ) P P P P P P P P v o F     l o o o o o o o o 9 r",
" r r L P 7     ^ P P P P P P P P q o F     F o o o o o o o o 9 r",
" r r K P 7     u P P P P P P P P v o F     F o o o o o o o o > r",
" r r * P 3 7 c  .O 0 P P P P P P v o F     F o o o o o o o ! . r",
" r r r | & /  .% c  .O 0 P P P P q o F     F o o o o o f.o r r r",
" r r r r r p - ' c.% c   d P P P q o F     F o o o f W r r r r r",
" r r r r r r r | S ' c.% T P P P C o ` s s ` o f.o r r r r r r r",
" r r r r r r r r r | - ( P P P P q o o o o f Z r r r r r r r r r",
" r r r r r r r r r r r p & P P P q o o f = r r r r r r r r r r r",
" r r r r r r r r r r r r r | - P a !.o r r r r r r r r r r r r r",
" r r r r r r r r r r r r r r r |.  r r r r r r r r r r r r r r r"
};
