/* XPM */
static const char * IconSrfEditSrf[] = {
/* width height ncolors chars_per_pixel */
"32 32 251 2",
/* colors */
"   c #175F16",
" . c #474D35",
" X c #C3B8BC",
" o c #B26984",
" O c #201747",
" + c #653C4C",
" @ c #7C495C",
" # c #633A4A",
" $ c #623A49",
" % c #603847",
" & c #292249",
" * c #22194C",
" = c #2D2064",
" - c #564F75",
" ; c #603E4A",
" : c #0F820A",
" > c #A8637D",
" , c #BB90A0",
" < c #8F546B",
" 1 c #8E546A",
" 2 c #744557",
" 3 c #8C5268",
" 4 c #8B5267",
" 5 c #714354",
" 6 c #251B52",
" 7 c #D1CED3",
" 8 c #5D5875",
" 9 c #5A517C",
" 0 c #D1C5C9",
" q c #2F2655",
" w c #1C143F",
" e c #B6909E",
" r c #9A96AA",
" t c #261B56",
" y c #926874",
" u c #087006",
" i c #844E63",
" p c #9B5B73",
" a c #B8BEBA",
" s c #824C61",
" d c #814C60",
" f c #DFDBDD",
" g c #683D4E",
" h c #673D4D",
" j c #A4A1AD",
" k c #653B4B",
" l c #643B4A",
" z c #075E05",
" x c #2B1F5E",
" c c #117612",
" v c #46397F",
" b c #6B4554",
" n c #9B5F76",
" m c #7F4E61",
" M c #21184A",
" N c #403379",
" B c #2E2164",
" V c #AD6681",
" C c #91556C",
" Z c #90556B",
" A c #764658",
" S c #8E5369",
" D c #5B3544",
" F c #5A3543",
" G c #B27089",
" H c #34276D",
" J c #251A51",
" K c #241A50",
" L c #0A8907",
" P c #8B5969",
" I c #CCBEC3",
" U c #51493D",
" Y c #097B06",
" T c #097906",
" R c #097706",
" E c #874F65",
" W c #097306",
" Q c #6E4253",
" ! c #864F64",
" ~ c #834D61",
" ^ c #6A3E4F",
" / c #E0DCDD",
" ( c #693E4E",
" ) c #673C4C",
" _ c #B47C91",
" ` c #2A1E5C",
" ' c #815E6C",
" ] c #291E5B",
" [ c #D9D2D6",
" { c None",
" } c #B7A8AE",
" | c #6F7871",
".  c #985A72",
".. c #B06783",
".X c #211749",
".o c #965870",
".O c #A88592",
".+ c #79475A",
".@ c #2C284D",
".# c #5F3847",
".$ c #597D65",
".% c #372A6F",
".& c #4D4474",
".* c #5D3645",
".= c #5C3644",
".- c #23194E",
".; c #D8D8DB",
".: c #0A8206",
".> c #0A8006",
"., c #A5617B",
".< c #1A123B",
".1 c #8B5268",
".2 c #271D55",
".3 c #714355",
".4 c #895066",
".5 c #885065",
".6 c #6F4153",
".7 c #6E4152",
".8 c #6C4350",
".9 c #6C3F50",
".0 c #6B3F4F",
".q c #291D5A",
".w c #524C6B",
".e c #271D58",
".r c #746468",
".t c #294D1E",
".y c #5B5381",
".u c #332767",
".i c #9A5B73",
".p c #B26884",
".a c #985971",
".s c #64414B",
".d c #7E4A5E",
".f c #7D4A5D",
".g c #3B762C",
".h c #643B4B",
".j c #633B4A",
".k c #2B1F5F",
".l c #623949",
".z c #756E97",
".x c #613948",
".c c #3A2D71",
".v c #5F5588",
".b c #9490A8",
".n c #746457",
".m c #22184C",
".M c #945F70",
".N c #2E2165",
".B c #AA647F",
".V c #D8D7DA",
".C c #734456",
".Z c #251A52",
".A c #241A51",
".S c #573341",
".D c #A76A7F",
".F c #51477D",
".G c #3B2E6E",
".H c #6F4E55",
".J c #9B808A",
".K c #087106",
".L c #9D5C75",
".P c #086F06",
".I c #824D61",
".U c #804B5F",
".Y c #DDDADB",
".T c #663C4C",
".R c #076305",
".E c #076105",
".W c #B3B0BF",
".Q c #2A1E5D",
".! c #291E5C",
".~ c #9C97AF",
".^ c #865568",
"./ c #2D2063",
".( c #ADA0A5",
".) c #2C2062",
"._ c #AC6580",
".` c #9E99B4",
".' c #7A495C",
".] c #92566D",
".[ c #78475A",
".{ c #8F546A",
".} c #764558",
".| c #5C3645",
"X  c #5B3644",
"X. c #33266C",
"XX c #583441",
"Xo c #0B690F",
"XO c #2F2268",
"X+ c #685F8C",
"X@ c #D9D8DD",
"X# c #0A8A07",
"X$ c #0A8607",
"X% c #0A8407",
"X& c #097E06",
"X* c #097C06",
"X= c #A25F79",
"X- c #097806",
"X; c #097606",
"X: c #875065",
"X> c #097406",
"X, c #9F5D76",
"X< c #854E63",
"X1 c #844E62",
"X2 c #E2DDDF",
"X3 c #086E05",
"X4 c #6B3F50",
"X5 c #E1DDDE",
"X6 c #6A3F4F",
"X7 c #086A05",
"X8 c #086805",
"X9 c #693D4E",
"X0 c #086605",
"Xq c #683D4D",
"Xw c #947782",
"Xe c #075A04",
"Xr c #291D5B",
"Xt c #281D5A",
"Xy c #B16884",
"Xu c #B06883",
"Xi c #6C6782",
"Xp c #3E3176",
"Xa c #94576E",
"Xs c #2C1F61",
"Xd c #2B1F60",
"Xf c #7B485C",
"Xg c #7A485B",
"Xh c #613949",
"Xj c #603948",
"Xk c #774658",
"Xl c #5E3746",
"Xz c #795D67",
"Xx c #2E2166",
"Xc c #91596E",
"Xv c #BFAAB2",
"Xb c #8C5369",
"Xn c #A36079",
"Xm c #895166",
"XM c #704254",
"XN c #50413B",
"XB c #874F64",
"XV c #6E4052",
"XC c #31236C",
"XZ c #6D4051",
"XA c #30236B",
"XS c #C2B2B8",
"XD c #2D5C22",
"XF c #0D5509",
"XG c #C6C1C9",
"XH c #106A19",
"XJ c #9B97AC",
/* pixels */
" { { { { { { { { { { { { { { { {.~ { { { { { { { { { { { { { { {",
" { { { { { { { { { { { { { { { j.!.` { { { { { { { { { { { { { {",
" { { { { { { { { { { { { { {.V q.).c { { { { { { { { { { { { { {",
" { { { { { { { { { { { { {.V.@ 6 =XA.` { { { { { { { { { { { {.;",
" { { { { { { { { { { { { { 8.mXr BXC.c { { { { { { { { {.;XJ.F.%",
" { { { { { { { { { { { {Xi O 6.Q.NXAXAXG { { { { {.; r.& ]./ N.)",
" { { { { { { { { { { { j w.-.e xXxXAXC.F { {.; r.& tXrXs =XpX.Xt",
" { { { { { { { { { { 7.w -.ZXt.k.NXAXCXOXG { {X+Xr.k.).N.%Xp.N.y",
" { { { { { { { {X2 0 [ { { {.w *.!.z.v.v.F { { {X+./Xx H vXO./ 9",
" { { { { { { {X2 GXy GX5 { {.w M ` { { { { { { { {.b H v.%XxXs -",
" { { { { { { { _Xu o.. _ { { & 6.u { { { { { { {.V.@.2XpXO.NXdXJ",
" { { { { { { ,.B V.p o._ I {.< 6.y { { { { { { {.@.A K r.G =.Q.W",
" { { { { { ,., > V.. oXy.D {.<.e.y { { { { { { 8 K JXi {X@X+.Q.W",
" { { { {X5X,X=., > VXy.D.g.r w.e.~ { { { { {Xi.- 6 8 { { { {.~.;",
" { { { { e.LX,Xn.,.B.nX#X#Xo O.q.W { { { { j.m 6 q.; { { { { { {",
" { { { /. .i.LX,Xn nX%X$ LXH O.q.W { { {XG.X 6 *.; { { 7 { { { {",
" { { { e.o.a p.L.M :.:X%X$X$ cXH.$X5 {.V.@ J.- j { {.J #.#Xv { {",
" { { { nXa.o. .i.gX*X&.>.:.:.:.:.> c |.@ K KXi a } b g l %.| I {",
" { {XS C.]Xa.o PX- T Y YX*X*X* Y YX;X>Xo  .R .X4 $XNXq #Xj.|.( {",
" { {.M < Z C.]Xa.gX;X; R R RX;X>.KX3X7X0.E .X4 #.tXFXq $.#X  ' {",
" {XvXb S 1.{ Z C.].g W W W W uX3X7X8.R z.t.9.hXN.tXN ;XhXlX XX {",
" {Xc 4 3Xb S S 1.{.{XD.P.PX3X7X8X0.E zXF.s +XjXM.7 (.TXhXl DXXXG",
" {.OXm 4 4.1.1 4.1.1.1.H  X7X8.R.E zXe .Xq.l.j.3XZ g.h.x.* F.S.(",
" { fX:.5.4XmXm.4.5X:XB ! i s.H U U.8XZ ( lXl.[ Q ^ ) #Xj.* F.S '",
" { {Xv !XB E EXB ! i ~ d.U.fXg A.3XVX9 k %.j 2.7 (.T #.#.= F ;.(",
" { { {.O iX<X<X1 ~ s.U.d @.+ A.3XV ^.T.lXlXw.'X6 h.h.l.# ' X { {",
" { { { f P ~.I s d.U.d @.+Xk.C.6X4 h l.#Xz { {.Y X X 0 { { { { {",
" { { { { f.^.U.U.d.fXf.+Xk.CXMXZ g k.x.*XG { { { { { { { { { { {",
" { { { { { f.^.f @Xg.[ A.C 5XVX6.T #.# y { { { { { { { { { { { {",
" { { { { { { {Xv mXk.}.C 5.7.0 h # bXv { { { { { { { { { { { { {",
" { { { { { { { { { 0.J '.7X4 '.J X { { { { { { { { { { { { { { {",
" { { { { { { { { { { { { { { { { { { { { { { { { { { { { { { { {"
};
