/* XPM */
static const char * IconAxes[] = {
/* width height ncolors chars_per_pixel */
"32 32 255 2",
/* colors */
"   c #A88484",
" . c #9191B6",
" X c #AFAFAF",
" o c #8E7171",
" O c #9DC99D",
" + c #ADADAD",
" @ c #A48080",
" # c #9CC79C",
" $ c #A9A9A9",
" % c #99C399",
" & c #886B6B",
" * c #8787AC",
" = c #1B1717",
" - c #584949",
" ; c #D9AAAA",
" : c #564747",
" > c #93BB93",
" , c #9393BB",
" < c #A1A1A1",
" 1 c #91B991",
" 2 c #8F8FB7",
" 3 c #8EB58E",
" 4 c #4E3F3F",
" 5 c #9B7A7A",
" 6 c #939393",
" 7 c #56566B",
" 8 c #919191",
" 9 c #977676",
" 0 c #525267",
" q c #80A380",
" w c #7E9F7E",
" e c #7C9F7C",
" r c #CCA0A0",
" t c #7A9B7A",
" y c #799B79",
" u c #789978",
" i c #585870",
" p c #769776",
" a c #759575",
" s c #AC8787",
" d c #729172",
" f c #AA8585",
" g c #727290",
" h c #6E6E8C",
" j c #6D8B6D",
" k c #6C896C",
" l c #E1B1B1",
" z c #6C6C8A",
" x c #7A7A9B",
" c c #8A6C6C",
" v c #787899",
" b c #8484A8",
" n c #504040",
" m c #8E8EB5",
" M c #656565",
" N c #5B735B",
" B c #636363",
" V c #9F7D7D",
" C c #342B2B",
" Z c #9A9AC4",
" A c #616161",
" S c #9D7B7B",
" D c #322929",
" F c #A2A2CF",
" G c #D2A5A5",
" H c #575757",
" J c #4F634F",
" K c #D0A3A3",
" L c #AEAEDE",
" P c #4C5F4C",
" I c #535353",
" U c #515151",
" Y c #485948",
" T c #A28F86",
" R c #494949",
" E c #A1A7C7",
" W c #927373",
" Q c #454545",
" ! c #E3B2B2",
" ~ c #E1B0B0",
" ^ c #745C5C",
" / c #696986",
" ( c #3D3D3D",
" ) c #777797",
" _ c #364336",
" ` c #393939",
" ' c #343F34",
" ] c #222229",
" [ c #262323",
" { c None",
" } c #303B30",
" | c #7F7FA2",
".  c #2F392F",
".. c #313131",
".X c #8B8BB1",
".o c #2A332A",
".O c #DADADA",
".+ c #836767",
".@ c #9595BE",
".# c #D8D8D8",
".$ c #252725",
".% c #9393BC",
".& c #A3A3CF",
".* c #A1A1CD",
".= c #D2A4A4",
".- c #212121",
".; c #9F9FCB",
".: c #1F1F1F",
".> c #4B3D3D",
"., c #ABABDA",
".< c #B48D8D",
".1 c #1B1B1B",
".2 c #171717",
".3 c #151715",
".4 c #151515",
".5 c #252528",
".6 c #131313",
".7 c #111111",
".8 c #0F0F0F",
".9 c #0D0D0D",
".0 c #BCBCBC",
".q c #A8D6A8",
".w c #C79C9C",
".e c #A6D4A6",
".r c #5A4848",
".t c #A5D2A5",
".y c #151518",
".u c #403535",
".i c #727291",
".p c #A98585",
".a c #A0CCA0",
".s c #70708F",
".d c #1F1F25",
".f c #ACACAC",
".g c #9BC69B",
".h c #8888AD",
".j c #1C1818",
".k c #96C096",
".l c #856868",
".z c #D8A9A9",
".x c #93BC93",
".c c #9494BC",
".v c #A2A2A2",
".b c #A0A0A0",
".n c #BC9494",
".m c #BA9292",
".M c #8DB48D",
".N c #B89090",
".B c #4D3E3E",
".V c #9C9CC7",
".C c #A07F7F",
".Z c #949494",
".A c #929292",
".S c #987777",
".D c #909090",
".F c #81A481",
".G c #7FA27F",
".H c #888888",
".J c #CB9F9F",
".K c #7A9C7A",
".L c #868686",
".P c #799A79",
".I c #789A78",
".U c #161618",
".Y c #749474",
".T c #141416",
".R c #729272",
".E c #719071",
".W c #A98484",
".Q c #71718F",
".! c #6F8E6F",
".~ c #241F1F",
".^ c #6D8C6D",
"./ c #6D8A6D",
".( c #8D6F6F",
".) c #6B886B",
"._ c #698669",
".` c #79799A",
".' c #688468",
".] c #727272",
".[ c #668266",
".{ c #26262E",
".} c #8585A9",
".| c #C09797",
"X  c #8D8DB4",
"X. c #646464",
"XX c #352C2C",
"Xo c #9B9BC5",
"XO c #3A3A48",
"X+ c #626262",
"X@ c #9999C3",
"X# c #566E56",
"X$ c #A7A7D4",
"X% c #A5A5D2",
"X& c #665252",
"X* c #AFAFDF",
"X= c #4E624E",
"X- c #CFA2A2",
"X; c #4E4E62",
"X: c #485A48",
"X> c #907A85",
"X, c #B18B8B",
"X< c #475847",
"X1 c #435243",
"X2 c #425242",
"X3 c #937474",
"X4 c #464646",
"X5 c #917272",
"X6 c #444444",
"X7 c #E4B3B3",
"X8 c #8F7070",
"X9 c #3D483D",
"X0 c #6C6C89",
"Xq c #987C7C",
"Xw c #3A3A3A",
"Xe c #25252C",
"Xr c #C29898",
"Xt c #344034",
"Xy c #747494",
"Xu c #383838",
"Xi c #363636",
"Xp c #8282A5",
"Xa c #2F3A2F",
"Xs c #7E7EA1",
"Xd c #A48181",
"Xf c #8E8EB4",
"Xg c #2D2D37",
"Xh c #8C8CB2",
"Xj c #1B1818",
"Xk c #9898C1",
"Xl c #D7D7D7",
"Xz c #A2A2CE",
"Xx c #D3A5A5",
"Xc c #A0A0CC",
"Xv c #202020",
"Xb c #4D4D60",
"Xn c #1E1E1E",
"Xm c #CFCFCF",
"XM c #1B1E1B",
"XN c #1C1C1C",
"XB c #181818",
"XV c #161816",
"XC c #141414",
"XZ c #957575",
"XA c #121212",
"XS c #222225",
"XD c #101010",
"XF c #0E0E0E",
"XG c #1E1E21",
"XH c #0C0C0C",
"XJ c #BDBDBD",
"XK c #BBBBBB",
"XL c #A5D3A5",
"XP c #A2CFA2",
"XI c #B3B3B3",
/* pixels */
" { { { { { { { { { { { { { { { { { { { { { { { { { { { { { { { {",
" { { { { { { { { { { { { { { {Xl {.# { { { { { { { { { { { { { {",
" { { { { { { { { { { { { { {Xl.7 }.A { { { { { { { { { { { { { {",
" { { { { { { { { { { { { { { BXt.FXn { { { { { { { { { { { { { {",
" { { { { { { { { { { { { {XlXV.!.gX:.Z { { { { { { { { { { { { {",
" { { { { { { { { { { { { { B P d % #.: { { { { { { { { { { { { {",
" { { { { { { { { { { { { {XV.^.P.xXLX< X { { { { { { { { { { { {",
" { { { { { { { { { { { {.AX=.).I >XP #Xw { { { { { { { { { { { {",
" { { { { { { { { { { { {.$.E._.K.x.a.q YXJ { { { { { { { { { { {",
" { { { { { { { { { { { 8 J./ j e 1 O.e.gXw { { { { { { { { { { {",
" { { { { { { { { { {.0Xn.Y.'.! q 3 #.t.qXt.] { { { { { { { { { {",
" { { { { { { { { { { +XM.!.[.R.G.M %XP.q _ Q { { { { { { { { { {",
" { { { { { { { { { {XlXC kX#.Y q.M %.k w.o.D { { { { { { { { { {",
" { { { { { { { { { { {.vXAX1.3 N pX2 'XF I { { { { { { { { { { {",
" { { { { { { { { { { { {XlX. R.7XD.8 `.0 { { { { { { { { { { { {",
" { { { { { { { { { { { { { { { a tXa.f { { { { { { { { { { { { {",
" { { { { { { { { { { { { { { { a y. .f { { { { { { { { { { { { {",
" { { { { { { { { { { { { { { { a.P. .f { { { { { { { { { { { { {",
" { { { { { { { { { { { { { { { a u. .f { { { { { { { { { { { { {",
" { { { { { {.f.fXl { { { {XKXi a uX9.L { { { { {.f.fXl { { { { {",
" { { { {Xl.1XH ].: X {Xl U.{Xp E T.|.rXSXJ {XlXi D =.7XI { { { {",
" { { { {X+.U / m.Q.6 B.y |., LX%X> S.mXr.B (XN ^ GX7 -.. { { { {",
" { { {XK.9.sXf Z.; gXA .X*X$ *XO.uXqX5 @.|.j.> G ; ~ ! C.H { { {",
" { { {.1Xb.XX@.;Xz.& 7XG 2X;.T B 6.- :.C.u.~X,.wX-.z ~Xx.4Xm { {",
" { { A.d.}XkXc FXz.; )XH.TXu.0 { {Xl M.6XjXX.p.<.| r.z l o ( { {",
" {XlXH xX@XcXzXc.VX@.@XeX4 { { { { { { +Xj.+.S V.p.N.wXx ~ n $ {",
" {Xi 0 Z.*.*.VXk ,X .hXg Q { { { { { { +XD.l.l cX3 5.W.n K.= [.O",
".DXeXo.*.V.cXh bXs.`Xy ] A { { { { { {.0.7X8XZX5.( & cXZ.p.J 5X6",
".5.c.%Xp v.i hX0X0 z iXHXK { { { { { { {.-X& s s f  Xd S 9 W.< 4",
" <XF.8XDXCXB.4.7.7XD.8.b { { { { { { { {Xl.-.7.7.6XvXvXC.4.-.2 H",
" { { { { { { { { { { { { { { { { { { { { { { { { { { { { { { { {",
" { { { { { { { { { { { { { { { { { { { { { { { { { { { { { { { {"
};
