/* XPM */
static const char * IconCrvCircCntrRad[] = {
/* width height ncolors chars_per_pixel */
"32 32 185 2",
/* colors */
"   c #1C100B",
" . c #CCBBBB",
" X c #281E1A",
" o c #5B0B07",
" O c #271E19",
" + c #A34B47",
" @ c #554B46",
" # c #D8D8D7",
" $ c #6E0D09",
" % c #3B3633",
" & c #180E0A",
" * c #170E09",
" = c #580B07",
" - c #231C18",
" ; c #800F0A",
" : c #645D5B",
" > c #635D5A",
" , c #DFD7D7",
" < c #2F231D",
" 1 c #6A0D08",
" 2 c #17100C",
" 3 c #2D211B",
" 4 c #D0BCBB",
" 5 c #600C08",
" 6 c #AFACAB",
" 7 c #595350",
" 8 c #130C08",
" 9 c #251913",
" 0 c #7D0F0A",
" q c #413935",
" w c #21150F",
" e c #DCD7D7",
" r c #1F130D",
" t c #A3A09F",
" y c #1D110B",
" u c #680D09",
" i c #4B4542",
" p c #8F110B",
" a c #93908F",
" s c #A2130D",
" d c #9B2C27",
" f c #190F0A",
" g c #6B6461",
" h c #8C110B",
" j c #483E38",
" k c #AA140E",
" l c #31241E",
" z c #2D201A",
" x c #150D09",
" c c #130B07",
" v c #482824",
" b c #251812",
" n c #433A36",
" m c #B79F9E",
" M c #A01711",
" N c #20140D",
" B c #1F120C",
" V c #4D4643",
" C c #6A1B17",
" Z c #530A07",
" A c #94918F",
" S c #3D3633",
" D c None",
" F c #1B100B",
" G c #D5BCBB",
" H c #763633",
" J c #1A100A",
" K c #3D2F29",
" L c #251C18",
" P c #A46360",
" I c #933935",
" U c #820F0A",
" Y c #E1D7D7",
" T c #32251E",
" R c #841E19",
" E c #620C08",
" W c #170E0A",
" Q c #5C5551",
" ! c #AB6460",
" ~ c #BEBCBB",
" ^ c #686360",
" / c #443B36",
" ( c #DED7D7",
" ) c #CDADAC",
" _ c #4F4744",
" ` c #4E4743",
" ' c #690D08",
" ] c #2D211C",
" [ c #AEACAB",
" { c #969290",
" } c #403935",
" | c #1D110C",
".  c #C69391",
".. c #1C110B",
".X c #4B4543",
".o c #BB9290",
".O c #271D19",
".+ c #BE2A23",
".@ c #91201B",
".# c #6F0E0A",
".$ c #D8D7D7",
".% c #8F605E",
".& c #180F0A",
".* c #170D09",
".= c #6A6461",
".- c #68625F",
".; c #221B17",
".: c #281A13",
".> c #A7A3A0",
"., c #B6B3B2",
".< c #605A57",
".1 c #2F221D",
".2 c #160F0B",
".3 c #703532",
".4 c #B0ADAC",
".5 c #AFADAB",
".6 c #130B08",
".7 c #120B07",
".8 c #281C16",
".9 c #550A07",
".0 c #64605E",
".q c #B69F9E",
".w c #979390",
".e c #20140E",
".r c #1F120D",
".t c #1E120C",
".y c #4C4643",
".u c #302824",
".i c #A2140D",
".p c #3C3633",
".a c #1A100B",
".s c #29221D",
".d c #190E0A",
".f c #180E09",
".g c #6B6561",
".h c #810F0A",
".j c #342721",
".k c #E0D7D7",
".l c #31251E",
".z c #6C0D09",
".x c #18100C",
".c c #B2AEAD",
".v c #B1AEAC",
".b c #5A5350",
".n c #140C08",
".m c #BDBCBB",
".M c #261913",
".N c #65615E",
".B c #443B37",
".V c #241711",
".C c #999491",
".Z c #A8A4A3",
".A c #730E09",
".S c #20130D",
".D c #4E4744",
".F c #4D4743",
".G c #56514F",
".H c #959290",
".J c #700E09",
".K c #C59391",
".L c #1A0F0A",
".P c #3F322B",
".I c #261D19",
".U c #493E38",
".Y c #82100A",
".T c #69130F",
".R c #D7D7D7",
".E c #180F0B",
".W c #160D09",
".Q c #150D08",
".! c #8A110B",
".~ c #67625F",
".^ c #C3A09F",
"./ c #271A13",
".( c #21140D",
".) c #605A58",
"._ c #4F4844",
".` c #5E5856",
".' c #9D130D",
".] c #2C201B",
".[ c #6F3532",
".{ c #57524F",
".} c #9B9795",
".| c #710D09",
"X  c #1D120C",
/* pixels */
" D D D D D D D D D D D D D D D D D D D D D D D D D D D D D D D D",
" D D D D D D D D D D D D.4.g.B.t.t 3 @.c.$ D D D D D D D D D D D",
" D D D D D D D D D ~ q.. | | y.. y | B.S.(.1.C D D D D D D D D D",
" D D D D D D D D ^ J.. F F f *.W x.Q.f f...e b j # D D D D D D D",
" D D D D D D.R.I J F f.* c.7 % i.X.y x.7.7.W...8.:.> D D D D D D",
" D D D D D.$.I.a.a.& 8.G D D D D D D D D t.E 8 & 9 K.> D D D D D",
" D D D D.R L.L J.&.p.R D D D D D D D D D.^.h v 2.W.].P.> D D D D",
" D D D D S f F f.{ D D D D D D D D D D D R.A m.,.u * 9./.$ D D D",
" D D D a * F J.b D D D D D D D D D D D.o.Y H D D 6.6 f 9.U D D D",
" D D.R c f F.O.$ D D D D D D D D D D ( ; u e D D D :.nX .V.C D D",
" D D.N.W F F.- D D D D D D D D D D D P 0.% D D D D ~.W *.e.1 D D",
" D D % *.. n D D D D D D D D D D D 4 U C D D D D D D A.6...(.$ D",
" D D c f y.w D D D D D D D D D ).K I.A m D D D D D D.$.7 F.S.c D",
" D [ 8 F |.4 D D D D D D D.q 1 h.i k d D D D D D D D D.n.d.t @ D",
" D.-.6...t ~ D D D D D D D.3.J h.'.+ k Y D D D D D D D -.W | ] D",
" D `.n   B D D D D D D D , o 5 0 p M s.  D D D D D D D.X x.. B D",
" D.D x.. r D D D D D D D G $.9 ' 0.! h ! D D D D D D D i.W...t D",
" D._.6...S.$ D D D D D D D.@.T Z E.|.z . D D D D D D D.p.W.. y D",
" D.H.7 F.S.v D D D D D D D.k +.# =.[.q D D D D D D D D.7 f y / D",
" D ~.7 &.S.c D D D D D D D D D D , D D D D D D D D D D.7.a | g D",
" D D.n.W.r.1.$ D D D D D D D D D D D D D D D D D D D.G.W F...4 D",
" D D.= c...M.C D D D D D D D D D D D D D D D D D D.R 8 f.. X D D",
" D D #.x * w l # D D D D D D D D D D D D D D D D D.{ & F F.H D D",
" D D D.} 8 J z T # D D D D D D D D D D D D D D D.{ W.a F } D D D",
" D D D D.< c F.l T # D D D D D D D D D D D D D 7 f J F O.$ D D D",
" D D D D D.` c F z.j.C.$ D D D D D D D D D.5 } J F.L.I.$ D D D D",
" D D D D D D.).7 J.e./ <.c.v.$ D D D.4.4 Q F F F f L.$ D D D D D",
" D D D D D D D >.2.W F r.S N.S r B.tX  |.. F f *.;.R D D D D D D",
" D D D D D D D D.Z.s.7.Q.f J.. y.... F f &.W.6.0 D D D D D D D D",
" D D D D D D D D D D { V.7.7.7.n.Q.n 8.6 %.N.R D D D D D D D D D",
" D D D D D D D D D D D D D.m.H _.F.~ [ D D D D D D D D D D D D D",
" D D D D D D D D D D D D D D D D D D D D D D D D D D D D D D D D"
};
