/* XPM */
static const char * IconTransTranslateZ[] = {
/* width height ncolors chars_per_pixel */
"32 32 182 2",
/* colors */
"   c #595093",
" . c #3D337E",
" X c #79180A",
" o c #AFABC6",
" O c #220EA9",
" + c #1F0D9C",
" @ c #1D0C90",
" # c #1A0B83",
" $ c #8E4D49",
" % c #6B1509",
" & c #931D0C",
" * c #200DA0",
" = c #180A77",
" - c #291A8B",
" ; c #AD2915",
" : c #1D0C93",
" > c #15096A",
" , c #7D190A",
" < c #9A4F44",
" 1 c #13085E",
" 2 c #BE3F2C",
" 3 c #190A7B",
" 4 c #200DA3",
" 5 c #1E0C97",
" 6 c #16096E",
" 7 c #1C0B8B",
" 8 c #140862",
" 9 c #974F44",
" 0 c #5346AD",
" q c #220DA8",
" w c #190A7E",
" e c #110755",
" r c #2A0C67",
" t c #1F0C9B",
" y c #170972",
" u c #811A0A",
" i c #63171E",
" p c #1C0B8E",
" a c #A29EB8",
" s c #140865",
" d c #AFACC8",
" f c #43369D",
" g c #23176D",
" h c #110758",
" j c #8D645E",
" k c #941E0C",
" l c #413591",
" z c #A92410",
" x c #5546B5",
" c c #731709",
" v c #4A427F",
" b c #180979",
" n c #200B6D",
" m c #B2948F",
" M c #AEABC3",
" N c #651408",
" B c #110654",
" V c None",
" C c #8D1C0B",
" Z c #934135",
" A c #1D0C8E",
" S c #A0200D",
" D c #220EAA",
" F c #1A0B81",
" G c #1F0D9D",
" H c #8A1C0B",
" J c #170A74",
" K c #7F190A",
" L c #1D0C91",
" P c #1B0B85",
" I c #691508",
" U c #281A8B",
" Y c #50459B",
" T c #541107",
" R c #16096C",
" E c #D4B2AC",
" W c #1B0B88",
" Q c #210DA5",
" ! c #5B1207",
" ~ c #1F0C99",
" ^ c #1F165A",
" / c #831A0A",
" ( c #A39FC1",
" ) c #1C0B8C",
" _ c #140863",
" ` c #251877",
" ' c #241876",
" ] c #220DA9",
" [ c #210DA8",
" { c #961E0C",
" } c #BDBBCD",
" | c #170973",
".  c #1F165D",
".. c #801A0A",
".X c #B2ADD6",
".o c #4F4496",
".O c #1D0B90",
".+ c #150867",
".@ c #A9220E",
".# c #140866",
".$ c #A8220D",
".% c #B0ACCA",
".& c #3B3375",
".* c #4C4389",
".= c #AE4737",
".- c #180977",
".; c #D8D7DD",
".: c #D7D7DC",
".> c #8F4D43",
"., c #BEBBD4",
".< c #100651",
".1 c #CDBDBB",
".2 c #521007",
".3 c #511006",
".4 c #AD230E",
".5 c #52145D",
".6 c #3D337D",
".7 c #D8D7E0",
".8 c #491029",
".9 c #AFABC5",
".0 c #AEABC4",
".q c #220EA8",
".w c #8C4D43",
".e c #641408",
".r c #8C1C0B",
".t c #8B1C21",
".y c #220EAB",
".u c #D1BEBB",
".i c #200D9F",
".p c #1D0C92",
".a c #150969",
".s c #1B0B86",
".d c #1A0B85",
".f c #231870",
".g c #DDD7D7",
".h c #911D0C",
".j c #180A79",
".k c #96736D",
".l c #521106",
".z c #16096D",
".x c #A39FBF",
".c c #1C0B8A",
".v c #481031",
".b c #1B0B89",
".n c #130860",
".m c #701609",
".M c #423698",
".N c #210DA6",
".B c #190A7D",
".V c #110754",
".C c #170971",
".Z c #831A0B",
".A c #821A0A",
".S c #9991CC",
".D c #1C0B8D",
".F c #140864",
".G c #251878",
".H c #6D1609",
".J c #4C4387",
".K c #B04737",
".L c #1A0A81",
".P c #23176C",
".I c #110757",
".U c #22176B",
".Y c #948FB3",
".T c #938FB2",
".R c #421045",
".E c #150868",
".W c #655F92",
".Q c #5546B4",
".! c #13075C",
".~ c #9D1F0D",
".^ c #9790C3",
"./ c #5F1308",
".( c #6960A3",
".) c #B3948F",
"._ c #A29EBD",
".` c #4D438E",
".' c #D8D7DE",
".] c #D7D7DD",
".[ c #991F0C",
".{ c #110653",
/* pixels */
" V V V V V V V V V V V V V V V V V V V V V V V V V V V V V V V V",
" V V V V V V V V V V V V V V V V V V V V V V V V V V V V V V V V",
" V V V V V V V V V V V V V V V V V V V V V V V V V V V V V V V V",
" V V V V V V V V V V V V V V V V V V V V V V V V V V V V V V V V",
" V V V V V V V V V V V V V V V V V V V V V V o M V V V V V V V V",
" V V V V V V V V V V V V V V V V V V V V.:.U _ _ 6.j x.Q.S.X., V",
" V V V V V V V V V V V V V V V V V V V V.W _ _ _ _ _ w.y.y O 0 V",
" V V V V V V V V V V V V V V V V V V V V . _ _ _ _ _.E + ] 4.^ V",
" V V V V V V V V V V V V V V V V V V V V.f _ _ _ _ _ _.C Q t.% V",
" V V V V V V V V V V V V V V V V V V V V.` _ _.a 7 _ _ _ = L V V",
" V V V V V V V V V V V V V V V V V V V V ( s.B [ G _ _ _.z f V V",
" V V V V V V V V V V V V V.1 9 C.[.K E V.x ~ q.c.F _ _ _ _ Y V V",
" V V V V V V V V V V V V.k.H.Z & S.$.4.t.N.i b 8 _ _ _ _.+.9 V V",
" V V V V V V V V V V V V T.H /.h.~ ;.4.4.5._.] ` _ _ _ _ g.; V V",
" V V V V V V V V V V V m.l I , H { 2 z.@.= V V.7.Y.P _.6.] V V V",
" V V V V V V V V V V V.w.3./.m u.r {.~ S.[ V V V V V V V V V V V",
" V V V V V M d V V V V $.8.v.e c K H.h k.r V V V V V V V V V V V",
" V V V.: ^.# = U.( V a - Q.y.R.e.m X...A Z V V V V V V V V V V V",
" V V V.J.V 6 w W p.M L.q D * r.2./ N.H %.) V V V V V V V V V V V",
" V V V.& 1.- P.D L : G [ 5 n i !.3.2 T j V V V V V V V V V V V V",
" V V V.I R.L ) L :.p ).s   V.u <.>.).g V V V V V V V V V V V V V",
" V V } h.j.c L : L.O ) l V V V V V V V V V V V V V V V V V V V V",
" V V.T >.s @.p @.D.b P 3 V V V V V V V V V V V V V V V V V V V V",
" V V v F @.p A.b # w.j |.' V V V V V V V V V V V V V V V V V V V",
" V V.G L.D.d w = y R.+.F.] V V V V V V V V V V V V V V V V V V V",
" V.'.B J.+.n.! e B.{.<.  V V V V V V V V V V V V V V V V V V V V",
" V V V.7 d.0.o.* '.E.6.] V V V V V V V V V V V V V V V V V V V V",
" V V V V V V V V V V V V V V V V V V V V V V V V V V V V V V V V",
" V V V V V V V V V V V V V V V V V V V V V V V V V V V V V V V V",
" V V V V V V V V V V V V V V V V V V V V V V V V V V V V V V V V",
" V V V V V V V V V V V V V V V V V V V V V V V V V V V V V V V V",
" V V V V V V V V V V V V V V V V V V V V V V V V V V V V V V V V"
};
