/* XPM */
static const char * IconTransScale[] = {
/* width height ncolors chars_per_pixel */
"32 32 242 2",
/* colors */
"   c #1C1C8C",
" . c #43439B",
" X c #BFBFD9",
" o c #A7A7D2",
" O c #1F1F9C",
" + c #631408",
" @ c #8B1C0B",
" # c #67679D",
" $ c #581107",
" % c #2424AE",
" & c #25257A",
" * c #6D6DBA",
" = c #3C3C76",
" - c #2323A3",
" ; c #12125A",
" : c #9E200D",
" > c #181877",
" , c #1E1E94",
" < c #2E2EA7",
" 1 c #9494B5",
" 2 c #4F4F99",
" 3 c #15156A",
" 4 c #A96A60",
" 5 c #B24E3E",
" 6 c #9797C5",
" 7 c #A5210D",
" 8 c #18187A",
" 9 c #D8D8DD",
" 0 c #111152",
" q c #681509",
" w c #1E1E97",
" e c #901D0C",
" r c #CDCDDC",
" t c #2D2D9F",
" y c #851A0B",
" u c #666698",
" i c #46469D",
" p c #242475",
" a c #B1B1D1",
" s c #5959D4",
" d c #D8D8E0",
" f c #111155",
" g c #171772",
" h c #555591",
" j c #BDBDCC",
" k c #2D2DA2",
" l c #232381",
" z c #591207",
" x c #2525AE",
" c c #141465",
" v c #811A0A",
" b c #6F6FB1",
" n c #A9220D",
" m c #B0B0C9",
" M c #63618E",
" N c #E0D8D7",
" B c #6C1609",
" V c #171775",
" C c #611308",
" Z c #1D1D92",
" A c #874A41",
" S c #6E6EBD",
" D c #13135D",
" F c #2020A2",
" G c #731709",
" H c #19197A",
" J c #4A4A7F",
" K c #9B1F0C",
" L c #963628",
" P c #101050",
" I c #16166D",
" U c #241D88",
" Y c #1C1C8A",
" T c #521006",
" R c #AE230E",
" E c #131360",
" W c #2222A7",
" Q c #19197D",
" ! c #101053",
" ~ c #161670",
" ^ c None",
" / c #BCBCCA",
" ( c #A1A1B6",
" ) c #121258",
" _ c #21219F",
" ` c #A7A7D3",
" ' c #1F1F9D",
" ] c #181875",
" [ c #3F3FC3",
" { c #67679E",
" } c #2C2CA3",
" | c #151568",
".  c #12125B",
".. c #1D1D73",
".X c #181878",
".o c #1E1E95",
".O c #54295D",
".+ c #3F3F87",
".@ c #59130C",
".# c #2929AD",
".$ c #15156B",
".% c #541107",
".& c #141460",
".* c #B1B1CF",
".= c #272797",
".- c #711609",
".; c #D8D8DE",
".: c #111153",
".> c #AEAEC2",
"., c #171770",
".< c #BDBDCA",
".1 c #2D27A0",
".2 c #2323AA",
".3 c #AD240F",
".4 c #B1B1D2",
".5 c #AC220E",
".6 c #131358",
".7 c #D8D8E1",
".8 c #111156",
".9 c #20209D",
".0 c #6E1609",
".q c #C7AFAC",
".w c #171773",
".e c #20205E",
".r c #BDBDCD",
".t c #1D1D90",
".y c #2D2DA3",
".u c #9393B1",
".i c #532858",
".p c #4E4E95",
".a c #2323AD",
".s c #2626A6",
".d c #801A0A",
".f c #1A1A83",
".g c #13135B",
".h c #A8220D",
".j c #2222A2",
".k c #B0B0CA",
".l c #BFBFD2",
".z c #10104E",
".x c #AA2F1C",
".c c #202061",
".v c #931E0C",
".b c #B02C18",
".n c #772418",
".m c #4F4FCE",
".M c #1D1D93",
".N c #6E6EBE",
".B c #7E1A0B",
".V c #13135E",
".C c #232371",
".Z c #9898C6",
".A c #721709",
".S c #D7D7DC",
".D c #101051",
".F c #1F1F98",
".G c #262681",
".H c #5D1308",
".J c #4646A7",
".K c #BCBCC8",
".L c #3D3D7D",
".P c #4A4A97",
".I c #511006",
".U c #2222A8",
".Y c #A98A9B",
".T c #BFBFD8",
".R c #9393BA",
".E c #1C1C8E",
".W c #6D6DB9",
".Q c #636398",
".! c #121259",
".~ c #9F200D",
".^ c #181876",
"./ c #49497B",
".( c #BEBED0",
".) c #1E1E93",
"._ c #9494B4",
".` c #151569",
".' c #25257C",
".] c #6D6DBC",
".[ c #1B1B86",
".{ c #12125C",
".} c #9797C4",
".| c #1A1A7B",
"X  c #57151F",
"X. c #181879",
"XX c #191970",
"Xo c #BEBED3",
"XO c #6969A4",
"X+ c #911D0C",
"X@ c #8A8AC1",
"X# c #40407F",
"X$ c #1B1B89",
"X% c #B1B1D0",
"X& c #2121A6",
"X* c #D8D8DF",
"X= c #111154",
"X- c #9696BC",
"X; c #3A1958",
"X: c #763B33",
"X> c #D5BFBB",
"X, c #BDBDCB",
"X< c #5A1207",
"X1 c #831A0B",
"X2 c #821A0A",
"X3 c #2323AB",
"X4 c #242477",
"X5 c #B1B1D3",
"X6 c #1A1A81",
"X7 c #3434B5",
"X8 c #3B3B73",
"X9 c #111157",
"X0 c #20209E",
"Xq c #9696BF",
"Xw c #6565E5",
"Xe c #414190",
"Xr c #951E0C",
"Xt c #68689F",
"Xy c #1D1D91",
"Xu c #5C5786",
"Xi c #8A1B0B",
"Xp c #141467",
"Xa c #6E6EBC",
"Xs c #2626A7",
"Xd c #2424A5",
"Xf c #656592",
"Xg c #1A1A84",
"Xh c #3B3B76",
"Xj c #23236F",
"Xk c #B0B0CB",
"Xl c #2020A1",
"Xz c #59599A",
"Xx c #A92F1C",
"Xc c #16166C",
"Xv c #26267F",
"Xb c #24247D",
"Xn c #13135F",
"Xm c #19197C",
"XM c #711709",
"XN c #D7D7DD",
"XB c #BFBFD6",
"XV c #661408",
/* pixels */
" ^ ^ ^ ^ ^ ^ ^ ^ ^ ^ ^ ^ ^ ^ ^.r.W ^ ^ ^ ^ ^ ^ ^ ^ ^ ^ ^ ^ ^ ^ ^",
" ^ ^ ^ ^ ^ ^ ^ ^ ^ ^ ^ ^ ^ ^ ^.+ W d ^ ^ ^ ^ ^ ^ ^ ^ ^ ^ ^ ^ ^ ^",
" ^ ^ ^ ^ ^ ^ ^ ^ ^ ^ ^ ^ ^ ^X,.^.2Xa ^ ^ ^ ^ ^ ^ ^ ^ ^ ^ ^ ^ ^ ^",
" ^ ^ ^ ^ ^ ^ ^ ^ ^ ^ ^ ^ ^ ^XhX6Xd.U d ^ ^ ^ ^ ^ ^ ^ ^ ^ ^ ^ ^ ^",
" ^ ^ ^ ^.( X ^ ^ ^ ^ ^ ^ ^.rXnXgXs.a.W ^ ^ ^ ^ ^ ^ ^.7.R ^ ^ ^ ^",
" ^ ^ ^ ^.SXm kXa.T ^ ^ ^ ^ =XpX$Xd %X&.7 ^ ^ ^X*.}.JX7.Z ^ ^ ^ ^",
" ^ ^ ^ ^ ^Xh 8 wXl <Xa.T.r.8 gX$ - x.a *X*Xq ..oX0.m.FX* ^ ^ ^ ^",
" ^ ^ ^ ^ ^._ ;X.Xy ' F.9 6.>.k.$ ZX@.4X5.= , O.s.m - . ^ ^ ^ ^ ^",
" ^ ^ ^ ^ ^ d.V cXm   Z ( ^ ^ ^ E.M.* ^ ^.7.yXsXwXs wXq ^ ^ ^ ^ ^",
" ^ ^ ^ ^ ^ ^.+ 0.` H } o ^ ^ ^ E Z.* ^ ^.S & s.# O  .; ^ ^ ^ ^ ^",
" ^ ^ ^ ^ ^ ^X-.{ f =.| [ ` ^.qX;.O.Y N.S p.f.G.y w . ^ ^ ^ ^ ^ ^",
" ^ ^ ^ ^ ^ ^X*., ( ^ h.| [X: vX+ : 7.x.i.fXv 9.7.=X- ^ ^ ^ ^ ^ ^",
" ^ ^ ^ ^ ^ ^ 1Xz ^ ^ ^Xu.@.- y.v.~.h R.5.O 9 ^ ^X5 *.7 ^ ^ ^ ^ ^",
" ^ ^ ^ ^._ &X. 2 ^ ^ ^ AX<.AX1X+ K.b.3 RXx N ^ ^.4.a.UXa.7 ^ ^ ^",
" ^ ^ 1.'X..X.^Xe.*.*.* z $ B.B @.v 5.b n 7.Y.*.*X@.# x %X3.N.7 ^",
".uX4 g ~ IXc 3 >.M.M U C.IXV G.d @Xr K.~ :.O.M.M ,X0X0 _ -.jXs.W",
" 9Xf DX=.8X9.! c E E.e B.% z q G vXi eXrX+X  E E.$  X$.[ Q g.L /",
" ^ ^X*XOXX DX= J ^ ^X>.B +.I zXV G.BX1 yX2 4 ^ ^Xk.^ IXn =.K ^ ^",
" ^ ^ ^ ^.7 b lXz ^ ^ ^ 4 L C T $ + qXM.A.n N ^ ^ mX9X8 j ^ ^ ^ ^",
" ^ ^ ^ ^ ^ ^.7 # ^ ^.S pX  LXV.%.I.%X<.@.1 o ^ ^ 6.r ^ ^ ^ ^ ^ ^",
" ^ ^ ^ ^ ^ ^ ^.cX-.S p.f.G 4 v.0 C.HX: M.^.# o.7 '.T ^ ^ ^ ^ ^ ^",
" ^ ^ ^ ^ ^ ^ j.D.: Q.f.G.; ^ ^ E UX% ^ ^.Q ].=.)Xl.] ^ ^ ^ ^ ^ ^",
" ^ ^ ^ ^ ^ ^Xf PX9 ; V.; ^ ^ ^ E.tX% ^ ^ ^X#X. Y O < ^ ^ ^ ^ ^ ^",
" ^ ^ ^ ^ ^ ^.eX= ;.! f.u ^ ^ ^ E.t a ^ ^.K.e c.X.EXl X ^ ^ ^ ^ ^",
" ^ ^ ^ ^ ^.< P.! ) 0.zX=.p h J c HXe 2.p.'.& f.  V.M S ^ ^ ^ ^ ^",
" ^ ^ ^ ^ ^ M ) f.D./.> ^XBXb ! ;.`.w 8 { ^XoXO.C. Xc t ^ ^ ^ ^ ^",
" ^ ^ ^ ^ ^.e./.> ^ ^ ^ ^ ^ i.gX9 | ] >XN ^ ^ ^ ^.( uXjXB ^ ^ ^ ^",
" ^ ^ ^ ^.; ^ ^ ^ ^ ^ ^ ^ ^XB..X9 | >Xt ^ ^ ^ ^ ^ ^ ^ ^ r ^ ^ ^ ^",
" ^ ^ ^ ^ ^ ^ ^ ^ ^ ^ ^ ^ ^ ^.P f.$X.XN ^ ^ ^ ^ ^ ^ ^ ^ ^ ^ ^ ^ ^",
" ^ ^ ^ ^ ^ ^ ^ ^ ^ ^ ^ ^ ^ ^.l.6 3XO ^ ^ ^ ^ ^ ^ ^ ^ ^ ^ ^ ^ ^ ^",
" ^ ^ ^ ^ ^ ^ ^ ^ ^ ^ ^ ^ ^ ^ ^X#.$X* ^ ^ ^ ^ ^ ^ ^ ^ ^ ^ ^ ^ ^ ^",
" ^ ^ ^ ^ ^ ^ ^ ^ ^ ^ ^ ^ ^ ^ ^X, u ^ ^ ^ ^ ^ ^ ^ ^ ^ ^ ^ ^ ^ ^ ^"
};
