/* XPM */
static const char * IconObjAggregate[] = {
/* width height ncolors chars_per_pixel */
"32 32 224 2",
/* colors */
"   c #C097C0",
" . c #BF97BF",
" X c #BF95BF",
" o c #BE95BE",
" O c #BD95BD",
" + c #ADADAD",
" @ c #BC93BC",
" # c #BB93BB",
" $ c #BA93BA",
" % c #B991B9",
" & c #B891B8",
" * c #B78FB7",
" = c #B68FB6",
" - c #B48DB4",
" ; c #B38DB3",
" : c #B28DB2",
" > c #B18BB1",
" , c #B08BB0",
" < c #AF89AF",
" 1 c #AE89AE",
" 2 c #AD87AD",
" 3 c #AC87AC",
" 4 c #A683A6",
" 5 c #A481A4",
" 6 c #A381A3",
" 7 c #A281A2",
" 8 c #A07FA0",
" 9 c #939393",
" 0 c #A07DA0",
" q c #9F7D9F",
" w c #919191",
" e c #9B7B9B",
" r c #947594",
" t c #937593",
" y c #8A6D8A",
" u c #896D89",
" i c #876B87",
" p c #866B86",
" a c #856985",
" s c #7C637C",
" d c #7A617A",
" f c #745D74",
" g c #656565",
" h c #685368",
" j c #665366",
" k c #655165",
" l c #645164",
" z c #624F62",
" x c #5C4B5C",
" c c #5B495B",
" v c #5A495A",
" b c #544554",
" n c #4B4B4B",
" m c #504150",
" M c #4E414E",
" N c #494949",
" B c #474747",
" V c #473947",
" C c #443744",
" Z c #3F3F3F",
" A c #433743",
" S c #393939",
" D c #3B313B",
" F c #3A313A",
" G c #392F39",
" H c None",
" J c #382F38",
" K c #372D37",
" L c #2E272E",
" P c #DCDCDC",
" I c #292929",
" U c #272327",
" Y c #252525",
" T c #262126",
" R c #E8B6E8",
" E c #212121",
" W c #221F22",
" Q c #221D22",
" ! c #E3B2E3",
" ~ c #1F1F1F",
" ^ c #201D20",
" / c #1F1B1F",
" ( c #1D1D1D",
" ) c #1E1B1E",
" _ c #1D1B1D",
" ` c #1C191C",
" ' c #D9AAD9",
" ] c #D8AAD8",
" [ c #151515",
" { c #D7A8D7",
" } c #D6A8D6",
" | c #131313",
".  c #D4A6D4",
".. c #111111",
".X c #D3A6D3",
".o c #D2A4D2",
".O c #0F0F0F",
".+ c #D1A4D1",
".@ c #D0A4D0",
".# c #D0A2D0",
".$ c #0D0D0D",
".% c #CFA2CF",
".& c #CEA2CE",
".* c #BCBCBC",
".= c #CCA0CC",
".- c #CBA0CB",
".; c #CA9ECA",
".: c #C99EC9",
".> c #C79CC7",
"., c #C69CC6",
".< c #C39AC3",
".1 c #C398C3",
".2 c #C298C2",
".3 c #C198C1",
".4 c #C096C0",
".5 c #BF96BF",
".6 c #BE96BE",
".7 c #AEAEAE",
".8 c #BD94BD",
".9 c #BC94BC",
".0 c #BB92BB",
".q c #BA92BA",
".w c #B890B8",
".e c #B790B7",
".r c #B58EB5",
".t c #B38CB3",
".y c #B28CB2",
".u c #B18CB1",
".i c #B08AB0",
".p c #AF8AAF",
".a c #AE8AAE",
".s c #A0A0A0",
".d c #AE88AE",
".f c #AD88AD",
".g c #AA86AA",
".h c #A884A8",
".j c #A582A5",
".k c #A482A4",
".l c #A380A3",
".z c #A280A2",
".x c #949494",
".c c #A07EA0",
".v c #9F7E9F",
".b c #929292",
".n c #9D7C9D",
".m c #9C7C9C",
".M c #937493",
".N c #927492",
".B c #8B6E8B",
".V c #8A6E8A",
".C c #886C88",
".Z c #876A87",
".A c #866A86",
".S c #846884",
".D c #7B627B",
".F c #786078",
".G c #725C72",
".H c #6C5C6C",
".J c #646464",
".K c #626262",
".L c #645064",
".P c #635063",
".I c #585858",
".U c #545454",
".Y c #544454",
".T c #534453",
".R c #4A4A4A",
".E c #484848",
".W c #494249",
".Q c #464646",
".! c #483A48",
".~ c #473A47",
".^ c #443844",
"./ c #433843",
".( c #3E3E3E",
".) c #423642",
"._ c #3F343F",
".` c #3A3A3A",
".' c #383838",
".] c #3A303A",
".[ c #393039",
".{ c #382E38",
".} c #372E37",
".| c #362E36",
"X  c #302A30",
"X. c #2D262D",
"XX c #D7D7D7",
"Xo c #282228",
"XO c #252025",
"X+ c #E7B5E7",
"X@ c #222222",
"X# c #E4B3E4",
"X$ c #202020",
"X% c #1E1E1E",
"X& c #1E1A1E",
"X* c #1C1C1C",
"X= c #1D1A1D",
"X- c #1B181B",
"X; c #D9ABD9",
"X: c #D8A9D8",
"X> c #D7A9D7",
"X, c #141414",
"X< c #D6A7D6",
"X1 c #D5A7D5",
"X2 c #121212",
"X3 c #D4A7D4",
"X4 c #D3A5D3",
"X5 c #101010",
"X6 c #D2A5D2",
"X7 c #0E0E0E",
"X8 c #D0A3D0",
"X9 c #CFA3CF",
"X0 c #BDBDBD",
"Xq c #CEA1CE",
"Xw c #CDA1CD",
"Xe c #BBBBBB",
"Xr c #CB9FCB",
"Xt c #C89DC8",
"Xy c #C79DC7",
"Xu c #C69BC6",
"Xi c #C59BC5",
"Xp c #C499C4",
"Xa c #C399C3",
"Xs c #C299C2",
/* pixels */
" H H H H H H H H H H H H H H H H H H H H H H w.Q.$.$.$X7.E.x H H",
" H H H H H H H H H H H H H H H H H H H H.s (.[ t !X#.pX3.MX=.( P",
" H H H H H H H H H H H H H H H H H H HXXX5 8 R R R R R R R R F Z",
" H H H H H H H H H H H H H H H H H H H.7X2 M R R R R R R R.z ^.$",
" H H H H H H H H H H H H H H HXX w.Q.'.$.OX7 U r.a.a.a 1 VX=X5.$",
" H H H H H H H H H H H H H H w.$X& l $Xw.- lX& W.` QX7X7X5X5X=.$",
" H H H H H H H H H H H H H.bX5 r R R R R R R R.6 [X,X2X2 A uX;.$",
" H H H H H H H H H H H H H.R D.< R R R R R R R f ) G %Xa.=X1 'X7",
" H H H H H H H H HXX +.K BX%.OX$ j o R R ' 1.}.{.O G.wXa.=X1 'X7",
" H H H H H H H H.K.$ G.g.C.V c G.O YX,.$.$X7X5X5Xo.{.eXs.=X3 'X7",
" H H H H H H H.U /.6 R R R R R RX4.Y IX2X2...} 7 7.{ =.3Xr.  'X7",
" H H H H H H HX2.v R R R R R R R R pX7 h e.>X8X> 6 G *.2.=.  'X7",
" H H H H + w B.O.T.H.6 R R R R 1.{X5X-.Z @.,X9 { 6 G %Xp.=.  'X7",
" HXX.K.$X7.P i.L.{ GX, ~.$.$.$X7 D / `.A #Xu.% { 5.{ &Xa.=.X '.$",
"XXX%.].6 R R R R R R & [ ~ _ )...}.u A.A #Xi.& {.k.{.wXa.=X4 'X7",
" 9 bX+ R R R R R R RX; z L y.N.;X4 '.^.A.0Xi.& { 6.{.w.1XrX6 '.$",
" n.G.W . R R R R R OX=X& K -.4.:X6 '.^.A.9.>.% }.k.{.e.2XrX6 mX*",
".RX,X X7X=.!.~.~.$X7 J ).{ -.5.:X6 '.^.A @.,.& } 5X..B.D.).. ~XX",
".R.F.| |X2X5X5._X. D.} s.{.t XXtX6 ].^ a #Xu.&X< 5.O E.R.J.7 H H",
".R.n.6.l d J D.Y r.hX1.k.{.y oXt.o ] C a #XiXqX1 4X* H H H H H H",
".R.n.6.d q.c.f.wXa.=X1 5.{.r  .:.+ ].^.S.qXiXqX1.}.K H H H H H H",
".R.n.6 1 q 0 2.wXs.=X1.k.{ -.5.:.@X: C k.l , vX5 S H H H H H H H",
".R.n.6 < q.c.d %.2.-. .k.{ ; XXtX8X:.^..X2X$ N.* H H H H H H H H",
".R.n.5 < q 0.f %.3XrX3 5.{.t oXtX8X> C + H H H H H H H H H H H H",
".R.n.5 < q 0 2 %XpXwX1.k.{.y oXy.# ,X7Xe H H H H H H H H H H H H",
".R.n.5 < q 0 3 %Xa.=X3 5.{ >.8.j xX5.U H H H H H H H H H H H H H",
".R.n.5.i 0 0.f %Xa.=. .kX7X2 ).. N.* H H H H H H H H H H H H H H",
" g.m.5.i 0 0.f %Xa.=. .k.$.7 H H H H H H H H H H H H H H H H H H",
"X0 J : >.c 0 2 %.2.-.  ;X* H H H H H H H H H H H H H H H H H H H",
" H.I F s.c 0 3 &.2 4 iX5.s H H H H H H H H H H H H H H H H H H H",
" H H.xX@ |XO T _./.. N.* H H H H H H H H H H H H H H H H H H H H",
" H H H HXX.7.7.7.* H H H H H H H H H H H H H H H H H H H H H H H"
};
