/* XPM */
static const char * IconObjCollapse[] = {
/* width height ncolors chars_per_pixel */
"32 32 40 1",
/* colors */
"  c #92AD92",
". c #D6CBCB",
"X c #813939",
"o c #0F2567",
"O c #CEBCBC",
"+ c #578557",
"@ c #487B48",
"# c #397139",
"$ c #0F3052",
"% c #B59292",
"& c #1E5F1E",
"* c None",
"= c #7A2D2D",
"- c #0F550F",
"; c #D7DCD7",
": c #394192",
"> c #545B9F",
", c #5A6E48",
"< c #721E1E",
"1 c #BCCABC",
"2 c #27420F",
"3 c #ADC0AD",
"4 c #484F99",
"5 c #8DAA8D",
"6 c #9296BD",
"7 c #C5ADAD",
"8 c #6369A6",
"9 c #A3A092",
"0 c #ADB0CA",
"q c #8A4848",
"w c #638E63",
"e c #A1A4C4",
"r c #DDD7D7",
"t c #BCBED1",
"y c #0F197D",
"u c #BEA1A1",
"i c #515F39",
"p c #690F0F",
"a c #B3BBAD",
"s c #9A6363",
/* pixels */
"**8yyyy8*********1#@********.***",
"*:yyyyyy4******1#--@******sppps*",
"6yyyyyyyye***1#----@*****sppppps",
":yyyyyyyy:*1#------#3333appppppp",
"yyyyyyyyyy#-------------2ppppppp",
"yyyyyyyyyo#w-------#33339ppppppp",
":yyyyyyyy$@*;w-----@*****XpppppX",
"tyyyyyyyy-@***;w---@*****r<ppp<r",
"*t>yyyy>t-@*****;w-@*******777**",
"***0440**-@*******;5************",
"*********-@*********************",
"*********-@******* +************",
"*********-@***** &-@******OXpXO*",
"*********-@*** &---@*****%ppppp%",
"*********-@* &-----@*****<ppppp<",
"*********-&&------------2ppppppp",
"*********-##-------&@@@@ippppppp",
"*********-@*1#-----@*****<ppppp<",
"*********-@***1#---@*****u<ppp<u",
"*********-@*****1#-@*******%q%**",
"*********-@*******15************",
"*********-@*********************",
"*********-@*******1+************",
"*********-@*****1#-@******OqqqO*",
"*********-@***1#---@*****OpppppO",
"*********-@*1#-----@*****XpppppX",
"*********-##-------&@@@@,ppppppp",
"*********-&-------------2ppppppp",
"***********;w------@****rppppppp",
"*************;w----@*****upppppu",
"***************;w--@******Oq=qO*",
"*****************;w+************"
};
