/* XPM */
static const char * IconGenScene[] = {
/* width height ncolors chars_per_pixel */
"32 32 52 1",
/* colors */
"  c #DCD6DB",
". c #8E5D88",
"X c #14751C",
"o c #AD8EA9",
"O c #5F1556",
"+ c #D7DFD8",
"@ c #844E7D",
"# c #696941",
"$ c #9AA288",
"% c #8EB1B1",
"& c #418383",
"* c #7D7D5B",
"= c #6F5454",
"- c #744F4F",
"; c #D6DDDD",
": c None",
"> c #565627",
", c #A9A996",
"< c #317979",
"1 c #BDBDB0",
"2 c #C0AABD",
"3 c #548F4F",
"4 c #4E8B8B",
"5 c #ADCAB0",
"6 c #399241",
"7 c #9DBABA",
"8 c #48994F",
"9 c #382C2C",
"0 c #3D2727",
"q c #9B9B83",
"w c #1F7019",
"e c #BACCCC",
"r c #CABAC8",
"t c #74744F",
"y c #7B4174",
"u c #888869",
"i c #055F5F",
"p c #156868",
"a c #0F7D19",
"s c #DBDBD8",
"d c #4B4B19",
"f c #754E53",
"g c #55054B",
"h c #5D9494",
"j c #4E1426",
"k c #4B1919",
"l c #562727",
"z c #B4B4A4",
"x c #3B5819",
"c c #C8C8BE",
"v c #B79DB4",
"b c #2E6319",
/* pixels */
"::%pi<e:::::::::::::::::::::::::",
";piiiii4::::::::::::::::::::::::",
"hiiiiiiie:::::::::::::::::::::::",
"&iiiiiiih:::::::::::::::::::::::",
"piiiiiii&:::::::::::::::::::::::",
"&iiiiiii%:::::::::::::::::::::::",
"7piiiii<;:::: .Ogyr:::::::::::::",
":;<iiih::::: Ogggggv::::::::::::",
":::09=::::::yggggggg::::::::::::",
":::kkl-----fggggggggo:::::::::::",
":::kkkkkkkkjggggggggy:::::::::::",
":::kkkkkkkkjggggggggy:::::::::::",
":::kk-::::::gggggggg2:::::::::::",
":::kk-::::::vgggggg@::::::::::::",
":::kk-::::::: Ogggv:::::::,tus::",
":::kk-::::::::5aX8::::::s>ddddz:",
":::kk-::::::::5aa8::::::>ddddd>s",
":::kk-::::::::5aaaaaaaawdddddddt",
":::kk-::::::::5aaaaaaaaxdddddddt",
":::kk-::::::::5aaaaaaaaxdddddddt",
":::kk-::::::::5aa8:::::cdddddddz",
":::kk-::::::::5aa8::::::z>ddddu:",
":::kk-::::::::5aa8::::::::,tus::",
":::kk-::::::::5aa8::::::::1q1s::",
":::kk-::::::::5aa8::::::s>ddddz:",
":::kk-::::::::5aa8::::::>ddddd>s",
":::kk-::::::::5aa655555$dddddddt",
":::kk-::::::::5aaaaaaaaxdddddddt",
":::kk-::::::::+5aaaaaaabdddddddt",
":::kk-::::::::::88888883dddddddz",
":::kk-::::::::::::::::::zddddd*:",
":::kk-:::::::::::::::::::c#d>,::"
};
