/* XPM */
static const char * IconPanelGridShadow[] = {
/* width height ncolors chars_per_pixel */
"32 32 82 1",
/* colors */
"  c #6F0732",
". c #6E0731",
"X c #8A4260",
"o c #89425F",
"O c #7C0838",
"+ c #7B0837",
"@ c #D2BBC4",
"# c #6A0730",
"$ c #69072F",
"% c #85425E",
"& c #84425D",
"* c #C2ABB4",
"= c #770836",
"- c #64072D",
"; c #76163E",
": c #75163D",
"> c #85415D",
", c #780736",
"< c #AE7F92",
"1 c #81415C",
"2 c #80415B",
"3 c #BFAAB3",
"4 c #720733",
"5 c #823253",
"6 c #8D4261",
"7 c #9D6D81",
"8 c #7F0839",
"9 c None",
"0 c #9A4367",
"q c #6E0732",
"w c #6D0731",
"e c #B68096",
"r c #88425F",
"t c #87425E",
"y c #7B0838",
"u c #7A0837",
"i c #790836",
"p c #A47F8E",
"a c #8A3357",
"s c #690730",
"d c #68072F",
"f c #81425B",
"g c #C1ABB4",
"h c #C0ABB3",
"j c #853355",
"k c #63072D",
"l c #861745",
"z c #83415C",
"x c #770736",
"c c #760735",
"v c #811743",
"b c #65062E",
"n c #93335B",
"m c #813253",
"M c #8B4260",
"N c #CAABB8",
"B c #9B6D80",
"V c #7E0839",
"C c #7D0838",
"Z c #A77F8F",
"A c #6C0731",
"S c #6B0730",
"D c #7C3251",
"F c #7B3250",
"G c #86425E",
"H c #85425D",
"J c #790837",
"K c #780836",
"L c #770835",
"P c #67072F",
"I c #66072E",
"U c #65072D",
"Y c #C0ABB4",
"T c #73163D",
"R c #B07F93",
"E c #83415D",
"W c #82415C",
"Q c #81415B",
"! c #750735",
"~ c #740734",
"^ c #904263",
"/ c #91335A",
/* pixels */
"99999999999999999999999999999999",
"99999999999999999999999999999999",
"999B2222222222222222222222222999",
"99N-00000!a0000nT00000!a0000l299",
"99NI99999cg9999Nt99999cg99990299",
"99NP99999xg9999NG99999xg99990Q99",
"99Nd99999Kh9999NG99999Kh99990f99",
"99N#99999J39999N%99999J399990299",
"99NS*****+p****RF*****+p****/299",
"99NA~~~~~O#~~~~Lb~~~~~O#~~~~O299",
"99N 99999C39999N>99999C399990W99",
"99N.99999yY9999Nt99999yY99990&99",
"99NI99999c*9999NX99999c*99990W99",
"99Ns99999K*9999N699999K*99990E99",
"99NA99999J*9999N^99999J*99990H99",
"99N tttttyDttttj;tttttyDttttvt99",
"99N4NNNNNO<NNNNemNNNNNO<NNNNnr99",
"99N~99999V*9999No99999V*99990o99",
"99N!99999V*9999NX99999V*99990X99",
"99Nc999998*9999NM999998*99990M99",
"99NU99999!*9999NM99999!*99990Q99",
"99NI*****cZ****R5*****cZ****/199",
"99NP~~~~~xq~~~~Lw~~~~~xq~~~~OW99",
"99N$99999,*9999NM99999,*99990z99",
"99N#99999K*9999NM99999K*99990&99",
"99NS99999i*9999NM99999i*99990H99",
"99Nw99999J*9999NM99999J*99990H99",
"99Nq99999u*9999NX99999u*99990G99",
"99@:kkkkki-kkkkS#kkkkki-kkkk=799",
"999@NNNNNNNNNNNNNNNNNNNNNNNNN999",
"99999999999999999999999999999999",
"99999999999999999999999999999999"
};
