/* XPM */
static const char * IconWindowsFour[] = {
/* width height ncolors chars_per_pixel */
"32 32 251 2",
/* colors */
"   c #DB400E",
" . c #C83C0F",
" X c #D4AF84",
" o c #C53A0C",
" O c #D76038",
" + c #29489F",
" @ c #213A80",
" # c #FF551A",
" $ c #4E75AC",
" % c #FA521F",
" & c #3252AB",
" * c #254191",
" = c #1D3372",
" - c #D73E0D",
" ; c #FF4C10",
" : c #5761A1",
" > c #2A4AA3",
" , c #223C84",
" < c #D8491B",
" 1 c #4F77B0",
" 2 c #EA440F",
" 3 c #EDE3BD",
" 4 c #E8B6BF",
" 5 c #B7350B",
" 6 c #DF410E",
" 7 c #1E3576",
" 8 c #C25D30",
" 9 c #2B4786",
" 0 c #DA99A4",
" q c #243E89",
" w c #CA3B0D",
" e c #4761A8",
" r c #E09A8C",
" t c #E8A0AB",
" y c #233B7E",
" u c #D44B1A",
" i c #BF380C",
" p c #B5E2B7",
" a c #5E6BAE",
" s c #1F377A",
" d c #5B67AB",
" f c #CE5635",
" g c #5A65AA",
" h c #2B4389",
" j c #2F4DA4",
" k c #5E77B1",
" l c #2A499F",
" z c #6174AA",
" x c #EE450F",
" c c #5E6DB1",
" v c #21397F",
" b c #5B70A4",
" n c #4D74AA",
" m c #FE682F",
" M c #5C68A5",
" N c #B1EDC3",
" B c #CE3C0D",
" V c #576B96",
" C c #F5480F",
" Z c #334D97",
" A c #EA5C2F",
" S c #576196",
" D c #213B82",
" F c #D8481A",
" G c #4F76AF",
" H c #5C69B2",
" J c #B8360B",
" K c #1F3676",
" L c #AE330B",
" P c #3E569B",
" I c #FF4F12",
" U c #D04012",
" Y c #ECEDC8",
" T c #2B4BA6",
" R c #59639B",
" E c #233D87",
" W c #5E6BB7",
" Q c #E7430E",
" ! c #314A8E",
" ~ c #21387B",
" ^ c #3F589F",
" / c #F29696",
" ( c #294286",
" ) c #5A659F",
" _ c #FA4910",
" ` c #5F6DBB",
" ' c #5E6DBA",
" ] c #3B5AB2",
" [ c #223A7F",
" { c #5E6CB0",
" } c #20387D",
" | c #314891",
".  c #E4430E",
".. c #25418F",
".X c #1D3370",
".o c #BFBA8E",
".O c #274087",
".+ c #2948A0",
".@ c #213A81",
".# c #EC947F",
".$ c #FF551B",
".% c #E2ABC1",
".& c #D63E0D",
".* c #CF6B3E",
".= c #CC3B0D",
".- c #2A4AA4",
".; c #6275B0",
".: c #233C86",
".> c #586299",
"., c #223C85",
".< c #D07756",
".1 c #5D6AB5",
".2 c #203779",
".3 c #DE410E",
".4 c #E16449",
".5 c #5A65A8",
".6 c #233E89",
".7 c #273F83",
".8 c #5E6CB9",
".9 c #486B96",
".0 c #233B7F",
".q c #B3B288",
".w c #F1A797",
".e c #2F498E",
".r c #ECC0DE",
".t c #EAC69D",
".y c #5B66A2",
".u c #1C326E",
".i c #F84810",
".p c #F7480F",
".a c #496D9A",
".s c #243D83",
".d c #EA5A2D",
".f c #29479F",
".g c #B0330B",
".h c #304488",
".j c #1E3473",
".k c #FF4B10",
".l c #EA6430",
".z c #5F7AAC",
".x c #C56B3D",
".c c #2A49A3",
".v c #223B84",
".b c #5C69B3",
".n c #274496",
".m c #1F3677",
".M c #E0B38C",
".N c #2E4689",
".B c #233D88",
".V c #364E94",
".C c #5E76AE",
".Z c #F1460F",
".A c #B4C99F",
".S c #28469A",
".D c #E6430E",
".F c #20387B",
".G c #B4340B",
".H c #4D73A7",
".J c #DC400E",
".K c #5A6FA0",
".L c #6380B6",
".P c #E79396",
".I c #F94910",
".U c #2E4CA3",
".Y c #2D4CA2",
".T c #C63A0C",
".R c #2B4AA0",
".E c #EA5D2C",
".W c #EE460F",
".Q c #29489E",
".! c #213A7F",
".~ c #E85B2A",
".^ c #BC370C",
"./ c #5C68AF",
".( c #B1340B",
".) c #304787",
"._ c #F96234",
".` c #254190",
".' c #1D3371",
".] c #D16048",
".[ c #4A6E9D",
".{ c #ECC8ED",
".} c #F5470F",
".| c #E4ACA3",
"X  c #4F77AF",
"X. c #5C73A8",
"XX c #ECE1BB",
"Xo c #284596",
"XO c #F96637",
"X+ c #1F3576",
"X@ c #1E3575",
"X# c #D86E3E",
"X$ c #3451A5",
"X% c #5963A5",
"X& c #4B70A1",
"X* c #586C9A",
"X= c #2C4CA7",
"X- c #395196",
"X; c #CB3B0D",
"X: c #223C86",
"X> c #C0380C",
"X, c #E7440E",
"X< c #B97F54",
"X1 c #20377A",
"X2 c #F97A51",
"X3 c #BCA87B",
"X4 c #ECC8C8",
"X5 c #687CB0",
"X6 c #DA6243",
"X7 c #5F77B1",
"X8 c #364F96",
"X9 c #344D94",
"X0 c #5F6DB1",
"Xq c #21397E",
"Xw c #B2B288",
"Xe c #FA531D",
"Xr c #4D74A9",
"Xt c #DAB28B",
"Xy c #ECAB7F",
"Xu c #284188",
"Xi c #EF7A4A",
"Xp c #223B82",
"Xa c #DD5A35",
"Xs c #4E76AD",
"Xd c #CF5F31",
"Xf c #F6551C",
"Xg c #5C68A7",
"Xh c #AF330B",
"Xj c #6A7AB8",
"Xk c #1E3474",
"Xl c #1D3473",
"Xz c #2B4BA5",
"Xx c #C43B0F",
"Xc c #DA9F84",
"Xv c #E2ABA3",
"Xb c #5D74AB",
"Xn c #324A8E",
"Xm c #5D6AAB",
"XM c #274497",
"XN c #1F3678",
"XB c #E16E3F",
"XV c #2E468A",
"XC c #3452A7",
"XZ c #4C71A4",
"XA c #596D9D",
"XS c #E1643F",
"XD c #5E76AF",
"XF c #F0460F",
"XG c #D99490",
"XH c #425CA4",
"XJ c #20387C",
/* pixels */
"X5Xn...6 , @ }.2 7Xk =.XXk.FXp !.;Xn...6 , @ }.2 7Xk =.XXk.FXp |",
"XM ^X7 kXD.CXbX.X. b.KXAX* V.)., @ ^ ` '.8 W.1.b./ d gX% : :.h.,",
".n.V Y Y Y Y Y Y Y Y Y Y Y YX*.S E.V.{.{.{.{.{.{.{.{.{.{.{.{X%.S",
" *X9 Y Y Y.tXB Q CXe.t Y Y Y.K.Y qX9.{.{.{.%.4 Q C % t.{.{.{.5.Y",
".` h Y YXt w.3.W.I.k ;X2 Y Y b ]X: h.{.{ 0 w.3.W.I.k ;X2.{.{ d ]",
".6.O Y Y.g w.J 2.p # I ;Xy Y b &.:.O.{.{.g w.J 2.p # I ; /.{./ &",
".@.s Y.<.g.T -.DXF m.$.kXO YX..-.@.s.{.<.g.T -.DXF m.$.kXO.{ H.-",
" D [ YXd L.^.=   Q.Z.i _.} YXb T , [.{ f L.^.=   Q.Z.i _.}.{.1 T",
"XqXq Y < 5.gX> B  .  2 xX, Y.C.- }Xq.{ < 5.gX> B  .  2 xX,.{ W.-",
".@XJ YXB . L.G iX;.&   6Xa Y.C TXqXJ.{.4 . L.G iX;.&   6Xa.{.8 T",
" vXJ YXX.EXxXh L.^ o wX;.M YXD.cX1XJ.{.r AXxXh L.^ o wX; 0.{ '.c",
".:X1 Y Y 3.E U J LXh.(Xt Y Y kXz.0X1.{.{.r.d U J LXh.( 0.{.{ 'Xz",
" , s Y Y Y YXyX#.*Xc.t Y Y YX7 >XV s.{.{.{.{.PX6.]XG.%.{.{.{ ` >",
".BXN Y Y Y Y Y Y Y Y Y Y Y YX7.-X-XN.{.{.{.{.{.{.{.{.{.{.{.{ `.-",
".6.mXlX@X+ 7 K.mXNX1 ~ y.7.N.U j (.mXlX@X+ 7 K.mXNX1 ~ y.7.N.U j",
" Z P eXHX8Xu.!X1 7.'.u.jXN }.vX5 Z P eXHX8Xu.!X1 7.'.u.jXN }.vXj",
".zXn...6 , @ }.2 7Xk =.XXk.FXp.e zXn...6 , @ }.2 7Xk =.XXk.FXp !",
"XM ^ 1 GXs $ n.HXZX&.[.a.a.9 9., @ ^X0 c { aXmXg M.y ) R.> S.h.,",
".n.V N N N N N N N N N N N N.a.S E.VX4X4X4X4X4X4X4X4X4X4X4X4 R.S",
" *X9 N N N.A.* Q CXf.o N N N.[.Y qX9X4X4X4.|XS Q CXe.wX4X4X4 ).Y",
".` h N NXw w.3.W.I.k ;Xi N NX& ]X: hX4X4 r w.3.W.I.k ;X2X4X4.y ]",
".6.O N N.g w.J 2.p # I ; X NXZ &.:.OX4X4.g w.J 2.p # I ;.#X4 M &",
".@.s NX<.g.T -.DXF m.$.k.l N.H.-.@.sX4.<.g.T -.DXF m.$.k._X4Xg.-",
" D [ N 8 L.^.=   Q.Z.i _.} NXr T , [X4 f L.^.=   Q.Z.i _.}X4Xm T",
"XqXq N u 5.gX> B  .  2 xX, N $.- }XqX4 F 5.gX> B  .  2 xX,X4 a.-",
".@XJ NX# . L.G iX;.&   6Xd NXs TXqXJX4XS . L.G iX;.&   6XaX4 a T",
" vXJ N p.EXxXh L.^ o wX;.q N G.cX1XJX4 4 AXxXh L.^ o wX; rX4 c.c",
".:X1 N N p.~ U J LXh.(.q N NX Xz.0X1X4X4 4.~ U J LXh.( rX4X4 cXz",
" , s N N N NX3.x.xX3.A N N N 1 >XV sX4X4X4X4.#X6 OXcXvX4X4X4X0 >",
".BXN N N N N N N N N N N N N 1.-X-XNX4X4X4X4X4X4X4X4X4X4X4X4X0.-",
".6.mXlX@X+ 7 K.mXNX1 ~ y.7.N.U j (.mXlX@X+ 7 K.mXNX1 ~ y.7.N.U j",
" Z.!XoX$XC.R +.+.+.+ +.f.Q lX=.L Z.!XoX$XC.R +.+.+.+ +.f.Q lX=Xj"
};
