/* XPM */
static const char * IconCrvEllipseDiams[] = {
/* width height ncolors chars_per_pixel */
"32 32 156 2",
/* colors */
"   c #271E19",
" . c #352E2A",
" X c #893834",
" o c #554B46",
" O c #D9D8D8",
" + c #D8D8D7",
" @ c #6E0D09",
" # c #180E0A",
" $ c #170E09",
" % c #BFBCBB",
" & c #696360",
" * c #3F120C",
" = c #A7A2A0",
" - c #514945",
" ; c #5F5956",
" : c #2F231D",
" > c #93130C",
" , c #2B1F19",
" < c #AFACAB",
" 1 c #595350",
" 2 c #130C08",
" 3 c #413935",
" 4 c #720E09",
" 5 c #1F130D",
" 6 c #1D110B",
" 7 c #854543",
" 8 c #291F1A",
" 9 c #5E3C37",
" 0 c #C28482",
" q c #93908F",
" w c #92908E",
" e c #1A0F0B",
" r c #190F0A",
" t c #6B6461",
" y c #3B2E28",
" u c #BEBBB9",
" i c #534A46",
" p c #524A45",
" a c #32261F",
" s c #A08381",
" d c #150D09",
" f c #2A1E17",
" g c #130B07",
" h c #BCBBBA",
" j c #65605E",
" k c #251812",
" l c #433A36",
" z c #1F120C",
" x c #9B130C",
" c c #969391",
" v c #94918F",
" b c #700D09",
" n c #3D3633",
" m c None",
" M c #1B100B",
" N c #1A100A",
" B c #544B46",
" V c #32251E",
" C c #6D0D09",
" Z c #150C08",
" A c #BEBCBB",
" S c #211A17",
" D c #740E09",
" F c #A6A2A0",
" G c #A88381",
" H c #AEACAB",
" J c #585350",
" K c #969290",
" L c #20150F",
" P c #710E09",
" I c #1D110C",
" U c #1C110B",
" Y c #4B4543",
" T c #6E3834",
" R c #6E6662",
" E c #844543",
" W c #271D19",
" Q c #564C47",
" ! c #D1AEAC",
" ~ c #D8D7D7",
" ^ c #180F0A",
" / c #170D09",
" ( c #BFBDBB",
" ) c #231B18",
" _ c #221B17",
" ` c #463C37",
" ' c #524A46",
" ] c #2E221C",
" [ c #B0ADAC",
" { c #140D09",
" } c #AFADAB",
" | c #130B08",
".  c #120B07",
".. c #64605E",
".X c #989391",
".o c #221610",
".O c #31100B",
".+ c #20140E",
".@ c #1E120C",
".# c #670C08",
".$ c #D9D8D7",
".% c #7F3733",
".& c #3C3633",
".* c #2A221E",
".= c #1A100B",
".- c #640C08",
".; c #180E09",
".: c #241C18",
".> c #4A3F3A",
"., c #483D38",
".< c #79120C",
".1 c #6C0D09",
".2 c #6B0D08",
".3 c #B1AEAC",
".4 c #140C08",
".5 c #BDBCBB",
".6 c #4E3C37",
".7 c #ABA8A6",
".8 c #65615E",
".9 c #443B37",
".0 c #999491",
".q c #A5A2A0",
".w c #20130D",
".e c #4E4744",
".r c #653733",
".t c #ADACAB",
".y c #7B0F0A",
".u c #403936",
".i c #3E3734",
".p c #1C110C",
".a c #1A0F0A",
".s c #834543",
".d c #824542",
".f c #554C47",
".g c #544A46",
".h c #D7D7D7",
".j c #381F1A",
".k c #290B08",
".l c #590E09",
".z c #6C6664",
".x c #160D09",
".c c #150D08",
".v c #2B1E17",
".b c #BFBDBC",
".n c #291C15",
".m c #271A13",
".M c #22140E",
".N c #21140D",
".B c #3D1C18",
".V c #9C130C",
".C c #2D221C",
".Z c #AFADAC",
".A c #57524F",
".S c #6B1B17",
".D c #2D0C08",
".F c #1D120C",
/* pixels */
" m m m m m m m m m m m m m m m m m m m m m m m m m m m m m m m m",
" m m m m m m m m m m m m m m m m m m m m m m m m m m m m m m m m",
" m m m m m m m m m m m m m m m m m m m m m m m m m m m m m m m m",
" m m m m m m m m m m m m m m m m m m m m m m m m m m m m m m m m",
" m m m m m m m m m m m m m m m m m m m m m m m m m m m m m m m m",
" m m m m m m m m m m m m m m m m m m m m m m m m m m m m m m m m",
" m m m m m m m m m m ~ [ - p i.g ` B B i.X ( m m m m m m m m m m",
" m m m m m m m m & 8 I.F I U U U U 6 6.@ 5.w.N B ~ m m m m m m m",
" m m m m m ~.e 8 U M N ^.x.4 | g 2. . .4.x r M.w.M Q = m m m m m",
" m m m m.5 W M M #.4 S...t H s.<.l.r.Z } q n 2.c N.o.m.0 m m m m",
" m m m j # M r Z.8 h m m m m !.V C.s m m m m ~ v ) Z.p V.> ~ m m",
" m m H $.= r n h m m m m m m !.V 4.d m m m m m m ~.z { N f.f m m",
" m.h _ N N J m m m m m m m m !.V @ E m m m m m m m m u { M.n F m",
" m w / M 3 m m m m m m m m m !.V D.s m m m m m m m m m c.4 5., m",
" m.& r U.B 7 7 7 7 7 7 7 7 7.% P.-.S 7 7 7 7 7 7 7 7 7 T | M.N ~",
" m g e.@.#.#.#.#.#.#.#.#.#.#.#.#.#.#.#.#.#.#.#.#.#.#.#.#.k # z.3",
" m g e.w > x x x x x x x x x x x x x x x x x x x x x x x.D r.@.3",
" m.:.;.+ 9 ! ! ! ! ! ! ! ! ! 0 x.y X ! ! ! ! ! ! ! ! ! G.4 M U A",
" m t.4 L a + m m m m m m m m !.V.1 E m m m m m m m m m.A ^ M   m",
" m m.u $ , y.$ m m m m m m m !.V b E m m m m m m m m 1 r M r ~ m",
" m m.q.* $.C.v.0 m m m m m m ! x.2 E m m m m m m A  .= M r.A m m",
" m m m.7 . Z U k : R.b m m m ! x @ E m m m ~ K l M M.a.x j m m m",
" m m m m O ;. .x M.@.w ] o B.6 *.O.j p '.9 I U M r $ _ h m m m m",
" m m m m m m [ J 2.4 #.= I I.@.F.F I 6 U M.a.;.4 S H.h m m m m m",
" m m m m m m m m % &.i.4 |.4 Z d d.x d.4.4 _ Y H m m m m m m m m",
" m m m m m m m m m m m m.3 [ < H v H H.Z ~ m m m m m m m m m m m",
" m m m m m m m m m m m m m m m m m m m m m m m m m m m m m m m m",
" m m m m m m m m m m m m m m m m m m m m m m m m m m m m m m m m",
" m m m m m m m m m m m m m m m m m m m m m m m m m m m m m m m m",
" m m m m m m m m m m m m m m m m m m m m m m m m m m m m m m m m",
" m m m m m m m m m m m m m m m m m m m m m m m m m m m m m m m m",
" m m m m m m m m m m m m m m m m m m m m m m m m m m m m m m m m"
};
