/* XPM */
static const char * IconDataLoadSaveMatrix[] = {
/* width height ncolors chars_per_pixel */
"32 32 208 2",
/* colors */
"   c #49DD01",
" . c #FDEC00",
" X c #CDCDA8",
" o c #59FF00",
" O c #CCCDA7",
" + c #ADADAD",
" @ c #1E8402",
" # c #91998E",
" $ c #3BF800",
" % c #D1C1C3",
" & c #06092A",
" * c #1E0E10",
" = c #9F9F9F",
" - c #2BC601",
" ; c #4A4A06",
" : c #42FF00",
" > c #645930",
" , c #BFAFB1",
" < c #8F8F8F",
" 1 c #53FF00",
" 2 c #373849",
" 3 c #113009",
" 4 c #112E09",
" 5 c #818181",
" 6 c #686A6F",
" 7 c #144B05",
" 8 c #F7C600",
" 9 c #1F2C1A",
" 0 c #FEE700",
" q c #4A4C62",
" w c #FEDD00",
" e c #1F8B02",
" r c #2C1013",
" t c #1F4C09",
" y c #80804E",
" u c #AE9378",
" i c #696A73",
" p c #060829",
" a c #41BD02",
" s c #F4C000",
" d c #373A4F",
" f c #CFA400",
" g c #090B39",
" h c #080B38",
" j c #99978E",
" k c #5F5F5F",
" l c #39FB00",
" z c #3AEB01",
" x c #34BE02",
" c c #239802",
" v c #666634",
" b c #8F8384",
" n c #8C6D00",
" m c #6A5303",
" M c #45BE02",
" N c #FFF600",
" B c #696905",
" V c #454545",
" C c #31BE02",
" Z c #5BFF00",
" A c #196F02",
" S c #EEBC00",
" D c #47FF00",
" F c #FFDC00",
" G c #336C15",
" H c #1E8C00",
" J c #27B102",
" K c #634A09",
" L c #BFBF03",
" P c #5C242A",
" I c None",
" U c #38BD02",
" Y c #58FF00",
" T c #744448",
" R c #44FF00",
" E c #484A58",
" W c #3F7331",
" Q c #3AFE00",
" ! c #495645",
" ~ c #2A3C0C",
" ^ c #858541",
" / c #3FBE02",
" ( c #DDD1D3",
" ) c #401318",
" _ c #4A4A07",
" ` c #4A4807",
" ' c #60804E",
" ] c #AEAE13",
" [ c #4A3E07",
" { c #41FF00",
" } c #9C9D89",
" | c #46BD02",
".  c #3C6731",
".. c #181A39",
".X c #ECECDE",
".o c #7C6203",
".O c #3CBE02",
".+ c #686A6D",
".@ c #27B401",
".# c #E0DCD2",
".$ c #4AAE13",
".% c #ABAC94",
".& c #43BD02",
".* c #BCBD9E",
".= c #B99503",
".- c #ACACAC",
".; c #4FFF00",
".: c #BCBDA1",
".> c #A49F05",
"., c #9A7A02",
".< c #9E9E9E",
".1 c #CDCEAB",
".2 c #513D0D",
".3 c #2CBD02",
".4 c #4CFF00",
".5 c #494B5B",
".6 c #080B39",
".7 c #4D3509",
".8 c #D0C09A",
".9 c #1B4C09",
".0 c #3DBD02",
".q c #5DFF00",
".w c #D5A700",
".e c #EEEE01",
".r c #209400",
".t c #2F4E0C",
".y c #49FF00",
".u c #483B07",
".i c #070A31",
".p c #604E04",
".a c #3E3207",
".s c #181B3B",
".d c #BCBC9D",
".f c #3ABD02",
".g c #401913",
".h c #282D0F",
".j c #705803",
".k c #FEDC00",
".l c #707070",
".z c #507D43",
".x c #816603",
".c c #392E05",
".v c #57FF00",
".b c #32E900",
".n c #805458",
".m c #9C9D87",
".M c #99968E",
".N c #54FF00",
".B c #5F804E",
".V c #2E2507",
".C c #2AB802",
".Z c #1A1D46",
".A c #FFFFFF",
".S c #E7B600",
".D c #FFFF00",
".F c #4BAE12",
".G c #FFFB00",
".H c #45BD02",
".J c #FFF700",
".K c #FFF100",
".L c #464646",
".P c #AF9496",
".I c #196E02",
".U c #4A4C61",
".Y c #3A1116",
".T c #1F130F",
".R c #363636",
".E c #441419",
".W c #797B7B",
".Q c #BFB803",
".! c #4C7734",
".~ c #4EFF00",
".^ c #454434",
"./ c #080B37",
".( c #3AFD00",
".) c #1D4C09",
"._ c #47484D",
".` c #4D151B",
".' c #D7D7D7",
".] c #401418",
".[ c #4A4907",
".{ c #503D0D",
".} c #4A4507",
".| c #ADAD12",
"X  c #4BFF00",
"X. c #5C5E68",
"XX c #30DC00",
"Xo c #56EE01",
"XO c #55EE00",
"X+ c #ECECBD",
"X@ c #FDFDC7",
"X# c #46BE02",
"X$ c #37F700",
"X% c #557543",
"X& c #050723",
"X* c #9F9F04",
"X= c #A28185",
"X- c #5CFF00",
"X; c #947400",
"X: c #BBBBBB",
"X> c #555543",
"X, c #473907",
"X< c #53EE01",
"X1 c #070A32",
"X2 c #52161C",
"X3 c #DCD8D8",
"X4 c #174A09",
"X5 c #C09700",
/* pixels */
" I I I I I I I I I I I I I I I I I I I I I I I I I I I I I I I I",
" I I I I I I I I I I I I I I I I I I I I I I I I I I I I I I I I",
" I I I I I I I I I I I I I I I I I I I I I I I I I I I I I I I I",
" I I I I I I I I I I I I I I I I I I I I I I I I I I I I I I I I",
" I I I I I I I I I I I I I I I I I I I I I I I I I I I I I I I I",
" I I I I I I I I I I I I I I I I I I I I I I I I I I I I I I I I",
" I I I.-.^ I I I I I I I I I I I I I I I I I I I I ! < I I I I I",
" I I I.- B = I I , , ,.#.X.X.X.X.X.X.X.X.X , , ,X3X% G.' I I I I",
" I I I.- _.|.' IX2X2X2.8X@.W XX@X@X@ EX@X@X2X2X2 ,.L M.B I I I I",
" I I I.- _.D y IX2X2X2.8X@.U }X@X@X+ pX@X@X2X2X2 ,.L |XO = I I I",
" I I I.- _.D.e =X2X2X2.8X@.U._X@X@.:X&X@X@X2X2X2 ,.LX#.q.$.' I I",
" I I I.- _.D.D ].`X2X2.8X@ q &X@X@.5.iX@X@X2X2X2 ,.LX#.qX- ' I I",
"X> ^ ^ v _.D.D.D.{X2X2.8X@ q g.*X@X1.6X@X@ r ~.t.! 9.HX-.qXo.< I",
"X*.D.D L ;.D.D.D.e.YX2.8X@.UX..+.1 2./X@X@.h   1 1 t.& o Z.q.F.'",
" _.D.D L _.D.D.D.D.>.`.8X@ q.%.s 6.m hX@X@ *.O.~.~.) a.v Y oX- '",
" ` N N.Q _.D.D.D.D.D.2.8X@ q.d.Z d O hX@X@ * x R R.9 / 1 1 1.NX<",
".u 8 8.= _.D.D.D.D . K.8X@.U.d i..X@./X@X@ *.CX$X$X4.0.;.~.4.y z",
".VX;X;.j ;.D.D.G 0.,.` u.8.8.8.8.8.8.8.8.8 * A.r.r 3.fX .y R $ W",
".c n n m _.D.J w f.gX2X2X2X2X2X2X2X2X2X2X2.T.I H H 4 U D : l e.'",
".- +.- 5.[.K.k.S.7X2X2 T % % % % % % %.PX2.E ).] b.R x {.( - # I",
" I I I.-.} F S.x.`X2X2.n.A.nX=.A.A.A.A %X2X2X2X2 ,.L C QXX.  I I",
" I I I.- [ sX5.M PX2X2.n.AX2.n.A.A.A.A %X2X2X2X2 ,.L.3.b @.' I I",
" I I I.-X,.w > IX3 PX2.n.AX2.n.A.A.A.A %X2X2X2X2 ,.L J.@ # I I I",
" I I I.-.a.o.' I IX3 P.n.A % (.A.A.A.A %X2X2X2X2 , V c.  I I I I",
" I I I.-.p j I I I I I I I I I I I I I I I I I I I.z 7.' I I I I",
" I I IX: k I I I I I I I I I I I I I I I I I I I I.l.< I I I I I",
" I I I I I I I I I I I I I I I I I I I I I I I I I I I I I I I I",
" I I I I I I I I I I I I I I I I I I I I I I I I I I I I I I I I",
" I I I I I I I I I I I I I I I I I I I I I I I I I I I I I I I I",
" I I I I I I I I I I I I I I I I I I I I I I I I I I I I I I I I",
" I I I I I I I I I I I I I I I I I I I I I I I I I I I I I I I I",
" I I I I I I I I I I I I I I I I I I I I I I I I I I I I I I I I"
};
