/* XPM */
static const char * IconPolygon[] = {
/* width height ncolors chars_per_pixel */
"32 32 92 1",
/* colors */
"  c #0D0D06",
". c #DCDCDB",
"X c #191915",
"o c #5E5E5C",
"O c #171713",
"+ c #91918E",
"@ c #13130F",
"# c #464641",
"$ c #090905",
"% c #4E4E4C",
"& c #070703",
"* c #383833",
"= c #7D7D7A",
"- c #424240",
"; c #22221D",
": c #323230",
"> c #676764",
", c #ACACAB",
"< c #61615E",
"1 c #1A1A15",
"2 c #5F5F5C",
"3 c #9E9E9D",
"4 c #51514E",
"5 c #0A0A05",
"6 c #4F4F4C",
"7 c #90908F",
"8 c #434340",
"9 c #2B2B25",
"0 c #333330",
"q c #ADADAB",
"w c #1D1D17",
"e c #62625E",
"r c #1B1B15",
"t c #171711",
"y c None",
"u c #9F9F9D",
"i c #0D0D07",
"p c #52524E",
"a c #0B0B05",
"s c #171714",
"d c #91918F",
"f c #8F8F8D",
"g c #464642",
"h c #0B0B08",
"j c #070704",
"k c #BABABA",
"l c #1C1C15",
"z c #101009",
"x c #0E0E07",
"c c #D7D7D6",
"v c #0C0C08",
"b c #4F4F4D",
"n c #080804",
"m c #373732",
"M c #C3C3C2",
"N c #BDBDBC",
"B c #41413F",
"V c #BBBBBA",
"C c #ABABAA",
"Z c #191914",
"A c #9F9F9E",
"S c #0D0D08",
"D c #0B0B06",
"F c #090904",
"G c #8F8F8E",
"H c #383832",
"J c #444441",
"K c #42423F",
"L c #BCBCBA",
"P c #32322F",
"I c #ACACAA",
"U c #61615D",
"Y c #1A1A14",
"T c #14140E",
"R c #A0A09E",
"E c #10100A",
"W c #9C9C9A",
"Q c #53534F",
"! c #0C0C06",
"~ c #1C1C19",
"^ c #DBDBDB",
"/ c #929290",
"( c #161613",
") c #D7D7D7",
"_ c #90908E",
"` c #8C8C8A",
"' c #454541",
"] c #3F3F3B",
"[ c #080805",
"{ c #060603",
"} c #1D1D16",
"| c #191912",
/* pixels */
"yyyyyyyyyyyyyyyyyyyyyyyyyyyyyyyy",
"yyyyyyyyyyyyyyyyyyyyV7yyyyyyyyyy",
"yyyyyyyyyyyyyyyyVG-n5F/yyyyyyyyy",
"yyyyyyyyyyyyCo-nDTz|*w~yyyyyyyyy",
"yyyyyyyyCo0FDixx}eqyy9vWyyyyyyyy",
"yyyyyK:n5S;tigd)yyyyydE@^yyyyyyy",
"yyyy`5D!!re,yyyyyyyyyy}F=yyyyyyy",
"yyyy'D1+)yyyyyyyyyyyyyd!(.yyyyyy",
"yyyyrn-yyyyyyyyyyyyyyyy}n>yyyyyy",
"yyyyDnCyyyyyyyyyyyyyyyyL!hMyyyyy",
"yyyVD&Cyyyyyyyyyyyyyyyyy*n]yyyyy",
"yyy,D&yyyyyyyyyyyyyyyyyyL![Nyyyy",
"yyyU5&yyyyyyyyyyyyyyyyyyyHFXyyyy",
"yyy'FKyyyyyyyyyyyyyyyyyyyLaj_yyy",
"yyy1nKyyyyyyyyyyyyyyyyyyyye5syyy",
"yyya&Cyyyyyyyyyyyyyyyyyyyy)!nGyy",
"yyV5&Cyyyyyyyyyyyyyyyyyyyyyeancy",
"yyI${yyyyyyyyyy)p#-yyyyyyyy)!n2y",
"yyJF{yyyyyyyyyA1na$fyyyyyyyy<Djc",
"yyJnByyyyyyycp5&f)!jcyyyyyyyy $8",
"yy5nByyyyyyuYn(kyy<5:yyyyyyy+!jV",
"yy5nCyyyyc45&%yyyy)rnfyyyyyyl50y",
"yI$nCyyyuZn{3yyyyyy+!Ocyyyy+!jVy",
"yI$&yyc4FjPcyyyyyyyym$byyyyl50yy",
"yJ5&yuX$joyyyyyyyyyyVzn3yy, jVyy",
"yJ5:45F(3yyyyyyyyyyyyQDOyym50yyy",
"y$555n6cyyyyyyyyyyyyy)iF2V jVyyy",
"c555nfyyyyyyyyyyyyyyyye!jr50yyyy",
"y_FOkyyyyyyyyyyyyyyyyyyla jVyyyy",
"yycyyyyyyyyyyyyyyyyyyyyRm'2yyyyy",
"yyyyyyyyyyyyyyyyyyyyyyyyyyyyyyyy",
"yyyyyyyyyyyyyyyyyyyyyyyyyyyyyyyy"
};
