/* XPM */
static const char * IconGenObjBBox[] = {
/* width height ncolors chars_per_pixel */
"32 32 206 2",
/* colors */
"   c #000000",
" . c #390000",
" X c #720000",
" o c #ABABAB",
" O c #883D3D",
" + c #A9A9A9",
" @ c #5E0000",
" # c #9C4A4A",
" $ c #4A0000",
" % c #A1A1A1",
" & c #9D9D9D",
" * c #7B523D",
" = c #360000",
" - c #979797",
" ; c #1F2C00",
" : c #5B0000",
" > c #470000",
" , c #7D7D7D",
" < c #440000",
" 1 c #7D0000",
" 2 c #B88C8C",
" 3 c #737373",
" 4 c #717171",
" 5 c #410000",
" 6 c #C5A9A9",
" 7 c #725E3D",
" 8 c #D2B9B9",
" 9 c #521600",
" 0 c #315B00",
" q c #636363",
" w c #660000",
" e c #5F5F5F",
" r c #520000",
" t c #DFD6D6",
" y c #3E0000",
" u c #535353",
" i c #630000",
" p c #701010",
" a c #454545",
" s c #442D2D",
" d c #3B0000",
" f c #740000",
" g c #3D3D3D",
" h c #009100",
" j c #008F00",
" k c #008D00",
" l c #008B00",
" z c None",
" x c #008700",
" c c #380000",
" v c #322D32",
" b c #0A6D0A",
" n c #710000",
" m c #007B00",
" M c #047104",
" N c #007700",
" B c #873D3D",
" V c #2D2D2D",
" C c #2B2B2B",
" Z c #DCDCDC",
" A c #5D0000",
" S c #DADADA",
" D c #006B00",
" F c #272727",
" G c #490000",
" H c #000004",
" J c #D6D6D6",
" K c #CDA9A9",
" L c #501500",
" P c #6E0000",
" I c #5A0000",
" U c #151515",
" Y c #000007",
" T c #131313",
" R c #1B4C00",
" E c #0E170E",
" W c #111111",
" Q c #0F0F0F",
" ! c #0D0D0D",
" ~ c #0B0B0B",
" ^ c #610700",
" / c #6B0000",
" ( c #090909",
" ) c #000049",
" _ c #070707",
" ` c #570000",
" ' c #050505",
" ] c #030303",
" [ c #641010",
" { c #4A4A77",
" } c #010101",
" | c #430000",
".  c #AAAAAA",
".. c #680000",
".X c #1F5500",
".o c #A9A9CA",
".O c #9F5A5A",
".+ c #8D0000",
".@ c #A0A0A0",
".# c #400000",
".$ c #9C9C9C",
".% c #9A9A9A",
".& c #650000",
".* c #969696",
".= c #B05A5A",
".- c #510000",
".; c #B35AB3",
".: c #058500",
".> c #3D0000",
"., c #8C8C8C",
".< c #848484",
".1 c #3A0000",
".2 c #BEA9A9",
".3 c #8A5A8A",
".4 c #260000",
".5 c #727272",
".6 c #5F0000",
".7 c #000041",
".8 c #120000",
".9 c #6E6E6E",
".0 c #4B0000",
".q c #370000",
".w c #825A5A",
".e c #626262",
".r c #230000",
".t c #4F3B00",
".y c #2A3F17",
".u c #606060",
".i c #5C0000",
".p c #920092",
".a c #000005",
".s c #5A5A5A",
".d c #480000",
".f c #810000",
".g c #565656",
".h c #067C00",
".j c #6D0000",
".k c #701710",
".l c #7D007D",
".z c #590000",
".x c #4A4A4A",
".c c #6B106B",
".v c #464646",
".b c #872D2D",
".n c #3E3E3E",
".m c #C69C9C",
".M c #560000",
".N c #009200",
".B c #090000",
".V c #008E00",
".C c #2D2D76",
".Z c #420000",
".A c #0A7A0A",
".S c #008A00",
".D c #7B0000",
".F c #323232",
".G c #2E0000",
".H c #007C00",
".J c #670000",
".K c #2C2C2C",
".L c #DDDDDD",
".P c #007000",
".I c #50003C",
".U c #430043",
".Y c #530000",
".T c #006800",
".R c #E0D6D6",
".E c #0D500D",
".W c #144214",
".Q c #3C3400",
".! c #153A15",
".~ c #3F0000",
".^ c #202020",
"./ c #780000",
".( c #320032",
".) c #5C000C",
"._ c #CBCBCB",
".` c #181818",
".' c #7A3D3D",
".] c #0F260F",
".[ c #161616",
".{ c #500000",
".} c #DDD6D6",
".| c #141414",
"X  c #C5C5C5",
"X. c #121212",
"XX c #C3C3C3",
"Xo c #892E2E",
"XO c #101010",
"X+ c #0E0E0E",
"X@ c #321717",
"X# c #0C0C0C",
"X$ c #BDBDBD",
"X% c #130909",
"X& c #0A0A0A",
"X* c #0A3D03",
"X= c #001800",
"X- c #080808",
"X; c #610000",
"X: c #B9B9B9",
"X> c #060606",
"X, c #8A0404",
"X< c #040404",
"X1 c #B5B5B5",
"X2 c #4D0000",
"X3 c #020202",
/* pixels */
" z z z z z z z J.^ J J & z z z z z z z z z z z z z z z z z z z z",
" z z z z z z JXO  X.X< } Q.gXX z z z z z z z z z z z z z z z z z",
" z z z z zX:XO       }X&X<   ].^.5 S z z z z z z z z z z z z z z",
" z z z z.$           }.e V _X# _   _.n.% S z z z z z z z z z z z",
" z z z.$             } o zX:.s }X> _   }X+ uX1 z z z z z z z z z",
" z z.s        .x g   }.  z z z z + VX<X- _   ].^.9XX z z z z z z",
" z.x        ., z g    .  z z z z z z J.sXOX> (X<  X< F.% S z z z",
".x  X<    .$ z z g     + z z z z z z z z zX: g } !X>     (.vX1 z",
"XO   !.`.* z z z g     + z z z z z z z z z z z J., VX>X# _   }X+",
" U ( _   ].^ 4 S g     + K 2 * 7 B 6 z z z z z z z zX:.s        ",
" }     ' (X<   _.[ ~.4 9.X.P m x j.h.QXo z z z z z z z.$        ",
"  X3.$., VX3 ~ '     Q.W b N.T D.H.S l.:.k.R z z z z.$          ",
"   }.  z z.U.(XO _ ! _  X>.].E M.N.V k j 0.= z z z.x           (",
"    .  z z.3.l.; s.8   _X& '   ~.!.A k h.t.+ t z.x        .x   ]",
"     + z z z.c.p > y ^X*X=   ' ~  X3 E.yX,.+ #XO        ., z   ~",
"     + z z J v.I <.1.qX2 L R ;.BX>X#X>   _X@X%        .$ z z  X3",
"     + z JXO   d | c c 5 $.M @...z.G   ' (X<   U   Y.C z z z  X-",
"     +.$      .- < c c.Z.0.Y A.&.j f.D.6.r  X> ] H {.o z z z  X&",
"     e        .i.d d.q 5 $ r.i i / X./ 1.f  X# ~ ) z z z z z  X<",
"            .x O.{.~ =.> >.{.zX;.J P f./.D   ]X+.7.` ,._ z z  X<",
"          ., z 8 w G . c 5 $.Y : i...j n.)  X&XO.a    X& a %  X<",
"       }.u z z z.m p G d c 5 $.Y I @ i.&X;   ' Q g            X<",
" eX3      X. eX$ z t.b ` G.#.>.Z >.d.d >.w   _XO z z + g   }  .|",
" g  X< UX+     }.F - z 8.O [ :.M.-.'.2.} z   ' Q z z z J V      ",
" z J.,XO  X# !       (.9X  z z z z z z z z  X<XO z z JXO      XO",
" z z z zX:.sXO }        X3.K.@.L z z z z z   Q Q z.$XO      XO J",
" z z z z z z z + g             T q._ z z z   }XO.$        .x J z",
" z z z z z z z z z z., V           ' C.< Z   ( W        .x z z z",
" z z z z z z z z z z z z J.,XO          X#   }XO      .x z z z z",
" z z z z z z z z z z z z z z zX:.sXO     }  X<X<    .$ z z z z z",
" z z z z z z z z z z z z z z z z z z + g     3    .$ z z z z z z",
" z z z z z z z z z z z z z z z z z z z z z J z.$X: z z z z z z z"
};
