/* XPM */
static const char * IconANCheckBox[] = {
/* width height ncolors chars_per_pixel */
"64 64 237 2",
/* colors */
"   c #000000",
" . c #000200",
" X c #E8EAE2",
" o c #000A00",
" O c #E8EBE3",
" + c #E8ECE4",
" @ c #E8EDE4",
" # c #001100",
" $ c #001500",
" % c #B81105",
" & c #B81609",
" * c #E9E1D8",
" = c #002100",
" - c #D8B5AC",
" ; c #D8B7AE",
" : c #C86B61",
" > c #D8B9B2",
" , c #8DED83",
" < c #002B00",
" 1 c #002D00",
" 2 c #002F00",
" 3 c #E9F0E8",
" 4 c #003200",
" 5 c #E9F3EC",
" 6 c #003600",
" 7 c #EADBDB",
" 8 c #B9190C",
" 9 c #D9B3AA",
" 0 c #B91B0F",
" q c #B91E13",
" w c #D9B8B0",
" e c #B92014",
" r c #D9BDB5",
" t c #C97269",
" y c #004E00",
" u c #B9281C",
" i c #005100",
" p c #005200",
" a c #C97972",
" s c #005600",
" d c #005800",
" f c #005900",
" g c #90C599",
" h c #BA1D12",
" j c #CA6F65",
" k c #006A00",
" l c #CA746A",
" z c #006F00",
" x c #D9E3CB",
" c c #CA7F77",
" v c #A2E998",
" b c #007D00",
" n c #ECDEDD",
" m c #008200",
" M c #46F841",
" N c #BB2417",
" B c #DBC4BC",
" V c #34FB2F",
" C c #CB7B72",
" Z c #DBC9C3",
" A c #009D00",
" S c #00A200",
" D c #00A800",
" F c #EDE5DB",
" G c #CC7166",
" H c #DCBFB6",
" J c #23EB2A",
" K c #CC786D",
" L c #7FEC77",
" P c #BC2E22",
" I c #00B800",
" U c #DCC8BF",
" Y c #EEDCDF",
" T c #CC867E",
" R c #CC8B85",
" E c #00D700",
" W c #DDCAC2",
" Q c #DDCCC5",
" ! c #00E100",
" ~ c #BD392E",
" ^ c #BD3C31",
" / c #00E700",
" ( c #CD8E87",
" ) c #00F100",
" _ c #00F500",
" ` c #00F600",
" ' c #00F800",
" ] c #81ED78",
" [ c #DEC8C0",
" { c #00FC00",
" } c #CE7D73",
" | c #00FD00",
".  c #00FD01",
".. c #00FE00",
".X c #00FF00",
".o c #DECDC5",
".O c #BE352B",
".+ c #DECEC7",
".@ c #CE9089",
".# c #02D30A",
".$ c #01FE01",
".% c #01FE02",
".& c #01FF00",
".* c #01FF01",
".= c #DFCFC7",
".- c #DFD1C9",
".; c #DFD3CB",
".: c #DFDFD1",
".> c #83EC7A",
"., c #02FF01",
".< c #02FF02",
".1 c #F2DCE2",
".2 c #E0D7D0",
".3 c #C03F32",
".4 c #C04035",
".5 c #E0DFD1",
".6 c #D0958D",
".7 c #C04A3F",
".8 c #D09890",
".9 c #84EC7B",
".0 c #84EC7C",
".q c #D09B95",
".w c #D09D95",
".e c #03FE03",
".r c #03FF02",
".t c #03FF03",
".y c #E1D4CE",
".u c #E1D9D1",
".i c #C14237",
".p c #C14438",
".a c #E1DED2",
".s c #E1DFD2",
".d c #85EB7D",
".f c #D19A91",
".g c #D19D97",
".h c #C15147",
".j c #04FE03",
".k c #04FF04",
".l c #D1A19B",
".z c #406591",
".x c #E2DAD2",
".c c #E2DBD4",
".v c #E2DCD4",
".b c #E2DDD4",
".n c #C24538",
".m c #E2DED3",
".M c #E2DED5",
".N c #C2463B",
".B c #C2473C",
".V c #05FF05",
".C c #D2A09A",
".Z c #4FF64A",
".A c #E3D7D0",
".S c #E3D9D2",
".D c #E3DAD1",
".F c #E3DBD3",
".G c #E3DDD4",
".H c #E3DDD5",
".J c #E3DDD6",
".K c #E3DED5",
".L c #E3E1D9",
".P c #C34C40",
".I c #C34E42",
".U c #77A191",
".Y c #D3A39B",
".T c #D3A69F",
".R c #D3A8A2",
".E c #D3AAA3",
".W c #E4DBD3",
".Q c #E4DDD5",
".! c #E4DED5",
".~ c #E4DED6",
".^ c #1E565B",
"./ c #C4473A",
".( c #E4E2DB",
".) c #07FF06",
"._ c #F7DBE7",
".` c #D3C3BF",
".' c #F7DCE6",
".] c #D4A7A0",
".[ c #D4A9A1",
".{ c #E5DBD4",
".} c #E5DCD4",
".| c #E5DDD5",
"X  c #E5DDD6",
"X. c #E5DED5",
"XX c #E5DED6",
"Xo c #E5DED7",
"XO c #E5DFD6",
"X+ c #E5DFD7",
"X@ c #E5E0D8",
"X# c #E5E0D9",
"X$ c #E5E4DC",
"X% c #B50401",
"X& c #C55247",
"X* c #F8DBE8",
"X= c #C5574D",
"X- c #F8DCE7",
"X; c #D5ABA4",
"X: c #D5AEA6",
"X> c #F8E8E1",
"X, c #E6DED5",
"X< c #E6DFD7",
"X1 c #E6E0D8",
"X2 c #E6E0D9",
"X3 c #E6E1D9",
"X4 c #E6E2DA",
"X5 c #E6E2DB",
"X6 c #E6E3DB",
"X7 c #E6E3DC",
"X8 c #E6E4DC",
"X9 c #E6E5DD",
"X0 c #E6E5DE",
"Xq c #E6E6DE",
"Xw c #E6E6DF",
"Xe c #E6E7DF",
"Xr c #C65549",
"Xt c #B60B00",
"Xy c #B60D01",
"Xu c #C65E53",
"Xi c #D6B0A8",
"Xp c #C6645A",
"Xa c #D6B2AA",
"Xs c #C6675E",
"Xd c #E7E3DB",
"Xf c #E7E4DC",
"Xg c #E7E5DD",
"Xh c #8BEB82",
"Xj c #E7E6DE",
"Xk c #E7E7DF",
"Xl c #E7E8E0",
"Xz c #C75A50",
"Xx c #B71206",
"Xc c #B71508",
"Xv c #B7160A",
"Xb c #B7180A",
"Xn c #E8DED8",
/* pixels */
"XXXXXXXXXXXXXXXXXXXXXXXXXXXXXXXXXXXXXXXXXXXXXXXXXXXXXXXXXXXXXXXXXXXXXXXXXXXXXXXXXXXXXXXXXXXXXXXXXXXXXXXXXXXXXXXXXXXXXXXXXXXXXXXX",
"XXXXXXXXXXXXXXXXXXXXXXXXXXXXXXXXXXXXXXXXXXXXXXXXXXXXXXXXXXXXXXXXXXXXXXXXXXXXXXXXXXXXXXXXXXXXXXXXXXXXXXXXXXXXXXXXXXXXXXXXXXXXXXXX",
"XXXXXXXXXXXXXXXXXXXXXXXXXXXXXXXXXXXXXXXXXXXXXXXXXXXXXXXXXXXXXXXXXXXXXXXXXXXXXXXXXXXXXXXXXXXXXXXXXXXXXXXXXXXXXXXXXXXXXXXXXXXXXXXX",
"XXXXXXXXXXXXXXXXXXXXXXXXXXXXXXXXXXXXXXXXXXXXXXXXXXXXXXXXXXXXXXXXXXXXXXXXXXXXXXXXXXXXXXXXXXXXXXXXXXXXXXXXXXXXXXXXXXXXXXXXXXXXXXXX",
"XXXXXXXXXXXXXXXXXXXXXXXXXXXXXXXXXXXXXXXXXXXXXXXXXXXXXXXXXXXXXXXXXXXXXXXXXXXXXXXXXXXXXXXXXXXXXXXXXXXXXXXXXXXXXXXXXXXXXXXXXXXXXXXX",
"XXXXXXXXXXXXXXXXXXXXXXXXXXXXXXXXXXXXXXXXXXXXXXXXXXXXXXXXXXXXXXXXXXXXXXXXXXXXXXXXXXXXXXXXXXXXXXXXXXXXXXXXXXXXXXXXXXXXXXXXXXXXXXXX",
"XXXXXXXXXXXXXXXXXXXXXXXXXXXXXXXXXXXXXXXXXXXXXXXXXXXXXXXXXXXXXXXXXXXXXXXXXXXXXXXXXXXXXXXXXXXXXXXXXXXXXXXXXXXXXXXXXXXXXXXXXXXXXXXX",
"XXXXXXXXXXXXXXXXXXXXXXXXXXXXXXXXXXXXXXXXXXXXXXXXXXXXXXXXXXXXXXXXXXXXXXXXXXXXXXXXXXXXXXXXXXXXXXXXXXXXXXXXXXXXXXXXXXXXXXXXXXXXXXXX",
"XXXXXXXXXXXXXXXXXXXXXXXXXXXXXXXXXXXXXXXXXXXXXXXXXXXXXXXXXXXXXXXXXXXXXXXXXXXXXXXXXXXXXXXXXXXXXXXXXXXXXXXXXXXXXXXXXXXXXXXXXXXXXXXX",
"XXXXXXXXXXXXXXXXXXXXXXXXXXXXXXXXXXXXXXXXXXXXXXXXXXXXXXXXXXXXXXXXXXXXXXXXXXXXXXXXXXXXXXXXXXXXXXXXXXXXXXXXXXXXXXXXXXXXXXXXXXXXXXXX",
"XXXXXXXXXXXXXXXXXXXXXXXXXXXXXXXXXXXXXXXXXXXXXXXXXXXXXXXXXXXXXXXXXXXXXXXXXXXXXXXXXXXXXXXXXXXXXXXXXXXXXXXXXXXXXXXXXXXXXXXXXXXXXXXX",
"XXXXXXXXXXXXXXXXXXXXXXXXXXXXXXXXXXXXXXXXXXXXXXXXXXXXXXXXXXXXXXXXXXXXXXXXXXXXXXXXXXXXXXXXXXXXXXXXXXXXXXXXXXXXXXXXXXXXXXXXXXXXXXXX",
"XXX+X+.|.|XXX+.|.}.|XXXXXXXXXXXXXXXXXXXXXXXXXXXXXXXXXXXXXXXXX+XX.}.|XXXXXXXXXXXXXXXXXXXXXXXXXXXXXXXXXXXXXXXXXXXXXXXXXXXXXXXXXXXX",
"Xo.}.WX9XqX+.|XqXeX<.|XXXXXXXXXXXXXXXXXXXXXXXXXXXXXXXXXXXXXX.WXOXeX8X.XXXXXXXXXXXXXXXXXXXXXXXXXXXXXXXXXXXXXXXXXXXXXXXXXXXXXXXXXX",
"X+.A r.f.8Xa >.6.6.cXg.|XXXXXXXXXXXXXXXXXXXXXXXXXXXXXXXXXXX<.yXa.@X;X6X.XXXXXXXXXXXXXXXXXXXXXXXXXXXXXXXXXXXXXXXXXXXXXXXXXXXXXXXX",
".|X4.-.OXc R W K 8 :.oX1.|XX.|.|X+XX.|XXXXXXXX.|.|X+XX.|XX.|Xg.qXt.I +.|XX.|.|X+XX.|XXXXXXXXXXX+XX.|XXXXXXXX.|.|.|XX.|.|XXXXXXXX",
".|XX O./Xb.g XXq.4X% l O.}XXX+X5X@X4X4XXXXXX.|X+X4X+X6X1.|.|X8Xa 8X& O.|XXX+X4X2X2X<XXXXXXXOXXX@X4X8X+XXXXX<X4X8X3X4X6X3XXXXXXXX",
".|XXXj.nXb.l 5.x P q.]Xj.}X+X+X; R.E.yX1.|XXX4.LXa R.Y.DXd.|X8Xi 8X& +.}X+.LXi R.R.xX1.|X@X$ W.@.f r.WXXX3 [.RX: [X;.8 U.~XXXXXX",
".|XXXk.nXx T [ C ~.@.F.|X<X4 G.I Q T.p WXdX .F lX&.cXzXs.FXOX6Xi 8X&XlXXX4 C.P Q.@ a.WX3.} T R.+Xp 0 wXkXX.2.I N T.@.4X=.AX3.|XX",
".|XXXj.BXyXu c.3.h.C.~XXX8 HXyXu 5Xa e CX6X7.[Xc j 5.q q KXjX6X: 8.B.xXg.= &Xr 5.8 N ; X U ^.i 3 tX%.YX0X,.M.N & ;.u.7 %.oXj.}XX",
".|XXXk.nXb.C 3.2.IXx (X6X5.wXt j 5 B q.i.vXj.@ u.l X > h.iXlX5 > 0.B.FXgXaXb.I r.l l -X6.A >X;.R.hXy.]X0X,.b.B q.=.2.7 & HX0.|XX",
".|XXXj.nXb.gX4Xj.]Xx.i.;Xj.wXt : 5 B q.N.HXj C u.C X - q./XlX5 U h.N.FXg - &.h.+ [X@.v.|Xg UXs.g :Xt.8X6X<.F.B 0 ;.LX=Xx ;X9.|XX",
".|Xo +.IXt : 3X8.wXy.7.+Xl -XyXu 3 >XcXrXlX8 T q.g 5 w u CXjX4 W N.B.HXg B h P U 5.{.WX4 W.i NXl }X% (X#.| XXr 8Xa XXuXy ;X9.|XX",
"XX.}.-.OX%.n.y.R ~ ^.[X4X<.vXsXu.y T.3 ;X6X4.; PX&.( t ~ >X3X5 ;Xy ~.;XX.F c &.B.f.[.oXf B e 8.l :XtXp.JX<X$.pX%.T.+ ^Xv wX8.|XX",
"X<.FX: :Xz l.g.8.g.;XfXX.|X3.F.E.Y G -Xw.|.|Xe 9 }.EXpX:X6.|X4.[Xz K U.AX1.(.f.PXr HX4Xo.F KXzXi.x K R.~X4.= lXz.[ H j T.=X<XXXX",
"XXXXX6 O @ XXfXgXjX3XXXXXXXXX+Xg.DX8Xg.|XXXX.|X7 X.DX9Xj.|XX.|Xd @ XX3X+XXXXXlX$XqXd.|XXX+ X +XfX1 XXkXXXXX< X @XfX3 XXlX+XXXXXX",
"XXXXXX.}.}.}X .|.|.|XXXXXXXXX .|X+.|.|XXXXXXXX.|.}X+XX.|XXXXXX.|.}.|XXXXXXXX.}XX.|.|XXXXXX.}.}.|X .}.|XXXXXX.|.}.|XX.}.}XXXXXXXX",
"XXXXXXXXXX.m.s.s.s.s.s.s.s.s.s.s.a.a.s.s.s.s.s.s.s.a.a.s.s.s.s.s.a.s.s.s.s.s.s.a.a.s.s.s.s.s.a.s.s.s.s.s.s.s.a.a.!XXXXXXXXXXXXXX",
"XXXXXXXX.!.1X*._._._._._._._._._._._._._._._._._._._._._._._._._._._._._._._._._._._._._._._._._._._._._._._._._Xn.KXXXXXXXXXXXX",
"XXXX.!X  n v L.d.9.9.9.9.9.9.9.9.9.9.9.9.9.9.9.9.9.9.9.9.9.9.9.9.9.9.9.9.9.9.9.9.9.9.9.9.9.9.9.9.9.9.9.9.9.0.>.d x n.KXXXXXXXXXX",
"XXXXX  Y ,.V.X.X.X.X.X.X.X.X.X.X.X.X.X.X.X.X.X.X.X.X...................X.X.X.X.X.X.X.X.X.X.X.X.X.X.X.X.X.X.X.X.X M x 7.!XXXXXXXX",
"XX.! n ,.V.X.t.<.r.r.r.r.r.r.r.r.r.r.r.r.r.r.r.r.r.r.r.r.r.r.r.r.r.r.r.r.r.r.r.r.r.r.r.r.r.r.r.r.r.r.r.r.r.r.t.t.X M xXn.!XXXXXX",
".s.1 v.V.X.<.X.X.X.X.X.X.X.X.X.X.X.X.X.X.X.X.X |.X E f d d d d d d f i A.X...X.X.X.X.X.X.X.X.X.X.X.X.X.X.X.X.X.X.t.X.Z 7.GXXXXXX",
".5X-.d.X.k.X.X.X.X.X.X.X.X.X.X.X.X.X.X.X.X.X...X ` 1 # 4 < 1 1 1 < 4 <   I.X {.X.X.X.X.X.X.X.X.X.X.X.X.X.X.X.X.X.<.< VX> *.HXXXX",
".5.'Xh.*.t.X.X.X.X.X.X.X.X.X.X.X.X.X.X.X.X.X...X _ # m.X.X.X.X.X.X.X ! . S.X {.X.X.X.X.X.X.X.X.X.X.X.X.X.X.X.X.X.%.& J.U.` *.QXX",
".5.'Xh.X.t.X.X.X.X.X.X.X.X.X.X.X.X.X.X.X.X.X...X ` $ b | {.X.. | ' k b o D.X {.X.X.X.X.X.X.X.X.X.X.X.X.X.X.X.X.X. .X.#.^.z.` F.v",
".5.'Xh.X.t.X.X.X.X.X.X.X.X.X.X.X.X.X.X.X.X.X...X ` $ b.X.. | {.X I $ S . D.X {.X.X.X.X.X.X.X.X.X.X.X.X.X.X.X.X.X.<.X V.S.z.zX,X1",
".5.'Xh.X.t.X.X.X.X.X.X.X.X.X.X.X.X.X.X.X.X.X...X ` $ b ! /.X { ! = b _   D.X {.X.X.X.X.X.X.X.X.X.X.X.X.X.X.X.X.X.<.X VX> Z.^ gX>",
".5.'Xh.X.t.X.X.X.X.X.X.X.X.X.X.X.X.X.X.X.X.X...X _ $ z k < !.X k 1 ) !   D.X {.X.X.X.X.X.X.X.X.X.X.X.X.X.X.X.X.X.<.X VX> Z.^ gX>",
".5.'Xh.X.t.X.X.X.X.X.X.X.X.X.X.X.X.X.X.X.X.X...X ` # m _ 6 < A $ E.X E   D.X {.X.X.X.X.X.X.X.X.X.X.X.X.X.X.X.X.X.<.X V.A.z.z.; F",
".5.'Xh.X.t.X.X.X.X.X.X.X.X.X.X.X.X.X.X.X.X.X...X ` $ b.X / y = z { | E . D.X {.X.X.X.X.X.X.X.X.X.X.X.X.X.X.X.X.X. .X.#.^.z.` *X+",
".5.'Xh.*.t.X.X.X.X.X.X.X.X.X.X.X.X.X.X.X.X.X...X _ # m.X.X.X '.X.X.X / . S.X {.X.X.X.X.X.X.X.X.X.X.X.X.X.X.X.X.X.$.X J.U.{ F.~X<",
".:X-.d.X.k.X.X.X.X.X.X.X.X.X.X.X.X.X.X.X.X.X...X ` 4 # 6 2 4 6 4 4 6 <   I.X {.X.X.X.X.X.X.X.X.X.X.X.X.X.X.X.X.X.<.* VX>X<.bXXX<",
".s.1 v.).*.,.X.X.X.X.X.X.X.X.X.X.X.X.X.X.X.X.X |.X E d p p i i i p s i A |...X.X.X.X.X.X.X.X.X.X.X.X.X.X.X.X.X.X.t.X.Z 7.QXXXXX<",
"XX.! n ,.V.&.k.e.e.e.e.e.e.e.e.e.e.e.e.e.e.e.t.t.e.t.t.t.t.t.t.t.t.t.t.t.t.e.t.e.e.e.e.e.e.e.e.e.e.e.e.e.e.e.j.k.X M xXn.!XXXXX<",
"XX.~X  Y ,.k.X.X.X.X.X.X.X.X.X.X.X.X.X.X.X.X.X.X.X.X.X.X.X.X.X.X.X.X.X.X.X.X.X.X.X.X.X.X.X.X.X.X.X.X.X.X.X.X.X.X M x 7.!XXXXXXX<",
"XXXX.!XX n v L.> ] ] ] ] ] ] ] ] ] ] ] ] ] ] ] ] ] ] ] ] ] ] ] ] ] ] ] ] ] ] ] ] ] ] ] ] ] ] ] ] ] ] ] ] ] ] ].0 x n.mXXXXXXXXX<",
"XXXXXXXX.!.1X*X*X*X*X*X*X*X*X*X*X*X*X*X*X*X*X*X*X*X*X*X*X*X*X*X*X*X*X*X*X*X*X*X*X*X*X*X*X*X*X*X*X*X*X*X*X*X*X*._Xn.KXXXXXXXXXXX<",
"XXXXXXXXXX.m.s.s.s.s.s.s.s.s.s.s.s.s.s.s.s.s.s.s.s.s.s.s.s.s.s.s.s.s.s.s.s.s.s.s.s.s.s.s.s.s.s.s.s.s.s.s.s.s.s.s.!XXXXXXXXXXXXX<",
"XXXXXXXXXXXXXXXXXXXXXXXXXXXXXXXXXXXXXXXXXXXXXXXXXXXXXXXXXXXXXXXXXXXXXXXXXXXXXXXXXXXXXXXXXXXXXXXXXXXXXXXXXXXXXXXXXXXXXXXXXXXXXXXX",
"XXXXXXXXXXXXXXXXXXXXXXXXXXXXXXXXXXXXXXXXXXXXXXXXXXXXXXXXXXXXXXXXXXXXXXXXXXXXXXXXXXXXXXXXXXXXXXXXXXXXXXXXXXXXXXXXXXXXXXXXXXXXXXXX",
"XXXXXXXXXXXXXXXXXXXXXXXXXXXXXXXXXXXXXXXXXXXXXXXXXXXXXXXXXXXXXXXXXXXXXXXXXXXXXXXXXXXXXXXXXXXXXXXXXXXXXXXXXXXXXXXXXXXXXXXXXXXXXXXX",
"XXXXXXXXXXXXXXXXXXXXXXXXXXXXXXXXXXXXXXXXXXXXXXXXXXXXXXXXXXXXXXXXXXXXXXXXXXXXXXXXXXXXXXXXXXXXXXXXXXXXXXXXXXXXXXXXXXXXXXXXXXXXXXXX",
"XXXXXXXXXXXXXXXXXXXXXXXXXXXXXXXXXXXXXXXXXXXXXXXXXXXXXXXXXXXXXXXXXXXXXXXXXXXXXXXXXXXXXXXXXXXXXXXXXXXXXXXXXXXXXXXXXXXXXXXXXXXXXXXX",
"XXXXXXXXXXXXXXXXXXXXXXXXXXXXXXXXXXXXXXXXXXXXXXXXXXXXXXXXXXXXXXXXXXXXXXXXXXXXXXXXXXXXXXXXXXXXXXXXXXXXXXXXXXXXXXXXXXXXXXXXXXXXXXXX",
"XXXXXXXXXXXXXXXXXXXXXXXXXXXXXXXXXXXXXXXXXXXXXXXXXXXXXXXXXXXXXXXXXXXXXXXXXXXXXXXXXXXXXXXXXXXXXXXXXXXXXXXXXXXXXXXXXXXXXXXXXXXXXXXX",
"XXXXXXXXXXXXXXXXXXXXXXXXXXXXXXXXXXXXXXXXXXXXXXXXXXXXXXXXXXXXXXXXXXXXXXXXXXXXXXXXXXXXXXXXXXXXXXXXXXXXXXXXXXXXXXXXXXXXXXXXXXXXXXXX",
"XXXXXXXXXXXXXXXXXXXXXXXXXXXXXXXXXXXXXXXXXXXXXXXXXXXXXXXXXXXXXXXXXXXXXXXXXXXXXXXXXXXXXXXXXXXXXXXXXXXXXXXXXXXXXXXXXXXXXXXXXXXXXXXX",
"XXXXXXXXXXXXXXXXXXXXXXXXXXXXXXXXXXXXXXXXXXXXXXXXXXXXXXXXXXXXXXXXXXXXXXXXXXXXXXXXXXXXXXXXXXXXXXXXXXXXXXXXXXXXXXXXXXXXXXXXXXXXXXXX",
"XXXXXXXXXXXXXXXXXXXXXXXXXXXXXXXXXXXXXXXXXXXXXXXXXXXXXXXXXXXXXXXXXXXXXXXXXXXXXXXXXXXXXXXXXXXXXXXXXXXXXXXXXXXXXXXXXXXXXXXXXXXXXXXX",
"XXXXXXXXXXXXXXXXXXXXXXXXXXXXXXXXXXXXXXXXXXXXXXXXXXXXXXXXXXXXXXXXXXXXXXXXXXXXXXXXXXXXXXXXXXXXXXXXXXXXXXXXXXXXXXXXXXXXXXXXXXXXXXXX",
"XXXXXXXXXXXXXXXXXXXXXXXXXXXXXXXXXXXXXXXXXXXXXXXXXXXXXXXXXXXXXXXXXXXXXXXXXXXXXXXXXXXXXXXXXXXXXXXXXXXXXXXXXXXXXXXXXXXXXXXXXXXXXXXX",
"XXXXXXXXXXXXXXXXXXXXXXXXXXXXXXXXXXXXXXXXXXXXXXXXXXXXXXXXXXXXXXXXXXXXXXXXXXXXXXXXXXXXXXXXXXXXXXXXXXXXXXXXXXXXXXXXXXXXXXXXXXXXXXXX",
"XXXXXXXXXXXXXXXXXXXXXXXXXXXXXXXXXXXXXXXXXXXXXXXXXXXXXXXXXXXXXXXXXXXXXXXXXXXXXXXXXXXXXXXXXXXXXXXXXXXXXXXXXXXXXXXXXXXXXXXXXXXXXXXX"
};
