/* XPM */
static const char * IconCrvArc180[] = {
/* width height ncolors chars_per_pixel */
"32 32 161 2",
/* colors */
"   c #1C100B",
" . c #CDA6B2",
" X c #D8D8D7",
" o c #3B3633",
" O c #6F6966",
" + c #170E09",
" @ c #CCB7BE",
" # c #9A6A79",
" $ c #AFACAB",
" % c #130C08",
" & c #865062",
" * c #E2DBDD",
" = c #413935",
" - c #D4BAC2",
" ; c #1D110B",
" : c #4B4542",
" > c #90425B",
" , c #DCD9DA",
" < c #93908F",
" 1 c #190F0A",
" 2 c #63323F",
" 3 c #955F70",
" 4 c #8D425B",
" 5 c #352822",
" 6 c #8B4059",
" 7 c #8A4058",
" 8 c #A7667B",
" 9 c #9C4763",
" 0 c #150D09",
" q c #A57786",
" w c #130B07",
" e c #BDBBBB",
" r c #B77E91",
" t c #433A36",
" y c #D0C2C7",
" u c #21140E",
" i c #20140D",
" p c #9A6D7B",
" a c #1F120C",
" s c #8B3752",
" d c #974761",
" f c #9E7582",
" g c #DFDADC",
" h c #C0B2B7",
" j c #DCD8D9",
" k c #3D3633",
" l c None",
" z c #1B100B",
" x c #C5879B",
" c c #1A100A",
" v c #352E2B",
" b c #251C18",
" n c #B8798E",
" m c #32251E",
" M c #97888B",
" N c #18100B",
" B c #865260",
" V c #BEBCBB",
" C c #686360",
" Z c #7D314A",
" A c #4E4743",
" S c #4D4542",
" D c #C4A2AD",
" F c #AEACAB",
" G c #855262",
" H c #1D110C",
" J c #1C110B",
" K c #C9BFC2",
" L c #6E6662",
" P c #271D19",
" I c #AA536F",
" U c #AC687E",
" Y c #D8D7D7",
" T c #8D5366",
" R c #AA7989",
" E c #180F0A",
" W c #170D09",
" Q c #A67585",
" ! c #68625F",
" ~ c #BA8092",
" ^ c #7E324A",
" / c #322620",
" ( c #A7A3A0",
" ) c #C6A3AE",
" _ c #D5B5C0",
" ` c #B0ADAC",
" ' c #D2B3BD",
" ] c #130B08",
" [ c #120B07",
" { c #271A15",
" } c #261A14",
" | c #8F5D6E",
".  c #979390",
".. c #A4A1A0",
".X c #CCC0C4",
".o c #1E120C",
".O c #BE9FA9",
".+ c #92435D",
".@ c #91435C",
".# c #C8ADB6",
".$ c #C7ADB5",
".% c #3C3633",
".& c #1A100B",
".* c #28201C",
".= c #7C3C51",
".- c #6B6561",
".; c #82334D",
".: c #966071",
".> c #B89DA6",
"., c #A9677D",
".< c #893F57",
".1 c #31251E",
".2 c #2D211A",
".3 c #B1AEAC",
".4 c #A67887",
".5 c #5A5350",
".6 c #140C08",
".7 c #130C07",
".8 c #C6B5BA",
".9 c #65615E",
".0 c #251912",
".q c #443B37",
".w c #905E6E",
".e c #999491",
".r c #B77F91",
".t c #98576C",
".y c #20130D",
".u c #1F130C",
".i c #4E4744",
".p c #823D53",
".a c #976878",
".s c #56514F",
".d c #DED9DB",
".f c #DDD9DA",
".g c #BEB1B5",
".h c #959290",
".j c #2C231F",
".k c #AE7B8B",
".l c #1A0F0A",
".z c #3D3029",
".x c #261D19",
".c c #84344E",
".v c #DAC6CD",
".b c #BA9EA7",
".n c #AA687D",
".m c #8B4058",
".M c #D7D7D7",
".N c #CBA5B1",
".B c #160D09",
".V c #895163",
".C c #150D08",
".Z c #686260",
".A c #271A13",
".S c #945F71",
".D c #23160F",
".F c #853E55",
".G c #57524F",
".H c #E0DADC",
".J c #DFDADB",
".K c #C1B2B7",
".L c #D3B9C2",
/* pixels */
" l l l l l l l l l l l l l l l l l l l l l l l l l l l l l l l l",
" l l l l l l l l l l l l `.-.q.o.3 l l l l l l l l l l l l l l l",
" l l l l l l l l l V = J H H ; J B.r.L.L l l l l l l l l l l l l",
" l l l l l l l l C c J z z 1 +.B M.4 |.V.@.N * l l l l l l l l l",
" l l l l l l.M.x c z 1 W w [ o : e l l l ,.O 4 _ l l l l l l l l",
" l l l l l Y.x.&.& E %.s l l l l l l l l l l j G x * l l l l l l",
" l l l l.M b.l c E.%.M l l l l l l l l l l l l l Q I * l l l l l",
" l l l l k 1 z 1.G l l l l l l l l l l l l l l l l p n l l l l l",
" l l l < + z c.5 l l l l l l l l l l l l l l l l l l.= ' l l l l",
" l l.M w 1 z P Y l l l l l l l l l l l l l l l l l l K d * l l l",
" l l.9.B z z ! l l l l l l l l l l l l l l l l l l l l.S . l l l",
" l l o + J t l l l l l l l l l l l l l l l l l l l l l h 9 l l l",
" l l w 1 ;.  l l l l l l l l l l l l l l l l l l l l l l Z - l l",
" l F % z H ` l l l l l l l l l l l l l l l l l l l l l l &.L l l",
" l ! ] J.o V l l l l l l l l l l l l l l l l l l l l l l.: r l l",
" l A.6   a l l l l l l l l l l l l l l l l l l l l l l l q U l l",
" l.i 0 J.u l l l l l l l l l l l l l l l l l l l l l l l.8.n l l",
" l.Z.7 ;.y l l l l l l l l l l l l l l l l l l l l l l l 3.n l l",
" l $ [ z i.3 l l l l l l l l l l l l l l l l l l l l l l.w ) l l",
" l Y ].l.y L l l l l l l l l l l l l l l l l l l l l l l.p @ l l",
" l l k.B.o u l l l l l l l l l l l l l l l l l l l l l.X > l l l",
" l l.h.7 z.0 ( l l l l l l l l l l l l l l l l l l l l R.k l l l",
" l l l N.B }.A X l l l l l l l l l l l l l l l l l l y.m g l l l",
" l l l.. ].l.2.1 Y l l l l l l l l l l l l l l l l.f.<.$ l l l l",
" l l l l S.6.& 5 m X l l l l l l l l l l l l l l.f.p # l l l l l",
" l l l l Y.* % z.z.D.e l l l l l l l l l l l l.J.F.a l l l l l l",
" l l l l l Y.j w.l { / l l l l l l l l l l l.# 6.b l l l l l l l",
" l l l l l l l O 0.C 2 ~.v l l l l l l.H D.t T.d l l l l l l l l",
" l l l l l l l l Y v l.> 7.; s., 8.+.c ^ f.f l l l l l l l l l l",
" l l l l l l l l l l l l l l j.g.K K l l l l l l l l l l l l l l",
" l l l l l l l l l l l l l l l l l l l l l l l l l l l l l l l l",
" l l l l l l l l l l l l l l l l l l l l l l l l l l l l l l l l"
};
