/* XPM */
static const char * IconTransRotateXY[] = {
/* width height ncolors chars_per_pixel */
"32 32 247 2",
/* colors */
"   c #2D27AA",
" . c #1E9A97",
" X c #AC230E",
" o c #D8E1E1",
" O c #22147E",
" + c #549694",
" @ c #156260",
" # c #AFABC6",
" $ c #1F694C",
" % c #282487",
" & c #234099",
" * c #22AFAB",
" = c #1D8378",
" - c #80190A",
" ; c #1D0C90",
" : c #9E200D",
" > c #1B0B84",
" , c #1A0B83",
" < c #6A1508",
" 1 c #1A8482",
" 2 c #1C4721",
" 3 c #1B8179",
" 4 c #19227B",
" 5 c #1D9592",
" 6 c #146865",
" 7 c #1B0B87",
" 8 c #D7DCDC",
" 9 c #13085E",
" 0 c #B7CECD",
" q c #164D71",
" w c #CBDBDA",
" e c #190A7B",
" r c #9590B9",
" t c #180A7A",
" y c #901D0C",
" u c #125B59",
" i c #16096E",
" p c #241D7F",
" a c #140C62",
" s c #29A7A4",
" d c #21AAA6",
" f c #1C0B8B",
" g c #130861",
" h c #1B8C89",
" j c #9690BD",
" k c #110755",
" l c #1F9D9A",
" z c #170972",
" x c #811A0A",
" c c #15574B",
" v c #1A6C5D",
" b c #140865",
" n c #1B3E86",
" m c #AFACC8",
" M c #E0D8D7",
" N c #120759",
" B c #167270",
" V c #611308",
" C c #1B5F7F",
" Z c #180976",
" A c #1F8A7C",
" S c #170975",
" D c #4D634D",
" F c #6E220E",
" G c #150869",
" H c #202B6D",
" J c #175446",
" K c #1D9491",
" L c #146764",
" P c #4C438B",
" I c #50449C",
" U c #531007",
" Y c #98CCCB",
" T c #1E9895",
" R c #521006",
" E c #146967",
" W c #187A78",
" Q c #D8D7DF",
" ! c #187478",
" ~ c #79B3B3",
" ^ c #219FA5",
" / c #220EA7",
" ( c #184E36",
" ) c #1B8B88",
" _ c #651408",
" ` c #174C35",
" ' c None",
" ] c #241295",
" [ c #1D4C27",
" { c #1F9899",
" } c #1E491E",
" | c #22ADA9",
".  c #1E471E",
".. c #197E7C",
".X c #3B6876",
".o c #A0200D",
".O c #6E2E17",
".+ c #183918",
".@ c #177370",
".# c #1E8A84",
".$ c #B12B17",
".% c #1FA09C",
".& c #16716F",
".* c #163516",
".= c #8A1C0B",
".- c #153315",
".; c #94B6B6",
".: c #19827F",
".> c #A9C5C4",
"., c #1F9992",
".< c #1D9390",
".1 c #1A0B84",
".2 c #21A4A1",
".3 c #181678",
".4 c #2F3214",
".5 c #177573",
".6 c #180A78",
".7 c #40918E",
".8 c #531106",
".9 c #16096C",
".0 c #D5B2AD",
".q c #2F3817",
".w c #120F54",
".e c #C5C8C8",
".r c #190A7C",
".t c #1B8A87",
".y c #100752",
".u c #211766",
".i c #B6C0CD",
".p c #26807E",
".a c #831A0A",
".s c #1E5D3E",
".d c #1F6F56",
".f c #1E7380",
".g c #2B8E86",
".h c #35B7B4",
".j c #6E1609",
".k c #1C8E8B",
".l c #230FAA",
".z c #1F684C",
".x c #120757",
".c c #2412A1",
".v c #3D5842",
".b c #182F77",
".n c #1E8679",
".m c #39BFBB",
".M c #A9220E",
".N c #B2AECC",
".B c #1A1283",
".V c #1C908E",
".C c #20A39F",
".Z c #873A2B",
".A c #931E0C",
".S c #7A2911",
".D c #BD503F",
".F c #50449A",
".G c #1E9693",
".H c #133B61",
".J c #426999",
".K c #187876",
".L c #20A5A2",
".P c #100651",
".I c #1E4E26",
".U c #31695D",
".Y c #154631",
".T c #166D6A",
".R c #AF2510",
".E c #156B69",
".W c #511006",
".Q c #24167F",
".! c #29908D",
".~ c #21A9A6",
".^ c #1C8D8A",
"./ c #8C1C0B",
".( c #166F6D",
".) c #1E9C99",
"._ c #591107",
".` c #23AFAB",
".' c #59AEB2",
".] c #19807D",
".[ c #BAA29E",
".{ c #1C8F8D",
".} c #298986",
".| c #177371",
"X  c #45ABA8",
"X. c #4E664E",
"XX c #4D644D",
"Xo c #4B604B",
"XO c #153B2D",
"X+ c #20948A",
"X@ c #21A6A2",
"X# c #177774",
"X$ c #1A786D",
"X% c #1B8885",
"X& c #154A65",
"X* c #5D1207",
"X= c #162159",
"X- c #531107",
"X; c #16096D",
"X: c #645B9F",
"X> c #7B190A",
"X, c #1C4123",
"X< c #303A19",
"X1 c #1C0B8A",
"X2 c #140861",
"X3 c #21A8A5",
"X4 c #187B78",
"X5 c #1B0B89",
"X6 c #701609",
"X7 c #145F5D",
"X8 c #190A7D",
"X9 c #125D5B",
"X0 c #170971",
"Xq c #1D118E",
"Xw c #1D441D",
"Xe c #140864",
"Xr c #B2AECA",
"Xt c #247D9E",
"Xy c #1C8E8C",
"Xu c #1A0A81",
"Xi c #A2BABA",
"Xp c #951E0C",
"Xa c #173817",
"Xs c #1F9F9C",
"Xd c #170974",
"Xf c #1A8380",
"Xg c #22B0AC",
"Xh c #150868",
"Xj c #146563",
"Xk c #13075C",
"Xl c #6B160A",
"Xz c #12075B",
"Xx c #20A3A0",
"Xc c #1F1F96",
"Xv c #15086B",
"Xb c #5F5643",
"Xn c #1D9693",
"Xm c #BFCDD6",
"XM c #B1ACCF",
"XN c #73190B",
"XB c #D8DFDE",
"XV c #872C18",
"XC c #21A7A4",
"XZ c #2E8B86",
"XA c #13075F",
"XS c #D8D7DE",
"XD c #23706E",
/* pixels */
" ' ' ' ' ' ' ' ' ' ' ' ' ' 'XX.-Xw } ' ' ' ' ' ' ' ' ' ' ' ' ' '",
" ' ' ' ' ' ' ' ' ' ' ' ' ' ' D.-Xw } ' ' ' ' ' ' ' ' ' ' ' ' ' '",
" ' ' ' ' ' ' ' ' ' ' ' ' ' ' D.-Xw } 'XS # r.F jXS ' ' ' ' ' ' '",
" ' ' ' ' ' ' ' ' ' ' ' ' 8.;.g.,.z }.' %.r.r.r.r j ' ' ' ' ' ' '",
" ' ' ' ' ' ' ' ' ' ' ' 0.p.LXg |X3 A d ^ n.r.r.r.F ' ' ' ' ' ' '",
" ' ' ' ' ' ' ' ' ' 'Xi.:X3 *.L h v }.: 5.L.B.r.r I ' ' ' ' ' ' '",
" ' ' ' ' ' ' ' ' ' 8.(.C.`.%.T.YXw } @ E.b.r e t I ' ' ' ' ' ' '",
" ' ' ' m j.NXMXM.i +.V.mX@ 1 `.*Xw } 4.r.rX0X; t I ' ' ' ' ' ' '",
" ' ' Q.Q.Q.Q /.lXc.@ s.mXy . (.*Xw } S G.y NXh t j ' ' ' ' ' ' '",
" ' '.N.Q.Q.Q.Q.l q 1.h.2Xf...Y.*Xw }.BX0Xk.P g C s Y ' ' ' ' ' '",
" ' 'Xr.Q.Q.Q.Q ]X7.t.hXy.X.;.v.*Xw }.>.J eXk.H.& hXx.' ' ' ' ' '",
" ' ' ' O p.. { p 6.VX3X  '.e.Z F.S.S.0 'XmX&.KX7 6.kXC Y ' ' ' '",
" ' ' 'X: q.) * q B TXsXm.[ <.a.A.o.M X.D 'XD.EX%Xj.TXn d w ' ' '",
" ' ' '.>.5.2Xg ! B K l '.8.j x y :.$.R X.0.7Xj ).^X9 ).~ Y ' ' '",
".  } } }.s.s } (.(.<.,X<X- <X>.=Xp.D.$.M.O } } } } }.I.d } } } }",
"XwXwXw 2.]X3 [ c.| K.n.q.W VX6 x./Xp :.o.SXwXwX,.wX= c.% $XwXwXw",
".-.-.- J.:.C.# c.(.k 3.4X* U _X6 -.= y.A F.-.-.wX;.r.B ^.2.-.-.-",
"X.XXXXXD 6 5 d 6.E.{.gXb.j.8._ _X6X> -.a.O.vXO g e >X5Xq {XXXXXX",
" ' ' ' 0 u W TX# L.tX  MXVXl.8 R V _.j.j.[.; 9.6.1X1 fX1.J ' ' '",
" ' ' ' '.!X9X4 WX7Xf . o MXVXNX*.W UX-.[ '.X S ,X1 fX1 7 ,.i ' '",
" ' ' ' ' o.} @X# u.KXn.' o 'Xb.4.qX< ' '.;.3.1X1X1 7 ,X8 t m ' '",
" ' ' ' ' ' o.! @.H.b & 5.)X .g =.n.n.'.).2XtX1 7Xu e Z z iX: ' '",
" ' ' ' ' ' ' o ~ H b.b B..X%.k.<.G . . . T.f eXd iXhXe 9Xz P ' '",
" ' ' ' ' ' ' ' '.u 9.r.H uX9 L.(.|X#X#.| E @.H aX2 9 9XAXA # ' '",
" ' ' ' ' ' ' ' ' G kX0X1Xc  Xc qX& cXZ.kX3.~.tXB ' ' ' ' Q ' ' '",
" ' ' ' ' ' ' ' 'Xv k bX8 ;.c  .l H } |XgXC.<Xi ' ' ' ' ' ' ' ' '",
" ' ' ' ' ' ' ' '.9.P gXd > ;.c &X+ $XCXs.^.> ' ' ' ' ' ' ' ' ' '",
" ' ' ' ' ' ' ' Q.9.yXz.9X8 f 4.KX$.IX4XDXi ' ' ' ' ' ' ' ' ' ' '",
" ' ' ' ' ' ' ' ' i.y.xXh.Q.i.UXOXw } 0 ' ' ' ' ' ' ' ' ' ' ' ' '",
" ' ' ' ' ' ' ' ' ' #.i ' ' 'Xo.+Xw } ' ' ' ' ' ' ' ' ' ' ' ' ' '",
" ' ' ' ' ' ' ' ' ' ' ' ' ' 'Xo.+Xw } ' ' ' ' ' ' ' ' ' ' ' ' ' '",
" ' ' ' ' ' ' ' ' ' ' ' ' ' ' DXaXw.  ' ' ' ' ' ' ' ' ' ' ' ' ' '"
};
