/* XPM */
static const char * IconObjList[] = {
/* width height ncolors chars_per_pixel */
"32 32 251 2",
/* colors */
"   c #ADADAD",
" . c #ADDBDB",
" X c #9AC59A",
" o c #98C198",
" O c #A9D7D7",
" + c #96BF96",
" @ c #B48DB4",
" # c #B18BB1",
" $ c #91B991",
" % c #AE89AE",
" & c #90B790",
" * c #AC87AC",
" = c #8EB58E",
" - c #9B9B9B",
" ; c #8BB18B",
" : c #A783A7",
" > c #89AF89",
" , c #89AD89",
" < c #A481A4",
" 1 c #87AD87",
" 2 c #A27FA2",
" 3 c #86AB86",
" 4 c #939393",
" 5 c #85A985",
" 6 c #9F7D9F",
" 7 c #9E7D9E",
" 8 c #919191",
" 9 c #82A782",
" 0 c #9D7B9D",
" q c #82A582",
" w c #9A799A",
" e c #80A380",
" r c #987798",
" t c #7EA17E",
" y c #7E9F7E",
" u c #7D9F7D",
" i c #947594",
" p c #7B9D7B",
" a c #7B9B7B",
" s c #171919",
" d c #8AAEAE",
" f c #8B6D8B",
" g c #9AC4C4",
" h c #343F3F",
" j c #98C2C2",
" k c #647D64",
" l c #627B62",
" z c #A3D0D0",
" x c #3D4B4B",
" c c #A1CECE",
" v c #B0E0E0",
" b c #3B4949",
" n c #636363",
" m c #675367",
" M c #576D57",
" N c #535353",
" B c #485948",
" V c #4B4B4B",
" C c #474747",
" Z c #4B3D4B",
" A c #483B48",
" S c #3D4B3D",
" D c #463946",
" F c #7EA1A1",
" G c #8BB1B1",
" H c #3B3B3B",
" J c #89AFAF",
" K c #98C1C1",
" L c #393939",
" P c #96BFBF",
" I c #3B313B",
" U c #333D33",
" Y c #94BDBD",
" T c #A3CFCF",
" R c #392F39",
" E c None",
" W c #A1CDCD",
" Q c #333333",
" ! c #3B4848",
" ~ c #9FCBCB",
" ^ c #2C352C",
" / c #CDFECD",
" ( c #302930",
" ) c #AAD9D9",
" _ c #2F272F",
" ` c #F0BCF0",
" ' c #EFBCEF",
" ] c #C8FAC8",
" [ c #C6FCC6",
" { c #C5FCC5",
" } c #EDBAED",
" | c #C4FAC4",
".  c #EAB8EA",
".. c #212121",
".X c #BEF2BE",
".o c #221D22",
".O c #E4B2E4",
".+ c #E3B2E3",
".@ c #BCF0BC",
".# c #1D1F1D",
".$ c #1D1D1D",
".% c #E0B0E0",
".& c #B9ECB9",
".* c #1C191C",
".= c #708C8C",
".- c #181B18",
".; c #DBACDB",
".: c #B6E8B6",
".> c #D9AAD9",
"., c #B4E6B4",
".< c #131313",
".1 c #D5A8D5",
".2 c #B1E2B1",
".3 c #D4A6D4",
".4 c #B0E0B0",
".5 c #111111",
".6 c #0F0F0F",
".7 c #ADDCAD",
".8 c #0D0D0D",
".9 c #ABDAAB",
".0 c #BCBCBC",
".q c #1A1D1D",
".w c #CCA0CC",
".e c #CBA0CB",
".r c #181B1B",
".t c #A8D6A8",
".y c #CA9ECA",
".u c #C99EC9",
".i c #7C9E9E",
".p c #A6D4A6",
".a c #A5D2A5",
".s c #89AEAE",
".d c #A1CEA1",
".f c #A0CCA0",
".g c #9ECA9E",
".h c #AEAEAE",
".j c #9DC89D",
".k c #9CC69C",
".l c #9DC8C8",
".z c #9AC49A",
".x c #AAD8D8",
".c c #96C096",
".v c #96BE96",
".b c #B28CB2",
".n c #94BC94",
".m c #92BA92",
".M c #91B891",
".N c #8DB48D",
".B c #8AB08A",
".V c #89AE89",
".C c #87AC87",
".Z c #A07EA0",
".A c #81A481",
".S c #987898",
".D c #7C9E7C",
".F c #1B1E1D",
".G c #7A9C7A",
".H c #789878",
".J c #887A88",
".K c #7C9D9D",
".L c #85A9A9",
".P c #866A86",
".I c #6C886C",
".U c #8CB3B3",
".Y c #727272",
".T c #99C3C3",
".R c #97C1C1",
".E c #A2CFCF",
".W c #5D765D",
".Q c #666666",
".! c #646464",
".~ c #6C566C",
".^ c #626262",
"./ c #506464",
".( c #536853",
".) c #4B5E4B",
"._ c #495A49",
".` c #4A4A4A",
".' c #8EB4B4",
".] c #7DA0A0",
".[ c #394639",
".{ c #8CB2B2",
".} c #E6FDE6",
".| c #3C3C3C",
"X  c #374437",
"X. c #8AB0B0",
"XX c #99C2C2",
"Xo c #3A3A3A",
"XO c #364036",
"X+ c #97C0C0",
"X@ c #313B3B",
"X# c #383838",
"X$ c #2F3939",
"X% c #3A303A",
"X& c #313A31",
"X* c #382E38",
"X= c #3C4949",
"X- c #A0CCCC",
"X; c #ABDADA",
"X: c #A9D8D8",
"X> c #F1BDF1",
"X, c #DDDDDD",
"X< c #C8FFC8",
"X1 c #283028",
"X2 c #C6FDC6",
"X3 c #2C262C",
"X4 c #B6E8E8",
"X5 c #ECB9EC",
"X6 c #D7D7D7",
"X7 c #C2F7C2",
"X8 c #E9B7E9",
"X9 c #C1F7C1",
"X0 c #C0F5C0",
"Xq c #E6B5E6",
"Xw c #BEF1BE",
"Xe c #202020",
"Xr c #BDF1BD",
"Xt c #1E1E1E",
"Xy c #BAEDBA",
"Xu c #E0AFE0",
"Xi c #1C1C1C",
"Xp c #DFAFDF",
"Xa c #B9EBB9",
"Xs c #B8EBB8",
"Xd c #191C19",
"Xf c #DBADDB",
"Xg c #B5E7B5",
"Xh c #B2E3B2",
"Xj c #B1E1B1",
"Xk c #121212",
"Xl c #D4A7D4",
"Xz c #B0E1B0",
"Xx c #101010",
"Xc c #749393",
"Xv c #ADDDAD",
"Xb c #0E0E0E",
"Xn c #CFA3CF",
"Xm c #BDBDBD",
"XM c #CDA1CD",
"XN c #AAD9AA",
"XB c #BBBBBB",
"XV c #A9D7A9",
"XC c #CB9FCB",
"XZ c #A8D7A8",
"XA c #CA9FCA",
"XS c #C99DC9",
"XD c #C89DC8",
"XF c #C49BC4",
"XG c #A3CFA3",
"XH c #A2CFA2",
"XJ c #C399C3",
/* pixels */
" E E E E E E E E E E E E E E E E E E E E E E E E E E E E E E E E",
" E E E E E E E E E E E E E E E E E E E E E E E E E   8 C n   E E",
" E E E E E E E E E E E E E E E E E E E E E E E.0XiXbX$./ xXb QX,",
" E E E E E E E E E E E E E E E E E E E E E E EXe.=X4X4X4X4X;./..",
" E E E E E E E E E E E E E E E E E E E E E E EXk d )X4X4X4X4 v.8",
" E E E E E E E E E E E E E E E E E E E E E E EXk.l.lX; . v ) ).8",
" E E E E E E E E E E E E E E E E E E E E E E EXk K.L F.' g z.xXb",
" E E E E E E E E E E E E E E E E E E E E E E E.< K.L F.U.T z ).8",
" E E E E E E E E E E E E E E E E E E E E E E E.< K.L.].{.T T )Xb",
" E E E E E E E E E E E E E E E E E E.Y.J.Y E E.< j.L.].{ j.E )Xb",
" E E E E E E E E E E E E E E E E E E.. @Xi E E.<.'.K.] G K c.xXb",
" E E E E E E E E E E E E E E E E EXm RXM m 8 EXk.r b.] G.R c.xXb",
" E E E E E E E E E E E E E E E E E.`.PXMXuXi.^.6Xx sXcX.X+ W.xXb",
" E E E E E E E E E E E E E E E EX6.* <XCX5X%XxXx !.i.]X. P WX:Xb",
" E E E E E E E E E E E E E E E E 4.~ <.eXqXFXbXkXX.L.] J PX-X:.8",
" E E E E E E.0    .0 E E E E E EXe 7.Z.w.O ` A.5XX.L.] J PX- O.r",
" E E EX6.^.8.-XO.[XdXt 4 E E E.0.*Xb.P.yXp }XJ.6.=.L.].s Y ~X..8",
" E E.0.$.[ qXVXh.&Xr.2.# NX,X6.$XxXxX%.uXf. X>X*.<.qX=X@ hX$.F -",
" EX6Xt M +XH.7Xg.@X7 {Xy._ Q.<XxXx m #XS.;X8 `XJ.6 4 V.`.` 4X6 E",
" EXo U.V oXG.7Xg.@X7 [X< { BXi ( r 2 @XA.>Xq ' `X* 4 E E E E E E",
".0.5.D.C.v.f.9XhXa ] /X2X2.:.F w 6 : @.y.1.+X5X>.bXt E E E E E E",
".! U t 5 $.j.pXv.:.}.} | |X9 S Z 0 : @XDXl.%.  `XF.8 E E E E E E",
" H l e e = o.fXZ.4XaXw.XX0.X ,.o f 7 *XD.3Xn.> m I N E E E E E E",
"Xk u 1.D.C.m.zXHXV.4.,XsXyXs.p.6 ( _ D % i.S IX3 LX6 E E E E E E",
".| a.N u.A ;.m.k.d.tXvXjXjXzXNX# 4 V.|Xk...`.!.0 E E E E E E E E",
" V.I.n.).D 9 >.m o.f.a.tXV.p.H.^ E E E E E E E E E E E E E E E E",
".hX&.-Xx.W.G.A.V &.c X.j.g.kX1XB E E E E E E E E E E E E E E E E",
" E H.5Xe.I 9 p t 5 ; =.M $ kX# E E E E E E E E E E E E E E E E E",
" EX6Xe.HXa + > e p.D e e.(XbX6 E E E E E E E E E E E E E E E E E",
" E EXm..XO y.z.M.B 3.IX1XtX6 E E E E E E E E E E E E E E E E E E",
" E E EX6.Q.<X&.[X  ^Xe.! E E E E E E E E E E E E E E E E E E E E",
" E E E E E EXm.h.h.h E E E E E E E E E E E E E E E E E E E E E E"
};
