/* XPM */
static const char * IconSubdivSrfs[] = {
/* width height ncolors chars_per_pixel */
"32 32 143 2",
/* colors */
"   c #AB010A",
" . c #C22831",
" X c #327976",
" o c #BF3E45",
" O c #960109",
" + c #D3010D",
" @ c #D2010C",
" # c #D78C91",
" $ c #DDB9BB",
" % c #A8010A",
" & c #930109",
" * c #B10D16",
" = c #CF010C",
" - c #A01119",
" ; c #6E1F23",
" : c #A5010A",
" > c #495354",
" , c #D9DEDE",
" < c #75A1A0",
" 1 c #900109",
" 2 c #316967",
" 3 c #C45B60",
" 4 c #455353",
" 5 c #C0CFCF",
" 6 c #E3D6D7",
" 7 c #C9010C",
" 8 c #9F010A",
" 9 c #DB010D",
" 0 c #E0D6D7",
" q c #890108",
" w c #D35B61",
" e c #AE171F",
" r c #CB0914",
" t c #9B0109",
" y c #860108",
" u c #AD010A",
" i c #515354",
" p c #980109",
" a c #D5010D",
" s c #881F24",
" d c #AC3E44",
" f c #830108",
" g c #DFB9BB",
" h c #C6141F",
" j c None",
" k c #AA010A",
" l c #6A4548",
" z c #950109",
" x c #D2010D",
" c c #A6BFBE",
" v c #D1010C",
" b c #D82E37",
" n c #912D33",
" m c #C9111B",
" M c #A7010A",
" N c #3D5B5A",
" B c #A5171F",
" V c #CE010C",
" C c #CCA9AB",
" Z c #A4010A",
" A c #8F0109",
" S c #E5D6D7",
" D c #CB010C",
" F c #719F9D",
" G c #BA050F",
" H c #98252C",
" J c #D6B9BB",
" K c #A1010A",
" L c #DD010D",
" P c #A8C0BF",
" I c #E2D6D7",
" U c #58908E",
" Y c #C8010C",
" T c #B7050F",
" R c #D3B9BB",
" E c #D99CA0",
" W c #D89C9F",
" Q c #722D31",
" ! c #9E010A",
" ~ c #D19498",
" ^ c #880108",
" / c #B3C7C6",
" ( c #B0010B",
" ) c #639795",
" _ c #D7010D",
" ` c #91020A",
" ' c #BD0611",
" ] c #5A4547",
" [ c #850108",
" { c #C6141D",
" } c #9AB8B7",
" | c #C58C8F",
".  c #AC010A",
".. c #970109",
".X c #D4010D",
".o c #D3010C",
".O c #9E2E34",
".+ c #8E020A",
".@ c #E3D7D7",
".# c #D98E92",
".$ c #B90610",
".% c #820108",
".& c #BE010B",
".* c #940109",
".= c #BB010B",
".- c #CB5D63",
".; c #DBB9BB",
".: c #C1141E",
".> c #A6010A",
"., c #E0A9AC",
".< c #6D7273",
".1 c #910109",
".2 c #CD010C",
".3 c #25716E",
".4 c #504546",
".5 c #B8010B",
".6 c #DE9CA0",
".7 c #A3010A",
".8 c #941F26",
".9 c #475354",
".0 c #A6121A",
".q c #8E0109",
".w c #CA010C",
".e c #97252C",
".r c #5F4547",
".t c #8A0108",
".y c #9E3E43",
".u c #2C6967",
".i c #CB8C90",
".p c #A21F26",
".a c #9E030B",
".s c #9C0109",
".d c #D9010D",
".f c #D7A9AC",
".g c #870108",
".h c #C4010C",
".j c #A10911",
".k c #91252C",
".l c #4B8885",
".z c #990109",
".x c #D6010D",
".c c #BC0611",
".v c #840108",
/* pixels */
" j j j j j j j j j j j , }.l } , j j j j j j j j j j j j j j j j",
" j j j j j j j j j j , X.3.3.3.3 X F 5 j j j j j j j j j j j j j",
" j j j j j j j j j 5 X.3.3.3 / U.3.3.3.3 U / j j j j j j j j j j",
" j j j j j j j j P.3.3 }.3.3 j j j 5 F.l.3.3.3.l } , j j j j j j",
" j j j j j j j }.3.3 P j.3.3 j j j j j j j / U X.3.3 X F 5 j j j",
" j j j j j j ).3 X 5 j j.3.3 j j j j j j j j j j 5 }.l.3.3.3 j j",
" j j j j , ).3 X , j j j.3.3 j j j j.;., W j j j j j j P.3.3 / j",
" j j j , X.3 ) , j j.f.f > > 3 o m.o L L L.6 j j j j }.3.3.3 / j",
" j j 5 X.3 ) j j j 0. . . .    u x @ _ 9 L L E j j ).3 X c.3 / j",
" j j U.3.3.3 U / ,.i  . .  k.>.2 _ = = @.x.d 9 ~ ).3 ) j /.3 / j",
" j j U.3.l X.3.3.3 N ] s M.> ( _ _ v = = v a r 2.3 ) j j /.3 / j",
" j j U.3 / j 5 }.l.3.3.3.3.9 n r _ a = = = e 2.3.< j j j /.3 / j",
" j j U.3 / j j j | A ;.4.u.3.3.3 2 l.p = H.3.3.e a S j j /.3 / j",
" j j U.3 / j j j -.v ^ ^ ^.j Q i.3.3.3.3.3.3.k D + w j j /.3 / j",
" j j U.3 / j j $.%.% ^ ^.t.7.7.7 M.8.r.3.3 B.h 7.X a g j /.3 / j",
" j j U.3 / j j.O.%.% y ^.s.7.7.7.7 Z.5.3.3.h.h.h x a S j /.3 / j",
" j j U.3 / j $.%.%.%.v ^.s.7.7.7 Z :.&.3.3 Y.h.h x b j j /.3 / j",
" j j U.3 / j.-.+.%.% f ^ 8.7.7 : : :.=.3.3 V V.w 7 # j j /.3 / j",
" j j U.3 / j.@ h.$.+.% ^.s.7 : : : : %.3.3 V V.w.7 j j j /.3 / j",
" j j U.3 / j j.# ' '.$ ` ! : : : : : %.3.3.w.7.* d j j j /.3 / j",
" j j U.3 / j j j . '.c T.g z.z.z t K Z.3.3 A.1 O 4 U } , /.3 / j",
" j j U.3 / j , X 2 * G G ^.v.q z z z z.3.3 & O.. X.3.3.3.3.3 / j",
" j j U.3 / , X.3 ) 6 { G ^.v.v q z z z.3.3 O O d j , } U.3.3 / j",
" j j U.3 <.3.3 ) j j 6.:.a.v.v.v [ 1.*.3.3 O p J j j j ).3 ) j j",
" j j U.3.3.3 } j j j j S.0.v.g.y.y C R.3.3 j j j j , X.3 ) j j j",
" j j U.3.3 < j j j j j j I j j j j j j.3.3 j j j , X.3 P j j j j",
" j j j.l.3.3.3 U } , j j j j j j j j j.3.3 j j P.3.3 P j j j j j",
" j j j j / F X.3.3.3 X U / j j j j j j.3.3 j P.3 X , j j j j j j",
" j j j j j j j , } U.3.3.3.3.l } 5 j j.3.3 ).3 X , j j j j j j j",
" j j j j j j j j j j j 5 F.l.3.3.3 X U.3.3.3 ) j j j j j j j j j",
" j j j j j j j j j j j j j j , / U.3.3.3.3 ) j j j j j j j j j j",
" j j j j j j j j j j j j j j j j j j 5 } 5 j j j j j j j j j j j"
};
