/* XPM */
static const char * IconGenSelectCameraView[] = {
/* width height ncolors chars_per_pixel */
"32 32 60 1",
/* colors */
"  c #7D9BCD",
". c #333D35",
"X c #3E5264",
"o c #5F6660",
"O c #537054",
"+ c #FFDCDC",
"@ c #505851",
"# c #172319",
"$ c #466047",
"% c #434C44",
"& c #3B523C",
"* c #CFB5B3",
"= c #69625C",
"- c #2E422F",
"; c #4F6681",
": c #3C4643",
"> c #2E4049",
", c #8D807B",
"< c #A2D1A3",
"1 c None",
"2 c #95C196",
"3 c #8AB38B",
"4 c #576F8E",
"5 c #6B7A87",
"6 c #7DA37E",
"7 c #364956",
"8 c #7B817C",
"9 c #658566",
"0 c #203222",
"q c #9E8E8A",
"w c #383B33",
"e c #DFE1E4",
"r c #8294AD",
"t c #152417",
"y c #475D73",
"u c #99AFD4",
"i c #08140A",
"p c #324733",
"a c #CAD2DF",
"s c #5A5750",
"d c #BDC9DC",
"f c #465C71",
"g c #5E7799",
"h c #7592C0",
"j c #1F2E30",
"k c #EECECD",
"l c #494942",
"z c #ABAEAC",
"x c #6681A7",
"c c #C8FFC8",
"v c #101D17",
"b c #9EA5A9",
"n c #D7D7D7",
"m c #27383E",
"M c #3F5366",
"N c #BEA7A4",
"B c #BBEFBB",
"V c #192219",
"C c #8F9490",
"Z c #BBBDBB",
/* pixels */
"111111111111111Zii$cc<6&..i@n111",
"11111111nC%n111#iiBcccc$iiiiin11",
"1111111n#iiiozoii$cccc6iiiiii#11",
"111111nii-Bc<6&ii-6BcBiii3c-iiZ1",
"111111.ii6ccccBiiiiiBOii-cc<iiC1",
"11111ziiiBcccBtiiiii&tiiBcccii%1",
"11111oii6cccc$ii$Biipii-ccccii%1",
"11111#iicccc<iiiccOiiii6ccccii%1",
"1111niiicccc&iiOcc2iiii<cccc0io1",
"1111zii&cccciii<cc<iiiicccc<iiz1",
"1111zii&cccciitccc<iiiicccc6i#11",
"1111ziiOccccii&ccc6iiii<ccBtiC11",
"1111nii&ccccii&ccc-iiii-cO$i#111",
"11111@iit&6BiitBc6iiiiiiiiii%111",
"111111@iiiiiiii-9iiVlliiiiii%111",
"1111111nzziiiiiiiiVk++*qlswi%111",
"1Zzzn11111iiNqiiiwk+++++++li%111",
"1biiii#%%ziiNNiik+++++++++=i%111",
"15viMymmviii,,ii++++++++++Ni%111",
"1u hggmfXghyiiii++++++++++Ni%111",
"1u        iiiiii++++++++++Ni%111",
"1u        ivggji++++++++++Ni%111",
"1u        im  mi++++++++qwii%111",
"1u      4vim  mi+++++k=Vii#C1111",
"1u    hjiii7  mik++*liii#C111111",
"1u  h7iiiv4   vi**wiii#C11111111",
"1u ;viii>h   giiwiii#C1111111111",
"1rjiiivx     jiiii#C111111111111",
"Ziiii7      hiii#C11111111111111",
"1oijx      X7i.z1111111111111111",
"118nadu   xjiiZ11111111111111111",
"11111111ear:i.111111111111111111"
};
