/* XPM */
static const char * IconTVRegion[] = {
/* width height ncolors chars_per_pixel */
"32 32 241 2",
/* colors */
"   c #091C0C",
" . c #2E6930",
" X c #87094D",
" o c #051408",
" O c #AB0760",
" + c #AA075F",
" @ c #041207",
" # c #031006",
" $ c #030E06",
" % c #020C05",
" & c #275B29",
" * c #4CA84D",
" = c #245526",
" - c #48A049",
" ; c #214F23",
" : c #380F23",
" > c #459846",
" , c #A5075D",
" < c #1C431E",
" 1 c #7E0747",
" 2 c #221017",
" 3 c #5B5E5C",
" 4 c #64D964",
" 5 c #3A823B",
" 6 c #0B0D0A",
" 7 c #387C39",
" 8 c #367837",
" 9 c #102912",
" 0 c #780744",
" q c #9D0758",
" w c #59C159",
" e c #58BF58",
" r c #0C1F0E",
" t c #57BD57",
" y c #56BB56",
" u c #306C31",
" i c #0A1D0C",
" p c #55B955",
" a c #363234",
" s c #54B754",
" d c #53B553",
" f c #071509",
" g c #D30876",
" h c #D20875",
" j c #51B151",
" k c #3B0222",
" l c #3E423F",
" z c #2B602C",
" x c #051107",
" c c #040F06",
" v c #4FAD4F",
" b c #4FAB4F",
" n c #030D05",
" m c #4EAB4E",
" M c #030B05",
" N c #364437",
" B c #020B04",
" V c #020904",
" C c #4DA74D",
" Z c #010703",
" A c #4CA54C",
" S c #4BA34B",
" D c #4AA14A",
" F c #499F49",
" G c #489D48",
" H c #479B47",
" J c #469946",
" K c #2E322F",
" L c #459745",
" P c #1F4820",
" I c #449544",
" U c #CC0872",
" Y c #439343",
" T c #33021D",
" R c #408D40",
" E c #D6D7D7",
" W c #B70767",
" Q c #163417",
" ! c #B50765",
" ~ c #0F120D",
" ^ c #10100E",
" / c #163217",
" ( c #3B813B",
" ) c #387B38",
" _ c #122A13",
" ` c #377937",
" ' c #7C0A47",
" ] c #7B0846",
" [ c #102611",
" { c #2F061C",
" } c #C70870",
" | c #7A0845",
".  c #0F2410",
".. c #C5086E",
".X c #09180A",
".o c #D70979",
".O c #B00763",
".+ c #D50977",
".@ c #081409",
".# c #AE0761",
".$ c #061007",
".% c #020803",
".& c #BE086A",
".* c None",
".= c #404D43",
".- c #150D0F",
".; c #AAAFAB",
".: c #041408",
".> c #041208",
"., c #A9ABAA",
".< c #A9075F",
".1 c #031207",
".2 c #A8075E",
".3 c #031007",
".4 c #A7075D",
".5 c #240C17",
".6 c #D6D6D6",
".7 c #303B33",
".8 c #110F0E",
".9 c #163116",
".0 c #A3095C",
".q c #A1095A",
".w c #A2075B",
".e c #5B625D",
".r c #183D1B",
".t c #8C8F8D",
".y c #143317",
".u c #112D14",
".i c #102B13",
".p c #BABCBA",
".a c #0B210E",
".s c #0A1F0D",
".d c #091D0C",
".f c #081B0B",
".g c #07190A",
".h c #AAACAA",
".j c #041307",
".k c #2A602C",
".l c #041107",
".z c #031106",
".x c #030F06",
".c c #030D06",
".v c #020B05",
".b c #479D48",
".n c #0E0A0A",
".m c #800A49",
".M c #0D0809",
".N c #C90870",
".B c #418F42",
".V c #193E1B",
".C c #480D2C",
".Z c #3E8B3F",
".A c #3C873D",
".S c #163618",
".D c #DB097B",
".F c #DA097A",
".G c #420526",
".H c #B30764",
".J c #397F3A",
".K c #321020",
".L c #387D39",
".P c #18241A",
".I c #377B38",
".U c #2E0A1C",
".Y c #5BC65B",
".T c #080807",
".R c #790845",
".E c #0E2610",
".W c #347335",
".Q c #C3086D",
".! c #0D220F",
".~ c #306B31",
".^ c #17070F",
"./ c #52B452",
".( c #2C652D",
".) c #071409",
"._ c #3F4540",
".` c #2C632D",
".' c #AD0761",
".] c #2C612D",
".[ c #AC0760",
".{ c #2B612C",
".} c #051207",
".| c #50AE50",
"X  c #040E06",
"X. c #030E05",
"XX c #4EAA4E",
"Xo c #020A04",
"XO c #4DA84D",
"X+ c #4CA64C",
"X@ c #BC0869",
"X# c #499E49",
"X$ c #489E48",
"X% c #489C48",
"X& c #479C47",
"X* c #2F3530",
"X= c #479A47",
"X- c #469A46",
"X; c #469846",
"X: c #459645",
"X> c #449444",
"X, c #A7075E",
"X< c #A6075D",
"X1 c #439243",
"X2 c #A5075C",
"X3 c #429242",
"X4 c #A4075B",
"X5 c #429042",
"X6 c #251019",
"X7 c #418E41",
"X8 c #910A52",
"X9 c #163317",
"X0 c #162917",
"Xq c #112712",
"Xw c #8D938F",
"Xe c #C1C4C2",
"Xr c #071308",
"Xt c #B9BABA",
"Xy c #290719",
"Xu c #404C43",
"Xi c #071B0B",
"Xp c #051709",
"Xa c #AAAEAB",
"Xs c #041508",
"Xd c #041308",
"Xf c #D00875",
"Xg c #CE0873",
"Xh c #031107",
"Xj c #34021D",
"Xk c #D6D7D6",
"Xl c #303C33",
"Xz c #B90768",
"Xx c #173217",
"Xc c #D80979",
"Xv c #650739",
"Xb c #2F101E",
"Xn c #2C081B",
"Xm c #050805",
"XM c #0D2410",
"XN c #C0086B",
"XB c #0A1E0D",
/* pixels */
".*.*.*.*.*.*.*.*.*.*.*.*.*.*.*.*.*.*.*.*.*Xt.*.*.*.*.*.*.*.*.*.*",
".*.*.*.*.*.*.*.*.*.*.*.*.*.*.*.*Xk., 3 l V xXo._.h.*.*.*.*.*.*.*",
".*.*.*.*.*.*.*.*.*.*.*Xk., 3 l V Q P.J.ZXXXX A 8.iXo._.h.*.*.*.*",
".*.*.*.*.*.*Xk., 3 l.% /.S ..Z CXOXOXOXXXXXX m b v C.W.9 x._.h.*",
".*Xk., 3 l.% [ P ) S S A AX+X+ CXOXOXOXXXXXX m D ( ( ( u Q Q Z.%",
" V.%.%Xo f.9 ` ` ) ) ) 7 7 7 7 . / /X9X9XqXo B % n.x #.1 @Xd.:.:",
".!.dXs.g _XB.:Xp r.r 9.X.~X7 R uXd.V.V.r.r.r 5.J.L.I 8X5X:X1X7 )",
".!XxXxXxXxXxXxXxXxXx _ rX5 e t y p s d./ j.| mXO A D F HX;X>X5 R",
".!XxXxXxXxXxXxXxXxXx _.}X1 w e t y p s d j.| vXXX+ S - GX-X: Y .",
".!XxXxXxXxXxXxXxXxXx _X. Y w w e t y p s d j.| R.J.L 7.~.S @Xd.:",
" c.).@.@.).)XqXqXqXq.!.X 7 v.~.k fXo % n #Xh @X6.KXh 3XwXa E.*.*",
"XuXsXsXsXs.:.:Xd.1 o.1 f.S.y ~XbXb.C '.m X.[.[.'.'.w 0.5X*.t E.*",
".*.*.*.*.*.*.*.*., l.M.U ]X,.2.2.< + + O O.[.[.'.'.#.#.w ].^.% a",
".*.*.*.*Xk.t K.n.U |X<X<.4X,.2.2.< + + O O.[ 1 1 {.5.v $.l ~Xb.T",
".*Xk.t a.G 0 qX2X2X2 ,X<.4X,.2.2 q 1.G.U.n %.x @X6.K X.m OX,X4.^",
" a Z.MXnXnXn 0 0.R.R | | |Xn.5 B $.3 @ :.CX8 q.&Xz W !.O.[.2 X.T",
"XyXsXsXsXs.: 2Xd.1Xh # B # ^ :.m qXNXg.N }...QXNX@ W !.O.# + '.%",
"Xy T T T T TXjXjXjXj.8 $.qXc.o.+ gXfXg U.N }.QXN.&Xz W.H.O OXv.%",
".- T T T T T TXjXjXj.8X..0.FXc.o g hXfXg.N }..XN.&X@ W X.CX6.:Xe",
" ^ T T T T T T TXjXj.8 n.0.D.F.o.+ gXfXg U.N..X8.CX6.>Xl.eXa.*.*",
" ^ T T T T T T T TXj.8 %.0.D.FXc q.C X q :X6.>XM.x n.h.*.*.*.*.*",
" 6 T T T T T T T TXj.8 %.RXvXnXo.cXh @.u P 8X# F H.(.uXoX*.t.p.*",
".P 6.n %.^.^.G k k {.xXmXv : @.u P 8 G GX$X$ F F F - I z V BX*.*",
".p.;.;.;.;.e.=Xu.=.1Xd.u P 8 H HX&X% G GX$X$ FX>.`. Xo.x    .>.*",
".*.*.*.*.*.*.6.t.P u.B JX-X= H HX&X% G G Y.`.  r $.E.d ;.B H N.*",
".*.*.*.*.6 3.).{ LX;X; J JX=X= H HX3.]. Xo.x.lXB = > d.A ;X0Xe.*",
".*.*.6 3.).{X: L LX;X; J JX-X5.]. Xo.x @.s & -.B `.VX0.e.p.*.*.*",
"Xt 3.9.k I IX:X: L LX;X7 z.  B.x.s.i & *.Y =.d.l.e.p.*.*.*.*.*.*",
".P f.X.) x %X .$ M.$Xo.X.( @.s.k.A.b.b 8XBXuXa.*.*.*.*.*.*.*.*.*",
".g.9.9.9.9.9.9.9.9.9.a.X.k./ D ; $.lXuXa.*.*.*.*.*.*.*.*.*.*.*.*",
" %XrXrXrXr.)XrXrXrXr # < 4.`.z.7Xw E.*.*.*.*.*.*.*.*.*.*.*.*.*.*",
".tXsXp.fXiXiXiXdXp i.j  .7Xw E.*.*.*.*.*.*.*.*.*.*.*.*.*.*.*.*.*"
};
