/* XPM */
static const char * IconColor[] = {
/* width height ncolors chars_per_pixel */
"32 32 47 1",
/* colors */
"  c #A06F6F",
". c #B9B9D3",
"X c #8FB38F",
"o c #B36A6A",
"O c #000087",
"+ c #6AB36A",
"@ c #A03DA0",
"# c #6A6AB3",
"$ c #444487",
"% c #448744",
"& c #DFD6D6",
"* c #BBBBCD",
"= c #3DA0A0",
"- c #D3D3C0",
"; c #DBDBDF",
": c #6F6FA0",
"> c #874444",
", c #008700",
"< c #CDA9A9",
"1 c #B38F8F",
"2 c #008787",
"3 c #CDCDB2",
"4 c #D6D6DF",
"5 c #B36AB3",
"6 c #A9A9CD",
"7 c #6AB3B3",
"8 c #A03D3D",
"9 c #6FA06F",
"0 c #870000",
"q c #CDBBBB",
"w c #8F8FB3",
"e c #3DA03D",
"r c #A0A056",
"t c #870087",
"y c #B3B37C",
"u c #D3B9B9",
"i c #878722",
"p c #DBDFDB",
"a c #3D3DA0",
"s c #D3C6C6",
"d c #C6D3C6",
"f c #D3B9D3",
"g c #B9D3B9",
"h c #BBCDBB",
"j c #CDA9CD",
"k c #C6C6D3",
"l c #A9CDA9",
/* pixels */
"d999999999X1         k:::::::::w",
"h%%%%%%%%%9 >>>>>>>>>*$$$$$$$$$:",
"h%%%%%%%%%9 >>>>>>>>>*$$$$$$$$$:",
"h%%%%%%%%%9 >>>>>>>>>*$$$$$$$$$:",
"h%%%%%%%%%9 >>>>>>>>>*$$$$$$$$$:",
"h%%%%%%%%%9 >>>>>>>>>*$$$$$$$$$:",
"h%%%%%%%%%9 >>>>>>>>>*$$$$$$$$$:",
"h%%%%%%%%%9 >>>>>>>>>*$$$$$$$$$:",
"h%%%%%%%%%9 >>>>>>>>>*$$$$$$$$$:",
"h%%%%%%%%%9 >>>>>>>>>*$$$$$$$$$:",
"phhhhhhhhhdsqqqqqqqqq;*********k",
"3iiiiiiiiir=222222222jttttttttt@",
"3iiiiiiiiir=222222222jttttttttt@",
"3iiiiiiiiir=222222222jttttttttt@",
"3iiiiiiiiir=222222222jttttttttt@",
"3iiiiiiiiir=222222222jttttttttt@",
"3iiiiiiiiir=222222222jttttttttt@",
"3iiiiiiiiir=222222222jttttttttt@",
"3iiiiiiiiir=222222222jttttttttt@",
"3iiiiiiiiir=222222222jttttttttt@",
"-rrrrrrrrry7=========f@@@@@@@@@5",
"u888888888o+eeeeeeeee.aaaaaaaaa#",
"<0000000008e,,,,,,,,,6OOOOOOOOOa",
"<0000000008e,,,,,,,,,6OOOOOOOOOa",
"<0000000008e,,,,,,,,,6OOOOOOOOOa",
"<0000000008e,,,,,,,,,6OOOOOOOOOa",
"<0000000008e,,,,,,,,,6OOOOOOOOOa",
"<0000000008e,,,,,,,,,6OOOOOOOOOa",
"<0000000008e,,,,,,,,,6OOOOOOOOOa",
"<0000000008e,,,,,,,,,6OOOOOOOOOa",
"<0000000008e,,,,,,,,,6OOOOOOOOOa",
"&<<<<<<<<<uglllllllll4666666666."
};
