/* XPM */
static const char * IconMenuWarping[] = {
/* width height ncolors chars_per_pixel */
"32 32 244 2",
/* colors */
"   c #8B6557",
" . c #1A3116",
" X c #F09696",
" o c #D68583",
" O c #CC8883",
" + c #8A5C4C",
" @ c #A4AFA4",
" # c #F9A2A2",
" $ c #BE877F",
" % c #A1A9A1",
" & c #3E432C",
" * c #3C452A",
" = c #C97B76",
" - c #906055",
" ; c #4B4A32",
" : c #96A196",
" > c #EA9493",
" , c #875E4C",
" < c #BF716C",
" 1 c #835648",
" 2 c #C97F79",
" 3 c #413E28",
" 4 c #4F4E39",
" 5 c #F9A8A8",
" 6 c #313B22",
" 7 c #E69292",
" 8 c #798D79",
" 9 c #21381C",
" 0 c #F89D9D",
" q c #F69B9B",
" w c #55654F",
" e c #4C5039",
" r c #758575",
" t c #F29797",
" y c #DA8886",
" u c #B97E76",
" i c #F09595",
" p c #444C31",
" a c #AC655C",
" s c #6C4F3E",
" d c #E19090",
" f c #5D5039",
" g c #C5837B",
" h c #647364",
" j c #F19999",
" k c #B76660",
" l c #ED9595",
" z c #DB8380",
" x c #3F4A2F",
" c c #586D58",
" v c #56553F",
" b c #855749",
" n c #8A6C5B",
" m c #BB867E",
" M c #526752",
" N c #AF6F65",
" B c #F09B9B",
" V c #4C4B35",
" C c #B3665F",
" Z c #C6716B",
" A c #E69191",
" S c #44472D",
" D c #926B5C",
" F c #A16357",
" G c #415D41",
" H c #405D40",
" J c #795A4A",
" K c #B96E68",
" L c #D07D78",
" P c #DE8B89",
" I c #3B533B",
" U c #E99997",
" Y c #3A513A",
" T c #344F34",
" R c #F1A3A2",
" E c #A77A6D",
" W c #B77269",
" Q c #BD6B65",
" ! c #1B3518",
" ~ c None",
" ^ c #1A3117",
" / c #B86760",
" ( c #2F4225",
" ) c #EF9696",
" _ c #8D6050",
" ` c #E49595",
" ' c #8A5C4D",
" ] c #BA786F",
" [ c #885C4B",
" { c #61533F",
" } c #203F20",
" | c #DCDEDC",
".  c #203920",
".. c #46402B",
".X c #D8DAD8",
".o c #D7DAD7",
".O c #9A6556",
".+ c #173917",
".@ c #163716",
".# c #4E4C36",
".$ c #153515",
".% c #153315",
".& c #8B6251",
".* c #143314",
".= c #143114",
".- c #8A6050",
".; c #132F13",
".: c #F9A6A6",
".> c #122D12",
"., c #E89292",
".< c #112B11",
".1 c #F7A4A4",
".2 c #102910",
".3 c #DE9592",
".4 c #CB837C",
".5 c #E48E8E",
".6 c #24361D",
".7 c #C16C65",
".8 c #A37165",
".9 c #BDC2BD",
".0 c #C8746F",
".q c #303922",
".w c #E79494",
".e c #9C6B5E",
".r c #F4A4A4",
".t c #8F685B",
".y c #7F5648",
".u c #20341C",
".i c #745747",
".p c #AEB4AE",
".a c #916153",
".s c #F19797",
".d c #B77E75",
".f c #8E5D50",
".g c #846050",
".h c #29371E",
".j c #20381F",
".k c #A77065",
".l c #D68A86",
".z c #775043",
".x c #162E15",
".c c #96A296",
".v c #C2766F",
".b c #885B4D",
".n c #929C92",
".m c #966B5E",
".M c #BA6E67",
".N c #9F776A",
".B c #CF7975",
".V c #AA6B61",
".C c #494D33",
".Z c #AD605A",
".A c #3D4631",
".S c #EF9F9E",
".D c #3D4127",
".F c #1E3319",
".G c #7C5144",
".H c #C97772",
".J c #1A2F15",
".K c #EE9493",
".L c #B67B73",
".P c #C6736F",
".I c #2E3A22",
".U c #F8A0A0",
".Y c #AF756C",
".T c #667866",
".R c #ED9F9F",
".E c #E38A88",
".W c #F29A9A",
".Q c #C87974",
".! c #EE9696",
".~ c #E29594",
".^ c #A0695D",
"./ c #F7A2A2",
".( c #BE6F6A",
".) c #C1807A",
"._ c #806C5B",
".` c #8F6456",
".' c #6E5846",
".] c #4D664D",
".[ c #C47B73",
".{ c #4C644C",
".} c #EB9696",
".| c #997063",
"X  c #A16B61",
"X. c #4A5E4A",
"XX c #495C49",
"Xo c #243C1E",
"XO c #B4766D",
"X+ c #233A1D",
"X@ c #42442B",
"X# c #C67F78",
"X$ c #3E583E",
"X% c #1F3019",
"X& c #F39797",
"X* c #705341",
"X= c #B2766E",
"X- c #4B5944",
"X; c #E29090",
"X: c #EA9C9B",
"X> c #C07B75",
"X, c #F09797",
"X< c #EE9595",
"X1 c #EC9393",
"X2 c #D0827E",
"X3 c #E78F8E",
"X4 c #EEA2A2",
"X5 c #9D6459",
"X6 c #D7D9D7",
"X7 c #DB908C",
"X8 c #193C19",
"X9 c #183C18",
"X0 c #C87E76",
"Xq c #173A17",
"Xw c #173817",
"Xe c #163816",
"Xr c #163616",
"Xt c #A67065",
"Xy c #153415",
"Xu c #353E24",
"Xi c #143414",
"Xp c #8D776A",
"Xa c #143214",
"Xs c #133013",
"Xd c #132E13",
"Xf c #B1625C",
"Xg c #122C12",
"Xh c #112C11",
"Xj c #112A11",
"Xk c #E79191",
"Xl c #C5CBC5",
"Xz c #B76C65",
"Xx c #D6908A",
"Xc c #665E4A",
"Xv c #354227",
"Xb c #F59898",
"Xn c #95786B",
"Xm c #4B5136",
"XM c #474932",
"XN c #E49191",
"XB c #233B1F",
"XV c #896E5F",
"XC c #E18F8E",
"XZ c #DF8D8C",
/* pixels */
" ~ ~ ~ ~ ~ ~ ~ ~ ~ ~ ~ ~ ~.p hXX rX.X.X..p.p.p ~ ~ ~ ~ ~ ~ ~ ~ ~",
" ~ ~ ~ ~ ~ ~ ~ ~ ~.9.n YXjXhXd.hX- 4Xv.2.2.<.< ~ ~ ~ ~ ~ ~ ~ ~ ~",
" ~ ~ ~ ~ ~ ~ ~.p.j.<.>.jXu J.g.&.& { ^.; ;.$.@X6 ~ ~ ~ ~ ~ ~ ~ ~",
" ~ ~ ~ ~.9 hXj.>X+X@ J.- _X5 K.b -.F !.%X+ ;.$.c ~ ~ ~ ~ ~ ~ ~ ~",
" ~ ~X6 MXg 9X@.g.a.a.Y y Z Z.KX2 f 9Xs.F.8X0 3X$ | ~ ~ ~ ~ ~ ~ ~",
" ~.9. XsXV ' 'XO P.W j L.7.E z 0Xo.*Xj OXxX0 ].I YXl ~ ~ ~ ~ ~ ~",
"X6XB.*XV + W.!XbXbX&X3.7.v.B X t.@.=.u.: 5 U 2X#.6 T | ~ ~ ~ ~ ~",
".TXy.'.fXZXb.W t i.K.B k.P.H.,.)Xe.;.# #.:.:.r 2.L.; T ~ ~ ~ ~ ~",
".].$.&.l.} > > 7XkXC C <.Z PXC uXw.;.#.U # #.:./.4XnXh : ~ ~ ~ ~",
".].+ - g.~X; d d dX2 a.( KX;XN A.+.* & q 0.U.U #.3 $.A I ~ ~ ~ ~",
".cX8Xc.z O ` ` 7.w.vXz.M o 7.5 7.+.%Xg iXb q 0.U./  XB.< ~ ~ ~ ~",
" ~ H }.m.G.Y.~ U.}.M =Xf A 7 7 7 x {Xh.! i.sX& q 0.& vXj ~ ~ ~ ~",
" ~ ~ cX9 v 1.b O UXz.[Xf A A A A e xXj.L l.!X,.s 2 ' .XX ~ ~ ~ ~",
" ~ ~ ~.cX9 (.i.G.d.Q LXf y.5XN.5Xm pXj.LX1 l.!Xk bX*.< % ~ ~ ~ ~",
" ~ ~ ~ ~.X HX8.C.G.e W < =X;X;X; x 6Xj.! ).!X<.O b ^ Y ~ ~ ~ ~ ~",
" ~ ~ ~ ~ ~ ~ @X9.C.G.e.H C <XZXC.$ JXj.sX& jX2 [.'. X6 ~ ~ ~ ~ ~",
" ~ ~ ~ ~ ~ ~ ~ @X8 p.G N.H = Q.t.$ ; V.W B BXt.`.A.n ~ ~ ~ ~ ~ ~",
" ~ ~ ~ ~ ~ ~ ~ ~ @X9 s.f K K.V 6X+X%.L B.S.S DXnXj ~ ~ ~ ~ ~ ~ ~",
" ~ ~ ~ ~ ~ ~ ~ ~ ~ HXv 1.4 W.y.%..X%X:.R.R.R D._XgX6 ~ ~ ~ ~ ~ ~",
" ~ ~ ~ ~ ~ ~ ~ ~ ~.pXqX*X5 o.= ;.> JX7X4X4X4 E.N.x.c ~ ~ ~ ~ ~ ~",
" ~ ~ ~ ~ ~ ~ ~ ~ ~.X.+X*.f 9XBXp eXxX> ` R R.3 nXp T | ~ ~ ~ ~ ~",
" ~ ~ ~ ~ ~ ~ ~ ~ ~ ~Xe f . !.d $Xx gX=.vX:.r.r.N E.J 8 ~ ~ ~ ~ ~",
" ~ ~ ~ ~ ~ ~ ~ ~ ~.X.*.> !.'.t R 5.l.) ].v.S.1.S.tXVXg 8 | ~ ~ ~",
" ~ ~ ~ ~ ~ ~ ~ ~ ~ cXhXg.6 6XM 4 4 $X .|.`.m mX:Xx.t._Xg IXl ~ ~",
" ~ ~ ~ ~ ~ ~ ~ ~.o.*XaXa.=Xs.IXu &.IXgXg.<.<Xj.<Xj.<.<.<.<.=Xl ~",
" ~ ~ ~ ~ ~ ~ ~ ~.T 9.@.@.+.+XwXw.+.+XwXwXwXo S.C vXr.$XyXi w ~ ~",
" ~ ~ ~ ~ ~ ~ ~.o.*.D.<X X<.! ) ) g.d.d.d u.8 f & S 4 4 * *.% h ~",
" ~ ~ ~ ~ ~ ~ ~.TXu ... A l.!.! ) ) XX,.s.s P _.O.7X3 > N.i.<X6 ~",
" ~ ~ ~ ~ ~ ~.o.* 3.<X# l lX<.!.! ) ) ) XX,.sX# , F.7.VX= ^ h ~ ~",
" ~ ~ ~ ~ ~ ~.TXy.q 3 k k / /.P.P.0.0.0.0 z.E.EX5 , a b.i.j ~ ~ ~",
" ~ ~ ~ ~ ~ ~ ~.{.>Xv.CXM 4Xc.|.k.k.k.^ ] d.E z.0.^ , F.h.n ~ ~ ~",
" ~ ~ ~ ~ ~ ~ ~ r.].].].].]X$.+.+.+XwXwXw.+XwXwXwXwX9 G 8 ~ ~ ~ ~"
};
