/* XPM */
static const char * IconANString[] = {
/* width height ncolors chars_per_pixel */
"64 64 238 2",
/* colors */
"`` c #DABDB5",
"`a c #AFAFAF",
"`b c #E0D0C8",
"`c c #ADADAD",
"`d c #DFCEC7",
"`e c #E6E3DB",
"`f c #CA746A",
"`g c #D66F97",
"`h c #BD2F22",
"`i c #D29D96",
"`j c #C9A1B8",
"`k c #D9BFB7",
"`l c #BA2215",
"`m c #E7E7DF",
"`n c #D5A59C",
"`o c #D74598",
"`p c #D19F98",
"`q c #C24437",
"`r c #D5B0A9",
"`s c #DCC5BD",
"`t c #C8A7BA",
"`u c #E3D8D1",
"`v c #DA3091",
"`w c #BB2419",
"`x c #C3C2C2",
"`y c #8C8D8C",
"`z c #BFBEBE",
"a` c #898989",
"aa c #D8B6AF",
"ab c #E0CBC4",
"ac c #B8190C",
"ad c #E5DED6",
"ae c #D39C93",
"af c #807F80",
"ag c #D7B8B1",
"ah c #DFCDC6",
"ai c #E6E2DA",
"aj c #C35E55",
"ak c #D4A097",
"al c #DDCBC4",
"am c #6D6D6D",
"an c #E1D3CB",
"ao c #DB278E",
"ap c #E7E6DE",
"aq c #BC3023",
"ar c #C77169",
"as c #C8A6B9",
"at c #DBC2BB",
"au c #E3D7D0",
"av c #E5D3D2",
"aw c #E2D7CF",
"ax c #D9C0B9",
"ay c #535353",
"az c #CD887F",
"b` c #DC3995",
"ba c #DEC8C1",
"bb c #DDC8C0",
"bc c #E5DDD5",
"bd c #DCC6BF",
"be c #DA3593",
"bf c #E3DBD3",
"bg c #BD291D",
"bh c #D93392",
"bi c #BE3F35",
"bj c #E2CEC8",
"bk c #C7756F",
"bl c #E6E1D9",
"bm c #E5DFD8",
"bn c #E4DFD7",
"bo c #D93B95",
"bp c #D93995",
"bq c #CE84AE",
"br c #D09992",
"bs c #B6B7B7",
"bt c #DDC1B9",
"bu c #CD958F",
"bv c #D4AAA3",
"bw c #D3AAA2",
"bx c #BB2014",
"by c #333333",
"bz c #D8BBB4",
"c` c #DFD0C8",
"ca c #D84197",
"cb c #BC2F22",
"cc c #E0C7BF",
"cd c #D09B95",
"ce c #C66E67",
"cf c #CA6D61",
"cg c #B81307",
"ch c #C0524A",
"ci c #E2D6CE",
"cj c #252525",
"ck c #E0D4CC",
"cl c #C14D41",
"cm c #1F1F1F",
"cn c #B9190B",
"co c #D6B2AB",
"cp c #E4DAD3",
"cq c #DCA2B1",
"cr c #E3DAD2",
"cs c #BB281A",
"ct c #C4C4C4",
"cu c #C3C2C3",
"cv c #C2C2C2",
"cw c #C0C0C0",
"cx c #CB94B4",
"cy c #E6E0D8",
"cz c #E5E0D7",
"d` c #BABABA",
"da c #E5DED7",
"db c #E4DED6",
"dc c #D8AFA6",
"dd c #CD8277",
"de c #CB7E75",
"df c #C9685C",
"dg c #B2B2B2",
"dh c #C7645A",
"di c #D8BAB3",
"dj c #DFCFC7",
"dk c #E6E2DB",
"dl c #A6A6A6",
"dm c #B81406",
"dn c #CB6C61",
"do c #DEC4BC",
"dp c #B81206",
"dq c #C9A2B8",
"dr c #E2D5CD",
"ds c #D8A89F",
"dt c #D9BEB7",
"du c #9C9C9C",
"dv c #D74498",
"dw c #9A9A9A",
"dx c #BF483E",
"dy c #BD3225",
"dz c #DEC6BF",
"e` c #C2574E",
"ea c #C8A8BA",
"eb c #DCC4BD",
"ec c #929292",
"ed c #E3D9D1",
"ee c #BC271A",
"ef c #BA2518",
"eg c #C5665E",
"eh c #BE3629",
"ei c #D7B5AE",
"ej c #E6DFD7",
"ek c #E5DFD6",
"el c #C97065",
"em c #E4DDD5",
"en c #D29B92",
"eo c #C5564A",
"ep c #C25247",
"eq c #D4A8A1",
"er c #D29288",
"es c #CA99B5",
"et c #DABBB4",
"eu c #E1D0C8",
"ev c #787878",
"ew c #D8B9B2",
"ex c #DFCEC6",
"ey c #DDCCC4",
"ez c #E5E1D9",
"f` c #CD82AE",
"fa c #DB7F9E",
"fb c #B70F04",
"fc c #B70B04",
"fd c #E2D4CC",
"fe c #E1D2CB",
"ff c #D8BDB5",
"fg c #E0D2CA",
"fh c #E7E5DE",
"fi c #E6E5DD",
"fj c #B91509",
"fk c #B91309",
"fl c #C46C66",
"fm c #C1544C",
"fn c #B70F07",
"fo c #E1D6CE",
"fp c #C76055",
"fq c #E5DCD5",
"fr c #CB857D",
"fs c #E4DCD4",
"ft c #E4DAD4",
"fu c #C66B61",
"fv c #BB281B",
"fw c #CD928C",
"fx c #CB7C73",
"fy c #D4A7A0",
"fz c #464646",
"g` c #D2A59E",
"ga c #E1CFC7",
"gb c #E1CDC7",
"gc c #E0CDC6",
"gd c #E7E2DA",
"ge c #C2483C",
"gf c #BBBCBC",
"gg c #E5E0D8",
"gh c #CF85AF",
"gi c #CE83AE",
"gj c #BC2C1F",
"gk c #C3554A",
"gl c #D6ADA5",
"gm c #C03D30",
"gn c #DD4A9C",
"go c #DB258D",
"gp c #E0D1C9",
"gq c #BA1F13",
"gr c #E6E4DC",
"gs c #AAAAAB",
"gt c #2A2A2A",
"gu c #CD847B",
"gv c #E3D7CF",
"gw c #D9AAA1",
"gx c #DCBEBB",
"gy c #E2D5CE",
"gz c #A0A0A1",
"h` c #E1D5CD",
"ha c #D8BEB7",
"hb c #D1A099",
"hc c #C55D52",
"hd c #C7AABA",
"he c #E4DBD3",
"hf c #E3DBD2",
"hg c #C5C5C5",
"hh c #C4C5C4",
"hi c #C4C3C4",
"hj c #C1C1C1",
"hk c #CB95B4",
"hl c #D9B7B1",
"hm c #BDBDBD",
"hn c #E6E1D8",
"ho c #E5E1D7",
"hp c #DDCAC2",
"hq c #E5DFD7",
"hr c #E3DDD5",
"hs c #BC2B1E",
"ht c #B5B5B5",
"hu c #B80F03",
/* pixels */
"adadadadadadadadadadadadadadadadadadadadadadadadadadadadadadadadadadadadadadadadadadadadadadadadadadadadadadadadadadadadadadadad",
"adadadadadadadadadadadadadadadadadadadadadadadadadadadadadadadadadadadadadadadadadadadadadadadadadadadadadadadadadadadadadadadad",
"adadadadadadadadadadadadadadadadadadadadadadadadadadadadadadadadadadadadadadadadadadadadadadadadadadadadadadadadadadadadadadadad",
"adadadadadadadadadadadadadadadadadadadadadadadadadadadadadadadadadadadadadadadadadadadadadadadadadadadadadadadadadadadadadadadad",
"adadadadadadadadadadadadadadadadadadadadadadadadadadadadadadadadadadadadadadadadadadadadadadadadadadadadadadadadadadadadadadadad",
"adadadadadadadadadadadadadadadadadadadadadadadadadadadadadadadadadadadadadadadadadadadadadadadadadadadadadadadadadadadadadadadad",
"adadadadadadadadadadadadadadadadadadadadadadadadadadadadadadadadadadadadadadadadadadadadadadadadadadadadadadadadadadadadadadadad",
"adadadadadadadadadadadadadadadadadadadadadadadadadadadadadadadadadadadadadadadadadadadadadadadadadadadadadadadadadadadadadadadad",
"adadadadadadadadadadadadadadadadadadadadadadadadadadadadadadadadadadadadadadadadadadadadadadadadadadadadadadadadadadadadadadadad",
"adadadadadadadadadadadadadadadadadadadadadadadadadadadadadadadadadadadadadadadadadadadadadadadadadadadadadadadadadadadadadadadad",
"adadadadadadadadadadadadadadadadadadadadadadadadadadadadadadadadadadadadadadadadadadadadadadadadadadadadadadadadadadadadadadadad",
"adadadadadadadadadadadadadadadadadadadadadadadadadadadadadadadadadadadadadadadadadadadadadadadadadadadadadadadadadadadadadadadad",
"adadadadadadadadadadadadadadadadadadadadadadadadadadadadadadadadadadadadhqhqadadadadadadadadadadadadadadadadadadadadadadadadadad",
"adadadhqfddzewbvcobbgycradadadadadhqhqadadadadadadadadadadadadadadhqdjbvg`bbggadadadadadadadadadadadadadadadadadadadadadadadadad",
"adadej`bcffuat`bdi`pfwcofshqadadademfsbcadadadadadadadadadadadadadcyaxhc`wfxfiadadadadadadadadadadadadadadadadadadadadadadadadad",
"adhqai`fdx`iadadcrebcdbwhehqadadhqdibwhpcyadadadadadadadadadadadadhn`kepehae`eadadadadadadadadadadadadadadadadadadadadadadadadad",
"adhqfoeogqer`mhqcyfsebglcphqadhqfodffxhpaiadadadgggghqhqhqblggadadhqcids`n`bhqadadhqgggghqejcyblggdaadadadadadbmblhqhqczczhqhqad",
"adhqdjeohugmerc`grblcidtfsadad`b`f`lajbvbdawcyfedi`katc`djbvdiedhqanatffhadjhqhqcrhp``dtdteyeqhbaah`ejadadadem`seqagdi`k`kbzhpcr",
"adhqeddefvhuaqfper`daddrbchqemeiehdmaqguffdjblfebrgkfueqdhbiepaaadaug`fuepergrhqem`sfrajfrbuazepcl`ndbhqademdceohc``eqhce`bubbfs",
"adadcyaadhefdmdmgjazgpgdhqadad``gmdmgjerckh`hqbnaefkefdhfpgegmgldbgdgl`qfcdnapadblgcfuefcecdhlgmfnfxckcycyfoddacfpadetbxgqbredcy",
"adadhqcieielgjdmdm`hfrebadadhqbcfpace`digdadadfigwcngqeoandthbeucycyaxgkfbdnapadblahflcsbkdr`egecgaralcyblbdegcbfwggab`qefakbfhq",
"adadadhqbl`dgu`q`hdmefarckhqhqbcfwaqchhlaiadadfidsfjdyeqfscycyhqadcy`kgkfbdnapadblahflcsbkanbl`qcgaralcyai``e`gjfwezanegefazh`cy",
"adadadedhfcygrbf`ngecg`hcoemggbcfwcbchhlaiadadfidsfjdyg`hehqadadadcy`kgkfbdnapadblahflcsbkanbl`qcgaralcyhqh`endxegdzdc`lclgledhq",
"adadhq``babladhqezgwaqgj`phecybcfwcbchhl`eadadfidsfjdyg`hehqadadadcy`kgkfbdnapadblahflcsbkanbl`qcg`feycyadbl`ubuhcbwhbdfcofsejad",
"adadblazbrda`ehqgrahar`q`rfsggbcfwcbfmbzhqcradfhgwfjdyfyemhqadadadhnaxgkfbdn`madbldjcefvbkdr`egedpfubdbladcr``akbzgph``mapezadad",
"adhqaidfegaabagvdratbufwgvhqhqbcbraqdxfydjanhqezakfkgj`ianadadadadadagclfcdfgghqcydzaj`legbaau`qace`eiggcyah`f`qcobtbtdododrdbad",
"adadcy`ibueldf`rhbfrbucihqadadadhpeobgdhhlggcyfeazhsgmfr`redhqadhqfghbepeefpebcyemglehhsgm`i`rgeajdebwawbl`dfxbxeebgbgee`hazgphq",
"adadekaugvgabt`kbdgpdrejadadadadbcgcccab`uhqhqfsanccbafegvbcadadadfsdrabccgbcrhqadgvccccccfdgvabeuangvemadhqaachgqgqgqgqgqgj`nfs",
"adadadggcyaidaauheblggadadadadadaddk`eaihqadadadcy`e`eblhqadadadadadcyaigraihqadadbm`e`e`ecyhqaiaiblggadcyfeguclaeaeaeaedegjazh`",
"adadadadadadadejhqadadadadadadadadadadadadadadadadadadadadadadadadadadadadadadadadadadadadadadadadadadadaibzflfxbnbndbhrewehakdb",
"adadadadadadadadadadadadadadadadadadadadadadadadadadadadadadadadadadadadadadadadadadadadadadadadadadadadggeubvbucdbr`pcobuereubl",
"adadadadadadadadadadadadadadadadadadadadadadadadadadadadadadadadadadadadadadadadadadadadadadadadadadadadadczfs`d`sebdzexbaadcyad",
"adadadadadadadadadadadadadadadadadadadadadadadadadadadadadadadadadadadadadadadadadadadadadadadadadadadadadadadcyblblblcyblhqadad",
"adadekhohohohohohohohohohohohohohohohohohohohohohohohohohohohohohohohohohohohohohohohohohohohohohohohohohohohohohohohqadadadadad",
"adadcqgngngngngngngngngngngngngngngngngngngngngngngngngngngngngngngngngngngngngngngngngngngngngngngngngngngngngngngncqbcadadadad",
"adcqbecx`t`t`t`t`t`t`t`t`t`t`t`t`t`t`t`t`t`t`t`t`t`t`t`t`t`t`t`t`t`t`t`t`t`t`t`t`t`t`t`t`t`t`t`t`t`t`t`t`t`t`t`t`tesbeghadadadad",
"adb`bhhd`gf`f`f`f`f`f`f`f`f`f`f`f`f`f`f`bqf`f`gif`f`f`f`f`f`gighgif`f`f`f`f`gif`f`gif`f`f`f`f`f`f`f`f`f`f`f`f`f``ges`oaoftadadad",
"adb`bheahkhhhhhhhhhhhhhhhhhhhhhhhhhhhhcv`ygzdua`cwhhhhhhhhhhgsamhthhhhhhhhhjaf`zhhgfhhhhhhhhhhhhhhhhhhhhhhhhhhhh`tesdvgoghbjadad",
"adb`bheacxctctctctctctctctctctctctctctafaycvcveccwhjgfgfd`ct`acmhtctd`gfhtcva`cwd`evgfctctctctctctctctctctctctct`tesdvaofa`gftad",
"adb`bheacxctctctctctctctctctctctctcthmgt`ycthghghg`cayecfzhgdgcmbshgbyevamhmayd`dwcm`actctctctctctctctctctctctct`tesdvaoft`ggxad",
"adb`bheacxctctctctctctctctctctctctct`zgta`ctdlevgf`cfzdwbyhgdgcmbshgcjdwhj`zgt`c`ccjhgctctctctctctctctctctctctct`tesdvaofegnccad",
"adb`bheacxctctctctctctctctctctctctctcuevaycudwgtd``abyecgtcudgcm`ahgfzdwctcvgtdl`ccjctctctctctctctctctctctctctct`tesdvgogncqfsad",
"adb`bheacxhihihihihihihihihihihihihihicudwa`dueccw`xamafaf`xgsamdlhiamgzhihjamdlcwevdghihihihihihihihihihihihihiasesdvaobjhqadad",
"adgh`vea`jdqdqdqdqdqdqdqdqdqdqdqdqdqdqdqdq`jdqdqdqdqdqdqdqdqdqdqdqdqdqdqdqdqdqdqdqdqdqdqdqdqdqdqdqdqdqdqdqdqdqdq`jhdbo`gfqadadad",
"adftfabpcacacacacacacacacacacacacacacacacacacacacacacacacacacacacacacacacacacacacacacacacacacacacacacacacacacacacabo`g`uadadadad",
"adadbcavavavavavavavavavavavavavavavavavavavavavavavavavavavavavavavavavavavavavavavavavavavavavavavavavavavavavavavfsadadadadad",
"adadadadadadadadadadadadadadadadadadadadadadadadadadadadadadadadadadadadadadadadadadadadadadadadadadadadadadadadadadadadadadadad",
"adadadadadadadadadadadadadadadadadadadadadadadadadadadadadadadadadadadadadadadadadadadadadadadadadadadadadadadadadadadadadadadad",
"adadadadadadadadadadadadadadadadadadadadadadadadadadadadadadadadadadadadadadadadadadadadadadadadadadadadadadadadadadadadadadadad",
"adadadadadadadadadadadadadadadadadadadadadadadadadadadadadadadadadadadadadadadadadadadadadadadadadadadadadadadadadadadadadadadad",
"adadadadadadadadadadadadadadadadadadadadadadadadadadadadadadadadadadadadadadadadadadadadadadadadadadadadadadadadadadadadadadadad",
"adadadadadadadadadadadadadadadadadadadadadadadadadadadadadadadadadadadadadadadadadadadadadadadadadadadadadadadadadadadadadadadad",
"adadadadadadadadadadadadadadadadadadadadadadadadadadadadadadadadadadadadadadadadadadadadadadadadadadadadadadadadadadadadadadadad",
"adadadadadadadadadadadadadadadadadadadadadadadadadadadadadadadadadadadadadadadadadadadadadadadadadadadadadadadadadadadadadadadad",
"adadadadadadadadadadadadadadadadadadadadadadadadadadadadadadadadadadadadadadadadadadadadadadadadadadadadadadadadadadadadadadadad",
"adadadadadadadadadadadadadadadadadadadadadadadadadadadadadadadadadadadadadadadadadadadadadadadadadadadadadadadadadadadadadadadad",
"adadadadadadadadadadadadadadadadadadadadadadadadadadadadadadadadadadadadadadadadadadadadadadadadadadadadadadadadadadadadadadadad",
"adadadadadadadadadadadadadadadadadadadadadadadadadadadadadadadadadadadadadadadadadadadadadadadadadadadadadadadadadadadadadadadad",
"adadadadadadadadadadadadadadadadadadadadadadadadadadadadadadadadadadadadadadadadadadadadadadadadadadadadadadadadadadadadadadadad",
"adadadadadadadadadadadadadadadadadadadadadadadadadadadadadadadadadadadadadadadadadadadadadadadadadadadadadadadadadadadadadadadad",
"adadadadadadadadadadadadadadadadadadadadadadadadadadadadadadadadadadadadadadadadadadadadadadadadadadadadadadadadadadadadadadadad",
"adadadadadadadadadadadadadadadadadadadadadadadadadadadadadadadadadadadadadadadadadadadadadadadadadadadadadadadadadadadadadadadad",
"adadadadadadadadadadadadadadadadadadadadadadadadadadadadadadadadadadadadadadadadadadadadadadadadadadadadadadadadadadadadadadadad",
"adadadadadadadadadadadadadadadadadadadadadadadadadadadadadadadadadadadadadadadadadadadadadadadadadadadadadadadadadadadadadadadad"
};
