/* XPM */
static const char * IconHrmtCrvEdit[] = {
/* width height ncolors chars_per_pixel */
"32 32 256 2",
/* colors */
"   c #AD3E30",
" . c #372A6B",
" X c #503E9E",
" o c #6D3029",
" O c #ADA6CE",
" + c #625595",
" @ c #C1B1B0",
" # c #3A2C71",
" $ c #392C70",
" % c #47378B",
" & c #6F3042",
" * c #A93C2F",
" = c #B9B6C9",
" - c #A59FBC",
" ; c #A49FBB",
" : c #752F2A",
" > c #B38F8B",
" , c #3C2E76",
" < c #3B2E75",
" 1 c #765C7A",
" 2 c #BD6A60",
" 3 c #6D629C",
" 4 c #6F6794",
" 5 c #956F6A",
" 6 c #382E5E",
" 7 c #624FAF",
" 8 c #453978",
" 9 c #7F2D23",
" 0 c #4D3B97",
" q c #3E307B",
" w c #4C3B96",
" e c #3C284E",
" r c #655B8A",
" t c #5341A0",
" y c #883025",
" u c #362969",
" i c #513F9E",
" p c #624FB2",
" a c #503D9D",
" s c #BA6156",
" d c #C9C5D8",
" f c #7B2B22",
" g c #7A2B21",
" h c #544B79",
" j c #C2B2B0",
" k c #756175",
" l c #CEC0BF",
" z c #382B6E",
" x c #463689",
" c c #372B6D",
" v c #C2A9A6",
" b c #AC5348",
" n c #B5B0CE",
" m c #564D7E",
" M c #85343C",
" N c #49388F",
" B c #5E2826",
" V c #6C619A",
" C c #453877",
" Z c #524391",
" A c #322661",
" S c #312660",
" D c #5A45B0",
" F c #C5C2D0",
" G c #98362A",
" H c #8172BF",
" J c #ABA4C7",
" K c #BEB9D3",
" L c #5A2E50",
" P c #955C55",
" I c #7C4943",
" U c #352867",
" Y c #342866",
" T c #423381",
" R c #503E9C",
" E c #332865",
" W c #A2392D",
" Q c #C8C4D6",
" ! c #7C2C22",
" ~ c #7A739A",
" ^ c #6E443F",
" / c #B2ADC7",
" ( c #B4B2BF",
" ) c #686185",
" _ c #9F9BB1",
" ` c #91635E",
" ' c #943429",
" ] c #B89C98",
" [ c #AA4538",
" { c None",
" } c #372A6C",
" | c #6B5F9F",
".  c #60221A",
".. c #B8B4C6",
".X c #B7B4C5",
".o c #B6A5A3",
".O c #685E92",
".+ c #531D17",
".@ c #521D16",
".# c #A5746E",
".$ c #BFB1AF",
".% c #48378D",
".& c #D3D1DD",
".* c #392C71",
".= c #6E3042",
".- c #716994",
".; c #A49FBC",
".: c #5C2019",
".> c #5944AE",
"., c #4A3992",
".< c #C4C1CE",
".1 c #C3C1CD",
".2 c #AEAABF",
".3 c #423280",
".4 c #503D9B",
".5 c #332764",
".6 c #41327F",
".7 c #571E17",
".8 c #8678BC",
".9 c #887DB4",
".0 c #58489C",
".q c #B9A9AF",
".w c #5441A2",
".e c #5341A1",
".r c #53222A",
".t c #873025",
".y c #513F9F",
".u c #792B21",
".i c #B9B2BC",
".p c #635696",
".a c #625695",
".s c #4C3F86",
".d c #8B322C",
".f c #D2D0DB",
".g c #99706B",
".h c #8F83C1",
".j c #A39EBA",
".k c #8E87AC",
".l c #8E3C32",
".z c #97655F",
".x c #2F245C",
".c c #3D2F77",
".v c #501C16",
".b c #493890",
".n c #5743AB",
".m c #BE6B61",
".M c #ADA9BD",
".N c #BEB9D1",
".B c #6E639D",
".V c #8C3126",
".C c #A6A0C0",
".Z c #382F5E",
".A c #322662",
".S c #40317D",
".D c #3F317C",
".F c #4D3C97",
".G c #4C3A96",
".H c #5A45B1",
".J c #C5C2D1",
".K c #7E372F",
".L c #3B3164",
".P c #893126",
".I c #938BB7",
".U c #5340A0",
".Y c #52409F",
".T c #342867",
".R c #423382",
".E c #6A6388",
".W c #ADA6CD",
".Q c #615593",
".! c #3E336A",
".~ c #923428",
".^ c #392C6F",
"./ c #47378A",
".( c #2A2153",
".) c #C3AAA7",
"._ c #852F25",
".` c #5F221A",
".' c #B5AFCE",
".] c #903D33",
".[ c #772A21",
".{ c #4E408A",
".} c #3C2E75",
".| c #82382F",
"X  c #5542A8",
"X. c #8E3227",
"XX c #8279A9",
"Xo c #5741A0",
"XO c #ABA8BA",
"X+ c #6E629C",
"X@ c #5F5780",
"X# c #5B2019",
"X$ c #724540",
"X% c #3F307B",
"X& c #4D3B96",
"X* c #DBDADF",
"X= c #3E307A",
"X- c #4C3B95",
"X; c #DED9D8",
"X: c #D3C2C0",
"X> c #66251D",
"X, c #893025",
"X< c #624FB1",
"X1 c #503D9C",
"X2 c #332765",
"X3 c #413280",
"X4 c #4F3D9B",
"X5 c #885852",
"X6 c #501D1B",
"X7 c #712A21",
"X8 c #BCB1B3",
"X9 c #98615B",
"X0 c #9D3F49",
"Xq c #AA999E",
"Xw c #2A2052",
"Xe c #382B6D",
"Xr c #915B54",
"Xt c #863025",
"Xy c #7E76A1",
"Xu c #A03A2E",
"Xi c #574D7E",
"Xp c #B3AECB",
"Xa c #4C3F87",
"Xs c #3B2D73",
"Xd c #2C2257",
"Xf c #3A2D72",
"Xg c #ABA7B9",
"Xh c #AAA7B8",
"Xj c #6B6198",
"Xk c #8D5953",
"Xl c #822E24",
"Xz c #5D211A",
"Xx c #744641",
"Xc c #50418E",
"Xv c #4F418D",
"Xb c #E0DAD9",
"Xn c #3D2F78",
"Xm c #4B3A93",
"XM c #D9D9DC",
"XN c #7F544F",
"XB c #A2736E",
"XV c #AEA9BF",
"XC c #ADA9BE",
"XZ c #7F372E",
"XA c #BCA7A5",
"XS c #342865",
"XD c #9F6861",
"XF c #4E3C99",
"XG c #DCDBE2",
"XH c #AF493C",
"XJ c #82343E",
"XK c #655C8B",
"XL c #DCD8D8",
"XP c #C0BBD7",
"XI c #877288",
"XU c #D0C1BF",
/* pixels */
" { { { { { { { { { { { { { { { { { { { { { { { { { { { { { { { {",
" { { { { { { { { { { { { { { { { { { { { { { { { { { { { { { { {",
" { {.f { { { { { { { { { { { { { { { { { { { { { { { { { { { { {",
" { {.8 { { { { { { { { { { { { { { {XG.9.B.B.BX+ 3 VXj.O.- { { {",
" { { w O { { { { { { { { { { { { {X*XcX3.6.S.S qXn <Xe Y.1 { { {",
" {.1XmX< { { { { { { { { { { { { {.N.DX%X=Xn.cXs $ . Y m { { { {",
" { _.,.>.W { { { { { { { { { { { { =Xn.c.}Xs.*Xe . Y.5.1 { { { {",
" { h N.n p { { { { { { { { { { { { d.}Xs #.^ c u.T.5 m { { { { {",
" { S.bX .H O { { { { { { { { { { { { + $ z } u UX2.5.1 { { { { {",
"...A x.F DX< { { { { { { { { { {XM ).xXf . u U E.5Xi { { { { { {",
" ~.A A A A }XX { { { { { { { {Xg 6.(.L.k u UXS.5.5.1 { { { { { {",
".! A Y.Y.^ AXy { { { { { {XM )XwXd.EXM {.M 8.5.5 4 { { { { { { {",
"Xp C }.Y.QXO { { { { { {Xh.Z.(.xXg { { { { { K Q { { { { { { { J",
" { {XK.YXP { { { { {XM k.r B.d [Xb { { { { { { { { { { { {.C.0 |",
" { { ~X-.h { { { {Xq e.7X>.K.| * 2 { { { { { { { { { { - Z.4 0.J",
" { {.X x H { {XLX$X6X# oXA {XBXuXH { { { { { { { {.;XcX& i R.p {",
" { {.X x H {.o.+.@X# 5 { { {.$X. W { { { { { { ;.{ NXF.U i.b F {",
" { {.<.D 7.o.7.v BXL { { { { jXl G { { { {.&Xv.%.GX4.e.y w.a { {",
" { { { ,Xo.:.` ^XL { { { { { @ !.~ { { { { {XpXFX1.e.eX4.%.j { {",
" { { {.} L.u :XL { { { { { {XN gX. { { { { { {.I t.w a.,.s { { {",
" { { { $.= 'X: { { { { { { {Xx f.] { { { { {.M.6./ XX& %.j { { {",
" { { {X@XJ [ { { { { { { {X;.` fX9 { { { {.M.6.3XC n.bXa { { { {",
" { { {X@.V s { { { { { { { ]X#.[.# { { {.M.6 TXV { {.' / { { { {",
" { { { r M.m { { { { { { {Xk. .uXU { { ` &.R.2 { { { { { { { { {",
" { { {X8.VXH { { { { { { {X5XzXZ { { `.t._.q { { { { { { { { { {",
" { { { ( y   { { { { { { { IX# P {.zX,.P.) { { { { { { { { { { {",
" { { {.i :X0 { { { { { { {X7Xz >XD.~Xt v { { { { { { { { { { { {",
" { { { { 1XI { { { { { { { b.: G W.l l { { { { { { { { { { { { {",
" { { { { { { { { { { { { {XbXr 9.g { { { { { { { { { { { { { { {",
" { { { { { { { { { { { { { { { { { { { { { { { { { { { { { { { {",
" { { { { { { { { { { { { { { { { { { { { { { { { { { { { { { { {",
" { { { { { { { { { { { { { { { { { { { { { { { { { { { { { { { {"
};
