/* XPM */
static const char * IconGenSaveCameraView[] = {
/* width height ncolors chars_per_pixel */
"32 32 60 1",
/* colors */
"  c #AD9996",
". c #7D9BCD",
"X c #333D35",
"o c #263432",
"O c #5F6660",
"+ c #E0C3C1",
"@ c #537054",
"# c #FFDCDC",
"$ c #172319",
"% c #466047",
"& c #709370",
"* c #434C44",
"= c #3B523C",
"- c #CFB5B3",
"; c #2E422F",
": c #4F6681",
"> c #26363B",
", c #7B8FAC",
"< c #58544E",
"1 c #2E4049",
"2 c #5A666A",
"3 c #8D807B",
"4 c #A2D1A3",
"5 c None",
"6 c #EDE3E3",
"7 c #95C196",
"8 c #8AB38B",
"9 c #7DA37E",
"0 c #364956",
"q c #AF9C98",
"w c #B3B8B9",
"e c #203222",
"r c #9E8E8A",
"t c #383B33",
"y c #172523",
"u c #A6B8D7",
"i c #152417",
"p c #99AFD4",
"a c #08140A",
"s c #BCBCBA",
"d c #5E7799",
"f c #7592C0",
"g c #2A3027",
"h c #1F2E30",
"j c #EECECD",
"k c #494942",
"l c #DEEDDE",
"z c #ABAEAC",
"x c #6681A7",
"c c #C8FFC8",
"v c #101D17",
"b c #D7D7D7",
"n c #27383E",
"m c #9EA29F",
"M c #BEA7A4",
"N c #BBEFBB",
"B c #192219",
"V c #8F9490",
"C c #BBBDBB",
"Z c #424E4E",
/* pixels */
"555555bV*Vb5l977aa$5555555555555",
"555555$aaaiNcccc9aaO555555555555",
"55555OaaaaaaNcc7&aa$555555555555",
"55555$a%7;aai;aaaaaaO55555555555",
"5555Caa7cNaaaaaa=9aaX5CXa*b55555",
"5555zaaNcc8aa;NccN=aaz;=aaam5555",
"5555zaaccc7aaic@iaae7cccN;aab555",
"5555zaa7cccaaa;aaaaa8cccc7aaX555",
"55555aa;ccc=aaaai=aaa8cc49aaaC55",
"55555XaaNcc=aaa;cc9aai=aaaaaaX55",
"55*wu,aa&cciaaa9ccciaaaaa=9;aa55",
"5Zaa0.naai=aaaa7cccNaa;4ccc=aaz5",
"boaaavdvaaaaaaa7ccccaa;cccc@aaO5",
"5p:vaaa>yaaaaaa@cccc=aacccc7aa*5",
"5p.f1aaav:aaaaaicccc9aa7ccc7aa*5",
"5p...xvaaaaaj<aa4ccc7aa7ccc9aa*5",
"5p.....0aaaa#jaa@ccc7aa7ccN7aaV5",
"5p......fhaa##+ta8cc@aa&7@iaaab5",
"5p........aa+##aai@9aaaaaaaaam55",
"5p........aaM##qaaaaaaaaaaaa*555",
"5p....dd0naaM###qgaaa<Maajaa*555",
"52nhaaaaaaaaM####jrk-#Maa#aa*555",
"5*aaaaaaaaaaM#########Maa#aa*555",
"5*aaX*Ozz5aaM#########Maa#aa*555",
"5b55555555$a3#########Maa#aa*555",
"5555555555b$aBr#######Maa#aa*555",
"55555555555XaaaBr#####Maa#aa*555",
"55555555555bOaaaaB-###Maa#aa*555",
"5555555555555bO$aaat-#Maa#aa*555",
"5555555555555555V$aaa< aa#aa*555",
"555555555555555555zXaaaaa#a$m555",
"55555555555555555555CXa$s6V55555"
};
