/* XPM */
static const char * noname[] = {
/* width height ncolors chars_per_pixel */
"32 32 171 2",
/* colors */
"   c #69AF51",
" . c #9FDA7C",
" X c #483B07",
" o c #218619",
" O c #9FDD7C",
" + c #8F8F8F",
" @ c #20B016",
" # c #250D10",
" $ c #D7CBCC",
" % c #7F5349",
" & c #C4E79E",
" * c #589E43",
" = c #58A547",
" - c #5C242A",
" ; c #A0DE7C",
" : c #805458",
" > c #4A3E07",
" , c #4A4507",
" < c #4A4807",
" 1 c #7EAE62",
" 2 c #4A4907",
" 3 c #4A4A06",
" 4 c #4A4A07",
" 5 c #FDEC00",
" 6 c #6F4B3C",
" 7 c #392E05",
" 8 c #FEDC00",
" 9 c #FEDD00",
" 0 c #816502",
" q c #3A1115",
" w c #FDFDC7",
" e c #393907",
" r c #FEE700",
" t c #498B37",
" y c #12900C",
" u c #4D151B",
" i c #FFDC00",
" p c #705803",
" a c #947400",
" s c #ECF2BA",
" d c #ECF4BA",
" f c #ECF7BA",
" g c #ECF8BA",
" h c #EEBC00",
" j c #FFF100",
" k c #FFF600",
" l c #4A9638",
" z c #FFF700",
" x c #5BC645",
" c c #FFFB00",
" v c #FFFF00",
" b c #4E2126",
" n c #FFFFFF",
" m c #B99503",
" M c #5F5F5F",
" N c #DCD8D8",
" B c #EEEE00",
" V c #EEEE01",
" C c #398F2B",
" Z c #14990E",
" A c #39912B",
" S c #604E04",
" D c #4BAB39",
" F c #73433D",
" G c #2B150E",
" H c #3A992B",
" J c #3D3907",
" K c #5EB449",
" L c #4CB439",
" P c #4D993C",
" I c #3E2F06",
" U c #3E3207",
" Y c #1A1A08",
" T c #504324",
" R c #3E3908",
" E c #BBBBBB",
" W c #52161C",
" Q c #CDE0A1",
" ! c #CFA400",
" ~ c #2E150F",
" ^ c #DFF3AF",
" / c #2E2507",
" ( c #2B881F",
" ) c #4FA441",
" _ c #403A16",
" ` c #9A7B03",
" ' c #BCD593",
" ] c #F4C000",
" [ c #CEE8A1",
" { c #CEECA1",
" } c #CEEEA1",
" | c #086B04",
".  c #1A7B12",
".. c #1A8212",
".X c #3DBC2D",
".o c #D0C09A",
".O c #F3FBC0",
".+ c #ACACAC",
".@ c #2C9A23",
".# c #BDDF97",
".$ c #BDE094",
".% c #BDE097",
".& c #BDE194",
".* c #BDE394",
".= c #BDE494",
".- c #096F04",
".; c #097104",
".: c #097305",
".> c #097805",
"., c #097905",
".< c #097A05",
".1 c #C09700",
".2 c #BFB803",
".3 c #D1C1C3",
".4 c #1B8913",
".5 c #BEDA95",
".6 c #BFBF03",
".7 c #794D51",
".8 c #433307",
".9 c #441318",
".0 c #0A7506",
".q c #0A7605",
".w c #0A7905",
".e c #0A7C05",
".r c #0A7D05",
".t c #0A8205",
".y c #F7C600",
".u c #AF9496",
".i c #ADD788",
".p c #7A5248",
".a c #8C676B",
".s c #8C6D00",
".d c #444444",
".f c #0B8505",
".g c #0B8805",
".h c #0B8905",
".j c #0B8D05",
".k c #0B9306",
".l c #1DA214",
".z c #9E9E03",
".x c #9DBE7A",
".c c #D5A700",
".v c #E7B600",
".b c #454434",
".n c #454545",
".m c #6A3E42",
".M c #696905",
".N c #69675E",
".B c #9DD07F",
".V c #1E9E14",
".C c #E6E6E6",
".Z c #0C9606",
".A c #0C9706",
".S c #6A5303",
".D c #0C9906",
".F c #7C6203",
".G c #F8F8F8",
".H c #9F9F04",
".J c #351115",
".K c #1F8F16",
".L c #464646",
".P c #9ECD7B",
".I c #B0E489",
".U c #473907",
".Y c #B0E589",
".T c #473B0A",
".R c #594807",
".E c #0D9C07",
".W c #353535",
".Q c #0DA106",
".! c #D5E9A8",
/* pixels */
".C.C.C.C.C.C.C.C.C.C.C.C.C.C.C.C.C.C.C.C.C.C.C.C.C.C.C.C.C.C.C.C",
".C.C.C.C.C.C.C.C.C.C.C.C.C.C.C.C.C.C.C.C.C.C.C.C.C.C.C.C.C.C.C.C",
".C.C.C.C.C.C.C.C.C.C.C.C.C.C.C.C.C.C.C.C.C.C.C.C.C.C.C.C.C.C.C.C",
".C.C.C.C.C.C.7 W W W W % w w w w w w w w w w w w w w w % W W W W",
".C.C.C.C.C.C.7 W W W W % w w w w w w w w w w w w w w w % W W W W",
".C.C.C.C.C.C.7 W W W W % w w w w w w w w w w w w w w w % W W W W",
".C.C.C.+.b.C.7 W W W W % Q H.h.. = w w w w w w w w w w % W W W W",
".C.C.C.+.M +.7 W W W W 6.K   w } @.B w w w w w w w w w % W W W W",
".C.C.C.+ 4.z.m W W W W _.r w w w g w w w w w w w w w w % W W W W",
".C.C.C.+ 4 v.T W W W W T.E.# w w w w Q. .q.% D 1., o.! % W W W W",
".C.C.C.+ 4 v V.J W W W %.Y.V P.5 w d.4.P O y Z.:.$.X l % W W W W",
".C.C.C.+ 4 v v.z.9 W W % w w ;.l ).i t w w ^.A.x w ..> % W W W W",
" Y 4 4 e 4 v v v J W W % w w w w.Q.g ' w w w.Z ' w.=.e % W W W W",
".H v v.6 3 v v v B # W % w w w w L.0 ' w w w.D ' w.=.t % W W W W",
" 4 v v.6 4 v v v v.z.9 % K & w w C.-.@.O s (.j ' w.=.< % W W W W",
" < k k.2 4 v v v v v R.p.I.f |.; A s x.w | *.k ' w.*.< % W W W W",
" X.y.y m 4 v v v v 5.R.p w f.= [ w w w {.& w w w w w w % W W W W",
" / a a p 3 v v c r ` q % w w w w w w w w w w w w w w w % W W W W",
" 7.s.s.S 4 v z 9 ! G W F.o.o.o.o.o.o.o.o.o.o.o.o.o.o.o F W W W W",
".L.n.d.W 2 j 8.v.8 u W W W W W W W W W W W W W W W W W W W W W W",
".C.C.C.+ , i h 0 q W W W W W W W W W W W W W W W W W W W W W W W",
".C.C.C.+ > ].1 ~ W W W W.3.3.3.3.3.3.3.3.3.3.3.3.u W W W W W W W",
".C.C.C.+.U.c I W W W W W n n n n n n n n n n n n.3 W W W W W W W",
".C.C.C.+ U.F b W W W W W n n W W W n n n n n n n.3 W W W W W W W",
".C.C.C.+ S.N.7 W W W W W n n W W W n n n n n n n.3 W W W W W W W",
".C.C.C E M.C N - W W W W n n W W W n n n n n n n.3 W W W W W W W",
".C.C.C.C.C.C.C N - W W W n n W W W n n n n n n n.3 W W W W W W W",
".C.C.C.C.C.C.C.C N - W W n n : : : n n n n n n n.3 W W W W W W W",
".C.C.C.C.C.C.C.C.C N.a.7.G.G.G.G.G.G.G.G.G.G.G.G $.7.7.7.7.7.7.7",
".C.C.C.C.C.C.C.C.C.C.C.C.C.C.C.C.C.C.C.C.C.C.C.C.C.C.C.C.C.C.C.C",
".C.C.C.C.C.C.C.C.C.C.C.C.C.C.C.C.C.C.C.C.C.C.C.C.C.C.C.C.C.C.C.C",
".C.C.C.C.C.C.C.C.C.C.C.C.C.C.C.C.C.C.C.C.C.C.C.C.C.C.C.C.C.C.C.C"
};
