/* XPM */
static const char * IconDataLoad[] = {
/* width height ncolors chars_per_pixel */
"32 32 94 2",
/* colors */
"   c #59FF00",
" . c #1E8402",
" X c #3BF800",
" o c #D1C1C3",
" O c #1C4B07",
" + c #1A4905",
" @ c #9F9F9F",
" # c #2BC601",
" $ c #D7CBCC",
" % c #103805",
" & c #274715",
" * c #0F3804",
" = c #42FF00",
" - c Gray56",
" ; c #174905",
" : c #53FF00",
" > c #343C32",
" , c #144705",
" < c #1F8B02",
" 1 c #3B9E03",
" 2 c #103B04",
" 3 c #39FB00",
" 4 c #794D51",
" 5 c #091207",
" 6 c Gray31",
" 7 c #0E2D05",
" 8 c #353D32",
" 9 c Gray28",
" 0 c #F8F8F8",
" q c Gray27",
" w c #5BFF00",
" e c #47FF00",
" r c #1E8C00",
" t c #1C4905",
" y c #5C242A",
" u c None",
" i c Gray20",
" p c #58FF00",
" a c #44FF00",
" s c #3AFE00",
" d c #194905",
" f c #41FF00",
" g c #0B0B0B",
" h c #27B401",
" j c #070707",
" k c #967679",
" l c #4FFF00",
" z c #3A9E03",
" x c Gray62",
" c c #4CFF00",
" v c #103B05",
" b c #56EE00",
" n c #D0C09A",
" m c #1C3C0A",
" M c #5DFF00",
" N c #209400",
" B c #49FF00",
" V c #53EE00",
" C c #1E4905",
" Z c #144805",
" A c #101D0B",
" S c #1B4905",
" D c #0D1908",
" F c #57FF00",
" G c #32E900",
" H c #805458",
" J c Gray37",
" K c #0D110B",
" L c #54FF00",
" P c #505050",
" I c White",
" U c #164906",
" Y c #464646",
" T c #444444",
" R c #164309",
" E c #134306",
" W c #4EFF00",
" Q c #3AFD00",
" ! c #D7D7D7",
" ~ c #3AEB00",
" ^ c #4BFF00",
" / c #274816",
" ( c #152B0B",
" ) c #30DC00",
" _ c #55EE00",
" ` c #369E03",
" ' c #FDFDC7",
" ] c #37F700",
" [ c #5CFF00",
" { c #0C0C0C",
" } c #52161C",
" | c #DCD8D8",
".  c #1E4906",
".. c #1D4905",
/* pixels */
" u u u u u u u u u u u u u u u u u u u u u u u u u u u u u u u u",
" u u u u u u u u u u u u u u u u u u u u u u u u u u u u u u u u",
" u u u u u u u u u u u u u u u u u u u u u u u u u u u u u u u u",
" u u u u u u u u u u u u u u u u u u u u u u u u u u u u u u u u",
" u u u u u u u u u u u u u u u u u u u u u u u u u u u u u u u u",
" u u u u u u u u u u u u u u u u u u u u u u u u u u u u u u u u",
" } } } } ' ' ' ' ' ' ' ' ' ' ' n } } } 4 u u u u u A i u u u u u",
" } } } } ' ' ' ' ' ' ' ' ' ' ' n } } } 4 u u u u u m j @ u u u u",
" } } } } ' ' ' ' ' ' ' ' ' ' ' n } } } 4 u u u u u {.. / ! u u u",
" } } } } ' ' ' ' ' ' ' ' ' ' ' n } } } 4 u u u u u { C _ P u u u",
" } } } } ' ' ' ' ' ' ' ' ' ' ' n } } } 4 u u u u u { C M z @ u u",
" } } } } ' ' ' ' ' ' ' ' ' ' ' n } } } 4 u u u u u {.  M [ & ! u",
" } } } } ' ' ' ' ' ' ' ' ' ' ' n } } } 4 u g D O O {.. [ M b 6 u",
" } } } } ' ' ' ' ' ' ' ' ' ' ' n } } } 4 u ( ` : : {..   w M 1 x",
" } } } } ' ' ' ' ' ' ' ' ' ' ' n } } } 4 u { + W W { t F p   [ &",
" } } } } ' ' ' ' ' ' ' ' ' ' ' n } } } 4 u { ; a a { S : : : L V",
" } } } } ' ' ' ' ' ' ' ' ' ' ' n } } } 4 u { , ] ] { S l W c B ~",
" } } } } ' ' ' ' ' ' ' ' ' ' ' n } } } 4 u { 7 N N { + ^ B a X Z",
" } } } } } } } } } } } } } } } } } } } 4 u K * r r { d e = 3 < -",
" } } } } } } } } } } } } } } } } } } } 4 u 9 Y q T { ; f Q # 8 u",
" } } } } o I I I I I I I I o } } } } } 4 u u u u u { U s ) 2 ! u",
" } } } } o I H H I I I I I o } } } } } 4 u u u u u { Z G . - u u",
" y } } } o I } } I I I I I o } } } } } 4 u u u u u { E h > u u u",
" | y } } o I } } I I I I I o } } } } } 4 u u u u u { % v ! u u u",
" u | y } o I H H I I I I I o } } } } } 4 u u u u u R 5 - u u u u",
" u u | 4 $ 0 0 0 0 0 0 0 0 $ 4 4 4 4 4 k u u u u u Y J u u u u u",
" u u u u u u u u u u u u u u u u u u u u u u u u u u u u u u u u",
" u u u u u u u u u u u u u u u u u u u u u u u u u u u u u u u u",
" u u u u u u u u u u u u u u u u u u u u u u u u u u u u u u u u",
" u u u u u u u u u u u u u u u u u u u u u u u u u u u u u u u u",
" u u u u u u u u u u u u u u u u u u u u u u u u u u u u u u u u",
" u u u u u u u u u u u u u u u u u u u u u u u u u u u u u u u u"
};
