/* XPM */
static const char * IconCrvAdd[] = {
/* width height ncolors chars_per_pixel */
"32 32 219 2",
/* colors */
"   c #18189C",
" . c #BFABAB",
" X c #6F0707",
" o c #151564",
" O c #ABABAB",
" + c #6B3131",
" @ c #AF8E8E",
" # c #784141",
" $ c #D9D9E2",
" % c #06065F",
" & c #770808",
" * c #6C0707",
" = c #222281",
" - c #BABACA",
" ; c #5A0909",
" : c #6E1616",
" > c #5D5D93",
" , c #894E4E",
" < c #0A0A91",
" 1 c #DFD7D7",
" 2 c #060662",
" 3 c #161675",
" 4 c #414188",
" 5 c #8F8FBA",
" 6 c #9F9FCD",
" 7 c #BABACD",
" 8 c #690707",
" 9 c #600808",
" 0 c #6F1A1A",
" q c #5E0606",
" w c #601515",
" e c #864E4E",
" r c #DCD7D7",
" t c #41418B",
" y c #CAABAB",
" u c #935E5E",
" i c #710808",
" p c #8E1414",
" a c #15156D",
" s c #4545A6",
" d c #660707",
" f c #CCBABA",
" g c #5E5EA4",
" h c #5B0606",
" j c #171786",
" k c #0C0C99",
" l c #060668",
" z c #790909",
" x c #6D6D6D",
" c c #05055D",
" v c #232381",
" b c #C9BABA",
" n c #070776",
" m c #804141",
" M c #0A0A9A",
" N c #731010",
" B c #ABABCE",
" V c #09098F",
" C c #8C1818",
" Z c #9292BC",
" A c #070779",
" S c #550606",
" D c #A95F5F",
" F c #090992",
" G c #3434A5",
" H c #7C0808",
" J c #DCD6D6",
" K c #080887",
" L c #434343",
" P c #11119D",
" I c #07077C",
" U c #8A0F0F",
" Y c #414141",
" T c #B18E8E",
" R c #9E9EBA",
" E c #D7D7DE",
" W c #1A1A9F",
" Q c #161670",
" ! c #18189D",
" ~ c None",
" ^ c #6E0707",
" / c #333333",
" ( c #630606",
" ) c #D7D7E1",
" _ c #810909",
" ` c #985E5E",
" ' c #060660",
" ] c #08088D",
" [ c #BBBBD6",
" { c #414186",
" } c #E0D9D9",
" | c #B89E9E",
".  c #9090C6",
".. c #060663",
".X c #414189",
".o c #730808",
".O c #8A5D5D",
".+ c #680707",
".@ c #5D0606",
".# c #CFB1B1",
".$ c #860A0A",
".% c #070707",
".& c #060666",
".* c #0E0E85",
".= c #C9ABAB",
".- c #373796",
".; c #700808",
".: c #650707",
".> c #CBBABA",
"., c #870E0E",
".< c #5A0606",
".1 c #070774",
".2 c #323287",
".3 c #4F0505",
".4 c #ABABCC",
".5 c #730E0E",
".6 c #1B1BA2",
".7 c #09098D",
".8 c #620707",
".9 c #C8BABA",
".0 c #08086E",
".q c #06066C",
".w c #ABABCF",
".e c #823A3A",
".r c #DBBCBC",
".t c #1717A1",
".y c #7A3232",
".u c #111170",
".i c #C9C9DF",
".p c #D5B6B6",
".a c #07077A",
".s c #080871",
".d c #7C4141",
".f c #5050B1",
".g c #06066F",
".h c #090968",
".j c #DBD6D6",
".k c #131375",
".l c #232388",
".z c #DDDDE5",
".x c #0B0B98",
".c c #8D4E4E",
".v c #090996",
".b c #D7D7DF",
".n c #792020",
".m c #08088B",
".M c #18189E",
".N c #414184",
".B c #A1A1CB",
".V c #6D0707",
".C c #6464A3",
".Z c #0A0A79",
".A c #ACACCF",
".S c #BA9E9E",
".D c #800909",
".F c #08088E",
".G c #161674",
".H c #BBBBD7",
".J c #8C5D5D",
".K c #6A0707",
".L c #C09090",
".P c #701A1A",
".I c #5F0606",
".U c #6C1616",
".Y c #540505",
".T c #611515",
".R c #7D0909",
".E c #DDD7D7",
".W c #060664",
".Q c #ABABC7",
".! c #313177",
".~ c #15156C",
".^ c #8F4242",
"./ c #670707",
".( c #CDBABA",
".) c #A57F7F",
"._ c #5C0606",
".` c #070772",
".' c #7D7DBE",
".] c #060667",
".[ c #171771",
".{ c #C8ABAB",
".} c #15156F",
".| c #080880",
"X  c #15159A",
"X. c #640707",
"XX c #CABABA",
"Xo c #681818",
"XO c #08086C",
"X+ c #0A0A99",
"X@ c #D8D8E2",
"X# c #ABABCD",
"X$ c #16167D",
"X% c #09098E",
"X& c #151572",
"X* c #D2BBBB",
"X= c #610707",
"X- c #7E4141",
"X; c #560606",
"X: c #161616",
"X> c #090991",
"X, c #7D0808",
"X< c #3434A4",
"X1 c #050562",
"X2 c #5F5FB7",
"X3 c #8A1818",
"X4 c #080886",
"X5 c #161697",
"X6 c #A55050",
"X7 c #07077B",
"X8 c #6F6FB6",
"X9 c #BBBBBB",
"X0 c #7B4141",
"Xq c #080808",
"Xw c #BF9E9E",
"Xe c #060606",
"Xr c #D7D7DD",
"Xt c #9C5E5E",
"Xy c #7A0808",
/* pixels */
" ~ ~.z.z ~ ~ ~ ~ ~ ~ ~ ~ ~ ~ ~ ~ ~ ~ ~ ~ ~ ~ ~ ~ ~ ~ ~ ~ ~.> ~ ~",
" ~ $.~.- ~ ~ ~ ~ ~ ~ ~ ~ ~ ~ ~ ~ ~ ~ ~ ~ ~ ~ ~ ~ ~ ~ ~ ~ uX.Xw ~",
" ~ W.6.WX8 ~ ~ ~ ~ ~ ~ ~ ~ ~ ~ ~ ~ ~ ~ ~ ~ ~ ~ ~ ~ ~ ~.SX. * (.>",
" ~.H MX5 2.' ~ ~ ~ ~ ~ ~ ~ ~ ~ ~ ~ ~ ~ ~ ~ ~ ~ ~ ~ ~ f d *X=.) ~",
" ~ ~ 6X+.*.u.A ~ ~ ~ ~ ~ ~ ~ ~ ~ ~ ~ ~ ~ ~ ~ ~ ~ ~.E :.V.I e ~ ~",
" ~ ~ ~X2.x.s v ~ ~ ~ ~ ~ ~ ~ ~ ~ ~ ~ ~ ~ ~ ~ ~ ~ ~ ` ^.8 w ~ ~ ~",
" ~ ~ ~ ~ ! <...C ~ ~ ~ ~ ~ ~ ~ ~ ~ ~ ~ ~ ~ ~ ~ ~.(.V 8X; b ~ ~ ~",
" ~ ~ ~ ~ [.v.a.[ ~ ~ ~ ~ ~ ~ ~ ~ ~ ~ ~ ~ ~ ~ ~ ~Xt.; h.O ~ ~ ~ ~",
" ~ ~ ~ ~ ~ GX% 2.Q ~ ~ ~ ~ ~ ~ ~ ~ ~ ~ ~ ~ ~ ~ ~ i 8.3.j ~ ~ ~ ~",
" ~ ~ ~ ~ ~.wX>.& t ~ ~ ~ ~ ~ ~ ~ ~ ~ ~ ~ ~ ~ ~.{ &.I # ~ ~ ~ ~ ~",
" ~ ~ ~ ~ ~ B ].] 4 ~ ~ ~ ~ ~ ~ ~ ~ ~ ~ ~ ~ ~ ~.=Xy.@.d ~ ~ ~ ~ ~",
" ~ ~ ~ ~ ~.4 K l.N ~ ~ ~ ~ ~ ~ ~ ~ ~ ~ ~ ~ ~ ~ yX,._ m ~ ~ ~ ~ ~",
" ~ ~ ~ ~ ~ g.|X1 > ~ ~ ~ ~ ~ OXqXe Y ~ ~ ~ ~ ~X* _ 8Xo ~ ~ ~ ~ ~",
" ~ ~ ~ ~XrX$ A c - ~ ~ ~ ~ ~ OXq.% Y ~ ~ ~ ~ ~ ~X3.R ;.# ~ ~ ~ ~",
" ~ ~ ~XrX& A.q.! ~ ~ ~ ~ ~ ~ OXqXe Y ~ ~ ~ ~ ~ ~.L.$.5.P.r ~ ~ ~",
" ~ ~Xr.G.1 n.}Xr ~ ~ ~ ~ ~ ~ OXq.% Y ~ ~ ~ ~ ~ ~ ~X6 p 9 0.p ~ ~",
" ~ ~.2 A n 3 7 ~ ~ ~ ~ ~ ~ ~ OXqXe Y ~ ~ ~ ~ ~ ~ ~ 1X6 U N.n } ~",
" ~ 5 I.1 QXr ~ ~ ~ ~ ~ ~ ~ ~ OXq.% Y ~ ~ ~ ~ ~ ~ ~ ~ ~X6.,.@.e ~",
" ~ jX7 ' R ~ ~ ~ ~XeXeXeXeXeXeXq.%XeXeXeXeXeXe O ~ ~ ~ 1 C z S f",
".bX4.g o ~ ~ ~ ~ ~XqXqXqXqXqXqXqXeXeXqXqXqXqXq O ~ ~ ~ ~ D.D.< T",
"X#.m l { ~ ~ ~ ~ ~ L L L L L /Xq.%X: L L L L LX9 ~ ~ ~ ~.= H hX-",
" B.F.q.X ~ ~ ~ ~ ~ ~ ~ ~ ~ ~ OXqXe Y ~ ~ ~ ~ ~ ~ ~ ~ ~ ~.{ &._X0",
" ~ F I.] ~ ~ ~ ~ ~ ~ ~ ~ ~ ~ OXq.% Y ~ ~ ~ ~ ~ ~ ~ ~ ~ ~.^.o.Y .",
" ~X< V % Z ~ ~ ~ ~ ~ ~ ~ ~ ~ OXqXe Y ~ ~ ~ ~ ~ ~ ~ ~ ~.E.V.+.3 J",
" ~. .v.` = ~ ~ ~ ~ ~ ~ ~ ~ ~ OXqXe Y ~ ~ ~ ~ ~ ~ ~ ~ ~ ` X.@ + ~",
" ~ ~  .7.h.B ~ ~ ~ ~ ~ ~ ~ ~ OXqXe Y ~ ~ ~ ~ ~ ~ ~ ~.E./.K S.9 ~",
" ~ ~.H k.Z.k.i ~ ~ ~ ~ ~ ~ ~X9 L Y x ~ ~ ~ ~ ~ ~ ~ ~.U *.I.J ~ ~",
" ~ ~ ~.f P.0.l.z ~ ~ ~ ~ ~ ~ ~ ~ ~ ~ ~ ~ ~ ~ ~ ~ ~.y 8.:.T r ~ ~",
" ~ ~ ~ ~.M.tXO s.z ~ ~ ~ ~ ~ ~ ~ ~ ~ ~ ~ ~ ~ ~ ~ ,./ 8 hXX ~ ~ ~",
" ~ ~ ~ ~ ).MX  a E ~ ~ ~ ~ ~ ~ ~ ~ ~ ~ ~ ~ ~ ~ ~.c.K q | ~ ~ ~ ~",
" ~ ~ ~ ~ ~ ) WX@ ~ ~ ~ ~ ~ ~ ~ ~ ~ ~ ~ ~ ~ ~ ~ ~ ~.c @ ~ ~ ~ ~ ~",
" ~ ~ ~ ~ ~ ~ ~ ~ ~ ~ ~ ~ ~ ~ ~ ~ ~ ~ ~ ~ ~ ~ ~ ~ ~ ~ ~ ~ ~ ~ ~ ~"
};
