/* XPM */
static const char * IconSaveConfiguration[] = {
/* width height ncolors chars_per_pixel */
"32 32 155 2",
/* colors */
"   c Black",
" . c #160F0F",
" X c #402B2B",
" o c Gray67",
" O c #543838",
" + c #5E5C5C",
" @ c #BE7F7F",
" # c #D7D6D6",
" $ c #9F7171",
" % c #D28C8C",
" & c #E89B9B",
" * c #9D9D9D",
" = c #F0DEDE",
" - c #CDCCCC",
" ; c #614141",
" : c #141313",
" > c #8D8D8D",
" , c #3C2D2D",
" < c #444242",
" 1 c #C98686",
" 2 c #FDE7E7",
" 3 c #5A3D3D",
" 4 c #422C2C",
" 5 c #583B3B",
" 6 c #ABAAAA",
" 7 c #AC7373",
" 8 c #755454",
" 9 c #C08080",
" 0 c #D48D8D",
" q c #412E2E",
" w c #251919",
" e c #4F3535",
" r c #654444",
" t c #4D3333",
" y c #8F8E8E",
" u c #8D5E5E",
" i c #A36D6D",
" p c #B97C7C",
" a c #6D6666",
" s c #CD8989",
" d c #0E0C0C",
" f c #080606",
" g c #251F1F",
" h c #5A3C3C",
" j c #6E4949",
" k c #845858",
" l c #986565",
" z c Gray24",
" x c #CCC6C6",
" c c #C28181",
" v c #D89090",
" b c None",
" n c #2F2F2F",
" m c #674545",
" M c #4F3434",
" N c #A77070",
" B c Gray84",
" V c #B97B7B",
" C c #CF8A8A",
" Z c #EDDCDC",
" A c #F9A6A6",
" S c #4D4C4C",
" D c #342323",
" F c #4E4343",
" G c #251E1E",
" H c #704A4A",
" J c #FFFFAB",
" K c #414040",
" L c #B27777",
" P c #9A6666",
" I c Gray73",
" U c #150E0E",
" Y c #553939",
" T c #AAAAAA",
" R c #533737",
" E c #BEB7B7",
" W c #615F5F",
" Q c #745454",
" ! c #BF8080",
" ~ c #BD7E7E",
" ^ c #201515",
" / c #362424",
" ( c #4C3333",
" ) c #624242",
" _ c #8A5C5C",
" ` c #A06B6B",
" ' c #3D2E2E",
" ] c #9E6969",
" [ c #CA8787",
" { c #413F3F",
" } c #C88585",
" | c #BAB9B9",
".  c #2D1E1E",
".. c #976565",
".X c #BBBB7E",
".o c #AB7272",
".O c #C18181",
".+ c #665959",
".@ c #BF7F7F",
".# c #9E9D9D",
".$ c #9C6D6D",
".% c #C68989",
".& c #382525",
".* c #4E3434",
".= c #2F2626",
".- c #644343",
".; c #624141",
".: c #433333",
".> c #8E8D8D",
"., c #B87B7B",
".< c #454242",
".1 c #CC8888",
".2 c #CA8686",
".3 c White",
".4 c #44442D",
".5 c #070505",
".6 c #312121",
".7 c #473030",
".8 c #452E2E",
".9 c #444444",
".0 c #AE7E7E",
".q c #241E1E",
".w c #855959",
".e c #755D5D",
".r c #996666",
".t c #AF7575",
".y c #CDC7C7",
".u c #D78F8F",
".i c #6B5353",
".p c #12120C",
".a c #140E0E",
".s c #120C0C",
".d c #281B1B",
".f c #626161",
".g c #503535",
".h c #664444",
".j c #906060",
".k c #D7D7D7",
".l c #A66F6F",
".z c #784F4F",
".x c #D8CECE",
".c c #CE8989",
".v c #EEDDDD",
".b c #323221",
".n c #090606",
".m c #332222",
".M c #493131",
".N c #472F2F",
".B c #5D3E3E",
".V c #855858",
".C c #7D7171",
".Z c #BBBBBB",
".A c #644848",
".S c #706E6E",
".D c #AA8686",
/* pixels */
" b b b b b b b b b b b z      .X J J J J J J J J J J J J.4      ",
" b b b b b b b b b b b z      .X J J J J J J J J J J J J.4      ",
" b b b b b b b b b b b z      .X J J J J J J J J J J J J.4      ",
" b b b b b b b b b b b z      .X J J J J J J J J J J J J.4      ",
" b b b b b b b b b b b z      .X J J J J J J J J J J J J.4      ",
" b b b b b b b b b b b z      .X J J J J J J J J J J J J.4      ",
" b b b b b b b b b b b z      .X J J J J J J J J J J J J.4      ",
" b b b b b b b b b b b z      .X J J J J J J J J J J J J.4      ",
" b b b b b b b b b b b z      .X J J J J J J J J J J J J.4      ",
" { g D n B b b b b b b z      .X J J J J J J J J J J J J.4      ",
".- A A A.r > b b b b b z      .X J J J J J J J J J J J J.4      ",
" w.- A A A.o : * b b b z      .X J J J J J J J J J J J J.4      ",
" @.. R A A A A.7 S B b z      .b.4.4.4.4.4.4.4.4.4.4.4.4.p      ",
" ~.O.m ; A A A A &.: | z                                        ",
" , 9.O.N ; & A A A A l.s        .9.9.9.9.9.9.9.9.9.9            ",
" B ' C.O ( O A A A A A 4        .3.3.3.3.3.3.3.3.3.3            ",
" b B.q C 9.a R A A A A 4        .3.Z  .9.3.3.3.3.3.3            ",
" b b B 8.c ! h P A A A ;        .3.Z  .9.3.3.3.3.3.3            ",
" b b b B.A s.. ] A A A A.g      .3.Z  .9.3.3.3.3.3.3            ",
" b b b b I O.1 j [ A A A A.6    .3.Z  .9.3.3.3.3.3.3            ",
" b b b b b.#.; q.M A A A & _.d.m.v.v = x.x.y 2 2 Z - z z z z z z",
" b b b b b b.# d A A A A 1.=.O 9 9 9 }.u m U.r A 1.n b b b b b b",
" b b b b b b I.i A A A & Q ).O 9 9 9 C.u v.t.* ^., F b b b b b b",
" b b b b b b + 7 A A A &.h.j.w.z M.h.r 1 v v.u.V ..S b b b b b b",
" b b b b b b K A A A A A & /.f o o o y G.2 v.u 0.% b b b b b b b",
" b b b b b b { k & A A A A & Y * b b b #.e 1.u %.D b b b b b b b",
" b b b b b b B.&.  1 A A A A A O.> b b b b a 5 i.C b b b b b b b",
" b b b b b b 6 c e.5 ..8.8.8 H f W b b b b b # <.k b b b b b b b",
" b b b b b b T c 9.@ u t / X r.$ E b b b b b b b b b b b b b b b",
" b b b b b b I.* 9.@ ~ V L.l `.0 b b b b b b b b b b b b b b b b",
" b b b b b b b.#.B.@ @ p L N ` $.k b b b b b b b b b b b b b b b",
" b b b b b b b b I.+ t _.w 3 4.< b b b b b b b b b b b b b b b b"
};
