/* XPM */
static const char * IconPrintImage[] = {
/* width height ncolors chars_per_pixel */
"32 32 241 2",
/* colors */
"   c #CC6B20",
" . c #CF1509",
" X c #CF713A",
" o c #D17C5D",
" O c #CC3F09",
" + c #464F8A",
" @ c #D2864A",
" # c #CB511F",
" $ c #8F5C3D",
" % c #C63D03",
" & c #CC9390",
" * c #7A4346",
" = c #9D6730",
" - c #D32913",
" ; c #D3704E",
" : c #D42900",
" > c #2F438A",
" , c #D15300",
" < c #884839",
" 1 c #C75000",
" 2 c #6E385B",
" 3 c #213B90",
" 4 c #D41300",
" 5 c #C74800",
" 6 c #D14100",
" 7 c #CC6808",
" 8 c #CF5115",
" 9 c #495475",
" 0 c #434979",
" q c #D48B8A",
" w c #314085",
" e c #4A3C76",
" r c #7D6552",
" t c #824340",
" y c #AC451A",
" u c #CB3711",
" i c #64586B",
" p c #C64002",
" a c #C63C02",
" s c #D4958D",
" d c #C43A00",
" f c #CB5D00",
" g c #2D418E",
" h c #C84711",
" j c #5A3F6B",
" k c #D4726C",
" l c #2A3D8B",
" z c #233C8E",
" x c #C74206",
" c c #BC4F30",
" v c #C66A08",
" b c #765258",
" n c #B32324",
" m c #624D62",
" M c #D4766F",
" N c #D44241",
" B c #D1674B",
" V c #A94F1D",
" C c #5E435E",
" Z c #584262",
" A c #223C90",
" S c #926970",
" D c #D35B4D",
" F c #D24200",
" G c #CB524F",
" H c #C13C03",
" J c #86454D",
" K c #584C65",
" L c #484773",
" P c #CD4A3D",
" I c #66385F",
" U c #D45551",
" Y c #CD591F",
" T c #C04005",
" R c #C54100",
" E c #C53D00",
" W c #C53B00",
" Q c #C53900",
" ! c #484680",
" ~ c #7B4E4F",
" ^ c #2C428C",
" / c #384084",
" ( c #674559",
" ) c #A64120",
" _ c #4E4B7F",
" ` c #C53D03",
" ' c #C75308",
" ] c #B96164",
" [ c #C95C2B",
" { c #84473D",
" } c #223D8F",
" | c #73444A",
".  c #223B8F",
".. c #5D4D7D",
".X c #C64107",
".o c #5A5870",
".O c #C6670A",
".+ c #A22933",
".@ c #BC3C07",
".# c #93533B",
".$ c #D05F00",
".% c #91645A",
".& c #D32300",
".* c #424576",
".= c #203B90",
".- c #D12D15",
".; c #665F61",
".: c #90422E",
".> c #4B396B",
"., c #755E7D",
".< c #C93603",
".1 c #BD5E0E",
".2 c #4F4B72",
".3 c #A87863",
".4 c #B51921",
".5 c #B07C82",
".6 c #253E8E",
".7 c #2B3D8A",
".8 c #253C8E",
".9 c #D43C3C",
".0 c #D37A2A",
".q c #9A4227",
".w c #CB541F",
".e c #CF6865",
".r c #B43F0F",
".t c #C53C02",
".y c #A35B29",
".u c #A78290",
".i c #33468B",
".p c #40497A",
".a c #96555B",
".s c #AA1C23",
".d c #D25D1F",
".f c #2F3E87",
".g c #333F81",
".h c #D43F35",
".j c #D2794D",
".k c #BD3B07",
".l c #424F7F",
".z c #C46767",
".x c #AD5257",
".c c #D1918E",
".v c #374788",
".b c #D36058",
".n c #905662",
".m c #5F5681",
".M c #2E3E89",
".N c #544169",
".B c #273F8C",
".V c #6E5F5E",
".C c #C74900",
".Z c #D23E01",
".A c #B17075",
".S c #D40A00",
".D c #D1837A",
".F c #D40600",
".G c #CD7320",
".H c #D40000",
".J c #96562C",
".K c #B27E79",
".L c #623B66",
".P c #2B4089",
".I c #A7471F",
".U c #6B4251",
".Y c #1F3A91",
".T c #CE310A",
".R c #D03402",
".E c #D3988C",
".W c #C43B00",
".Q c #C43900",
".! c #C43700",
".~ c #484B77",
".^ c #C94E12",
"./ c #D39F43",
".( c #CF7311",
".) c #A16772",
"._ c #D34433",
".` c #783A4D",
".' c #886077",
".] c #B68A58",
".[ c #C28585",
".{ c #594B77",
".} c #C33B02",
".| c #7E514C",
"X  c #374A87",
"X. c #CB8E31",
"XX c #C85200",
"Xo c #D24B00",
"XO c #CD5B51",
"X+ c #D17102",
"X@ c #AA6C21",
"X# c #9B5E65",
"X$ c #CF7821",
"X% c #D23700",
"X& c #CA7326",
"X* c #2B3D88",
"X= c #203B91",
"X- c #C74802",
"X; c #D17130",
"X: c #D03D01",
"X> c #AC3F19",
"X, c #BD6119",
"X< c #845D44",
"X1 c #C53E00",
"X2 c #C53C00",
"X3 c #80425E",
"X4 c #D47D75",
"X5 c #C53A00",
"X6 c #D25731",
"X7 c #3B447D",
"X8 c #4A456E",
"X9 c #AD6A2A",
"X0 c #CA3D12",
"Xq c #D46E6B",
"Xw c #CC5421",
"Xe c #C82524",
"Xr c #455380",
"Xt c #D45440",
"Xy c #CD6104",
"Xu c #5E607E",
"Xi c #D0750A",
"Xp c #545488",
"Xa c #D4706E",
"Xs c #38407D",
"Xd c #233C90",
"Xf c #293B8C",
"Xg c #914236",
"Xh c #D28123",
"Xj c #D05E3F",
"Xk c #C24003",
"Xl c #A04048",
"Xz c #CE5D33",
"Xx c #324384",
"Xc c #3D417B",
"Xv c #784448",
"Xb c #CD6C3F",
"Xn c #D06242",
"Xm c #D36766",
"XM c #614A70",
"XN c #D41A18",
"XB c #CE830E",
/* pixels */
".Y.Y.Y.Y 3 e.`.+.+ 2 /.Y.Y.Y.Y.Y.Y.Y.Y.Y.Y.Y.Y.Y.Y.Y.Y.Y.Y.Y.Y.Y",
".Y.Y 3.` ..H.S.&X:.ZX0 I.Y.Y.Y.Y.Y.Y.Y.Y.Y.Y.Y.Y.Y.Y.Y.Y.Y.Y.Y.Y",
".YXf.4.H.S.RX: 6 ,Xo @.d I.Y.Y.Y.Y.Y.Y.Y.Y.Y.Y.Y.Y.Y.Y.Y.Y.Y.Y.Y",
" 3.4.H 4XoX:X: ) ~ (.%./.T.8.Y.Y.Y.Y.Y.Y.Y.Y.Y.Y.Y.Y.Y.Y.Y.Y.Y.Y",
".L.H 4X% FXg w.Y.Y.Y.YX .T n ~.Y.Y.Y.Y.Y.Y.Y.Y.Y.Y.Y.Y.Y.Y.Y.Y.Y",
".s.F ,.R j.Y.Y.Y.=.Y.Y.M ..< y.Y.Y.Y.Y.Y.Y.Y.Y.Y.Y.Y.Y.Y.Y.Y.Y.Y",
".s :.$.N.Y.Y.Y.6 c l.Y.#X5.Q.q.Y.Y.Y.Y.Y.Y.Y.Y.Y.Y.Y.Y.Y.Y.Y.Y.Y",
" J F $.Y.Y.Y.Y.M.-Xe.M r.Q *.=.Y.Y.Y.Y.Y.Y.Y.Y.Y.Y.Y.Y.Y.Y.Y.Y.Y",
" 9 :.2.Y.Y.Y jXeXN O [Xr c 3.Y.Y.Y.Y.Y.Y.Y.Y.Y.Y.Y.Y.Y.Y.Y.Y.Y.Y",
" }XB u.L lXlXN -X- R.(.{.hXl.Y.Y.Y.Y.Y.Y.Y.Y.Y.Y.Y.Y.Y.Y.Y.Y.Y.Y",
".Y.~X..0 8 -.< QXkXv c._X0X1 0 !.Y.Y.Y.Y.Y.Y.Y.Y.Y.Y.Y.Y.Y.Y.Y.Y",
".Y.Y.v.]X$ f dX>XM P._ a d.rX7 ;...Y.Y.Y ^.%.Y.Y.Y.Y.Y.Y.Y.Y.Y.Y",
".Y.Y.Y 3.o.y *.{ NXw.t d.: / ].b.w.B.Y.YXdXbX3.Y.Y.Y.Y.Y.Y.Y.Y.Y",
".Y.Y.Y.Y.Y.Y.Y.xX6 E T Z.m.e B x WX8.Y.v ] UX6.a.=.Y.Y.Y.Y.Y.Y.Y",
".Y.Y.Y.Y.Y.Y.Y.3 D Y b.) kX6X2X2 ).f.,Xm.b.^.CX+.*.Y.Y.Y.Y.Y.Y.Y",
".Y.Y.Y.Y.Y.Y.YXu 7 ' ;Xq.^X1 H.U >.AXaXn ` d.I.y r.Y.Y.Y.Y.Y.Y.Y",
".Y.Y.Y.Y.Y.Y.Y.6X9XB B.G.! yXs.m.DX4Xw.WX5 t.Y.Y.B.Y.Y.Y.Y.Y.Y.Y",
".Y.Y.Y.Y.Y.Y.Y.Y.Y.oXX 7 { g.u q o.X W.@X<.A _.Y.Y.Y.Y.Y.Y.Y.Y.Y",
".Y.Y.Y.Y.Y.Y.Y.Y.Y A ~X..K.c sXbX5 W.q.7.,X4Xz.~.Y.Y.Y.Y 3 !.=.Y",
".Y.Y.Y.Y.Y.Y.Y.Y.Y.Y.Y.VXh.E   5 H C g.5 q XX$ k.'.Y.Y.Y.n.9 i.Y",
".Y.Y.Y.Y.Y.Y.Y.Y.Y.Y.Y.  =.(Xh V.gXp &.D h 1 1.jX&.Y.Y.Y.; ' =.Y",
".Y.Y.Y.Y.Y.Y.Y.Y.Y.Y.Y.Y.= mXi.3.u.E [.t.} |.>X@.G.zX#.P >.1.#.Y",
".Y.Y.Y.Y.Y.Y.Y.Y.Y.Y.Y.Y.Y.Y 0.O @.G.C.rXc.Y 3 S kXn % K.Y.Y A !",
".Y.Y.Y.Y.Y.Y.Y.Y.Y.Y.Y.Y.Y.Y.Y.2Xy.( < z.Y g.K MXwX5 dX,XO G P x",
".Y.Y.Y.Y.Y.Y.Y.Y.Y.Y.Y.Y.Y.Y.Y.YXc v.i.i +.[ o x W.k ZX# UXt p d",
".Y.Y.Y.Y.Y.Y.Y.Y.Y.Y.Y.Y.Y.Y.Y.Y.YXxXx @.c oX5 W.q _.z D hXy Y *",
".Y.Y.Y.Y.Y.Y.Y.Y.Y.Y.Y.Y.Y.Y.Y.Y.Y.Y.YX,X;  Xk.U.'XqXj % W '.$.p",
".Y.Y.Y.Y.Y.Y.Y.Y.Y.Y.Y.Y.Y.Y.Y.Y.Y.Y.Y w.1.1X7.A k # W dXg.8.|X8",
".Y.Y.Y.Y.Y.Y.Y.Y.Y.Y.Y.Y.Y.Y.Y.Y.Y.Y.Y.Y l $.mX4 h R.@.N.Y.Y.Y.Y",
".Y.Y.Y.Y.Y.Y.Y.Y.Y.Y.Y.Y.Y.Y.Y.Y.Y.Y.Y.Y.Y.Y.l X XX,X*.Y.Y.Y.Y.Y",
".Y.Y.Y.Y.Y.Y.Y.Y.Y.Y.Y.Y.Y.Y.Y.Y.Y.Y.Y.Y.Y.YX=.OXXX-.6.Y.Y.Y.Y.Y",
".Y.Y.Y.Y.Y.Y.Y.Y.Y.Y.Y.Y.Y.Y.Y.Y.Y.Y.Y.Y.Y.Y.Y L.J <.P.Y.Y.Y.Y.Y"
};
