/* XPM */
static const char * IconTransRotateY[] = {
/* width height ncolors chars_per_pixel */
"32 32 242 2",
/* colors */
"   c #231389",
" . c #AC230E",
" X c #D8E1E1",
" o c #93B2B1",
" O c #22147E",
" + c #B1ADC8",
" @ c #220EA9",
" # c #631408",
" $ c #30B2AF",
" % c #AFC9C9",
" & c #8B1C0B",
" * c #339391",
" = c #1F877A",
" - c #675F9D",
" ; c #1D8378",
" : c #6E1D0C",
" > c #146462",
" , c #9E200D",
" < c #230EAD",
" 1 c #1B0B84",
" 2 c #1A0B83",
" 3 c #6A1508",
" 4 c #46ADAA",
" 5 c #20A29F",
" 6 c #551107",
" 7 c #15452E",
" 8 c #1D9592",
" 9 c #146865",
" 0 c #78BBBA",
" q c #1B0B87",
" w c #D7DCDC",
" e c #187976",
" r c #177775",
" t c #190A7B",
" y c #180A7A",
" u c #901D0C",
" i c #211765",
" p c #125B59",
" a c #5C1207",
" s c #1E9996",
" d c #16096E",
" f c #261981",
" g c #D8E0E0",
" h c #2F8E89",
" j c #1C0B8B",
" k c #176361",
" l c #130861",
" z c #48ADB2",
" x c #6F1609",
" c c #230FA9",
" v c #174D36",
" b c #242182",
" n c #20979B",
" m c #170972",
" M c #811A0A",
" N c #228B9D",
" B c #B2AECB",
" V c #146361",
" C c #24A5A2",
" Z c #E0D8D7",
" A c #BDBBCF",
" S c #4D634D",
" D c #1A8381",
" F c #4B5F4B",
" G c #2EA8A5",
" H c #4B8483",
" J c #12075C",
" K c #115857",
" L c #2FACA9",
" P c #531007",
" I c #521006",
" U c #187A78",
" Y c #130760",
" T c #D8D7DF",
" R c #70B6B4",
" E c #171871",
" W c #60BAB8",
" Q c #1B8B88",
" ! c None",
" ~ c #625C4A",
" ^ c #241295",
" / c #1F9C99",
" ( c #1E491E",
" ) c #1E471E",
" _ c #197E7C",
" ` c #A0200D",
" ' c #220EAA",
" ] c #7C2A11",
" [ c #183918",
" { c #B12B17",
" } c #16716F",
" | c #163516",
".  c #166D6F",
".. c #153315",
".X c #8D463C",
".o c #912D1F",
".O c #22AFAC",
".+ c #7F190A",
".@ c #231483",
".# c #1B1585",
".$ c #53B0AE",
".% c #230EAE",
".& c #1A0B84",
".* c #B0CFCE",
".= c #4A477E",
".- c #1E7270",
".; c #180A78",
".: c #531106",
".> c #98CBCA",
"., c #1E9794",
".< c #1D5644",
".1 c #1D9593",
".2 c #146866",
".3 c #D5B2AD",
".4 c #6DBCBA",
".5 c #21A8A4",
".6 c #B1D3D2",
".7 c #13085F",
".8 c #D9D8DF",
".9 c #711609",
".0 c #1F6088",
".q c #145D5C",
".w c #2E2280",
".e c #5B1207",
".r c #BFDAD9",
".t c #1F9B98",
".y c #206B96",
".u c #831A0A",
".i c #D8E2E1",
".p c #21AAA7",
".a c #964F44",
".s c #6E1609",
".d c #52ABA9",
".f c #1C8E8B",
".g c #135F5E",
".h c #190A7F",
".j c #3D5842",
".k c #1E8679",
".l c #15574C",
".z c #14554B",
".x c #1D0B90",
".c c #6157A1",
".v c #A9220E",
".b c #140866",
".n c #3B3375",
".m c #AE4737",
".M c #177472",
".N c #931E0C",
".B c #601308",
".V c #99CCCA",
".C c #216268",
".Z c #BDBDBC",
".A c #1E7E7C",
".S c #1E9693",
".D c #1B5676",
".F c #7C4637",
".G c #21A7A3",
".H c #9A95BE",
".J c #155E5C",
".K c #229DA4",
".L c #478F8D",
".P c #99CECD",
".I c #1F9A97",
".U c #AF2510",
".Y c #521007",
".T c #511006",
".R c #24167F",
".E c #29908D",
".W c #22ABA7",
".Q c #21A9A6",
".! c #AFABC5",
".~ c #1C8D8A",
".^ c #1B8B89",
"./ c #8C1C0B",
".( c #1E9C99",
".) c #303987",
"._ c #22ADAA",
".` c #BAA29E",
".' c #298986",
".] c #220EAB",
".[ c #177371",
".{ c #1FA09D",
".} c #4C624C",
".| c #4B5E4B",
"X  c #B87A71",
"X. c #202377",
"XX c #54B2B0",
"Xo c #3D6051",
"XO c #146664",
"X+ c #230EAF",
"X@ c #426A98",
"X# c #B1D1D0",
"X$ c #20A4A1",
"X% c #BF3F2C",
"X& c #200DA2",
"X* c #1A8684",
"X= c #531107",
"X- c #16096D",
"X; c #7B190A",
"X: c #8D88B0",
"X> c #23177D",
"X, c #1C0B8A",
"X< c #140861",
"X1 c #21A8A5",
"X2 c #187B78",
"X3 c #1B0B89",
"X4 c #701609",
"X5 c #981E0C",
"X6 c #125D5B",
"X7 c #1E9B98",
"X8 c #1F9599",
"X9 c #1D441D",
"X0 c #13615F",
"Xq c #951E0C",
"Xw c #173817",
"Xe c #3C7B7A",
"Xr c #163416",
"Xt c #170974",
"Xy c #54B1AF",
"Xu c #ADBFBE",
"Xi c #1D9290",
"Xp c #3C3377",
"Xa c #9D1F0D",
"Xs c #6DB9B7",
"Xd c #1A0A84",
"Xf c #303315",
"Xg c #177673",
"Xh c #BB9C97",
"Xj c #26307F",
"Xk c #5F1308",
"Xl c #BFD7D6",
"Xz c #1F9895",
"Xx c #1D9693",
"Xc c #B1ACCF",
"Xv c #73190B",
"Xb c #21A7A4",
"Xn c #13075F",
"Xm c #D8D7DE",
"XM c #D7D7DD",
"XN c #671609",
"XB c #220EA6",
"XV c #1B8987",
/* pixels */
" ! ! ! ! ! ! ! ! ! ! ! ! ! ! S..X9 ( ! ! ! ! ! ! ! ! ! ! ! ! ! !",
" ! ! ! ! ! ! ! ! ! ! ! ! ! ! S..X9 ( ! ! ! ! ! ! ! ! ! ! ! ! ! !",
" ! ! ! ! ! ! ! ! ! ! ! ! ! ! S..X9 ( ! ! ! ! ! ! ! ! ! ! ! ! ! !",
" ! ! ! ! ! ! ! ! ! ! ! ! ! ! SXrX9 ( ! ! ! ! ! ! ! ! ! ! ! ! ! !",
" ! ! ! ! ! ! ! ! ! ! ! ! ! ! SXrX9 ( ! ! ! ! ! ! ! ! ! ! ! ! ! !",
" ! ! ! ! ! ! ! ! ! ! ! ! ! ! SXrX9 ( ! ! ! ! ! ! ! ! ! ! ! ! ! !",
" ! ! ! ! ! ! ! ! ! ! ! ! ! ! SXrX9 ( ! ! ! ! ! ! ! ! ! ! ! ! ! !",
" ! ! ! +.H BXcXc A ! !.*.dXy.< |X9 (Xy.$.6.6 g ! ! ! ! ! ! ! ! !",
" ! !.8.R.R.RXB @ '.] c.K C.t v |X9 (XV.~Xi s.{.4 X ! ! ! ! ! ! !",
" ! ! B.R.R.R.R cX+.%.].y Q _ 7 |X9 (X0 V 9.MX*Xx G.> ! ! ! ! ! !",
" ! ! +.R.R.R.R ^ < 'X&X,Xe o.j |X9 ( %.L }.q p }.^ 5 W ! ! ! ! !",
" ! ! ! OX> _ N b ^X&.x - !.Z.F : ] ].3 ! g R h.J 9.f.G.P ! ! ! !",
" ! ! !.c.D /.O.)  .x f !.` 3.u.N `.v .X  ! ! !.> >. Xx.W.r ! ! !",
" ! ! ! %XgX$.O.0.@Xd.H !.: x M uXa {.U ..3 ! ! ! RX6 Q.Q.P ! ! !",
" ! ! ! o D.p.WX. OXp !XhX= 3X; &XqX% {.v.m ! ! ! !.-XgXb $ ! ! !",
" ! ! ! H D.5 n.R.wXM !.X.T.BX4 M./X5 , `X5 ! !XmXpXj. X1.O ! ! !",
" ! ! ! H D 5 zX:.8 ! !.a.e P #.9.+ & u.N./ ! !.nX- t.#.K._ ! ! !",
" ! ! !.L.2 8.pXl ! ! !Xh.s.: 6 #.9X; M.u.X ! A l t 1X3.#X8 ! ! !",
" ! ! !X# p U., L.i ! ! Z.oXN.: IXkXN.s.s.` ! i.;.&X, jX,X@ ! ! !",
" ! ! ! !.EX6X2 8 G.V ! ! Z.oXv a.T.Y 6.` !X:Xt 2X, jX, q 2 A ! !",
" ! ! ! ! X.'X0 r.^X7 GXs X ! ~XfXfXf ! !.* E.&X,X, q 2.h y + ! !",
" ! ! ! ! ! X * kXO eXV.1 / 4 h ;.k =XX.(X$.yX, q 2 t.; m d - ! !",
" ! ! ! ! ! ! X 0 *.J.g } _X*.fXi.S s s.IXz.y tXt d.b.b.7 J.= ! !",
" ! ! ! ! ! ! ! ! g R.A.q KX6XO. .[ rXg.[.2.C.= iX<.7.7Xn Y.! ! !",
" ! ! ! ! ! ! ! ! ! ! ! !Xl %Xo.z.l.lXuXu w ! ! ! ! ! ! ! T ! ! !",
" ! ! ! ! ! ! ! ! ! ! ! ! ! ! F [X9 ( ! ! ! ! ! ! ! ! ! ! ! ! ! !",
" ! ! ! ! ! ! ! ! ! ! ! ! ! ! F [X9 ( ! ! ! ! ! ! ! ! ! ! ! ! ! !",
" ! ! ! ! ! ! ! ! ! ! ! ! ! ! F [X9 ( ! ! ! ! ! ! ! ! ! ! ! ! ! !",
" ! ! ! ! ! ! ! ! ! ! ! ! ! ! F [X9 ( ! ! ! ! ! ! ! ! ! ! ! ! ! !",
" ! ! ! ! ! ! ! ! ! ! ! ! ! ! F [X9 ( ! ! ! ! ! ! ! ! ! ! ! ! ! !",
" ! ! ! ! ! ! ! ! ! ! ! ! ! !.| [X9 ( ! ! ! ! ! ! ! ! ! ! ! ! ! !",
" ! ! ! ! ! ! ! ! ! ! ! ! ! !.}XwX9 ) ! ! ! ! ! ! ! ! ! ! ! ! ! !"
};
