/* XPM */
static const char * IconMenuFnt2Bzr[] = {
/* width height ncolors chars_per_pixel */
"32 32 252 2",
/* colors */
"   c #BFABAB",
" . c #AE9797",
" X c #572424",
" o c #754848",
" O c #7D5D5D",
" + c #552222",
" @ c #7A4343",
" # c #623232",
" $ c #A07C7C",
" % c #6F4242",
" & c #470707",
" * c #644141",
" = c #5B1414",
" - c #3C0606",
" ; c #521515",
" : c #905F5F",
" > c #491616",
" , c #501313",
" < c #967272",
" 1 c #BCABAB",
" 2 c #4E1111",
" 3 c #C9BBBB",
" 4 c #6A3333",
" 5 c #AE9090",
" 6 c #480B0B",
" 7 c #4F0808",
" 8 c #440707",
" 9 c #611313",
" 0 c #390606",
" q c #8D5F5F",
" w c #754E4E",
" e c #723434",
" r c #B9ABAB",
" t c #4B1111",
" y c #500C0C",
" u c #661B1B",
" i c #470D0D",
" p c #E2DDDD",
" a c #641919",
" s c #4C0808",
" d c #5C3232",
" f c #410707",
" g c #DCD7D7",
" h c #836262",
" j c #5A0F0F",
" k c #976F6F",
" l c #7F5E5E",
" z c #936B6B",
" x c #540909",
" c c #643333",
" v c #631B1B",
" b c #440D0D",
" n c #4B0A0A",
" m c #490808",
" M c #5F1717",
" N c #B19C9C",
" B c #4B1717",
" V c #550D0D",
" C c #4A0C0C",
" Z c #510909",
" A c #B4A2A2",
" S c #A38E8E",
" D c #B09E9E",
" F c #5D0E0E",
" G c #461515",
" H c #590A0A",
" J c #490E0E",
" K c #653030",
" L c #6D4545",
" P c #744242",
" I c #4C0707",
" U c #B89F9F",
" Y c #694141",
" T c #410606",
" R c #6D2424",
" E c #C1ABAB",
" W c #431515",
" Q c #580C0C",
" ! c #C3BABA",
" ~ c #540808",
" ^ c #9B7F7F",
" / c #611818",
" ( c #A88F8F",
" ) c #C6B3B3",
" _ c #490707",
" ` c #593131",
" ' c #5F1616",
" ] c #561717",
" [ c #664141",
" { c #3E0606",
" } c #9A7474",
" | c None",
".  c #BEABAB",
".. c #570E0E",
".X c #CBBBBB",
".o c #510808",
".O c #704444",
".+ c #9D7A7A",
".@ c #A58F8F",
".# c #460707",
".$ c #531717",
".% c #3B0606",
".& c #8F5F5F",
".* c #743434",
".= c #845E5E",
".- c #C8BBBB",
".; c #520C0C",
".: c #590909",
".> c #500A0A",
"., c #470B0B",
".< c #4E0808",
".1 c #6B4242",
".2 c #430707",
".3 c #785252",
".4 c #571414",
".5 c #5C0F0F",
".6 c #744E4E",
".7 c #B8ABAB",
".8 c #592323",
".9 c #7E4444",
".0 c #480F0F",
".q c #CCB8B8",
".w c #560909",
".e c #651B1B",
".r c #460D0D",
".t c #631919",
".y c #4B0808",
".u c #C6B2B2",
".i c #875050",
".p c #400707",
".a c #DBD7D7",
".s c #5E2B2B",
".d c #7C4F4F",
".f c #582525",
".g c #471111",
".h c #946D6D",
".j c #550B0B",
".k c #530909",
".l c #621B1B",
".z c #480808",
".x c #9D7979",
".c c #A58E8E",
".v c #8C6565",
".b c #B29E9E",
".n c #794F4F",
".m c #763535",
".M c #481515",
".N c #6E4E4E",
".B c #4D1010",
".V c #540D0D",
".C c #490C0C",
".Z c #500909",
".A c #470A0A",
".S c #450808",
".D c #5B1717",
".F c #AF9E9E",
".G c #764F4F",
".H c #451515",
".J c #C9BEBE",
".K c #5A0C0C",
".L c #5E1D1D",
".P c #651A1A",
".I c #643030",
".U c #631818",
".Y c #4B0707",
".T c #684141",
".R c #400606",
".E c #590E0E",
".W c #582424",
".Q c #570C0C",
".! c #661E1E",
".~ c #641C1C",
".^ c #7B4343",
"./ c #450E0E",
".( c #530808",
".) c #906868",
"._ c #601818",
".` c #480707",
".' c #551717",
".] c #654141",
".[ c #915F5F",
".{ c #4A1616",
".} c #BDABAB",
".| c #865E5E",
"X  c #CABBBB",
"X. c #643636",
"XX c #AF9090",
"Xo c #784343",
"XO c #581D1D",
"X+ c #450707",
"X@ c #D1C5C5",
"X# c #703B3B",
"X$ c #3A0606",
"X% c #876262",
"X& c #8E5F5F",
"X* c #733434",
"X= c #BAABAB",
"X- c #530E0E",
"X; c #4F0A0A",
"X: c #4D0808",
"X> c #6A4242",
"X, c #602B2B",
"X< c #7C4D4D",
"X1 c #4B1313",
"X2 c #703434",
"X3 c #500E0E",
"X4 c #7D4444",
"X5 c #550909",
"X6 c #4C0A0A",
"X7 c #4A0808",
"X8 c #885252",
"X9 c #865050",
"X0 c #C3B0B0",
"Xq c #DAD7D7",
"Xw c #511212",
"Xe c #704E4E",
"Xr c #4F1010",
"Xt c #520909",
"Xy c #9C7979",
"Xu c #C0B0B0",
"Xi c #571111",
"Xp c #673B3B",
"Xa c #471515",
"Xs c #4F0909",
"Xd c #B99F9F",
"Xf c #440808",
"Xg c #5A1717",
"Xh c #A18E8E",
"Xj c #672727",
"Xk c #775151",
"Xl c #4F1616",
"Xz c #370505",
"Xx c #5B0E0E",
"Xc c #6A2020",
"Xv c #681E1E",
"Xb c #491010",
"Xn c #570A0A",
"Xm c #7D4343",
"XM c #C4BABA",
"XN c #550808",
"XB c #450C0C",
"XV c #E0DCDC",
"XC c #621818",
"XZ c #A98F8F",
"XA c #4A0707",
"XS c #885151",
"XD c #DCD8D8",
"XF c #674141",
"XG c #B49D9D",
"XH c #3F0606",
"XJ c #DAD6D6",
"XK c #5D2A2A",
/* pixels */
" | DX+.Y L | | | | | | | | | | | | |.=X: sXp | | | | | | | | | |",
" D _.#Xg B | | | | | | | | | | | | | ]XH._ sX. Y lX=X= | | | | |",
" P TXM.&X;XG | | | | | | | | | | |XZ.< ` g.9X2.< I.2 f {X> A | |",
" Z - | |.U JXy | | | | | | | | | |Xo & r | | | 3   q.^X4.~.,.+ |",
".< [ | | g.UXw } | | | | | | | | |.^.A r | | | | | | | | gX9.yX.",
".o Y | | | gXS n.vXV | | | | | | |X4X:Xu | | | | | | | | | | @.%",
"Xx B | | | | | :.VX,XV | | | | | | :.QX1 <.a | | | | | | | |.DX$",
".: ; N | | | | |Xd Q.0.u | | | | | |.XX*.` { d * ! | ! OXF [.$ 0",
"Xd.K b.q | | | | | g v.B $ | | | | | | |X  e.o 6.}.FX+X:.Y s s.M",
" |XdXn.,.vXV | | | | gXSX6X<XV | | | | | | |.n.`.{ m sXZ. .- | |",
" | |X XvX- KXV | | | | | :.V X ) | | | | |.bX7 >.8X+ S | | | | |",
" | | | |.iXsX,XV | | | | |Xd 9XB.x | | | |.`.M ^X:Xa | | | | | |",
" | | | | |.[ ' XXG | | | | | gXc.C oXV | (.`.NX: f ! | | | | | |",
" | | | | |XJX%Xf cXq | | | | | gXS MXb.q 4XH ; 8.N | | | | | | |",
" | | |XM #X; x.' + {.3 | | | | | |XXXN bX3 WXo.S.7 | | | | | | |",
" | |XqXl.`.|.c.z.L eX:X#XV | | | | | UXj.T.F.D.%Xq | | | | | | |",
" | |Xl.;.G (XiXO.a |.i.lXKX@ | | | | | | | |._ f | | | | | | | |",
" |.d V.6 |.> dXJ | | |.[ u./.u | | | | | | |.& y . | | | | | | |",
".dXAXe | 3 7XF | | | | |Xd R , } | | | | | | g.: i E | | | | | |",
".<XH | |   x Y | | | | | | g a 2 z | | | | | |Xd F.S.h | | | | |",
".( - | | g H.p.J | | | | | | |.i =X#XV | | | | |X .U C k | | | |",
" ~.% | | |XX j.fXV | | | | | | |Xd.j.W ) | | | | | gXv.4.sXV | |",
" e f.a | | |.i.Z.I p | | | | | | |Xd.!.rXy | | | | | g.[ Q t.q |",
"X .5Xk | | | |.i.V k | | | | | | | | g.tXw oXV | | | | |Xd.k.gX0",
" |.* CXD | | | |.e.p.) | | | | | | | | |X8X3 X ) | | | | | U xXB",
" | 5Xt h | | | | gXC.S . | | | | | | | | |XX.E t.+ | | | | | /.2",
" | |.t.S.a | | | |X X5 B | | | | | | | | | |Xd.PXr z | | | |X& I",
" | | U.(.1 | | | | |X*.`.@ | | | | | | | | | | g.mX-.O p | |.  s",
" | | |Xg G | | | | |  X:XF | | | | | | | | | | | |XX..X% | | 1 8",
" |Xq S.%Xz | | | | | 1.R.] | | | | | | | | | | | | |X9 _ h |.GXH",
" | & 0 -.HXFXFXF [.] GXHXh | | | | | | | | | | | | | |.w > d.RXe",
" | v I I I I IX: 7 ] %.1Xq | | | | | | | | | | | | | |XmX:.` w |"
};
