/* XPM */
static const char * IconPanelDependency[] = {
/* width height ncolors chars_per_pixel */
"32 32 64 1",
/* colors */
"  c #676B5B",
". c #9A6969",
"X c #121939",
"o c #505119",
"O c #722727",
"+ c #BEBED1",
"@ c #4F4F99",
"# c #394141",
"$ c #C5B0B0",
"% c #BCBEBE",
"& c #141D19",
"* c #9696BD",
"= c #979A96",
"- c #CACABE",
"; c #5B5B5B",
": c #222919",
"> c #636969",
", c #84845B",
"< c #555519",
"1 c #19197D",
"2 c #262C19",
"3 c None",
"4 c #B7B7A4",
"5 c #691919",
"6 c #404185",
"7 c #717141",
"8 c #4C5141",
"9 c #242727",
"0 c #631919",
"q c #6969A6",
"w c #646641",
"e c #1E2727",
"r c #686D69",
"t c #B0B0CA",
"y c #8A4F4F",
"u c #414192",
"i c #A1A4A4",
"p c #211919",
"a c #DDD8D8",
"s c #AEB0B7",
"d c #A4A696",
"f c #571919",
"g c #8E8E69",
"h c #5F5F27",
"j c #545B5B",
"k c #B59696",
"l c #A4A4C4",
"z c #484F4F",
"x c #D7D8D8",
"c c #7B7B4F",
"v c #AF9696",
"b c #D8D8DF",
"n c #272784",
"m c #CEBEBE",
"M c #814141",
"N c #C0C0B0",
"B c #3E4219",
"V c #0F1919",
"C c #2A3019",
"Z c #7B4141",
"A c #5B5B9F",
"S c #929696",
"D c #DCDCD8",
"F c #ADAD96",
/* pixels */
"33333333333333a.ym33333333333333",
"3333333333333M5555Om333333333333",
"333333333333k555555M333333333333",
"333333333333M5555555a33333333333",
"33333333333355555555$33333333333",
"333333333333O5555555m33333333333",
"333333333333.555555O333333333333",
"333333333333;f55550v333333333333",
"33333333333iVV9.ZpV#333333333333",
"3333333333%VVVi33eVVi33333333333",
"333333333xeVV>333iVVe33333333333",
"33333DgcFjVV#33333#V&wcF33333333",
"3333,<<<<<2ex33333%B<<<<<4333333",
"3334<<<<<<<=333333g<<<<<<<-33333",
"333<<<<<<<<c333333<<<<<<<<c33333",
"33D<<<<<<<<<33333D<<<<<<<<733333",
"33-<<<<<<<<<33333-<<<<<<<<h33333",
"333h<<<<<<<7333333<<<<<<<<c33333",
"333N<<<<<<<-333333g<<<<<<<-33333",
"3333F<<<<h-3333333xC<<<<o-333333",
"33333r::d333333333>V& 8:VS333333",
"33333zVV333333333xVVVx%VV#333333",
"33333#VV33333333b>VVS33eVVs33333",
"333A1116b3333bn111Xe333SX111nb33",
"3bn111111b33l1111116333u111111l3",
"3*1111111A33u1111111b3l1111111u3",
"3n111111113+11111111q3@11111111+",
"3111111111+t11111111@3n11111111t",
"3n111111113+11111111q3@11111111+",
"3q1111111A33n1111111+3l1111111n3",
"33A11111nb33bn11111l333A11111nb3",
"333*u1n*b3333bqn1@+33333tu1nqb33"
};
