/* XPM */
static const char * IconMenuTransform[] = {
/* width height ncolors chars_per_pixel */
"32 32 55 1",
/* colors */
"  c #6D6DB7",
". c #B0B0D1",
"X c #8C8CD2",
"o c #219B68",
"O c #8CB38C",
"+ c #43FD43",
"@ c #A0BBA6",
"# c #37FF37",
"$ c #5A5AC8",
"% c #CDCDDC",
"& c #9797C8",
"* c #5A975A",
"= c #B9B9DC",
"- c #8686C1",
"; c #2D7D2D",
": c #7D440F",
"> c None",
", c #106D10",
"< c #4A4AC4",
"1 c #DAE8DA",
"2 c #C58787",
"3 c #046F04",
"4 c #960000",
"5 c #2CCD4F",
"6 c #8E8EC4",
"7 c #C17C7C",
"8 c #66003A",
"9 c #25AD5F",
"0 c #A9C4A9",
"q c #9CBC9C",
"w c #00207A",
"e c #7CAA7C",
"r c #C8A0A6",
"t c #6464B4",
"y c #4A8E4A",
"u c #AB3D3D",
"i c #A9A9D9",
"p c #C4C4D9",
"a c #9C9CD6",
"s c #D6B9B9",
"d c #B3B3D2",
"f c #0000B4",
"g c #B55A5A",
"h c #656F78",
"j c #9C1010",
"k c #447875",
"l c #D6DDD6",
"z c #E0D6D6",
"x c #006400",
"c c #C78C8C",
"v c #A62D2D",
"b c #D6D6E3",
"n c #B9CDB9",
"m c #DDDDE3",
"M c #D1A9A9",
/* pixels */
">>>>>>>>>>>>>>>lO>>>>>>>>>>>>>>>",
">>>>>>>>>>>>>>>*,>>>>>>>>>>>>>>>",
">>>>>>>>>>>>>>lxxO>>>>>>>>>>>>>>",
">>>>>>>>>>>>>>*xx,>>>>>>>mpp.>>>",
">>>>>>>>>>>>>lxxxxO>>>&ttttt->>>",
">>>>>>>>>>>>>*xxxx,>>>tttttt->>>",
">>>>>>>>>>>>lxxxxxxO>mtttttt->>>",
">>>>>>>>>>>>n00xxe00>> ttttt->>>",
">>>>>>>>>>>>>>>xx0>>>m tttttd>>>",
">>>>>>>>>>>>>>>xx0>>m t  tt6>>>>",
">>>>>>>>>>>>>>>xx0>m t m>%p>>>>>",
">>>>>>>>>>>>>>>xx0m t m>>>>>>>>>",
">>>>>>z2>>>>>>>xx@ t m>>ss>>>>>>",
">>>>zg4u>>>>>>1x3kt m>>>M4vs>>>>",
">>sv444vMMMMMM+###hrMMMM7444jc>>",
"Mv44444444444455##:44444444444jc",
"zg444444444448ff9#:44444444444vs",
">>zg444u>>>>afffo+1>>>>>M444vs>>",
">>>>zg4u>>>afffwx0>>>>>>M4vs>>>>",
">>>>>>z2>>afff<xx0>>>>>>ss>>>>>>",
">>>>>>>>>afff<>xx0>>>>>>>>>>>>>>",
">>>>>=ibafff<>>xx0>>>>>>>>>>>>>>",
">>>>Xffffff<>>>xx0>>>>>>>>>>>>>>",
">>>>ffffff<>>>>xx0>>>>>>>>>>>>>>",
">>>>ffffff=>n00xxe00>>>>>>>>>>>>",
">>>>ffffffX>Oxxxxxx;>>>>>>>>>>>>",
">>>>ffffffi>>,xxxxxn>>>>>>>>>>>>",
">>>>fffff$>>>Oxxxx;>>>>>>>>>>>>>",
">>>b>>>>>>>>>>,xxxn>>>>>>>>>>>>>",
">>>>>>>>>>>>>>Oxx;>>>>>>>>>>>>>>",
">>>>>>>>>>>>>>>,xn>>>>>>>>>>>>>>",
">>>>>>>>>>>>>>>qy>>>>>>>>>>>>>>>"
};
