/* XPM */
static const char * IconGenTesting[] = {
/* width height ncolors chars_per_pixel */
"32 32 244 2",
/* colors */
"   c #128C88",
" . c #CEA7A6",
" X c #A32623",
" o c #367D7A",
" O c #C62F2B",
" + c #0E706D",
" @ c #ADC5C4",
" # c #0B5653",
" $ c #317975",
" % c #962320",
" & c #B92C28",
" * c #2EA5A0",
" = c #177C79",
" - c #8A201E",
" ; c #0D6562",
" : c #14625F",
" > c #AC2925",
" , c #12908B",
" < c #0E7470",
" 1 c #249B96",
" 2 c #0C5A57",
" 3 c #0B5856",
" 4 c #D5B3B3",
" 5 c #10837F",
" 6 c #0D6965",
" 7 c #E0D9D8",
" 8 c #93C3C1",
" 9 c #0F7874",
" 0 c #A82724",
" q c #AECDCB",
" w c #0B5C59",
" e c #84BEBC",
" r c #3E8D8B",
" t c #0E6D69",
" y c #BE2D29",
" u c #496F6B",
" i c #0D6B68",
" p c #8E211E",
" a c #D7DCDC",
" s c #D73531",
" d c #55ABA8",
" f c #B12A26",
" g c #107C78",
" h c #0F7A77",
" j c #A52724",
" k c #A42723",
" l c #BB3633",
" z c #11807C",
" x c #64A9A6",
" c c #189590",
" v c #0D6461",
" b c #B06E6D",
" n c #2F837F",
" m c #0F7370",
" M c #585955",
" N c #0E736F",
" B c #239894",
" V c #0B5755",
" C c #AD3532",
" Z c #804541",
" A c #128480",
" S c #468785",
" D c #B72B28",
" F c #B62B27",
" G c #BCCFCE",
" H c #AA2825",
" J c #A92824",
" K c #436461",
" L c #0F7773",
" P c #63A09E",
" I c #ADCAC9",
" U c #0C5B59",
" Y c #0B5B58",
" T c #118682",
" R c #CDA1A0",
" E c #367775",
" W c #16817D",
" Q c #1E9692",
" ! c #0D6A67",
" ~ c #90221F",
" ^ c #107B77",
" / c #B6CDCB",
" ( c #0D615D",
" ) c #0C5F5C",
" _ c #0B5451",
" ` c #BC2C29",
" ' c #BB2C28",
" ] c #4C9794",
" [ c #AF2926",
" { c #0D6360",
" } c #AE2925",
" | c #B05755",
".  c #138E8A",
".. c #128E89",
".X c None",
".o c #A22623",
".O c #0E726E",
".+ c #A7CAC9",
".@ c #0B5654",
".# c #952320",
".$ c #89201E",
".% c #903532",
".& c #D6C0BF",
".* c #92BFBE",
".= c #CD302C",
".- c #528B89",
".; c #1C6E6B",
".: c #0B5A57",
".> c #118581",
"., c #C12D2A",
".< c #C02D29",
".1 c #AA4A48",
".2 c #0D6966",
".3 c #B42A27",
".4 c #B32A26",
".5 c #0F7875",
".6 c #CA302C",
".7 c #BD2D29",
".8 c #BCD4D3",
".9 c #107C79",
".0 c #B02A26",
".q c #9A4745",
".w c #598E8C",
".e c #0C625E",
".r c #128D88",
".t c #118B87",
".y c #0E716D",
".u c #148480",
".i c #972421",
".p c #0A5552",
".a c #468583",
".s c #D7E0E0",
".d c #B92B28",
".f c #10807C",
".g c #9A3531",
".h c #0D6662",
".j c #0C6461",
".k c #AC2825",
".l c #128F8B",
".z c #CF312D",
".x c #0F7571",
".c c #A12724",
".v c #9F2522",
".b c #0B5956",
".n c #118480",
".m c #92221F",
".M c #B52B27",
".N c #9F4846",
".B c #E0D8D8",
".V c #0E5F5C",
".C c #A82824",
".Z c #0C5D5A",
".A c #9C2522",
".S c #118883",
".D c #9B2521",
".F c #0E6C69",
".G c #8F221F",
".H c #0F7B77",
".J c #2B8582",
".K c #186F6C",
".L c #118A86",
".P c #C72F2B",
".I c #0E706C",
".U c #229590",
".Y c #BA2C28",
".T c #D6C7C7",
".R c #107F7B",
".E c #0C6360",
".W c #AD2925",
".Q c #128E8A",
".! c #4A5E5B",
".~ c #0E726F",
".^ c #0B5855",
"./ c #367472",
".( c #35A29F",
".) c #BCCECE",
"._ c #9F312E",
".` c #E1D9D8",
".' c #2BA39F",
".] c #0F7673",
".[ c #0C5C59",
".{ c #0B5A58",
".} c #118782",
".| c #BF2D29",
"X  c #2CA7A3",
"X. c #1A6360",
"XX c #B32A27",
"Xo c #B22A26",
"XO c #457F7D",
"X+ c #0F7A76",
"X@ c #1C726F",
"X# c #A62724",
"X$ c #128B86",
"X% c #704E4B",
"X& c #0E6F6B",
"X* c #1B6764",
"X= c #0A5350",
"X- c #468381",
"X; c #8C211E",
"X: c #20908D",
"X> c #107E7A",
"X, c #356F6D",
"X< c #90ADAC",
"X1 c #BBC9C9",
"X2 c #117571",
"X3 c #83C2C0",
"X4 c #107370",
"X5 c #944340",
"X6 c #0F736F",
"X7 c #0E716E",
"X8 c #C42E2A",
"X9 c #0B5754",
"X0 c #AE4B49",
"Xq c #B82B28",
"Xw c #B72B27",
"Xe c #0D6663",
"Xr c #618F8E",
"Xt c #66A2A0",
"Xy c #AB2825",
"Xu c #0F7572",
"Xi c #148884",
"Xp c #BBDAD9",
"Xa c #0B5957",
"Xs c #CA8785",
"Xd c #93C4C2",
"Xf c #851F1D",
"Xg c #0F7975",
"Xh c #26A09C",
"Xj c #ADCCCB",
"Xk c #118884",
"Xl c #6F3532",
"Xz c #0E6E6A",
"Xx c #0D6C69",
"Xc c #DBE1E1",
"Xv c #AE322E",
"Xb c #BD2C29",
"Xn c #A64947",
"Xm c #D7DDDD",
"XM c #107D79",
"XN c #18928E",
"XB c #B02926",
"XV c #90ACAB",
"XC c #0C615E",
"XZ c #38514E",
/* pixels */
".X.X.X.X.X.X.X.X.X.X.X.X.X.X.X.X.X.X.X.X.X.X.X.X.X.X.X.X.X.X.X.X",
".X.X.X.X.X.X.X.X.X.X.X.X.X.X.X.X.X.X.X.X.X.X.X.X.X.X.X.X.X.X.X.X",
".X.X.X.X.X.X.X.X.X.X.X.X.X.X.X.X.X.X.X.X.X.X.X.X.X.X.X.X.X.X.X.X",
".X.X.X.X.X.X.X.X.X.X.X.X.X.X.X.X.X.X.X.X.X.X.X.X.X.X.X.X.X.X.X.X",
".X.X.X.X.X.X.X.X.X.X.X.XX1XrXO EX*.a S @.X.X.X.X.X.X.X.X.X.X.X.X",
".X.X.X.X.X.X.X.X.X.XX<X,.pX9 3.b.{.@ V.Z.;Xt.s.X.X.X.X.X.X.X.X 4",
".X.X.X.X.X.X.X.X.X E ).E i.OX+ gX> ^X6 ;.^ Y nXp.X.X.X.&Xs.,.= s",
".X.X.X.X.X.X.XXm oXe + LX+ g.R 5 TXk.LX$.u.F.b r / R lX8.=.z.z O",
".X.X.X.X.X.XXm.- t <.x N < =Xt IXj.* n.r.Q * =.b o.1.P.6.6.P y C",
".X.X.X.X.X.X.w +.xX7 !X@.).X.X.X.`X0 }Xv u ,X X2.b $ lX8XbXo._.`",
".X.X.X.X.X G.~ L.I.E.-.X.X.X.X bXy.M.Y.7.< Z ,XN.FXa M.M H._.B.X",
".X.X.X.X.X P 9.x.eX. a.X.X . C.4Xq `.|.<.,., u.Q A.bX..o.N.B.X.X",
".X.X.X.X.X.5.HXx VXV.X.&X0 [Xw.Y.7.|.<.<.| yXv.rXk 6.ZXV.X.X.X.X",
".X.X.X.X IXM g.eX=.TX0XyXX & ` y.|.| y y `.YXw $.L.] # S.X.X.X.X",
".X.X.X.X I.fXg.bXZ kXB F.Y ` y y yXb '.YXw.3 [X%.SXM.^.a.X.X.X.X",
".X.X.X.X x 5Xu #XZXX D ' `.7Xb ` '.d FXo [Xy j Z.n.9.:X*.X.X.X.X",
".X.X.X.X.* TX+X9XZ & ' ` ` ` ' &Xw.3XBXyX#.v %Xl.fX+.b E.X.X.X.X",
".X.X.X.X qXk.f.{ : ' ' '.YXq D.3 [.k 0.o.i.GXf KX> <.@XO.X.X.X.X",
".X.X.X.X.8.L.} v ).g &Xq F.3XB.k.C.o.D.m.$.q 7 = hXx.pXr.X.X.X.X",
".X.X.X.X ..t.tX6.: M FXX.0.W J X.A.#X;.q.&.X.) < L.jX= @.X.X.X.X",
".X.X.BXn HX%..Xi Y.K.N >.C X.A.# p.% ..X.X.XX@.~.~ )X,.X.X.X.X.X",
".X.B._ H fX5.Q.  = 2 rX5.A.#.G.$ b.X.X.X a.- ! < 6 wXr.X.X.X.X.X",
".X.1 J.W > J K ,X .F.:.K.!Xl b.`.X.X aXVX. ; +.I.E Y ]Xp.X.X.X.X",
" | X 0 j.v.i p K , 1 m.:.: (.;.aX-./ _.:.j.y.O.2Xe i.^.JXp.X.X.X",
".m.D.i ~ -.N 4.X e.lXN z.I ) 3 # #.^ {X& < < tXz.r *X&.bX@X3.X.X",
".cXn | R.`.X.X.X.XXd.Q...L.nXM.5Xu LX+Xg.x +.].U T , 1X2.bX@ eXc",
".X.X.X.X.X.X.X.X.X.X.s 8X:.L.S T 5.R g L P G.( , 1.> ,Xh W.[ ( d",
".X.X.X.X.X.X.X.X.X.X.X.X.X.8 q.* x I I.X.X.X.s.U cX:.I , c.UXC.V",
".X.X.X.X.X.X.X.X.X.X.X.X.X.X.X.X.X.X.X.X.X.X.X.s , Q W i  XN B.h",
".X.X.X.X.X.X.X.X.X.X.X.X.X.X.X.X.X.X.X.X.X.X.X.X.+ ,XhX4 Y   , *",
".X.X.X.X.X.X.X.X.X.X.X.X.X.X.X.X.X.X.X.X.X.X.X.X.XXd ,.'.y wXi ,",
".X.X.X.X.X.X.X.X.X.X.X.X.X.X.X.X.X.X.X.X.X.X.X.X.X.X d , *.2 U.u"
};
