/* XPM */
static const char * IconDataLoadNewScene[] = {
/* width height ncolors chars_per_pixel */
"32 32 174 2",
/* colors */
"   c #56575B",
" . c #49DD01",
" X c #CDCDA8",
" o c #59FF00",
" O c #1E8402",
" + c #91998E",
" @ c #3BF800",
" # c #D1C1C3",
" $ c #1E0E10",
" % c #9F9F9F",
" & c #2BC601",
" * c #F3F3C3",
" = c #C3C4AB",
" - c #B6A3A5",
" ; c #42FF00",
" : c #BFAFB1",
" > c Gray56",
" , c #C9BDBE",
" < c #53FF00",
" 1 c #113009",
" 2 c #112E09",
" 3 c #144B05",
" 4 c #1F2C1A",
" 5 c #4A4C62",
" 6 c #494C61",
" 7 c #1F8B02",
" 8 c #2C1013",
" 9 c #1F4C09",
" 0 c #41BD02",
" q c #A0A195",
" w c #3A3C52",
" e c #494B5A",
" r c #568542",
" t c #2D2F4F",
" y c #39FB00",
" u c #794D51",
" i c #CDCEAD",
" p c #3AEB01",
" a c #344B1A",
" s c #34BE02",
" d c #239802",
" f c #9E9E8C",
" g c #ECECBE",
" h c #6D6F73",
" j c #45BE02",
" k c #BCBC9C",
" l c #5D3C3F",
" z c Gray27",
" x c #31BE02",
" c c #5BFF00",
" v c #196F02",
" b c #9D9E8E",
" n c #47FF00",
" m c #336C15",
" M c #1E8C00",
" N c #27B102",
" B c #484A55",
" V c #696B72",
" C c #7F5349",
" Z c None",
" A c #CFCFAB",
" S c #38BD02",
" D c #CDCDA9",
" F c #58FF00",
" G c #0D103C",
" H c #44FF00",
" J c #484A58",
" K c #3F7331",
" L c #73433D",
" P c #3AFE00",
" I c #495645",
" U c #3FBE02",
" Y c #60804E",
" T c #F3EFEF",
" R c #41FF00",
" E c #2F3253",
" W c #46BD02",
" Q c #93948A",
" ! c #3C6731",
" ~ c #3CBE02",
" ^ c #272A4B",
" / c #393B56",
" ( c #4A4C60",
" ) c #27B401",
" _ c #1A1D48",
" ` c #4AAE13",
" ' c #967679",
" ] c #43BD02",
" [ c #4F5268",
" { c #ACACAC",
" } c #4FFF00",
" | c #1B1E42",
".  c #6C6D6D",
".. c Gray62",
".X c #CDCEAB",
".o c #2CBD02",
".O c #9E9F94",
".+ c #4CFF00",
".@ c #ECECBC",
".# c #D0C09A",
".$ c #1B4C09",
".% c #3DBD02",
".& c #5DFF00",
".* c #232546",
".= c #209400",
".- c #9FA08E",
".; c #494B5E",
".: c #49FF00",
".> c #9B7A73",
"., c #BCBC9D",
".< c #3ABD02",
".1 c #56575A",
".2 c #BBBC9C",
".3 c #282D0F",
".4 c #D6D7B3",
".5 c Gray44",
".6 c #5B5D62",
".7 c #507D43",
".8 c #3B3D53",
".9 c #57FF00",
".0 c #32E900",
".q c #393B51",
".w c #805458",
".e c #5C5D66",
".r c #54FF00",
".t c #5F804E",
".y c #0B0E3E",
".u c #2AB802",
".i c White",
".p c #4BAE12",
".a c #45BD02",
".s c #2B2D46",
".d c #D5CAAE",
".f c #464646",
".g c #196E02",
".h c #4A4C61",
".j c #080B34",
".k c Gray93",
".l c #484955",
".z c #1F130F",
".x c #F7F7CF",
".c c #696A72",
".v c Gray21",
".b c #441419",
".n c #797B7B",
".m c #9E9F92",
".M c #383A4F",
".N c #4EFF00",
".B c #080B37",
".V c #568541",
".C c #3AFD00",
".Z c #6A6C76",
".A c #1D4C09",
".S c #D7D7D7",
".D c #BCBDA2",
".F c #9FA08C",
".G c #4BFF00",
".H c #30DC00",
".J c #56EE01",
".K c #55EE00",
".L c #ECECBD",
".P c #FDFDC7",
".I c #46BE02",
".U c #37F700",
".Y c #557543",
".T c #5E2628",
".R c #626471",
".E c #5CFF00",
".W c #A1A291",
".Q c #53EE01",
".! c #52161C",
".~ c #191B3D",
".^ c #174A09",
"./ c #BCBC9E",
/* pixels */
" Z Z Z Z Z Z Z Z Z Z Z Z Z Z Z Z Z Z Z Z Z Z Z Z Z Z Z Z Z Z Z Z",
" Z Z Z Z Z Z Z Z Z Z Z Z Z Z Z Z Z Z Z Z Z Z Z Z Z Z Z Z Z Z Z Z",
" Z Z Z Z Z Z Z Z Z Z Z Z Z Z Z Z Z Z Z Z Z Z Z Z Z Z Z Z Z Z Z Z",
" Z Z Z Z Z Z Z Z Z Z Z Z Z Z Z Z Z Z Z Z Z Z Z Z Z Z Z Z Z Z Z Z",
" u u u u.d.x.x.x.x.x.x.x.x.x.x.x.x.x.> u u u ' Z Z Z Z Z Z Z Z Z",
".!.!.!.!.#.P.P.P.P.P.P.P.P.P.P.P.P.P C.!.!.! u Z Z Z Z Z Z Z Z Z",
".!.!.!.!.#.P.P.P.P.P.P.P.P.P.P.P.P.P C.!.!.! u Z Z I > Z Z Z Z Z",
".!.!.!.!.# i. .P.P.P.n X B.~.B.q.4.P C.!.!.! u Z Z.Y m.S Z Z Z Z",
".!.!.!.!.#.D |.P.P.P (.6.e.P.P g [.P C.!.!.! u Z Z.f j.t Z Z Z Z",
".!.!.!.!.#.D.j.F.P.P.h.B.,.P.P.P.P.P C.!.!.! u Z Z.f W.K % Z Z Z",
".!.!.!.!.#.D.l.s.P.P 5 ^.R.P.P.P.P.P C.!.!.! u Z Z.f.I.& `.S Z Z",
".!.!.!.!.#.D e.m.-.P 5./.Z.8 A.P.P.P C.!.!.! u Z Z.f.I.&.E Y Z Z",
".!.!.!.!.#.D J.P t.P 6./.P g V.* *.P C.!.! 8 a.V r 4.a.E.&.J.. Z",
".!.!.!.!.#.D J.P q.W.h.,.P.P.P g w.P C.!.!.3 . < < 9 ] o c.&.p.S",
".!.!.!.!.#.D J.P.P E 5.,.P.P.P.P /., C.!.! $ ~.N.N.A 0.9 F o.E Y",
".!.!.!.!.#.D J.P.P.O.y Q =.P.P.P.M.2 C.!.! $ s H H.$ U < < <.r.Q",
".!.!.!.!.#.D J.P.P.P _ h G f k.1  .P C.!.! $.u.U.U.^.% }.N.+.: p",
".!.!.!.!.#.L D.P.P.P.X.@ g.c.; b.P.P C.!.! $ v.=.= 1.<.G.: H @ K",
".!.!.!.! L C C C C C C C C C C C C C.T.!.!.z.g M M 2 S n ; y 7.S",
".!.!.!.!.!.!.!.!.!.!.!.!.!.!.!.!.!.!.!.!.!.b l { {.v s R.C & + Z",
".!.!.!.!.!.w.w.w.w.w.w.w.w.w.w.w.!.!.!.!.!.! u Z Z.f x P.H ! Z Z",
".!.!.!.!.!.i.i.i.i.i.i.i.i.i.i.i.!.!.!.!.!.! u Z Z.f.o.0 O.S Z Z",
".!.!.!.!.!.i #.!.! #.i.i.i.i.i.i.!.!.!.!.!.! u Z Z.f N ) + Z Z Z",
".!.!.!.!.!.i #.!.! #.i.i.i.i.i.i.!.!.!.!.!.! u Z Z z d ! Z Z Z Z",
" -.!.!.!.!.i #.!.! #.i.i.i.i.i.i.!.!.!.!.!.! u Z Z.7 3.S Z Z Z Z",
" Z -.!.!.!.i #.!.! #.i.i.i.i.i.i.!.!.!.!.!.! u Z Z.5.. Z Z Z Z Z",
" Z Z -.!.!.i T # # T.i.i.i.i.i.i.!.!.!.!.!.! u Z Z Z Z Z Z Z Z Z",
" Z Z Z , :.k.k.k.k.k.k.k.k.k.k.k : : : : : : , Z Z Z Z Z Z Z Z Z",
" Z Z Z Z Z Z Z Z Z Z Z Z Z Z Z Z Z Z Z Z Z Z Z Z Z Z Z Z Z Z Z Z",
" Z Z Z Z Z Z Z Z Z Z Z Z Z Z Z Z Z Z Z Z Z Z Z Z Z Z Z Z Z Z Z Z",
" Z Z Z Z Z Z Z Z Z Z Z Z Z Z Z Z Z Z Z Z Z Z Z Z Z Z Z Z Z Z Z Z",
" Z Z Z Z Z Z Z Z Z Z Z Z Z Z Z Z Z Z Z Z Z Z Z Z Z Z Z Z Z Z Z Z"
};
