/* XPM */
static const char * IconGrid[] = {
/* width height ncolors chars_per_pixel */
"32 32 69 1",
/* colors */
"  c #ABAAB5",
". c #464173",
"X c #0B0543",
"o c #6E6C83",
"O c #090437",
"+ c #423F5E",
"@ c #090536",
"# c #08042B",
"$ c #0B0645",
"% c #0A053A",
"& c #090539",
"* c #43405E",
"= c #42405D",
"- c #08042E",
"; c #07042D",
": c #363265",
"> c #0C0649",
", c #BABAC2",
"< c #0A053D",
"1 c #D7D7DB",
"2 c #080431",
"3 c #0B0541",
"4 c #0A0540",
"5 c None",
"6 c #ABAAB6",
"7 c #363161",
"8 c #0B0544",
"9 c #090438",
"0 c #0B0643",
"q c #0A0538",
"w c #090537",
"e c #42405B",
"r c #08042C",
"t c #07042B",
"y c #0C0647",
"u c #0A053B",
"i c #43405F",
"p c #42405E",
"a c #08042F",
"s c #07042E",
"d c #ACABBC",
"f c #363266",
"g c #0C064A",
"h c #0B053F",
"j c #0A053E",
"k c #090433",
"l c #191446",
"z c #ABAAB4",
"x c #BBBAC7",
"c c #0B0542",
"v c #0A0541",
"b c #1B1555",
"n c #090436",
"m c #0C0645",
"M c #0B0644",
"N c #0A0539",
"B c #090538",
"V c #42405C",
"C c #08042D",
"Z c #07042C",
"A c #827F9E",
"S c #0C0648",
"D c #807E92",
"F c #0A053C",
"G c #080430",
"H c #363267",
"J c #0B0540",
"K c #0A053F",
"L c #090434",
/* pixels */
"5,iiiiiiiiiiiiiiiiiiiiiiiiiiiio5",
"x:Z<<<<<<<3k%<<<<<<<c;<<<<<<<3lo",
"d>#.......bw7.......g;.......bK*",
"d>t5555555.B 5555555gZ5555555.4=",
"d>t5555555.% 5555555g-5555555.cV",
"dgZ5555555.Fz5555555ga5555555.0e",
"dSZ5555555.<z5555555g25555555.h+",
"d>Z5555555.9 5555555g-5555555.4p",
"d>t5555555.w65555555g;5555555.3=",
"dg;5555555.N65555555g-5555555.0p",
"dgGCCCCCCCcF-CCCCCCCg2CCCCCCCcmi",
"dSZggggggggjXggggggggkggggggggj*",
"d>C5555555.v65555555g@5555555.v*",
"dg;5555555.O65555555g;5555555.0p",
"dg-5555555.&65555555g-5555555.m=",
"d>-5555555.%65555555g-5555555.Mp",
"d>Z5555555.<65555555ga5555555.K*",
"d>r5555555.j65555555g25555555.3*",
"dgC5555555.<65555555g25555555.X*",
"dg;6666666HOD6666666g;6666666f$p",
"dg;nnnnnnnM&LnnnnnnngsnnnnnnnMMp",
"d>Z.......b%7.......g-.......bK*",
"d>r5555555.u65555555g-5555555.3*",
"dgC5555555.F65555555ga5555555.c*",
"dgC5555555.q65555555g-5555555.8*",
"dSZ5555555.O65555555g;5555555.K*",
"dSZ5555555.B65555555gs5555555.K*",
"d>r5555555.&65555555g-5555555.J*",
"d>r5555555.%65555555g-5555555.c*",
"dgCZZZZZZZ3u;ZZZZZZZg-ZZZZZZZ3X*",
"1AcSSSSSSSg$ySSSSSSSgXSSSSSSSg:,",
"51ddddddddddddddddddddddddddddx5"
};
