/* XPM */
static const char * IconPSketch[] = {
/* width height ncolors chars_per_pixel */
"32 32 123 2",
/* colors */
"   c #13130C",
" . c #9F9F9C",
" X c #11110A",
" o c #0F0F08",
" O c #54544F",
" + c #0D0D06",
" @ c #52524D",
" # c #939390",
" $ c #3C3C34",
" % c #91918E",
" & c #4A4A45",
" * c #464641",
" = c #838380",
" - c #C8C8C7",
" ; c #383833",
" : c #24241C",
" > c #202018",
" , c #BCBCBB",
" < c #14140C",
" 1 c #12120A",
" 2 c #101008",
" 3 c #949490",
" 4 c #494943",
" 5 c #8E8E8A",
" 6 c #888884",
" 7 c #848480",
" 8 c #393933",
" 9 c #23231A",
" 0 c #787874",
" q c #212118",
" w c #BDBDBB",
" e c #2B2B25",
" r c #B7B7B5",
" t c #17170E",
" y c #15150C",
" u c #13130A",
" i c #AFAFAD",
" p c #585851",
" a c #111108",
" s c #ADADAB",
" d c #1D1D17",
" f c #62625E",
" g c #4A4A43",
" h c None",
" j c #0D0D07",
" k c #52524E",
" l c #3C3C35",
" z c #91918F",
" x c #3A3A33",
" c c #28281E",
" v c #464642",
" b c #BABAB7",
" n c #CACACA",
" m c #2A2A23",
" M c #6D6D68",
" N c #16160C",
" B c #14140A",
" V c #AEAEAB",
" C c #202019",
" Z c #1E1E17",
" A c #63635E",
" S c #A2A29F",
" D c #12120B",
" F c #101009",
" G c #0E0E07",
" H c #53534E",
" J c #DDDDDC",
" K c #DBDBDA",
" L c #92928F",
" P c #494944",
" I c #474742",
" U c #313129",
" Y c #373732",
" T c #33332E",
" R c #666660",
" E c #1F1F17",
" W c #BBBBBA",
" Q c #17170F",
" ! c #15150D",
" ~ c #13130B",
" ^ c #111109",
" / c #0F0F07",
" ( c #54544E",
" ) c #1B1B16",
" _ c #93938F",
" ` c #4A4A44",
" ' c #40403A",
" ] c #858581",
" [ c #3A3A34",
" { c #363630",
" } c #C2C2C0",
" | c #24241B",
".  c #222219",
".. c #30302A",
".X c #BCBCBA",
".o c #2C2C26",
".O c #1A1A11",
".+ c #18180F",
".@ c #16160D",
".# c #B2B2B0",
".$ c #14140B",
".% c #121209",
".& c #AEAEAC",
".* c #63635F",
".= c #1C1C16",
".- c #4B4B44",
".; c #A0A09E",
".: c #53534F",
".> c #3B3B34",
"., c #D7D7D7",
".< c #232319",
".1 c #72726D",
".2 c #19190F",
".3 c #15150B",
".4 c #131309",
".5 c #23231C",
".6 c #1F1F18",
".7 c #64645F",
".8 c #1D1D16",
".9 c #4C4C44",
".0 c #5C5C57",
".q c #15150E",
".w c #A1A19E",
/* pixels */
" h h h.,.= G / / G G G I L.X h h h h h h h h h h h h h h h h h h",
" h h., 2 ^.% > `.-.4 u.% 2 / G P.# h h h h h h h h h h h h h h h",
" h h 4 2 O., h h h h h w #.-. .%   M h h h h h h h h h h h h h h",
" h h.% / s h h h h h L L h h h 3 q X ( h h h h h h h h h h h h h",
" h.&.2 o b h h h h., E 2 v h h h S | !.7 h h h h h h h h h h h h",
" h h p c.q r h h h.* a G W h h h h.,.  2.0 h h h h h h h h h h h",
" h h h p.2 C., h., 2 2 Y h h h h h , ^.% G 0 h 4.X h h h h h h h",
" h h h h.  2 s h Z a G W h h h h h V.4 a / o 7 a G W h h h h h h",
" h h h h # 2 I O 2 2 f n h h h h h w B a o / a / f h h h h h h h",
" h h h h ` 2 G 2 ^ j + 8 h h h h h h # ^ G ^ a + i h h h h h h h",
" h h h h 4 o o 2 G o a ^., h h h h h V.% + 2 / 2 / m J h h h h h",
" h., T & j / 2 < a a L , h h h h h h ` 2 / a j.$.3.O { h h h h h",
" h U y 2 2 2.6.%.8., h h h h., h h h.> / a / F.o ] u G h h h h 5",
" h.,.- $ _ -.% 2 % h h h.X 8.8 . h h ^ 2 2.= N ~ G 2.= h h h., a",
" h h h h h 4 u u.* h h h [ ^ u G h , ^ a G % S. .% E., h h h.7 2",
" h h h h h ,.> B D @ e I.% / 2 +.,.7 2 a.= h h h h h h h h h.6 o",
" h h h h h h h.<.+ 2.% u.% G /.8., E ^ / % h h h h h h h h L a.=",
" h h h h h h h h 3 g V l t.. s., z a ^ +., h h h h h h h h.6 / %",
" h h h h h h h h h h h w B <.5 s ).% / f h h.,., h h h h L a j h",
" h h h h h h h h h h h h S B.% / o u 2.X h L G G d 6 h., E o f h",
" h h h h h h h h h h h h h., #.> 2 B ^ h., a Q.$ :., h.* a +., h",
" h h h h h h h h h h h h h h h V.% B o o Z.@ j -., h , 2 2 * h h",
" h h h h h h h h h h h h h h h ` a =.9 B.% 2 z h h h Z a G.: h h",
" h h h h h h h h h h h h h h h $ X.X h S. .$ s h h O o o Q o e }",
" h h h h h h h h h h h h h h h.4 j h h h R u ' h H / 2 a $.  2 s",
" h h h h h h h h h h h h h h w.% v h h h., 9 2 D G 2 2 ; h # 2 z",
" h h h h h h h h h h h h h h.&.3 8 h h h h S.$ a a ^ G W h.7 / f",
" h h h h h h h h h h h h h h., B   h h h h h h h , A k h.w 2 j.,",
" h h h h h h h h h h h h h h h B 1.1 K h h h h h h h h.; G G.; h",
" h h h h h h h h h h h h h h h S 9 2 F 4 L , h h h W f o o.; h h",
" h h h h h h h h h h h h h h h h., R B ^ / G.= I Y G 2 2.w h h h",
" h h h h h h h h h h h h h h h h h h., # l.4.% ^ a a x , h h h h"
};
