/* XPM */
static const char * IconIsoparam[] = {
/* width height ncolors chars_per_pixel */
"32 32 216 2",
/* colors */
"   c #BCBBBF",
" . c #130E2D",
" X c #919098",
" o c #464455",
" O c #1B1638",
" + c #676572",
" @ c #1D1930",
" # c #1C192F",
" $ c #191436",
" % c #161233",
" & c #625F6D",
" * c #151032",
" = c #141031",
" - c #130E30",
" ; c #231F39",
" : c #474459",
" > c #1F1B35",
" , c #0D0920",
" < c #AEADB4",
" 1 c #1B1731",
" 2 c #646172",
" 3 c #636171",
" 4 c #3D3A4F",
" 5 c #4E4A63",
" 6 c #17132D",
" 7 c #4C4861",
" 8 c #39364B",
" 9 c #14112A",
" 0 c #110D27",
" q c #100D26",
" w c #0F0B25",
" e c #0E0B24",
" r c #A09FA6",
" t c #666377",
" y c #535161",
" u c #181331",
" i c #3C3851",
" p c #3B3850",
" a c #120D2B",
" s c #110D2A",
" d c #9D9BA6",
" f c #181334",
" g c #BCBCC1",
" h c #29263E",
" j c #140F30",
" k c #130F2F",
" l c #120D2E",
" z c #93919C",
" x c #DCDBDD",
" c c #92919B",
" v c #D7D7D8",
" b c #444155",
" n c #0D0A1F",
" m c #1E1A33",
" M c #1D1A32",
" N c #646271",
" B c #ADACB2",
" V c #3C394D",
" C c #3A374B",
" Z c #6C6A7C",
" A c #120E27",
" S c #100C25",
" D c #0F0C24",
" F c #0F0A24",
" G c #0E0A23",
" H c #0D0A22",
" J c #646274",
" K c #757288",
" L c #14102C",
" P c #231E3E",
" I c #221E3D",
" U c #110C29",
" Y c #100C28",
" T c #0F0C27",
" R c #322F46",
" E c #1D1838",
" W c #545264",
" Q c None",
" ! c #1C192D",
" ~ c #3D3954",
" ^ c #BEBDC2",
" / c #BBBBBF",
" ( c #14102F",
" ) c #130E2E",
" _ c #120E2D",
" ` c #494659",
" ' c #58546B",
" ] c #211D35",
" [ c #1E1B32",
" { c #171235",
" } c #615F6D",
" | c #141032",
".  c #94929F",
".. c #4A465D",
".X c #49465C",
".o c #0F0B23",
".O c #0E0B22",
".+ c #0C0920",
".@ c #AEADB5",
".# c #646173",
".$ c #110D28",
".% c #221D3C",
".& c #100B27",
".* c #0F0B26",
".= c #A19FA8",
".- c #A09FA7",
".; c #666378",
".: c #413E57",
".> c #120D2C",
"., c #110D2B",
".< c #A2A1AC",
".1 c #1B1738",
".2 c #1D1A30",
".3 c #2B2841",
".4 c #BDBCC3",
".5 c #161133",
".6 c #62606D",
".7 c #151132",
".8 c #140F31",
".9 c #130F30",
".0 c #93919D",
".q c #92919C",
".w c #383547",
".e c #24203A",
".r c #D9D9DB",
".t c #D7D7D9",
".y c #686676",
".u c #545169",
".i c #0E0A21",
".p c #0D0A20",
".a c #1C1832",
".s c #403D52",
".d c #AEACB4",
".f c #ADACB3",
".g c #130E29",
".h c #120E28",
".j c #100C26",
".k c #0F0C25",
".l c #201C39",
".z c #0E0A24",
".x c #9E9CA4",
".c c #858392",
".v c #3B3750",
".b c #3A374F",
".n c #A4A2AD",
".m c #110C2A",
".M c #100C29",
".N c #211C3D",
".B c #464454",
".V c #1B1637",
".C c #C0BFC5",
".Z c #1D192F",
".A c #1C192E",
".S c #1B192D",
".D c #3C3954",
".F c #BEBDC3",
".G c #BDBDC2",
".H c #171233",
".J c #161232",
".K c #BCBBC1",
".L c #151031",
".P c #141030",
".I c #130E2F",
".U c #120E2E",
".Y c #DDDCDE",
".T c #93929C",
".R c #58546C",
".E c #3B384C",
".W c #9492A0",
".Q c #93929F",
".! c #141129",
".~ c #383649",
".^ c #130F28",
"./ c #120F27",
".( c #100D25",
".) c #0F0B24",
"._ c #0E0B23",
".` c #AEADB6",
".' c #CFCED3",
".] c #3B384F",
".[ c #16112E",
".{ c #CBCACF",
".} c #130F2B",
".| c #110D29",
"X  c #BDBCC1",
"X. c #161131",
"XX c #120D2D",
"Xo c #4A475A",
"XO c #110D2C",
"X+ c #302C47",
"X@ c #1D1A31",
"X# c #171335",
"X$ c #19162D",
"X% c #161134",
"X& c #62606E",
"X* c #61606D",
"X= c #140F32",
"X- c #130F31",
"X; c #373547",
"X: c #100C24",
"X> c #0F0C23",
"X, c #201C37",
"X< c #0E0A22",
"X1 c #0D0A21",
"X2 c #AFAEB6",
"X3 c #1C1833",
"X4 c #656274",
"X5 c #1B1832",
"X6 c #4E4B64",
"X7 c #3A374D",
"X8 c #120E29",
"X9 c #100C27",
"X0 c #595668",
"Xq c #0F0C26",
"Xw c #A1A0A8",
"Xe c #312D44",
/* pixels */
" Q Q Q Q Q 3X9.,.J S Z Q Q Q Q Q Q Q Q Q Q Q Q Q.tX9.M.>.g R.r Q",
" Q Q Q Q.t.M.8.*.8.LX>.F Q Q Q Q Q Q Q Q Q Q Q QX7 s e s.5 e.y Q",
" Q Q Q Q.# s.>.IXq.8 wXo Q Q Q Q Q Q Q Q Q Q Q.K.M Y w U.I a.o.t",
" Q Q Q QX, YX@.8 e.I.>.).t Q Q Q Q Q Q Q Q Q Q c U w YX9 T.9X< c",
" Q Q Q g., e } ~ . w - G : Q Q Q Q Q Q Q Q Q Q Y YXq U G / I.M 8",
" Q Q Q J.,X1 v.4 * Y.9.M.h.n Q Q Q Q Q Q Q Q W U w Y.&.w Q t.U G",
" Q Q Q p U.p Q Q.; fXX lX:.e.{ Q Q Q Q Q Q.=.*X9X9.M H v Q.d.,X@",
" Q Q.t.I.IX<X  Q Q P.V.8 e 9X6.Y Q Q Q Q.t @X< w.[.).- Q Q 2 U H",
" Q Q <.>.8.& V Q Q.4 -.7 ) A S.: x Q Q.t m.M e.|./ b Q Q.K.MX9X;",
" Q Q J.,.,.I._ ^ Q.t )X# * eX3.OX5Xo `.Z HX<X9.8 a./ Q QX7 UX< /",
" Q Q.v U #.8X9.s Q.q., _.8X..! 6.$ FX1X$ 1.M Y U j G zXw U.*.6 Q",
" Q Q.>Xq o 7 _ D.CX,.M !. X=.} ;.^ - *X8.a.MX<.+X-.M CX9 Y # v Q",
" Q g.>X< B.4 *X9 h., w & Q.W $.j.3X,.% j H 0X1X; t l w.M.z r Q Q",
" Q <.>X1 B Q.;.H.*.,X1   Q Q ~.N q K.].8.& S.* o.` Y YXq y Q Q Q",
" QX4.,.p Q Q Q P ( U n Q Q.t.,.8 EX<X+.PXX GX<.x.2X9 YX@ v Q Q Q",
" Q...m.A Q Q Q.4.I L ].' Q <.,._.8.1.k qX9X<.p HX9 Y M.t Q Q Q Q",
" Q.>.* o Q Q Q g.UX% uXe d.X.m.p.~.U *., w G T.m.M W.t Q Q Q Q Q",
".t.> wX& Q Q Q.0XOX9 { L.O., Y.pX9 Y U _.I.U.>.b.f Q Q Q Q Q Q Q",
" Q.D.) N Q Q Q...,.p.< |.IXX U w.M YXq o s.*.B Q Q Q Q Q Q Q Q Q",
" Q ~.m [ Q Q Q.l Y.B Q.t.c ).m J z.> GX0.,X< X Q Q Q Q Q Q Q Q Q",
" Q.Q j G.T Q Q.>.*X& Q Q...,.p Q <.> HX9.M.S Q Q Q Q Q Q Q Q Q Q",
" Q.t.8 Y.E Q <.> H B Q Q.v UX; Q.. s , s wX* Q Q Q Q Q Q Q Q Q Q",
" Q Q.;.I.O.G.0XO H   Q Q.>Xq o Q...mX1 U.p v Q Q Q Q Q Q Q Q Q Q",
" Q Q.t.8.& 4...m , Q Q g.>X< B Q.>.* G w.6 Q Q Q Q Q Q Q Q Q Q Q",
" Q Q Q.; k.( i UX; Q Q <.> H B QXX e.*X< / Q Q Q Q Q Q Q Q Q Q Q",
" Q Q Q.4 = e.> T o Q Q.. s , Q.@.> H wX; Q Q Q Q Q Q Q Q Q Q Q Q",
" Q Q Q Q '.L.> wX& Q Q...m.A Q.@.>X1X1 / Q Q Q Q Q Q Q Q Q Q Q Q",
" Q Q Q Q.t -XX H B Q Q.l T o Q...,.pX& Q Q Q Q Q Q Q Q Q Q Q Q Q",
" Q Q Q Q Q.  % 0.u Q Q.> wX&.- T Y # Q Q Q Q Q Q Q Q Q Q Q Q Q Q",
" Q Q Q Q Q Q.R O 0 5X2XXX< +.).M e v Q Q Q Q Q Q Q Q Q Q Q Q Q Q",
" Q Q Q Q Q Q Q.R O.j.jXX.i e.M w.- Q Q Q Q Q Q Q Q Q Q Q Q Q Q Q",
" Q Q Q Q Q Q Q Q.R *XX.> G s >.= Q Q Q Q Q Q Q Q Q Q Q Q Q Q Q Q"
};
