/* XPM */
static const char * IconSrfSurfRev[] = {
/* width height ncolors chars_per_pixel */
"32 32 247 2",
/* colors */
"   c #281F24",
" . c #9F8585",
" X c #C14C72",
" o c #B59DB5",
" O c #4A4698",
" + c #C0A2A2",
" @ c #364898",
" # c #BC9E9E",
" $ c #676AA7",
" % c #9E8EA8",
" & c #D7B5B5",
" * c #5264A6",
" = c #D1AFAF",
" - c #F2CCCC",
" ; c #233E9C",
" : c #F0CACA",
" > c #FDDADA",
" , c #2F1C13",
" < c #AB9090",
" 1 c #A98E8E",
" 2 c #A78C8C",
" 3 c #DFBDC3",
" 4 c #A58A8A",
" 5 c #42398C",
" 6 c #4051A1",
" 7 c #777CAC",
" 8 c #C34D73",
" 9 c #C4A5A5",
" 0 c #8A7C97",
" q c #C2A3A3",
" w c #BCA0A7",
" e c #D5547E",
" r c #BE9F9F",
" t c #D2527B",
" y c #A2ACCC",
" u c #DFBCBC",
" i c #FBDEDE",
" p c #AA4264",
" a c #DBB8B8",
" s c #D9B6B6",
" d c #D7B4B4",
" f c #F5D8D8",
" g c #9E9793",
" h c #E3C0C3",
" j c #F8D1D1",
" k c #8F7B81",
" l c #25160F",
" z c #24160E",
" x c #F6CFCF",
" c c #F4CDCD",
" v c #2A4098",
" b c #F2CBCB",
" n c #4E5697",
" m c #294097",
" M c #283E96",
" N c #F0C9C9",
" B c #B19595",
" V c #6678B5",
" C c #AF9393",
" Z c #AD9191",
" A c #D17097",
" S c #4F5BA5",
" D c #143296",
" F c #A36984",
" G c #CEAEAE",
" H c #CCACAC",
" J c #CAAAAA",
" K c #8F819B",
" L c #C8A8A8",
" P c #C4A4A4",
" I c #2F2836",
" U c #E2A6B1",
" Y c #E5C1C1",
" T c #E3BFBF",
" R c #6D5A55",
" E c #E1BDBD",
" W c #DFBBBB",
" Q c #AB4364",
" ! c #A08787",
" ~ c None",
" ^ c #DDB9B9",
" / c #B19EBC",
" ( c #9C8383",
" ) c #9A8181",
" _ c #94A0C7",
" ` c #FAD2D2",
" ' c #271710",
" ] c #26170F",
" [ c #F8D0D0",
" { c #B99C9C",
" } c #F6CECE",
" | c #7E738D",
".  c #B79A9A",
".. c #B59898",
".X c #342016",
".o c #B39696",
".O c #223C99",
".+ c #321E14",
".@ c #B19494",
".# c #203A97",
".$ c #513E39",
".% c #D2B1B1",
".& c #CEADAD",
".* c #364792",
".= c #473B8F",
".- c #586CB0",
".; c #15308C",
".: c #CCABAB",
".> c #F9E1E1",
"., c #A38886",
".< c #726863",
".1 c #46509B",
".2 c #FDF2F2",
".3 c #E9C4C4",
".4 c #A9A4A6",
".5 c #A68C8C",
".6 c #4956A1",
".7 c #A28888",
".8 c #9B8FB6",
".9 c #B79796",
".0 c #A08686",
".q c #DF7796",
".w c #C04B71",
".e c #374999",
".r c #281810",
".t c #BD9F9F",
".y c #D7DAE0",
".u c #18286A",
".i c #BB9D9D",
".p c #95859C",
".a c #B99B9B",
".s c #D8D7D7",
".d c #243D9A",
".f c #A84263",
".g c #223B98",
".h c #D8B6B6",
".j c #5E639E",
".k c #D6B4B4",
".l c #D4B2B2",
".z c #3E2B22",
".x c #D0AEAE",
".c c #CCAAAA",
".v c #B8A4BE",
".b c #F1CBCB",
".n c #EFC9C9",
".m c #E9C6CD",
".M c #EDC7C7",
".N c #AC9191",
".B c #4D3D37",
".V c #261814",
".C c #AA8F8F",
".Z c #CFB0B0",
".A c #A88D8D",
".S c #A68B8B",
".D c #67524D",
".F c #C5A6A6",
".G c #C24C72",
".H c #C3A4A4",
".J c #C1A2A2",
".K c #827899",
".L c #2A1911",
".P c #BFA0A0",
".I c #291910",
".U c #D4537D",
".Y c #D3537C",
".T c #BDC3D6",
".R c #D9D8D7",
".E c #A694AF",
".W c #AA4364",
".Q c #DCB9B9",
".! c #DAB7B7",
".~ c #3C3689",
".^ c #C1BEBC",
"./ c #AEB6D1",
".( c #1E2147",
".) c #FBD4D4",
"._ c #6B5E57",
".` c #F7D0D0",
".' c #F5CECE",
".] c #F1CACA",
".[ c #5D65A9",
".{ c #311E14",
".} c #AE9292",
".| c #202E6D",
"X  c #1D3895",
"X. c #EAC4C3",
"XX c #3C2A22",
"Xo c #F6D2D2",
"XO c #4E5AA4",
"X+ c #15308D",
"X@ c #34221A",
"X# c #47549D",
"X$ c #4151A1",
"X% c #C7A7A7",
"X& c #4C496D",
"X* c #C44D73",
"X= c #C5A5A5",
"X- c #2C1A12",
"X; c #2B1A11",
"X: c #E2A7B1",
"X> c #D5547D",
"X, c #AB99B3",
"X< c #5F66A7",
"X1 c #DCB8B8",
"X2 c #4C5491",
"X3 c #9D8484",
"X4 c #9B8282",
"X5 c #998080",
"X6 c #271810",
"X7 c #F9D1D1",
"X8 c #F7CFCF",
"X9 c #826A66",
"X0 c #2E449B",
"Xq c #CFACAB",
"Xw c #F5CDCD",
"Xe c #B69999",
"Xr c #B49797",
"Xt c #233D9A",
"Xy c #2E201A",
"Xu c #B29595",
"Xi c #304089",
"Xp c #213B98",
"Xa c #A68F9D",
"Xs c #1F3996",
"Xd c #4C62AB",
"Xf c #857A97",
"Xg c #D3B2B2",
"Xh c #192A6F",
"Xj c #505BA5",
"Xk c #D1B0B0",
"Xl c #CFAEAE",
"Xz c #CDACAC",
"Xx c #CBAAAA",
"Xc c #3D55A6",
"Xv c #C9A8A8",
"Xb c #311F16",
"Xn c #ECC7C7",
"Xm c #B09CB7",
"XM c #2D1B12",
"XN c #DC7090",
"XB c #E8C3C3",
"XV c #E6C1C1",
"XC c #D96E8D",
"XZ c #9F92BA",
"XA c #A58B8B",
"XS c #9F888F",
"XD c #9C90B7",
/* pixels */
" ~ ~ ~ ~ ~ ~ ~ ~ ~ ~ ~.y./ o.W.WX* e A./.T ~ ~ ~ ~ ~ ~ ~ ~ ~ ~ ~",
" ~ ~ ~ ~ ~ ~.y./XdXc D D D 5.W p 8.U F D D D ;Xd _.T ~ ~ ~ ~ ~ ~",
" ~ ~ ~ ~.yXd D D DXjXD h.nX:.W p.G.YXN ^.!.EX#Xp D DXc y ~ ~ ~ ~",
" ~ ~ ~.- D.d /.` x.' - b.n U.W p.G.YXN a &.lXk.&.: w.e D ;.y ~ ~",
" ~ ~ V D $.mX7X7 [ x c b NX:.W.f X.YXN s.k =.&XvX%X=.HX&.u ; ~ ~",
" ~.y DXZ jX7 `X7X7 [ } - NX:.W.f.w tXN dXk.&Xv.F qXrXy ].B D _ ~",
" ~./ D SX$X7 ` `X7 [ x c : U.W Q 8 eXNXg H L P.PX9 z ]     DXd ~",
" ~.y DX< D.[.m ` `X7.`Xw.]X:.W.WX*X>XC.& L q r.$ z l.( DX+Xh 7 ~",
" ~ ~ V DX$.O DX$XZ.m.` c.] U.W p 8.UXCXv.J.i.$  Xh D DXs D.;.< ~",
" ~ ~ ~ _ ;.OX0.g D D DXtXOX#.~.~ 5.=.=.1 @ D D D M.* M D.|.4 ~ ~",
" ~ ~ ~ ~.y.- D D D D D D D D D D.# D m D D D D D D DX+ I.s ~ ~ ~",
" ~ ~ ~ ~ ~ ~ y D.O.6Xp D D D D D D D D D D D.*Xi D.u.D.s ~ ~ ~ ~",
" ~ ~ ~ ~ ~ ~ ~ y D o.l GXa K K 0XfXf | | ( ).0Xb.(Xy.s ~ ~ ~ ~ ~",
" ~ ~ ~ ~ ~ ~ ~ ~Xc.g.k f H { B Z.5 !X4 ).7 <.$ l.V.^ ~ ~ ~ ~ ~ ~",
" ~ ~ ~ ~ ~ ~ ~ ~.y D.l.>.Z B 1.7 ) ).0.C.. ( ]X6.B ~ ~ ~ ~ ~ ~ ~",
" ~ ~ ~ ~ ~ ~ ~ ~ ~ D %.F...A .X5 ! 1.@.i 9.D ].I g ~ ~ ~ ~ ~ ~ ~",
" ~ ~ ~ ~ ~ ~ ~ ~ ~ D.pXe 1 . ).7 Z.  q JXg.D.rX-.< ~ ~ ~ ~ ~ ~ ~",
" ~ ~ ~ ~ ~ ~ ~ ~ y D.N 1X3 )XA C.a 9Xl & u RX6XMXX.R ~ ~ ~ ~ ~ ~",
" ~ ~ ~ ~ ~ ~ ~.y ; n.SX4X4 4.@.i.F.x.! EXB.9 'X; ,._ ~ ~ ~ ~ ~ ~",
" ~ ~ ~ ~ ~ ~.T ;X X3 ).0.A B.i 9.& s EXB.n.bX@.I ,.{._ ~ ~ ~ ~ ~",
" ~ ~ ~ ~ ~ _ DX  kX4.7.C.o # PXz d W YXn.] c.c ]X- ,.+._ ~ ~ ~ ~",
" ~ ~ ~ y ; DX2 !.7.S.N.. #.H.:.lX1 TXo i.' x [X9.rXM.{.+.z.^ ~ ~",
" ~ ~ y D.1XS 2 1 Z BXe r PXx.%.h WXV.>.2 >X8X7X7.,.rX;.X.X.+.4 ~",
" ~ ~ ;.1.}.} CXu.. {.P 9 JXk.k.Q T.3 i.2 >.`X7 ` `XqX@.LXb.z g ~",
" ~./ D 0.oXrXe.a.t.J.F J =.k.! W T.3.b >.)X8 [ ` ` `X..B.LXy * ~",
" ~.T D.pXs.K.t + PX%XxXl.l.h.Q E Y.3.M -.' }.`X7X7 `.m.dX&.u V ~",
" ~ ~Xc D @ v @.K w.:Xl.% & a u TXV.3Xn.n b cX8 [.vXj D.d D D.y ~",
" ~ ~.yXc D n.j.# D DX#.j.E.EX,X,XmXm / /.8 S.d D 6.[ 7.d ; y ~ ~",
" ~ ~ ~ ~ yXc DXpXp D D D D D D D D D D D D D D.d 6 D ; V ~ ~ ~ ~",
" ~ ~ ~ ~ ~ ~./ V ; D D D D D D D D DX0 D D D D DXd./.y ~ ~ ~ ~ ~",
" ~ ~ ~ ~ ~ ~ ~ ~ ~ ~.T././.6.~.~ 5.= O _././ ~ ~ ~ ~ ~ ~ ~ ~ ~ ~",
" ~ ~ ~ ~ ~ ~ ~ ~ ~ ~ ~ ~ ~ 3.W.f X.Y.q ~ ~ ~ ~ ~ ~ ~ ~ ~ ~ ~ ~ ~"
};
