/* XPM */
static const char * IconGuIritExit[] = {
/* width height ncolors chars_per_pixel */
"32 32 8 1",
/* colors */
"  c #FF160A",
". c #29160A",
"X c #E2160A",
"o c #39160A",
"O c #EF160A",
"+ c #19160A",
"@ c #63160A",
"# c #B5160A",
/* pixels */
"                                ",
"    X                      O    ",
"   #+#                    O.@   ",
"  #+++#                  O.++@  ",
"  @++++#                O.+++.O ",
"   @++++#              O.+++.O  ",
"    @++++#            O.+++.O   ",
"     @++++#          O.+++.O    ",
"      @++++#        O.+++.O     ",
"       @++++#      O.+++.O      ",
"        @++++#    O.+++.O       ",
"         @++++#  O.+++.O        ",
"          @++++#O.+++.O         ",
"           @++++.+++.O          ",
"            @++++++.O           ",
"             @++++.O            ",
"            O.+++++#            ",
"           O.+++++++#           ",
"          O.+++.@++++#          ",
"         O.+++.O @++++#         ",
"        O.+++.O   @++++#        ",
"       O.+++.O     @++++#       ",
"      O.+++.O       @++++#      ",
"     O.+++.O         @++++#     ",
"    O.+++.O           @++++#    ",
"   O.+++.O             @++++#   ",
"  O.+++.O               @++++#  ",
"  o+++.O                 @++++X ",
"  O.+.O                   @++#  ",
"   OoO                     @#   ",
"                                ",
"                                "
};
