/* XPM */
static const char * IconPolygons[] = {
/* width height ncolors chars_per_pixel */
"32 32 175 2",
/* colors */
"   c #100C13",
" . c #0E0A11",
" X c #0D0A10",
" o c #38353A",
" O c #656269",
" + c #2F2B34",
" @ c #2D2932",
" # c #2C2731",
" $ c #928F95",
" % c #27232C",
" & c #26212B",
" * c #241F29",
" = c #221D27",
" - c #1B1720",
" ; c #19151E",
" : c #18131D",
" > c #17131C",
" , c #16111B",
" < c #140F19",
" 1 c #130F18",
" 2 c #120D17",
" 3 c #110D16",
" 4 c #100D15",
" 5 c #ADACAF",
" 6 c #DDDDDE",
" 7 c #3C3840",
" 8 c #D9D9DA",
" 9 c #D7D7D8",
" 0 c #68656B",
" q c #67656A",
" w c #666369",
" e c #302C34",
" r c #636166",
" t c #2B282F",
" y c #949296",
" u c #27242B",
" i c #919093",
" p c #252229",
" a c #231E27",
" s c #211C25",
" d c #201C24",
" f c #BFBDC0",
" g c #1E1A22",
" h c #1D1821",
" j c #BCBBBD",
" k c #BBBBBC",
" l c #1B161F",
" z c #838285",
" x c #4D4950",
" c c #17141B",
" v c #17121B",
" b c #16121A",
" n c #4A474D",
" m c #151019",
" M c #48454B",
" N c #130E17",
" B c #120E16",
" V c None",
" C c #110C15",
" Z c #100C14",
" A c #0F0C13",
" S c #AEADAF",
" D c #0E0A12",
" F c #0D0A11",
" G c #ACABAD",
" H c #403D43",
" J c #A8A7A9",
" K c #3D3940",
" L c #3A373D",
" P c #A2A1A3",
" I c #37353A",
" U c #37333A",
" Y c #A19FA2",
" T c #A09FA1",
" R c #646266",
" E c #636065",
" W c #626064",
" Q c #2D2930",
" ! c #252128",
" ~ c #221D25",
" ^ c #201D23",
" / c #555257",
" ( c #1F1B22",
" ) c #535055",
" _ c #1D1920",
" ` c #1C191F",
" ' c #130F16",
" ] c #48444A",
" [ c #464448",
" { c #110D14",
" } c #0F0B12",
" | c #ADACAD",
".  c #0D0910",
".. c #0C090F",
".X c #676568",
".o c #2D2832",
".O c #615D65",
".+ c #29242E",
".@ c #25202A",
".# c #1C1821",
".$ c #1A161F",
".% c #4F4B53",
".& c #19141E",
".* c #B8B7BA",
".= c #17121C",
".- c #16121B",
".; c #4A474E",
".: c #15101A",
".> c #141019",
"., c #130E18",
".< c #120E17",
".1 c #100C15",
".2 c #0F0C14",
".3 c #AEADB0",
".4 c #77747A",
".5 c #3D3941",
".6 c #D8D8D9",
".7 c #A2A1A4",
".8 c #646267",
".9 c #2D2931",
".0 c #625E65",
".q c #2C2730",
".w c #939195",
".e c #929194",
".r c #5A585D",
".t c #58545B",
".y c #57545A",
".u c #221D26",
".i c #211D25",
".p c #1E1B22",
".a c #BDBCBE",
".s c #1C1720",
".d c #BBBABC",
".f c #858387",
".g c #1A151E",
".h c #838185",
".j c #16131A",
".k c #151119",
".l c #141118",
".z c #49464C",
".x c #140F18",
".c c #130F17",
".v c #120D16",
".b c #464449",
".n c #110D15",
".m c #100D14",
".M c #100B14",
".N c #0F0B13",
".B c #0E0B12",
".V c #ADACAE",
".C c #0C0910",
".Z c #DEDDDE",
".A c #39363C",
".S c #D8D7D8",
".D c #D7D7D7",
".F c #37343A",
".G c #A1A0A2",
".H c #666368",
".J c #646166",
".K c #636165",
".L c #615F63",
".P c #29262C",
".I c #28262B",
".U c #929093",
".Y c #919092",
".T c #262229",
".R c #8F8E90",
".E c #201C23",
".W c #545156",
".Q c #535155",
".! c #1E1A21",
".~ c #1D1A20",
".^ c #BCBBBC",
"./ c #1B181E",
".( c #1A161D",
/* pixels */
" V V V V V V 8.P.* V V V V V V V V V V V V V V V Y.p.V.^ V V V V",
" V V V V V.3.= b !.d V V V V V V V V V V V V V Y   B 3 `.D V V V",
" V V V V V.H 1 * Z U f V V V V V V V V V V V.D g Z . :.n _.S V V",
" V V V V V.i.B.,.s.B K f V V V V V V V V V.D g Z X F X <.B ] V V",
" V V V V 9.v F.h a.+ A.O.Z V V V V V V V V.A A X F ../.7 N.B.r V",
" V V V V.w Z ..D 9 < h {.0.Z V V V V V V /.N... .2 X [ V w 3 F.K",
" V V V V n.B _ V V.7 : d.l.O 6 V V V V r }. ...n.B.. G | [ X.N W",
" V V V V.n F.b V V V y < ~.( O 6 V V.G.B X.  Z Z X F X X.B Z.n.p",
" V V V S.N X | V V V V.t *.j.! $ V.G.B.B X.B } F.B.n - - Z.v.1.W",
" V V V.8 X X.D V V V V V.t & b ^.4.B } X X.B.k.g.:.x.9.n 1.n.W V",
" V V V (...F V V V V V V V.t =.c ! x.B Z.k v ,.v.N.V d s m.W V V",
" V V 9 }...L V V V V V V V j.<.u { p.% N.<.n X Z.  d.$ >.Q V V V",
" V V.e ..  G V V V V V i.A.N C.,.@ } p.9 3.N D.N 3.x B.Q V V V V",
" V V M ..  V V V V i.~ A 3 B 3.n < + }.T @ X Z.n.&.n.Q V V V V V",
" V V }.B I V.D W.B Z.-.<.n R z.n Z.x # } u t.v.#.n.Q V V V V V V",
" V.V }.B.X E.N.n m m Z r.D V.z.v.N.R <.q } u +.n.Q V V V V V V V",
" V.K.N.B  .n.v.n.p.U V V V V.E.< D.J 3 < ;.B.B.Q V V V V V V V V",
" V Q A Z Z Z L.U V V V V V.D 3 l.I.n.n ..x B F k V V V V V V V V",
" V.f B.1 L j V V V V V V V 5 %.n ..v.N ..n.N ` V V V V V V V V V",
" V.t.>.m 0 V V V V V V V V.z.=.N  .n X Z C . T V V V V V V V V V",
" V 9 a 3 ' J V V V V V V V d , F 3.N X C.B ) V V V V V V V V V V",
" V V.a <   c.6 V V V V V.D.< N F 3 X.M.N ` V V V V V V V V V V V",
" V V V w., . H V V V V V S., C }.N X Z X k V V V V V V V V V V V",
" V V V V.5.v . q V V V V n.x.N Z F.N ..Y V V V V V V V V V V V V",
" V V V V 9.x   } P V V V s.,.  A X.B.Q V V V V V V V V V V V V V",
" V V V V V.7 N.B ( 9 V.D.,.< X F.B `.D V V V V V V V V V V V V V",
" V V V V V V.y.v F L V S <.n. .  . T V V V V V V V V V V V V V V",
" V V V V V V 9.u 4 F.e n.: D X F W V V V V V V V V V V V V V V V",
" V V V V V V V.a N Z ..i.o. .  o V V V V V V V V V V V V V V V V",
" V V V V V V V V w N } 1.x.C X.D V V V V V V V V V V V V V V V V",
" V V V V V V V V V 7 2.,.N.. T V V V V V V V V V V V V V V V V V",
" V V V V V V V V V 9 e.; F ) V V V V V V V V V V V V V V V V V V"
};
