/* XPM */
static const char * IconSrfCylinder[] = {
/* width height ncolors chars_per_pixel */
"32 32 245 2",
/* colors */
"   c #692222",
" . c #794356",
" X c #667CBA",
" o c #57699E",
" O c #6D4054",
" + c #56699D",
" @ c #895555",
" # c #7273A8",
" $ c #90363B",
" % c #7993DD",
" & c #6B82C2",
" * c #6A80C1",
" = c #6980C0",
" - c #7A8ED4",
" ; c #5A6DA4",
" : c #8C2D2D",
" > c #703139",
" , c #642020",
" < c #7F99E6",
" 1 c #7E99E5",
" 2 c #6E86C8",
" 3 c #A27777",
" 4 c #66292F",
" 5 c #5D71AA",
" 6 c #A35257",
" 7 c #794052",
" 8 c #728ACF",
" 9 c #905858",
" 0 c #872B2B",
" q c #718ACE",
" w c #6D6592",
" e c #6075B0",
" r c #DED9D9",
" t c #933030",
" y c #758ED5",
" u c #756693",
" i c #667BB9",
" p c #657BB8",
" a c #56689C",
" s c #6C3F52",
" d c #55689B",
" f c #7992DC",
" g c #7892DB",
" h c #697FBF",
" j c #687FBE",
" k c #596CA2",
" l c #662121",
" z c #7C75AA",
" x c #7D98E3",
" c c #7C96E2",
" v c #7F2929",
" b c #7B96E1",
" n c #6D85C6",
" m c #6C83C5",
" M c #5E72AA",
" N c #5D70A9",
" B c #702424",
" V c #5C70A8",
" C c #7C5675",
" Z c #787AB3",
" A c #7F9AE8",
" S c #C0A7A7",
" D c #7D516C",
" F c #7A75AB",
" G c #7189CD",
" H c #611F1F",
" J c #7C72A3",
" K c #5F74AE",
" L c #748DD3",
" P c #798ACE",
" I c #9E3D3D",
" U c #657AB7",
" Y c #647AB6",
" T c #6F4054",
" R c #6378B5",
" E c #6278B4",
" W c #7891DA",
" Q c #7791D9",
" ! c #6980BE",
" ~ c #677EBC",
" ^ c None",
" / c #667CBB",
" ( c #596BA1",
" ) c #586BA0",
" _ c #813D4B",
" ` c #D0B6B6",
" ' c #783C4C",
" ] c #7B95E0",
" [ c #6C618C",
" { c #7C82C0",
" } c #7A95DF",
" | c #722525",
".  c #5C6FA7",
".. c #5B6FA6",
".X c #826791",
".o c #5A6DA5",
".O c #8B2D2D",
".+ c #7E99E6",
".@ c #7088CB",
".# c #7874A8",
".$ c #6F86CA",
".% c #7C2828",
".& c #5F73AD",
".* c #E0D9D9",
".= c #5E73AC",
".- c #D6C2C2",
".; c #953030",
".: c #6D2323",
".> c #738CD1",
"., c #7A3133",
".< c #7B2F34",
".1 c #728AD0",
".2 c #718ACF",
".3 c #862B2B",
".4 c #7B3D4B",
".5 c #6277B3",
".6 c #6C2A2F",
".7 c #C6B2B2",
".8 c #7790D8",
".9 c #7690D7",
".0 c #6A2323",
".q c #7A4457",
".w c #677DBB",
".e c #667DBA",
".r c #682121",
".t c #BB9090",
".y c #832B2B",
".u c #56689D",
".i c #55689C",
".p c #7A94DE",
".a c #6C83C3",
".s c #7D485D",
".d c #5B6EA5",
".f c #596CA3",
".g c #7F9AE6",
".h c #5D699D",
".j c #7D98E4",
".k c #7E3C4A",
".l c #CDB5B5",
".z c #BCA1A1",
".x c #6D85C7",
".c c #5E72AB",
".v c #C7AFAF",
".b c #6F2424",
".n c #882C2C",
".m c #7189CE",
".M c #6378B3",
".N c #6276B2",
".B c #6176B1",
".V c #68628D",
".C c #A85F5F",
".Z c #792727",
".A c #C8B3B3",
".S c #8E4C4C",
".D c #DDD8D8",
".F c #895672",
".G c #768FD6",
".H c #748DD4",
".J c #6A2222",
".K c #647AB7",
".L c #55679B",
".P c #7993DC",
".I c #81363F",
".U c #6C82C2",
".Y c #742525",
".T c #7791DA",
".R c #6980BF",
".E c #8D2D2D",
".W c #5A6DA3",
".Q c #596DA2",
".! c #706591",
".~ c #844045",
".^ c #7D97E3",
"./ c #7C97E2",
".( c #9F6666",
".) c #693E52",
"._ c #6D84C6",
".` c #6B82C4",
".' c #64272C",
".] c #5D71A9",
".[ c #70597D",
".{ c #825471",
".} c #8A2D2D",
".| c #744356",
"X  c #734155",
"X. c #622020",
"XX c #7088CC",
"Xo c #B47777",
"XO c #6075AF",
"X+ c #7B363F",
"X@ c #943030",
"X# c #6C2323",
"X$ c #758ED4",
"X% c #738CD2",
"X& c #7B78AF",
"X* c #852B2B",
"X= c #6479B6",
"X- c #6379B5",
"X; c #762626",
"X: c #7A7FBB",
"X> c #9D5B60",
"X, c #6A81BF",
"X< c #703541",
"X1 c #697FBE",
"X2 c #D0C0C0",
"X3 c #8F2E2E",
"X4 c #677DBC",
"X5 c #672121",
"X6 c #586AA0",
"X7 c #576A9F",
"X8 c #7C96E1",
"X9 c #7B96E0",
"X0 c #BEA1A1",
"Xq c #C59E9E",
"Xw c #6C83C4",
"Xe c #993131",
"Xr c #6A81C2",
"Xt c #712424",
"Xy c #5D70A8",
"Xu c #5C70A7",
"Xi c #8A2C2C",
"Xp c #7678B0",
"Xa c #7F9AE7",
"Xs c #7E9AE6",
"Xd c #8F4C5F",
"Xf c #7087CB",
"Xg c #6F87CA",
"Xh c #6074AE",
"Xj c #8A485A",
"Xk c #5F74AD",
"Xl c #5E72AC",
"Xz c #716FA1",
"Xx c #963131",
"Xc c #738BD1",
"Xv c #728BD0",
"Xb c #872C2C",
"Xn c #7788CB",
"Xm c #9B3939",
"XM c #6378B4",
"XN c #73506E",
"XB c #6A2D2D",
"XV c #C7B3B3",
"XC c #912F2F",
"XZ c #833335",
"XA c #687EBC",
/* pixels */
" ^ ^ ^ ^ ^ ^ ^ ^.7 @XBX.  .bXt |X .q.q.q.|X X;.JX5.:.v ^ ^ ^ ^ ^",
" ^ ^ ^ ^ ^.D @XB.r BX  u F P W W W W W W W W W W F.!.0.t ^ ^ ^ ^",
" ^ ^ ^.D.( lXt . F W W W W W W W W W W W W W W W W W '.b r ^ ^ ^",
" ^ ^ S.JX;.s P W W W W W W W W W W W W W W W W W P.q.I ,.7 ^ ^ ^",
" ^ 3 |.<X: W W W W W W W W W W W W W W W W W WXn.6.<X+ HX2 ^ ^ ^",
"X2.%XZ P W W W W W W W W W W W W W W W W WXnXN  X;.%XtX5.A ^ ^ ^",
"Xo.n P W W W W W W W W W W W W W W W W #.) l.6 7 v.ZXN l 9 ^ ^ ^",
".CXC.|X>X: W W W W W W W W W W #.!.).'X5 |.%.y v.< {.+.) 9 ^ ^ ^",
".CXe 6.6.J.:X< T T O O s s.' , ,X5.6 '.I.3.yXZ CXaXa.g O.b ^ ^ ^",
"XqX@XeXx.I > B   4  .J.b.bX; v.I 0.nXb.y DX&X8.jXsXaXaXpX# r ^ ^",
" `XC.XXj.;X@XCX3.E.E :.E :.OXi.n _ D.# y.T.p b x.+XaXa {X5.A ^ ^",
" ^XC.{.@ &.! [.s _.k _.[ [ wXz *._XXXc y Q.p ].^.+XaXa.j l.z ^ ^",
" ^XmXj G.a.K K.d o d k NXOX- / =._XXXvX$.8.P ].^ 1Xa A 1 4 9 ^ ^",
" ^.C $.1._.wXO.. o.L k VXh R X hXw.$ 8.H.8 f }./ 1XaXa.+ O., ^ ^",
" ^Xo t.H._.w.B.] (.L )..Xk.5 iX1.` 2 qX%.G g } c.jXaXaXaXNX# ^ ^",
" ^ `X@ z 2 !.5 5 k.L o.d.c.5 p ~ & 2 GX%.G g.pX8.j.+XaXaXp lXV ^",
" ^.*X@.XXg.RXM.c.f.i + ; M.B.KX4 & 2 G.> y Q %X9 x.+XaXa { lXV ^",
" ^ ^X@XdXf & U.& ; a a.W 5XOX-.w =._XXXc y Q % ].^.+Xa A 1   9 ^",
" ^ ^.C $ 8Xw U K.. o d k NXOX- / = m.@Xv.H.8.P }./ 1XaXa.+ >.~ ^",
" ^ ^.CXxXv._ X e VX7.L k VXh E X hXwXg.2 L.8.P }./ 1Xa AXaX .J ^",
" ^ ^ `XmXn nXA.NXy ).LX7...=.5 p j.` 2.mX%.G g.pX8.jXaXaXa .   r",
" ^ ^.-Xx z 2 !.M 5 k d o.o.c.B.K ~ & 2 GX%.G W.p b.j.gXaXaX& lXV",
" ^ ^ ^.;.FXfX,XMXl ;.i + ; 5.B YX4Xr._XXXc y Q % ].^.+Xa AX& l 3",
" ^ ^ ^ 6Xd.@ &X=Xk.d + a.f.]XOX=.w =._XXXc y Q.P }.^.+Xa A 1X5.S",
" ^ ^ ^.C $ 8Xw X K.. o d k.]XOX- / = mXfXv.H.8.P }./ 1Xa A.+.Y l",
" ^ ^ ^Xq.; L._.e.BXuX6.L ). Xk.5 p j mXg q L.9 g.pX8 1.gXa.+ > H",
" ^ ^ ^ `.; Z n.w.BXy ).LX7...=.5 p j & 2.mX%.G g.p b.jXs <.4X# S",
" ^ ^ ^ ^.; z 2.RXM.c.Q.L o.o.c.B.K ~Xr 2 GX%.G W % b P {.4X; S ^",
" ^ ^ ^ ^.;.FXfX,X-.=.W.i + ; M.B YX4 *.xXXXc y Q % -.{ vXZ S ^ ^",
" ^ ^ ^ ^.CXm J.U U.&.o.u a.f.]XOX=.w =._XX # C _.I.yXZ.z ^ ^ ^ ^",
" ^ ^ ^ ^.* IXe $.[.V.h + d k.].V w w 7.kX*XbXbX*.SX0 ^ ^ ^ ^ ^ ^",
" ^ ^ ^ ^ ^ ^Xo I tXCX3X3.OXi :.O :.O.}.nXbX>.l r ^ ^ ^ ^ ^ ^ ^ ^"
};
