/* XPM */
static const char * IconANFontName[] = {
/* width height ncolors chars_per_pixel */
"64 64 237 2",
/* colors */
"`` c #D9BBB4",
"`a c #E0D0C8",
"`b c #E7E3DC",
"`c c #DECEC6",
"`d c #E6E3DB",
"`e c #C259BF",
"`f c #A9A9A9",
"`g c #C87268",
"`h c #E0C7BE",
"`i c #A5A5A5",
"`j c #C247BF",
"`k c #D4ACA5",
"`l c #DBC1B9",
"`m c #A1A1A1",
"`n c #DABFB8",
"`o c #E1D4CC",
"`p c #DFD2CA",
"`q c #CB786E",
"`r c #BE3326",
"`s c #C14236",
"`t c #939393",
"`u c #E4DAD2",
"`v c #BB2619",
"`w c #8D8D8D",
"`x c #C3483B",
"`y c #878787",
"`z c #D7B6AE",
"a` c #E6E2D7",
"aa c #E6E0D7",
"ab c #C14639",
"ac c #DEC9C2",
"ad c #E5E0D6",
"ae c #DDC9C1",
"af c #E5DED6",
"ag c #BE2C1F",
"ah c #E4DCD5",
"ai c #C3A6C2",
"aj c #E3DCD4",
"ak c #818181",
"al c #C3A2C2",
"am c #C39EC2",
"an c #BEA0BD",
"ao c #C97A72",
"ap c #E0CFC7",
"aq c #E6E2DA",
"ar c #C280C1",
"as c #B496B3",
"at c #C34EBF",
"au c #E0C6BD",
"av c #6F6F6F",
"aw c #B81205",
"ax c #B81005",
"ay c #AE90AD",
"az c #B80E05",
"b` c #E1D3CB",
"ba c #C24C40",
"bb c #D3A299",
"bc c #D9B5AC",
"bd c #C55B50",
"be c #D5AFA8",
"bf c #DBC2BB",
"bg c #E2D7CF",
"bh c #E0D5CD",
"bi c #CD9189",
"bj c #C24E43",
"bk c #C65F54",
"bl c #CD887F",
"bm c #E6DFD6",
"bn c #DDC8C0",
"bo c #E5DDD5",
"bp c #E3DBD3",
"bq c #E2D9D2",
"br c #BB291B",
"bs c #C8807A",
"bt c #CD7F75",
"bu c #C35247",
"bv c #DBBDB4",
"bw c #434343",
"bx c #D8B9B1",
"by c #BA1C10",
"bz c #CB7469",
"c` c #DECCC4",
"ca c #E6E1D9",
"cb c #D49F96",
"cc c #DDCAC3",
"cd c #E4DFD7",
"ce c #D19B93",
"cf c #C4564B",
"cg c #D28AC9",
"ch c #D288C9",
"ci c #E2D4CB",
"cj c #D2A8A1",
"ck c #D8A79D",
"cl c #E1D2CA",
"cm c #D7A59C",
"cn c #BA2013",
"co c #E0C7D3",
"cp c #E7E5DD",
"cq c #BD2F23",
"cr c #D19D96",
"cs c #B91708",
"ct c #DAC1B9",
"cu c #E2D6CE",
"cv c #1F1F1F",
"cw c #DEC9C0",
"cx c #D6B2AB",
"cy c #E4DAD3",
"cz c #DBC5BD",
"d` c #E3DAD2",
"da c #C6C6C6",
"db c #C4C4C4",
"dc c #C3C4C3",
"dd c #C1392D",
"de c #E6E0D8",
"df c #C3ACC3",
"dg c #DDC9C2",
"dh c #BABABA",
"di c #E5DED7",
"dj c #E4DED6",
"dk c #E4DCD6",
"dl c #E3DCD5",
"dm c #C3A4C3",
"dn c #B6B6B6",
"do c #B4B4B4",
"dp c #C03D2F",
"dq c #B2B2B2",
"dr c #E1D1C9",
"ds c #D8BAB3",
"dt c #C45CC1",
"du c #CE8D85",
"dv c #ACACAC",
"dw c #DECDC6",
"dx c #E5E2DA",
"dy c #CE867B",
"dz c #E2D5CD",
"e` c #C13EBE",
"ea c #BB2316",
"eb c #C13CBE",
"ec c #A198A1",
"ed c #E7E6DF",
"ee c #9C9C9C",
"ef c #D3A29A",
"eg c #9A9A9A",
"eh c #969696",
"ei c #E4D9D2",
"ej c #DBC4BC",
"ek c #E3D9D1",
"el c #E1D7CF",
"em c #BE3629",
"en c #BA1C0E",
"eo c #D7B5AE",
"ep c #E6E1D7",
"eq c #E6DFD7",
"er c #E5DFD6",
"es c #E5DDD6",
"et c #848484",
"eu c #C3A7C2",
"ev c #E2DBD3",
"ew c #C3A1C2",
"ex c #C1A1C0",
"ey c #C13C2F",
"ez c #BD9DBC",
"f` c #BB9BBA",
"fa c #C38DC2",
"fb c #E7E3DB",
"fc c #B797B6",
"fd c #DDCCC4",
"fe c #E5E1D9",
"ff c #D49FC2",
"fg c #D6AEA6",
"fh c #B81305",
"fi c #B81105",
"fj c #E3D6CD",
"fk c #D9BDB6",
"fl c #DFD0C9",
"fm c #606060",
"fn c #B91509",
"fo c #DDC5BD",
"fp c #DCC3BC",
"fq c #E3D8D0",
"fr c #D1968D",
"fs c #C7695F",
"ft c #E1D6CE",
"fu c #5A5A5A",
"fv c #B9190C",
"fw c #505050",
"fx c #D6B4AC",
"fy c #DEC9C1",
"fz c #E4DCD4",
"g` c #E2DAD2",
"ga c #4A4A4A",
"gb c #BF392C",
"gc c #D29187",
"gd c #C76458",
"ge c #E6E2D9",
"gf c #E5E0D8",
"gg c #E3DED6",
"gh c #3C3C3C",
"gi c #BC2C1F",
"gj c #B91205",
"gk c #B81204",
"gl c #D9BCB5",
"gm c #BA1F13",
"gn c #C25CC0",
"go c #2C2C2C",
"gp c #D8B3AA",
"gq c #BF3F32",
"gr c #E3D7CF",
"gs c #CB6EB8",
"gt c #CC7B70",
"gu c #E7E8E0",
"gv c #D18C82",
"gw c #C24538",
"gx c #B8160A",
"gy c #DDC6BF",
"gz c #E4DBD3",
"h` c #C86C62",
"ha c #E3D9D2",
"hb c #D1978F",
"hc c #E2D9D1",
"hd c #C5C5C5",
"he c #C3C3C3",
"hf c #D5A8A0",
"hg c #C1C1C1",
"hh c #D19085",
"hi c #BFBFBF",
"hj c #C66156",
"hk c #D8B7B0",
"hl c #DDCAC2",
"hm c #E5DFD7",
"hn c #BE2D20",
"ho c #E4DDD6",
"hp c #C3A7C3",
"hq c #E3DDD5",
"hr c #C3A5C3",
"hs c #CE8378",
"ht c #BF3A2E",
/* pixels */
"afafafafafafafafafafafafafafafafafafafafafafafafafafafafafafafafafafafafafafafafafafafafafafafafafafafafafafafafafafafafafafafaf",
"afafafafafafafafafafafafafafafafafafafafafafafafafafafafafafafafafafafafafafafafafafafafafafafafafafafafafafafafafafafafafafafaf",
"afafafafafafafafafafafafafafafafafafafafafafafafafafafafafafafafafafafafafafafafafafafafafafafafafafafafafafafafafafafafafafafaf",
"afafafafafafafafafafafafafafafafafafafafafafafafafafafafafafafafafafafafafafafafafafafafafafafafafafafafafafafafafafafafafafafaf",
"afafafafafafafafafafafafafafafafafafafafafafafafafafafafafafafafafafafafafafafafafafafafafafafafafafafafafafafafafafafafafafafaf",
"afeqhmhmhmhmhmhmhmdededehmafafafafafafafafafafafafafafafafafafafafafafafafafafafafafafafafafafafafafafafafafafafafafafafafafafaf",
"`udr`ohcg`g``odr`oc`foc`cuafafafafafafafafafafafafafafafafafafafafafafafafafafafafafhmhmafafafafafafafafafafafafafafafafafafafaf",
"`uaefxfrhhgcbcczfkbedudyejafafafafafafafafafafafafafafafafafafafafafafafafafafafafaffzboafafafafafafafafafafafafafafafafafafafaf",
"eqekbbbrgxbyhb`p``fxhscffxbohmafafafafafafafafafafafafafafafafafafafafafafafafafafhmgp`lcaafafafafafafafafafafafafafafafafafafaf",
"afaqauagcsencmcpboafcibxfxbohmafafafhmdehmafafafafafafhmhmhmhmafhmdehmafafafafafgffzcfdyguhmafafafafafafafafafafafafafafafafafaf",
"af`d`hhncsenckedafafhmbhbnafafafhmaf`ugreibohmafafafafgzfzfzdjaf`uekgzerafafafaffzcxgqhs`dgzboafafafafafafafafafafafafafafafafaf",
"afaq`hhncsencked`pgydrafbpafafafafc`crblcrejafafafhmd`fx`k`kfkhlhfblcr`cbmafhmbo`zbuenh`fxbxdrafafafafafafafafafafafafafafafafaf",
"afaq`hhncsenckguejeo`chmhmafhmbobxbd`qhkefhj`qbhhmhmahbxbjgbdph`bscfcqh`dehmboc`cjgbgjfscxgyd`afafafafafafafafafafafafafafafafaf",
"afaq`hhncsen`qcjh`hs`phmafafca`ugdbygc`dglbjgqbedehmgfap`raxbahbeofsazgwb`eqaf`o```sawbzdw`uhmafafafafafafafafafafafafafafafafaf",
"afaq`hhncsenbtcrhtbkbhhmafafdjbvhngxcmguflh`cnh`cuhmcagrddfnao`pgggtfiabhlafhmhmaegwfigtg`eqafafafafafafafafafafafafafafafafafaf",
"afaq`hhncsenckelhsgv`phmafhmd`efgifvcmedel`qazabfdafcagrddfn`qdwev`qfiabccafafafbngwfigthceqafafafafafafafafafafafafafafafafafaf",
"afaq`hhncsenckgudjdwc`hmafhmd`efgifvcmedel`qax`xfdafcagrddfn`qdwev`qfiabccafafafbngwfigthceqafafafafafafafafafafafafafafafafafaf",
"afaq`hhncsenckcphmfqdzafafhmfzbehngxcmgu`ch`az`xelhmcagrddfn`q`cg``qfiabccafafafbngwfigtg`caafafafafafafafafafafafafafafafafafaf",
"af`dfyhncsenckguhmafhmafafafhmhlbjfvceeddghjcn`qcahmcaekddfnh`gyhqgtaxgwc`hmhmafgy`saxbtfldrafafafafafafafafafafafafafafafafafaf",
"boekbxbrgkgxhb`ogrhmafafafafeqfzcebjblcchfcfgdejhmafhmac`raxcfeodwfsgxbuctfqafhm`chjenbdcr``gfafafafafafafafafafafafafafafafafaf",
"d`bnef`xeygqducxhldeafafafafafafbohkfrefh`h`bfhmafhmgzbebjdd`geobegdbubifxc`fzhmafdshjembzgygfafafafafafafafafafafafafafafafafaf",
"bofz`ufjdzdzekgzboafafafafafafafhmfzfq`cc`dzbohmafafboekdrapci`uekciclfq`ufzafafaffzciapcifzafafafafafafafafafafafafafafafafafaf",
"afhmgfaqaqaqdehmhmafafafboafafafhmafafbo`ucyd`gzboafafafafafafafafafafafafafafafafafafafafafafafafafafafafafafafafafafafafafafaf",
"afafafafafafafafafafafgz`lbcbc`n`ueqhmcudsefhf`nfqafafafafafafafafafafafafafafafafafafafafafafafafafafafafafafafafafafafafafafaf",
"afafafafafafafafafafhmbpceemeagbhbdjhmaffth`gvfeboafafafafafafafafafafafafafafafafafafafafafafafafafafafafafafafafafafafafafafaf",
"afafafafafafafafafafafdi`abtcncs`xeodjhmcacbfgfbafafafafafgfgfhmafafafafafhmhmhmafhmhmafafhmhmgfafafafafafafafhmhmafafafafafafaf",
"afafafafafafafafafafafhmbgefh``vfvba`zgfde``fpdeafafafcafzdrdrekeqafafaffzbgek`uekcidzajhmekclclfzafafafafhmd`drcugzcaafafafafaf",
"afafafafafafafafafafafhmci`kfkblgmcscfcwfbfkfodeafafhm`hfkbibshbdrafafhmapefbiefcxdubleffo`zbl`gcmekafafafclefbi`k`kaphmafafafaf",
"afafafafafafafafafafafhmci`kc`dzbl`rfhbdcl`nfodeafeqgygbaobg`k`vbddrhmhmajdyaxabcjcxbjaxgdctcrhngmaucaaffzhbdpbfc`bdbkcdhmafafaf",
"afafafafafafafafafafafhmbghkaeca`ph`fhbrgvbxgydeafhmds`raobgfgea`rfpdihmajdyfhbd`phchjfidyhc`ngbcnbxgfgfdwbugq`nhlh`abfkcaafafaf",
"afafafafafafafafafafafaf`uczhlafafbcbagkgbcfckaqaferbhfrcx`kfrea`rejhmhmajdyawgdbqfthjfihhbohldpgmfgdjgfbcby`rbi`kbihs``deafafaf",
"afafafafafafafafafafafaf`uejhlafafgfhfdpfhfigvcpafafde`cgthbef`v`rejhmhmajdyawgdhcfthjfihhdlaedpgmfgafdjhfbygbhf`ldgftekhmafafaf",
"afafafafafafafafafafafaf`uczhlafafeqd`cbhtawgvcpafaffofsbufobx`v`rfodehmajdyawgdhcfthjfihhdlaedpgmfgafgfbcbyemcxfbaq`ucuhmafafaf",
"afafafafafafafafafafafhmgrbx`cgfafafhmbpcbemgvcpafafcegi`sbeefeacqcx`phmajblawgdevelbkazhhhohlhtbygphmdeapbdbybkfddwfxbfdeafafaf",
"afafafafafafafafafafafaffobsbzct`oafafgfhabtcb`dafhmfgcqgxbtfxbjgicjbhgfbh`qazbadsfxfsabbiaehkhjbjbic`afbobxcfeabubzbeflhmafafaf",
"afafafafafafafafafafafbo`afghbfybghmafafdeacdwaaafafgrcbgcbcekhkcehlhmhmekgphhcbgyfp`zbxbf`ahl``bxhk`aafhmho`lgvbtcbb`deafafafaf",
"afafafafafafafafafafafafeqaq`bdehmafafafafdedeafafafhm`bcpaqhmca`baaafafercacpfbdedegecadehmdecagecaeqafafafcadxdjfbeqafafafafaf",
"afafafafafafafafafafafafafafafafafafafafafafafafafafafafafafafafafafafafafafafafafafafafafafafafafafafafafafafafafafafafafafafaf",
"afafafafafafafafafafafafafafafafafafafafafafafafafafafafafafafafafafafafafafafafafafafafafafafafafafafafafafafafafafafafafafafaf",
"afafafepa`a`a`a`a`a`a`a`a`a`a`a`a`a`a`a`a`a`a`a`a`a`a`a`a`a`a`a`a`a`a`a`a`a`a`a`a`a`a`a`a`a`a`a`a`a`a`a`a`a`a`a`a`a`a`afafafafaf",
"afafffat`e`e`e`e`e`e`e`e`e`e`e`e`e`e`e`e`e`e`e`e`e`e`e`e`e`e`e`e`e`e`e`e`e`e`e`e`e`e`e`e`e`e`e`e`e`e`e`e`e`e`e`e`e`eatffafafafaf",
"erco`jfadfdmdmdmdmdmdmdmdmdmdmdmdmdmdmdmdmdmdmdmdmdmdmdmdmdmdmdmdmdmdmdmdmdmdmdmdmdmdmdmdmdmdmdmdmdmdmdmdmdmdmdmdmhpewe`fferafaf",
"ercgebewarhphphphphpanasayecf`hphphphphphphphphphphphphphphphpaiasezhpayaseuhphphphphphphphphphphphphphphphphphphpardfe`gsadafaf",
"ercgebewardbdbdbdbdbdqgo`f`m`mhddbdbdbdbdbdbdbdbdb`idqdbdbdbdbdcfmfwdh`mdvdbdbdbdbdbdbdbdbdbdbdbdbdbdbdbdbdbdbdbdbfadfe``jchcoaf",
"ercgebewardbdbdbdbdbdocv`fdvdhhe`weednhd`wehavdndhghakhgdbdbdbdbegbwfudvdohddvehegdbdvet`w`tak`wdbdheeehdbdbdbdbdbfadfe`dtffchbo",
"ercgebewardbdbdbdbdbdocvakethd`ifweggadafmavga`ydbgo`mdbdbdbdbdbdv`fcvfwdqhifu`mgahgeggh`tghehbwdafm`yfmdhdbdbdbdbfadfe`gscydtcy",
"ercgebewardbdbdbdbdbdncvdvdqhd`wgaeegodafm`wgaetdago`idbdbdbdbdbdvheehcv`fhe`tehbwhiegfwehgh`ibwdabwetdqhgdbdbdbdbfadfe`gsffardk",
"ercgebewardbdbdbdbdbdogo`idbdbdnav`wfmdafm`wfwetdafw`whedbdbdbhgehhidb`ydvhigaetgadhegbwehga`ffwdbetfweghidbdbdbdbfadfe``jchcoaf",
"erchebewarhrdmdmdmdmf`asfcdmdmdmf`ayexexasfcfcezdmanf`dmdmdmdmexasezdmexaldmezalf`alfcfcfcezanezexalasezdmdmdmdmdmardfe`gserafaf",
"erff`jfaaiamamamamamamamamamamamamamamamamamamamamamamamamamamamamamamamamamamamamamamamamamamamamamamamamamamamamewale`fferafaf",
"afafffatgngngngngngngngngngngngngngngngngngngngngngngngngngngngngngngngngngngngngngngngngngngngngngngngngngngngngngnatcgesafafaf",
"afafafcocococococococococococococococococococococococococococococococococococococococococococococococococococococococohoafafafaf",
"afafafafafafafafafafafafafafafafafafafafafafafafafafafafafafafafafafafafafafafafafafafafafafafafafafafafafafafafafafafafafafafaf",
"afafafafafafafafafafafafafafafafafafafafafafafafafafafafafafafafafafafafafafafafafafafafafafafafafafafafafafafafafafafafafafafaf",
"afafafafafafafafafafafafafafafafafafafafafafafafafafafafafafafafafafafafafafafafafafafafafafafafafafafafafafafafafafafafafafafaf",
"afafafafafafafafafafafafafafafafafafafafafafafafafafafafafafafafafafafafafafafafafafafafafafafafafafafafafafafafafafafafafafafaf",
"afafafafafafafafafafafafafafafafafafafafafafafafafafafafafafafafafafafafafafafafafafafafafafafafafafafafafafafafafafafafafafafaf",
"afafafafafafafafafafafafafafafafafafafafafafafafafafafafafafafafafafafafafafafafafafafafafafafafafafafafafafafafafafafafafafafaf",
"afafafafafafafafafafafafafafafafafafafafafafafafafafafafafafafafafafafafafafafafafafafafafafafafafafafafafafafafafafafafafafafaf",
"afafafafafafafafafafafafafafafafafafafafafafafafafafafafafafafafafafafafafafafafafafafafafafafafafafafafafafafafafafafafafafafaf",
"afafafafafafafafafafafafafafafafafafafafafafafafafafafafafafafafafafafafafafafafafafafafafafafafafafafafafafafafafafafafafafafaf",
"afafafafafafafafafafafafafafafafafafafafafafafafafafafafafafafafafafafafafafafafafafafafafafafafafafafafafafafafafafafafafafafaf",
"afafafafafafafafafafafafafafafafafafafafafafafafafafafafafafafafafafafafafafafafafafafafafafafafafafafafafafafafafafafafafafafaf",
"afafafafafafafafafafafafafafafafafafafafafafafafafafafafafafafafafafafafafafafafafafafafafafafafafafafafafafafafafafafafafafafaf"
};
