/* XPM */
static const char * IconWindowsTwoVer[] = {
/* width height ncolors chars_per_pixel */
"32 32 248 2",
/* colors */
"   c #D03D0D",
" . c #4E4367",
" X c #29489F",
" o c #213A80",
" O c #1D3372",
" + c #FF4C10",
" @ c #2E4EA7",
" # c #4A6E9E",
" $ c #2B4AA4",
" % c #2A4AA3",
" & c #F4470F",
" * c #223C84",
" = c #EA440F",
" - c #B7350B",
" ; c #DF410E",
" : c #264395",
" > c #1E3576",
" , c #AD320B",
" < c #D43E0D",
" 1 c #2C4CA8",
" 2 c #8ABCAE",
" 3 c #233E88",
" 4 c #445DA5",
" 5 c #BF380C",
" 6 c #1F377A",
" 7 c #2F478D",
" 8 c #B4350B",
" 9 c #4C72A6",
" 0 c #5D76BA",
" q c #F8480F",
" w c #FE5D22",
" e c #E7ADA3",
" r c #DB4A1A",
" t c #EE450F",
" y c #5F6DB2",
" u c #29479E",
" i c #5E6DB1",
" p c #575F93",
" a c #21397F",
" s c #20397E",
" d c #E3420E",
" f c #D93F0E",
" g c #1E3472",
" h c #B1EDC3",
" j c #CE3C0D",
" k c #F5480F",
" l c #2A49A2",
" z c #586197",
" x c #223B83",
" c c #213B82",
" v c #B9360C",
" b c #AE330B",
" n c #B7D6AB",
" m c #F74C14",
" M c #2B4BA6",
" N c #59639B",
" B c #8ABBAD",
" V c #233D87",
" C c #2E4C9F",
" Z c #5C73B5",
" A c #B5E1B6",
" S c #526CB5",
" D c #274498",
" F c #1F3679",
" G c #DD400E",
" H c #F8662F",
" J c #DDAB8B",
" K c #D23D0D",
" L c #5A659F",
" P c #243F8B",
" I c #6176B3",
" U c #3D5CB4",
" Y c #C73A0C",
" T c #D9DBE0",
" R c #EF460F",
" E c #334C93",
" W c #3958B0",
" Q c #BD370C",
" ! c #20387D",
" ~ c #B2340B",
" ^ c None",
" / c #2B448B",
" ( c #1D3370",
" ) c #274087",
" _ c #253E85",
" ` c #213A81",
" ' c #C54C24",
" ] c #E1410E",
" [ c #1E3574",
" { c #E3673E",
" } c #AF9067",
" | c #FE4A10",
".  c #798CC0",
".. c #4A63A9",
".X c #2A4AA4",
".o c #233C86",
".O c #223C85",
".+ c #F3470F",
".@ c #B5878E",
".# c #5B72B3",
".$ c #EDBFBB",
".% c #E9440F",
".& c #E8440E",
".* c #DB9485",
".= c #203779",
".- c #B6350B",
".; c #DE410E",
".: c #AC320B",
".> c #EC7857",
"., c #B6A2B3",
".< c #D33E0D",
".1 c #243E8A",
".2 c #59649D",
".3 c #8ABCAF",
".4 c #2F4DA2",
".5 c #233E89",
".6 c #E19663",
".7 c #D9DADF",
".8 c #BE380C",
".9 c #BA996E",
".0 c #29479C",
".q c #30498F",
".w c #FA531C",
".e c #BCC094",
".r c #25408E",
".t c #5A66A1",
".y c #24408D",
".u c #1D326F",
".i c #1C326E",
".p c #C93D10",
".a c #F84810",
".s c #F7480F",
".d c #496D9A",
".f c #223B81",
".g c #ED450F",
".h c #3555AE",
".j c #E2420E",
".k c #B0330B",
".l c #264292",
".z c #545A87",
".x c #1E3473",
".c c #FF4D10",
".v c #FF4B10",
".b c #CD3C0D",
".n c #2A49A3",
".m c #C2390C",
".M c #B8360C",
".N c #274496",
".B c #1F3677",
".V c #233D88",
".C c #375095",
".Z c #E6430E",
".A c #20387B",
".S c #3F58A0",
".D c #9AB1C1",
".F c #DC400E",
".G c #CB6D49",
".H c #243F8C",
".J c #D13D0D",
".K c #E96435",
".L c #2F4EA4",
".P c #1C316D",
".I c #F94910",
".U c #55679B",
".Y c #243C82",
".T c #223A80",
".R c #213A7F",
".E c #BC370C",
".W c #FF6B30",
".Q c #3352AB",
".! c #264191",
".~ c #5B67A4",
".^ c #1D3371",
"./ c #CF3D0E",
".( c #5A6099",
".) c #786971",
"._ c #EB440F",
".` c #8AAFA0",
".' c #E0410E",
".] c #5C69A8",
".[ c #1F3576",
".{ c #545B89",
".} c #1E3575",
".| c #576BA3",
"X  c #4B70A1",
"X. c #8ABCAD",
"XX c #CB3B0D",
"Xo c #F2470F",
"XO c #ECBFBB",
"X+ c #C0380C",
"X@ c #5E6BAD",
"X# c #20377A",
"X$ c #1F3779",
"X% c #B5350B",
"X& c #586DA7",
"X* c #ECC8C8",
"X= c #E35221",
"X- c #B6A2B4",
"X; c #314FA5",
"X: c #25408C",
"X> c #233E8A",
"X, c #50659F",
"X< c #BB6D42",
"X1 c #486B97",
"X2 c #21397E",
"X3 c #20397D",
"X4 c #596FAB",
"X5 c #E4420E",
"X6 c #DA3F0E",
"X7 c #5B66A3",
"X8 c #25408F",
"X9 c #2E4484",
"X0 c #2A49A1",
"Xq c #C4390C",
"Xw c #D9481A",
"Xe c #EC450F",
"Xr c #5A71AF",
"Xt c #3353AD",
"Xy c #264293",
"Xu c #AF330B",
"Xi c #545A88",
"Xp c #1E3474",
"Xa c #D63F0D",
"Xs c #2F4FA9",
"Xd c #FE4B10",
"Xf c #D6765C",
"Xg c #2B4BA5",
"Xh c #8ABBAC",
"Xj c #223D85",
"Xk c #294699",
"Xl c #5D6AAB",
"Xz c #1F3678",
"Xx c #3C5A9B",
"Xc c #CE4012",
"Xv c #B6A1B3",
"Xb c #B5A1B2",
"Xn c #2C4DA9",
"Xm c #8ABDAF",
"XM c #5D75B8",
"XN c #CC8455",
"XB c #556799",
"XV c #BE370C",
"XC c #5E6CAF",
"XZ c #28469B",
"XA c #314A90",
"XS c #20387C",
"XD c #5E6DA5",
"XF c #B3340B",
/* pixels */
" ^ ^.  4.. 4 4.S E 7 ).Y aXSX#Xz.[Xp.^.u.P.u O.}.BX$.A s.RX9.7 ^",
" ^ I E :.l.r P.V.O x ` a !.AX$Xz.} [Xp.x (.u.^.x >X$XS o *.VXA.7",
".  D.C y y y y i iXCXCX@X@Xl.].] ..(X7.t L.2 N N z z p p pX9 *X9",
" 0.l )X*X*X*X*X*X*X*X*X*X*.* r.% &.I.6.$X*X*X*X*X*X*X*X*X* z.N.V",
"XM.5 _X*X*X*X*X*X*X*X*X* '.<.j R.I.v +.w JX*X*X*X*X*X*X*X* NXZ.O",
"XM *.TX*X*X*X*X*X*X*X* '.8 <.j t.s.v +.cXdX*X*X*X*X*X*X*X* N.4 V",
" Z sXSX*X*X*X*X*X*X* e ,.8.J.;.&.+.W.W + +.>X*X*X*X*X*X*X*.2.h x",
".#.A FX*X*X*X*X*X*X*Xf b vXX f d._ m w | |.wX*X*X*X*X*X*X* L W a",
"XrXz.}X*X*X*X*X*X*X* {XFXu 5.b f dXeXo k k RX*X*X*X*X*X*X*.t.QX3",
"X4 O.^X*X*X*X*X*X*X* {.8.:.-Xq  X6.j.%Xe.g.ZX*X*X*X*X*X*X*.~.nXz",
"X& O.iX*X*X*X*X*X*X*.>./ - b.M.m jXa.F.' ;XwX*X*X*X*X*X*X*.~ $Xz",
".|Xp (X*X*X*X*X*X*X*XOX=Xc 8.: 8X+ Y.b  XXXfX*X*X*X*X*X*X*.~ U.}",
".UXz.}X*X*X*X*X*X*X*X* e.KXc.- bXu.- QXV.GX*X*X*X*X*X*X*X*.].L.x",
".U aX$X*X*X*X*X*X*X*X*X* e.K.JX+X% ~ ~.*X*X*X*X*X*X*X*X*X*.]X;Xp",
"XB `XSX-X-.,.,.,.,XvXvXvXvXb.@ . ..z.z.zXiXiXi.{XiXi.{.{.{X9 s [",
".7XA.C Z S S 4.CXA / _.f a !.AX$Xz >Xp O.^.xXp.}.BXz FX$X#XS c.}",
" ^.D.C `.RX3.AX$XzXzX$X$XzXz.B > [.x O (.i.i.^.}Xz.A a x V.1X, ^",
".D.0.qXnXn 1 MXg.X l X uXZ D D :.!X8.H.5 V * c o aX3 !XS ! a oXD",
" 0Xy / h h h h h h h h h h.e.G.%Xo.K J h h h h h h h h h hX1 :.o",
"XM.r.Y h h h h h h h h hX<   ] R.aXd +.> A h h h h h h h hX1 DXj",
"XM *.f h h h h h h h h.9.E < d t q.v +.c.w h h h h h h h h.d.0 V",
" Z `XS h h h h h h h AXu.8 K ;._ & w w + +.e h h h h h h h.d W c",
".#.A 6 h h h h h h h.9 b v.bX6X5.g.w.W.vXd.K h h h h h h h # @ c",
"XrX$.[ h h h h h h hX< ~ ~.m j GX5 t k.a.IXo h h h h h h h # UX3",
"X4 O g h h h h h h h.G v.: -Xq K.FX5 = R R.% h h h h h h hX  %.=",
"X& O.i h h h h h h hXNXXXF b.EXq   f.; d ] r h h h h h h hX .X F",
".|.x.u h h h h h h h AX=.p.k ,.-X+XX   <.J } h h h h h h h 9.Q.}",
".UXzXp h h h h h h h h.e HXcX%.:.k.M QXVX< h h h h h h h h 9 W [",
".UX2Xz h h h h h h h h h nX=./.E ~Xu ,X< h h h h h h h h h 9.L.x",
"XB `.AXmXmXmXmXmXm.3 2 2 2 2 }.:.:.).`XhXh B BX.X. 2 2 2 2XxX:Xp",
".7.qX> P.H.y.r.r.r.r.y.y.H.H P.1.5 3 V V.O * x c o a sXS.A 6XS.}",
" ^ TXA P.r.!.l.NXk CX;X; $X0X0 %.XXg M 1XsXt.hXt @ $ l X X u...D"
};
