/* XPM */
static const char * IconPanelOGLObj[] = {
/* width height ncolors chars_per_pixel */
"32 32 245 2",
/* colors */
"   c #43220D",
" . c #87B798",
" X c #42875E",
" o c #41835D",
" O c #20471F",
" + c #371B0B",
" @ c #0E6938",
" # c #ABCAB8",
" $ c #4B976A",
" % c #443B07",
" & c #E40000",
" * c #812E15",
" = c #65160A",
" - c #D00000",
" ; c #830000",
" : c #428D61",
" > c #BAC9C0",
" , c #40200D",
" < c #552A11",
" 1 c #33190A",
" 2 c #BBD1C4",
" 3 c #49250F",
" 4 c #3C7C51",
" 5 c #BACFC3",
" 6 c #573520",
" 7 c #CD0000",
" 8 c #16723C",
" 9 c #1733AE",
" 0 c #6ABF6A",
" q c #3C1E0C",
" w c #9C0301",
" e c #512810",
" r c #DE0000",
" t c #ABC1B4",
" y c #DCD9D7",
" u c #B2BCB1",
" i c #AABFB3",
" p c #910000",
" a c #07642D",
" s c #45230E",
" d c #14595B",
" f c #207956",
" g c #381C0B",
" h c #ABC9B7",
" j c #ABC7B7",
" k c #10692F",
" l c #076C30",
" z c #CE0407",
" x c #4D260F",
" c c #A11B0C",
" v c #462512",
" b c #442310",
" n c #802A09",
" m c #C70000",
" M c #41210D",
" N c #428A60",
" B c #351A0B",
" V c #341A0A",
" C c #D80000",
" Z c #288750",
" A c #328050",
" S c #BCB2AD",
" D c #429063",
" F c #018205",
" G c #3E1F0D",
" H c #4A8161",
" J c #3D1F0C",
" K c #443316",
" L c #522910",
" P c #6C4C3A",
" I c #3C5125",
" U c #ABC0B3",
" Y c #D50000",
" T c #9B1B0C",
" R c #3D230F",
" E c #3A1D0C",
" W c #391D0B",
" Q c #C7CCD5",
" ! c #ACC6B7",
" ~ c #4F2710",
" ^ c #07692F",
" / c #816D62",
" ( c #DAD8D7",
" ) c None",
" _ c #4961B9",
" ` c #1A5224",
" ' c #9EBAA9",
" ] c #ABCCB9",
" [ c #361B0B",
" { c #174A21",
" } c #67A280",
" | c #8A7264",
".  c #7FAB91",
".. c #A5C6B3",
".X c #960000",
".o c #4B250F",
".O c #1A5827",
".+ c #951B0C",
".@ c #428F62",
".# c #3F200D",
".$ c #BB0000",
".% c #4B2912",
".& c #E00000",
".* c #2E8F4E",
".= c #0D593B",
".- c #D6DCD9",
".; c #AC1208",
".: c #47230E",
".> c #583218",
"., c #3B1E0C",
".< c #B87E73",
".1 c #33210E",
".2 c #86644F",
".3 c #682B0A",
".4 c #345B29",
".5 c #A9A9DB",
".6 c #502810",
".7 c #492713",
".8 c #3A9760",
".9 c #11783B",
".0 c #43210D",
".q c #8E190B",
".w c #42885E",
".e c #42865E",
".r c #29451E",
".t c #371C0B",
".y c #ABCBB8",
".u c #188445",
".i c #398A55",
".p c #95BF9F",
".a c #DA0000",
".s c #4C260F",
".d c #39531D",
".f c #322D13",
".g c #312B12",
".h c #9DBDAA",
".j c #25431D",
".k c #0F6D32",
".l c #341A0B",
".z c #331A0A",
".x c #D7DDD9",
".c c #643819",
".v c #429464",
".b c #48240E",
".n c #8A0000",
".m c #8B1F0E",
".M c #37431E",
".N c #3B3818",
".B c #1B7D44",
".V c #338655",
".C c #ABC2B4",
".Z c #296473",
".A c #06612C",
".S c #45220E",
".D c #47411D",
".F c #391D0C",
".G c #42855D",
".H c #CFB6B3",
".J c #41815C",
".K c #338C58",
".L c #ABC8B7",
".P c #404E23",
".I c #4E2710",
".U c #01138E",
".Y c #C10804",
".T c #5A351F",
".R c #C70100",
".E c #334920",
".W c #5E9675",
".Q c #41200D",
".! c #428B60",
".~ c #282B12",
".^ c #841D0D",
"./ c #B40301",
".( c #A69991",
".) c #9BB8A7",
"._ c #351B0B",
".` c #C6100C",
".' c #502B15",
".] c #7FAD92",
".[ c #492A18",
".{ c #E20000",
".} c #4A250F",
".| c #BCCFC4",
"X  c #BCB3AD",
"X. c #684733",
"XX c #3D1E0C",
"Xo c #A60000",
"XO c #50906A",
"X+ c #4E8C68",
"X@ c #46A156",
"X# c #8FB49E",
"X$ c #226B40",
"X% c #46230E",
"X& c #CB0000",
"X* c #76220F",
"X= c #00B000",
"X- c #391C0B",
"X; c #287949",
"X: c #A50402",
"X> c #0D5849",
"X, c #4A2915",
"X< c #AAC5B5",
"X1 c #4F2810",
"X2 c #684B39",
"X3 c #DC0000",
"X4 c #1C5F26",
"X5 c #0D3A88",
"X6 c #188D25",
"X7 c #A3A797",
"X8 c #42210D",
"X9 c #496345",
"X0 c #0003D8",
"Xq c #5E9B77",
"Xw c #429062",
"Xe c #428E62",
"Xr c #294D22",
"Xt c #C50000",
"Xy c #C1C5BE",
"Xu c #205023",
"Xi c #9BC3A9",
"Xp c #3F1F0D",
"Xa c #0104BB",
"Xs c #3E1F0C",
"Xd c #166D3A",
"Xf c #AEB1A8",
"Xg c #5C4130",
"Xh c #4A9377",
"Xj c #5C3A26",
"Xk c #D60000",
"Xl c #9FC7B0",
"Xz c #48240F",
"Xx c #4EAA74",
"Xc c #47240E",
"Xv c #065D2A",
"Xb c #C20000",
"Xn c #725442",
"Xm c #09169E",
"XM c #3B1D0C",
"XN c #AE0000",
"XB c #462B1A",
"XV c #417D5A",
"XC c #07672E",
"XZ c #265925",
"XA c #44220E",
/* pixels */
" ) ) ) ) ) ) ) ) ) ) ) ) iX#.J.e.J.e.WX< Q _ ) ) ) ) ) ) ) ) ) )",
" ) ) ) ) ) ) ) ) ) >XVXvXv ^ ^ ^.9.u.9.K.=X5.| ) ) ) ) ) ) ) ) )",
" ) ) ) ) ) ) ).- H.AXC a.v.K.].h U A Z @.U _ Z $.x ) ) ) ) ) ) )",
" ) ) ) ) ) ) ' @.V.AX$X#.e.V AXq }XO.BXhXaX0.@.8 ZX< ) ) ) ) ) )",
" ) ) ) ) ) 'Xd D 8Xd }XO.e } 8.L h.x ).p.Z d fX# ]Xx 2 ) ) ) ) )",
" ) ) ) ) 'Xd.) X.A A.L 2 ) )Xe UX#.G.!Xq . 9X0 Q t.hXxXl ) ) ) )",
" ) ) ) >.A.e.L NX$ t.C.e N :.B.(Xf.C.e XXq fX0 9 # #XO.B ! ) ) )",
" ) ) ).K.VXw.@ lX+ #.x U.W.e ZXtXk.`.<.H ).U dXm o.! jXl $ ) ) )",
" ) ) 5Xd.- ).-XC.e.!.* h ).p.d.;.a z c *X9X>X>X5.5 ) ) ).8.| ) )",
" ) )Xe H o N.] ^ )X@X= )X# F.cXr.P * c z.& zXm d.Z.@.@Xw.v.k 5 )",
" )...A.  t t.] ^ A lX6 F F T 7 I Y C.a r.{ & &.4X< ).-.W o.B.x )",
" ) # A # # # ..w 0 F F F nXb m I - Y C r.& &.; *X;XOX#.x ).yX# )",
" )Xq U ) ) >XO 8XqXi F.3./.$Xb.4 7.; c.T.D.P c.Y.B > t t u u.V )",
" ).v.W.! N.LXi N )X6 % w.^X*.E k I.+ T CX3.a Y m.4.~.1.1 R.f O u",
" 5 l. .C t t AXd.iX4Xr.3X*X:./.m.q m 7 YXk - m.R.j.~.g { O K LX ",
" ).K # # # # 2 4.d ;.n.X wXoXN.m.mXb mX&X&./.+ OXu.M.N L L L.6Xn",
" ) D ) ) i.WX9XZ.X.n ; p.X wXoXNXZ.q.M.>.E.%.6.6 e e L L e e.IXn",
" ).vX9 K < < < kXo.X = =.%.NXu.O.r.N.}.o.s x.I ~X1.6.6.6X1 ~ xX ",
" )X4.O O.j.O.f O O `.g.fXp ,X8XA s.:.b 3.}.o.s x.I.I.I.I.I x.o S",
" )X2XA.# q g._ 1 V [ g EXXXp , MXA sX%Xc.b 3.}.o.s.s.s.s.s.}Xz y",
" )XnXc b.#XM.t B 1 V [X- E qXs , M.0XA sX%.b.b 3.}.}.}.} 3.b.S )",
" )Xy.}.7 v G.F + V 1 V + g E qXs.#.QX8  XA sX%.:.b.b.bXc.: s / )",
" ) )Xn.' 6 vXX W [ V 1.l [ g E qXXXp ,.QX8  XA.S.S s s.SXA M ( )",
" ) )Xy.sXjX..7 qX- + V 1 V [.t WXM q JXp ,.Q MX8X8X8X8X8 , / ) )",
" ) ) ) |.'.2Xn vXX W + B 1.z B [ g E., qXXXsXpXp , ,.#XsXB ) ) )",
" ) ) ) y.T.> |Xn v q E.t._.z 1 V [.t g W E., q qXXXX.,XB ( ) ) )",
" ) ) ) ) y P.T.2X2X, J E g [ B.z 1 V._ +.t gX-X-X- g.tX7 ) ) ) )",
" ) ) ) ) ) y.T.'Xg 6 b G., E g [ B 1 1 V V._._ B V VX7 ) ) ) ) )",
" ) ) ) ) ) ) ) |.s.%.7 b , J., W g [ [ B V.z V VXg ( ) ) ) ) ) )",
" ) ) ) ) ) ) ) ) y P.}.:XAX8.#Xs qXM EX- gX-XB.( ) ) ) ) ) ) ) )",
" ) ) ) ) ) ) ) ) ) ) y.(X2.b sXA M.Q ,.[ /Xy ) ) ) ) ) ) ) ) ) )",
" ) ) ) ) ) ) ) ) ) ) ) ) ) ) )X X  ) ) ) ) ) ) ) ) ) ) ) ) ) ) )"
};
