/* XPM */
static const char * IconSrfPrisa[] = {
/* width height ncolors chars_per_pixel */
"32 32 248 2",
/* colors */
"   c #AEB5AE",
" . c #ADB1AD",
" X c #1C2B18",
" o c #1C2918",
" O c #1A2916",
" + c #1A2716",
" @ c #A8AFA8",
" # c #454733",
" $ c #434331",
" % c #424330",
" & c #657466",
" * c #D2AB99",
" = c #C09784",
" - c #937365",
" ; c #A98474",
" : c #927364",
" > c #A88473",
" , c #917163",
" < c #907162",
" 1 c #939B93",
" 2 c #929992",
" 3 c #53503D",
" 4 c #3B3F2C",
" 5 c #E4E1DF",
" 6 c #4A5C4B",
" 7 c #CEA28E",
" 8 c #475648",
" 9 c #CCA08C",
" 0 c #24321F",
" q c #B58D7C",
" w c #886B5D",
" e c #CA9E8A",
" r c #38412C",
" t c #37412B",
" y c #363F2A",
" u c #1F2E1A",
" i c #343B28",
" p c #5F5745",
" a c #DFDFDD",
" s c #5C5542",
" d c #20361E",
" f c #856D5D",
" g c #324233",
" h c #9A7E6B",
" j c #1D341B",
" k c #AE8978",
" l c #C49A87",
" z c #DAAB96",
" x c #647164",
" c c #816559",
" v c #AC8776",
" b c #957466",
" n c #947465",
" m c #2C3723",
" M c #404430",
" N c #404230",
" B c #665848",
" V c #A98776",
" C c #153016",
" Z c #635445",
" A c #132C14",
" S c #122A13",
" D c #122813",
" F c #8E7062",
" G c #BA9280",
" H c #D0A38F",
" J c #122613",
" K c #A38170",
" L c #CFA38E",
" P c #102611",
" I c #8C6E60",
" U c #A27F6F",
" Y c #102411",
" T c #CDA18C",
" R c #0F2210",
" E c #3B442E",
" W c #B68E7C",
" Q c #3C4F3C",
" ! c #5E5643",
" ~ c #384538",
" ^ c #84685B",
" / c #9A796A",
" ( c #1D311A",
" ) c None",
" _ c #DBAC96",
" ` c #83665A",
" ' c #826659",
" ] c #987768",
" [ c #323E28",
" { c #1B2B18",
" } c #414330",
" | c #D7D8D7",
".  c #1E2F1E",
".. c #99A39A",
".X c #AA8A76",
".o c #7D6857",
".O c #7B6455",
".+ c #917564",
".@ c #A88474",
".# c #BE9583",
".$ c #D3A691",
".% c #132B13",
".& c #BB9380",
".* c #D1A48F",
".= c #293822",
".- c #8E6F61",
".; c #3C432E",
".: c #0F210F",
".> c #0E1F0E",
"., c #7A6C57",
".< c #BCC0BC",
".1 c #8D7763",
".2 c #756652",
".3 c #CBA08C",
".4 c #B3917B",
".5 c #9E7C6D",
".6 c #B48D7C",
".7 c #C9C7C2",
".8 c #C99E8A",
".9 c #B28D7A",
".0 c #86695C",
".q c #9C7A6B",
".w c #1F321B",
".e c #85695B",
".r c #C79C88",
".t c #84675A",
".y c #917D6A",
".u c #AEB4AE",
".i c #343D29",
".p c #5D5944",
".a c #6F624F",
".s c #574F3E",
".d c #977C69",
".f c #1C2E1B",
".g c #D7A994",
".h c #947466",
".j c #C09684",
".k c #937465",
".l c #BF9683",
".z c #D5A792",
".x c #A88373",
".c c #2B3B23",
".v c #917263",
".b c #BD9481",
".n c #949E94",
".m c #283320",
".M c #504D3A",
".N c #504B3A",
".B c #655C48",
".V c #4B5F4C",
".C c #A58373",
".Z c #A27F70",
".A c #A17F6F",
".S c #CDA18D",
".D c #8A6C5F",
".F c #9F7D6D",
".G c #B58E7C",
".H c #886A5D",
".J c #425343",
".K c #333A27",
".L c #494B36",
".P c #84705C",
".I c #997F6A",
".U c #1D331B",
".Y c #1C311A",
".T c #DBAC97",
".R c #AD8C77",
".E c #1B2F19",
".W c #816659",
".Q c #C39986",
".! c #D9AA95",
".~ c #806658",
".^ c #967567",
"./ c #957566",
".( c #626C62",
".) c #424932",
"._ c #CBA391",
".` c #7E7163",
".' c #474F3A",
".] c #655547",
".[ c #142D15",
".{ c #B79687",
".} c #8F7363",
".| c #BB9381",
"X  c #D1A490",
"X. c #8E7162",
"XX c #8D6F61",
"Xo c #A38070",
"XO c #CFA28E",
"X+ c #B8917E",
"X@ c #CEA28D",
"X# c #485648",
"X$ c #8C6D60",
"X% c #A17E6E",
"X& c #CDA08C",
"X* c #0F2310",
"X= c #0E210F",
"X- c #39432C",
"X; c #685F4D",
"X: c #A98879",
"X> c #494635",
"X, c #A38673",
"X< c #897360",
"X1 c #9E806E",
"X2 c #586754",
"X3 c #9B7A6B",
"X4 c #C69C88",
"X5 c #997869",
"X6 c #AF8978",
"X7 c #C59A87",
"X8 c #DBAB96",
"X9 c #826759",
"X0 c #C49A86",
"Xq c #977667",
"Xw c #313D27",
"Xe c #172614",
"Xr c #233C23",
"Xt c #D7D9D7",
"Xy c #1F321F",
"Xu c #7F6B59",
"Xi c #A98975",
"Xp c #A78373",
"Xa c #D3A591",
"Xs c #132A13",
"Xd c #D2A590",
"Xf c #8F7062",
"Xg c #BB9280",
"Xh c #BA927F",
"Xj c #112611",
"Xk c #102410",
"Xl c #54533F",
"Xz c #0F220F",
"Xx c #252F1E",
"Xc c #CEB1A3",
"Xv c #4E4F39",
"Xb c #BDC1BD",
"Xn c #756152",
"Xm c #A0836F",
"XM c #243520",
"XN c #B5907D",
"XB c #CB9F8C",
"XV c #B48E7C",
"XC c #CA9F8B",
"XZ c #876A5D",
"XA c #9D7B6C",
"XS c #9C7B6B",
"XD c #C89D89",
"XF c #85685B",
/* pixels */
" ) ) ) ) ) ) ) ) |.( ~.> R N.M.N 4 u.mXkX=. X#Xb ) ) ) ) ) ) ) )",
" ) ) ) ) ) ) ).(XxXMXwXwX- r t # ! [Xw [.U.[.Y m 8 a ) ) ) ) ) )",
" ) ) ) ) ) ) xXj.E.M.}.@Xo.F / n F w.WXF IXXX; d.w g ) ) ) ) ) )",
" ) ) ) ) ) ) A X.CX6 v >Xo.F /.h.- w ' ^ I./XAXp [ R . ) ) ) ) )",
" ) ) ) ) ) ).J.f.'.+ vXp.Z.F / nXf w ' ^.D - :X>.iX= 2 ) ) ) ) )",
" ) ) ) ) ) ).{ j SXe OX>.o.O.o b F.~ Z Z.sXx.: uXj.+X# ) ) ) ) )",
" ) ) ) ) ) )X:X. !.U.c.E uXkX*X= +Xz { X !., S.p.RXO.K ) ) ) ) )",
" ) ) ) ) ) 5 U.h w '.~.a.LX- E E M.)Xv.).IXi.*.$.$ H.s.< ) ) ) )",
" ) ) ) ) ).7.5.v.0 '.D : /X%.x k.G G.jX7.8.S HXd.$Xd h 2 ) ) ) )",
" ) ) ) ) ).{X3 <XF `X$ - /X% >X6.GXh.l l.8 T HXd.$Xd.SX# ) ) ) )",
" ) ) ) ) )X: ]XX `.t I.h.qX%.x k.G.&.l lXD T HXd.$.$XO.K ) ) ) )",
" ) ) ) ) 5 U./X$ 'XF I./X3X%.@X6.GXg.jX0XDX& LXd.$.$ H M.< ) ) )",
" ) ) ) ).`.F.k w c.0 F./XS U >X6XV G.lX0XD 9 LX Xa.$X  h 2 ) ) )",
" ) ) ) 1XuX3.v.0 cXZ F.^XAXo.@X6.G.&.#.QXD.3XO.*Xd.$Xd 9 ~ ) ) )",
" ) ) ).VXuX5Xf.0 c.HXfXqXAXo >X6.6.&.#.Q.rXBXO.*Xd.$Xa 7.> ) ) )",
" ) ) ).n dX;XX ^ ' w , ]XAXo ;X6.6Xg.l.Q.rXCX@ HXd.$.R y ~ ) ) )",
" ) ) ) )X2.UXn.O.]X9.v ]XAXo ;X6 qXg.#.QX4XCX@X1.X h tXy | ) ) )",
" ) ) ) ) ).nXr.=XkXz.m Z B.o.FX6.6 G.9XN K e oXk t.w xXt ) ) ) )",
" ) ) ) ) ) ) )  .V Q.[ S SXjXk {.M.m [ (.) ( d 6 1Xt ) ) ) ) ) )",
" ) ) ) ) ) ) ) ) ) ) @ CXl.aX;Xs S M.2Xl S R | ) ) ) ) ) ) ) ) )",
" ) ) ) ) ) ) ) ) ) ) )Xc.yX-.Y.[ A A y.L f 8 ) ) ) ) ) ) ) ) ) )",
" ) ) ) ) ) ) ) ) ) ) ) 5 *X: F.tXZ , /.A B.< ) ) ) ) ) ) ) ) ) )",
" ) ) ) ) ) ) ) ) ) | ..(X,._.v ^XZ :XS.ZXe ..< ) ) ) ) ) ) ) ) )",
" ) ) ) ) ) ) | 2 ~.: 4 3 hXc.^XF w.k.F f s MX*.  xXb ) ) ) ) ) )",
" ) ) ) ) ).<. .;X<XV.G.G.d._.C.eXZ ] U p i.PXi.X.p J 2 ) ) ) ) )",
" ) ) ) )Xt P V.G W WX+ G.bXNXm.BXuX,.4.T _X, # X $Xm 0.. ) ) ) )",
" ) ) ) ) &.2 vX+ G.|.#.j.Q.rXCXO.$.g.! _.T.T _ z.4 pX*.  ) ) ) )",
" ) ) ) ).n.,X2Xm.#.l =X0.r e T H.$.g.g.!X8 _.T.T.S.M.1 ~ ) ) ) )",
" ) ) ) ) )X2.= Y 3./X7.r.8.3X@.*Xa.z.g.!.! z.4X< oXjXy | ) ) ) )",
" ) ) ) ) ) ) & C S.m oX= N N } % $ $ $ $ o o X m D QXt ) ) ) ) )",
" ) ) ) ) ) ) ) ).n.VXr.c S S S S S S SX-.L.% 6 &Xt ) ) ) ) ) ) )",
" ) ) ) ) ) ) ) ) ) ) ) )Xb            .u ) ) ) ) ) ) ) ) ) ) ) )"
};
