/* XPM */
static const char * IconPanels[] = {
/* width height ncolors chars_per_pixel */
"32 32 126 2",
/* colors */
"   c #432C4F",
" . c #A26CBD",
" X c #626060",
" o c #5E5C5C",
" O c #846792",
" + c #D7D6D6",
" @ c #BE7EDF",
" # c #1F1628",
" $ c #CA86EE",
" % c #6946A9",
" & c #563989",
" * c #684B76",
" = c #BBBABA",
" - c #372553",
" ; c #50375B",
" : c #6B577C",
" > c #61419A",
" , c #4A3155",
" < c #343232",
" 1 c #ABAAAA",
" 2 c #4D335B",
" 3 c #86599D",
" 4 c #9F9E9E",
" 5 c #322247",
" 6 c #1F1527",
" 7 c #4F3A6A",
" 8 c #6B47AA",
" 9 c #533764",
" 0 c #725189",
" q c #161414",
" w c #251930",
" e c #5E3F72",
" r c #8F8E8E",
" t c #251E26",
" y c #121010",
" u c #402A5B",
" i c #4F4D4F",
" p c #080606",
" a c #7F7E7E",
" s c #1F1A23",
" d c #271B38",
" f c #875A9D",
" g c None",
" h c #120C16",
" j c #110C15",
" k c #4F3A73",
" l c #1E1B1B",
" z c #A06ABC",
" x c #5F5E5E",
" c c #D6D6D6",
" v c #3F2A63",
" b c #4F4E4E",
" n c #1A171A",
" m c #3F2F45",
" M c #080505",
" N c #3B2B41",
" B c #160F16",
" V c #D08AF8",
" C c #201B23",
" Z c #403053",
" A c #BABABA",
" S c #432D4C",
" D c #2F1F35",
" F c #372554",
" G c #3E2947",
" H c #110B14",
" J c #9663AE",
" K c #333232",
" L c #34233D",
" P c #AAAAAA",
" I c #775E82",
" U c #644776",
" Y c #5F5D5D",
" T c #B075CE",
" R c #9E9E9E",
" E c #1A1123",
" W c #533765",
" Q c #4F4D4D",
" ! c #5D575E",
" ~ c #8E8E8E",
" ^ c #342439",
" / c #302035",
" ( c #28202D",
" ) c #4B3256",
" _ c #5E3E6C",
" ` c #65488A",
" ' c #674478",
" ] c #875A9E",
" [ c #533782",
" { c #9E9D9D",
" } c #442D5C",
" | c #1D1B1B",
".  c #D990FF",
".. c #8E8D8D",
".X c #2E1F46",
".o c #C482EA",
".O c #1A131B",
".+ c #070505",
".@ c #61436E",
".# c #7E7287",
".$ c #4B3155",
".% c #201B24",
".& c #99959E",
".* c #593B66",
".= c #744D87",
".- c #87599D",
".; c #5B4C61",
".: c #9663AF",
".> c #9563AE",
"., c #564E5C",
".< c #756F77",
".1 c #A16BBD",
".2 c #5E5D5D",
".3 c #D7D7D7",
".4 c #6E4984",
".5 c #525151",
".6 c #4E4D4D",
".7 c #070404",
".8 c #160E16",
".9 c #211624",
".0 c #724FA2",
".q c #322238",
".w c #43324C",
".e c #302036",
".r c #382655",
".t c #614270",
/* pixels */
" g g g g g g g g g g g g g = C.+.O q |.2 + g g g g g g g g g g g",
" g g g g g g g g g g g g <.+.*. . . .1 G P g g g g g g g g g g g",
" g g g g g g g g g g g r p T. . . . .  , c g g g g g g g g g g g",
" g g g g g g g g g g g l 3. . . . .  9 { g g g g g g g g g g g g",
" g g g g g g g g g g A U $. . . .  T o g g g g g g g g g g g g g",
" g g g g g g g g g g 1 .. . . .  $ : g g g g g g g g r.2.3 g g g",
" g g g g g g g g g g 1.q. . . .  N 1 g g g g g g g b &.r.+ { g g",
" g g g g g g g g g g +.-. . . .  G.2 g g g g g g Y % F / 2., g g",
" g g g g g g g g g g g.;. . . .  ' s g g g g g 4 [ -.7 $ 3 n g g",
" g g g g g g g g g g g.#. . . . .  w a 1 1 1 r v 8 u T.  $.9 g g",
" g g g g g g g g g g g 1.o. . . . .e # `.0 7 d > }.>. .  T y g g",
" g g g g g g g g g g g 1 V. . . .  T.7 5 q Z 0 6.>. . . .= q g g",
" g g g g g g g g g g g Y. . . . . . . . . . . . . . . .  e { g g",
" g g g g g g g g g g = ^ @. . . . . . . . . . . . . .  $ i g g g",
" g g g g g g g g g g Y S T. . . . . . . . . . . . .  $ t + g g g",
" g g g g g g g g g 4 j.4. . . . . . . . . . . . .  f Q g g g g g",
" g g g g g g g g.3 k.+ $. . . . . . .  T ] G   O.< 1 g g g g g g",
" g g g g g g g g K.+.>. . . . . . .  3 ~ P g g g g g g g g g g g",
" g g g g g g g R.X.e. . . . . . .  * { g g g g g g g g g g g g g",
" g g g g g g.3 q _ $. . . . . .  W { g g g g g g g g g g g g g g",
" g g g g g g K h 3. . . . . .  ) { g g g g g g g g g g g g g g g",
" g g g g g.& E D. . . . . . .$ { g g g g g g g g g g g g g g g g",
" g g g g g.%.8 $. . . . .  ;.6 g g g g g g g g g g g g g g g g g",
" g g g g Q B $. . . . . .@.5 g g g g g g g g g g g g g g g g g g",
" g g g 4 M D. . . . . .> X g g g g g g g g g g g g g g g g g g g",
" g g = p p T. . . .  J ! g g g g g g g g g g g g g g g g g g g g",
" g g r H.>. . . . .  ( g g g g g g g g g g g g g g g g g g g g g",
" g g I 3. . . . .: m + g g g g g g g g g g g g g g g g g g g g g",
" g 1 L. . . . .: q + g g g g g g g g g g g g g g g g g g g g g g",
" g x.t. . . .  m + g g g g g g g g g g g g g g g g g g g g g g g",
" g g Q f z.1.w + g g g g g g g g g g g g g g g g g g g g g g g g",
" g g g +.2.. g g g g g g g g g g g g g g g g g g g g g g g g g g"
};
