/* XPM */
static const char * noname[] = {
/* width height ncolors chars_per_pixel */
"32 32 158 2",
/* colors */
"   c #483B07",
" . c #D7CBCC",
" X c #484987",
" o c #484A8D",
" O c #484A8F",
" + c #484A90",
" @ c #484A92",
" # c #7F5349",
" $ c #6C6EB6",
" % c #5C242A",
" & c #7E7FA1",
" * c #252794",
" = c #373982",
" - c #6E4242",
" ; c #494BA0",
" : c #805458",
" > c #4A3E07",
" , c #4A4507",
" < c #4A4807",
" 1 c #4A4907",
" 2 c #4A4A06",
" 3 c #4A4A07",
" 4 c #383A91",
" 5 c #FDEC00",
" 6 c #383B9B",
" 7 c #4A4CA4",
" 8 c #4A4DB2",
" 9 c #392E05",
" 0 c #FEDC00",
" q c #FEDD00",
" w c #A49F05",
" e c #3A1116",
" r c #816603",
" t c #3A1216",
" y c #FDFDC7",
" u c #FEE700",
" i c #393B8B",
" p c #393BA6",
" a c #4D151B",
" s c #FFDC00",
" d c #ECECC0",
" f c #ECECC5",
" g c #818181",
" h c #ECEDC2",
" j c #705803",
" k c #947400",
" l c #282A9B",
" z c #EEBC00",
" x c #FFF100",
" c c #FFF600",
" v c #4D3509",
" b c #FFF700",
" n c #FFFB00",
" m c #FFFF00",
" M c #EDEDC3",
" N c #FFFFFF",
" B c #B99503",
" V c #292B97",
" C c #60353F",
" Z c #A6A7AF",
" A c #5F5F5F",
" S c #DCD8D8",
" D c #EEEE01",
" F c #604E04",
" G c #181A7E",
" H c #181B80",
" J c #181B83",
" K c #73433D",
" L c #070A7B",
" P c #070A7E",
" I c #3E122D",
" U c #191B85",
" Y c #191B87",
" T c #191B8D",
" R c #191C93",
" E c #502445",
" W c #2B2E9F",
" Q c #4F5198",
" ! c #503D0D",
" ~ c #3E3207",
" ^ c #858541",
" / c #080B85",
" ( c #080B8C",
" ) c #3F133D",
" _ c #3F1442",
" ` c #1A1C84",
" ' c #3F1813",
" ] c #2C2FAA",
" [ c #BBBBBB",
" { c #CDCDB4",
" } c #CDCDB6",
" | c #52161C",
".  c #CDCEBF",
".. c #CDCEC0",
".X c #DFDFBF",
".o c #513D0D",
".O c #634A09",
".+ c #F1F1C7",
".@ c #090C8C",
".# c #401913",
".$ c #CFA400",
".% c #BCBCAC",
".& c #BCBCAD",
".* c #BCBCAF",
".= c #BCBDB4",
".- c #BCBDBC",
".; c #BCBDBD",
".: c #6364A9",
".> c #2E2507",
"., c #9A7A02",
".< c #99978E",
".1 c #1C1E8C",
".2 c #F4C000",
".3 c #7677AD",
".4 c #888AB9",
".5 c #D0C09A",
".6 c #ACACAC",
".7 c #C09700",
".8 c #BFB803",
".9 c #1E21A5",
".0 c #D1C1C3",
".q c #ADAD12",
".w c #3033A1",
".e c #ADADAD",
".r c #BFBF03",
".t c #ADAEAA",
".y c #794D51",
".u c #666634",
".i c #78799B",
".p c #1F2286",
".a c #F7C600",
".s c #555543",
".d c #AF9496",
".f c #676893",
".g c #676994",
".h c #8C676B",
".j c #8C6D00",
".k c #0E1194",
".l c #AFB0C0",
".z c #565893",
".x c #68699B",
".c c #D5A700",
".v c #E7B600",
".b c #9E9FBB",
".n c #454434",
".m c #6A3E42",
".M c #C2C3C1",
".N c #696905",
".B c #E6E6E6",
".V c #6A5303",
".C c #7C6203",
".Z c #F8F8F8",
".A c #9F9F04",
".S c #9F9F9F",
".D c #C3C4C0",
".F c #473009",
".G c #473907",
".H c #A0A1AC",
/* pixels */
".B.B.B.B.B.B.B.B.B.B.B.B.B.B.B.B.B.B.B.B.B.B.B.B.B.B.B.B.B.B.B.B",
".B.B.B.B.B.B.B.B.B.B.B.B.B.B.B.B.B.B.B.B.B.B.B.B.B.B.B.B.B.B.B.B",
".B.B.B.B.B.B.B.B.B.B.B.B.B.B.B.B.B.B.B.B.B.B.B.B.B.B.B.B.B.B.B.B",
".B.B.B.B.B.B.y | | | | # y y y y y y y y y y y y y y y # | | | |",
".B.B.B.B.B.B.y | | | | # y y y y y y y y y y y y y y y # | | | |",
".B.B.B.B.B.B.y | | | | # y y y y y y y y y y y y y y y # | | | |",
".B.B.B.6.n.B.y | | | | # y y y y y y y y y y y y y y y # | | | |",
".B.B.B.6.N.S.y | | | | # y.% } y y y y y y y y y y y y # | | | |",
".B.B.B.6 3.q.m | | | | # i ; 7.w.+ y y y y y y y y y y # | | | |",
".B.B.B.6 3 m ! | | | | ).= y y.4 y y y y y y y y y y y # | | | |",
".B.B.B.6 3 m D t | | | _.: M y y d J.1.D.f `.p.X.z ( Z # | | | |",
".B.B.B.6 3 m m w a | | #.b W.H y.x.t f * P { 8 V.& y ] C | | | |",
".s ^ ^.u 3 m m m ! | | # y y.. l Y y y.- @ y.; T Q.& h # | | | |",
".A m m.r 2 m m m D e | # y y y p ( y y.- o y.- + y f.k # | | | |",
" 3 m m.r 3 m m m m w a E.3 y y =.@.M d U O y.-.9.* y 4 I | | | |",
" < c c.8 3 m m m m m.o # $ / H.g.l R G &.i y.  ; 6 L X - | | | |",
"  .a.a B 3 m m m m 5.O # y y y y y y y y y y y y y y y # | | | |",
".> k k j 2 m m n u., a # y y y y y y y y y y y y y y y # | | | |",
" 9.j.j.V 3 m b q.$.# | K.5.5.5.5.5.5.5.5.5.5.5.5.5.5.5 K | | | |",
".6.e.6 g 1 x 0.v v | | | | | | | | | | | | | | | | | | | | | | |",
".B.B.B.6 , s z r a | | | | | | | | | | | | | | | | | | | | | | |",
".B.B.B.6 >.2.7 ' | | | |.0.0.0.0.0.0.0.0.0.0.0.0.d | | | | | | |",
".B.B.B.6.G.c.F | | | | | N N N N N N N N N N N N.0 | | | | | | |",
".B.B.B.6 ~.C.m | | | | | N N | | | N N N N N N N.0 | | | | | | |",
".B.B.B.6 F.<.y | | | | | N N | | | N N N N N N N.0 | | | | | | |",
".B.B.B [ A.B S % | | | | N N | | | N N N N N N N.0 | | | | | | |",
".B.B.B.B.B.B.B S % | | | N N | | | N N N N N N N.0 | | | | | | |",
".B.B.B.B.B.B.B.B S % | | N N : : : N N N N N N N.0 | | | | | | |",
".B.B.B.B.B.B.B.B.B S.h.y.Z.Z.Z.Z.Z.Z.Z.Z.Z.Z.Z.Z ..y.y.y.y.y.y.y",
".B.B.B.B.B.B.B.B.B.B.B.B.B.B.B.B.B.B.B.B.B.B.B.B.B.B.B.B.B.B.B.B",
".B.B.B.B.B.B.B.B.B.B.B.B.B.B.B.B.B.B.B.B.B.B.B.B.B.B.B.B.B.B.B.B",
".B.B.B.B.B.B.B.B.B.B.B.B.B.B.B.B.B.B.B.B.B.B.B.B.B.B.B.B.B.B.B.B"
};
