/* XPM */
static const char * IconViewIsometry[] = {
/* width height ncolors chars_per_pixel */
"32 32 200 2",
/* colors */
"   c #BEBECB",
" . c #196318",
" X c #9F5357",
" o c #943A3F",
" O c #822A2A",
" + c #171752",
" @ c #943535",
" # c #D8DED7",
" $ c #A094AA",
" % c #5A5A83",
" & c #1B2159",
" * c #193C39",
" = c #293660",
" - c #B0CAAC",
" ; c #E5BCBC",
" : c #B79C9C",
" > c #61292A",
" , c #1F1F60",
" < c #2C6309",
" 1 c #D0BEBB",
" 2 c #281D55",
" 3 c #221C59",
" 4 c #9595AC",
" 5 c #19195A",
" 6 c #414174",
" 7 c #DED9D9",
" 8 c #B0B0C3",
" 9 c #262660",
" 0 c #D8D8DD",
" q c #1F1F63",
" w c #BDBDC9",
" e c #1B1B5F",
" r c #9A3A3A",
" t c #161650",
" y c #23236A",
" u c #B5C3AD",
" i c #553E1A",
" p c #1B1B62",
" a c #418834",
" s c #68254E",
" d c #A4A4BA",
" f c #7F2929",
" g c #BF2330",
" h c #D34C54",
" j c #B1CBAC",
" k c #E5BBBB",
" l c #216C11",
" z c #382050",
" x c #197409",
" c c #197209",
" v c #5B5B86",
" b c #DF0A0A",
" n c #E89393",
" m c #2E225D",
" M c #D7D7DB",
" N c #206D09",
" B c #D07378",
" V c #974040",
" C c #1A1A5D",
" Z c #642A46",
" A c #424277",
" S c #222268",
" D c #D49196",
" F c #202066",
" G c #C8B0AB",
" H c #AA7070",
" J c #286514",
" K c #8E879D",
" L c #1A671A",
" P c #1E1E64",
" I c #1C1C62",
" U c None",
" Y c #1B2157",
" T c #9B3D3D",
" R c #183C36",
" E c #4F9144",
" W c #337018",
" Q c #171753",
" ! c #3F3F6D",
" ~ c #68687E",
" ^ c #E1D7D7",
" / c #1B7B0A",
" ( c #629250",
" ) c #1A7909",
" _ c #1A7709",
" ` c #381F4F",
" ' c #1A7509",
" ] c #1C2E51",
" [ c #1B2E50",
" { c #1B215A",
" } c #EA6666",
" | c #191958",
".  c #883741",
".. c #402250",
".X c #B0B0C1",
".o c #C2B6AB",
".O c #1C542C",
".+ c #782E3B",
".@ c #BDBDC7",
".# c #1B1B5D",
".$ c #8C3E3E",
".% c #181E50",
".& c #25256A",
".* c #F15C5C",
".= c #D3C2C2",
".- c #1A5723",
".; c #1B1B60",
".: c #1A2B4B",
".> c #509644",
"., c #832B2B",
".< c #2D1B4A",
".1 c #347318",
".2 c #60846B",
".3 c #666685",
".4 c #D8DFD7",
".5 c #2E2E6F",
".6 c #B6B2A5",
".7 c #2A2A6B",
".8 c #181856",
".9 c #B0C9AC",
".0 c #E6BDBD",
".q c #DFD8D7",
".w c #D19098",
".e c #6F2424",
".r c #5B5B87",
".t c #182A45",
".y c #792F27",
".u c #E6D7D7",
".i c #B6C2AB",
".p c #DDD8D8",
".a c #1A6E0E",
".s c #C4BFC6",
".d c #A8A790",
".f c #1F6B09",
".g c #1A1A5E",
".h c #286233",
".j c #171751",
".k c #202067",
".l c #788050",
".z c #428F35",
".x c #1C1C63",
".c c #BDBDC2",
".v c #713A5A",
".b c #171754",
".n c #B1CAAC",
".m c #B0C8AB",
".M c #903333",
".N c #24245A",
".B c #1A5F1E",
".V c #197309",
".C c #301E52",
".Z c #197109",
".A c #488434",
".S c #9595AB",
".D c #191959",
".F c #7A2931",
".G c #232366",
".H c #D8D8DC",
".J c #206E09",
".K c #6AA25F",
".L c #1B1B5E",
".P c #696990",
".I c #25256B",
".U c #A64848",
".Y c #C5B2B2",
".T c #513C29",
".R c #212167",
".E c #1F1F65",
".W c #665258",
".Q c #1D1D63",
".! c #1E6C0A",
".~ c #1B1B61",
".^ c #BC444D",
"./ c #A4A4B9",
".( c #4F9044",
".) c #181854",
"._ c #943636",
".` c #1B7C0A",
".' c #1B7A0A",
".] c #1A7A09",
".[ c #1A7809",
".{ c #1A7609",
".} c #BED1BB",
".| c #BECFBB",
"X  c #973C3C",
"X. c #3B6E19",
"XX c #3A6A18",
"Xo c #181857",
"XO c #F04141",
"X+ c #2B314F",
"X@ c #96B990",
"X# c #513C1B",
"X$ c #B01723",
"X% c #1A1A5C",
"X& c #275E30",
"X* c #242469",
"X= c #272162",
"X- c #1B7410",
"X; c #202065",
"X: c #196E0E",
/* pixels */
" U U U U U U U U U U U U U U U U U U U U U U U U U U U U U U U U",
" U U U U U U U U U U U U U U U U U U U U U U U U U U U U U U U U",
" U U U U U U U U U U U U U U U U U U U U U U U U U U U U U U U U",
" U U U U U U U U U U U U U U U U U U U U U U U U U U U U U U U U",
" U U U U U U U U U U U U U U U U U U U U U U U U U U U U U U U U",
" U U U U U U U U U U U U U U U U U U U U U U U U U U U U U U U U",
" U U U U U U U U U U U U U U U U U U U U U U U U U U U U U U U U",
" U U U U U U U U U U U U U U U U U U U U U U U U U U U U U   8.P",
" U U U U U U U U U U U U U U U U U U U U U U U U U U.X 6 p p.r U",
" U U U U U U U U U U U U U U U U U U U U U U U : V @ Z.~ C % U U",
" U U U U U U U U U U U U U U U U U U U U U.p H r.M.. C.D.3 U U U",
" U U U U U 0.0 U U U U U U U U U U U U U 7.$.U.+ 2 C 9.@ U U U U",
" U U U U D.v d U U U U U U U U U U U U.s X.  z.C e v M U U U U U",
" U U.H.W.2.m.m.m.m.o G.i # U U U U.S !.5 m 3 e.Q./ U U U U U U U",
".* B.T ' ' ' ' ' ' ' ' ' ' '.a R.j Q.&.Q.E.Q.# ~ U U U U U U U U",
".^ $XX.J xX:.- ' ' ' ' ' ' ..%.j C.I y.x.x.7.c U U U U U U U U U",
" U U UX@X& + Q * x x ' ' R.b |.x S.Q p I = 0 U U U U U U U U U U",
" U U U w t.j + Q.%X:X:.t Q C F.R.~.~ [ L.z U U U U U U U U U U U",
" U U U U.N.j.j Q.) QXo.D.; P.x.~ ].B.[ ).' U U U U U U U U U U U",
" U U U U 4 t t + t Q 5.Q.x p {.O.[.[.[ ).].} U U U U U U U U U U",
" U U U U U t t t.8.~.x I I YX:.{ _.[.[.[ ) - U U U U U U U U U U",
".(.( E E EX+.<.g.x.kX*.G.:.V x x.{ _.[.[.[.9 U U U U U U U U U U",
".f.Z c.! >.F oX=X;.L q , KX@ N x '.{.[.[.[.9 U U U U U U U U U U",
".d a.ZX# O T._ ` C & 5X%.X U.| W x ' _.[.[.> U.w h U U U U U U U",
" U U.6 f O.,.y lX-.`X% A   U U # ( < ' _.[.h s b ; U U U U U U U",
" U U UX .e i _.[.'.`.H U U U U U U 1.A.{ J g n U U U U U U U U U",
" U U U.=.Y u.1 _ ) / j U U U U U U U kX$ }.u U U U U U U U U U U",
" U U U U U U.q.l.[.'.n U U U U U U U ^XO U U U U U U U U U U U U",
" U U U U U U U U.KX..4 U U U U U U U U U U U U U U U U U U U U U",
" U U U U U U U U U U U U U U U U U U U U U U U U U U U U U U U U",
" U U U U U U U U U U U U U U U U U U U U U U U U U U U U U U U U",
" U U U U U U U U U U U U U U U U U U U U U U U U U U U U U U U U"
};
