/* XPM */
static const char * IconShaded[] = {
/* width height ncolors chars_per_pixel */
"32 32 248 2",
/* colors */
"   c #A58881",
" . c #8D7570",
" X c #ADADAD",
" o c #DAB4AB",
" O c #705E5A",
" + c #C09F98",
" @ c #BC9B94",
" # c #BB9B93",
" $ c #514542",
" % c #BA9992",
" & c #4F4340",
" * c #B89790",
" = c #B7978F",
" - c #F1C7BE",
" ; c #9D827C",
" : c #332C2B",
" > c #EFC5BC",
" , c #1C1B1B",
" < c #322C2A",
" 1 c #9B807A",
" 2 c #312A29",
" 3 c #EDC3BA",
" 4 c #ECC3B9",
" 5 c #EBC1B8",
" 6 c #EAC1B7",
" 7 c #939393",
" 8 c #D0ACA4",
" 9 c #CEAAA2",
" 0 c #CCA8A0",
" q c #433937",
" w c #AB8D86",
" e c #413735",
" r c #A98B84",
" t c #E1B9B1",
" y c #E0B9B0",
" u c #DFB7AF",
" i c #DEB7AE",
" p c #C2A099",
" a c #BF9E96",
" s c #BE9C95",
" d c #BD9C94",
" f c #534643",
" g c #BC9A93",
" h c #BB9A92",
" j c #F4CAC0",
" k c #676767",
" l c #A1857F",
" z c #372F2E",
" x c #F3C8BF",
" c c #201E1E",
" v c #656565",
" b c #9F837D",
" n c #1E1C1C",
" m c #F0C6BC",
" M c #636363",
" N c #9D817B",
" B c #9C817A",
" V c #9B7F79",
" C c #846E69",
" Z c #826C67",
" A c #D2ADA5",
" S c #D0ABA3",
" D c #CEA9A1",
" F c #817573",
" G c #B3948D",
" H c #493E3C",
" J c #AF9089",
" K c #AD8E87",
" L c #2C2726",
" P c #4B4B4B",
" I c #947B75",
" U c #494949",
" Y c #E2BAB1",
" T c #C6A39C",
" R c #2E2B2B",
" E c #C3A199",
" W c #594B48",
" Q c #3B3B3B",
" ! c #C19F97",
" ~ c #A98C86",
" ^ c #373737",
" / c #A58882",
" ( c None",
" ) c #3A3230",
" _ c #A38680",
" ` c #232120",
" ' c #A2867F",
" ] c #F5C9C0",
" [ c #F4C9BF",
" { c #A1847E",
" } c #F2C7BD",
" | c #9F827C",
".  c #1F1D1C",
".. c #1E1B1B",
".X c #D8B2AA",
".o c #1B1918",
".O c #D8D8D8",
".+ c #B79790",
".@ c #1F1F1F",
".# c #B5958E",
".$ c #1D1D1D",
".% c #B3938C",
".& c #483D3A",
".* c #B1918A",
".= c #997E79",
".- c #171717",
".; c #E8BFB6",
".: c #E6BDB4",
".> c #131313",
"., c #C4C4C4",
".< c #111111",
".1 c #0F0F0F",
".2 c #CBA8A0",
".3 c #0D0D0D",
".4 c #C8A49D",
".5 c #C7A49C",
".6 c #BCBCBC",
".7 c #C5A29A",
".8 c #B8B8B8",
".9 c #AB8D87",
".0 c #A98B85",
".q c #A88B84",
".w c #A78983",
".e c #A68982",
".r c #A48780",
".t c #AEAEAE",
".y c #DEB7AF",
".u c #211E1D",
".i c #89726C",
".p c #DCB5AD",
".a c #1F1C1B",
".s c #725F5C",
".d c #1D1A19",
".f c #D7B1A8",
".g c #BA9A92",
".h c #B99891",
".j c #B89890",
".k c #362F2E",
".l c #F0C6BD",
".z c #9C817B",
".x c #EEC4BB",
".c c #191818",
".v c #2F2927",
".b c #949494",
".n c #EAC0B7",
".m c #929292",
".M c #7F6A65",
".N c #CDA9A1",
".B c #CBA79F",
".V c #AD8E88",
".C c #AC8E87",
".Z c #AB8C86",
".A c #808080",
".S c #AA8C85",
".D c #E2BAB2",
".F c #231F1E",
".G c #DFB8AF",
".H c #DEB6AE",
".J c #DDB6AD",
".K c #DBB4AB",
".L c #C19F98",
".P c #BF9D96",
".I c #BE9D95",
".U c #F4C9C0",
".Y c #A0847E",
".T c #F2C7BE",
".R c #352E2C",
".E c #F1C7BD",
".W c #9E827C",
".Q c #F0C5BC",
".! c #1D1B1B",
".~ c #EFC5BB",
".^ c #9C807A",
"./ c #9B8079",
".( c #D3AEA6",
".) c #D1ACA4",
"._ c #655451",
".` c #565656",
".' c #545454",
".] c #B4958E",
".[ c #4A3F3D",
".{ c #B2938C",
".} c #B0918A",
".| c #463B39",
"X  c #AE8F88",
"X. c #4A4A4A",
"XX c #E6BDB5",
"Xo c #E5BDB4",
"XO c #272221",
"X+ c #E3BBB2",
"X@ c #E1B9B0",
"X# c #60524F",
"X$ c #C4A29A",
"X% c #3C3C3C",
"X& c #C2A098",
"X* c #3A3A3A",
"X= c #383838",
"X- c #A68983",
"X; c #3B3331",
"X: c #A48781",
"X> c #A38780",
"X, c #3A3130",
"X< c #F6CAC1",
"X1 c #39312F",
"X2 c #F5CAC0",
"X3 c #A2857F",
"X4 c #A1857E",
"X5 c #F3C8BE",
"X6 c #1E1C1B",
"X7 c #87706B",
"X8 c #1D1A1A",
"X9 c #D7B1A9",
"X0 c #1A1817",
"Xq c #D5AFA7",
"Xw c #D4AFA6",
"Xe c #D3ADA5",
"Xr c #D7D7D7",
"Xt c #685753",
"Xy c #222222",
"Xu c #B89891",
"Xi c #202020",
"Xp c #B6968F",
"Xa c #1E1E1E",
"Xs c #B4948D",
"Xd c #B2928B",
"Xf c #EBC2B9",
"Xg c #E9C0B7",
"Xh c #161616",
"Xj c #2B2524",
"Xk c #E7BEB5",
"Xl c #E6BEB4",
"Xz c #7C6863",
"Xx c #121212",
"Xc c #101010",
"Xv c #0E0E0E",
"Xb c #CAA79F",
"Xn c #BFBFBF",
"Xm c #C9A59E",
"XM c #C8A59D",
"XN c #BDBDBD",
"XB c #C6A39B",
"XV c #AF928B",
"XC c #AA8C86",
"XZ c #3F3634",
"XA c #A88A84",
"XS c #B79C96",
"XD c #A78A83",
"XF c #3D3432",
/* pixels */
" ( ( ( ( ( ( ( ( ( (Xr M ,.3 2.FXvXjXv.$ U., ( ( ( ( ( ( ( ( ( (",
" ( ( ( ( ( ( ( ( ( (X* Z bX$ t t t t.(.p.iXh., ( ( ( ( ( ( ( ( (",
" ( ( ( ( ( ( ( ( (Xr.<.N t t t t t t t tXk.& F ( ( ( ( ( ( ( ( (",
" ( ( ( ( ( ( ( ( (.m 2 {.e.4 9.X u.:Xg.TX<Xp R ( ( ( ( ( ( ( ( (",
" ( ( ( ( ( ( ( ( (.@ C ;.S =.5.(.JXk.xX5X< x.u.8 ( ( ( ( ( ( ( (",
" ( ( ( ( ( ( ( (.6X8.e.W w %.4.(.yXk.x.TX2X2._.` ( ( ( ( ( ( ( (",
" ( ( ( ( ( ( ( ( U &X4 bXd @XM.(.HXo 3.E ]X< t.>.O ( ( ( ( ( ( (",
" ( ( ( ( ( ( (Xr.< l |  Xd s.BXw.H.: 4.l [X< xX,.b ( ( ( ( ( ( (",
" ( ( ( ( ( ( ( 7 <.w ;.0.# ! 0.( 9.V.s H.+XXX2 GXy ( ( ( ( ( ( (",
" ( ( ( ( ( ( (XiX7X4.W.C.jX&.N W.oXO ) LXv.a.M.EX6Xn ( ( ( ( ( (",
" ( ( ( ( ( (.6.!.9.WX4.V.h.i.oXc..XiX.Xx.k.c.( [._ k ( ( ( ( ( (",
" ( ( ( ( ( ( v $.e NX:XV ZXcXO.@.6 ( (Xx E s.G xX&Xx ( ( ( ( ( (",
" ( ( ( ( ( (Xx /.Y N.q.0X8.F.' ( ( (Xr.< @Xm 8.G >X1.b ( ( ( ( (",
" ( ( ( ( ( 7 :.S b.Y w $.c.$ ( ( ( (.'XZXp.IXB D 5 IX% ( ( ( ( (",
" ( ( ( ( ( Q.iX: N _.VXF W.m ( ( (.'XF.=.Z.% g E.) >.1.O ( ( ( (",
" ( ( ( (.6 c J.Y N   JXx.v X (.6.$X0 b./.YXA.}Xu.5X5._ v ( ( ( (",
" ( ( ( ( vX# r.W.W r.{.>X0.A ^.1 $   r '.^ N  .C.g [ p.@ ( ( ( (",
" ( ( ( (XxX-X:.z.YXCXs n.R.d .XB.P.h.{ w / b.^ '.0X2.lX1.t ( ( (",
" ( ( (.t : K { B.r.C.#XzX#..Xq 9.4X& #.#X XAX4.^ bXf x I U ( ( (",
" ( ( ( Q.iXA.W NXD JXp.} c.R OX9 8XbX$.I *Xd.Z.r.W.Q.U.GXvXr ( (",
" ( (XrX6.}X>.^.Y.0.* * s.MXF `XS oXe.NXM !.gXs.VXMX<X2 -.&.m ( (",
" ( ( v f wX4 1X3XC.%Xu.P.7 z W.-XV.J.f SXbX$ d # mX<X< x.LXa ( (",
" ( (Xy.q.w.W.^  .CXs.h aXB.I.v.= ) + y.X A.N.5.nX2X<X< [ >.d.6 (",
" (.t : J _ 1.W.eX .# %.LXB.2.)X9.KX@XlX+ i.f.;X5 [X<X<X2.T I M (",
" ( Q.iXCX4 V {XA JXp h ! T.2.)X9 o iX+Xk 5.x m.T [X2X<X< x.yXv (",
"Xr.!.{.e.W.^X>.SXd.+ @X&.5.N.).f.K uX+Xk 6.x.Q.T [X2X<X< j m.&.m",
" v CX  _.^ ;  .C.% * @X&.5.N AX9 o.G.D.: 5 3 >.E xX2X<X<X2 }X7X=",
".bXh /.Y V b.w.VXsXu s p.5.N AX9 o i Y.:Xg 3 >.E x.UX<X<X<.TXj ^",
" (.`XhX; :XZ z ..# %.P E.4.N.(X9.K i YXoXg 4.~X$Xp ~XoXX.+ )XaXr",
" ( (XN P.>Xx.< f.vXvXv.3.3 e q q q.| f O.&.3.d.].1XuXt. X*.m ( (",
" ( ( ( ( (.t.t k PX% nXx. XxX6X1.s.s ).[.[.uXxXxX. 7Xr ( ( ( ( (",
" ( ( ( ( ( ( ( ( ( ( ( (XN.t.t.A.t.t.t.t.tXr ( ( ( ( ( ( ( ( ( ("
};
