/* XPM */
static const char * IconTVOfRev[] = {
/* width height ncolors chars_per_pixel */
"32 32 247 2",
/* colors */
"   c #6E3B34",
" . c #885E5E",
" X c #4F130F",
" o c #86D0A4",
" O c #5F5846",
" + c #5B0707",
" @ c #6F302B",
" # c #500606",
" $ c #576C55",
" % c #6B1210",
" & c #548669",
" * c #642420",
" = c #B09292",
" - c #580707",
" ; c #5D1E19",
" : c #4D0606",
" > c #5A1A16",
" , c #518669",
" < c #508468",
" 1 c #6AAE88",
" 2 c #67A885",
" 3 c #74BE95",
" 4 c #5F241E",
" 5 c #66A884",
" 6 c #75A27F",
" 7 c #600808",
" 8 c #8E5656",
" 9 c #72BC93",
" 0 c #7FD0A3",
" q c #550707",
" w c #5E6F58",
" e c #653131",
" r c #70B891",
" t c #7DCEA1",
" y c #C19F9F",
" u c #5C6D56",
" i c #A98E8E",
" p c #581C17",
" a c #4A0606",
" s c #88E0AF",
" d c #87DEAE",
" f c #561A15",
" g c #DCD7D7",
" h c #5F9373",
" j c #5B4234",
" k c #5F755C",
" l c #CCBABA",
" z c #671615",
" x c #6F624E",
" c c #B39E9E",
" v c #57110F",
" b c #4C100E",
" n c #551E1A",
" m c #8D665E",
" M c #518568",
" N c #804E4E",
" B c #5C9776",
" V c #53110E",
" C c #599373",
" Z c #A3A091",
" A c #67A784",
" S c #C6BABA",
" D c #57735A",
" F c #731613",
" G c #57372C",
" H c #78C59B",
" J c #84D9AA",
" K c #83D7A9",
" L c #54624D",
" P c #680808",
" I c #81D5A7",
" U c #663A34",
" Y c #80D3A6",
" T c #763030",
" R c #5D0707",
" E c #698468",
" W c #520606",
" Q c #54372C",
" ! c #854F4F",
" ~ c #631310",
" ^ c #5B614D",
" / c None",
" ( c #6DAA86",
" ) c #5C2720",
" _ c #5A4335",
" ` c #675745",
" ' c #59231D",
" ] c #5A0707",
" [ c #6D4A41",
" { c #80CA9F",
" } c #51372C",
" | c #501914",
".  c #4F8265",
".. c #561210",
".X c #542E25",
".o c #79C098",
".O c #77BC96",
".+ c #589071",
".@ c #5C3C30",
".# c #570707",
".$ c #784A3B",
".% c #63A27F",
".& c #558C6E",
".* c #61352B",
".= c #AB8E8E",
".- c #4C0606",
".; c #538A6C",
".: c #6EB48D",
".> c #609E7C",
"., c #DED7D7",
".< c #652E25",
".1 c #5F8064",
".2 c #6BB08A",
".3 c #5D9A79",
".4 c #6AAE89",
".5 c #77C499",
".6 c #5C9878",
".7 c #541411",
".8 c #5D7C62",
".9 c #76C298",
".0 c #68AC87",
".q c #512E25",
".w c #5D4234",
".e c #874343",
".r c #5C4033",
".t c #6E896C",
".y c #53231D",
".u c #88E0B0",
".i c #490606",
".p c #B59E9E",
".a c #DBD7D7",
".s c #85DCAD",
".d c #720A0A",
".f c #629777",
".g c #A08686",
".h c #5E9373",
".j c #5D9172",
".k c #B08F8F",
".l c #6D3329",
".z c #616C55",
".x c #61231D",
".c c #5B755C",
".v c #641616",
".b c #638367",
".n c #5E9B79",
".m c #5E1210",
".M c #5C100E",
".N c #5A9575",
".B c #D0BBBB",
".V c #599374",
".C c #66A984",
".Z c #65A783",
".A c #71B992",
".S c #5D6E57",
".D c #7DCDA1",
".F c #89E1B0",
".G c #7BCB9F",
".H c #86DDAD",
".J c #5B3027",
".K c #DBD6D6",
".L c #85DBAC",
".P c #771E1B",
".I c #5C0707",
".U c #510606",
".Y c #5C1814",
".T c #61110F",
".R c #640808",
".E c #4E7C62",
".W c #628D6F",
".Q c #5A9071",
".! c #4A0F0C",
".~ c #661B17",
".^ c #4E0606",
"./ c #53886A",
".( c #508467",
".) c #5E110F",
"._ c #5C9676",
".` c #5A9474",
".' c #68A885",
".] c #579071",
".[ c #7E4242",
".{ c #71BA91",
".} c #560707",
".| c #E1DBDB",
"X  c #76AF8C",
"X. c #9F5F5F",
"XX c #B79E9E",
"Xo c #7AC89D",
"XO c #79C89C",
"X+ c #5E8064",
"X@ c #78A884",
"X# c #5A110E",
"X$ c #5C4234",
"X% c #4E2C23",
"X& c #6C896B",
"X* c #514133",
"X= c #B28F8F",
"X- c #573A2F",
"X; c #679F7D",
"X: c #73B18C",
"X> c #594F3E",
"X, c #623026",
"X< c #637D62",
"X1 c #7DC399",
"X2 c #5B624D",
"X3 c #5B4436",
"X4 c #5D9373",
"X5 c #78BB94",
"X6 c #4F231D",
"X7 c #578B6D",
"X8 c #6A2F27",
"X9 c #576D56",
"X0 c #5A352B",
"Xq c #814E4E",
"Xw c #5C2C23",
"Xe c #4F8165",
"Xr c #6C0808",
"Xt c #835D5D",
"Xy c #C7BABA",
"Xu c #578F70",
"Xi c #5B3B2F",
"Xp c #619F7D",
"Xa c #6DB38C",
"Xs c #5F9D7B",
"Xd c #5A6852",
"Xf c #5D3027",
"Xg c #581515",
"Xh c #5D1210",
"Xj c #5B2E25",
"Xk c #665E4A",
"Xl c #75C197",
"Xz c #690808",
"Xx c #5F271F",
"Xc c #62765D",
"Xv c #82D5A7",
"Xb c #51110E",
"Xn c #74BF96",
"Xm c #643C31",
"XM c #956C6B",
"XN c #7FD1A4",
"XB c #575745",
"XV c #530606",
"XC c #89E1B1",
"XZ c #629877",
"XA c #5C7F64",
"XS c #7B4E4E",
"XD c #582E25",
/* pixels */
" / / / / / / / / / / / / / / / / / i [ :.7.r.r.J # =.| / / / / /",
" / / / / / / / / / / / / / /.KXt.^ ` {.u.FXCXC.u o ` T.| / / / /",
" / / / / / / / / / / / / /XyXg `X1.L.H d.u.FXCXC.u.H.oXM / / / /",
" / / / / / / / / / / /.aXgXmX@Xv K J.L.H d.u.F oX@X@ 6.t g / / /",
" / / / / / / / / / / c.} E t 0 YXv K J.L 0.t XX6X*XD ] q #XM.| /",
" / / / / / / / / / iXw 6XO.G tXN YXv { O W.*.RX,.<.wXkX8.lX8 @.|",
" / / / / / / / / N.mX:.9 HXo.G t 0X3.# R 4 k hXsXsXsXsXsXsXs z =",
" / / / / / / /Xq ) ( 9Xn.9 HXoX5.7 ).) uXsXsXsXsXsXsXsXsXsXsXc.U",
" / / / / / /XqXhXa.: r 9Xn.9X&.} RX0.hXsXsXsXsXsXsXsXsXsXsXsXs f",
" / / / / /XXXhX;.4.2.: r 9 j ; >X2XsXsXsXs k.J.JX$.cXsXsXsXsXs.X",
" / / / /XX +XZ.Z.0.4.2 (.r.I vXAXsXsXs.b.<.R ~.l F.~ OXsXsXsXsXd",
" / / / g.v ^Xp.%.Z.0 1...m.y.hXsXsX+.w m /.T.Q 2X  F W.hXsXsXs.q",
" / / /.[X0 B.nXp.%.ZXi.I V.hXsXpX$ ! g / m.J.].3 A.l -.cXsXsXs a",
" / / g RXu C B.n.> _.IXbXsXs hX#XX / / g >. ./.+.nX, V.cXsXsX+ e",
" / / z G.;Xu C._ u.I.U.hXs h ).= / / / ! D ,Xe./.+.x bXsXsXs.JXt",
" /.k ;.E ,.&XuX7X#XV $XsXs V.p / / /XX.w.N.& ,XeX9.m.!XsXs.1.- S",
" / TXB.(Xe M.; ' - }XsXsX2 . / / /.=Xi.f.n.`.& , G f LXsXs ' e /",
" l.x &.; <Xe G.I bXsXs.h e / / /.p ) 1 5.%.n.` D >.!X4Xs h n.K /",
"X= k CXu.; <.MXV $XsXs Q c / / i.@.A.:.4.C.%.nX# f $XsXs G i / /",
".eX$.6.VXuXB.IX*XsXs.j U /Xy  XcXlXn.{.:.4 5X3Xw }XsXs uXg.K / /",
" PXcXp.6.V.).-X4XsXs.X.gXS `X1.DXo.5Xn.A.:.zXjXbXsXsXs.yXy / / /",
"XzX .'Xp.8 7X%XsXs h.iXfX@ JXvXN tXo.5Xn.b p p.hXsXs.X c / / / /",
" %.O.O.'X, - LXsXsXc a s d.s J IXN tX5X3Xf fXAXsXs u . / / / / /",
".PX:.o.O ~ aXsXsXsXc #XC s d.s JXv.t n.*X3.hXsXs w N / / / / / /",
"X. x 3.o.~.iXsXsXs h.. mXC.u dX&X-X>XxX2XsXsXs.S N / / / / / / /",
"., FX5 3 PX6XsXsXsXs ` R.^.q |.YXm.)X+XsXsXs.zXq / / / / / / / /",
" / y.$XoXz bXsXsXsXs.bX8Xr P *.w.1XsXsXsXZ.@XX / / / / / / / / /",
" / /., Z.d #XsXsXsXsXsXsXsXsXsXsXsXsXs.1 *XX / / / / / / / / / /",
" / / / / 8Xm.WXsXsXsXsXsXsXsXsXsXs.1 4.[ g / / / / / / / / / / /",
" / / / /.B.d.}X4XsXsXsXsXsXsXsX< 4.v g / / / / / / / / / / / / /",
" / / / / / y.d ~.SXsXs h kX< 4 T.k / / / / / / / / / / / / / / /",
" / / / / / / /X. FXrXz P.eX= l / / / / / / / / / / / / / / / / /"
};
