/* XPM */
static const char * IconObjMerge[] = {
/* width height ncolors chars_per_pixel */
"32 32 40 1",
/* colors */
"  c #9A6969",
". c #92BD92",
"X c #8DBB8D",
"o c #484899",
"O c #722727",
"+ c #ADADCA",
"@ c #0F2567",
"# c #549F54",
"$ c #489948",
"% c #0F7D0F",
"& c None",
"* c #691919",
"= c #92A7A7",
"- c #674731",
"; c #393992",
": c #BEA4A4",
"> c #ADCAAD",
", c #A1C4A1",
"< c #1E1E84",
"1 c #83B683",
"2 c #8A4F4F",
"3 c #74805A",
"4 c #9292BD",
"5 c #6363A6",
"6 c #DDD8D8",
"7 c #63A663",
"8 c #D7D7DF",
"9 c #394F7C",
"0 c #B59696",
"q c #399239",
"w c #2D8C2D",
"e c #BCBCD1",
"r c #1E841E",
"t c #9EBBA6",
"y c #0F0F7D",
"u c #CEBEBE",
"i c #D7DFD7",
"p c #397456",
"a c #CBD9CB",
"s c #BCD1BC",
/* pixels */
"&&&&&&&&&&&&&&&&&&&&&&&&&&&&&&&&",
"&&&&&&&&&&&&&&u220&&&&&&&&&&&&&&",
"&&&&&&&&&&&&6O*****:&&&&&&&&&&&&",
"&&&&&&&&&&&&O*******u&&&&&&&&&&&",
"&&&&&&&&&&&u******** &&&&&&&&&&&",
"&&&&&&&&&&& ********O&&&&&&&&&&&",
"&&&&&&&&&&&2*********&&&&&&&&&&&",
"&&&&&&&&&&&2*********&&&&&&&&&&&",
"&&&&&&&&&&&u******** &&&&&&&&&&&",
"&&&&&&&&&&&&3******-&&&&&&&&&&&&",
"&&&&&&&&&&&,$:O*** >#&&&&&&&&&&&",
"&&&&&&&&&&,%$&&&>&&>%#&&&&&&&&&&",
"&&&&&&&&&ir%$&&>$&&>%%,&&&&&&&&&",
"&&&&&&&&ir%%$&&$%&&>%%%,&&&&&&&&",
"&&&&&&&&w%%%$&i%%.&>%%%%a&&&&&&&",
"&&&&&&&&&1%%$&.%%q&>%%qi&&&&&&&&",
"&&&&&&&&&$.ii&q%%%i&si%&&&&&&&&&",
"&&&&&&&&i%i&&a$qr$X&&&q.&&&&&&&&",
"&&&&&&&&.$&&&&&>$&&&&&>q&&&&&&&&",
"&&&&&&&&q>&&&&&>$&&&&&&%i&&&&&&&",
"&&&&&&&sr&&&&&&>$&&&&&&77&&&&&&&",
"&&&&&&&77&&&&&&>$&&&&&&sr&&&&&&&",
"&&&&&+e%i&&&&&&=p&&&&&&&qt+8&&&&",
"&&&4<yy@e&&&&e;yy<4&&&&89yyy58&&",
"&&eyyyyy<&&&&<yyyyye&&&5yyyyy5&&",
"&&;yyyyyy4&&4yyyyyy;&&8yyyyyyy8&",
"&&yyyyyyyo&&oyyyyyyy&&+yyyyyyy+&",
"&&<yyyyyy5&&5yyyyyy<&&eyyyyyyye&",
"&&4yyyyyy8&&8yyyyyy4&&&;yyyyy;&&",
"&&&4<yy;e&&&&e;yy<4&&&&85yyy58&&",
"&&&&&+e&&&&&&&&e+&&&&&&&&8+8&&&&",
"&&&&&&&&&&&&&&&&&&&&&&&&&&&&&&&&"
};
