/* XPM */
static const char * IconSrfAdd[] = {
/* width height ncolors chars_per_pixel */
"32 32 252 2",
/* colors */
"   c #A88484",
" . c #82678D",
" X c #221F88",
" o c #3C3391",
" O c #A68282",
" + c #ABABAB",
" @ c #1F1C7B",
" # c #D9D9E2",
" $ c #5F5CC7",
" % c #2E2AB8",
" & c #A7A6C8",
" * c #6361AD",
" = c #BD9595",
" - c #B5B4D9",
" ; c #2B27AB",
" : c #2A27AA",
" > c #3E36B7",
" , c #28249E",
" < c #27249D",
" 1 c #DAAEAE",
" 2 c #A5829B",
" 3 c #4E408B",
" 4 c #9796B8",
" 5 c #242190",
" 6 c #6461B1",
" 7 c #332DA2",
" 8 c #493EB1",
" 9 c #2B27AE",
" 0 c #4C4AA0",
" q c #CEA2A2",
" w c #211E83",
" e c #201E82",
" r c #CA9E9E",
" t c #302CC0",
" y c #AE8989",
" u c #2D29B3",
" i c #3D39C6",
" p c #AA8585",
" a c #7573B4",
" s c #211E86",
" d c #2926A5",
" f c #302A98",
" g c #DADAE2",
" h c #B1B0C7",
" j c #2F298D",
" k c #2E29B7",
" l c #BF9696",
" z c #23208B",
" x c #2A26A9",
" c c #6C58A1",
" v c #201D7E",
" b c #312D92",
" n c #302D91",
" m c #474597",
" M c #9B7A83",
" N c #52438E",
" B c #6F5A90",
" V c #7775D0",
" C c #2F2BBB",
" Z c #5A4AA3",
" A c #BFBFD1",
" S c #23208E",
" D c #D2A5A5",
" F c #B08BA8",
" G c #D0A3A3",
" H c #201D81",
" J c #332FC2",
" K c #B3B2CF",
" L c #2825A0",
" P c #483D9B",
" I c #B08A8A",
" U c #252293",
" Y c #3E3591",
" T c #221F86",
" R c #615FA6",
" E c #434343",
" W c #1A185D",
" Q c #414141",
" ! c #7774CC",
" ~ c #262297",
" ^ c #9897BE",
" / c #252296",
" ( c #4E4086",
" ) c #35343F",
" _ c #C19797",
" ` c #2C297F",
" ' c None",
" ] c #231F8A",
" [ c #221F89",
" { c #B5B4D7",
" } c #2B27A9",
" | c #A38080",
".  c #6C57A0",
".. c #A17E7E",
".X c #1F1C7C",
".o c #715B91",
".O c #D8ADB4",
".+ c #876CA0",
".@ c #D9D9E3",
".# c #937484",
".$ c #2F2ABA",
".% c #D8AAAA",
".& c #BEBECF",
".* c #D4A6A6",
".= c #B6B4DB",
".- c #B5B4DA",
".; c #3B35BF",
".: c #332EC1",
".> c #28249F",
"., c #27249E",
".< c #514EA6",
".1 c #151515",
".2 c #252192",
".3 c #242191",
".4 c #3E359A",
".5 c #525093",
".6 c #211E84",
".7 c #A583A9",
".8 c #C99E9E",
".9 c #302CC1",
".0 c #BABABA",
".q c #755D87",
".w c #070707",
".e c #1D1B76",
".r c #D8D8DE",
".t c #4F4186",
".y c #C39898",
".u c #2D29B4",
".i c #A98585",
".p c #83688E",
".a c #312BA4",
".s c #534E97",
".d c #A78383",
".f c #A5A5C3",
".g c #4A48A2",
".h c #A58181",
".j c #2A26A7",
".k c #3730B7",
".l c #6F6DAF",
".z c #866B9E",
".x c #D8A9A9",
".c c #2C2A81",
".v c #23208C",
".b c #B8919A",
".n c #3C38BF",
".m c #4C40A7",
".M c #B89090",
".N c #AB87A1",
".B c #201D7F",
".V c #1F1D7E",
".C c #2F2BBC",
".Z c #5654A0",
".A c #4E41B6",
".S c #2C28AF",
".D c #9E9DD6",
".F c #322CA1",
".G c #CFA3A3",
".H c #615FA4",
".J c #201D82",
".K c #CB9F9F",
".L c #C99D9D",
".P c #605E99",
".I c #AD8888",
".U c #BF969D",
".Y c #AB8686",
".T c #A98484",
".R c #221F87",
".E c #8B8AB9",
".W c #7B6185",
".Q c #1F1C7A",
".! c #2F2C8D",
".~ c #C198A2",
".^ c #5F5CC6",
"./ c #C09797",
".( c #AA869F",
".) c #1F1C7D",
"._ c #715B92",
".` c #27249C",
".' c #D9D9E4",
".] c #2E2ABA",
".[ c #BFBED1",
".{ c #24218F",
".} c #D3A6A6",
".| c #3D39C2",
"X  c #2B27AD",
"X. c #AE8AA6",
"XX c #525091",
"Xo c #CFA2A2",
"XO c #211E82",
"X+ c #605EA2",
"X@ c #2824A0",
"X# c #AB8799",
"X$ c #6C5990",
"X% c #46438F",
"X& c #AF8989",
"X* c #C1C0D6",
"X= c #252193",
"X- c #6C5686",
"X; c #4D41AD",
"X: c #4239B6",
"X> c #211E85",
"X, c #483DA8",
"X< c #2926A4",
"X1 c #5C59AB",
"X2 c #C59BA5",
"X3 c #302CC2",
"X4 c #BE96A8",
"X5 c #D9D8E0",
"X6 c #8C6F8E",
"X7 c #C49A9A",
"X8 c #2D29B5",
"X9 c #6C6AA0",
"X0 c #3F38C0",
"Xq c #9174A0",
"Xw c #323232",
"Xe c #2A26A8",
"Xr c #302A9A",
"Xt c #D9AEB5",
"Xy c #A07D7D",
"Xu c #4F48BF",
"Xi c #7875D0",
"Xp c #27239B",
"Xa c #26239A",
"Xs c #2F2BBA",
"Xd c #D5A7A7",
"Xf c #23208D",
"Xg c #372F9A",
"Xh c #463B81",
"Xj c #B79090",
"Xk c #716FB5",
"Xl c #201D80",
"Xz c #AA87A1",
"Xx c #302BBE",
"Xc c #5C4CA7",
"Xv c #AC878F",
"Xb c #5654A1",
"Xn c #C0BFD4",
"Xm c #2C28B0",
"XM c #525193",
"XN c #4B40AA",
"XB c #2825A2",
"XV c #BBBBBB",
"XC c #C89D9D",
"XZ c #080808",
"XA c #2E2C8A",
"XS c #060606",
"XD c #504287",
"XF c #262296",
"XG c #252295",
"XH c #836898",
"XJ c #826897",
"XK c #2C297E",
/* pixels */
" ' ' ' ' ' ' ' ' ' ' ' ' ' ' ' ' ' ' ' ' ' ' ' ' ' ' ' ' ' ' ' '",
" ' ' ' '.&.5X%.Q mXbX* ' ' ' ' ' ' ' ' ' hXMX% @.Z.lX* ' ' ' ' '",
" ' '.[ `Xl X.2., U s v.< ' ' ' ' ' '.fXK.B z /.,.{ w v a ' ' ' '",
" ' ^.R /XB.jX  uX:.AXN.s & ' ' ' 'X+ [Xa.FXe 9X8.$.CXm.EXn ' ' '",
".H.3 <.` fXJ 2XC.~ qX2 jXb ' ' ' R U.>Xp fXH.b.8X. F.7X>.l ' ' '",
" *., U YXv =X7 rXo D.}.4.! ' ' ' 6 <X= NXj =X7.K G DX4.vXb ' ' '",
".] Y (X&Xj lXC q.*.x.%Xq.J ' '.-.] 3X- IXj l.L.GXd.x.x PXA ' ' '",
" C M  X&.M _.8.%Xt.(.N.+.J K '.-Xs | p I.M.y.K 1.O.(Xz.zX>X5 ' '",
" C._.d yXj./.UX$.e.X v.).X e 0 g C.o.TX&Xj.yX#Xh.e @.V.).XXOX1 g",
".^ Z.h.IXjX6 H S o.aXm.u.u ; ].[.n.p O.IXj ..6 5X@ :XmX8.uX< TX5",
" !.k.#.i.t.v.` L.>.j Z c 8.9X8XX $.m.h.YXD.{.,.>.> x. Xc.AX3.j.P",
".=XxXy.W.3 , ~XG dXm k.:X0X,XfX9.DX;.. 3XF < / ~ } u % JX0 7.6 4",
" '.| BXrX@ 5 nXk ' ' '.@Xi.S.g '.@ t.qXBXpXf bXk ' ' '.@Xu x.l '",
" ' V.;Xg.v.cX5 ' ' ' ' ' ' 'XV E Q W >X@ [ `X5 ' ' ' ' ' ' ' ' '",
" '.' iXm.3 A ' ' ' ' ' ' ' ' +XZXS ) i ; n.r ' ' ' ' ' ' ' ' ' '",
" ' ' ' - # ' ' ' ' ' ' ' ' ' +XZ.w Q ' { ' ' ' ' ' ' ' ' ' ' ' '",
" ' ' ' ' ' ' ' ' ' ' ' ' ' ' +XZXS Q ' ' ' ' ' ' ' ' ' ' ' ' ' '",
" ' ' ' ' ' ' ' ' ' ' ' ' ' ' +XZ.w Q ' ' ' ' ' ' ' ' ' ' ' ' ' '",
" ' ' ' ' ' ' ' ' ' ' ' ' ' ' +XZ.w Q ' ' ' ' ' ' ' ' ' ' ' ' ' '",
" ' ' ' ' ' ' ' ' ' ' ' ' ' ' +XZ.w Q ' ' ' ' ' ' ' ' ' ' ' ' ' '",
" ' ' ' ' ' ' ' ' Q Q Q Q Q QXwXZ.w.1 Q Q Q Q Q Q.0 ' ' ' ' ' ' '",
" ' ' ' ' ' ' ' '.w.w.w.w.w.w.wXZ.wXS.w.w.w.w.w.w + ' ' ' ' ' ' '",
" ' ' ' ' ' ' ' 'XZXZXZXZXZXZXZXZXS.wXZXZXZXZXZXZ + ' ' ' ' ' ' '",
" ' ' ' ' ' ' ' ' ' ' ' ' ' ' +XZ.w Q ' ' ' ' ' ' ' ' ' ' ' ' ' '",
" ' ' ' ' ' ' ' ' ' ' ' ' ' ' +XZXS Q ' ' ' ' ' ' ' ' ' ' ' ' ' '",
" ' ' ' ' ' ' ' ' ' ' ' ' ' ' +XZ.w Q ' ' ' ' ' ' ' ' ' ' ' ' ' '",
" ' ' ' ' ' ' ' ' ' ' ' ' ' ' +XZXS Q ' ' ' ' ' ' ' ' ' ' ' ' ' '",
" ' ' ' ' ' ' ' ' ' ' ' ' ' ' +XZXS Q ' ' ' ' ' ' ' ' ' ' ' ' ' '",
" ' ' ' ' ' ' ' ' ' ' ' ' ' ' +XZXS Q ' ' ' ' ' ' ' ' ' ' ' ' ' '",
" ' ' ' ' ' ' ' ' ' ' ' ' ' ' +XZXS Q ' ' ' ' ' ' ' ' ' ' ' ' ' '",
" ' ' ' ' ' ' ' ' ' ' ' ' ' ' ' ' ' ' ' ' ' ' ' ' ' ' ' ' ' ' ' '",
" ' ' ' ' ' ' ' ' ' ' ' ' ' ' ' ' ' ' ' ' ' ' ' ' ' ' ' ' ' ' ' '"
};
