/* XPM */
static const char * IconViewLeft[] = {
/* width height ncolors chars_per_pixel */
"32 32 135 2",
/* colors */
"   c #000000",
" . c #BEBECB",
" X c #A9A9A9",
" o c #171752",
" O c #653C21",
" + c #3F3F6C",
" @ c #382923",
" # c #AEAEBB",
" $ c #4C4C72",
" % c #192F43",
" & c #17172A",
" * c #191957",
" = c #194C28",
" - c #BEBEBD",
" ; c #6D1122",
" : c #16164D",
" > c #D8D8DD",
" , c #4E4E7A",
" < c #842B2B",
" 1 c #6D2B3C",
" 2 c #6C2B3B",
" 3 c #D4AEAE",
" 4 c #3E3E6A",
" 5 c #662121",
" 6 c #D0B7B7",
" 7 c #181855",
" 8 c #161614",
" 9 c #AFAFBE",
" 0 c #5D5D88",
" q c #197009",
" w c #236709",
" e c #860F1C",
" r c #1A1A5A",
" t c #304916",
" y c #182E44",
" u c #181858",
" i c #68688C",
" p c #15154B",
" a c #894350",
" s c #9696AF",
" d c #3E421D",
" f c #702C3E",
" g c #1A1A5D",
" h c #676798",
" j c #272763",
" k c #24163F",
" l c #AEAEB9",
" z c #17173C",
" x c None",
" c c #3F113F",
" v c #171753",
" b c #141446",
" n c #B79A9A",
" m c #261751",
" M c #191958",
" N c #E0D9D9",
" B c #B0B0C1",
" V c #4E4E78",
" C c #19195B",
" Z c #16164E",
" A c #4E4E7B",
" S c #BFBFCC",
" D c #212E48",
" F c #AEAEAE",
" G c #9191AC",
" H c #A4A4B8",
" J c #1A2937",
" K c #131344",
" L c #CEC0C0",
" P c #16163D",
" I c #900E1A",
" U c #AEAEB1",
" Y c #193243",
" T c #930713",
" R c #CFB7B7",
" E c #181856",
" W c #713747",
" Q c #151549",
" ! c #AFAFBF",
" ~ c #8F7182",
" ^ c #6F2424",
" / c #860F1D",
" ( c #BFA7A7",
" ) c #1A1A5B",
" _ c #404073",
" ` c #792727",
" ' c #272761",
" ] c #15154C",
" [ c #843535",
" { c #7C7C7C",
" } c #BEBECA",
" | c #171751",
".  c #884A49",
".. c #AEAEBA",
".X c #1A2157",
".o c #182F41",
".O c #222241",
".+ c #171754",
".@ c #141447",
".# c #151513",
".$ c #4C4C74",
".% c #A30611",
".& c #191959",
".* c #15152A",
".= c #B2B2C4",
".- c #D8D8DC",
".; c #574E6E",
".: c #291437",
".> c #271435",
"., c #161638",
".< c #1B1B5E",
".1 c #16164F",
".2 c #767696",
".3 c #6B6B95",
".4 c #364C0E",
".5 c #181854",
".6 c #40406E",
".7 c #161613",
".8 c #131345",
".9 c #5B5B85",
".0 c #181857",
".q c #15154A",
".w c #AFAFC0",
".e c #4D4D77",
".r c #202062",
".t c #2F1D53",
".y c #222250",
".u c #184D28",
".i c #1A1A5C",
".p c #BDBDBD",
".a c #641E1A",
".s c #272762",
".d c #15154D",
".f c #D4C3C3",
".g c #86869E",
/* pixels */
" x x x x x x x x x x x x x x x x x x x x x x x x x x x x x x x x",
" x x x x x x x x x x x x     X x x x x x x x x x x x x x x x x x",
" x x x x x x x x x x x x     X x x x x x x x x x x x x x x x x x",
" x x x x x x x x x x x x     X x x x x x x x x x x x x x x x x x",
" x x x x x x x x x x x x     X x x x x x x x x x x x x x x x x x",
" x x x x x x x x x x x x     X x x x x x x x x x x x x x x x x x",
" x x x x x x x x x x x x     X x x x x x x x x x x x x x x x x x",
" x x x x x x x x x x x x     X x x x x x x x x x x x x x x x x x",
" x x x x x x x x x x x x     X x x x x x x x x x x x x x x x x x",
" x x x x x x x x x x x x     X x x x x x x x x x x x x x x x x x",
" x x x x x x x x x x x x     X x x x x x x x x x x x x x x x x x",
" x x x x x x x x x x x x     X x x x x x x x x x x x x x x x x x",
" x x x x x x x x x x x x     X x x x x x x x x x x x x x x x x x",
" x x x x x x x x x x x x     X x x x x x x x x x x x x x x x x x",
" x x x x x x x x x x x x     X x x x x x x x x x x x x x x x x x",
" x x x x x x x x x x x x     X x x x x x x x x x x x x x x x x x",
".2 , A S x x x x x x x x     X x x x x x x x x x x x x x x x x x",
" i o.5 _ x x x x x x x x     X x x x x x x x x x x x x x x x x x",
" ! o v 7 s x x x x x x x     { X X X X X X X X X x x x x x x x x",
" x | o.5 E.- x x x x x x                         x x x x x x x x",
" x.6 | v 7.9 x x x x x x x                       x x x x x x x x",
" x V | o 7 E . x x x x x x x x x x x x x x x x x x x x x x x x x",
" x 9 | o.+ E.s x x x x x x x x x x x x x x x x x x x x x x x x x",
" x.- | | o v 7 0.- x x x x x x x x x x x x.f R 6 N x x x x x x x",
" x x | o o v.+ 7 ' H x x x x x x } B B ~ W 2 1 f a 3 x x x x x x",
" ( [ <.t g g g g g g g g.i.i.i.i g g.i u.0.0 u.& C.i.<.3 > x x x",
" ^ ` O.0.0 *.0 c m y % = d.u.o Y D.X.i.i C ) C.&.& M M r.r h.= x",
".4 q w t @.1.d.% I e / e T ; J.>.:.@ z & P.,.O.y.8 K b.q +.$.e.w",
". .a 5 k K K K b.@ Q.q p ] : Z Z Z ].*.#.7 8 - x x x x x x x x x",
" x L n.; $ 4 o o o.g l l.... l l.. # U F F.p x x x x x x x x x x",
" x x x x x.-.&.& j.- x x x x x x x x x x x x x x x x x x x x x x",
" x x x x x x x B G x x x x x x x x x x x x x x x x x x x x x x x"
};
