/* XPM */
static const char * IconHelpBinding[] = {
/* width height ncolors chars_per_pixel */
"32 32 246 2",
/* colors */
"   c #FFBFF4",
" . c #1B1C21",
" X c #DD98C2",
" o c #DB96C0",
" O c #3B313D",
" + c #45494A",
" @ c #FEAFDF",
" # c #D492B9",
" $ c #503C4B",
" % c #1D2226",
" & c #FCADDD",
" * c #1C2225",
" = c #ADAFB0",
" - c #F8ABD9",
" ; c #7E6882",
" : c #F6A9D7",
" > c #C8FFFF",
" , c #8CB1B7",
" < c #F3A7D4",
" 1 c #80617A",
" 2 c #474D4F",
" 3 c #11181A",
" 4 c #AE799A",
" 5 c #42303D",
" 6 c #0E1417",
" 7 c #3F2E3A",
" 8 c #262128",
" 9 c #0D1416",
" 0 c #0C1215",
" q c #3D2C38",
" w c #483846",
" e c #FFBCF0",
" r c #C688AE",
" t c #C588AD",
" y c #FFB5E6",
" u c #4E464F",
" i c #C386AB",
" p c #26232B",
" a c #C286AA",
" s c #C084A8",
" d c #E8A1CC",
" f c #E79FCB",
" g c #201F25",
" h c #E29BC6",
" j c #1B1B20",
" k c #DF99C3",
" l c #19191E",
" z c #695566",
" x c #594353",
" c c #FFB7E9",
" v c #996B88",
" b c #CF96BD",
" n c #E7FFFF",
" m c #C9F1F2",
" M c #ADAEAF",
" N c #FFB9EC",
" B c #2E262F",
" V c #15191D",
" C c #564553",
" Z c #422F3C",
" A c #FFB2E2",
" S c #CC9ABD",
" D c #0D1315",
" F c #3E2D38",
" G c #0C1114",
" H c #0B1113",
" J c #0A0F12",
" K c #4A3947",
" L c #85858E",
" P c #2D2A31",
" I c #CA8BB1",
" U c #7B6C77",
" Y c #C889AF",
" T c #C789AE",
" R c #B6E6EC",
" E c #C587AC",
" W c #FFB4E5",
" Q c #C487AB",
" ! c #ECA2CF",
" ~ c #C285A9",
" ^ c #E9A0CC",
" / c #4C3D4C",
" ( c #E69EC9",
" ) c #201E24",
" _ c #BF95BD",
" ` c #BCBDBD",
" ' c #A0708E",
" ] c None",
" [ c #1B1C22",
" { c #332933",
" } c #302730",
" | c #2C232C",
".  c #4D4353",
".. c #474B4D",
".X c #EFFFFF",
".o c #D1F1F2",
".O c #44494A",
".+ c #9BB8BD",
".@ c #B4D9E6",
".# c #755B6D",
".$ c #0B1012",
".% c #F2A7D4",
".& c #443440",
".* c #F1A5D3",
".= c #807E88",
".- c #F0A5D2",
".; c #363B3C",
".: c #EEA3D0",
".> c #0F1619",
"., c #35393B",
".< c #0E1618",
".1 c #0D1417",
".2 c #1E1B21",
".3 c #616466",
".4 c #5D4555",
".5 c #29272F",
".6 c #DFF1F2",
".7 c #FFB5E7",
".8 c #8FA3AA",
".9 c #3A2E39",
".0 c #FFC0F4",
".q c #78566C",
".w c #584553",
".e c #D995BE",
".r c #D895BD",
".t c #966986",
".y c #D793BC",
".u c #FFB0E0",
".i c #936783",
".p c #444849",
".a c #FFC2F7",
".s c #D18FB6",
".d c #FAACDB",
".f c #ACAEAF",
".g c #D3AAC5",
".h c #CFA5CB",
".j c #F8AAD9",
".k c #F4A8D5",
".l c #BEFFFF",
".z c #464C4E",
".x c #FFB2E3",
".c c #646E72",
".v c #AAFFFF",
".b c #0E1517",
".n c #0D1316",
".m c #0C1315",
".M c #0B1114",
".N c #CFFFFF",
".B c #1D1A1F",
".V c #C789AF",
".C c #C487AC",
".Z c #909293",
".A c #C285AA",
".S c #C185A9",
".D c #BE83A6",
".F c #E39CC7",
".G c #4D3644",
".H c #1B1A20",
".J c #D4A5C2",
".K c #E09AC4",
".L c #4B3442",
".P c #DD98C1",
".I c #17181C",
".U c #B8FFFF",
".Y c #15161A",
".T c #FCADDC",
".R c #FFC1F6",
".E c #ADAFAF",
".W c #ACADAE",
".Q c #B77FA2",
".! c #181E20",
".~ c #C9FFFF",
".^ c #B37D9E",
"./ c #BCCACE",
".( c #474B4E",
".) c #464B4D",
"._ c #6B4D61",
".` c #D7D8D8",
".' c #CED7D9",
".] c #0C1214",
".[ c #0B1013",
".{ c #0A1012",
".} c #DAFFFF",
".| c #4B3A48",
"X  c #CE8EB5",
"X. c #CC8CB3",
"XX c #FFBCEF",
"Xo c #C6FFFF",
"XO c #8AB1B7",
"X+ c #C98AB0",
"X@ c #C88AAF",
"X# c #C688AD",
"X$ c #C486AB",
"X% c #EDA3D0",
"X& c #C386AA",
"X* c #0E1619",
"X= c #A1D1D4",
"X- c #C184A8",
"X; c #AFB1B7",
"X: c #EAA1CD",
"X> c #503746",
"X, c #FFBEF2",
"X< c #BBBCBC",
"X1 c #C3FFFF",
"X2 c #CACACE",
"X3 c #9D6D8B",
"X4 c #FFB7E8",
"X5 c #9BD8DB",
"X6 c #3D323D",
"X7 c #BD84A7",
"X8 c #BC82A6",
"X9 c #FFC0F5",
"X0 c #D4FFFF",
"Xq c #89858E",
"Xw c #ACD8DB",
"Xe c #FFB9EB",
"Xr c #C0FFFF",
"Xt c #574553",
"Xy c #BF88AC",
"Xu c #D7D7D7",
"Xi c #FEB0E0",
"Xp c #44484A",
"Xa c #D391B9",
"Xs c #0C1113",
"Xd c #8F6580",
"Xf c #0A0F11",
"Xg c #CCADC9",
"Xh c #CD8DB3",
"Xj c #FFBBEE",
"Xk c #EEEFF4",
"Xl c #CB8BB1",
"Xz c #CA8BB0",
"Xx c #4A4E53",
"Xc c #BDFFFF",
"Xv c #0E1518",
"Xb c #ECA2CE",
"Xn c #E2FFFF",
"Xm c #A67493",
"XM c #BF95BC",
"XN c #A37290",
"XB c #3B4244",
"XV c #675B6C",
"XC c #92B1B7",
"XZ c #1D1A20",
"XA c #929496",
"XS c #3C2F3B",
/* pixels */
" ] ] ] ] ] ] ] ] ] ] ] ] ` M MXA.(.(.. *.1 9.n.n D V.c ] ] ] ] ]",
" ].` M.f.f.3.).).;.m 0 0.] G H H.2XZXZ F F q.LX>X>XZ.b.` ] ] ] ]",
" ] M.] 0.m.[.IXZ.B | q q ZX>X>X>X>X>X>X>X>X>X>X>X> F.1XA ] ] ] ]",
" ].pXf.] .X>X>X>X>X>X>X>X>X>X>X>X>X>X>X>X>X>X>X>X>.L DXB ] ] ] ]",
" ].,Xf.[.>X>X>X>X>X>X>X>X>Xq././.'./X; U.4X>X>X>X>X> l.!.` ] ] ]",
" ]XfXf.{ 9 5X>X>X>X>.wXq.oX0.~ >X1.~X0.} n.XX2X2X>X> F.1.8 ] ] ]",
".WXfXfXf.m PX>X>XVX;.}.N RXO.c CX> C.c ,X=XwXo.X.4X>X> D.z ] ] ]",
".ZXf )Xf.$ %X>X> L >X5.=X>X>X>X>X>X>X>X>X>X>XC n UX>X>.2 V ] ] ]",
"XpXf 1XfXf 3 wX>X>XVX>X>X>X>X>X>X>X>X>X>X>Xt mX0./X>X> 8.> = ] ]",
".{Xf.S }Xf.n BX>X>X>X>X>X>X>X>X>X>X>X>X> L m.N.l.=X>X>X>.n 2 ] ]",
".$.I.A $Xf G VX>X>X>X>X>X>X>X>X>.w LX= >Xr RXC.wX>X>X>X> 8.> ] ]",
"Xf.9 iXNXf.{X* 5X>X>X>X>X>X>.8Xw.lXc.U.+.wX>X>X>X>X>X>X>.&.>.E ]",
"XfXd EX+.IXf 6 {X>X>X>X>X>X> ,X5.c.'.6X2.#X>X>.G 7 7 7 g pXv 2 ]",
"XfX3X#X+ xXf.m [X>X>X>X>X>X> 5 7 u.cXxXB .XvXv.b.1.n 0.] H HXv ]",
"Xf.S TXz.QXfXsXv g g g.<XvXv 6 9.m.].M.Y.$.{XfXfXfXfXfXfXf.$.b ]",
" z QX@Xh ! j H.m D H.$.{XfXfXfXfXfXfXf }XSXS.q.i.i ' ~ sXf J.1.E",
" B.CX@X  !.|Xf H.] [ / /.|.Q.^ 4.e b.g.g.g.J TX# E i ~ sXfXf.nXA",
"Xf 'X+X .:.|Xf G. X9Xj.7Xi.jX%.F.e.g.}XnXn ] TX# E i.A s.9.4.] 2",
"Xf xX+.s.*.H.5.]XV.0Xj y @ :Xb h.h.@ >.XXnXk TX# EX$.AX-.9Xf H.;",
".! }X+.r -Xf.5.]XM   N W &.kX:.K.@.vXcXoXcXg TX# E Q a.S.q v.{Xv",
".pXfX8 o dXfXf 0 _   N W & < ^ k b.v.v.v.@X@ T r t Q a.SXd._.I.1",
".WXf 1 kX8XfXf D.hX,Xe W & < ^ k # SXzX+X+X@.V r t.CX&.S.^ $.9 6",
" ]Xf {.FX7Xf.{.n.a e c.x.d.* f.PXa I IX+X+X@ Y TX#.C i.A s.q._.n",
" ].p l ^ KXf H.n.a e c A.d.- f.P #X. IXzX+X+ Y TX# E i.A s 1 $.m",
" ].WXf.^.|Xf G %.R e c A.j.- ( X #X. IXzX+X+ Y TX# EX$ a.SXm v H",
" ]XuXf z.HXf.]. .RXXX4.u.j.- f k.yXh IXzX+X+ Y TX# E Q a.S sXd.$",
" ] ].,XfXfXf 0. .0Xj.7.u -.* ^.K.rX  IXzX+X+X@ T r t.CX&.S s.D.9",
" ] ].Z [XfXf.nXV.0XjX4 A.d.%X: h.e.s IXzX+X+X@.V r t.CX&.S s.DX6",
" ] ]X<XfXf ;.n _  XjX4 A.T.kXb.F oXaXl IXm.t.t.tX6 OXSXS.$.$.{ J",
" ] ] ].!Xf ; 9 _.0XX bXyX7.| w w.&.].] GXs H H.[.$.$.$.$.; +.O.O",
" ] ] ].3Xf.5 H OXfXfXfXfXfXfXfXf.,.p.p.p.Z.W.W.WXu ] ] ] ] ] ] ]",
" ] ] ]X<.,.p.p.p.Z.W.W.WXu ] ] ] ] ] ] ] ] ] ] ] ] ] ] ] ] ] ] ]"
};
