/* XPM */
static const char * IconHelpModelerFuncs[] = {
/* width height ncolors chars_per_pixel */
"32 32 156 2",
/* colors */
"   c #B8AEAE",
" . c #183514",
" X c #3C4848",
" o c #173113",
" O c #132323",
" + c #BCBFBF",
" @ c #152D11",
" # c #634A4A",
" $ c #142B10",
" % c #341212",
" & c #687373",
" * c #182B2B",
" = c #AEB1B1",
" - c #DEE0E0",
" ; c #4B5C49",
" : c #311212",
" > c #2D3C3C",
" , c #6A4D4D",
" < c #4A5555",
" 1 c #233232",
" 2 c #213030",
" 3 c #2C1010",
" 4 c #3D5252",
" 5 c #747E7E",
" 6 c #897575",
" 7 c #727C7C",
" 8 c #132222",
" 9 c #361313",
" 0 c #112020",
" q c #4B3838",
" w c #412121",
" e c #270E0E",
" r c #D9D7D7",
" t c #162828",
" y c #B5ADAD",
" u c #142626",
" i c #938585",
" p c #604949",
" a c #DADBDB",
" s c #192E2E",
" d c #D8D9D9",
" f c #AFB4B4",
" g c #766565",
" h c #523B3B",
" j c #674C4C",
" k c #381414",
" l c #111F1F",
" z c #687171",
" x c #3D4A4A",
" c c None",
" v c #3B4848",
" b c #142525",
" n c #233737",
" m c #152D12",
" M c #624A4A",
" N c #132B10",
" B c #331212",
" V c #132910",
" C c #1B2F2F",
" Z c #11250E",
" A c #192D2D",
" S c #AFB3B3",
" D c #ADB1B1",
" F c #868E8E",
" G c #2E1010",
" H c #A1A5A5",
" J c #778775",
" K c #5E3F3F",
" L c #716262",
" P c #422A2A",
" I c #2B1010",
" U c #290E0E",
" Y c #B9AFAF",
" T c #3B4747",
" R c #142424",
" E c #BDC0C0",
" W c #C4BDBD",
" Q c #122222",
" ! c #152E11",
" ~ c #351313",
" ^ c #142A10",
" / c #A09393",
" ( c #13280F",
" ) c #402121",
" _ c #677272",
" ` c #260E0E",
" ' c #A99F9F",
" ] c #172A2A",
" [ c #B4ADAD",
" { c #455757",
" } c #6A7878",
" | c #5F4949",
".  c #301111",
".. c #D9DBDB",
".X c #B0B6B6",
".o c #3C1616",
".O c #BDC1BC",
".+ c #513B3B",
".@ c #495454",
".# c #223131",
".$ c #2B0F0F",
".% c #381F1F",
".& c #B0B7AF",
".* c #AEB3AD",
".= c #4C5A5A",
".- c #3B4646",
".; c #122121",
".: c #949A9A",
".> c #DAD8D8",
"., c #172929",
".< c #B6AEAE",
".1 c #152727",
".2 c #BEC3C3",
".3 c #4F644C",
".4 c #C1BCBC",
".5 c #203535",
".6 c #928484",
".7 c #321212",
".8 c #1A2F2F",
".9 c #D7D8D8",
".0 c #B0B5B5",
".q c #AEB3B3",
".w c #3F543C",
".e c #756464",
".r c #5E6B6B",
".t c #495353",
".y c #543333",
".u c #A2A7A7",
".i c #2D1010",
".p c #798282",
".a c #4C5959",
".s c #391515",
".d c #A49595",
".f c #101E1E",
".g c #2A1010",
".h c #DAD7D7",
".j c #3E4B4B",
".k c #172828",
".l c #3C4949",
".z c #152626",
".x c #C3BDBD",
".c c #BABEBE",
".v c #152E12",
".b c #142C11",
".n c #341313",
".m c #12260F",
".M c #687474",
".N c #AEB2B2",
".B c #B3ADAD",
".V c #2F1111",
".C c #9A9191",
".Z c #889393",
".A c #2A0F0F",
".S c #1B2B2B",
".D c #192929",
".F c #4D2E2E",
/* pixels */
" c W y r c c c c c c c.h.< r c c c c c c c c c c c c c c c c c c",
" c j G [ c c c c c c c /.V.B c c c c c c c c c c c c c c c c c c",
" c j. .e c c c c c c c w e [ c c c c c c c c c c c c c c c c c c",
" c j :.% c c c c c c.x.7 `.B c c c c c c c H.t.@ <.9 c c c c c c",
" c j.V.A.< c c c c c # I.V [ c c c c c +.-.z n 4 C.D z.. c c c c",
" c j.7.V h c c c c.h.n e % [ c c c +.-.z *.M f.0.X { s.k.p - c c",
" c j.  k.$ r c c c /.  P 9 [ c c T u ] & d c c c c c.2 } s.S 5 a",
" c j. .F.V g c c c ).A.6 9 [ c c _ _ d c c c c c c c c c d.Z t.c",
" c j B '.s.% c c.x B q   B [ c c c c c c c c c c c c c c c.X b.N",
" c j G [ K.A.< c #.V.C  .n [ c c c c c c c c c c c c c c c.0.;.N",
" c j.  [.d %.+.h.n U r   ~ [ c c c c c c c c c c c c c c c f 0 D",
" c j.  [.>.o.g i B q c   : [ c c c c c c c c c c c c c c c S Q D",
" c j G [ c ,.  :.i.B c   B [ c c c c c c c c c c c c c c.q.j b D",
" c j.  [ c Y k 3 e c c   % [ c c c c c c c c c c c.q.a.1 b 8 X.9",
" c 6 |.4 c c.y p L c c W M.4 c c c c c c c c.q.a.1.z O O x E c c",
" c c c c c c c c c c c c c c c c c c c c c.z b.# R R.l E c c c c",
" c c c c c c c c c c c c c c c c c c c c c R < c A < c c c c c c",
" c c c.*.*.*.*.*.*.*.*.O c c c c c c c c c 2 v =.5 7 c c c c c c",
" c c J ( V ^ ^ ^ ^ ^ ^ ; c c c c c c c c c d 1 A.r c c c c c c c",
" c c.3.b.w.3.3.3.3.3.3 J c c c c c c c c c c c c c c c c c c c c",
" c c.3 !.* c c c c c c c c c c c c c c c c c c c c c c c c c c c",
" c c.3 N.* c c c c c c c c c c c c c c c c c c c c c c c c c c c",
" c c.3 @.* c c c c c c c c c c c c c c c c c c c c c c c c c c c",
" c c.3.v.* c c c c c c c c c c c c c c c c c c c c c c c c c c c",
" c c.3.b.m Z Z Z.* c c c c c c c c c c c c c c c c c c c c c c c",
" c c.3.v o . . ..& c c c c c c c c c c c c.9 c c c c c c c c c c",
" c c.3.b.* c c c c c c c c c c c c c c c c F l l.: c c c c c c c",
" c c.3.b.* c c c c c c c c c c c c c c c c., l.= * E c c c c c c",
" c c.3 m.* c c c c c c c c c c c c c c c c O.f c.8 S c c c c c c",
" c c.3 $.* c c c c c c c c c c c c c c c c.u 8.1 > - c c c c c c",
" c c.3.b.* c c c c c c c c c c c c c c c c c E.0 d c c c c c c c",
" c c.3.b.* c c c c c c c c c c c c c c c c c c c c c c c c c c c"
};
