/* XPM */
static const char * IconANFileName[] = {
/* width height ncolors chars_per_pixel */
"64 64 237 2",
/* colors */
"`` c #CF8E86",
"`a c #DECEC6",
"`b c #E6E3DB",
"`c c #DCCAC4",
"`d c #A7A7A7",
"`e c #B81306",
"`f c #C03E32",
"`g c #A2A3A2",
"`h c #B9A9BC",
"`i c #A0A1A0",
"`j c #E1D4CC",
"`k c #9E9F9E",
"`l c #9D9D9D",
"`m c #D28D82",
"`n c #959595",
"`o c #CC857C",
"`p c #CA6D63",
"`q c #DDC5BE",
"`r c #E3D8D1",
"`s c #C6C8C5",
"`t c #919191",
"`u c #E2D8D0",
"`v c #8F8F8F",
"`w c #C86257",
"`x c #BE3529",
"`y c #C2483A",
"`z c #8C3F9D",
"a` c #E6E0D7",
"aa c #858585",
"ab c #E5DED6",
"ac c #E4DCD5",
"ad c #D29A92",
"ae c #E3DCD4",
"af c #AF91B5",
"ag c #CA837D",
"ah c #818181",
"ai c #BF392D",
"aj c #D3A7A0",
"ak c #D2A59F",
"al c #DECDC5",
"am c #E6E2DA",
"an c #C1483C",
"ao c #737373",
"ap c #9756A4",
"aq c #C56B64",
"ar c #D6ADA6",
"as c #B81205",
"at c #9450A1",
"au c #6D6D6D",
"av c #6B6B6B",
"aw c #DABEB7",
"ax c #E1D3CB",
"ay c #DCCED0",
"az c #BA1F14",
"b` c #656765",
"ba c #A67DAF",
"bb c #C7ADC2",
"bc c #D9B5AC",
"bd c #D19E97",
"be c #C55B50",
"bf c #BC2E23",
"bg c #D6B1A9",
"bh c #C04134",
"bi c #DAC2BA",
"bj c #E2D7CF",
"bk c #575757",
"bl c #C9776E",
"bm c #D7B5AD",
"bn c #CD887F",
"bo c #DDC8C0",
"bp c #E5DDD5",
"bq c #D3C2CA",
"br c #E3DBD3",
"bs c #BB271B",
"bt c #D4A8A0",
"bu c #D19086",
"bv c #DABBB3",
"bw c #9A61A6",
"bx c #DECCC4",
"by c #E6E1D9",
"bz c #E5DFD8",
"c` c #393939",
"ca c #CB7F76",
"cb c #DECEC7",
"cc c #A87CB0",
"cd c #D2968D",
"ce c #E3D8CF",
"cf c #D3ACA5",
"cg c #E2D6CE",
"ch c #252525",
"ci c #A268AA",
"cj c #90459F",
"ck c #B49DB8",
"cl c #C65E53",
"cm c #D6B2AB",
"cn c #DDC7BF",
"co c #E5DCD4",
"cp c #E3DAD2",
"cq c #E1D8D0",
"cr c #B185B5",
"cs c #E0D6CF",
"ct c #C4C4C4",
"cu c #C3C4C3",
"cv c #CC7C73",
"cw c #C2C2C2",
"cx c #BDBCBD",
"cy c #DFCBC4",
"cz c #DECBC3",
"d` c #E6E0D8",
"da c #D49E95",
"db c #DDC9C2",
"dc c #E5DED7",
"dd c #E4DED6",
"de c #E3DCD5",
"df c #B7B8B7",
"dg c #D09891",
"dh c #873399",
"di c #C56962",
"dj c #D5ABA3",
"dk c #B0B0B0",
"dl c #DABCB5",
"dm c #E1D1C9",
"dn c #D8BAB3",
"do c #BA1F12",
"dp c #E0CFC8",
"dq c #DFCFC7",
"dr c #CD8B84",
"ds c #E6E2DB",
"dt c #ABACAB",
"du c #A9AAA9",
"dv c #C3574C",
"dw c #A4A4A4",
"dx c #B71005",
"dy c #DBC0B9",
"dz c #DAC0B8",
"e` c #C45043",
"ea c #DFD1CA",
"eb c #BD3225",
"ec c #D2A099",
"ed c #989898",
"ee c #D7B3AB",
"ef c #A275AC",
"eg c #DCC4BD",
"eh c #E3D9D1",
"ei c #DAC2BB",
"ej c #E1D7CF",
"ek c #BA2518",
"el c #E0D5CE",
"em c #8B8C8B",
"en c #D8B7AF",
"eo c #E6DFD7",
"ep c #C1B1C0",
"eq c #E5DFD6",
"er c #E4DDD5",
"es c #B092B6",
"et c #AF92B5",
"eu c #8A389B",
"ev c #CA847D",
"ew c #E3DBD4",
"ex c #BB291C",
"ey c #D1BAC9",
"ez c #7B7C7B",
"f` c #C34B3E",
"fa c #DFCEC6",
"fb c #C1493C",
"fc c #D39F96",
"fd c #985BA5",
"fe c #CC8178",
"ff c #B81105",
"fg c #B80F05",
"fh c #DCC1B9",
"fi c #BF3C30",
"fj c #D3AAA3",
"fk c #DABFB7",
"fl c #E0D0CA",
"fm c #C77269",
"fn c #606060",
"fo c #DCC3BC",
"fp c #E3D8D0",
"fq c #C7695F",
"fr c #C24F43",
"fs c #8D419D",
"ft c #B9190C",
"fu c #D6B4AC",
"fv c #E5DED5",
"fw c #D39C92",
"fx c #DDC7C0",
"fy c #4E4E4E",
"fz c #E4DCD4",
"g` c #C4675F",
"ga c #D5A9A1",
"gb c #CA7A72",
"gc c #424242",
"gd c #BFB8C0",
"ge c #E6E2D9",
"gf c #E5E0D8",
"gg c #B9BABA",
"gh c #BF4439",
"gi c #E3DED6",
"gj c #AA89B2",
"gk c #E6E4DC",
"gl c #D4A299",
"gm c #E5E2DB",
"gn c #D6AFA8",
"go c #B688B7",
"gp c #B81207",
"gq c #E3D7CF",
"gr c #E2D7CE",
"gs c #C6685D",
"gt c #D6A69E",
"gu c #C14C41",
"gv c #D4A49C",
"gw c #B49EB8",
"gx c #CD887E",
"gy c #B8160A",
"gz c #E4DBD3",
"h` c #E3D9D2",
"ha c #E2D9D1",
"hb c #C55448",
"hc c #C5C5C5",
"hd c #C4C5C4",
"he c #C2C5C2",
"hf c #C1C1C1",
"hg c #BFBFBF",
"hh c #D9B9B1",
"hi c #DFCCC4",
"hj c #E6E1D8",
"hk c #DECAC3",
"hl c #DDCAC2",
"hm c #E5DFD7",
"hn c #E4DDD6",
"ho c #E3DDD5",
"hp c #E3DBD5",
"hq c #C76E64",
"hr c #BC2B1E",
"hs c #AD8EB4",
"ht c #B5B5B5",
/* pixels */
"abababababababababababababababababababababababababababababababababababababababababababababababababababababababababababababababab",
"abababababababababababababababababababababababababababababababababababababababababababababababababababababababababababababababab",
"abababababababababababababababababababababababababababababababababababababababababababababababababababababababababababababababab",
"abababababababababababababababababababababababababababababababababababababababababababababababababababababababababababababababab",
"abababababababababababababababababababababababababababababababababababababababababababababababababababababababababababababababab",
"abababababababababababababababababababababababababababababababababababababababababababababababababababababababababababababababab",
"ababababababababababhmhmabababababhmhmababababababababababababababababababababababababababababababababababababababababababababab",
"ababehhaewercp`u`uehcg`jfpababeogzaxbjhmabfzfphofzcpfvababababababababababababababababababababababababababababababababababababab",
"ababdpdngtfcbgeidzawfccaard`hmfzen`ofcbrhmbrfhfcgldnfzhmabababababababababababababababababababababababababababababababababababab",
"abhmhmecfifthqawbvcmblhrcv`bbydqblgyf`dmeq`bbvbfexev`rhmabababababababababababababababababababababababababababababababababababab",
"ababd`fubhdxfqbogqax`qdradbyd``u`ofthberabbycndvekag`rhmababababhmhmhmababababababababababababababababababababababababababababab",
"ababhmdnfbashqczam`j`ufacnhmababfogvfhhmabd`hiaqexag`rhmabababababbpabababababababababababababababababababababababababababababab",
"ababhmdnanashqhkbydqdmbpgzhmbjdzcmfufoababd`cydiexag`rhmababab`afucdcfbjgfababababababababababababababababababababababababababab",
"ababhmdnanasfq`qcydgaramababgfdl`wbsclbyabd`cydiexag`rhmabfpechbbvdz`ygxaxd`abababababababababababababababababababababababababab",
"ababhmdnan`edv``clhbaramababbyczhqdxe`byabd`cydiexag`rd`fzgabhca`jgzfibsee`babababababababababababababababababababababababababab",
"ababhmdnan`egsawgagbdjamababgfcbfm`ehbbyabd`cydiexag`rd`gzbdhrfmdzcn`fdofwerhmababababababababababababababababababababababababab",
"ababhmdnanashq`aehajbmbyababgfalfm`ee`cgabd`cydiexag`rbyehdrbs`fbdbg`ocvbvddhmababababababababababababababababababababababababab",
"ababhmdnanashqhkamdmflhmababgfalfm`ef`alabd`cydiexag`rbyfpgbekgubg`q`jhaabhmabababababababababababababababababababababababababab",
"ababhmdnanashq`cgfhmhmabababgfelca`ef`alabd`cydiexag`rbygqgbekgufogkbyd`axehabababababababababababababababababababababababababab",
"ababd`dnan`ebefkamabababababgfaxcv`ef``ahmhjhidiexevh`d`fzakbsfte`dj`afaeagzabababababababababababababababababababababababababab",
"ababaxbdaidxekfecncghmabababamdybefgbheneaabgn`xftanbmergfdmbldoff`fevcnabhmabababababababababababababababababababababababababab",
"ababbjawfw`m`mdjfaehhmabababgfdpgt`mdahkcgbp`q`m`mcdfobpeoabhkcdcacvgagqgfababababababababababababababababababababababababababab",
"abababd``bgkgkamhmababababababhm`bgk`bgfababd`gkgkgkhmabababd``bhobrgfhmabababababababababababababababababababababababababababab",
"abababababababababababababbpbpabdchmabababfzgzgzcperabababababababababababababababababababababababababababababababababababababab",
"abababababababababababababdpdldnbvdmababfzcncfecfudqeqababababababababababababababababababababababababababababababababababababab",
"ababababababababababababgfcnfm`ygu`odmgfabelgvclhifpabababababababababababababababababababababababababababababababababababababab",
"ababababababababababababab`rec`x`ehrdgbrhmgffhgbabababababababababababababababababababababababababababababababababababababababab",
"abababababababababababababbydzgbbfgyebecbrd`axcfabababababababababababababababababababababababababababababababababababababababab",
"abababababababababababababd`dnbmdj`yftexglabcgcmabababhmdmfhajbn``awerababcpgncdadbmbdevfwdldycdbldgdmbzababfpdj``cfbtbohmababab",
"abababababababababababababd`dnencgadaiftebfhcgbgabababgffedvfofkfrhbfhgfabddbchrebdrakg`dogufjakghdogt`babdchhbhgvcyaqhbeqababab",
"abababababababababababababd`dlhhfpbpcdekdofmfxbmababd`dq`wbhbvaxhbgyfwerhmddbcaz`xeebr``dxdvdbbohb`edadshmbpdr`xbm`jfefieghmabab",
"abababababababababababababhmczdzgrbydzfift`xdgbtababhm`ublclegdzgu`efwerhmddbcazaifoddbuff`welelcl`ecdhna`cebhhrecbibnfiakhmabab",
"abababababababababababababhmfaeicghmacbgebftbse`bpabababdmbvadbdfrgyfwerhmddbcazaicnhobuff`wejejclgpbuaehmeghrekagcfdjeefxababab",
"abababababababababababababhmfaeicghmabfzadbf`e`fbpabababeg`wcvdbhb`efwerhmddbcazaicnhobuff`wejejclgpbudegfeghrhrbgehgzddfzababab",
"abababababababababababababd`dbeih`gfabhmerdj`f`fbpabd`cnbeebfcdbe`gpcdelabhmenazaibogibufg`wcqcqclfgbuerd`cpfrdofqdqcpcneghmabab",
"abababababababababababababbrcfgxbc`jfzabhmfzglbecoabd`fodvfgbegngsftcabofzerdjftbfbgbx`obfhqczhkfqbf`oalbpabfufbekhqdrajfohmabab",
"abababababababababababababcgbg`padhlbrhmabhm`jarbpabhmaedabecacnhh`pgleheofzee`wfqajawadbdbtfofobtbdadfkfzhmddbc`we``peghmababab",
"ababababababababababababababd`gkameoababababhmhjababababbygk`bhmd`gkbyabababd`gkgkbyd`amgebyeoeobyamamd`abababbygmae`bhmabababab",
"abababababababababababababababababababababababababababababababababababababababababababababababababababababababababababababababab",
"abababeoeoeoeoeoeoeoeoeqeqeqeqeqeqeqeqeqeqeqeqeqeqeqeqeqeqeqeqeqeqeqeqeqeqeqeqeqeqeqeqeqeqeqeqeqeqeqeqeqeqeqeqeqeqeqabababababab",
"aberbbgogogogogogogogogogogogogogogogogogogogogogogogogogogogogogogogogogogogogogogogogogogogogogogogogogogogogogogobqababababab",
"hnbbcjbagjgjgjgjgjgjgjgjgjgjgjgjgjgjgjgjgjgjgjgjgjgjgjgjgjgjgjgjgjgjgjgjgjgjgjgjgjgjgjgjgjgjgjgjgjgjgjgjgjgjgjgjgjefatbqabababab",
"ay`zfdgwbabababababababababababababababababababababababababababababababababababababababababababababababababababaefep`zatabababab",
"aydhfdhsgd`s`s`s`s`s`s`ib`du`vdf`iez`sezdu`s`s`s`s`s`s`s`sggb`emhe`tgg`s`s`s`s`s`s`s`s`s`s`s`s`s`s`s`s`s`s`s`s`sgw`hfseuckayabab",
"aydhfdhsgdctctctctctct`tchggdfdfdt`vctfyahctgg`dhgctctctcthfb`ch`l`khfcuht`kggcu`g`d`vdf`kcxctdkdwcxctctctctctctck`hfs`zcrcchpab",
"aydhfdhsgdctctctctctct`tchau`gctemgcctbkaoggb`aaaoctctctctcwdtaoc``thfdkaoauezcufyavfyaubkezhgbk`lavctctctctctctck`hfscjhncibqab",
"aydhfdhsgdctctctctctct`tch`kduct`tc`ctbkaodwc``g`tctctctctcwdkdfgcbkhfcxaab`bkctfyezavezfnaudfc``gahctctctctctctck`hfscjaybwbqab",
"aydhfdhsgdctctctctctctedchgghgct`vc`ctbkaodtc``lhtctctctctcwdtct`dfyhgduc`fnfyctfyahavahfnavcxc``nggctctctctctctck`hfseucigoewab",
"aydhfdhsgdhdhdhdhdhdcudwaadkhdcu`iemcx`tedcuedahcxhdhdhdhdcx`dhdhcdkcudfah`n`ncu`n`l`ldu`gdwhd`gahdkhdhdhdhdhdhdgw`hfs`zbqababab",
"csapap`hafetetetetetetesesesetetesesetesesetetesetetetetetetesetetetetetesetesetesesetetetetetetesetetetetetetethsep`zciabababab",
"abbqapapbwbwbwbwbwbwbwbwbwbwbwbwbwbwbwbwbwbwbwbwbwbwbwbwbwbwbwbwbwbwbwbwbwbwbwbwbwbwbwbwbwbwbwbwbwbwbwbwbwbwbwbwbwatcicsabababab",
"ababayeyeyeyeyeyeyeyeyeyeyeyeyeyeyeyeyeyeyeyeyeyeyeyeyeyeyeyeyeyeyeyeyeyeyeyeyeyeyeyeyeyeyeyeyeyeyeyeyeyeyeyeyeyeyeycsababababab",
"abababababababababababababababababababababababababababababababababababababababababababababababababababababababababababababababab",
"abababababababababababababababababababababababababababababababababababababababababababababababababababababababababababababababab",
"abababababababababababababababababababababababababababababababababababababababababababababababababababababababababababababababab",
"abababababababababababababababababababababababababababababababababababababababababababababababababababababababababababababababab",
"abababababababababababababababababababababababababababababababababababababababababababababababababababababababababababababababab",
"abababababababababababababababababababababababababababababababababababababababababababababababababababababababababababababababab",
"abababababababababababababababababababababababababababababababababababababababababababababababababababababababababababababababab",
"abababababababababababababababababababababababababababababababababababababababababababababababababababababababababababababababab",
"abababababababababababababababababababababababababababababababababababababababababababababababababababababababababababababababab",
"abababababababababababababababababababababababababababababababababababababababababababababababababababababababababababababababab",
"abababababababababababababababababababababababababababababababababababababababababababababababababababababababababababababababab",
"abababababababababababababababababababababababababababababababababababababababababababababababababababababababababababababababab"
};
