/* XPM */
static const char * IconViewRight[] = {
/* width height ncolors chars_per_pixel */
"32 32 147 2",
/* colors */
"   c #000000",
" . c #121240",
" X c #4A4A6D",
" o c #68567A",
" O c #7E4747",
" + c #910718",
" @ c #A9A9A9",
" # c #171752",
" $ c #33163C",
" % c #5A5A83",
" & c #2E1C4E",
" * c #191957",
" = c #662839",
" - c #A36161",
" ; c #392152",
" : c #141448",
" > c #9595AC",
" , c #19195A",
" < c #3F103A",
" 1 c #DED9D9",
" 2 c #473C1D",
" 3 c #4B4B6D",
" 4 c #361448",
" 5 c #441338",
" 6 c #281B44",
" 7 c #523A2B",
" 8 c #CFC0C0",
" 9 c #131343",
" 0 c #D0B7B7",
" q c #720A23",
" w c #181855",
" e c #40406F",
" r c #5D5D5D",
" t c #151548",
" y c #AFAFBE",
" u c #382050",
" i c #131346",
" p c #141412",
" a c #193045",
" s c #181858",
" d c #43133D",
" f c #15154B",
" g c #8B6F80",
" h c #BEBEC9",
" j c #5B2F1C",
" k c #601335",
" l c #4A4A6B",
" z c #1A1A5D",
" x c #2E4221",
" c c #693E23",
" v c #3D3D3D",
" b c None",
" n c #682222",
" m c #121241",
" M c #1D6509",
" N c #52264B",
" B c #2D2D2D",
" V c #171753",
" C c #5A263F",
" Z c #DCDCDC",
" A c #272727",
" S c #141446",
" D c #AEAEBC",
" F c #D6D6D6",
" G c #246609",
" H c #191958",
" J c #4F1D2A",
" K c #161620",
" L c #B0B0C1",
" P c #26265E",
" I c #141449",
" U c #19195B",
" Y c #21481D",
" T c #161623",
" R c #070707",
" E c #4E4E7B",
" W c #BEB1B4",
" Q c #030303",
" ! c #010101",
" ~ c #4B4B6E",
" ^ c #815236",
" / c #505080",
" ( c #666685",
" ) c #321C31",
" _ c #8F3030",
" ` c #414A1B",
" ' c #A25353",
" ] c #30441E",
" [ c #181856",
" { c #989898",
" } c #151549",
" | c #AFAFBF",
".  c #8E8E8E",
".. c #1A1A5B",
".X c #6D2839",
".o c #4F4F7B",
".O c #26163F",
".+ c #15154C",
".@ c #4A342A",
".# c #BEBECA",
".$ c #4A4A6C",
".% c #171751",
".& c #171754",
".* c #141447",
".= c #24245A",
".- c #5A5A5A",
".; c #371F4F",
".: c #9595AB",
".> c #191959",
"., c #414173",
".< c #161621",
".1 c #431133",
".2 c #B0B0C2",
".3 c #26265F",
".4 c #D8D8DC",
".5 c #4E4E79",
".6 c #4A4A4A",
".7 c #4A3E1F",
".8 c #444444",
".9 c #696990",
".0 c #164427",
".q c #3C3C3C",
".w c #4B4B6F",
".e c #45133B",
".r c #181854",
".t c #A66262",
".y c #17171E",
".u c #282828",
".i c #D9D9D9",
".p c #AFAFBD",
".a c #131345",
".s c #181857",
".d c #404071",
".f c #1C1C1C",
".g c #15154A",
".h c #AFAFC0",
".j c #AB99A5",
".k c #4A1746",
".l c #101010",
".z c #1A1A5C",
".x c #080808",
".c c #B9B9B9",
".v c #3D3D3C",
".b c #BF9E9E",
".n c #060606",
".m c #040404",
".M c #020202",
/* pixels */
" b b b b b b b v                .- F b b b b b b b b b b b b b b",
" b b b b b b v                  .M !.8 Z b b b b b b b b b b b b",
" b b b b b b v   B @ @ @ @ @ @ @.-.f R.u b b b b b b b b b b b b",
" b b b b b b v   v b b b b b b b b F !  .  b b b b b b b b b b b",
" b b b b b b v   v b b b b b b b b b B  .l b b b b b b b b b b b",
" b b b b b b v   v b b b b b b b b b @     b b b b b b b b b b b",
" b b b b b b v   v b b b b b b b b b @     b b b b b b b b b b b",
" b b b b b b v   v b b b b b b b b b B   B b b b b b b b b b b b",
" b b b b b b v   v b b b b b b b.c.6    .c b b b b b b b b b b b",
" b b b b b b v                        .6 b b b b b b b b b b b b",
" b b b b b b v                     v @ b b b b b b b b b b b b b",
" b b b b b b v   B @ @ @ @.l.m A b b b b b b b b b b b b b b b b",
" b b b b b b v   v b b b b.c   ! { b b b b b b b b b b b b b b b",
" b b b b b b v   v b b b b b.-.x.x.i b b b b b b b b b b b b b b",
" b b b b b b v   v b b b b b b.l.n.q b b b b b b b b b b b b b b",
" b b b b b b v   v b b b b b b.c   ! { b b b b b b b b b b b b b",
" b b b b b b v   v b b b b b b b.-.n.x.i b b b b b b b b b b b b",
" b b b b b b v   v b b b b b b b b.l Q v b b b b b b b b b.5 E E",
" b b b b b b v   v b b b b b b b b.c   ! { b b b b b b b > V.& P",
" b b b b b b v   v b b b b b b b b b.-.M r b b b b b b.4 #.&.r.o",
" b b b b b b b b b b b b b b b b b b b F b b b b b b b e V.r.r |",
" b b b b b b b b b b b b b b b b b b b b b b b b b b.: #.&.r.r.4",
" b b b b b b b b b b b b b b b b b b b b b b b b b.4 # V.&.r P b",
" b b b b b b b b b b b b b b b b b b b b b b b b b e V.&.r.r.o b",
" b b b b b b b 1.b -.t 0 b b b b b b b b b b b b % V.% V.r w.h b",
" b b b b b b g = C.; u ; N o /.2.2.2 L L L L L.3 [ [ w w [ &.j b",
" b b b h.d * H H.s.s H.> U.z ,.z.z.z.........z.z.z.z z z.z.X _ '",
" |.:.=.% # V #.%.%.%.% V [ s.s.0 x Y ] 2 j.7.@.k q 4 ,.> a 7 c ^",
" y.p D (.w ~ 3.$ l X K.<.y T f.g }.O $ d k.e 5.1 + < f 6 ) ` M G",
" b b b b b b b b b b.v p p p.a i.* t.+.+.g } I : S 9 m . m J n O",
" b b b b b b b b b b b b b b b.4 y.p.p.p.p.p.p H.>.>., D D W 8 b",
" b b b b b b b b b b b b b b b b b b b b b b b.9.>.>.# b b b b b"
};
