/* XPM */
static const char * IconANObjectSelect[] = {
/* width height ncolors chars_per_pixel */
"64 64 244 2",
/* colors */
"`` c #816161",
"`a c #BA1E12",
"`b c #ADADAD",
"`c c #DFCEC7",
"`d c #DECEC6",
"`e c #654C4C",
"`f c #ABABAB",
"`g c #A9A9A9",
"`h c #A7A7A7",
"`i c #B91507",
"`j c #C3564C",
"`k c #D5AEA6",
"`l c #E4D8CF",
"`m c #DBC1B9",
"`n c #E1D4CC",
"`o c #C24D41",
"`p c #BD3125",
"`q c #D7B4AB",
"`r c #DEC7BF",
"`s c #D39A90",
"`t c #939393",
"`u c #E4DAD2",
"`v c #E3D8D1",
"`w c #919191",
"`x c #CE7E74",
"`y c #E1CDC5",
"`z c #978383",
"a` c #E6E0D7",
"aa c #858585",
"ab c #E5DED6",
"ac c #E3DCD4",
"ad c #C6C8C8",
"ae c #CD8076",
"af c #7F7F7F",
"ag c #C4C6C6",
"ah c #C35348",
"ai c #C2C4C4",
"aj c #CA7C73",
"ak c #797979",
"al c #DFCDC6",
"am c #E6E2DA",
"an c #757575",
"ao c #745D5D",
"ap c #E5E0D9",
"aq c #D39E96",
"ar c #BC2C20",
"as c #846666",
"at c #BF3D30",
"au c #DCC0B9",
"av c #826464",
"aw c #D09189",
"ax c #E1D3CB",
"ay c #676767",
"az c #CB776D",
"b` c #D4A29A",
"ba c #D3A099",
"bb c #CF887E",
"bc c #5D5D5D",
"bd c #DBC2BB",
"be c #E2D7CF",
"bf c #625858",
"bg c #C35044",
"bh c #575757",
"bi c #BEABA5",
"bj c #535353",
"bk c #E0CCC3",
"bl c #8A7F7F",
"bm c #B5A39C",
"bn c #D9AEA5",
"bo c #C6C7C7",
"bp c #BB271B",
"bq c #C4C5C5",
"br c #DABBB3",
"bs c #E0CEC6",
"bt c #DECCC4",
"bu c #3F3F3F",
"bv c #E4DFD7",
"bw c #373737",
"bx c #542D2C",
"by c #6A5252",
"bz c #C6635A",
"c` c #CC786D",
"ca c #DFD0C8",
"cb c #D7B0A9",
"cc c #DEC5BD",
"cd c #CC837A",
"ce c #272727",
"cf c #E2D6CE",
"cg c #E1D4CD",
"ch c #232323",
"ci c #C8746C",
"cj c #C65E53",
"ck c #DDC7BF",
"cl c #E4DAD3",
"cm c #E3DAD2",
"cn c #C4C4C4",
"co c #D4A79F",
"cp c #C0C0C0",
"cq c #8A8B8B",
"cr c #D08D84",
"cs c #D7B6AF",
"ct c #B91B0E",
"cu c #BCBCBC",
"cv c #B9190E",
"cw c #DECBC3",
"cx c #E6E0D8",
"cy c #E5DED7",
"cz c #E4DED6",
"d` c #B8B8B8",
"da c #C76F64",
"db c #B6B6B6",
"dc c #DEC2B9",
"dd c #B4B4B4",
"de c #D6ABA4",
"df c #755252",
"dg c #4D1717",
"dh c #B2B2B2",
"di c #816261",
"dj c #BD372C",
"dk c #BA1F12",
"dl c #E0CFC8",
"dm c #7D5E5D",
"dn c #BE3023",
"do c #DAB3AB",
"dp c #A8A8A8",
"dq c #AFA5A5",
"dr c #C2554B",
"ds c #A2A2A2",
"dt c #C8685E",
"du c #DBC0B9",
"dv c #E3D5CE",
"dw c #E2D5CD",
"dx c #A0A0A0",
"dy c #9E9E9E",
"dz c #9C9C9C",
"e` c #805D59",
"ea c #BC3024",
"eb c #B9180A",
"ec c #DFC8C0",
"ed c #969696",
"ee c #B81609",
"ef c #E3D9D1",
"eg c #E2D7D0",
"eh c #8E8E8E",
"ei c #D6A8A0",
"ej c #7C6462",
"ek c #3D0000",
"el c #8C8C8C",
"em c #505151",
"en c #DECAC2",
"eo c #E6DFD7",
"ep c #CA7266",
"eq c #E5DFD6",
"er c #C14339",
"es c #E4DDD5",
"et c #614444",
"eu c #C5C7C7",
"ev c #DFD7D0",
"ew c #755151",
"ex c #9B8A8A",
"ey c #CB7D74",
"ez c #DCBFB6",
"f` c #7C7C7C",
"fa c #4B1414",
"fb c #444545",
"fc c #BB1E12",
"fd c #787878",
"fe c #DFCEC6",
"ff c #E5E1D9",
"fg c #938282",
"fh c #765555",
"fi c #A08B88",
"fj c #E0D2CA",
"fk c #BA2014",
"fl c #D5B9B2",
"fm c #8A6F6F",
"fn c #E3D8D0",
"fo c #866461",
"fp c #C2C0C0",
"fq c #CF8B81",
"fr c #DEC9C1",
"fs c #440909",
"ft c #E4DCD4",
"fu c #C5B6AF",
"fv c #4C4C4C",
"fw c #D19890",
"fx c #E2DAD2",
"fy c #C76B62",
"fz c #4A4A4A",
"g` c #C5C6C6",
"ga c #846462",
"gb c #C35147",
"gc c #484848",
"gd c #C3C4C4",
"ge c #C1C2C2",
"gf c #BFC0C0",
"gg c #C1463B",
"gh c #E5E0D8",
"gi c #7B5A59",
"gj c #E4DED7",
"gk c #C76F65",
"gl c #818383",
"gm c #E2D3CB",
"gn c #E0D1C9",
"go c #E6E4DC",
"gp c #C14A3E",
"gq c #303030",
"gr c #5A4C4C",
"gs c #CE867C",
"gt c #A3A4A4",
"gu c #E2D7CE",
"gv c #E2D5CE",
"gw c #DFD3CB",
"gx c #D4A49C",
"gy c #D9B7AE",
"gz c #1C1C1C",
"h` c #D8B5AD",
"ha c #470C0B",
"hb c #765A5A",
"hc c #C35950",
"hd c #E5DDD4",
"he c #181818",
"hf c #DCC6BE",
"hg c #E4DBD3",
"hh c #BF4135",
"hi c #D0958E",
"hj c #C5C5C5",
"hk c #CE938C",
"hl c #C3C3C3",
"hm c #6C5050",
"hn c #B2AFAF",
"ho c #C14E44",
"hp c #998686",
"hq c #DABBB2",
"hr c #BFBFBF",
"hs c #AC9792",
"ht c #CF8C83",
"hu c #BDBDBD",
"hv c #DFCCC4",
"hw c #BBBBBB",
"hx c #E5DFD7",
"hy c #E3DDD5",
"hz c #D9B0A7",
"i` c #C35449",
/* pixels */
"abababababababababababababababababababababababababababababababababababababababababababababababababababababababababababababababab",
"abababababababababababababababababababababababababababababababababababababababababababababababababababababababababababababababab",
"abababababababababababababababababababababababababababababababababababababababababababababababababababababababababababababababab",
"abababababababababababababababababababababababababababababababababababababababababababababababababababababababababababababababab",
"abababababababababababababababababababababababababababababababababababababababababababababababababababababababababababababababab",
"abababababababababababababababababababababababababababababababababababababababababababababababababababababababababababababababab",
"abababababababababababababababababababababababababababababababababababababababababababababababababababababababababababababababab",
"abababababababababababababababababababababababababababababababababababababababababababababababababababababababababababababababab",
"abababababababababababababababababababababababababababababababababababababababababababababababababababababababababababababababab",
"abababababababababababababababababababababababababababababababababababababababababababababababababababababababababababababababab",
"ababababhxghhxhxabababababhxhxababababababababhxhxababababababababababababababababababababababababababababababababababababababab",
"abababcxaxduduckffababhxbefjdwcmabababababababax`ceoabababababababababababababababababababababababababababababababababababababab",
"ababaxaqbzbdbdcddtalhxabfthierawamababababhxalbgdtfjhxababababababababababababababababhxfe`uabababababababababababababababababab",
"hx`ygb`pbrabhx`rari`frhxhxgxct`xgocxhxabababhgdtazaxhxababcyffcxabababababhxcxhxababhxgjcjdcghababababababababababababababababab",
"abaqeegkefababcmc``ifqfthxcb`aaeh`coalhxabeockezdu`uababhxfeb`cbfnabababhghfei`mhxabbegsdnb`freoabababababababababababababababab",
"hgfyebajcmababczht`iatfnhxbrfk`jcbgsi`cchxabfjercj`chxghbrbg`kajcrhgabbehtbbhihheicxbddrctcocwhxabababababababababababababababab",
"`vggeeajcmababczfq`idnfnhxbrfcephyeieeaehgab`vdn`ofeghcmcjgg`nbadjbdcxeihhbdcacjhiamfngkctdchxababababababababababababababababab",
"hgciebajcmababczfq`i`p`lhxbrfcepczdoeebzbeab`vdn`ofecxalbghh`k`kfwckghhkdjcbfffjhgabfngkctdchxababababababababababababababababab",
"abgxdkdrdwababhgajeecreshxbrfcepczdoeeajcmab`vdn`ofecxcabgbpgnhghxefghfqeabaamcxhxabefepcthzhxababababababababababababababababab",
"hxbecdbph`hxghbrergp`yhxhxbr`aepbvdoarb`esabfndnho`chxesaebpaj`dh`fjghcofkathzfraughczcdcvdehvhxabababababababababababababababab",
"abhxfnfwcjcsbai`eyhvcyabhxbdcidt`shthkhgeqabhgbzhhducxhxckatargkcbesabguazfkatawcchxhxbrggahcscxabababababababababababababababab",
"ababhxesgmaxgngmhgeoabababft`ucfenbeftababcmefcihhducxabesdwbkhvhdabababclenezbeababababdvgmftababababababababababababababababab",
"ababababghababghhxabababababhxhxabhxhxabhxbngycigpbthxababghghabababababhxhxabhxababababhxghabababababababababababababababababab",
"ababababababababababababababababababababhxbacdgbgseghxababababababababababababababababababababababababababababababababababababab",
"abababababababababababababababababababababcmfrgybe`uefabczabababababababababftczabababababababababababababababababababababababab",
"ababababababababababababababababababababababhxaxfl`qcb`sgyhxabababababababhxbrbbhzftabababababababababababababababababcxabababab",
"ababababababababababababababababababababababhgcdhicmfnfqhkcxabababhxababababezctfyfnababababababababababhxababababhxcah``uababab",
"ababababababababababababababababababababababecarazgvamfncshxababczhvfjftababbsfcdafnababesgnfjczabababesfralbeababcfc`gkfehgabab",
"ababababababababababababababababababababababbefyeb`ocrgmfnhxab`ugshkdefwefab`yfcdafnabhggxh`co`xcmabaccdhkgsahhvhxeict`pdecahxab",
"abababababababababababababababababababababababbdi`eedkathzabghaqfkezbdgph`hx`yfcdafna`cbgpbrgy`pcbamcchhgyh``ogyghccbphodlftabab",
"abababababababababababababababababababababababcxfrc`dj`iathfhxfqcvhk`kc`cohx`yfcdafnamc``phigxdtdeamcrcvgyhxdwababcghcdr`nababab",
"ababababababababababababababababababababababcmcwghabeii``pcbghfqcvhibdcacfab`yfcdafngo`jaraqhf`n`uczgsctgyhxhxabab`nhcdr`nababab",
"ababababababababababababababababababababababgnfwbehxamh`erhfam`sctaegj`uefab`yfchcaxffcrfk`xffdwaxff`sctcdcmbebthx`nhc`jdwesabab",
"ababababababababababababababababababababababdlajcock`mhi`xaphxfrdtbpaz`s`mhxcccvathqhxfegp`pajh`bshxaxfyarfyhibdhxfndtdj`kdwabab",
"ababababababababababababababababababababababfndufrencs`mftababhxfnhzba`rababdwhzbnhvabab`ygxeiaxeoabhxbebnb`eceoababbkbnccababab",
"ababababababababababababababababababababababababhxabesababababababhxabhxabababghghabababcycyhxabababababhxhxhxabababhxghhxababab",
"abababababababababababababababababababababababababababababababababababababababababababababababababababababababababababababababab",
"abhyfie`e`e`e`e`e`e`e`e`e`e`e`e`e`e`e`e`e`e`e`e`e`e`e`e`e`e`e`e`e`e`e`e`e`e`e`e`e`e`e`e`e`e`e`e`e`e`e`e`e`e`e`e`e`e`e`fuabababab",
"ac`zdgfgexexexexexexexexexexexexexexexexexexexexexexexexexexexexexexexexexexexexexexexexexexexexexexexexexexexexexexavdgfuababab",
"fufsdf`z``````````````````````````````````````````````````````````````````````````````````````````````````````````dfhnfabxfxabab",
"biekewfmhlbqbqbqboboboadgdaig`adbog`g`g`bqhlg`boboboboboboadgdhlgdboboboboaibobobobqeubobog`bqboboadgdagbobog`g`gdexdqfahahsgwab",
"biekewfmcpelakcqayhrcndxaf`gf``hcndxbj`f`behhrcncncncncnhldsds`h`bddcngeafeh`tcnhnaaafcpcnfded`hhjdyehancphlf`bjakhpdqfahagie`cz",
"biekewfmfpakbcdbgz`fdbcedscnafbugecpbufzdxhwcncncncncncnds`thr`b`bdbd`dhce`fbugeayehfv`whnfbdpgccngc`tgcdyhuaf`tdbexdqfadgev`efu",
"biekewfmfpakfbcqfvhrdzgzdbcndxhedbcndzheaacncncncncncnhledcpakehfzcpdhgtceddgqd`bj`wfzfdedbw`ggzcubu`tbcaf`gchchedexdqfadgevetfu",
"biekewfmfpakbhdhchedgtgzddcndxhedbcnhrbhgqcucncncncncncpcq`hfbaabccn`bdpcedhbwd`fz`wemfd`tbw`ggzhubu`tbhaahldbfdbuhpdqfahafhe`ev",
"biekewfmhlf`gqg`chcqbqgcelboanbcbogfdzcububhhlbobobobogddzcqbhbjel`fgfcubw`ffvboanehbhgthwem`fbjboayaabcdshu`hgdayexdqfahabmacab",
"fufsdfhpavbyethbetasasgi`eejetdiasaobyasbyfbhbasasasasasbyhmethmhmhbaoas`ebffhasdm`egrgaasdfaodmasgiby`easdmfbaodigihnfabxfxabab",
"hyfidgbl`z`z`z`z`z`z`z`z`z`z`z`z`z`z`z`z`z`z`zaaglglglfgfgejfgfgblfm`z`z`z`z`z`z`z`z`z`z`z`z`z`z`z`z`z`z`z`z`z`z`z`zdmbxfuababab",
"abeshsfofofofofofofofofofofofofofofofofofofofodidididigafofofogagafofofofofofofofofofofofofofofofofofofofofofofofofofofuhxababab",
"ababhxeoeoeoeoeoeoeoeoeoeoeoeoeoeoeoeoeoeoeoeoeoeoeoeoeoeoeoeoeoeoeoeoeoeoeoeoeoeoeoeoeoeoeoeoeoeoeoeoeoeoeoeoeoeoeoeoababababab",
"abababababababababababababababababababababababababababababababababababababababababababababababababababababababababababababababab",
"abababababababababababababababababababababababababababababababababababababababababababababababababababababababababababababababab",
"abababababababababababababababababababababababababababababababababababababababababababababababababababababababababababababababab",
"abababababababababababababababababababababababababababababababababababababababababababababababababababababababababababababababab",
"abababababababababababababababababababababababababababababababababababababababababababababababababababababababababababababababab",
"abababababababababababababababababababababababababababababababababababababababababababababababababababababababababababababababab",
"abababababababababababababababababababababababababababababababababababababababababababababababababababababababababababababababab",
"abababababababababababababababababababababababababababababababababababababababababababababababababababababababababababababababab",
"abababababababababababababababababababababababababababababababababababababababababababababababababababababababababababababababab",
"abababababababababababababababababababababababababababababababababababababababababababababababababababababababababababababababab",
"abababababababababababababababababababababababababababababababababababababababababababababababababababababababababababababababab",
"abababababababababababababababababababababababababababababababababababababababababababababababababababababababababababababababab",
"abababababababababababababababababababababababababababababababababababababababababababababababababababababababababababababababab",
"abababababababababababababababababababababababababababababababababababababababababababababababababababababababababababababababab"
};
