/* XPM */
static const char * IconANUniStr[] = {
/* width height ncolors chars_per_pixel */
"64 64 241 2",
/* colors */
"`` c #85154B",
"`a c #D4BCB9",
"`b c #AFAFAF",
"`c c #C44D40",
"`d c #B9A4AF",
"`e c #DFCEC7",
"`f c #DECEC6",
"`g c #E6E3DB",
"`h c #A7A7A7",
"`i c #C198A3",
"`j c #D69A90",
"`k c #AC8195",
"`l c #A5A5A5",
"`m c #DDC3BB",
"`n c #A3A3A3",
"`o c #8D5370",
"`p c #DBC1B9",
"`q c #A1A1A1",
"`r c #A2607E",
"`s c #E0D2CB",
"`t c #CE9088",
"`u c #9C9D9C",
"`v c #CC8E86",
"`w c #CA766D",
"`x c #BC3124",
"`y c #B9170A",
"`z c #949594",
"a` c #DCC5BD",
"aa c #E3D8D1",
"ab c #E2D8D0",
"ac c #A16080",
"ad c #6C6166",
"ae c #E1CDC5",
"af c #C4483C",
"ag c #E5DED6",
"ah c #E4DED5",
"ai c #E4DCD5",
"aj c #C6574B",
"ak c #C66B62",
"al c #7F7F7F",
"am c #C3675F",
"an c #BA1F11",
"ao c #DFCDC6",
"ap c #DECDC5",
"aq c #E6E2DA",
"ar c #E5E0D9",
"as c #747574",
"at c #3D3E3E",
"au c #9D5375",
"av c #C299A3",
"aw c #D19C94",
"ax c #BC2C20",
"ay c #D5ADA5",
"az c #B71004",
"b` c #B60C03",
"ba c #E2D3CC",
"bb c #E7E6DE",
"bc c #E6E4DD",
"bd c #BC3023",
"be c #947B86",
"bf c #E0C8C0",
"bg c #B91809",
"bh c #575757",
"bi c #B9180C",
"bj c #E5DDD5",
"bk c #CA847C",
"bl c #E3DBD3",
"bm c #A36584",
"bn c #E1D9D1",
"bo c #C5C7C6",
"bp c #474747",
"bq c #CA7B72",
"br c #BF382C",
"bs c #C04E44",
"bt c #D3A69F",
"bu c #C66157",
"bv c #424342",
"bw c #CBA1A1",
"bx c #DECCC4",
"by c #E6E1D9",
"bz c #DECAC4",
"c` c #E5DFD8",
"ca c #D5B3AE",
"cb c #C39AA3",
"cc c #C87066",
"cd c #D19289",
"ce c #C44D41",
"cf c #DFD0C8",
"cg c #C35F57",
"ch c #2C2D2C",
"ci c #DFC7BE",
"cj c #AB8195",
"ck c #E3D6CF",
"cl c #E2D6CE",
"cm c #88516C",
"cn c #B08B9D",
"co c #BE3327",
"cp c #C55C52",
"cq c #D8B4AD",
"cr c #C24638",
"cs c #B9190B",
"ct c #E3DAD2",
"cu c #C6C6C6",
"cv c #7D003D",
"cw c #C4C4C4",
"cx c #C2C2C2",
"cy c #BD3529",
"cz c #DECBC3",
"d` c #E6E0D8",
"da c #E5E0D7",
"db c #DDC9C2",
"dc c #E5DED7",
"dd c #C97166",
"de c #CF9690",
"df c #B4B4B4",
"dg c #B2B2B2",
"dh c #D4A9A2",
"di c #85144B",
"dj c #DABCB5",
"dk c #BB2113",
"dl c #787979",
"dm c #C24A3E",
"dn c #ACACAC",
"do c #E5E2DA",
"dp c #AAAAAA",
"dq c #8B2454",
"dr c #945A77",
"ds c #604451",
"dt c #707171",
"du c #B81206",
"dv c #AB7E94",
"dw c #E0CAC1",
"dx c #929292",
"dy c #E3D9D1",
"dz c #CA807A",
"e` c #C0ACB2",
"ea c #8E8E8E",
"eb c #92687B",
"ec c #9E5D7D",
"ed c #D3A49D",
"ee c #E0CCC4",
"ef c #B91A0D",
"eg c #DFCAC3",
"eh c #E6DFD7",
"ei c #E5DFD6",
"ej c #E5DDD6",
"ek c #E4DDD5",
"el c #C86E64",
"em c #C6C9C8",
"en c #BB291C",
"eo c #D09790",
"ep c #E1D0C8",
"eq c #7F5268",
"er c #DFCEC6",
"es c #914466",
"et c #A66F8B",
"eu c #E6E1DA",
"ev c #C97268",
"ew c #C76E66",
"ex c #B81105",
"ey c #D4ACA4",
"ez c #BF3C30",
"f` c #DABFB7",
"fa c #6A6A6A",
"fb c #D29F98",
"fc c #CD7165",
"fd c #C6B5B7",
"fe c #D7B2AA",
"ff c #B91509",
"fg c #5E5E5E",
"fh c #DBC3BB",
"fi c #E3D8D0",
"fj c #BB2618",
"fk c #C3C0C1",
"fl c #DCBCB2",
"fm c #B08B9E",
"fn c #C4483B",
"fo c #D6B4AC",
"fp c #C14438",
"fq c #E5DED5",
"fr c #DCC7BF",
"fs c #E4DCD4",
"ft c #7F0640",
"fu c #E3DAD3",
"fv c #BE4035",
"fw c #C6C8C7",
"fx c #E1D8D1",
"fy c #4A4A4A",
"fz c #C5C6C6",
"g` c #C4C6C5",
"ga c #CD928C",
"gb c #9F6080",
"gc c #BE372B",
"gd c #BFC0C0",
"ge c #D9BAB2",
"gf c #CE8B83",
"gg c #830C47",
"gh c #DECBC4",
"gi c #E5E0D8",
"gj c #C399A3",
"gk c #3C3C3C",
"gl c #B5B6B6",
"gm c #871A4E",
"gn c #363636",
"go c #8B4E6C",
"gp c #C6645A",
"gq c #D9BCB5",
"gr c #323232",
"gs c #CD7064",
"gt c #693B51",
"gu c #AD8297",
"gv c #B91608",
"gw c #9A5174",
"gx c #CDABB3",
"gy c #D5AFA7",
"gz c #E4D9D0",
"h` c #63354B",
"ha c #E1D5CD",
"hb c #222222",
"hc c #E7E8E0",
"hd c #B08A9D",
"he c #D2A29A",
"hf c #AF889C",
"hg c #979898",
"hh c #AC6682",
"hi c #E4DBD3",
"hj c #DBC4BD",
"hk c #C6C7C6",
"hl c #7A445E",
"hm c #C5C5C5",
"hn c #C25045",
"ho c #C1C1C1",
"hp c #BEBFBE",
"hq c #BA1C0F",
"hr c #BDBDBD",
"hs c #D7B7AF",
"ht c #E6E1D8",
"hu c #BBBBBB",
"hv c #E5DFD7",
"hw c #E4DDD6",
"hx c #A6667F",
/* pixels */
"agagagagagagagagagagagagagagagagagagagagagagagagagagagagagagagagagagagagagagagagagagagagagagagagagagagagagagagagagagagagagagagag",
"agagagagagagagagagagagagagagagagagagagagagagagagagagagagagagagagagagagagagagagagagagagagagagagagagagagagagagagagagagagagagagagag",
"agagagagagagagagagagagagagagagagagagagagagagagagagagagagagagagagagagagagagagagagagagagagagagagagagagagagagagagagagagagagagagagag",
"agagagagagagagagagagagagagagagagagagagagagagagagagagagagagagagagagagagagagagagagagagagagagagagagagagagagagagagagagagagagagagagag",
"agagagagagagagagagagagagagagagagagagagagagagagagagagagagagagagagagagagagagagagagagagagagagagagagagagagagagagagagagagagagagagagag",
"agagagagagagagagagagagagagagagagagagagagagagagagagagagagagagagagagagagagagagagagagagagagagagagagagagagagagagagagagagagagagagagag",
"agagagagagagagagagagagagagagagagagagagagagagagagagagagagagagagagagagagagagagagagagagagagagagagagagagagagagagagagagagagagagagagag",
"agagagagagagagagagagagagagagagagagagagagagagagagagagagagagagagagagagagagagagagagagagagagagagagagagagagagagagagagagagagagagagagag",
"agagagagagagagagagagagagagagagagagagagagagagagagagagagagagagagagagagagagagagagagagagagagagagagagagagagagagagagagagagagagagagagag",
"agagagagagagagagagagagagagagagagagagagagagagagagagagagagagagagagagagagagagagagagagagagagagagagagagagagagagagagagagagagagagagagag",
"agagagagagagagagagagagagagagagagagagagagagagagagagagagagagagagagagagagagagagagagagagagagagagagagagagagagagagagagagagagagagagagag",
"agagagagagagagagagagagagagagagagagagagagagagagagagagagagagagagagagagagagagagagagagagagagagagagagagagagagagagagagagagagagagagagag",
"agagagagagagagagagagagagagagagagagagagagagagagagagagagagagagagagagagagagagagagagagagagagagagagagagagagagagagagagagagagagagagagag",
"agagagagagagagagagagagagagagagagagagagagagagagagagagagagagagagagagagagagagagagagagagagagagagagagagagagagagagagagagagagagagagagag",
"agagagagagagagagagagagagagagagagagagagagagagagagagagagagagagagagagagagagagagagagagagagagagagagagagagagagagagagagagagagagagagagag",
"agagagagagagagagagagagagagagagagagagagagagagagagagagagagagagagagagagagagagagagagagagagagagagagagagagagagagagagagagagagagagagagag",
"agagagagagagagagagagagagagagagagagagagagagagagagagagagagagagagagagagagagagagagagagagagagagagagagagagagagagagagagagagagagagagagag",
"agagagagagagagagagagagagagagagagagagagagagagagagagagagagagagagagagagagagagagagagagagagagagagagagagagagagagagagagagagagagagagagag",
"agagagagagagagagagagagagagagagagagagagagagagagagagagagagagagagagagagagagagagagagagagagagagagagagagagagagagagagagagagagagagagagag",
"agagagagagagagagagagagagagagagagagagagagagagagagagagagagagagagagagagagagagagagagagagagagagagagagagagagagagagagagagagagagagagagag",
"agagaghvhvhvagagagagaghvhvagagagagagagagagagagagagagagaghvhvagagagagagagagagagagagagagagagagagagagagagagagagagagagagagagagagagag",
"hvcfczapapapczhiagczcqfecqbxagagagagagagagagagagagagaghvhagqerd`agagagd``ehsfecqdycffsagagagagagagagagagagagagagagagagagagagagag",
"agclge`wbugpflhvag`sf``ted`sagagagagagagagagagagagaghvctcdhnfbagagagd`hseyfof`heeveodyhvagagagfshaagagagagagagagagagagagaghvhiag",
"aggifhezexfpcibyagd`clbkhsagagagagagagagagagagagagagehhacpb`ev`sgihvdbcpedhahva`ccbqclhvagagek`mbtagagagagagagagagagagagaghvblag",
"aghv`fcr`yak`ed`aghvclfbhjbjagaghvd`d`d`d`aqbyhvagagagfsfegfaydyhveudddkay`ghvhvczfbckhvagbycl`v`vd`d`agagd`d`d`hvhvbyd`agagagag",
"aghvapcr`yamerd`aghvfiayhjbjhvhifrfofogqge`tfbfrd`agehfrhsca`pdyhvbybqfjezhectgibjfhhiagfsa`dzfvbkfef`gifi`pfofodbbxfbfeabgidyag",
"agagbldmffamerd`aghvfieyhjbjageifrewbsbkgaevax`wabhvehcfevcydzcfgic`gybrffcocebtcthiejhvfibtamhqhngehjehaggebuajfbbqaxddaobyhiag",
"aghvgi`cffamerd`aghvfieyhjbjagbyeecgcscpbacdazhnfrd`agdoelb`el`egiagcleobdgvbgcocef`dcagekghbk`ycrdyblagaqdjbsefgpedgfayhihvhwag",
"aghvgi`c`ygpapd`aghvfieyhjbjaghtghcgax`vhc`jexhn`pd`agbbfcazcc`egiaghvblheezdkcsgvbrgeaghvdy`tbiafaghvagaqdjhndufcarblfshvhvhwag",
"aghvgi`cgvenflaqaghvfiayhjbjaghtghcg`xdebb`jexhnfhd`agbcfcazcc`egiagfsagbldwawbranandzdygiab`vbiafagdcagaqdjbsgced`ghvhvaghvhwag",
"aghvgihnbganflaqaghvfihea`agaghtghcg`xdebb`jexhn`pd`agbcfcazcc`egihvcqergid`fsdwbqenbqaagiab`vbiafaghvagaqdjbsezeybyagagaghvhwag",
"agagc`bkfjanfl`gagbyaeajaehvaghtghcgbddebb`jdufvgyaqagbcfcazcc`egid`eocqfshvd`aqgycogahigiab`vbiafagagagaqdjbsezeybyagagaghvhwag",
"agaghvgygchqgaclbjdygy`tgzhvagbybzcgefbuhc`jdufvbtaqagbcgsazelergid`gadzeghvbjhibtbr`mgihvfsheeffncfgqhvaqdjbsezdhbyagagaghvekag",
"agagagfiawcobdfpbk`tbtbaagaghvagdhenefafhsbqcyewawclbybzcpbicpfoctbyga`tgadhgy`tbkedhihvaghv`eevgcdefrd`fscdfjdkakczd`agagbyhaag",
"agagaghvhieecicqgecffiagagagagagckbfbfaefibaaebaclekhvhierbfepfibjhvfrcfbahahjdjepekagagagagagcldwbaaiagagbabfbfaehiagagagagbjag",
"agagagaghvbybyagekhvhvagagagagaghvbybyd`hvc`bydahvagagagd`byd`hvagagekagdahvfsekhvagagagagagaghvbyhvagagaggibybyd`agagagagagagag",
"agfqfdavgjgjgjcbcbgjgjgjgjgjgjgjgjgjgjgjgjgjgjgjgjgjgjgjgjgjgjgjgjgjcbgjgjgjcbcbgjgjgjgjgjgjgjgjgjgjgjgjgjgjgjgjgjgjgjdbeiagagag",
"fsgugmgucncncncncncncncncncncncncncncncncncncncncncncncncncncncncncncncncncncncncncncncncncncncncncncncncncncncncncnbmdqfdagagag",
"`aftgw`kbmbmbmbmbmbmbmbmbmbmbmbmbmbmbmbmbmbmbmbmbmbmbmbmbmbmbmbmbmbmbmbmbmbmbmbmbmbmbmbmbmbmbmbmbmbmbmbmbmbmbmbmbmaue```dqfuagag",
"gxcvgwetcwfzfzfzfzfzfzfzbohkbofzfwfzfzfzfzfzfzbohkfzfzhkhkfzfzfzfzfzfzfzfzfzfzhkfzfzfzfzfzfzfzfzfzfzfzfzfzfzfzfzfzhd`ddigggxbnag",
"gxcvgwetfkcwcwcwcwcwcwhm`nbh`bhreahucwcwcwcwcw`nadcudxdxhgdxcwcwglcwcwcwcwcw`uascwcwcwcwcwcwcwcwcwcwcwcwcwcwcwcwcwhf`ddigg`recah",
"gxcvgwetfkcwcwcwcwcwcwcwdggrglcw`qcwhr`n`l`lhmdg`ucufgalhp`hcweadlhohu`b`ldg`bhghmdndn`uhucwdg`h`hhucwcwcwcwcwcwcwhf`ddi``fxes`a",
"gxcvgwetfkcwcwcwcwcwcwcwdfchdgcw`hcwdpchalathodxgncu`zhbgr`qcwbhdtgdhggraldpalbphkfgbhfgalcwgr`ngn`bcwcwcwcwcwcwcwhf`ddi``cfes`a",
"gxcvgwetfkcwcwcwcwcwcwcwdfhb`ncwdpcwdfatdngkgd`nchcuhodxgnfycufaalhmhgfycxcwalbvcuadfaasascwchdnfyglcwcwcwcwcwcwcwhf`ddiggau`rbn",
"gxcvgwetcwbobobobobobobogdch`ugd`qfwglatdngkho`nchemdxhpdfbvemdtdlg`hgfyg`boeaatfwfafaasasem`q`ldpbobobobobobobobofm`ddiggbwfsag",
"gxftaudvacacacacacacacacachlhlcmdracdrh``ogteccmh`gbhleqcmesacgogteccmgtecaccmh`gbhlhlhlhlacdsbvbveqacacacacacacacgwe```dqfuagag",
"ekcngmdvcjcjcjcjcjcjcjcjcjcj`kcjcjcjcj`kcjcjcj`k`kcjcj`k`kcjcjcjcjcjcj`kcjcjcj`kcjcj`kcjcj`kdsbeebeqcjcjcjcjcjcjcjcjecdq`aagagag",
"agek`ihhhhhhhhhhhhhhhhhhhhhhhhhhhhhhhhhhhhhhhhhhhhhhhhhhhhhhhhhhhhhhhhhhhhhhhhhhhhhhhhhhhhhhhxhxhxhhhhhhhhhhhhhhhhhhhh`aeiagagag",
"agaghvehehehehehehehehehehehehehehehehehehehehehehehehehehehehehehehehehehehehehehehehehehehehehehehehehehehehehehehehagagagagag",
"agagagagagagagagagagagagagagagagagagagagagagagagagagagagagagagagagagagagagagagagagagagagagagagagagagagagagagagagagagagagagagagag",
"agagagagagagagagagagagagagagagagagagagagagagagagagagagagagagagagagagagagagagagagagagagagagagagagagagagagagagagagagagagagagagagag",
"agagagagagagagagagagagagagagagagagagagagagagagagagagagagagagagagagagagagagagagagagagagagagagagagagagagagagagagagagagagagagagagag",
"agagagagagagagagagagagagagagagagagagagagagagagagagagagagagagagagagagagagagagagagagagagagagagagagagagagagagagagagagagagagagagagag",
"agagagagagagagagagagagagagagagagagagagagagagagagagagagagagagagagagagagagagagagagagagagagagagagagagagagagagagagagagagagagagagagag",
"agagagagagagagagagagagagagagagagagagagagagagagagagagagagagagagagagagagagagagagagagagagagagagagagagagagagagagagagagagagagagagagag",
"agagagagagagagagagagagagagagagagagagagagagagagagagagagagagagagagagagagagagagagagagagagagagagagagagagagagagagagagagagagagagagagag",
"agagagagagagagagagagagagagagagagagagagagagagagagagagagagagagagagagagagagagagagagagagagagagagagagagagagagagagagagagagagagagagagag",
"agagagagagagagagagagagagagagagagagagagagagagagagagagagagagagagagagagagagagagagagagagagagagagagagagagagagagagagagagagagagagagagag",
"agagagagagagagagagagagagagagagagagagagagagagagagagagagagagagagagagagagagagagagagagagagagagagagagagagagagagagagagagagagagagagagag",
"agagagagagagagagagagagagagagagagagagagagagagagagagagagagagagagagagagagagagagagagagagagagagagagagagagagagagagagagagagagagagagagag",
"agagagagagagagagagagagagagagagagagagagagagagagagagagagagagagagagagagagagagagagagagagagagagagagagagagagagagagagagagagagagagagagag",
"agagagagagagagagagagagagagagagagagagagagagagagagagagagagagagagagagagagagagagagagagagagagagagagagagagagagagagagagagagagagagagagag",
"agagagagagagagagagagagagagagagagagagagagagagagagagagagagagagagagagagagagagagagagagagagagagagagagagagagagagagagagagagagagagagagag",
"agagagagagagagagagagagagagagagagagagagagagagagagagagagagagagagagagagagagagagagagagagagagagagagagagagagagagagagagagagagagagagagag"
};
