/* XPM */
static const char * IconANRealSlider[] = {
/* width height ncolors chars_per_pixel */
"64 64 249 2",
/* colors */
"   c #000000",
" . c #E9C2B5",
" X c #8CF37C",
" o c #000E00",
" O c #DA6353",
" + c #DA6857",
" @ c #CA1D13",
" # c #CA1F14",
" $ c #CA1F15",
" % c #CA2116",
" & c #EABFB1",
" * c #002200",
" = c #EAC3B6",
" - c #EAC3B8",
" ; c #EAC4B8",
" : c #B90100",
" > c #EAC7BA",
" , c #EAC7BB",
" < c #002700",
" 1 c #EAC8BA",
" 2 c #EAC8BB",
" 3 c #EAC8BD",
" 4 c #EACABF",
" 5 c #DB6A58",
" 6 c #DB6B58",
" 7 c #D7ECC5",
" 8 c #DB6C5A",
" 9 c #DB6C5B",
" 0 c #DB6D5B",
" q c #DB6E5D",
" w c #CB2217",
" e c #BA0100",
" r c #BA0200",
" t c #BA0300",
" y c #EAEADC",
" u c #EBCCC2",
" i c #EBCDC2",
" p c #EBCEC3",
" a c #EBCEC4",
" s c #EBD0C4",
" d c #EBD0C6",
" f c #EBD2C8",
" g c #EBD3C8",
" h c #CC2418",
" j c #CC281C",
" k c #BB0200",
" l c #BB0300",
" z c #BB0400",
" x c #BB0401",
" c c #ECD2C8",
" v c #ECD3C8",
" b c #ECD5C9",
" n c #ECD5CA",
" m c #ECD7CC",
" M c #ECD9CE",
" N c #DD6D5C",
" B c #DD7060",
" V c #CD261A",
" C c #DD7461",
" Z c #DD7563",
" A c #DD7763",
" S c #DD7767",
" D c #CD2B1F",
" F c #DD7867",
" G c #DD7968",
" H c #ECE6DE",
" J c #008900",
" K c #DD7A6A",
" L c #DD7D6D",
" P c #0FFD0C",
" I c #34FA2E",
" U c #EDD7CD",
" Y c #EDD9CF",
" T c #CE2C20",
" R c #CE2C21",
" E c #C8EEB7",
" W c #00AA00",
" Q c #CE2E21",
" ! c #6CF55F",
" ~ c #CE3023",
" ^ c #BD0401",
" / c #BD0501",
" ( c #BD0502",
" ) c #DE806E",
" _ c #DE8170",
" ` c #DE8374",
" ' c #EEDACF",
" ] c #EEDBD0",
" [ c #EEDDD1",
" { c #EEDDD2",
" } c #EEDED3",
" | c #EEDED5",
".  c #EEDFD5",
".. c #EEDFD6",
".X c #EEE0D6",
".o c #EEE0D7",
".O c #EEE2D9",
".+ c #EEE3D9",
".@ c #EEEADF",
".# c #CF3325",
".$ c #044C3D",
".% c #DF8575",
".& c #DF8877",
".* c #DF8978",
".= c #DF8B7B",
".- c #EFE2D9",
".; c #EFE3DA",
".: c #EFE4DA",
".> c #EFE4DB",
"., c #EFE4DD",
".< c #00EA00",
".1 c #EFE6DD",
".2 c #EFE7DD",
".3 c #EFE7DE",
".4 c #D03124",
".5 c #839FB8",
".6 c #BF0501",
".7 c #BF0601",
".8 c #BF0602",
".9 c #BF0702",
".0 c #D03527",
".q c #D03628",
".w c #00F500",
".e c #00FF00",
".r c #E0907F",
".t c #E09180",
".y c #E09181",
".u c #E09281",
".i c #F0E7DE",
".p c #F0E8DF",
".a c #F0EADF",
".s c #F0EAE0",
".d c #F0EAE2",
".f c #F0EBE3",
".g c #F0EBE4",
".h c #F0ECE4",
".j c #C00802",
".k c #F0EEE4",
".l c #F0EEE6",
".z c #F0EEE7",
".x c #F0EFE7",
".c c #F0EFE8",
".v c #F0F0E8",
".b c #F0F0EA",
".n c #D1382B",
".m c #D13B2C",
".M c #D13C2D",
".N c #DEEBCD",
".B c #E18C7D",
".V c #C10903",
".C c #C10A04",
".Z c #D23F31",
".A c #A8F198",
".S c #E29684",
".D c #E29788",
".F c #E29C8B",
".G c #C20903",
".H c #C20A05",
".J c #F2F0E8",
".K c #F2F0EA",
".L c #C20C05",
".P c #F2F2EA",
".I c #F2F3EC",
".U c #03FD03",
".Y c #E39B8B",
".T c #E39D8F",
".R c #E39F90",
".E c #C30B05",
".W c #C30C06",
".Q c #C30D06",
".! c #F3F5EF",
".~ c #D44335",
".^ c #D44637",
"./ c #E4A092",
".( c #E4A191",
".) c #E4A292",
"._ c #E4A295",
".` c #E4A395",
".' c #E4A596",
".] c #E4A597",
".[ c #E4A697",
".{ c #C40E08",
".} c #E4A898",
".| c #C40F07",
"X  c #E4A99B",
"X. c #E4AA9C",
"XX c #C41109",
"Xo c #E4AEA1",
"XO c #C51109",
"X+ c #C5130A",
"X@ c #C5130B",
"X# c #E5AD9E",
"X$ c #C5140C",
"X% c #E5AE9F",
"X& c #D64D3D",
"X* c #D64E3D",
"X= c #D64E3F",
"X- c #D6503F",
"X; c #D65040",
"X: c #D65140",
"X> c #D65142",
"X, c #D65242",
"X< c #D65443",
"X1 c #D65646",
"X2 c #E6AEA0",
"X3 c #E6B0A3",
"X4 c #E6B4A5",
"X5 c #D75443",
"X6 c #D75644",
"X7 c #D75949",
"X8 c #D75C4B",
"X9 c #C7150C",
"X0 c #C7160C",
"Xq c #C7160D",
"Xw c #C7160E",
"Xe c #E7B5A6",
"Xr c #E7B5A8",
"Xt c #E7B6A9",
"Xy c #E7B8AA",
"Xu c #E7B8AD",
"Xi c #E7B9AA",
"Xp c #E7B9AD",
"Xa c #E7B9AE",
"Xs c #D3EEC3",
"Xd c #E7BAAD",
"Xf c #E7BBAE",
"Xg c #D85747",
"Xh c #C8180E",
"Xj c #C8180F",
"Xk c #C8190F",
"Xl c #E8B9AD",
"Xz c #E8B9AE",
"Xx c #E8BBAF",
"Xc c #E8BDB0",
"Xv c #E8BFB1",
"Xb c #E8C0B1",
"Xn c #E8C0B4",
"Xm c #4573A2",
"XM c #D95A4A",
"XN c #D95C4C",
"XB c #D95E4D",
"XV c #D95F4E",
"XC c #D96050",
"XZ c #D96351",
"XA c #C91A11",
"XS c #C91D12",
"XD c #C91E13",
"XF c #C91F13",
"XG c #E9C1B4",
/* pixels */
".s.s.s.s.s.s.s.s.s.s.s.s.s.s.s.s.s.s.s.s.s.s.s.s.s.s.s.s.s.s.s.s.s.s.s.s.s.s.s.s.s.s.s.s.s.s.s.s.s.s.s.s.s.s.s.s.s.s.s.s.s.s.s.s",
".s.s.s.s.s.s.s.s.s.s.s.s.s.s.s.s.s.s.s.s.s.s.s.s.s.s.s.s.s.s.s.s.s.s.s.s.s.s.s.s.s.s.s.s.s.s.s.s.s.s.s.s.s.s.s.s.s.s.s.s.s.s.s.s",
".s.s.s.s.s.s.s.s.s.s.s.s.s.s.s.s.s.s.s.s.s.s.s.s.s.s.s.s.s.s.s.s.s.s.s.s.s.s.s.s.s.s.s.s.s.s.s.s.s.s.s.s.s.s.s.s.s.s.s.s.s.s.s.s",
".s.s.s.s.s.s.s.s.s.s.s.s.s.s.s.s.s.s.s.s.s.s.s.s.s.s.s.s.s.s.s.s.s.s.s.s.s.s.s.s.s.s.s.s.s.s.s.s.s.s.s.s.s.s.s.s.s.s.s.s.s.s.s.s",
".s.s.s.s.s.s.s.s.s.s.s.s.s.s.s.s.s.s.s.s.s.s.s.s.s.s.s.s.s.s.s.s.s.s.s.s.s.s.s.s.s.s.s.s.s.s.s.s.s.s.s.s.s.s.s.s.s.s.s.s.s.s.s.s",
".s.s.s.s.s.s.s.s.s.s.s.s.s.s.s.s.s.s.s.s.s.s.s.s.s.s.s.s.s.s.s.s.s.s.s.s.s.s.s.s.s.s.s.s.s.s.s.s.s.s.s.s.s.s.s.s.s.s.s.s.s.s.s.s",
".s.s.s.s.s.s.s.d.d.d.d.d.d.d.d.d.d.d.s.s.s.s.s.s.s.s.s.s.s.s.s.s.s.s.s.s.s.s.s.s.s.s.s.s.s.s.s.s.s.s.s.d.d.d.d.d.s.s.s.s.s.s.s.s",
".s.s.s.s.s.s.p.,.,.3.3.3.3.,.1.1.1.i.d.f.d.s.s.s.s.s.s.s.s.s.s.s.s.s.s.s.s.s.s.s.s.s.s.s.s.s.s.s.s.s.s.1.1.3.3.i.p.s.s.s.s.s.s.s",
".s.s.s.s.s.d.oXxXtXcXvXvXcXpXpXdXaXv.o.v.f.s.s.s.s.s.s.s.s.s.s.s.s.s.s.s.s.s.s.s.s.s.s.s.s.s.s.s.s.d.i =XtXvXcXG |.d.s.s.s.s.s.s",
".s.s.s.s.s.s.s [.r Q.|X$ ~.=.y 8X8XAX+.m.R.1.f.s.s.s.s.s.s.s.s.s.s.s.s.s.s.s.s.s.s.s.s.s.s.s.s.s.s.s.d., _ %.|XqX2.b.s.s.s.s.s.s",
".s.s.s.s.s.s.f.aX% V : ^XA.' sXx.) @ l.8.0Xn.1.d.s.s.s.s.s.s.s.s.s.s.s.s.s.s.s.s.s.s.s.s.s.s.s.s.s.s.d.x.DXS r (.R.P.s.s.s.s.s.s",
".s.s.s.s.s.s.d.p ..0 k.7 #Xz.I.K |X,.Q eX9.].+.f.s.s.s.s.d.k.c.x.l.f.s.s.s.s.s.s.s.f.k.x.x.k.d.s.s.s.s.kX. ~ l.8.).P.s.s.s.s.s.s",
".s.s.s.s.s.s.d.s 4.n k.7 #Xi.b.h.. GX$ rX9.D.X.f.s.s.s.f.p ] 4 3 b.>.f.s.s.s.s.d.h.: s , i ].s.f.s.s.s.kX  Q l.8.).P.s.s.s.s.s.s",
".s.s.s.s.s.s.s.f.gX: r.7 #Xi.b.h.  ZX@ r.| 0 Y.k.s.s.s.s i K Q.4X6Xe.f.d.s.s.s.s.-XuXg D.n B c.h.s.s.s.kX  Q l.8.).P.s.s.s.s.s.s",
".s.s.s.s.s.s.s.f.JX6 r.7 #Xz.I.K {.0.9 :X9X2.,.f.s.d.iXyX1 D.^ ) RX* =.f.f.s.K 3X- C.y 8 TXDXM >.l.s.s.kX  Q l.8.).P.s.s.s.s.s.s",
".s.s.s.s.s.s.s.f.zX< r.7 #.}.; b.r.W /XXX,.,.k.s.s.k.iX5.jXkX4.;.0.|XB m.s.g } C / Q = gX,.8.H ).,.d.d.kX  Q l.8.).P.s.s.s.s.s.s",
".s.s.s.s.s.s.s.f.zX< r.8 # K.TXCXj.8XA N ,.p.d.s.s.d pXk :.M.,..X=.9Xk.].>.cXp.M.j %Xe } 0.9 lX* p.d.d.kX  Q l.8.`.P.s.s.s.s.s.s",
".s.s.s.s.s.s.s.f.zX< r.8 #X7.#.j / /X; 2.s.s.s.s.k Y 0.W.HX&XrXo.~.EX+ F |.c s S VX& = ..~.8 lX* i.d.d.kX  Q l.8.(.K.s.s.s.s.s.s",
".s.s.s.s.s.s.s.f.zX< r.8 #.(.*Xk l ^ h.(.K.f.s.s.l mX8.L / w 5 q G B B.T.o.h.> n &.} 5X5.m.8 lX- i.d.d.k.} T l.8 F |.d.s.s.s.s.s",
".s.s.s.s.s.s.s.f.zX< r.7 $Xn MXC.C ^.CX5 f.d.d.s.l mXB.W r %.S.DXz 4 2 i.1.d.k.s ; q.~XBX>.9 lX- i.d.d.hXy.M z.8 + g.f.s.s.s.s.s",
".s.s.s.s.s.s.s.f.zX< r.7 $Xl.!Xv T.8 tX0 A...h.d.k ' 5.Q :.# {.f.d.h.p.-.i.d.3Xf.~.Q O - F.9 lX- a.f.d.f dXM x ( 5 n.f.s.s.s.s.s",
".s.s.s.s.s.s.s.f.cX< r.7XFXi.! {.&.{ l ^ #X..;.f.h.O.TX@ rXh.*.-.h.d UXc.:.zXx.~.CXw./ { Z.9 lX= i.s.d.f fXN x ( 5 n.f.s.s.s.s.s",
".s.s.s.s.s.s.s.k.!Xg r x.HX2.!.d v SX+ e.6 w.].>.h.d c.4.7 /XF.&Xn.% F U.s.b.SXq x.GXg.u.^ / l.q.Y >.i.h nXC x.6 9 M.h.s.s.s.s.s",
".s.s.s.s.s.d.1 u.Y % : : eXZ ; m.f mX:.|.G.H.Z.` {.h.3 _ % ^ rXh.~X& `.d.h.lX3 R r :Xq 5 `XD zX+ N s.s.l.[ V : k.^Xo m.s.s.s.s.s",
".s.s.s.s.s.d., 3.r OXMXMXM.BXy b.d.f 1.Y.% ` LX# '.d.s MX  ZX,.nXCX2 [.s.s.d.+XrXBX7 NXl.>X2 6 +X3.h.d.hX4 8X7XB.tXd b.s.d.s.s.s",
".s.s.s.s.s.s.s.p.1.,.,.,.>.1.i.p.s.s.p.1.1.1.1.2.p.s.s.p.i.1.: |.;.i.s.s.s.s.s.i.>.,.,.i.s.i.,.,.3.s.s.s.3.,.>.,.1.i.p.s.s.s.s.s",
".s.s.s.s.s.s.s.s.s.s.s.s.s.s.s.s.s.s.s.s.s.s.s.s.s.s.s.s.s.s.s.s.s.s.s.s.s.s.s.s.s.s.s.s.s.s.s.s.s.s.s.s.s.s.s.s.s.s.s.s.s.s.s.s",
".s.s.s.s.s.s.s.s.s.s.s.s.s.s.s.s.s.s.s.s.s.s.s.s.s.s.s.s.s.s.s.s.s.s.s.s.s.s.s.s.s.s.s.s.s.s.s.s.s.s.s.s.s.s.s.s.s.s.s.s.s.s.s.s",
".s.s.s.s.s.s.s.s.s.s.s.s.s.s.s.s.s.s.s.s.s.s.s.s.s.s.s.s.s.s.s.s.s.s.s.s.s.s.s.s.s.s.s.s.s.s.s.s.s.s.s.s.s.s.s.s.s.s.s.s.s.s.s.s",
".s.s.s y.A X X X X X X X X X X X X X X X X X X X X X X X X X X X X X X X X X X X X X X X X X X X X X X X X X X X X X E.s.s.s.s.s",
".s.s y I.e.e.e.e.e.e.e.e.e.e.e.e.e.e.e.e.e.e.e.e.e.e.e.e.e.e.e.e.e.e.e.e.e.e.e.e.e.e.e.e.e.e.e.e.e.e.e.e.e.e.e.e.e.e.U E.s.s.s.s",
".s.s !.e.e.e.e.e.e.e.e.e.e.e.e.e.e.e.e.e.e.e.e.e.e.e.e.e.w J J J J W.e.e.e.e.e.e.e.e.e.e.e.e.e.e.e.e.e.e.e.e.e.e.e.e.e.U 7.s.s.s",
".s.s I.e.e.e.e.e.e.e.e.e.e.e.e.e.e.e.e.e.e.e.e.e.e.e.e.e.<         <.e.e.e.e.e.e.e.e.e.e.e.e.e.e.e.e.e.e.e.e.e.e.e.e.e.e E.s.s.s",
".s.s I.e.e.e.e.e.e.e.e.e.e.e.e.e.e.e.e.e.e.e.e.e.e.e.e.e.<         <.e.e.e.e.e.e.e.e.e.e.e.e.e.e.e.e.e.e.e.e.e.e.e.e.e.e.$Xm H.s",
".s.s I.e.e.e.e.e.e.e.e.e.e.e.e.e.e.e.e.e.e.e.e.e.e.e.e.e.<         <.e.e.e.e.e.e.e.e.e.e.e.e.e.e.e.e.e.e.e.e.e.e.e.e.e.e EXm.5.s",
".s.s I.e.e.e.e.e.e.e.e.e.e.e.e.e.e.e.e.e.e.e.e.e.e.e.e.e.<         <.e.e.e.e.e.e.e.e.e.e.e.e.e.e.e.e.e.e.e.e.e.e.e.e.e.e EXmXm.s",
".s.s I.e.e.e.e.e.e.e.e.e.e.e.e.e.e.e.e.e.e.e.e.e.e.e.e.e.<         <.e.e.e.e.e.e.e.e.e.e.e.e.e.e.e.e.e.e.e.e.e.e.e.e.e.eXm.$ E.s",
".s.s I.e.e.e.e.e.e.e.e.e.e.e.e.e.e.e.e.e.e.e.e.e.e.e.e.e.e *       W.e.e.e.e.e.e.e.e.e.e.e.e.e.e.e.e.e.e.e.e.e.e.e.e.e.eXm M.s.s",
".s.s I.e.e.e.e.e.e.e.e.e.e.e.e.e.e.e.e.e.e.e.e.e.e.e.e.e.e.w o   J.e.e.e.e.e.e.e.e.e.e.e.e.e.e.e.e.e.e.e.e.e.e.e.e.e.e.e E.s.s.s",
".s.s X.e.e.e.e.e.e.e.e.e.e.e.e.e.e.e.e.e.e.e.e.e.e.e.e.e.e.e W *.<.e.e.e.e.e.e.e.e.e.e.e.e.e.e.e.e.e.e.e.e.e.e.e.e.e.e P.N.s.s.s",
".s.s.@ X.e.e.e.e.e.e.e.e.e.e.e.e.e.e.e.e.e.e.e.e.e.e.e.e.e.e.e.w.e.e.e.e.e.e.e.e.e.e.e.e.e.e.e.e.e.e.e.e.e.e.e.e.e.e P 7.s.s.s.s",
".s.s.s.@ 7XsXsXsXsXsXsXsXsXsXsXsXsXsXsXsXsXsXsXsXsXsXsXsXsXsXsXsXsXsXsXsXsXsXsXsXsXsXsXsXsXsXsXsXsXsXsXsXsXsXsXsXsXs.N.s.s.s.s.s",
".s.s.s.s.s.s.s.s.s.s.s.s.s.s.s.s.s.s.s.s.s.s.s.s.s.s.s.s.s.s.s.s.s.s.s.s.s.s.s.s.s.s.s.s.s.s.s.s.s.s.s.s.s.s.s.s.s.s.s.s.s.s.s.s",
".s.s.s.s.s.s.s.s.s.s.s.s.s.s.s.s.s.s.s.s.s.s.s.s.s.s.s.s.s.s.s.s.s.s.s.s.s.s.s.s.s.s.s.s.s.s.s.s.s.s.s.s.s.s.s.s.s.s.s.s.s.s.s.s",
".s.s.s.s.s.s.s.s.s.s.s.s.s.s.s.s.s.s.s.s.s.s.s.s.s.s.s.s.s.s.s.s.s.s.s.s.s.s.s.s.s.s.s.s.s.s.s.s.s.s.s.s.s.s.s.s.s.s.s.s.s.s.s.s",
".s.s.s.s.s.s.s.s.s.s.s.s.s.s.s.s.s.s.s.s.s.s.s.s.s.s.s.s.s.s.s.s.s.s.s.s.s.s.s.s.s.s.s.s.s.s.s.s.s.s.s.s.s.s.s.s.s.s.s.s.s.s.s.s",
".s.s.s.s.s.s.s.s.s.s.s.s.s.s.s.s.s.s.s.s.s.s.s.s.s.s.s.s.s.s n ;.s.s.s.s.s.s c c c.o.s nXb.>.s.s.s.s.s.s.s.s.s.s.s.s.s.s.s.s.s.s",
".s.s.s.s.s.s.s.s.s.s.s.s.s.s.s.s.s.s.s.s.s.s.s.s.s.s.s.s.sX2XZXB.F.s.s.s.s.sXX.V h.i p j.=X-.,.s.s.s.s.s.s.s.s.s.s.s.s.s.s.s.s.s",
".s.s.s.s.s.s.s.s.s.s.s.s.s.s.s.s.s.s.s.s.s.s.s.s.s.s.s.s.1.4 B F h.>.s.s.s._ 0 >.>.s )XSXcXO 2.s.s.s.s.s.s.s.s.s.s.s.s.s.s.s.s.s",
".s.s.s.s.s.s.s.s.s.s.s.s.s.s.s.s.s.s.s.s.s.s.s.s.s.s.s.s [Xw C.=X$ n.s.s.s A D.L.0.+X1XSXc.GXz.s.s.s.s.s.s.s.s.s.s.s.s.s.s.s.s.s",
".s.s.s.s.s.s.s.s.s.s.s.s.s.s.s.s.s.s.s.s.s.s.s.s.s.s.s.s.O h C.=X0 m.s.s.s.s.,XtXk vXZXSXc.EXb.s.s.s.s.s.s.s.s.s.s.s.s.s.s.s.s.s",
".s.s.s.s.s.s.s.s.s.s.s.s.s.s.s.s.s.s.s.s.s.s.s.s.s.s.s.s.p q.^ K.M.p.* O.,.t.F.,X1.iXoXFXr h [.s.s.s.s.s.s.s.s.s.s.s.s.s.s.s.s.s",
".s.s.s.s.s.s.s.s.s.s.s.s.s.s.s.s.s.s.s.s.s.s.s.s.s.s.s.s.s [ A F b.s.'XV.>.u.m.R m.s.iX# ZXf.s.s.s.s.s.s.s.s.s.s.s.s.s.s.s.s.s.s",
".s.s.s.s.s.s.s.s.s.s.s.s.s.s.s.s.s.s.s.s.s.s.s.s.s.s.s.s.s.s.s.p.s.s.s.p.s.s.i.s.s.s.s.s.p.s.s.s.s.s.s.s.s.s.s.s.s.s.s.s.s.s.s.s",
".s.s.s.s.s.s.s.s.s.s.s.s.s.s.s.s.s.s.s.s.s.s.s.s.s.s.s.s.s.s.s.s.s.s.s.s.s.s.s.s.s.s.s.s.s.s.s.s.s.s.s.s.s.s.s.s.s.s.s.s.s.s.s.s",
".s.s.s.s.s.s.s.s.s.s.s.s.s.s.s.s.s.s.s.s.s.s.s.s.s.s.s.s.s.s.s.s.s.s.s.s.s.s.s.s.s.s.s.s.s.s.s.s.s.s.s.s.s.s.s.s.s.s.s.s.s.s.s.s",
".s.s.s.s.s.s.s.s.s.s.s.s.s.s.s.s.s.s.s.s.s.s.s.s.s.s.s.s.s.s.s.s.s.s.s.s.s.s.s.s.s.s.s.s.s.s.s.s.s.s.s.s.s.s.s.s.s.s.s.s.s.s.s.s",
".s.s.s.s.s.s.s.s.s.s.s.s.s.s.s.s.s.s.s.s.s.s.s.s.s.s.s.s.s.s.s.s.s.s.s.s.s.s.s.s.s.s.s.s.s.s.s.s.s.s.s.s.s.s.s.s.s.s.s.s.s.s.s.s",
".s.s.s.s.s.s.s.s.s.s.s.s.s.s.s.s.s.s.s.s.s.s.s.s.s.s.s.s.s.s.s.s.s.s.s.s.s.s.s.s.s.s.s.s.s.s.s.s.s.s.s.s.s.s.s.s.s.s.s.s.s.s.s.s",
".s.s.s.s.s.s.s.s.s.s.s.s.s.s.s.s.s.s.s.s.s.s.s.s.s.s.s.s.s.s.s.s.s.s.s.s.s.s.s.s.s.s.s.s.s.s.s.s.s.s.s.s.s.s.s.s.s.s.s.s.s.s.s.s",
".s.s.s.s.s.s.s.s.s.s.s.s.s.s.s.s.s.s.s.s.s.s.s.s.s.s.s.s.s.s.s.s.s.s.s.s.s.s.s.s.s.s.s.s.s.s.s.s.s.s.s.s.s.s.s.s.s.s.s.s.s.s.s.s",
".s.s.s.s.s.s.s.s.s.s.s.s.s.s.s.s.s.s.s.s.s.s.s.s.s.s.s.s.s.s.s.s.s.s.s.s.s.s.s.s.s.s.s.s.s.s.s.s.s.s.s.s.s.s.s.s.s.s.s.s.s.s.s.s",
".s.s.s.s.s.s.s.s.s.s.s.s.s.s.s.s.s.s.s.s.s.s.s.s.s.s.s.s.s.s.s.s.s.s.s.s.s.s.s.s.s.s.s.s.s.s.s.s.s.s.s.s.s.s.s.s.s.s.s.s.s.s.s.s",
".s.s.s.s.s.s.s.s.s.s.s.s.s.s.s.s.s.s.s.s.s.s.s.s.s.s.s.s.s.s.s.s.s.s.s.s.s.s.s.s.s.s.s.s.s.s.s.s.s.s.s.s.s.s.s.s.s.s.s.s.s.s.s.s"
};
