/* XPM */
static const char * IconHelp[] = {
/* width height ncolors chars_per_pixel */
"32 32 104 2",
/* colors */
"   c #132323",
" . c #959C9C",
" X c #182B2B",
" o c #AEB1B1",
" O c #1B3131",
" + c #677575",
" @ c #1E2A2A",
" # c #637171",
" $ c #233232",
" % c #213030",
" & c #A3A9A9",
" * c #7C8686",
" = c #1D2C2C",
" - c #152424",
" ; c #132222",
" : c #112020",
" > c #293E3E",
" , c #667070",
" < c #162828",
" 1 c #142626",
" 2 c #425353",
" 3 c #192E2E",
" 4 c #657272",
" 5 c #D8D9D9",
" 6 c #AFB4B4",
" 7 c #5D6A6A",
" 8 c #596666",
" 9 c #485252",
" 0 c #212F2F",
" q c #243535",
" w c #111F1F",
" e c #0F1D1D",
" r c #C7CBCB",
" t c #182929",
" y c #3D4A4A",
" u c None",
" i c #162727",
" p c #142525",
" a c #1F3333",
" s c #677373",
" d c #192D2D",
" f c #172B2B",
" g c #ADB1B1",
" h c #1A3131",
" j c #4B5757",
" k c #111E1E",
" l c #203030",
" z c #9CA3A3",
" x c #4E5D5D",
" c c #142424",
" v c #BDC0C0",
" b c #122222",
" n c #949B9B",
" m c #2C4242",
" M c #3E4D4D",
" N c #172A2A",
" B c #848B8B",
" V c #6A7878",
" C c #1A3030",
" Z c #576262",
" A c #1F2B2B",
" S c #D7D9D9",
" D c #B0B6B6",
" F c #4B5656",
" G c #243333",
" H c #A2A8A8",
" J c #1E2D2D",
" K c #253737",
" L c #142323",
" P c #122121",
" I c #283D3D",
" U c #656F6F",
" Y c #172929",
" T c #152727",
" R c #1C3131",
" E c #1A2F2F",
" W c #555F5F",
" Q c #D7D8D8",
" ! c #B0B5B5",
" ~ c #7F8888",
" ^ c #223030",
" / c #A2A7A7",
" ( c #293A3A",
" ) c #253636",
" _ c #CED2D2",
" ` c #122020",
" ' c #101E1E",
" ] c #929797",
" [ c #2E4242",
" { c #4F5F5F",
" } c #656E6E",
" | c #3E4B4B",
".  c #152626",
".. c #132424",
".X c #B8BCBC",
".o c #596262",
".O c #182C2C",
".+ c #AEB2B2",
".@ c #586464",
".# c #1E2B2B",
".$ c #757D7D",
".% c #233333",
".& c #213131",
".* c #101D1D",
/* pixels */
" u u u u u u u u u u u u ] A.*.* ' : 0 n u u u u u u u u u u u u",
" u u u u u u u u u u ] @.* w ; c ; ` ' w G z u u u u u u u u u u",
" u u u u u u u u ].# k P c < N I [ d Y   ' - 7 _ u u u u u u u u",
" u u u u u u u ' :  .  N.O.O X 3 C E m 3 < b w J 4 r u u u u u u",
" u u u u u u u U 1 Y.O.O.O f K x { 2 O O C d < b w =.X u u u u u",
" u u u u u u u 5 N N N N ) . u u u u 5 V > h C R   l 6 u u u u u",
" u u u u u u u u s < q . u u u u u u u u u D O.O w L.+ u u u u u",
" u u u u u u u u 5 n u u u u u u u u u u u u 3 p.* `.+ u u u u u",
" u u u u u u u u u u u u u u u u u u u u u u Y `.* k o u u u u u",
" u u u u u u u u u u u u u u u u u u u u u u p ; w e g u u u u u",
" u u u u u u u u u u u u u u u u u u u u v , p p ;.* g u u u u u",
" u u u u u u u u u u u u u u u u u v , $ 1 T < < p w g u u u u u",
" u u u u u u u u u u u u u u v , $ p.  i < < T p   ` g u u u u u",
" u u u u u u u u u u u u.$ $ p.  i < < T p   b ` P B Q u u u u u",
" u u u u u u u u u u u u j.  < < T p   P ` P ; y v u u u u u u u",
" u u u u u u u u u u u u F p T   P : P : P } Q u u u u u u u u u",
" u u u u u u u u u u u u /   1 ; ` t ( * u u u u u u u u u u u u",
" u u u u u u u u u u u u u H T   ` : W u u u u u u u u u u u u u",
" u u u u u u u u u u u u u u &.. p + u u u u u u u u u u u u u u",
" u u u u u u u u u u u u u u u / Z u u u u u u u u u u u u u u u",
" u u u u u u u u u u u u u u u u u u u u u u u u u u u u u u u u",
" u u u u u u u u u u u u u u u u u u u u u u u u u u u u u u u u",
" u u u u u u u u u u u u u u u u u u u u u u u u u u u u u u u u",
" u u u u u u u u u u u u u u u u u u u u u u u u u u u u u u u u",
" u u u u u u u u u u u u u u u u u u u u u u u u u u u u u u u u",
" u u u u u u u u u u u u u u.o ] Q u u u u u u u u u u u u u u u",
" u u u u u u u u u u u u u u 9 ' Z u u u u u u u u u u u u u u u",
" u u u u u u u u u u u u ! ! | ` p 8 u u u u u u u u u u u u u u",
" u u u u u u u u u u u u M p w ' w a.@ u u u u u u u u u u u u u",
" u u u u u u u u u u u u Q % P.*.* :.& ~ u u u u u u u u u u u u",
" u u u u u u u u u u u u u S.% ` w c Z u u u u u u u u u u u u u",
" u u u u u u u u u u u u u u 5 ^ c # u u u u u u u u u u u u u u"
};
