/* XPM */
static const char * IconHelpBuiltInFuncs[] = {
/* width height ncolors chars_per_pixel */
"32 32 150 2",
/* colors */
"   c #B8AEAE",
" . c #183514",
" X c #3C4848",
" o c #173113",
" O c #132323",
" + c #BCBFBF",
" @ c #152D11",
" # c #142B10",
" $ c #341212",
" % c #687373",
" & c #182B2B",
" * c #AEB1B1",
" = c #DEE0E0",
" - c #4B5C49",
" ; c #604A4A",
" : c #451F1F",
" > c #2D3C3C",
" , c #3B1515",
" < c #4A5555",
" 1 c #233232",
" 2 c #213030",
" 3 c #5B4848",
" 4 c #2C1010",
" 5 c #3D5252",
" 6 c #747E7E",
" 7 c #727C7C",
" 8 c #381515",
" 9 c #132222",
" 0 c #112020",
" q c #D9D7D7",
" w c #270E0E",
" e c #B9B1B1",
" r c #162828",
" t c #142626",
" y c #DADBDB",
" u c #192E2E",
" i c #D8D9D9",
" p c #AFB4B4",
" a c #321515",
" s c #5B4747",
" d c #381414",
" f c #111F1F",
" g c #687171",
" h c #290F0F",
" j c #3D4A4A",
" k c None",
" l c #B7AEAE",
" z c #3B4848",
" x c #142525",
" c c #233737",
" v c #938484",
" b c #152D12",
" n c #132B10",
" m c #331212",
" M c #132910",
" N c #9E9292",
" B c #1B2F2F",
" V c #11250E",
" C c #192D2D",
" Z c #AFB3B3",
" A c #ADB1B1",
" S c #766464",
" D c #868E8E",
" F c #A1A5A5",
" G c #806767",
" H c #778775",
" J c #3A1515",
" K c #B0A3A3",
" L c #290E0E",
" P c #361E1E",
" I c #B9AFAF",
" U c #887575",
" Y c #3B4747",
" T c #142424",
" R c #BDC0C0",
" E c #122222",
" W c #152E11",
" Q c #351313",
" ! c #142A10",
" ~ c #13280F",
" ^ c #677272",
" / c #172A2A",
" ( c #455757",
" ) c #4A2424",
" _ c #6A7878",
" ` c #301111",
" ' c #D9DBDB",
" ] c #B0B6B6",
" [ c #3C1616",
" { c #BDC1BC",
" } c #495454",
" | c #223131",
".  c #5A4747",
".. c #2B0F0F",
".X c #B0B7AF",
".o c #AEB3AD",
".O c #4C5A5A",
".+ c #3B4646",
".@ c #391616",
".# c #B5AAAA",
".$ c #371414",
".% c #122121",
".& c #949A9A",
".* c #172929",
".= c #152727",
".- c #BEC3C3",
".; c #4F644C",
".: c #203535",
".> c #321212",
"., c #1A2F2F",
".< c #D7D8D8",
".1 c #B0B5B5",
".2 c #421B1B",
".3 c #AEB3B3",
".4 c #3F543C",
".5 c #5E6B6B",
".6 c #6B4D4D",
".7 c #495353",
".8 c #5C4848",
".9 c #A2A7A7",
".0 c #2D1010",
".q c #798282",
".w c #5B3D3D",
".e c #4C5959",
".r c #706262",
".t c #391515",
".y c #101E1E",
".u c #DAD7D7",
".i c #280E0E",
".p c #3E4B4B",
".a c #B8AFAF",
".s c #172828",
".d c #3C4949",
".f c #152626",
".g c #C3BDBD",
".h c #BABEBE",
".j c #152E12",
".k c #142C11",
".l c #341313",
".z c #12260F",
".x c #687474",
".c c #AEB2B2",
".v c #311313",
".b c #889393",
".n c #3B1616",
".m c #391414",
".M c #594747",
".N c #2A0F0F",
".B c #1B2B2B",
".V c #192929",
/* pixels */
" k k v w L L h h h.8 e k k k k k k k k k k k k k k k k k k k k k",
" k k.m.i J.n [ , , : ` U k k k k k k k k k k k k k k k k k k k k",
" k k.m h k k k k k k ).v.g k k k k k k k k k k k k k k k k k k k",
" k k J.N k k k k k k K d.8 k k k k k k k k F.7 } <.< k k k k k k",
" k k.m h k k k k k k k $.M k k k k k k +.+.f c 5 B.V g ' k k k k",
" k k J 4 k k k k k k S 4.r k k k k +.+.f &.x p.1 ] ( u.s.q = k k",
" k k.t.N s s.8.8.M. .0 P q k k k Y t / % i k k k k k.- _ u.B 6 y",
" k k J h.$ 8.@.$.l.> `.# k k k k ^ ^ i k k k k k k k k k i.b r.h",
" k k J..  .a.a I  .6.2 a k k k k k k k k k k k k k k k k k ] x.c",
" k k.m L k k k k k k G Q N k k k k k k k k k k k k k k k k.1.%.c",
" k k J h k k k k k k k d 3 k k k k k k k k k k k k k k k k p 0 A",
" k k.m h k k k k k k k.l.  k k k k k k k k k k k k k k k k Z E A",
" k k.m L k k k k k k S 4.r k k k k k k k k k k k k k k k.3.p x A",
" k k.m h. . . .M.M.M.0 P q k k k k k k k k k k k k.3.e.= x 9 X.<",
" k k.w.0 $ m m $.l.> ; q k k k k k k k k k k.3.e.=.f O O j R k k",
" k k.u           l k k k k k k k k k k k k.f x | T T.d R k k k k",
" k k k k k k k k k k k k k k k k k k k k k T < k C < k k k k k k",
" k k k.o.o.o.o.o.o.o.o { k k k k k k k k k 2 z *.: 7 k k k k k k",
" k k H ~ M ! ! ! ! ! ! - k k k k k k k k k i 1 C.5 k k k k k k k",
" k k.;.k.4.;.;.;.;.;.; H k k k k k k k k k k k k k k k k k k k k",
" k k.; W.o k k k k k k k k k k k k k k k k k k k k k k k k k k k",
" k k.; n.o k k k k k k k k k k k k k k k k k k k k k k k k k k k",
" k k.; @.o k k k k k k k k k k k k k k k k k k k k k k k k k k k",
" k k.;.j.o k k k k k k k k k k k k k k k k k k k k k k k k k k k",
" k k.;.k.z V V V.o k k k k k k k k k k k k k k k k k k k k k k k",
" k k.;.j o . . ..X k k k k k k k k k k k k.< k k k k k k k k k k",
" k k.;.k.o k k k k k k k k k k k k k k k k D f f.& k k k k k k k",
" k k.;.k.o k k k k k k k k k k k k k k k k.* f.O & R k k k k k k",
" k k.; b.o k k k k k k k k k k k k k k k k O.y k., Z k k k k k k",
" k k.; #.o k k k k k k k k k k k k k k k k.9 9.= > = k k k k k k",
" k k.;.k.o k k k k k k k k k k k k k k k k k R.1 i k k k k k k k",
" k k.;.k.o k k k k k k k k k k k k k k k k k k k k k k k k k k k"
};
