/* XPM */
static const char * IconTransRotateX[] = {
/* width height ncolors chars_per_pixel */
"32 32 245 2",
/* colors */
"   c #6359AA",
" . c #5A9C9A",
" X c #A56960",
" o c #AC230E",
" O c #38BAB7",
" + c #187C7A",
" @ c #2613A3",
" # c #13605E",
" $ c #282487",
" % c #631408",
" & c #8B1C0B",
" * c #669695",
" = c #80190A",
" - c #1D0C90",
" ; c #1C8177",
" : c #1D918F",
" > c #146462",
" , c #9E200D",
" < c #172E62",
" 1 c #230EAD",
" 2 c #6A1508",
" 3 c #167371",
" 4 c #2E2C12",
" 5 c #311DB4",
" 6 c #1D9592",
" 7 c #2A918B",
" 8 c #D8DEDD",
" 9 c #D7DCDC",
" 0 c #A6A0CD",
" q c #180A7A",
" w c #901D0C",
" e c #100751",
" r c #5C1207",
" t c #1E9996",
" y c #5FAEAB",
" u c #130861",
" i c #21A2A6",
" p c #BCCBCB",
" a c #1B8C89",
" s c #9690BD",
" d c #110755",
" f c #56A4A2",
" g c #22109E",
" h c #B0CAC9",
" j c #1F9D9A",
" k c #3C7978",
" l c #932E1F",
" z c #811A0A",
" x c #15574B",
" c c #22AEAA",
" v c #140865",
" b c #1B3E86",
" n c #1C908D",
" m c #230FAC",
" M c #E0D8D7",
" N c #136160",
" B c #AF4737",
" V c #120759",
" C c #941E0C",
" Z c #167270",
" A c #180976",
" S c #170975",
" D c #39C1BD",
" F c #6E220E",
" G c #150869",
" H c #4B8483",
" J c #1D9491",
" K c #ADBFBF",
" L c #B7A19E",
" P c #13075D",
" I c #21A5A2",
" U c #177674",
" Y c #AEABC0",
" T c #51A6A3",
" R c #1B8785",
" E c #9BB8B7",
" W c #8BB1C5",
" Q c #50449C",
" ! c #531007",
" ~ c #257D7B",
" ^ c #521006",
" / c #751B0E",
" ( c #24ABA8",
" ) c #93B0AF",
" _ c #2F3918",
" ` c #D8D7DF",
" ' c #1B8B88",
" ] c #651408",
" [ c None",
" { c #1F9C99",
" } c #25AFAC",
" | c #754F3F",
".  c #1E491E",
".. c #1E471E",
".X c #35B8B5",
".o c #A0200D",
".O c #220EAA",
".+ c #177370",
".@ c #B12B17",
".# c #45A9A7",
".$ c #153315",
".% c #BC6153",
".& c #AEC0BF",
".* c #1D9390",
".= c #230EAE",
".- c #1B0B85",
".; c #21A4A1",
".: c #528D8C",
".> c #9590B7",
"., c #2730A1",
".< c #541107",
".1 c #531106",
".2 c #2C19B0",
".3 c #16096C",
".4 c #19267C",
".5 c #1E9794",
".6 c #26197F",
".7 c #7C190A",
".8 c #146866",
".9 c #D5B2AD",
".0 c #D8DEDE",
".q c #171D70",
".w c #1A6683",
".e c #190A7C",
".r c #1B8A87",
".t c #180A7B",
".y c #291A8F",
".u c #4838B4",
".i c #45A6A3",
".p c #21AAA7",
".a c #6E1609",
".s c #1C8E8B",
".d c #3E5A43",
".f c #184F38",
".g c #120757",
".h c #9690BE",
".j c #961E0C",
".k c #2FB1AE",
".l c #3C7B79",
".z c #1E8679",
".x c #801A0A",
".c c #22AEAB",
".v c #19817E",
".b c #182777",
".n c #150867",
".m c #A9220E",
".M c #25A7A4",
".N c #32B7B4",
".B c #931E0C",
".V c #7A2911",
".C c #601308",
".Z c #1A8582",
".A c #B4948F",
".S c #6D75B3",
".D c #4F4499",
".F c #A3C0C0",
".G c #721709",
".H c #187876",
".J c #9790C5",
".K c #20A5A2",
".L c #1A5036",
".P c #1B8986",
".I c #100651",
".U c #1F0D98",
".Y c #AF2510",
".T c #156B69",
".R c #521007",
".E c #511006",
".W c #21A9A6",
".Q c #1A157F",
".! c #68A1A0",
".~ c #1C8D8A",
".^ c #A1B7B7",
"./ c #D4BEBB",
".( c #8C1C0B",
".) c #166F6D",
"._ c #591107",
".` c #22ADAA",
".' c #1D0C8F",
".] c #BAA29E",
".[ c #121059",
".{ c #3B2BA9",
".} c #21A29F",
".| c #1FA09D",
"X  c #4E664E",
"X. c #4D644D",
"XX c #2F1BB1",
"Xo c #2F50AA",
"XO c #902D1F",
"X+ c #16452E",
"X@ c #198280",
"X# c #1E0C93",
"X$ c #98C9C8",
"X% c #146664",
"X& c #6E2C1B",
"X* c #BF3F2C",
"X= c #180A79",
"X- c #154A65",
"X; c #16096D",
"X: c #7B190A",
"X> c #1C0B8A",
"X, c #21A8A5",
"X< c #984F44",
"X1 c #701609",
"X2 c #68170B",
"X3 c #BDCBCB",
"X4 c #9690BC",
"X5 c #190A7D",
"X6 c #100753",
"X7 c #4D8D8B",
"X8 c #1E9B98",
"X9 c #170971",
"X0 c #125651",
"Xq c #831A0B",
"Xw c #22ACA9",
"Xe c #1D441D",
"Xr c #BDCFCE",
"Xt c #22615A",
"Xy c #25A5A2",
"Xu c #1C8E8C",
"Xi c #1A0A81",
"Xp c #1F9F9C",
"Xa c #170974",
"Xs c #1A8380",
"Xd c #22B0AC",
"Xf c #4EB6B3",
"Xg c #1F9892",
"Xh c #150868",
"Xj c #1C928F",
"Xk c #B0ACCB",
"Xl c #13075C",
"Xz c #9D1F0D",
"Xx c #12075B",
"Xc c #20A3A0",
"Xv c #5F1308",
"Xb c #4C8886",
"Xn c #15086B",
"Xm c #1D9693",
"XM c #BED1D5",
"XN c #21A7A4",
"XB c #D8D7DE",
"XV c #991F0C",
"XC c #BFBBD6",
"XZ c #23706E",
"XA c #6F3014",
/* pixels */
" [ [ [ [ [ [ [ [ [ [ [ [ [ [ [ [ [ [ [ [ [ [ [ [ [ [ [ [ [ [ [ [",
" [ [ [ [ [ [ [ [ [ [ [ [ [ [ [ [ [ [ [ [ [ [ [ [ [ [ [ [ [ [ [ [",
" [ [ [ [ [ [ [ [ [ [ [ [ [ [ [ [ [ [ [XBXk.>.DX4XB [ [ [ [ [ [ [",
" [ [ [ [ [ [ [ [ [ [ [ [ 9 E.iXN.`XfXf $.e.e.e.e s [ [ [ [ [ [ [",
" [ [ [ [ [ [ [ [ [ [ [ p ~.KXd.`X,X,.p i b.e.e.e.D [ [ [ [ [ [ [",
" [ [ [ [ [ [ [ [ [ [.^.vX, c.K a U 3X@ 6.K.Q.e.e Q [ [ [ [ [ [ [",
" [ [ [ [ [ [ [ [ [ 9.).} }.| ~ *.q.w N.8 b.e.e q Q [ [ [ [ [ [ [",
" [ [ [ [ [ [ [ [ [.: : D I . 8  .e.e.4.e.eX9X; q Q [ [ [ [ [ [ [",
" [ [ [ [ [ [ [ [X3.+.M D 7 [ [ [  Xi S GX6 VXhX=.h [ [ [ [ [ [ [",
" [ [ [ [ [ [ [ [.l.Z O.; E [ [ [ [XC.yX9Xl.I u AXk [ [ [ [ [ [ [",
" [ [ [ [ [ [ [ [ #.r.XXu 8 [ [ [ [ [ [.J.t P.[.wXk [ [ [ [ [ [ [",
" [ [ [ [ [ [ [ [.8 :.M T [./ X &XV B.9 [XMX- Z 6X$ [ [ [ [ [ [ [",
" [ [ [ [ [ [ [.& Z.5XpXM L 2Xq.B.o.m o.% [XZ.T.~Xf [ [ [ [ [ [ [",
" [ [ [ [ [ [ [ K Z J j [.1.a z wXz.@.Y o.9X7 > 'Xf [ [ [ [ [ [ [",
"... . . . . . .L.).*Xg _ ! 2.7 &.jX*.@.mXA. . . . . . . . . . . ",
"XeXeXeXeXeXeXe x 3 J.z _.E.CX1 z.(.j ,.o.VXeXeXeXeXeXeXeXeXeXeXe",
".$.$.$.$.$.$.$ x.).s ; 4 r ! %.G = & w C F.$.$.$.$.$.$.$.$.$.$.$",
"X X.X.X.X.X.X.Xt.T n 7 |.a.1._ %X1X:.xXqX&.dX+.f.fX.X.X.X.X.X.X.",
" [ [ [ [ [ [ [XbX%.r.# MXOX2.1 ^Xv ].a.a.] ) + t.| [ [ [ [ [ [ [",
" [ [ [ [ [ [ [.! #XsX8.0 M l / r.E.R.< L [ k RXy.# [ [ [ [ [ [ [",
" [ [ [ [ [ [ [ hX0.HXm W [ [./X<X<.A [ [Xr.8.*.X T [ [ [ [ [ [ [",
" [ [ [ [ [ [ [ [ <.b.2 1.uXC [ [ [ [ [ [ *.Z.k (.! [ [ [ [ [ [ [",
" [ [ [ [ [ [ [ [.D v.'XX 1 1.S ` [ [ [ 8 U {.N.5.0 [ [ [ [ [ [ [",
" [ [ [ [ [ [ [ [.q P.e.U.2 1.=.O 0 [ [ . { } I y [ [ [ [ [ [ [ [",
" [ [ [ [ [ [ [ [ G dX9X> g 5 1.=.{.0 fXp.c.W.P 8 [ [ [ [ [ [ [ [",
" [ [ [ [ [ [ [ [Xn d vX5 - g 5 mXoXcXwXdXNXj.F [ [ [ [ [ [ [ [ [",
" [ [ [ [ [ [ [ [.3.I uXa.-X# @.,.W.pXNXp.~.F [ [ [ [ [ [ [ [ [ [",
" [ [ [ [ [ [ [ `.3 eXx.3X5X>.4.HX@Xs +XZ.^ [ [ [ [ [ [ [ [ [ [ [",
" [ [ [ [ [ [ [ [X; e.g.n.6 h hX7 H *X3 [ [ [ [ [ [ [ [ [ [ [ [ [",
" [ [ [ [ [ [ [ [ [ YXC [ [ [ [ [ [ [ [ [ [ [ [ [ [ [ [ [ [ [ [ [",
" [ [ [ [ [ [ [ [ [ [ [ [ [ [ [ [ [ [ [ [ [ [ [ [ [ [ [ [ [ [ [ [",
" [ [ [ [ [ [ [ [ [ [ [ [ [ [ [ [ [ [ [ [ [ [ [ [ [ [ [ [ [ [ [ ["
};
