/* XPM */
static const char * IconMenuPrimitives[] = {
/* width height ncolors chars_per_pixel */
"32 32 237 2",
/* colors */
"   c #005C5C",
" . c #006969",
" X c #3D9B9B",
" o c #009797",
" O c #D28C8C",
" + c #007676",
" @ c #4BA2A2",
" # c #BC0000",
" $ c #39A4A4",
" % c #000084",
" & c #008383",
" * c #000070",
" = c #006262",
" - c #009090",
" ; c #006F6F",
" : c #A743A7",
" > c #007C7C",
" , c #CA0000",
" < c #A33DA3",
" 1 c #005B5B",
" 2 c #008989",
" 3 c #9D339D",
" 4 c #B9D2D2",
" 5 c #A20000",
" 6 c #000076",
" 7 c #8E3D8E",
" 8 c #DAC1C1",
" 9 c #009696",
" 0 c #893D89",
" q c #873587",
" w c #007575",
" e c #823D82",
" r c #000079",
" t c #008282",
" y c #A9A9CC",
" u c #7A2D7A",
" i c #DFD6D6",
" p c #359935",
" a c #006161",
" s c #831383",
" d c #008F8F",
" f c #790D79",
" g c #2D872D",
" h c #0A9292",
" j c #007B7B",
" k c #000068",
" l c #B9C1CE",
" z c #C10000",
" x c #005A5A",
" c c #008888",
" v c #990000",
" b c #006767",
" n c #009595",
" m c #009300",
" M c #008F00",
" N c None",
" B c #106B10",
" V c #10106A",
" C c #000082",
" Z c #007700",
" A c #AA0000",
" S c #C03D3D",
" D c #DFD6DF",
" F c #006F00",
" G c #006D00",
" H c #DCD6DC",
" J c #00006E",
" K c #006500",
" L c #006100",
" P c #CDA9A9",
" I c #005B00",
" U c #000085",
" Y c #006D6D",
" T c #CF94A1",
" R c #94C3C3",
" E c #B9D2B9",
" W c #B9CEB9",
" Q c #B9CCB9",
" ! c #101070",
" ~ c #005959",
" ^ c #008787",
" / c #C8A2C8",
" ( c #137C7C",
" ) c #D6DCDC",
" _ c #000074",
" ` c #BA3D3D",
" ' c #DBA9A9",
" ] c #006666",
" [ c #000060",
" { c #C38CC3",
" } c #007373",
" | c #C08CC0",
".  c #529C9C",
".. c #9AC89A",
".X c #8FB4B7",
".o c #BD8CBD",
".O c #A894BC",
".+ c #A10000",
".@ c #008080",
".# c #005F5F",
".$ c #BF1010",
".% c #006C6C",
".& c #00007A",
".* c #A6BDB6",
".= c #007979",
".- c #A2C9C9",
".; c #A45AA4",
".: c #005858",
".> c #A35AA3",
"., c #AF0000",
".< c #00007D",
".1 c #B828B8",
".2 c #006565",
".3 c #3D9797",
".4 c #009393",
".5 c #10107C",
".6 c #925A92",
".7 c #870000",
".8 c #D25A5A",
".9 c #964A96",
".0 c #438989",
".q c #000080",
".w c #933E93",
".e c #52A652",
".r c #007F7F",
".t c #00006C",
".y c #AE3D3D",
".u c #A20EA2",
".i c #B9B9D2",
".p c #912891",
".a c #BD0000",
".s c #000083",
".d c #DBC1CF",
".f c #006B6B",
".g c #009999",
".h c #980098",
".j c #970097",
".k c #9E2D2D",
".l c #950095",
".z c #900890",
".x c #8B108B",
".c c #940094",
".v c #930093",
".b c #920092",
".n c #900090",
".m c #8F008F",
".M c #8E008E",
".N c #8C028C",
".B c #8D008D",
".V c #8C008C",
".C c #8B008B",
".Z c #8A008A",
".A c #890089",
".S c #880088",
".D c #860086",
".F c #000086",
".G c #771877",
".H c #005757",
".J c #830083",
".K c #008585",
".L c #810081",
".P c #800080",
".I c #761076",
".U c #7E007E",
".Y c #BC3D3D",
".T c #000072",
".R c #7A007A",
".E c #790079",
".W c #2D7A2D",
".Q c #029494",
".! c #760076",
".~ c #740074",
".^ c #730073",
"./ c #6C0A6C",
".( c #710071",
".) c #700070",
"._ c #6F006F",
".` c #6E006E",
".' c #6D006D",
".] c #6B006B",
".[ c #007171",
".{ c #690069",
".} c #650065",
".| c #108A10",
"X  c #620262",
"X. c #630063",
"XX c #600060",
"Xo c #016868",
"XO c #5E005E",
"X+ c #E3D6D6",
"X@ c #DAA9A9",
"X# c #5D005D",
"X$ c #007E7E",
"X% c #D6D6DD",
"X& c #107A10",
"X* c #009000",
"X= c #008C00",
"X- c #A9CBCB",
"X; c #005D5D",
"X: c #008200",
"X> c #008B8B",
"X, c #D6E0E0",
"X< c #007200",
"X1 c #007000",
"X2 c #000078",
"X3 c #006A6A",
"X4 c #006E00",
"X5 c #006C00",
"X6 c #009898",
"X7 c #006A00",
"X8 c #0D7A7A",
"X9 c #006800",
"X0 c #D6DDD6",
"Xq c #D7A9A9",
"Xw c #A9A9CB",
"Xe c #006600",
"Xr c #006400",
"Xt c #005E00",
"Xy c #005C00",
"Xu c #007777",
"Xi c #005A00",
"Xp c #005800",
"Xa c #0E9F9F",
"Xs c #3D3DA3",
"Xd c #008484",
"Xf c #D3B9D3",
"Xg c #CFB9CF",
"Xh c #006363",
"Xj c #009191",
"Xk c #B9B9CD",
"Xl c #CDA9CD",
"Xz c #007070",
"Xx c #00007E",
"Xc c #D03535",
"Xv c #4EC3C3",
"Xb c #007D7D",
"Xn c #00006A",
/* pixels */
" N N N N N N NX, N N N N N N N N N N N N N N N N N N N N N NX%Xk",
" N N N N R.3 t 2 hXvX, N N N N N N N N N N N N N N N N N NX%.5 y",
" N N l.0 +.@ c d.4 n 9 R N N N N N N N N N N N N N N N NX% !.q y",
" N )Xo.f +.@ ^ d.4 9.g o.- N N N N N N N N N N N N N NX% !X2.s y",
" N. X;X3 w.r.KX>.QXaX6X6Xa N N N N N N N N N N N N NX% V *Xx.F y",
" N  X; . } > t cXaXv 9 9 nX- N N N N N N N N N N NX% V J r C.F y",
"X-.#.:Xh ;XuX$ & 2Xj -Xj - $ N N N N N N N N N NX% V.t 6.<.s.F y",
"X-.2.HX;Xo ;XuX$ t cX>X>X> X N N N N N N N N NX% VXn.T r.q U.F y",
"X-.%.#.: aX3XzXuXb.@Xd.KXd X N N N N N N N N.i [ k * 6.<.s.F.F y",
" 4 + ] 1 x = . ; w.= >Xb j.  N N N N N N N NXk k J _.&.q %.F U y",
" N @ (Xo 1 x a ] YXz.[ }X8 ) N N N DXlXlXl N N.O.5 6.< C U.F UXw",
" NX, $ $Xo  .: 1 =.2.2 b.*Xg.o <.V.m.M.C.A.S.x < {Xs C.s U.F UXw",
" N NX, XX8 . a 1.: ~ x.X.>.C.v.j.1.z.J.U.E.!.~.R.J.z {.iXsXsXsX%",
" N N N N R.3 }.%X8.  ).9.V.j.j.B.P.E.]X.XOXOX#XX.`.U.B : N N N N",
" N N N N N N N N N N.o.!.n.h.V.^ u e 0 0 7.w.p./XO._.Z.cXf N N N",
" N N N N N N N N N N u.E.M.v.IXg N N N N N N N / f.`.V.j.; N N N",
" N N N N N N N N N N.}.).J.M | N N N N N N N N N.9.A.l.h < N N N",
" N N N N N N N N N N qXX.).U.A 3 | D N N NXg.>.x.M.j.j.n.o N N N",
" N N N N N.d N N N NXf.`X#.].E.L.D.A.C.V.B.m.b.u.u.b.V s H N N N",
" N N NX+.8 ,.$XcX@ N N / fX#XX.].!.U.L.J.S.N.z.N.D.U.I H N N N N",
" N N O , , , , , , ,Xc O T 3 sX X#X..{.'.(.^.(.]./.6.*.|.e N N N",
" 8.$ , , , , , , , , , z.Y N DXl.w 7 0.G e e.6 / W g FX= m.e N N",
" P.7.7 v., , , , , z.a #.y N N N N N N N N N W g FX1X1 Z mX* E N",
" '.7.7.7.7.7 v A.a # # # ` N N N N N N N W g FX1X1X1X4 Z m m p N",
"Xq.7.7.7.7.7.7.+ # # # #.Y N N N N NX0X& FX1X1X1X4 GX5X7X: m mX0",
"Xq.7.7.7.7.7.7.+ # # # #.y N N N N N.*X1X1X1X4 GX5X7X9Xe G M m..",
"Xq.7.7.7.7.7.7 5 # # # # S N N N N N WX< F GX5X7X9XeXr LXt K M p",
"Xq.7.7.7.7.7.7.+ # # # #.y N N N N N NX&X5X7X9XeXr LXtXiXpXi gX0",
" '.7.7.7.7.7.7 5 # # #.$ T N N N N N N..X9XeXr LXtXiXp I.W Q N N",
" i O.k.7.7.7.7.+ # #.8 N N N N N N N N N g LXtXiXp I.W Q N N N N",
" N N N N P.y.7.,XcX+ N N N N N N N N N NX0 BXpXy.W Q N N N N N N",
" N N N N N N N.d N N N N N N N N N N N N N Q.e Q N N N N N N N N"
};
