/* XPM */
static const char * IconDataSave[] = {
/* width height ncolors chars_per_pixel */
"32 32 72 1",
/* colors */
"  c #FDEC00",
". c #D1C1C3",
"X c #9F9F9F",
"o c #4D4A09",
"O c #D7CBCC",
"+ c #B6A3A5",
"@ c #3F3505",
"# c #BFAFB1",
"$ c Gray56",
"% c #7C6202",
"& c #C9BDBE",
"* c #1D1D0B",
"= c #191707",
"- c #F7C600",
"; c #FEE700",
": c #FEDD00",
"> c #717171",
", c #806502",
"< c #382D04",
"1 c #F4C000",
"2 c #CFA400",
"3 c #794D51",
"4 c #302809",
"5 c Yellow", 
"6 c Gray31",
"7 c #8C6D00",
"8 c #FFF600",
"9 c #F8F8F8",
"0 c #434343",
"q c #EEBC00",
"w c #FFDC00",
"e c #3C3A32",
"r c #7F5349",
"t c #C09701",
"y c None",
"u c #383806",
"i c #DDD1D3",
"p c #1B1B1B",
"a c #9E9E03",
"s c #3D3B32",
"d c #4D4D09",
"f c #9A7A02",
"g c Gray62",
"h c #4B4B07",
"j c #D5A700",
"k c #EEEE01",
"l c #3E3C32",
"z c #FEDC00",
"x c #544705",
"c c #805458",
"v c #4B3E09",
"b c #7C7C04",
"n c #505050",
"m c White",
"M c #E7B600",
"N c Yellow",
"B c #FFFB00",
"V c #FFF700",
"C c #FFF100",
"Z c #464646",
"A c #444444",
"S c #474715",
"D c #D7D7D7",
"F c #4B4B08",
"G c #FDFDC7",
"H c #3E3205",
"J c #1A1606",
"K c #A28185",
"L c #947400",
"P c #2E2609",
"I c Gray3",
"U c #52161C",
/* pixels */
"yyyyyyyyyyyyyyyyyyyyyyyyyyyyyyyy",
"yyyyyyyyyyyyyyyyyyyyyyyyyyyyyyyy",
"yyyyyyyyyyyyyyyyyyyyyyyyyyyyyyyy",
"yyyyyyyyyyyyyyyyyyyyyyyyyyyyyyyy",
"yyyyyyyyyyyyyyyyyyyyyyyyyyyyyyyy",
"yyyyyyyyyyyyyyyyyyyyyyyyyyyyyyyy",
"yyyZ=Dyyyyyy#UUUrGGGGGGGGGGGrUUU",
"yyyZu6yyyyyy#UUUrGGGGGGGGGGGrUUU",
"yyyZIaXyyyyy#UUUrGGGGGGGGGGGrUUU",
"yyyZINSDyyyy#UUUrGGGGGGGGGGGrUUU",
"yyyZINknyyyy#UUUrGGGGGGGGGGGrUUU",
"yyyZINNaXyyy#UUUrGGGGGGGGGGGrUUU",
"IFh*INNNSDyy#UUUrGGGGGGGGGGGrUUU",
"bNNdINNN56yy#UUUrGGGGGGGGGGGrUUU",
"INNdINNNNagy#UUUrGGGGGGGGGGGrUUU",
"I88oINNNNNSD#UUUrGGGGGGGGGGGrUUU",
"I--vINNNN xD#UUUrGGGGGGGGGGGrUUU",
"ILL4INNB;f$y#UUUrGGGGGGGGGGGrUUU",
"J77PINV:2lyy#UUUUUUUUUUUUUUUUUUU",
"ZZApICzMHDyy#UUUUUUUUUUUUUUUUUUU",
"yyyZIwq,$yyy#UUUUmmmmmmmmm.UUUUU",
"yyyZI1teyyyy#UUUUmicKmmmmm.UUUUU",
"yyyZIj<Dyyyy&UUUUm.Ucmmmmm.UUUUU",
"yyyZI%$yyyyyy+UUUm.Ucmmmmm.UUUUU",
"yyyZ@syyyyyyyy+UUmicKmmmmm.UUUUU",
"yyy>0Dyyyyyyyyy+3999999999O33333",
"yyyyyyyyyyyyyyyyyyyyyyyyyyyyyyyy",
"yyyyyyyyyyyyyyyyyyyyyyyyyyyyyyyy",
"yyyyyyyyyyyyyyyyyyyyyyyyyyyyyyyy",
"yyyyyyyyyyyyyyyyyyyyyyyyyyyyyyyy",
"yyyyyyyyyyyyyyyyyyyyyyyyyyyyyyyy",
"yyyyyyyyyyyyyyyyyyyyyyyyyyyyyyyy"
};
