/* XPM */
static char *IconGenGrid[] = {
/* width height ncolors chars_per_pixel */
"16 16 59 1",
/* colors */
"  c #6F0732",
". c #7F3252",
"X c #8A4260",
"o c #89425F",
"O c #974366",
"+ c #964365",
"@ c #69072F",
"# c #B48096",
"$ c #85425E",
"% c #C3ABB5",
"& c #C2ABB4",
"* c #770836",
"= c #873356",
"- c #A35F7B",
"; c #66062E",
": c #B07F94",
"> c #AE7F92",
", c #730734",
"< c #823253",
"1 c #CBABB8",
"2 c #6B1639",
"3 c #90335A",
"4 c #8F3359",
"5 c None",
"6 c #9A4367",
"7 c #78173F",
"8 c #B78097",
"9 c #B68096",
"0 c #87425E",
"q c #C1ABB4",
"w c #C0ABB3",
"e c #853355",
"r c #843354",
"t c #A25F7B",
"y c #75163E",
"u c #74163D",
"i c #760735",
"p c #93335B",
"a c #710733",
"s c #813253",
"d c #803252",
"f c #8C4261",
"g c #8B4260",
"h c #CAABB8",
"j c #A77F8F",
"k c #994367",
"l c #984366",
"z c #6B0730",
"x c #7B3250",
"c c #86425E",
"v c #C49EAE",
"b c #823353",
"n c #954265",
"m c #944264",
"M c #B07F93",
"N c #C0AAB3",
"B c #750735",
"V c #740734",
"C c #91335A",
/* pixels */
"5555555555555555",
"5tz az a;  @  u5",
"5Oq5hq5h055o55a5",
"5lw5hw5h$55c55a5",
"5kxX=xX=2XX2XXa5",
"56N5hN5h055c55V5",
"56%5h%5hf55f55*5",
"5k.0ed0ey00700*5",
"5l>h9#h9bhh4hh,5",
"5k&5hh5hX55k55B5",
"56j&M:&M<&&C&&i5",
"56>h98h9rhhphhi5",
"56&5h15hg55655i5",
"56j&MM&Ms&&3&&i5",
"5vn+On+Om++n++-5",
"5555555555555555"
};
