/* XPM */
static const char * IconMenuBooleans[] = {
/* width height ncolors chars_per_pixel */
"32 32 148 2",
/* colors */
"   c #F0C4C4",
" . c #1B3C24",
" X c #865648",
" o c #8E8EFF",
" O c #B37267",
" + c #6370A3",
" @ c #F28484",
" # c #CE7871",
" $ c #D87171",
" % c #FD9292",
" & c #EC7E7E",
" * c #DC8282",
" = c #9595FF",
" - c #364F52",
" ; c #E3BABA",
" : c #E2A2A2",
" > c #9C9CFF",
" , c #504730",
" < c #FA9F9F",
" 1 c #8888FF",
" 2 c #D58B8B",
" 3 c #5D6AA3",
" 4 c #7B81D1",
" 5 c #F0C3C3",
" 6 c #F4A6A6",
" 7 c #1C3D24",
" 8 c #8F8FFF",
" 9 c #F68787",
" 0 c #667B66",
" q c #DC7474",
" w c #9696FF",
" e c #586F58",
" r c #E09292",
" t c #294441",
" y c #D17D76",
" u c #EF8583",
" i c #4C654C",
" p c #8688EF",
" a c #CF6A6A",
" s c #42472B",
" d c #797BEC",
" f c #6F78C1",
" g c #8989FF",
" h c #3D593D",
" j c #1D3E24",
" k c #60533B",
" l c #AA6059",
" z c #616CB3",
" x c #9090FF",
" c c #6572A3",
" v c #DC7373",
" b c #6C76C1",
" n c #F28282",
" m c #394125",
" M c None",
" N c #D78585",
" B c #234323",
" V c #9797FF",
" C c #8082EF",
" Z c #EDCFCF",
" A c #143714",
" S c #8383FF",
" D c #6F7AB3",
" F c #5563A0",
" G c #474A2F",
" H c #E4DDDD",
" J c #FF8B8B",
" K c #364E5D",
" L c #DB8F8F",
" P c #8A8AFF",
" I c #354F52",
" U c #8E90EF",
" Y c #BDC4BD",
" T c #405760",
" R c #C8766F",
" E c #F79090",
" W c #E0C5C5",
" Q c #9191FF",
" ! c #60523A",
" ~ c #F68585",
" ^ c #D77777",
" / c #435870",
" ( c #AEB8AE",
" ) c #4F4D33",
" _ c #E69696",
" ` c #9898FF",
" ' c #A36C5E",
" ] c #A2AEA2",
" [ c #D17B74",
" { c #707BB3",
" } c #8282FD",
" | c #E8E0E0",
".  c #935A4E",
".. c #94A294",
".X c #243D1C",
".o c #8F9E8F",
".O c #8B8BFF",
".+ c #8F91EF",
".@ c #324223",
".# c #8588EF",
".$ c #9292FF",
".% c #E27777",
".& c #5D4B36",
".* c #936454",
".= c #F7A9A9",
".- c #9999FF",
".; c #2D4942",
".: c #1C3C24",
".> c #757FC1",
"., c #E8D2D2",
".< c #5D68B0",
".1 c #8585FF",
".2 c #E19393",
".3 c #8C8CFF",
".4 c #C26664",
".5 c #FD9494",
".6 c #E1CECE",
".7 c #3D5465",
".8 c #1F3E2D",
".9 c #757CD1",
".0 c #9393FF",
".q c #364E5E",
".w c #EF8886",
".e c #9D5C53",
".r c #EC9A9A",
".t c #9A9AFF",
".y c #F7A8A8",
".u c #CF6F6D",
".i c #2E4A42",
".p c #A36A5C",
".a c #1B3B22",
".s c #1A3B21",
".d c #6573A3",
".f c #8686FF",
".g c #705944",
".h c #E59696",
".j c #46452B",
".k c #8D8DFF",
".l c #8282FE",
".z c #F8A5A5",
".x c #9494FF",
".c c #213B1A",
".v c #797BEB",
".b c #EEC9C9",
".n c #405860",
".m c #9B9BFF",
".M c #FF8E8E",
".N c #6C7F74",
/* pixels */
" M M M M M M M M.b.5.M E.z   Z M M.o M M M M M M M M M M M M M M",
" M M M M M M |.=.M.M.M.M.M.M.M y.X.X.N M M M M M M M M M M M M M",
" M M M M M 5.5.M.M.M.M.M.M.M.g A.8 ) A 0 M M M M M M M M M M M M",
" M M M | <.M.M.M.M.M.M.M O.X.s G A A B M M M M M M M M M M M M M",
" M M 5.M.M.M.M.M.M.M.w k A.8 A A F A ( M M M M M M M M M M M M M",
" M.h q @ 9.M.M.M.M '.X A.X A K.v S A ( M M M M M M M M M M M M M",
" M r a a a a $ q R.@ A.s ..< }.1 C A Y M M M M M M M M M M M M M",
" M.2 a a a a a a m A A.q d S.f P b A M M M M M M M M M M M M M M",
" M r a a a a a.  A A.:.l.f g.3 o f A M M M M M M M M M M M M M M",
" M.2 a a a a a.j A A z 1.O.k 8 Q 4 A Y M M M M M M M M M M M M M",
" M r a a a a a.c A A g.3 o x.$.x w j h M M M M M M M M M M M M M",
" M L a a a a a A A A.k x Q.0 = w V c A Y M M M M M M M M M M M M",
" M 2 a a a a.e A A I Q.0.x w V `.-.t j h M M M M M M M M M M M M",
" M 2 a a a a l A A -.x = w `.-.-.t.m { A e M M M M M M M M M M M",
" M _ a a a a a A A.; w V `.-.t.m.m > > { A e M M M M M M M M M M",
" M.r a a a a a m A A.+.-.t.t.m.m > > > > { A B Y M M M M M M M M",
" M.r a a a a a X A A.d.t.m.m > > > > >.m.m D A A h ( ( ( ( i.. M",
" M 2 a a a a a a A A j.m.m > > > >.m.m.t.- ` U +.; A A A A A t ]",
" M 2 a a a a a a.& A A.n > > > >.m.t.t.- ` w =.0 Q.#.7 A A A A 0",
" M 2 a a a a a a.4.c A A.n >.m.m.t.- ` V =.x.$ 8.9 7 A t A s # M",
" M 2 a a a a a a a.4.c A A T.t.t.- ` w.x.$ x.k / A A A.X.p J n M",
" M.r a a a a a a a a.4.c A A.i.> U =.0 Q p 3 7.a A A ! u J J n M",
" M.2 a a a a a a a a a.4 , A A A A A A A A A A.a.X [ J J J J ~ M",
" M.2 a a a a a a a a a a a X.c A A A A A A A A.* J J J J J J J M",
" M.r a a a a a a a a a a a a a X m A A A m X.u J J J J J J J J M",
" M 2 a a a a a a a a a a a a a a a a a a a a v J J J J J J J J M",
" M 2 a a a a a a a a a a a a a a a a a a a a.% J J J J J J J 6 M",
" M 2 a a a a a a a a a a a a a a a a a a a a n J J J J J %.b M M",
" M M M W ; 2 ^ a a a a a a a a a a a a a a a n J J J J.= | M M M",
" M M M M M M M M.6 W 2 N a a a a a a a a a a n J J %.b M M M M M",
" M M M M M M M M M M M M M., W : 2 a a a a a & J.y | M M M M M M",
" M M M M M M M M M M M M M M M M M M H W : 2 *.b M M M M M M M M"
};
