/* XPM */
static const char * IconGenFlashLight[] = {
/* width height ncolors chars_per_pixel */
"32 32 34 1",
/* colors */
"  c #333D35",
". c #5F6660",
"X c #505851",
"o c #172319",
"O c #C7D3BF",
"+ c #74827E",
"@ c #192414",
"# c #E8EDAA",
"$ c #4D5A54",
"% c #FDFDA0",
"& c None",
"* c #FAFAAA",
"= c #ADBCBB",
"- c #EDEDD2",
"; c #F1F4A4",
": c #808E8B",
"> c #F5F5B8",
", c #08140A",
"< c #B9C8C8",
"1 c #F0F0C9",
"2 c #2B372F",
"3 c #F8F8AF",
"4 c #EBEBD7",
"5 c #ABAEAC",
"6 c #E9EAA0",
"7 c #FFFF9B",
"8 c #BECCC5",
"9 c #D7D7D7",
"0 c #414E47",
"q c #9EA29F",
"w c #E8E8E1",
"e c #8F9490",
"r c #BBBDBB",
"t c #142017",
/* pixels */
"&&&&&&&&&&&&&&&&&&&&&&&&&&9ott,q",
"&&&&&&&&&&&&&&&&&&&&&&&&&9o0<<0o",
"&&&&&&&&&&&&&&&&&&&&&&&&9o0<<<=,",
"&&&&&&&&&&&&&&&&&&&&&&&9o0<<<<:,",
"&&&&&&&&&&&&&&&&&&&&&&9o0<<<<:,q",
"&&&&&&&&&&&&&&&&&&&&&9o0<<<<:,q&",
"&&&&&&&&&&&&&&&&&&&&9o2<<<<:,q&&",
"&&&&&&&&&&&&&&&&&&&9ot=<<<:,q&&&",
"&&&&&&&&&&&&&&&&&&&Xt=<<<:,q&&&&",
"&&&&&&&&&&&&&&&&&9ot=<<<=tq&&&&&",
"&&&&&&&&&&&&&&&&eo0=<<<=t.&&&&&&",
"&&&&&&&&&&&&&&&X,$<<<<<2X&&&&&&&",
"&&&&&&&&&&&&&ro0=<<<<<0X&&&&&&&&",
"&&&&&&&&&&&&.,:<<<<<<0o&&&&&&&&&",
"&&&&&&&&&&&Xt=<<<<<<$,9&&&&&&&&&",
"&&&&&&&&&&Xt=<<<<<<=,e&&&&&&&&&&",
"&&&&&&&&&X,:<<<<<<<+ &&&&&&&&&&&",
"&&&&&&&&r,:<<<<<<<:,e&&&&&&&&&&&",
"&&&&&&&&5@O<<<<<<=tX&&&&&&&&&&&&",
"&&&&&&&w>77#<<<<=to&&&&&&&&&&&&&",
"&&&&&4*77777;8<<2 9&&&&&&&&&&&&&",
"&&&-*777777777O0o9&&&&&&&&&&&&&&",
"&1%77777777777,o9&&&&&&&&&&&&&&&",
"%77777777777765&&&&&&&&&&&&&&&&&",
"77777777777774&&&&&&&&&&&&&&&&&&",
"777777777777%&&&&&&&&&&&&&&&&&&&",
"777777777777>&&&&&&&&&&&&&&&&&&&",
"777777777777w&&&&&&&&&&&&&&&&&&&",
"77777777777*&&&&&&&&&&&&&&&&&&&&",
"777777777771&&&&&&&&&&&&&&&&&&&&",
"77777777777&&&&&&&&&&&&&&&&&&&&&",
"77777777773&&&&&&&&&&&&&&&&&&&&&"
};
