/* XPM */
static const char * IconMenuDisplay[] = {
/* width height ncolors chars_per_pixel */
"32 32 247 2",
/* colors */
"   c #1A1A34",
" . c #08081F",
" X c #ACACB6",
" o c #CBBDBA",
" O c #501006",
" + c #79180A",
" @ c #631408",
" # c #1A1A37",
" $ c #080822",
" % c #7F1C13",
" & c #262646",
" * c #280F27",
" = c #80190A",
" - c #4D1006",
" ; c #12122F",
" : c #28101D",
" > c #0D0D34",
" , c #B9A29E",
" < c #0E0E2B",
" 1 c #DADADC",
" 2 c #90909A",
" 3 c #0C0C29",
" 4 c #6B1509",
" 5 c #6A1508",
" 6 c #0A0A27",
" 7 c #8F1E12",
" 8 c #C3AEAB",
" 9 c #931D0C",
" 0 c #551107",
" q c #ABABB1",
" w c #5F5F6D",
" e c #AC4F42",
" r c #90909D",
" t c #9D200F",
" y c #0A0A2A",
" u c #671508",
" i c #52526A",
" p c #89635E",
" a c #901D0C",
" s c #7E1C18",
" d c #5D1208",
" f c #BC9690",
" g c #5C1207",
" h c #616172",
" j c #171730",
" k c #121235",
" l c #13132C",
" z c #0C0C2F",
" x c #6F1609",
" c c #0D0D26",
" v c #0B0B24",
" b c #753B33",
" n c #090922",
" m c #591207",
" M c #811A0A",
" N c #13132F",
" B c #AA220E",
" V c #A9220D",
" C c #9E1F0C",
" Z c #CB9891",
" A c #0B0B27",
" S c #D7D7D8",
" D c #941E0C",
" F c #090925",
" G c #611308",
" H c #891B0B",
" J c #BCBCC4",
" K c #731709",
" L c #0D0D2C",
" P c #B7A19E",
" I c #CCB0AC",
" U c #0B0B2A",
" Y c #8B8B97",
" T c #5E1308",
" R c #3B3B4F",
" E c #531007",
" W c #111133",
" Q c #6F1812",
" ! c #9191A0",
" ~ c #701709",
" ^ c #651408",
" / c #BA6D62",
" ( c #0A0A22",
" ) c None",
" _ c #080820",
" ` c #8D1C0B",
" ' c #14142F",
" ] c #4F1006",
" [ c #78180A",
" { c #45455F",
" } c #D0B1AC",
" | c #140B25",
".  c #0A0A25",
".. c #621408",
".X c #571107",
".o c #7F190A",
".O c #48485B",
".+ c #0E0E2C",
".@ c #4A1525",
".# c #0C0C2A",
".$ c #0A0A28",
".% c #424255",
".& c #921D0C",
".* c #8A1C0E",
".= c #51120E",
".- c #ABABB2",
".; c #141435",
".: c #541107",
".> c #2C1025",
"., c #5F5F6E",
".< c #7C190A",
".1 c #302336",
".2 c #0E0E2F",
".3 c #0C0C2D",
".4 c #ADADB7",
".5 c #5B1207",
".6 c #4F120F",
".7 c #0C0C30",
".8 c #34344A",
".9 c #1B0D21",
".0 c #6E1609",
".q c #555567",
".w c #C6AFAB",
".e c #961E0C",
".r c #531416",
".t c #090923",
".y c #16163D",
".u c #743B33",
".i c #191936",
".p c #5A1209",
".a c #702318",
".s c #4E1211",
".d c #581207",
".f c #4D0F06",
".g c #A9220E",
".h c #464662",
".j c #A8220D",
".k c #751709",
".l c #1F1F3F",
".z c #DFD8D7",
".x c #8F8F99",
".c c #0B0B28",
".v c #CA9891",
".b c #D7D7D9",
".n c #1B0A1A",
".m c #090926",
".M c #931E0C",
".N c #601308",
".B c #9F2C1B",
".V c #461116",
".C c #881B0B",
".Z c #18182E",
".A c #91919E",
".S c #32324E",
".D c #721709",
".F c #4C191F",
".G c #0B0B2B",
".H c #5C1307",
".J c #08081E",
".K c #ACACB5",
".L c #CCBDBA",
".P c #383857",
".I c #521007",
".U c #7A180A",
".Y c #0B0B2E",
".T c #0E0E27",
".R c #66667A",
".E c #641408",
".W c #0A0A23",
".Q c #753C33",
".! c #424250",
".~ c #9C9CA5",
".^ c #080821",
"./ c #B8958F",
".( c #2E1022",
".) c #4E1006",
"._ c #0D0D33",
".` c #77180A",
".' c #761809",
".] c #0C0C28",
".[ c #9B6158",
".{ c #0A0A26",
".} c #941D0C",
".| c #505064",
"X  c #891C0B",
"X. c #561107",
"XX c #ABABB0",
"Xo c #AA2511",
"XO c #121231",
"X+ c #474765",
"X@ c #160D2B",
"X# c #90909C",
"X$ c #0C0C2B",
"X% c #681508",
"X& c #CCC3C3",
"X* c #911D0C",
"X= c #3E3E52",
"X- c #07071C",
"X; c #531107",
"X: c #A92713",
"X> c #791A12",
"X, c #5F5F6F",
"X< c #7B190A",
"X1 c #202045",
"X2 c #111129",
"X3 c #A3210D",
"X4 c #0C0C2E",
"X5 c #701609",
"X6 c #991E0D",
"X7 c #130A21",
"X8 c #8D4C43",
"X9 c #6E1C1E",
"X0 c #171732",
"Xq c #831A0B",
"Xw c #821A0A",
"Xe c #101035",
"Xr c #38384F",
"Xt c #0C0C31",
"Xy c #6D1609",
"Xu c #AE311E",
"Xi c #090924",
"Xp c #616177",
"Xa c #8D473C",
"Xs c #16162A",
"Xd c #0E0E36",
"Xf c #A7220D",
"Xg c #140C28",
"Xh c #D7D7DA",
"Xj c #3E3E5B",
"Xk c #515167",
"Xl c #5F1308",
"Xz c #ACACB3",
"Xx c #871B0B",
"Xc c #AA2613",
"Xv c #60606F",
"Xb c #B3948F",
"Xn c #262640",
"Xm c #915850",
"XM c #2E0E1D",
"XN c #0B0B2C",
"XB c #5E1614",
"XV c #CAB0AC",
"XC c #92655E",
"XZ c #53536C",
"XA c #BA594A",
"XS c #9E9EA5",
"XD c #0A0A21",
/* pixels */
" ) ) ) ) ) ) ) ) ) ) ) ) ) ) ) ) ) ) ) ) ) ) ) ) ) ) ) ) ) ) ) )",
" ) ) ) ) ) ) ) ) ) ) I } } f }.L ) ) ) ) ) ) ) ) ) ) ) ) ) ) ) )",
" ) ) ) ) ) ) ) ).L.&.&.&.&.&.&.&.B ) ) ) ) ) ) ) ) ) ) ) ) ) ) )",
" ) ) ) ) ) ) ) ).u T = H.& 9 D t V.v ) ) ) ) ) ) ) ) ) ) ) ) ) )",
" ) ) ) ) ) ) ) o.I d 4X<.C DXuXo BXu ) ) ) ) ) ) ) ) ) ) ) ) ) )",
" ) ) ) ) ) ) ).u O GX5.<X .MXAXAX3.g Z ) ) ) ) ) ) ) ) ) ) ) ) )",
" ) ) ) ) ) ) o EX. ^.DXa I ) ) )XaX6Xu ) ) ) ) ) ) ) ) ) ) ) ) )",
" ) ) ) ) ) ) b ].5X%Xm ) ) ) ) )./Xx.} / ) ) ) ) ) ) ) ) ) ) ) )",
" ) ) ) ) ) oX;.I G.a ) ) ) ) ) )X8 +XqX3.z ) ) ) ) ) ) ) ) ) ) )",
" ) ) ) ) ).u.).d @Xb ) ) ) ) ) ,.EXy.' M / ) ) ) ) ) ) ) ) ) ) )",
" ) ) ) ) o.: ].H u.w ) ) ) ) P.)X..p.=.<X6 S ) ) ) ) ) ) ) ) ) )",
" ) ) ) ) b ] 0Xl 4.w ) ).zXC.5.n.nXi.$.s C.1.R J ) ) ) ) ) ) ) )",
" ) ) ) o 0.).d @XyXmXV.[.`X5.VXi : |X7.V Q * UXD.b ) ) ) ) ) ) )",
" ) ) ) b ]X; g ^ x.` `Xx.o +XgXt.7.t ;.$ FXOXe.t., ) ) ) ) ) ) )",
" ) ) o 0 -X..NX% ~ [.C aX .rXN.$.n _X@XNXt.( s.$.^.b ) ) ) ) ) )",
" ) ).Q O O m.. 4.D + =.&.M *.Y.9XBX-.6.9 $X0.1.; n., ) ) ) ) ) )",
" ) oX..f.:.H.EXy K.U =Xx D.3 |.GXi _X$X@.F s.@X@ y.W.b ) ) ) ) )",
" )XC O.).X.N u.0.kX< MXx `.*X>X> zX7XB.j.g B.g t >  X, ) ) ) ) )",
" ) ) p.X m.. 5 x.'X<Xw.C `X*.e %.$.FXcXf.j B 7X9 W.$ c.b ) ) ) )",
" ) ) ) ) o 8X8X8 +.<Xw.C `X*.e Q F.BX:XA e *.+Xd._.y.TXv ) ) ) )",
" ) ) ) ) ) ) ) ) ) ) p.(.(.>XM  .Z ) ) )Xk zXj FX1._ v v.b ) ) )",
" ) ) ) ) ) ) ) ) ) ).i.7.m Y &XN.q q.%.m. X= !.GXzX1 y c h ) ) )",
" ) ) ) ) ) ) ) ) )X#XN U.3 l F.7 ' WXjXp !.3 n z.x X.$.J j.b ) )",
" ) ) ) ) ) ) ) ) ) #Xt.^.OXi 3.3.GXZXXXX q.~ > < R XXi.G ..R ) )",
" ) ) ) ) ) ) ) ) r.G.#.Z nXiX4.$ z <  .2.7XtXtXd.G # N k.^X2 1 )",
" ) ) ) ) ) ) ) ).i.Y n.t.8 2 Y.t.P U.l.c w ) ) )X& A.  & F.;Xn )",
" ) ) ) ) ) ) ) ).G.m F.| ) ).A (XS $.t L l R SXS.{ i.l ; & n . )",
" ) ) ) ) ) ) ).b.m.{Xk ) ) ) { _ .Xs S J.P.3 j # i )XhXZ.  l.J )",
" ) ) ) ) ) ) ) ).hX4.i.O.-.b 6 $X0.b ) ) ) JXr.% SXX.!Xs.^.] w )",
" ) ) ) ) ) ) ) ) )Xh.4X+Xt.G.{ 6X$.# F.t $.^ _.S.^ n.8XvXz ) ) )",
" ) ) ) ) ) ) ) ) ) ) ) ) ).4Xp.h.h.h.h.h.h.h.hXp.K ) ) ) ) ) ) )",
" ) ) ) ) ) ) ) ) ) ) ) ) ) ) ) ) ) ) ) ) ) ) ) ) ) ) ) ) ) ) ) )"
};
