/* XPM */
static const char * IconPanelAnimation[] = {
/* width height ncolors chars_per_pixel */
"32 32 41 1",
/* colors */
"  c #A6A5D1",
". c #888585",
"X c #463737",
"o c #FFC8C8",
"O c #6E6B6B",
"+ c #252420",
"@ c #9A98C1",
"# c #191414",
"$ c #BCBCEF",
"% c #9AC198",
"& c None",
"* c #90B38E",
"= c #5D5A70",
"- c #84A382",
"; c #3B4237",
": c #779375",
"> c #8482A3",
", c #564444",
"< c #D8D7D7",
"1 c #252024",
"2 c #EFBCBC",
"3 c #785E5E",
"4 c #BEBDBD",
"5 c #C8C8FF",
"6 c #A6D1A5",
"7 c #474452",
"8 c #696666",
"9 c #5B5858",
"0 c #51604E",
"q c #4F4C4C",
"w c #475244",
"e c #3B3742",
"r c #B0AEAE",
"t c #C29898",
"y c #A4A2A2",
"u c #C8FFC8",
"i c #969494",
"p c #BCEFBC",
"a c #413D3D",
"s c #332F2F",
"d c #272323",
/* pixels */
"&&q###########################a&",
"&&i##ara##3ttttttttttttX##Ord##4",
"&&<###&r##Xoooooooooooot##a&8##8",
"&&&a##.r###2oooooooooooo###r.##d",
"&&&r#######toooooooooooo,#######",
"&&&4#######,oooooooooooot#######",
"&&&&###qq##Xoooooooooooo2###qa##",
"&&&&a##&&###ooooooooooooo###&4##",
"&&&&q##r&###ooooooooooooo###&&##",
"&&&&q###########################",
"&&&&q###########################",
"&&&&############################",
"&&&4##a&i##wuuuuuuuuuuuu-##q&q##",
"&&&a##i&d##%uuuuuuuuuuuu+##r<###",
"&&y###aa##+uuuuuuuuuuuu0###qd##8",
"&y########*uuuuuuuuuuu*########<",
"&d#######-uuuuuuuuuuu6########y&",
"i##drs##0uuuuuuuuuuuu;##9r###i&&",
"d##4<###puuuuuuuuuuup###<4##d&&&",
"###r.##;%%%%%%%%%%%%:##ar9##i&&&",
"############################4&&&",
"############################&&&&",
"##aqd##e7777777777771##aq###&&&&",
"##r&q##@5555555555557##r&d##&&&&",
"##q&q##@5555555555557##r&q##4&&&",
"#######=555555555555@#######r&&&",
"#######e555555555555 #######q&&&",
"q#######$555555555555#######a&&&",
"i##q&q##>5555555555557##i&d##4&&",
"<###&r##e555555555555@##a&8##8&&",
"&a##aq###7777777777777###qa##d&&",
"&r###########################a<&"
};
