/* XPM */
static const char * IconPanelOGLWin[] = {
/* width height ncolors chars_per_pixel */
"32 32 243 2",
/* colors */
"   c #43220D",
" . c #826858",
" X c #2A2B12",
" o c #42875E",
" O c #42855E",
" + c #41835D",
" @ c #371B0B",
" # c #ABCAB8",
" $ c #4C270F",
" % c #59351F",
" & c #438D62",
" * c #428D61",
" = c #BAC9C0",
" - c #40200D",
" ; c #0A7737",
" : c #72513E",
" > c #613F2A",
" , c #7FAF93",
" < c #33190A",
" 1 c #AEC1B4",
" 2 c #D7DCD9",
" 3 c #358154",
" 4 c #1A5E29",
" 5 c #439565",
" 6 c #49250F",
" 7 c #8D6A55",
" 8 c #645F47",
" 9 c #3C1E0C",
" 0 c #53966E",
" q c #512810",
" w c #4E8E69",
" e c #ABC1B4",
" r c #8FB89F",
" t c #DCD9D7",
" y c #177A40",
" u c #B2BCB1",
" i c #AABFB3",
" p c #06622C",
" a c #45230E",
" s c #3F754D",
" d c #381C0B",
" f c #ABC9B7",
" g c #ABC7B7",
" h c #8FBEA2",
" j c #363516",
" k c #4D260F",
" l c #48AF73",
" z c #89B69C",
" x c #43230F",
" c c #41210D",
" v c #428A60",
" b c #A0A195",
" n c #41885F",
" m c #351A0B",
" M c #7FAE92",
" N c #341A0A",
" B c #7FAC92",
" V c #353918",
" C c #118240",
" Z c #323315",
" A c #A2C7B1",
" S c #422711",
" D c #A1C5B0",
" F c #288750",
" G c #BACCC2",
" H c #327A50",
" J c #9CC1AB",
" K c #3E1F0D",
" L c #3D1F0C",
" P c #522910",
" I c #299154",
" U c #6C4C3A",
" Y c #348255",
" T c #ABC0B3",
" R c #8FB59E",
" E c #8FB39E",
" W c #573622",
" Q c #3F9463",
" ! c #065F2B",
" ~ c #3A1D0C",
" ^ c #391D0B",
" / c #413516",
" ( c #452B1A",
" ) c #4F2710",
" _ c #07692F",
" ` c #816D62",
" ' c #DAD8D7",
" ] c #745848",
" [ c None",
" { c #322811",
" } c #39230E",
" | c #42895F",
".  c #361B0B",
".. c #156636",
".X c #8A7264",
".o c #7FAB91",
".O c #2D3B19",
".+ c #472815",
".@ c #4B250F",
".# c #322E14",
".$ c #1A5827",
".% c #428F62",
".& c #BACBC1",
".* c #185425",
".= c #3F200D",
".- c #80B395",
".; c #26481F",
".: c #363E1B",
".> c #DBE2DE",
"., c #542A11",
".< c #433214",
".1 c #D7E0DA",
".2 c #4B2912",
".3 c #D7DEDA",
".4 c #439766",
".5 c #D6DCD9",
".6 c #429565",
".7 c #47230E",
".8 c #8EB09C",
".9 c #22884C",
".0 c #1D5123",
".q c #3B1E0C",
".w c #33210E",
".e c #11672E",
".r c #338756",
".t c #502810",
".y c #328555",
".u c #8FB8A0",
".i c #22904F",
".p c #43210D",
".a c #2A471F",
".s c #42865E",
".d c #371C0B",
".f c #ABCBB8",
".g c #90C0A4",
".h c #ABC9B8",
".j c #4C260F",
".k c #145E2A",
".l c #5E9776",
".z c #BAC8C0",
".x c #3F3A19",
".c c #9BB9A8",
".v c #164B22",
".b c #4A9C6C",
".n c #25431D",
".m c #341A0B",
".M c #552B11",
".N c #331A0A",
".B c #4D2E13",
".V c #3C3416",
".C c #D7DDD9",
".Z c #BBD0C4",
".A c #49240F",
".S c #48240E",
".D c #BACEC3",
".F c #065B29",
".G c #51916C",
".H c #1B7D44",
".J c #512910",
".K c #ABC2B4",
".L c #ADA49F",
".P c #ABC0B4",
".I c #07652D",
".U c #45220E",
".Y c #629276",
".T c #554838",
".R c #224920",
".E c #391D0C",
".W c #42855D",
".Q c #41815C",
".! c #338C58",
".~ c #ABC8B7",
".^ c #1F431D",
"./ c #A9C6B5",
".( c #076B30",
".) c #4E2710",
"._ c #452411",
".` c #5A351F",
".' c #5E9675",
".] c #41200D",
".[ c #428B60",
".{ c #0D7739",
".} c #9EBAAA",
".| c #166A38",
"X  c #A69991",
"X. c #351B0B",
"XX c #7FAD92",
"Xo c #442E13",
"XO c #4A250F",
"X+ c #BCCFC4",
"X@ c #5E9C78",
"X# c #BCB3AD",
"X$ c #684733",
"X% c #16703B",
"X& c #C8C1BC",
"X* c #3D1E0C",
"X= c #492C1B",
"X- c #532A11",
"X; c #328153",
"X: c #8FB49E",
"X> c #226B40",
"X, c #46230E",
"X< c #07602C",
"X1 c #44825E",
"X2 c #391C0B",
"X3 c #338957",
"X4 c #4F2810",
"X5 c #492714",
"X6 c #684B39",
"X7 c #745948",
"X8 c #42210D",
"X9 c #428A5F",
"X0 c #42885F",
"Xq c #35935C",
"Xw c #5AAE7D",
"Xe c #087033",
"Xr c #4C2610",
"Xt c #4B260F",
"Xy c #5E9B77",
"Xu c #BDB2AD",
"Xi c #429062",
"Xp c #428E62",
"Xa c #BACAC1",
"Xs c #3F1F0D",
"Xd c #4A8360",
"Xf c #3E1F0C",
"Xg c #73A085",
"Xh c #9BBBA9",
"Xj c #4E2A15",
"Xk c #BDD8C7",
"Xl c #338053",
"Xz c #48240F",
"Xx c #47240E",
"Xc c #16733D",
"Xv c #6FA284",
"Xb c #3B1D0C",
"Xn c #1B4A21",
"Xm c #51936D",
"XM c #417D5A",
"XN c #ABC4B5",
"XB c #689A7D",
"XV c #DBD8D7",
"XC c #44220E",
/* pixels */
" [ [ [ [ [ [ [ [ [ [ [ [ iX:.Q O.Q O.'XN.C [ [ [ [ [ [ [ [ [ [ [",
" [ [ [ [ [ [ [ [ [.zXM.F.F _.( _.{ C ;.!X< 3X+ [ [ [ [ [ [ [ [ [",
" [ [ [ [ [ [ [.5Xd ! _.I 5.! , J TX; I.{ D.g.9.b.> [ [ [ [ [ [ [",
" [ [ [ [ [ [.}.. YX<X>.8.s YXlXyXv w y l.9Xp.%Xq F./ [ [ [ [ [ [",
" [ [ [ [ [.}.|XiXc.|Xv 0 OXvXc.~ f.3 [ h I 3 n E.fXwXk [ [ [ [ [",
" [ [ [ [.}...c o p H.~.Z [ [Xp TX:.W.[X@ z IXk 2 eXh l D [ [ [ [",
" [ [ [.& p.s.~ vX> e.K.s | * y f.c.K.s oX@.i ;.u # # 0.HXN [ [ [",
" [ [ [X3.rXi.%.( w.h.3 T.l O FX@ f.Z [ [ [.1 CXg +.[ g A.b [ [ [",
" [ [.D.|.5 [.5 _.s.[Xy f [ [ h G [ 2 T E.G.[.! & [ [ [ [ QX+ [ [",
" [ [XpX1 + v.- _ [ [ [ [.P.K , H.[.u f.3Xa e M ;X0.%.%Xi 5Xe G [",
" [ A !.o e e B _ o.G *X@ f.Z.c.y.s.s 0 * g.h.3.4XN [.5.' + y.C [",
" [.hX; # # #.-X0 [ T.' OXyX@ f.r [ [ [ [ [ [Xa BX>.G r.3 [.fX: [",
" [X@ T [ [ =XmX%Xy.~.3 [ [ [ [.6 [Xa T.'.G.[.~.3 y.& e e u 1.y.>",
" [ 5.Y.[X9.~ J v [ [ [ 2.P.8.s y *.~XX.P.8 o.T.^.e X.w.w }.#.R u",
".Z.(.o.K e eXlX%XB 0 *.uXX.c b s.O V S V.= L.q ^.n X {.v.; / PXu",
" [.! # # # #.Z.[ T RX1.V /.<Xo.: j.7.U.p c }.#Xn.0.:.xX-X- P.tX7",
" [Xi [ [ i.Y 8 4.B.B.J.t ).).jXt.k j.* V.;.2.t.t q.J P P.J q.) ]",
" [.6 8.<.,.M.,.e.,X-.V.< Z.;.0.$.a.VXO.@.j $.) )X4.t.t.tX4 ) kX#",
" [ 4.$.R.n.$.#.RXn.0 {.#Xs -X8XC a.7.S 6XOXt.j k.).).).).) k.@X#",
" [X6XC.= 9 dX. < N.  d ~X*Xs - cXC aX,Xx.S 6XO.@.j.j.j.j.jXOXz t",
" [X7Xx x.=Xb.d m < N. X2 ~ 9Xf - c.pXC aX,.S.S.AXOXOXOXO 6.S.U [",
" [X&XOX5._ K.E @ N < N @ d ~ 9Xf.=.]X8  XC aX,.7.S.S.SXx.7 a ` [",
" [ [X7Xj W.+X* ^.  N <.m.  d ~ 9X*Xs -.]X8  XC.U.U a a.UXC cXV [",
" [ [X& $ >X$.+ 9X2 @ N < N. .d ^Xb 9 LXs -.] cX8X8X8X8X8 - ` [ [",
" [ [ [.XXj . :._X* ^ @ m <.N m.  d ~.q 9X*XfXsXs - -.=XfX= [ [ [",
" [ [ [ t.` % 7 :.+ 9 ~.dX..N < N. .d d ^ ~.q 9 9X*X*.q ( ' [ [ [",
" [ [ [ [ t U.` 7X6.+ L ~ d.  m.N < NX. @.d dX2X2X2 d.d.L [ [ [ [",
" [ [ [ [ [ t %Xj > W._ K.q ~ d.  m < < N NX.X. m N N.L [ [ [ [ [",
" [ [ [ [ [ [ [.XXr.2X5 x - L.q ^ d. .  m N.N N N.T ' [ [ [ [ [ [",
" [ [ [ [ [ [ [ [ t UXO.7XCX8.=Xf 9Xb ~X2 dX2 (X  [ [ [ [ [ [ [ [",
" [ [ [ [ [ [ [ [ [ [ tX X6.S aXC c.] -X= `X& [ [ [ [ [ [ [ [ [ [",
" [ [ [ [ [ [ [ [ [ [ [ [ [ [ [X#X# [ [ [ [ [ [ [ [ [ [ [ [ [ [ ["
};
