/* XPM */
static const char * IconGenObjAggregate2D[] = {
/* width height ncolors chars_per_pixel */
"32 32 245 2",
/* colors */
"   c #A88484",
" . c #1B1E60",
" X c #474974",
" o c #090C4B",
" O c #A68282",
" + c #202051",
" @ c #8E6F71",
" # c #A48080",
" $ c #A27E7E",
" % c #B38E92",
" & c #080B40",
" * c #AF8A8E",
" = c #080A36",
" - c #0B0F5A",
" ; c #846767",
" : c #685252",
" > c #101241",
" , c #222056",
" < c #BB9393",
" 1 c #665050",
" 2 c #25214F",
" 3 c #B99191",
" 4 c #090B44",
" 5 c #644E4E",
" 6 c #080B43",
" 7 c #B78F8F",
" 8 c #0B0E3C",
" 9 c #574655",
" 0 c #9B7A7A",
" q c #4C4D7F",
" w c #6D565A",
" e c #997878",
" r c #816567",
" t c #06072D",
" y c #0F114D",
" u c #05072C",
" i c #0A0E52",
" p c #111445",
" a c #14153E",
" s c #161A61",
" d c #3B3357",
" f c #070A3B",
" g c #B08B8B",
" h c #5C4849",
" j c #191946",
" k c #15164C",
" l c #0B0E56",
" z c #31294D",
" x c #151742",
" c c #D0D0D5",
" v c #BBBBC7",
" b c #70596D",
" n c #7A6684",
" m c #8A6C6C",
" M c #886A6A",
" N c #292B5C",
" B c #070934",
" V c #060933",
" C c #4B3D59",
" Z c #5F6187",
" A c #131343",
" S c #0A0D4E",
" D c #685151",
" F c #313367",
" G c #14143A",
" H c #BB9292",
" J c #AA8A95",
" K c #9D7B7B",
" L c #070937",
" P c #383B71",
" I c #322B54",
" U c #141547",
" Y c #0A0D51",
" T c #7F6464",
" R c #4A3C51",
" E c #13123C",
" W c #090C46",
" Q c #B48E8E",
" ! c #181B4E",
" ~ c #312F56",
" ^ c #AE8888",
" / c #06082F",
" ( c #AC8686",
" ) c #ABADBD",
" _ c #A48188",
" ` c #090C49",
" ' c #8E6F6F",
" ] c #453745",
" [ c #8F90A8",
" { c #725A5A",
" } c #231E3E",
" | c #807496",
".  c #101253",
".. c #060832",
".X c #0B0F58",
".o c #333668",
".O c None",
".+ c #775E62",
".@ c #A38080",
".# c #080B41",
".$ c #A17E7E",
".% c #9F7C7C",
".& c #080A37",
".* c #484162",
".= c #26285B",
".- c #836767",
".; c #6F6E9C",
".: c #080B44",
".> c #634E4E",
"., c #B68F8F",
".< c #B48D8D",
".1 c #0D1056",
".2 c #06072E",
".3 c #0B0E54",
".4 c #05072D",
".5 c #121447",
".6 c #0A0E53",
".7 c #947474",
".8 c #2A244E",
".9 c #927272",
".0 c #745B5B",
".q c #725959",
".w c #070932",
".e c #362C49",
".r c #AA8586",
".t c #BFBFCC",
".y c #45477C",
".u c #0A0D4C",
".i c #775E6B",
".p c #A78383",
".a c #090D4B",
".s c #424579",
".d c #27224E",
".f c #A58181",
".g c #AAABB4",
".h c #3F3455",
".j c #A3A4B7",
".k c #6D5661",
".l c #876A6A",
".z c #070935",
".x c #060934",
".c c #856868",
".v c #2D2857",
".b c #1B1738",
".n c #0A0D4F",
".m c #42365B",
".M c #745C6B",
".N c #BA9292",
".B c #0E113F",
".V c #585981",
".C c #B89090",
".Z c #101037",
".A c #634D4D",
".S c #52445A",
".D c #070938",
".F c #9A7979",
".G c #987777",
".H c #06082D",
".J c #967575",
".K c #0F1143",
".L c #090C47",
".P c #666795",
".I c #836776",
".U c #B18C8C",
".Y c #AF8A8A",
".T c #645168",
".R c #AD8888",
".E c #060830",
".W c #37386A",
".Q c #090C4A",
".! c #080B3F",
".~ c #5F4B4F",
".^ c #8B6D6D",
"./ c #0F0F32",
".( c #2A2C5D",
".) c #AE888C",
"._ c #AD888B",
".` c #060833",
".' c #6B5454",
".] c #695252",
".[ c #BC9393",
".{ c #282247",
".} c #A07E7E",
".| c #9E7C7C",
"X  c #070A37",
"X. c #60628B",
"XX c #06072C",
"Xo c #0A0E51",
"XO c #0F1242",
"X+ c #0E1041",
"X@ c #B38D8D",
"X# c #080A3B",
"X$ c #070A3A",
"X% c #9B7A7C",
"X& c #977782",
"X* c #B18B8B",
"X= c #DADADE",
"X- c #AF8989",
"X; c #94757F",
"X: c #9E9EAD",
"X> c #0B0E55",
"X, c #0A0E54",
"X< c #7B626D",
"X1 c #655054",
"X2 c #917272",
"X3 c #0F0F3B",
"X4 c #3F3453",
"X5 c #8D6E6E",
"X6 c #5B4954",
"X7 c #1D1D4C",
"X8 c #080A3E",
"X9 c #898AAC",
"X0 c #606291",
"Xq c #705758",
"Xw c #2B2653",
"Xe c #0A0D4D",
"Xr c #090D4C",
"Xt c #34365F",
"Xy c #090B38",
"Xu c #070936",
"Xi c #26295B",
"Xp c #AB878B",
"Xa c #0A0D50",
"Xs c #5A4863",
"Xd c #B99292",
"Xf c #090C45",
"Xg c #B79090",
"Xh c #624D4D",
"Xj c #B58E8E",
"Xk c #604B4B",
"Xl c #69556B",
"Xz c #101359",
"Xx c #534352",
"Xc c #06082E",
"Xv c #5F6082",
"Xb c #765E71",
"Xn c #343665",
"Xm c #735C6E",
"XM c #12123D",
"XN c #090C48",
"XB c #2C2D67",
"XV c #735A5A",
"XC c #060831",
"XZ c #0B0F57",
"XA c #161844",
/* pixels */
".O.O.O.O.O n G u.H.E x !.t.O.O.O.O.g.*.`.*Xt.j.O.O.O.O.O.O.O.O.O",
".O.O.O.OX: f L.x V.E.HXyX0X=.O.O ~Xc.4 t G.z.o c.O.O.O.O.O.O.O.O",
".O.O.O.OXn.:.:.K.5.5XM.E.=X9.OXv f.D.D.D.zXc.B.;.O.O.O.O.O.O.O.O",
".O.O.O.O ` o.QX< K.%Xs.` B.oX9.L.L 4Xs d.m EXC.(X9.O.O.O.O.O.O.O",
".O.O.O ).QXe.a.].lX-.N.hXc 8 q yXr.Q e KX-.I.E = P v.O.O.O.O.O.O",
".O.O.O ZXr S 2.A.l O 3._ E / >.sXe y D @.Y.N.h / >.VX=.O.O.O.O.O",
".O.O.O.oXeXa R.>.c.% Q <X;.E.` +XBX7 D '  .C.) E.E U.P.O.O.O.O.O",
".O.O.OXr.n Y 9 5 ; 0X* 3 H C / =.=.S : m #.< H.I / B.=.j.O.O.O.O",
".O.O ) S Y i D D.-.G.r., H 3XMXc 8 NX1 M.% g 3 <.hXc.&.=.t.O.O.O",
".O.O Z.n.6.  1 : r.9.fX@ 3.[.r..XC.K d.l.F (., < H E / 8Xn.O.O.O",
".O.O.W Y.1 ,Xh R.b V z bXp H <.T.E V p r @.fX@ 3.[X&..XCXO Z.O.O",
".O.O.n i s.8.bXc.4 t./.D.W J.[.) A.2Xc /.. z.8 * H < b / B.5.j.O",
".O ) Y.3Xz.!X$.D.D.D..Xc.B.P.N.[Xs V.E.2 tXcX .W %.[.N.8 / B.K.O",
".OX. iX>Xo.L.L 4.m.v I LXC.( | <.#.! fX$X$XuXc j.; H.[X& L /.D v",
".O.W.6.6 o.QXr + K.FX*.m.E = PXv `.Q kX<.i.iXu.w.( |.[ *.z u..Xv",
".OXo.6Xo.Q.aXe 2.'.9 Q * a / >.y y.u.d.^ KX@XmXcXy.s J C j.. uXv",
" ).6X> s.QXe.n R.'.9X- HX&.z.E U P S R.' eX@ H.{.E > qXw.D.`.H.g",
".OXZ -.1.u.nXa R.'.^ O., < b / B.= . 9.'.J ^Xd.).`XC ! FX8Xu a.O",
".OX0 -X,XeXaXo.~Xq.^.}X@.N <.hXc.&.=X6.'.9.fXj <XmXc =Xi !XAX=.O",
".O.O.VXo.n i ,XhXV m K.RXg.[.) E / 8.(XV @.}.U.N HX4XcXy N c.O.O",
".O.O.OXe Y.1 IXk { M.F.p Q 3.[.I..XC xXVX5.%.R.,.[.).Z.EX+ X.O.O",
".O.O v.n i s 9XkXV.l.G $ gXg < < C / ].q.^.F  X@.N.[.I....XO.P.O",
".O.O [ Y.3 ..'Xk.0 ;.9.} (Xj 3.[ 3.8 h.0 m.G.@.YXg < < C /.z p.j",
".O.O.s iX>.v 1XkXV.-X2 K.pX* 7 H.[Xp }Xq M.7.}.R.<Xd.[ 3 A.2.&Xt",
".O.OXa.3.3 C.>Xh { r ' 0.@X-Xj 3.[.[ E./.{.+ K  .UXg <.[.I.zXcXu",
".O v i.6Xo wXh.>XV rX5.F.$ (X@ 7.N.T.{.E t.e 0.fX-XjXd _ C BXXXC",
".O [ i iXeXqXk.>XV T.^.J.|.p gXj.,.d.D.`.H.k e.$ (.UXg _.hX$ /XX",
".OX. lXZXBX6Xk.A { T m.7 0.@.IXl.#.#X8Xu.Z.^.J.%.p.Y.rXb.!XuXC u",
".O v.X - s.1 zX1.+.kX5.i.M I W W.:.!X#X3.+ m.7 KX%XlXw.# &X$.xX:",
".O.O.V - -XZ.3.n.u.u.Q.u o.Q `Xf.: & &Xx.k.S C 2 `.L W 6X8 fX:.O",
".O.O.O [ -.X l.3XoXa.nXeXr `XNXf.LXa i S S.uXe.a.QXNXf 6 ! v.O.O",
".O.O.O.OX= [.y.6 iXa S.u.o X X .XZX>X, YXa SXe o `XN ! [.O.O.O.O"
};
