/* XPM */
static const char * IconCrvEvlNormal[] = {
/* width height ncolors chars_per_pixel */
"32 32 237 2",
/* colors */
"   c #07216A",
" . c #481212",
" X c #9A3B3B",
" o c #6C1B1B",
" O c #080B6B",
" + c #060F55",
" @ c #5C657B",
" # c #A38282",
" $ c #671919",
" % c #7D5656",
" & c #5E5F94",
" * c #B2A1A1",
" = c #070A63",
" - c #5A1616",
" ; c #201736",
" : c #C9A7A7",
" > c #041542",
" , c #C8BDBD",
" < c #692E3F",
" 1 c #05084D",
" 2 c #041238",
" 3 c #0A0E69",
" 4 c #641919",
" 5 c #070A66",
" 6 c #051A50",
" 7 c #DCD7D7",
" 8 c #06095B",
" 9 c #050850",
" 0 c #8F90B3",
" q c #6C1A1A",
" w c #0B0E6D",
" e c #5F1A21",
" r c #050746",
" t c #070A69",
" y c #5F1717",
" u c #9DA0B0",
" i c #992F2F",
" p c #06095E",
" a c #161971",
" s c #975B5B",
" d c #761D1D",
" f c #060854",
" g c #BBBFCA",
" h c #050853",
" j c #932929",
" k c #050749",
" l c #691A1A",
" z c #8E8FAB",
" x c #060961",
" c c #471620",
" v c #05194C",
" b c #060857",
" n c #05074C",
" m c #641818",
" M c #8E8EA4",
" N c #DED8D8",
" B c #030536",
" V c #5D5F8B",
" C c #D6D7DA",
" Z c #7B1E1E",
" A c #31336D",
" S c #041644",
" D c #6E1B1B",
" F c #BABAC5",
" G c #0C0F6D",
" H c #061E5D",
" J c #0A0D6B",
" K c #090D6A",
" L c #611818",
" P c #C39999",
" I c #541515",
" U c #ABABC0",
" Y c None",
" T c #04133D",
" R c #824242",
" E c #973939",
" W c #5E5F92",
" Q c #BFAFAF",
" ! c #05184B",
" ~ c #293B6B",
" ^ c #661919",
" / c #061D59",
" ( c #8A2222",
" ) c #070A64",
" _ c #591616",
" ` c #060959",
" ' c #16196C",
" ] c #151C61",
" [ c #21142E",
" { c #05084E",
" } c #572121",
" | c #9EA5B9",
".  c #050744",
".. c #090C69",
".X c #9E9FB9",
".o c #070A67",
".O c #9E7777",
".+ c #5D6783",
".@ c #DBD7D7",
".# c #06095C",
".$ c #414482",
".% c #612424",
".& c #050851",
".* c #9C5454",
".= c #6B1A1A",
".- c #061F5F",
".; c #050747",
".: c #0A0E6D",
".> c #080C6B",
"., c #070A6A",
".< c #04063C",
".1 c #913232",
".2 c #06095F",
".3 c #531616",
".4 c #424486",
".5 c #060855",
".6 c #050854",
".7 c #754B4B",
".8 c #BABBCA",
".9 c #05074A",
".0 c #15175D",
".q c #681A1A",
".w c #061C58",
".e c #04063F",
".r c #323580",
".t c #B3A2A2",
".y c #3F4165",
".u c #060962",
".i c #323476",
".p c #662525",
".a c #060858",
".s c #5D2426",
".d c #4C1212",
".f c #072166",
".g c #701B1B",
".h c #874242",
".j c #AA6161",
".k c #080B67",
".l c #323479",
".z c #DDD8D8",
".x c #030537",
".c c #D7D7DC",
".v c #D6D7DB",
".b c #866565",
".n c #561515",
".m c #491212",
".M c #313264",
".N c #6D1B1B",
".B c #0C0F6E",
".V c #04133B",
".C c #0A0D6C",
".Z c #6E414A",
".A c #B8A3A3",
".S c #601818",
".D c #9A3030",
".F c #C29999",
".G c #C1AFAF",
".H c #ABABC1",
".J c #6A3C3C",
".K c #752929",
".L c #233259",
".P c #070A62",
".I c #060A61",
".U c #4E1313",
".Y c #721C1C",
".T c #041541",
".R c #713232",
".E c #041237",
".W c #651919",
".Q c #070A65",
".! c #060A64",
".~ c #581616",
".^ c #051A4F",
"./ c #06095A",
".( c #A898A3",
".) c #414480",
"._ c #05084F",
".` c #0B0E6C",
".' c #040744",
".] c #7A2A2A",
".[ c #090C6A",
".{ c #142D6E",
".} c #906767",
".| c #070A68",
"X  c #051A52",
"X. c #06095D",
"XX c #131542",
"Xo c #771D1D",
"XO c #CEBEBE",
"X+ c #050852",
"X@ c #6A1A1A",
"X# c #040747",
"X$ c #15175B",
"X% c #B5A2A2",
"X& c #5D6987",
"X* c #5D1717",
"X= c #060960",
"X- c #ABACC3",
"X; c #682525",
"X: c #060856",
"X> c #050855",
"X, c #BABBCB",
"X< c #05074B",
"X1 c #30325E",
"X2 c #8E8FAD",
"X3 c #7E4141",
"X4 c #842626",
"X5 c #041136",
"X6 c #031135",
"X7 c #040640",
"X8 c #5E6095",
"X9 c #8E8EA3",
"X0 c #061A59",
"Xq c #8D8EA2",
"Xw c #DFD8D8",
"Xe c #0E296E",
"Xr c #942F2F",
"Xt c #31336C",
"Xy c #41437F",
"Xu c #B19797",
"Xi c #072167",
"Xp c #4B1212",
"Xa c #9F6B6B",
"Xs c #AF9595",
"Xd c #6F1B1B",
"Xf c #C6BCBC",
"Xg c #303261",
"Xh c #582222",
"Xj c #061E5C",
"Xk c #8E8EA6",
"Xl c #621818",
"Xz c #080B68",
"Xx c #030538",
"Xc c #D7D7DD",
"Xv c #DCD8D8",
"Xb c #551515",
"Xn c #AAABBE",
/* pixels */
" Y Y Y Y Y Y Y Y Y Y Y Y Y Y Y Y Y Y Y Y Y Y Y YX2 U Y Y Y Y Y Y",
" Y Y Y Y Y Y Y Y Y Y Y Y Y Y Y Y Y Y Y Y Y Y.vXt.P 0 Y Y Y Y Y Y",
" Y Y Y Y Y Y Y Y Y Y Y Y Y Y Y Y Y Y Y Y YXk { p.[.4 Y Y Y Y Y Y",
" Y Y Y Y Y Y Y Y Y Y Y Y Y Y Y Y Y Y Y C.MX+X. ) w ' Y Y Y Y Y Y",
" Y Y Y Y Y Y Y Y Y Y Y Y Y Y Y Y Y Y MX# f 8 x K.>.Q Y Y Y Y Y Y",
" Y Y Y Y Y Y Y Y Y Y Y Y Y Y Y Y CXgX< h./.2.Q.` O.o.H Y Y Y Y Y",
" Y Y Y Y Y Y Y Y Y Y Y Y Y Y YX9.  n h ` p.u.k w.,.| W Y Y Y Y Y",
" Y Y Y Y Y Y Y Y Y Y Y Y Y CX1 r {X>.aX. x.!...:.,.|.$ Y Y Y Y Y",
" Y Y Y Y Y Y Y Y Y Y Y YX9X7 k._.6 b.#X=.u 5.`.C., tX= Y Y Y Y Y",
" Y Y Y Y Y Y Y Y Y Y Y Y zX$ 9.6 b 8.2 x.!Xz G O., t.u.c Y Y Y Y",
" Y Y Y Y Y Y Y Y Y Y Y Y Y YX,Xy 8X.X=.u.Q...B O.,.,.Q.H Y Y Y Y",
" Y Y Y Y Y Y Y Y Y Y Y Y Y Y Y YXc & p.! 5 J.B.,.,.,.Q.) Y Y Y Y",
" Y Y Y Y Y Y Y Y Y Y Y Y Y Y Y Y Y F.x 9 = 3 w.,.,., 5.l Y Y Y Y",
" Y Y Y Y Y Y Y Y Y Y Y Y Y Y Y Y Y.y.e {X: b.i a.,.,.o.2 Y Y Y Y",
" Y Y Y Y Y Y Y Y Y Y Y Y Y Y Y Y C B.;X+ b.0 Y YX-.r.o.I.8 Y Y Y",
" Y Y Y Y Y Y Y Y Y Y Y Y Y Y Y YXq.< 1X> b V Y Y Y YXcX8.X Y Y Y",
" Y Y Y Y Y Y Y Y Y Y Y Y Y Y Y YXX.'.&X: f.v Y Y Y Y Y Y Y Y Y Y",
" Y Y Y Y Y Y Y Y Y Y Y Y Y Y Y uXx.9.6 b A Y Y Y Y Y Y Y Y Y Y Y",
" Y Y Y Y Y Y Y Y Y Y Y Y Y Y.+ 6X0 +X:.5Xn Y Y Y Y Y Y Y Y Y Y Y",
" Y Y Y Y Y Y Y Y Y Y Y.zXa.Z >X .-Xe   ] Y Y Y Y Y Y Y Y Y Y Y Y",
" Y Y Y Y Y Y Y Y.@Xs R.Y d e T v /.{Xi.f Y Y Y Y Y Y Y Y Y Y Y Y",
" Y Y Y Y Y Y Y.@.%.=Xd q $ cX6.T.^.w HXj.( Y Y Y Y Y Y Y Y Y Y Y",
" Y Y Y Y Y YXv.pX@.N lX*.d ; 2X6 S ! 6 <.D : Y Y Y Y Y Y Y Y Y Y",
" Y Y Y Y YXvX;X@.N $Xb.b Y | ~.EX5.V [ q E i.F Y Y Y Y Y Y Y Y Y",
" Y Y Y YX%X* l q.W.n * Y Y Y gX&.L @.s.U.W.1.D P Y Y Y Y Y Y Y Y",
" Y Y Y.t _.q q $.%.@ Y Y Y Y Y Y Y Y Y.RXp 4 X j.jXw Y Y.G.O Y Y",
" Y YXf I $ q l.%.@ Y Y Y Y Y Y Y Y Y Y N.hXp LX4Xr (.*.]Xd DXO Y",
" Y.@ }.W oX@.p 7 Y Y Y Y Y Y Y Y Y Y Y YXw s ..~ qXo ZXo.gX@X3 Y",
" Y %Xl.= qX;Xv Y Y Y Y Y Y Y Y Y Y Y Y Y Y YXu.3.mXb L y -Xb } ,",
" ,.SX@ o m.A Y Y Y Y Y Y Y Y Y Y Y Y Y Y Y Y Y N Q.7XhXp.JXf Y Y",
" Y.z.K ^.} Y Y Y Y Y Y Y Y Y Y Y Y Y Y Y Y Y Y Y Y Y Y Y Y Y Y Y",
" Y Y Y # Y Y Y Y Y Y Y Y Y Y Y Y Y Y Y Y Y Y Y Y Y Y Y Y Y Y Y Y"
};
