/* XPM */
static const char * IconWindowsSetUp[] = {
/* width height ncolors chars_per_pixel */
"32 32 242 2",
/* colors */
"   c #D6D6D6",
" . c #E8E7E8",
" X c #E8E8E7",
" o c #E8E8E8",
" O c #FAF9F9",
" + c #FAFAFB",
" @ c #FAFBFA",
" # c #E8EFEA",
" $ c #B3ADBE",
" % c #B3B3B6",
" & c #C5C7C8",
" * c #D7D7D5",
" = c #D7D7D7",
" - c #D7D7D8",
" ; c #E9E8E8",
" : c #D7DCE2",
" > c #E9E9E9",
" , c #B4A6B0",
" < c #5B4958",
" 1 c #E9EDE9",
" 2 c #5B4C58",
" 3 c #FBFCFD",
" 4 c #FBFDFD",
" 5 c #5B4E57",
" 6 c #5B5357",
" 7 c #A2A6A6",
" 8 c #5B5D5D",
" 9 c #6AD043",
" 0 c #D8D8D8",
" q c #D8D9D9",
" w c #EAEAEA",
" e c #59B035",
" r c #FCFCFC",
" t c #5A9436",
" y c #6BC746",
" u c #C7C4C4",
" i c #D9D1CA",
" p c #6E667E",
" a c #5A9E3A",
" s c #D9D9D9",
" d c #D9D9DA",
" f c #D9DADB",
" g c #EBEBEB",
" h c #6E767E",
" j c #FDFDFD",
" k c #FDFEFE",
" l c #5D4E60",
" z c #FDFEFF",
" x c #FDFFFF",
" c c #A3C3A4",
" v c #4A702C",
" b c #C8C8C9",
" n c #B6BCCA",
" m c #C8CACC",
" M c #DAD7D6",
" N c #5BA43F",
" B c #DADAD8",
" V c #DADADA",
" C c #DADCDE",
" Z c #ECEAE9",
" A c #6CD84C",
" S c #DADFE5",
" D c #5BAC36",
" F c #DAE0E6",
" G c #DAE3DC",
" H c #DAE5DB",
" J c #FEFEFE",
" K c #5E5162",
" L c #5E5461",
" P c #C9C9C6",
" I c #5E6152",
" U c #EDE5E4",
" Y c #B7C0C8",
" T c #DBDADA",
" R c #DBDBDB",
" E c #DBDBDC",
" W c #EDEDED",
" Q c #948F96",
" ! c #EDEEF1",
" ~ c #FFFFFF",
" ^ c #A4EF93",
" / c #716B7D",
" ( c #4C792D",
" ) c #DCDCDC",
" _ c #DCDCDD",
" ` c #DCDDDC",
" ' c #DCE0D4",
" ] c #EEEDED",
" [ c #EEEEEE",
" { c #709B5D",
" } c #4E414F",
" | c #5DB73B",
".  c #5F7D51",
".. c #CBCCCD",
".X c #DDDCDD",
".o c #DDDDDD",
".O c #DDDDDE",
".+ c #DDDEDE",
".@ c #DDE1E8",
".# c #5EAF3D",
".$ c #EFEFEF",
".% c #EFF0F0",
".& c #EFF1F2",
".* c #5F9849",
".= c #BAB5B8",
".- c #607955",
".; c #DED8D7",
".: c #CCCDCC",
".> c #736F77",
"., c #F0E7E7",
".< c #60894F",
".1 c #DEDEDE",
".2 c #DEDEDF",
".3 c #DEDFDF",
".4 c #DEE3E3",
".5 c #F0F1F2",
".6 c #5FBB3E",
".7 c #CDC6C5",
".8 c #BBBCBF",
".9 c #BBC2C7",
".0 c #DFDFDE",
".q c #DFDFDF",
".w c #DFE0E0",
".e c #AAA6B2",
".r c #CECBCA",
".t c #CECDCD",
".y c #CECFD1",
".u c #CED2D2",
".i c #E0DFE0",
".p c #E0E0E0",
".a c #757687",
".s c #508331",
".d c #F2F2F2",
".f c #757C74",
".g c #F2F3F4",
".h c #E0E7E0",
".j c #E0EADF",
".k c #64545E",
".l c #524B4F",
".z c #645A61",
".x c #61C041",
".c c #E1D3D1",
".v c #52524C",
".b c #61C43F",
".n c #74B062",
".m c #61C640",
".M c #ABB4BB",
".N c #61C73E",
".B c #CFCFCF",
".V c #61CA3E",
".C c #E1E1E1",
".Z c #E1E1E2",
".A c #53424F",
".S c #534551",
".D c #E1EBE2",
".F c #534851",
".G c #E2CFCF",
".H c #D0CECD",
".J c #535854",
".K c #D0D0CF",
".L c #BEC8C5",
".P c #E2E1E3",
".I c #E2E2E2",
".U c #F4F4F5",
".Y c #F4F5F5",
".T c #544652",
".R c #63CA41",
".E c #8A7F8C",
".W c #D1D1D0",
".Q c #63CB40",
".! c #63CF3F",
".~ c #E3E3E2",
".^ c #E3E3E3",
"./ c #63D23D",
".( c #63D33D",
".) c #787B91",
"._ c #63D63E",
".` c #F5F5F5",
".' c #F5F6F7",
".] c #9C9AA9",
".[ c #538E2F",
".{ c #64C842",
".} c #E4DDD7",
".| c #67666D",
"X  c #D2D2D1",
"X. c #64D041",
"XX c #E4E3E3",
"Xo c #64D141",
"XO c #E4E4E4",
"X+ c #E4E4E5",
"X@ c #64D341",
"X# c #F6F6F6",
"X$ c #64D93F",
"X% c #56495B",
"X& c #C1C1C1",
"X* c #549E2F",
"X= c #D3D3D2",
"X- c #D3D3D3",
"X; c #D3D3D4",
"X: c #E5E3E3",
"X> c #E5E5E4",
"X, c #E5E5E5",
"X< c #E5E5E6",
"X1 c #57425A",
"X2 c #E5E6E5",
"X3 c #574459",
"X4 c #F7F7F6",
"X5 c #F7F7F7",
"X6 c #F7F8F8",
"X7 c #F7F8FC",
"X8 c #F7FAFA",
"X9 c #8C90A6",
"X0 c #F7FDFD",
"Xq c #575864",
"Xw c #E6DCDE",
"Xe c #D4D4D4",
"Xr c #8D848F",
"Xt c #D4D9DD",
"Xy c None",
"Xu c #E6E7E7",
"Xi c #E6E9E9",
"Xp c #58465D",
"Xa c #584754",
"Xs c #F8F7F7",
"Xd c #F8F8F7",
"Xf c #568B3B",
"Xg c #E6ECE6",
"Xh c #584954",
"Xj c #F8F9F8",
"Xk c #576B48",
"Xl c #F8FDFD",
"Xz c #9F9FAF",
"Xx c #C3C3C2",
"Xc c #D5D4D4",
"Xv c #D5D5D5",
"Xb c #D5D5D6",
"Xn c #E7E6E6",
"Xm c #8E8A91",
"XM c #F9F9FA",
"XN c #594B56",
"XB c #A09EBD",
"XV c #579735",
/* pixels */
".4XiX6 4 z ~ z 3 j x 3 z ~ 3 k j J j k 3 r j r j J + r j OX4.` W",
".7.7.% WX,XOXy wXuXO wXXX, WXOX,Xy o . > w > ;XuXy w ; o >.^ XXn",
" , , ! BX X-X-.KX=X; q qXx.W.u CXe.H P _.H.H.O P.r 0.u.WXc.: E.o",
" % $X7.;.hXsXj M 'XM ].,.; MXw.,.,.} i + iXw +.rXw.,.8 Z.c '.g f",
" , ,X6 U U.$.$ Z U [Xw.G.c.G.c.G.G.iX<.0.O 0 =X+X:.P.@X:.j.D.jX2",
".8 $XmXrXrXmXrXr.EXm 7.].].e %.= %.e.]Xz.y :.@ F F.@ F.@ F F :..",
"X;XB }.A.S.l.A.SXf |.b.n cXmXm QXm.E.>.).&X5.Y.'.'.`.'.'.`X6.U d",
" mXB l 5Xp < 2.#X$Xo 9 A ^ ' QXrXr.E.>.) ! RX;.B.KXv.K.BXe & bXe",
".9XBXp 6. Xk.*X$.(.!.x A ^ ^ c { {.f.|.a.U.3XvXvX-.o ) E.I R 0..",
"...]XpXk.x D./.6.*.  I. .n.n AXo./ {.k.aX7.&.1.I.1.5 ~ ~ ~ ~XM.t",
" bXzXp. .< a.(.*X1Xp.k.k.k { A y {.< 2 /X7 O.p )XX =.^X=X  V W.H",
" uXBXp I.b D.V.{.x.* I.*.x.mX..R._.-X3 /X7Xs.I s.C R o T s.1 W.K",
" &XBXp 5 8 6. X$Xo./X../.!X$.< 8 I 6.F pX7Xd.I.o.q.oX>    .w.g.t",
".L.]XpXhX3XNX3.<.(./././._.*X3XNXa 2.S pX7Xd.2 s.q.q sXe.q.5.`.:",
".= Q K L L.z L K.-.*.x.*.- l K L L L 5 /X7Xs.Z 0X,.o =  Xu J.%.t",
" P.M h.> /.> / p p p.f.f p.>.>.f p p.|XmX8Xs ) R.C.p.1X, =.WXe.K",
".c &.JXhXhXhX3Xk N.6.V 9.m.b | e t I.A hX0Xs.o V.C.C ).C s 0Xb.t",
" i.=XqXN 6 <.<._X@X@.! 9X*X*Xo.N D D.v hXlXs ) d.C.p ).I 0Xv R M",
".7 %XqXNX% I.!.!X@ eXV.[ ( D.QXoX* (.v hX0Xs ) d.C.p ).I = -.C.i",
" P 7XqXN 2.J.NX. | (.[ t aX@.Q._Xf 2.T hXlXs ` V.C.p.o.^ 0.+X,.X",
".=XmXq 5X3Xk.VX. eXV.x.xXoX.X@ e.v l.F hX0Xs ` V.^.C R.qX- s.o.O",
".7 7XqXa I.{X@.QXo.Q.R.{.N.6X* v.v l.S hXlXs.IX,Xe.w o + j r O.2",
" $X9XqXa.#.N DX$X*.[X*X*X*.[.s v 2 6.S hXlXs.+ =XO V ) gX6 ~ +.2",
" $X9XqXN vX*.N e (.s.[.[Xf.s I I 5 l.T hXlXs >.p gXnXy.% + ~ r.2",
" $X9Xq.A.F.v ( v.v.F.l.l.F.TX3.T.FXh } h ! =.t.t.B.%.d.dXjXd.U E",
"XBXB.M Y.9 n Y Y n Y Y Y.9 Y.M.M n.9 Y m F S S S : :Xt :.@.@Xt m",
" n n g.ZX+ o.^X<Xy.W.2 0.W qXyXy WX+X,.^.2 q.2   0.^.^ q _.O _ 0",
" *.~ 1XgX2 1.h GXgX2 G.d [.d.d.1.oXc.B.3XOX# OX4XdX6 +X#X#X6.`.p",
".K _Xg.j.D.D.j H.DXgXg j ~ ~.`.C.p.C.I.p ) g.d ~ ~ ~ ~ ~ ~ ~ @.2",
"  .C ~.D H H H 1 H H.j # ~ ~X6 ;Xy W w.^X< W W j ~ j ~ ~ ~ ~ O E",
".tXv R V R.$ [.$.% oX  0  XvXv s.q s R.^ = E V   s.^ 0X-.W.W d o",
"XxX& bXx b X XXn XXXX&.8 PX&X&X&X& %.= mXx u.t b b V bXxX&X& b E"
};
