/* XPM */
static const char * IconViewFront[] = {
/* width height ncolors chars_per_pixel */
"32 32 139 2",
/* colors */
"   c #000000",
" . c #8D3D42",
" X c #171727",
" o c #191954",
" O c #A9A9A9",
" + c #171752",
" @ c #4F4F7F",
" # c #B4AFB7",
" $ c #17173E",
" % c #536133",
" & c #B0B0C0",
" * c #6A1708",
" = c #141448",
" - c #4C4C75",
" ; c #BDBDC6",
" : c #19195A",
" > c #575779",
" , c #CFCDC7",
" < c #A2A2B2",
" 1 c #B0B0C3",
" 2 c #6F2727",
" 3 c #671708",
" 4 c #1B1B5F",
" 5 c #151503",
" 6 c #161650",
" 7 c #5B5B83",
" 8 c #A4A4BA",
" 9 c #AFAFBE",
" 0 c #4D4D75",
" q c #C4AFAB",
" w c #131346",
" e c #233345",
" r c #D7D7DB",
" t c #AB99A6",
" y c #9696AF",
" u c #1A1A5D",
" i c #665476",
" p c #171725",
" a c #3D3D3D",
" s c #963535",
" d c #532E0A",
" f c #4F4F7D",
" g c #803F33",
" h c #324107",
" j c #15150F",
" k c #181808",
" l c None",
" z c #121241",
" x c #2D2D2D",
" c c #171753",
" v c #4E2E08",
" b c #141446",
" n c #D6D6D6",
" m c #171700",
" M c #19192D",
" N c #191958",
" B c #B0B0C1",
" V c #141449",
" C c #95B68F",
" Z c #191930",
" A c #19195B",
" S c #69698F",
" D c #161623",
" F c #16164E",
" G c #3E3E68",
" H c #522B08",
" J c #6E2727",
" K c #472A07",
" L c #1B1B60",
" P c #4A244C",
" I c #933434",
" U c #D8DDD7",
" Y c #8B4E43",
" T c #621507",
" R c #14143B",
" E c #9494A8",
" W c #AD998F",
" Q c #181856",
" ! c #141427",
" ~ c #AFC5AB",
" ^ c #151549",
" / c #5D5D89",
" ( c #2B4C08",
" ) c #B1B1C4",
" _ c #532A08",
" ` c #15154C",
" ' c #D5C3C3",
" ] c #671608",
" [ c #181806",
" { c #BEBECA",
" } c #1A1A5E",
" | c #171751",
".  c #4F4F7E",
".. c #641608",
".X c #4C4C71",
".o c #171754",
".O c #C9C9D1",
".+ c #141447",
".@ c #635D84",
".# c #894D43",
".$ c #2F1B47",
".% c #191959",
".& c #2C4F08",
".* c #19191A",
".= c #B0B0C2",
".- c #2C163A",
".; c #D8D8DC",
".: c #A37870",
".> c #231C5C",
"., c #151502",
".< c #281D43",
".1 c #282864",
".2 c #232355",
".3 c #4E8C43",
".4 c #4E8A43",
".5 c #4F2D09",
".6 c #AFAFBD",
".7 c #191441",
".8 c #8A4E43",
".9 c #131345",
".0 c #CDC0C0",
".q c #733333",
".w c #9494A9",
".e c #181857",
".r c #141428",
".t c #565676",
".y c #273855",
".u c #413C08",
".i c #4B2D08",
".p c #15154A",
".a c #AFAFC0",
".s c #4A2B07",
".d c #95B58F",
".f c #9B95A9",
".g c #1A1A5C",
".h c #B9B9B9",
".j c #4F4F7C",
".k c #5E506D",
".l c #813F33",
/* pixels */
" l l l l l l l l l l l l l l l l l l l l l l l l l l l l l l l l",
" l l l l l l l l l l l l l l l l l l l l l l l l l l l l l l l l",
" l l l O O O O O O O O O O O O l l l l l l l l l l l l l l l l l",
" l l O                         l l l l l l l l l l l l l l l l l",
" l l     x a a a a a a a a a a l l l l l { { l l l l l l l l l l",
" l l     O l l l l l l l l l l l l l l l.a B l l l l l l l l l l",
" l l     O l l l l l l l l l l l l l l l.a.= l l l l l l l l l l",
" l l     O l l l l l l l l l l l l l l l.= & l l l l l l l l l l",
" l l     O l l l l l l l l l l l l l l l ) B l l l l l l l l l l",
" l l     O l l l l l l l l l l l l l l l ).= l l l l l l l l l l",
" l l     O l l l l l l l l l l l l l l l 1 B l l l l l l l l l l",
" l l     x a a a a a.h l l l l l l l l l.6 B l l l l l l l l l l",
" l l                 O l l l l l l l l l.w B l l l l l l l l l l",
" l l     x a a a a a.h l l l l l l l l l 0 B l l l l l l l l l l",
" l l     O l l l l l l l l l l l l l l l 0 B l l l l l l l l l l",
" l l     O l l l l l l l l l l l l l l l 0 S l l l l l l l l l l",
" l l     O l l l l l l l l l l l l l l l 0 f l l l l l l l l l l",
" l l     O l l l l l l l l l l l l l l l -.  l l l l l l l l l l",
" l l     O l l l l l l l l l l l l l l l.k i l l l l l l l l l l",
" l l     O l l l l l l l l l l l l l l.0 2 I ' l l l l l l l l l",
" l l     O l l l l l l l l l l l l l l.q J s . l l l l l l l l l",
" l l     O l l l l l l l l l l l l l E.7.$ P.>.= l l l l l l l l",
" l l O O n l l l l l l l l l l l l <.+ z c.g 4.1 8 l l l l l l l",
" l l l l l l l l l l l l l l l.6 G.9.9 z c u L.g u @ B l l l l l",
" l l l l l U ~ ~ ~ ~.d.4.4.4 e ^ b w V z 6 } 4 A.g u u.y.3.3.3 C",
" % K.s.& ( h K.s.5 d H T.. _.< + Q : c F.p N.e | b = `.- * * * v",
" l l l l l ,.:.u.i ] ] g.#.#.f.j.e.e $ o.o ` R X V.2 0 # Y.8.l 3",
" l l l W q q l l l l l l l l l l t.% j 5 m m k.* = ; l l l l l l",
" l l l l l l l l l l l l l l l l l.@ Z [ m m., ! > l l l l l l l",
" l l l l l l l l l l l l l l l l l l 7 M p D.r.t l l l l l l l l",
" l l l l l l l l l l l l l l l l l l E.O.a 9.; y l l l l l l l l",
" l l l l l l l l l l l l l l l l l r.X l l l l / l l l l l l l l"
};
