/* XPM */
static const char * IconTransScaleX[] = {
/* width height ncolors chars_per_pixel */
"32 32 144 2",
/* colors */
"   c #461610",
" . c #2CB013",
" X c #271523",
" o c #284B13",
" O c #274B12",
" + c #412F2F",
" @ c #DAC2AE",
" # c #231E82",
" $ c #25194F",
" % c #26229C",
" & c #224910",
" * c #541810",
" = c #311F1F",
" - c #B62814",
" ; c #B2AEAE",
" : c #3131F6",
" > c #711D12",
" , c #3332EE",
" < c #261E74",
" 1 c #251313",
" 2 c #B6E7AE",
" 3 c #2EB114",
" 4 c #2DB113",
" 5 c #35253D",
" 6 c #C2E7BD",
" 7 c #28239A",
" 8 c #2727C4",
" 9 c #924D14",
" 0 c #D9D7D7",
" q c #1E0F0F",
" w c #635656",
" e c #E85F4B",
" r c #C2BDBD",
" t c #3030F1",
" y c #251D6F",
" u c #561911",
" i c #2626BC",
" p c #332020",
" a c #2D2CDA",
" s c #271414",
" d c #251212",
" f c #C4844B",
" g c #83E874",
" h c #A6A1A1",
" j c #201010",
" k c #26218D",
" l c #3434FE",
" z c None",
" x c #E92F13",
" c c #2F2AA3",
" v c #231320",
" b c #264B12",
" n c #22131F",
" m c #2E2EE4",
" M c #35274C",
" N c #2FE913",
" B c #605555",
" V c #B4AEAE",
" C c #30491F",
" Z c #BFBCBC",
" A c #493B3B",
" S c #291515",
" D c #271313",
" F c #544949",
" G c #A8A2A2",
" H c #261515",
" J c #989292",
" K c #221111",
" L c #A099A7",
" P c #2424B5",
" I c #322FD0",
" U c #E7B6AE",
" Y c #281624",
" T c #7B7272",
" R c #5B4C4C",
" E c #28239B",
" W c #5B1B14",
" Q c #625656",
" ! c #6D6464",
" ~ c #C1BDBD",
" ^ c #544FBC",
" / c #251A4F",
" ( c #4B3C3C",
" ) c #3A2828",
" _ c #291414",
" ` c #224810",
" ' c #21480F",
" ] c #AAA3A3",
" [ c #544848",
" { c #736C98",
" } c #5FE84B",
" | c #291B4C",
".  c #241212",
".. c #301F2B",
".X c #2D1E1E",
".o c #2DB013",
".O c #2A4D14",
".+ c #D9E6D7",
".@ c #645757",
".# c #3434FF",
".$ c #251A58",
".% c #28273D",
".& c #341614",
".* c #24194D",
".= c #8FAE84",
".- c #234910",
".; c #322BB4",
".: c #561811",
".> c #2525BB",
"., c #262087",
".< c #B3AEAE",
".1 c #2A1717",
".2 c #261313",
".3 c #492511",
".4 c #482510",
".5 c #A5A0A0",
".6 c #2424B3",
".7 c #261941",
".8 c #2727C3",
".9 c #211111",
".0 c #665858",
".q c #374C23",
".w c #2826BA",
".e c #201327",
".r c #7A7272",
".t c #23184B",
".y c #264A12",
".u c #695E5E",
".i c #CCC9C9",
".p c #332CB4",
".a c #301C1C",
".s c #474839",
".d c #281414",
".f c #A9A3A3",
".g c #272294",
".h c #877B7B",
".j c #251F88",
".k c #33275A",
".l c #251414",
".z c #261840",
".x c #231212",
".c c #B86013",
".v c #211010",
".b c #3636FF",
/* pixels */
" z z z z z z z z z z z z z z z z z z z z z z z z z z z z z z z z",
" z z z z z z z z z z z z z z z z z z z z z z z z z z z z z z z z",
" z z z z z z z z z z z z z z z z z z z z z z z z z z z z z z z z",
" z z z z z z z z z z z z z z z z z z z z z z z z z z z z z z z z",
" z z z z z z z z z z z z z z z z z z z z z z z z z z z z z z z z",
" z z z z z z z z z z z z z z z z z z z z z z z z z z z z z z z z",
" z z z z z z z z z z z z z z z z z z z z z z z z z z z z z z z z",
" z z z z z z z z 6 } } } } f e e e e e } } } } g z z z z z z z z",
" z z z z z z z z 2 N N N N.c x x x x x N N N N } z z z z z z z z",
" z z z z z z z z 2 N N N N.c x x x x x N N N N } z z z z z z z z",
" z z z z G (.r z 2 N N N N.c x x x x x N N N N } z 0 {.h z z z z",
" z z z h.v q J z 2 N N N N.c x x x x x N N N N } z.i +.x.u z z z",
" z z h q.e.2 [ z 2 N N N N.c x x x x x N N N N } z V.2 K.  Q z z",
" z.5 q.t.w 7 Z z 2 N N N N.c x x x x x N N N N } z 0 ^ I.p.2 B z",
" h j.$ 8.g.2.X [.s & ' `.-.4.: >   * *.- ` ' & C F A.2 /.b.; X B",
" d., i.> k.2 n |.% o O b.y.3 u.&.2 1 d. .x K K.v.v.9 K $.# l , Y",
".2 # P.6.j K K. .1 p.  1 = ) H K K K K K K K K K K K K.* : t a v",
".f. .t.8 %.z ! ;.= ..o 4 3 9 - - W W W.O.O.O.O.q R R M < m E D.0",
" z ].2.k c.7 T z 2 N N N N.c x x x x x N N N N } z ~ M y.g _.@ z",
" z z ].d.l.2 [ z 2 N N N N.c x x x x x N N N N } z V.2 K.a w z z",
" z z z ] S.. T z 2 N N N N.c x x x x x N N N N } z ~ 5 s B z z z",
" z z z z r L z z 2 N N N N.c x x x x x N N N N } z 0.< J z z z z",
" z z z z z z z z 2 N N N N.c x x x x x N N N N } z z z z z z z z",
" z z z z z z z z 2 N N N N.c x x x x x N N N N } z z z z z z z z",
" z z z z z z z z.+ 2 2 2 2 @ U U U U U 2 2 2 2 6 z z z z z z z z",
" z z z z z z z z z z z z z z z z z z z z z z z z z z z z z z z z",
" z z z z z z z z z z z z z z z z z z z z z z z z z z z z z z z z",
" z z z z z z z z z z z z z z z z z z z z z z z z z z z z z z z z",
" z z z z z z z z z z z z z z z z z z z z z z z z z z z z z z z z",
" z z z z z z z z z z z z z z z z z z z z z z z z z z z z z z z z",
" z z z z z z z z z z z z z z z z z z z z z z z z z z z z z z z z",
" z z z z z z z z z z z z z z z z z z z z z z z z z z z z z z z z"
};
