/* XPM */
static const char * IconGenGeomRoot[] = {
/* width height ncolors chars_per_pixel */
"32 32 94 2",
/* colors */
"   c #7979AF",
" . c #A7C8C8",
" X c #727FA8",
" o c #39628A",
" O c #39408A",
" + c #5D6AA0",
" @ c #92B2B9",
" # c #92ACB9",
" $ c #4F9898",
" % c #A1C1C1",
" & c #9292B9",
" * c #4F7898",
" = c #487C91",
" - c #487891",
" ; c #4F6298",
" : c #486A91",
" > c #486291",
" , c #0F7373",
" < c #0F6573",
" 1 c #0F5F73",
" 2 c #484891",
" 3 c #0F5973",
" 4 c #1E747B",
" 5 c #0F5373",
" 6 c #1E627B",
" 7 c #0F4573",
" 8 c #F8F8F8",
" 9 c #DEE5E5",
" 0 c #0F2F73",
" q c #0F2973",
" w c #0F2373",
" e c #D7D7DE",
" r c #1E3E7B",
" t c None",
" y c #0F0F73",
" u c #BFD3DA",
" i c #1E1E7B",
" p c #BFBFDA",
" a c #ADBBC8",
" s c #EAF0F0",
" d c #EAEAF0",
" f c #ADADC8",
" g c #547898",
" h c #6A7FA7",
" j c #798CAF",
" k c #6379A0",
" l c #39838A",
" z c #397D8A",
" x c #39678A",
" c c #5D93A0",
" v c #C3CFD6",
" b c #BCCFCF",
" n c #BCC9CF",
" m c #BCC3CF",
" M c #5D5DA0",
" N c #92B9B9",
" B c #4F8B98",
" V c #489191",
" C c #488B91",
" Z c #4F7B98",
" A c #488591",
" S c #487791",
" D c #487591",
" F c #4F6998",
" G c #486F91",
" H c #4F5B98",
" J c #4F4F98",
" K c #0F6C73",
" L c #485591",
" P c #1E7B7B",
" I c #FFFFFF",
" U c #0F4C73",
" Y c #1E5B7B",
" T c #0F3873",
" R c #0F3673",
" E c #D7DEDE",
" W c #EDEDED",
" Q c #0F1673",
" ! c #BFDADA",
" ~ c #1E2B7B",
" ^ c #CED5E2",
" / c #ADC8C8",
" ( c #ADBAC8",
" ) c #ADB4C8",
" _ c #549198",
" ` c #D1DEDE",
" ' c #63A0A0",
" ] c #79AFAF",
" [ c #547B98",
" { c #547198",
" } c #638AA0",
" | c #637EA0",
".  c #545B98",
".. c #7985AF",
/* pixels */
" t t t t t t t t t t t t t t t t t t t t t t t t t t t t t t t t",
" t t t t t t t t t t t t t e ) } V = V A N E t t t C _ E t t t t",
" t t t t t t t t t t t b z , , , , , 3 U 3 1 z # / 6 , K X t t t",
" t t t t t t t t t E P , , , U q Q y y y q y y Q U K , 1 2 t t t",
" t t t t t t t t % P , , 5 Q y y { ( a t t e @ w y y w Q 2 t t t",
" W W W W W W W ` $ $ $ F J J h v W W W W W W W . * H J J   W W W",
" I I I I I I I I I I I I I I I I I I I I I I I I I I I I I I I I",
" W W W W W W B $ $ * J J + W W W W W W W W W W W W $ Z J   W W W",
" t t t t t ' , , 1 y y y / t t t t t t t t t t t t > , 0 2 t t t",
" t t t t E K , , Q y y g t t t t t t t t t t t t t | , K 2 t t t",
" t t t t l , , R y y Q b t t t t t t t t t t t t t t b V O t t t",
" t t t E , , , y y y r t t t t t t t t t t t t t t t t t t t t t",
" t t t N , , R y y y S t t t t t t t t t t t t t t t t t t t t t",
" t t t > , , y y y y 2 t t t t t t t t t t t t t t t t t t t t t",
" t t t Y , , y y y y f t t t t t t t t D K K K K K K K K K 4 N t",
" 8 8 8 u ! ! p p p p d 8 8 8 8 8 8 8 8 s ! ! ! ! ! ! ! ! ! ! ! ^",
" I I I I I I I I I I I I I I I I I I I I I I I I I I I I I I I I",
" t t t , , R y y y q t t t t t t t t t t t t > , 3 y y y y f t t",
" t t t , , q y y y q t t t t t t t t t t t t - , 5 y y y Q t t t",
" t t t K , q y y y q t t t t t t t t t t t t V , 3 y y y ~ t t t",
" t t t Y , 3 y y y Q E t t t t t t t t t t t G , 1 y y y 2 t t t",
" t t t ' , 1 y y y y & t t t t t t t t t t t > , 1 y y y : t t t",
" t t t E P , y y y y 2 t t t t t t t t t t t A , 3 y y y : t t t",
" W W W W ] $ ; J J J M W W W W W W W W W W W ] $ $ J J J.. W W W",
" I I I I I I I I I I I I I I I I I I I I I I I I I I I I I I I I",
" W W W W W W c B J J J H 9 W W W W W W W W W j $ B J J J.. W W W",
" t t t t t t E l Q y y y i e t t t t t t t m 6 , < y y y : t t t",
" t t t t t t t t [ 0 y y y i n t t t t a x , , , 3 y y y : t t t",
" t t t t t t t t t n o y y y w 7 3 3 K , , , K T Q y y.  e t t t",
" t t t t t t t t t t t b o y y y y R q U R w y y Q k b t t t t t",
" t t t t t t t t t t t t t E f k 2 w w q O L S f t t t t t t t t",
" t t t t t t t t t t t t t t t t t t t t t t t t t t t t t t t t"
};
