/* XPM */
static const char * IconDataSaveAsImage[] = {
/* width height ncolors chars_per_pixel */
"32 32 158 2",
/* colors */
"   c #CDCDA8",
" . c Gray68",
" X c #943A00",
" o c #484A57",
" O c #D1C1C3",
" + c #9F9F9F",
" @ c #D7CBCC",
" # c #B94C03",
" $ c #4D1E09",
" % c #A46A05",
" & c #4A4C5F",
" * c #1A1D47",
" = c #FD7800",
" - c #818181",
" ; c #401413",
" : c #3A3C4F",
" > c #4A4C62",
" , c #494B57",
" < c #3E4056",
" 1 c #D55400",
" 2 c #EE9D01",
" 3 c #EE9B01",
" 4 c #471C09",
" 5 c #391905",
" 6 c #5F5F5F",
" 7 c #99938E",
" 8 c #794D51",
" 9 c #CDCEAD",
" 0 c #3A3C55",
" q c #383A53",
" w c #ECECBE",
" e c #2E1607",
" r c #F8F8F8",
" t c #BCBC9C",
" y c #BBBC9B",
" u c #CF5200",
" i c #F46000",
" p c #3A1216",
" a c #9D9E8E",
" s c #6A2B03",
" d c #494A56",
" f c #080A34",
" g c #070A33",
" h c #8C3700",
" j c #D4D5B0",
" k c #694505",
" l c #7F5349",
" z c #5C242A",
" x c None",
" c c #55575B",
" v c #CDCDA9",
" b c #37394E",
" n c #FFAA00",
" m c #FFA800",
" M c #E75B00",
" N c #73433D",
" B c #FFA600",
" V c #FFA400",
" C c #FFA200",
" Z c #FFA000",
" A c #FF9E00",
" S c DarkOrange",
" D c #EE5E00",
" F c Orange",
" G c #856741",
" H c #FF7C00",
" J c #9C9D89",
" K c #BF7303",
" L c #4A3407",
" P c #4A3207",
" I c #4A3007",
" U c #07092F",
" Y c #4A2C07",
" T c #FF6E00",
" R c #4A2A07",
" E c #4A2807",
" W c #4A2607",
" Q c #383B55",
" ! c #494C5F",
" ~ c #1A1D48",
" ^ c #484954",
" / c #7C3203",
" ( c #472007",
" ) c #3F1413",
" _ c #ACACAC",
" ` c #5D5F6F",
" ' c #9F6004",
" ] c #CDCEAB",
" [ c #C04C00",
" { c #512B0D",
" } c #ECECBC",
" | c #D0C09A",
".  c #4A3106",
".. c #4A2B06",
".X c #3C3E58",
".o c #A46905",
".O c #9A3E02",
".+ c #8C676B",
".@ c #070A31",
".# c #3D405C",
".$ c #181B3B",
".% c #BCBC9D",
".& c #BBBC9C",
".* c #482107",
".= c #CDCDA7",
".- c #3E1C07",
".; c #602A04",
".: c #191B3F",
".> c #702E03",
"., c #202349",
".< c #805458",
".1 c #813403",
".2 c #F76300",
".3 c #787974",
".4 c #363847",
".5 c White",
".6 c #FE7400",
".7 c #664F34",
".8 c #6A3E42",
".9 c #FE6E00",
".0 c #181A3A",
".q c #292B44",
".w c #AF9496",
".e c #4A4C61",
".r c #3A1116",
".t c #797B7B",
".y c #632909",
".u c #090B38",
".i c #FFA900",
".p c #FFA700",
".a c #453C34",
".s c Orange1",
".d c #4D151B",
".f c #FF9900",
".g c #FF9700",
".h c #FF9100",
".j c #FF8F00",
".k c #FF8900",
".l c #FF8700",
".z c #FF8500",
".x c #FF8300",
".c c #FF7900",
".v c #502B0D",
".b c #ECECBD",
".n c #4A3307",
".m c #4A2F07",
".M c #BF6C03",
".N c #4A2D07",
".B c #FDFDC7",
".V c #4A2307",
".C c #27294B",
".Z c #BF5E03",
".A c #BBBBBB",
".S c #AD7512",
".D c #070A32",
".F c #554D43",
".G c #52161C",
".H c #DCD8D8",
/* pixels */
" x x x x x x x x x x x x x x x x x x x x x x x x x x x x x x x x",
" x x x x x x x x x x x x x x x x x x x x x x x x x x x x x x x x",
" x x x x x x x x x x x x x x x x x x x x x x x x x x x x x x x x",
" x x x x x x 8.G.G.G.G l.B.B.B.B.B.B.B.B.B.B.B.B.B.B.B l.G.G.G.G",
" x x x x x x 8.G.G.G.G l.B.B.B.B.B.B.B.B.B.B.B.B.B.B.B l.G.G.G.G",
" x x x x x x 8.G.G.G.G l.B.t  .B.B.B.B.B.B.B.B.B.B.B.B l.G.G.G.G",
" x x x _.a x 8.G.G.G.G l.B.e.&.B.B.B.B.B.B.B.B.B.B.B.B l.G.G.G.G",
" x x x _ k + 8.G.G.G.G l.B.e y }.% }.B.= v.B.B.= v.B.B l.G.G.G.G",
" x x x _.n.S.8.G.G.G.G l.B > U.q.e.C.3 q.X j   q 0.,.% l.G.G.G.G",
" x x x _.n.p.v.G.G.G.G l.B >.D J.B ~.0 } 9 a d.B w * y l.G.G.G.G",
" x x x _ L n 3 p.G.G.G l.B.e f.B.B > t.B.B.$ ^.B.B.e.& l.G.G.G.G",
" x x x _.n.i n.o.d.G.G l.B >.@.B.B >.%.B.B f ,.B.B !.% l.G.G.G.G",
".F G G.7 P B m.i.v.G.G l.B > g.B.B >.%.B.B.:.#.B.B Q.% l.G.G.G.G",
" '.g.g K.  C V.p 2.r.G l.B.e.@.B.B.e.%.B.b o ` <.4.u t l.G.G.G.G",
" Y.j.j.M I A A Z.s %.d l.B.B.B.B.B.B.B.B.B.B.B 9 ] & t l.G.G.G.G",
" E H H.Z.m.g.g.g.f A { l.B.B.B.B.B.B.B.B.B.B.B.B.B b y l.G.G.G.G",
".*.2.2 #.N.h.j S.l =.y l.B.B.B.B.B.B.B.B.B.B w :.4 c.B l.G.G.G.G",
" e X X.>...k.z F.6.O.d l.B.B.B.B.B.B.B.B.B.B.B 9 ].B.B l.G.G.G.G",
" 5 h h s R.x H.9 u ;.G N | | | | | | | | | | | | | | | N.G.G.G.G",
" _ . _ - E.c.9 M $.G.G.G.G.G.G.G.G.G.G.G.G.G.G.G.G.G.G.G.G.G.G.G",
" x x x _ W T D.1.d.G.G.G.G.G.G.G.G.G.G.G.G.G.G.G.G.G.G.G.G.G.G.G",
" x x x _.V i [ ).G.G.G.G O O O O O O O O O O O O.w.G.G.G.G.G.G.G",
" x x x _ ( 1 4.G.G.G.G.G.5.5.5.5.5.5.5.5.5.5.5.5 O.G.G.G.G.G.G.G",
" x x x _.- /.8.G.G.G.G.G.5.5.G.G.G.5.5.5.5.5.5.5 O.G.G.G.G.G.G.G",
" x x x _.; 7 8.G.G.G.G.G.5.5.G.G.G.5.5.5.5.5.5.5 O.G.G.G.G.G.G.G",
" x x x.A 6 x.H z.G.G.G.G.5.5.G.G.G.5.5.5.5.5.5.5 O.G.G.G.G.G.G.G",
" x x x x x x x.H z.G.G.G.5.5.G.G.G.5.5.5.5.5.5.5 O.G.G.G.G.G.G.G",
" x x x x x x x x.H z.G.G.5.5.<.<.<.5.5.5.5.5.5.5 O.G.G.G.G.G.G.G",
" x x x x x x x x x.H.+ 8 r r r r r r r r r r r r @ 8 8 8 8 8 8 8",
" x x x x x x x x x x x x x x x x x x x x x x x x x x x x x x x x",
" x x x x x x x x x x x x x x x x x x x x x x x x x x x x x x x x",
" x x x x x x x x x x x x x x x x x x x x x x x x x x x x x x x x"
};
