/* XPM */
static const char * IconGuiritAntHill32[] = {
/* width height ncolors chars_per_pixel */
"32 32 249 2",
/* colors */
"   c #C4CABD",
" . c #6E0C18",
" X c #801D27",
" o c #801E20",
" O c #C4D2B3",
" + c #C4D3B3",
" @ c #6B7B23",
" # c #6AA128",
" $ c #810A19",
" % c #6AA228",
" & c #6AA328",
" * c #476C1B",
" = c #6B9326",
" - c #598721",
" ; c #598821",
" : c #598822",
" > c #940B1D",
" , c #940C1D",
" < c #C5D4B4",
" 1 c #365314",
" 2 c #820A19",
" 3 c #6BA328",
" 4 c #6BA428",
" 5 c #6BA429",
" 6 c #820D1C",
" 7 c #812E1E",
" 8 c #486D1B",
" 9 c #5C3918",
" 0 c #700916",
" q c #805B23",
" w c #5D2115",
" e c #C7ABAE",
" r c #5A8922",
" t c #5A8A22",
" y c #C6D5B4",
" u c #C6D6B4",
" i c #814621",
" p c #6D8025",
" a c #6CA428",
" s c #951929",
" d c #C89FA4",
" f c #6CA528",
" g c #A64652",
" h c #6CA529",
" j c #6CA629",
" k c #6E6621",
" l c #496F1C",
" z c #49701C",
" x c #823332",
" c c #83131B",
" v c #710916",
" b c #711117",
" n c #960C1D",
" m c #5B8B22",
" M c #C7D7B4",
" N c #B8727B",
" B c #5D571C",
" V c #6DA629",
" C c #6DA729",
" Z c #4A711C",
" A c #720916",
" S c #841E1C",
" D c #600713",
" F c #5C8C23",
" G c #721521",
" H c #5C8D23",
" J c #C8D8B5",
" K c #A91E2F",
" L c #A76069",
" P c #850A1A",
" I c #6EA729",
" U c #6EA829",
" Y c #6EA82A",
" T c #6EA92A",
" R c #4B721C",
" E c #4B731C",
" W c #DBD9D7",
" Q c #5D8E23",
" ! c #5E6E1F",
" ~ c #5D8F23",
" ^ c #860A1A",
" / c #6FA929",
" ( c #6FA92A",
" ) c #6FAA2A",
" _ c #982227",
" ` c #740917",
" ' c #4C741D",
" ] c #97444F",
" [ c #861821",
" { c #DCD7D7",
" } c #717624",
" | c #620A15",
".  c #5E8F24",
".. c #5E9024",
".X c #AA4B57",
".o c #70AB2A",
".O c #605D1D",
".+ c #70AC2A",
".@ c #70AC2B",
".# c #A96F76",
".$ c #4D761D",
".% c #9A0C1E",
".& c #630813",
".* c #95B165",
".= c #864345",
".- c #86434B",
".; c #5F9024",
".: c #719D28",
".> c #5F9124",
"., c #727D25",
".< c #5F9224",
".1 c #CCBABD",
".2 c #4F4517",
".3 c #BD505E",
".4 c #74451E",
".5 c #71AC2A",
".6 c #71AD2B",
".7 c #DED7D8",
".8 c #4E781D",
".9 c #881B20",
".0 c #BC888F",
".q c #729E29",
".w c #609224",
".e c #882927",
".r c #3D5C17",
".t c #2D150E",
".y c #72AD2B",
".u c #770917",
".i c #72AE2B",
".p c #A9B0A1",
".a c #72AF2B",
".s c #DFD7D8",
".d c #CEACB0",
".f c #62641F",
".g c #BBC4B0",
".h c #513B16",
".j c #85A456",
".k c #650B16",
".l c #89261E",
".z c #9B3542",
".x c #3E5A1E",
".c c #619525",
".v c #3E5E17",
".b c #73A530",
".n c #635A1D",
".m c #73AF2B",
".M c #73B02B",
".N c #73B02C",
".B c #AB9283",
".V c #73B12C",
".C c #98A886",
".Z c #77322C",
".A c #BCC5B0",
".S c #9D0C1F",
".D c #BCC7B0",
".F c #660814",
".G c #AD606A",
".H c #629525",
".J c #AD666E",
".K c #78221B",
".L c #774921",
".P c #790A18",
".I c #74B02C",
".U c #E1D7D8",
".Y c #74B12C",
".T c #74B22C",
".R c #D0ACB1",
".E c #517C1F",
".W c #670815",
".Q c #654D1C",
".! c #8B2527",
".~ c #67131A",
".^ c #639725",
"./ c #639825",
".( c #639826",
".) c #406118",
"._ c #406218",
".` c #8C1221",
".' c #768B46",
".] c #7A0918",
".[ c #BF9FA3",
".{ c #75B22C",
".} c #D1ACB1",
".| c #648C24",
"X  c #BEC9B1",
"X. c #BECDAD",
"XX c #D1BBBD",
"Xo c #9ABC72",
"XO c #8D111F",
"X+ c #8C3330",
"X@ c #681F1D",
"X# c #424D1B",
"X$ c #537E1F",
"X% c #690815",
"X& c #7B1825",
"X* c #425B17",
"X= c #659A26",
"X- c #659B26",
"X; c #426519",
"X: c #7C0A18",
"X> c #548020",
"X, c #A10E21",
"X< c #548120",
"X1 c #668F25",
"X2 c #9F515A",
"X3 c #C0CCB2",
"X4 c #8F0B1C",
"X5 c #556A1D",
"X6 c #78AE37",
"X7 c #8F1827",
"X8 c #6B0815",
"X9 c #678E25",
"X0 c #C1CEB2",
"Xq c #D3DACC",
"Xw c #C39097",
"Xe c #679D27",
"Xr c #B18D8E",
"Xt c #D5A8AD",
"Xy c #8F4039",
"Xu c #6C0916",
"Xi c #568420",
"Xp c #592315",
"Xa c None",
"Xs c #A31528",
"Xd c #910B1C",
"Xf c #5A0E12",
"Xg c #689F27",
"Xh c #45661F",
"Xj c #7F0A19",
"Xk c #464816",
"Xl c #45691A",
"Xz c #456A1A",
"Xx c #480911",
"Xc c #C3C9BD",
"Xv c #465717",
"Xb c #578521",
"Xn c #D6BBBF",
"Xm c #C3D0B3",
"XM c #C3D1B3",
"XN c #920C1D",
"XB c #59511B",
"XV c #69A028",
"XC c #8DB85B",
"XZ c #69A128",
"XA c #466A1A",
"XS c #6B6520",
"XD c #921F1F",
"XF c #6B6A21",
"XG c #6E0916",
/* pixels */
"XaXaXaXaXaXaXaXaXaXaXaXaXaXaXaXaXaXaXaXaXaXaXaXaXaXaXaXaXaXaXaXa",
"XaXaXaXaXaXaXaXaXaXaXaXaXaXaXaXaXaXaXaXaXaXX.}.}.UXaXaXaXaXaXaXa",
"XaXaXaXaXaXaXaXaXaXaXaXaXaXaXaXaXaXa.# 0 g.-XrXy.dXaXaXaXaXaXaXa",
"XaXaXaXaXaXaXaXaXaXaXaXaXaXaXaXaXaXaXaXaXaXa.1X&XaXaXaXaXaXaXaXa",
"XaXaXaXaXaXaXaXaXaXaXaXaXaXa.C.jXCXCXaXaXa.7 X.[XaXaXaXaXaXaXaXa",
"XaXaXaXaXaXaXaXaXaXaXaXaXaXcXl r /.T.* e.}.0 LXaXaXaXaXaXaXaXaXa",
"XaXaXaXaXaXaXaXaXaXaXaXaXaXh.E.< I.Y.M.Z G |.t.3XaXaXaXaXaXaXaXa",
"XaXaXaXaXaXaXaXaXa L gX2.z.QXS.^ C.N.T.4.X.kXxX4 s.%.GXaXaXaXaXa",
"XaXaXaXaXaXaXaXaXa.R.JX:X*.O kX= C.i.T.V } ]X7 > N LXwXaXaXaXaXa",
"XaXaXaXaXaXaXaXaXa.UXdX@X5X< HXe C.5.Y.{.6X..-.`Xs G {XaXa.7XaXa",
"XaXaXaXaXaXaXaXaXaXa.=X@.O :..Xe C.o.Y.T.TX6Xr AXGXrXa.[ [ ]XaXa",
"XaXaXaXaXaXaXaXaXa.pXp [XxXS.wXe V.o.I.Y.{.a.j.!.PXw x $X2XaXaXa",
"XaXaXaXaXaXa.7 N WX#XfXN 6.QX9Xe j.q q.Y.{.T.+.BX8 D P.GXX e.dXa",
"XaXaXaXaXaXa LX4.'XB ..& c 7 b 7X+.l.q.Y.T.{.N.q.9Xd.z.].u.- KXa",
"XaXaXaXaXaXaXaXNXvXv P n.f. X- p., (.5.I.Y.{.T.y.L.~.W s ,.J.3Xa",
"XaXaXaXa.#Xt W.hXDXpX: 2.n.;X=Xe f (.o.M.Y.T.{.V.@ 7 DXG K ^XXXa",
"XaXaXaXa X.z.K.v S o vXu.l.|X-Xe a Y.o.m.Y.Y.{.{.a.q.kX% $XN dXa",
"XaXaXaXaX&.C.hXO.Q AXs.P 9.lX-Xe a U ).i.N.Y.{.{.Y.y } ..` ,XwXa",
"XaXaXa.[ s.9 7 B . DXj c QXF.l = 4 I (.5.M.Y.T.{.{.M.o.4X%XjXnXa",
"XaXaXa.- |.h w.F P.%X, _. ./XF.].L.: (.+.m.I.Y.{.{.T.i p.` x.sXa",
"XaXaXa.WXk._.2 ` ,.SX,X7 q./X-Xe kX9 T.o.a.M.Y.T.{.{.M.y @XaXaXa",
"XaXaXc `.vXl.e.W v ^.SXF SX9X=Xe & V Y ).i.M.Y.Y.{.{.T.a.oXoXaXa",
"XaXa.x.~._ 8Xf.u nXs.K F.,X+X-Xe % j U ).6.m.N.Y.{.{.{.Y.i UXqXa",
"Xa.j 1.kXz z XXu.& 2 ! Q.H i.,Xe % h I (.5.i.M.Y.T.{.{.T.M.y.bXa",
"   1Xp.2 8 R B | ^.O m.;.HX1XD = # h C (.o.i.m.I.Y.{.{.{.Y.i.oXo",
".xXp.2XA l '.8X5X5 ; m.>.c./XS iXZ 5 V T.o.y.a.M.Y.T.{.{.{.N.i I",
" 1.rX; * Z.$.EX<Xb : F.<.c.(X-XeXZ 4 V Y ).6.i.M.Y.Y.{.{.{.T.M.6",
".r.)Xl 8 E.8X$X<Xb r H.w.H.(X-XeXV 3 h I (.+.i.m.N.Y.{.{.{.{.Y.i",
".rX;XA z '.EX$X<Xb t Q.<.c./X-XeXV & h I (.o.6.a.M.Y.T.{.{.{.T.N",
".)Xl 8 R.8.EX>Xi - m ~.<.c.(X-XeXg % h C (.o.6.i.m.N.Y.{.{.{.{.Y",
".g.A.DX X X X3X3X0X0X0XmXM O O + O < y y u M M M M J J J J J J J",
"XaXaXaXaXaXaXaXaXaXaXaXaXaXaXaXaXaXaXaXaXaXaXaXaXaXaXaXaXaXaXaXa"
};
