/* XPM */
static const char * IconCurveSpiral[] = {
/* width height ncolors chars_per_pixel */
"32 32 238 2",
/* colors */
"   c #D8AFC7",
" . c #914771",
" X c #8D0553",
" o c #8B0551",
" O c #D3ABC2",
" + c #D2ABC1",
" @ c #D1ABC0",
" # c #9F085E",
" $ c #9E065D",
" % c #9D065C",
" & c #9C065B",
" * c #8F4D72",
" = c #650D3F",
" - c #B3096B",
" ; c #890752",
" : c #AF0767",
" > c #AE0766",
" , c #870550",
" < c #86054F",
" 1 c #85054E",
" 2 c #5C0336",
" 3 c #B5327D",
" 4 c #D5BBCA",
" 5 c #98065A",
" 6 c #970659",
" 7 c #960658",
" 8 c #6E0441",
" 9 c #8B4D71",
" 0 c #6C043F",
" q c #BE9DB0",
" w c #76144C",
" e c #A70762",
" r c #7F054B",
" t c #7E054A",
" y c #E2D7DD",
" u c #570334",
" i c #550332",
" p c #A5417A",
" a c #540331",
" s c #8A3466",
" d c #7C3F62",
" f c #900655",
" g c #8F0654",
" h c #8E0653",
" j c #8D0652",
" k c #66043C",
" l c #65043B",
" z c #8C406B",
" x c #D2A8C0",
" c c #6F1448",
" v c #780547",
" b c #770546",
" n c #760545",
" m c #C55E99",
" M c #9C5C81",
" N c #D08FB4",
" B c #61063A",
" V c #D0ACC1",
" C c #600439",
" Z c #5F0438",
" A c #5E0437",
" S c #B1618F",
" D c #CBA8BC",
" F c #B2106C",
" G c #B98EA7",
" H c #AF0C69",
" J c #7B1750",
" K c #590435",
" L c #A76588",
" P c #C7AABB",
" I c #B2166F",
" U c #CDBAC4",
" Y c #854C6D",
" T c #D6ABC3",
" R c #A40661",
" E c #A2065F",
" W c #8C5C77",
" Q c #DFD6DC",
" ! c #DED6DB",
" ~ c #DDD6DA",
" ^ c #DCD6D9",
" / c #C0AAB7",
" ( c #8D0954",
" ) c None",
" _ c #C9BAC3",
" ` c #64073C",
" ' c #8A0551",
" ] c #BE1777",
" [ c #D1ABC1",
" { c #93155D",
" } c #9B065B",
" | c #9A065A",
".  c #730444",
".. c #801A54",
".X c #720443",
".o c #710442",
".O c #AD0766",
".+ c #BB1B77",
".@ c #AB0764",
".# c #84054E",
".$ c #83054D",
".% c #82054C",
".& c #9F4E7C",
".* c #5B0336",
".= c #5A0335",
".- c #AA417D",
".; c #590334",
".: c #D5BFCB",
".> c #950658",
"., c #940657",
".< c #930656",
".1 c #6C0440",
".2 c #6B043F",
".3 c #6A043E",
".4 c #73144A",
".5 c #7D054A",
".6 c #7C0549",
".7 c #6F2F53",
".8 c #540332",
".9 c #520330",
".0 c #A91168",
".q c #8D0653",
".w c #8C0652",
".e c #64043B",
".r c #AB8D9E",
".t c #63043A",
".y c #A40D63",
".u c #620439",
".i c #6C1446",
".p c #BD719C",
".a c #DBBACD",
".s c #933169",
".d c #760546",
".f c #740544",
".g c #BB8EA7",
".h c #C35E98",
".j c #CE8FB3",
".k c #5E0438",
".l c #5C0436",
".z c #5B0435",
".x c #834066",
".c c #AC5D8B",
".v c #D4BAC9",
".b c #8C3165",
".n c #D3BAC8",
".m c #6E0541",
".M c #B58EA4",
".N c #AA0865",
".B c #7F064B",
".V c #C5AABA",
".C c #B0166E",
".Z c #C4AAB9",
".A c #C3AAB8",
".S c #CF9DBA",
".D c #A25D84",
".F c #7F0E4E",
".G c #D5ABC3",
".H c #B64184",
".J c #D4ABC2",
".K c #98326D",
".L c #A20660",
".P c #A1065F",
".I c #A0065E",
".U c #DCD6DA",
".Y c #934D75",
".T c #BEAAB6",
".R c #811453",
".E c #B20769",
".W c #B10768",
".Q c #63073C",
".! c #62073B",
".~ c #890551",
".^ c #880550",
"./ c #87054F",
".( c #B71571",
".) c #681344",
"._ c #9A065B",
".` c #99065A",
".' c #710443",
".] c #C482A8",
".[ c #700442",
".{ c #6F0441",
".} c #AD0967",
".| c #79144E",
"X  c #BF9DB0",
"X. c #AA0764",
"XX c #A90763",
"Xo c #9D316E",
"XO c #82054D",
"X+ c #81054C",
"X@ c #80054B",
"X# c #590335",
"X$ c #580334",
"X% c #570333",
"X& c #560332",
"X* c #700C45",
"X= c #940858",
"X- c #883263",
"X; c #920656",
"X: c #910655",
"X> c #900654",
"X, c #69043E",
"X< c #AF8DA0",
"X1 c #A80B65",
"X2 c #E5DDE2",
"X3 c #72144A",
"X4 c #711449",
"X5 c #A40761",
"X6 c #DEBACE",
"X7 c #7A0548",
"X8 c #790547",
"X9 c #DED7DB",
"X0 c #780546",
"Xq c #8B0652",
"Xw c #D18FB4",
"Xe c #62043A",
"Xr c #610439",
"Xt c #600438",
"Xy c #89406A",
"Xu c #94356B",
"Xi c #681443",
"Xp c #D8BACB",
"Xa c #740545",
"Xs c #773058",
"Xd c #5B0436",
"Xf c #5A0435",
"Xg c #B51671",
"Xh c #D1BAC7",
"Xj c #CA95B3",
"Xk c #9B1361",
"Xl c #A50661",
"Xz c #A40660",
"Xx c #C24F91",
"Xc c #C14F90",
"Xv c #B11870",
"Xb c #E0D8DC",
"Xn c #E0D6DC",
"Xm c #DFD6DB",
/* pixels */
" ) ) ) ) ) ) ) ) ) ^.T.r dX& iX%.zXrX4 MXh ) ) ) ) ) ) ) ) ) ) )",
" ) ) ) ) ) ) ).U WX$Xe k.{.5.^Xq.$ bX,.l.u s.: ) ) ) ) ) ) ) ) )",
" ) ) ) ) ) ) q.).{.$.q 6 6 % %.L R.NX1 #.B Z.m O ) ) ) ) ) ) ) )",
" ) ) ) ) ) * 8X@.~ gXqXo S @ [ +.J.j.H.C.(X1.F.Q.] ) ) ) ) ) ) )",
" ) ) ) ).Y.d.# o.#.R.g ) ) ) ) ) ) ) ) )Xw.W ] (.Q.c ) ) ) ) ) )",
" ) ) )X X7Xq <.d.D ! ) ) ).U.A.M U ) ) ) ).aXg.( ;.! x ) ) ) ) )",
" ) ) !.R.wX7.4 q ) ) ).r.8X%.=Xd.= l . 4 ) ) yXg F nX*Xb ) ) ) )",
" ) ).&./.%.2.M ) ) q.).1 t.q 7 %.q n.k ` SX2 ).S.WX1.e.. Q ) ) )",
" )X .^ f.'Xs ) ) q 8 r.qX;., | EXX H.0.B Z.p ) )Xc > 5.z G ) ) )",
" ).K h.fXd _ )XhX7 <XqX@.& Q ) ) y.h.W F ( ` D ) ).OX5.2X- ) ) )",
"Xn g.> 0 d ) ).s.~XO.o M ) ) ) ) ) ) yXg.}X, JX9 ).hXX.5 l ) ) )",
" V., r.8 _ ).n.~ '.2 9 ) ) _.7.).DXb )Xw.OX;.* G ).GXl g Z ! ) )",
".-._X8 a ) ) p., v i ) ) L.3.'.m K.K ) ) e $.t z ) ).L fX#.V ) )",
" 6.> l = ) )Xk., l d )XmX+ X 7.[.  A P ) 3 | ZXy ) ) $X:X#.M ) )",
" & } C.x ) ) |X; u.A ) S 7 r k mX8X% / ) { g 2.x ) ).`X>Xd.x )Xp",
" $.<.;.M ) +.I.wX$.Z ).H.P nXd ) f.Y ) ! 1 <Xf d ) ).< oX%X< ) @",
" E._Xf.V ).JXl g.;.V ).jX. (Xt.SXp ).U wX+ nX%.r ).v hX@.8 / ) @",
"Xl # A M ).GX.._ A P ) T :XgX,X,X3XsX%. .6 k Y ) ).c '. .9.U ).g",
" eX5.' z ) ).@.yXr w ) )Xx -XvX8 k C b.$ n * ) ) !.%./ l.7 ) )Xo",
" 3.@.dX4 ) ).h : 6 B.: ) ) m :XX %.> j.#.& ) ) ! JXO.f K.r ).n./",
".j.@X=XtXh ) y :.+.3.KX2 ) ) y.j.H.-.c.n ) ) ~.4X7X7 k Y ) ).s '",
" ).C H l s ) ) m.W.0 Z JXj ) ) ) ) ) ) ) ) _.i.XX+.f.i.U )XhX@X+",
" ) N :XkXr S ) )Xx -.y 8 C s P ! ) ).U.T.7Xt 8.$.dX3 ~ ) ).b 1 n",
" ) )Xg ]XO B   ) )Xx.W.}.^.k.l ZXt.z.8X# 0.6 <X7.| ~ ) ).YX8.6 l",
" ) ).S.W F 8..X6 ) ).a I.O %.^ tXa b b./.w./X@.D ! ) ).YX0X+.[.)",
" ) ) )Xx.E.0.t..   ) ) y.h.C e.L.I &.>X; {.gXm ) ) ) *.{.6.  c ~",
" ) ) ) )Xx -.y.tX* D ) ) ) ).a.J O + @ 4 ) ) ) ) _Xi.o.$ v.4 ~ )",
" ) ) ) ) )Xx.W.C 0 BXuXh ) ) ) ) ) ) ) ) ) ) ^ WXe.f.5X7.| ~ ) )",
" ) ) ) ) ) )Xx.W e ; AXeX- z.M.V.V.Z.A / W.7X%.e v./.5.b ! ) ) )",
" ) ) ) ) ) ) ).a 3.O 5 rX,Xe.l.;.;X% i.; k.[ rXq < t.g ) ) ) ) )",
" ) ) ) ) ) ) ) ) ) N.CX.Xz.I 7.^.% r , ' f f o.^.cXm ) ) ) ) ) )",
" ) ) ) ) ) ) ) ) ) ) ) T T.h 3.P.I._.`., p.g.v ) ) ) ) ) ) ) ) )"
};
