/* XPM */
static const char * IconDataLoadMatrix[] = {
/* width height ncolors chars_per_pixel */
"32 32 159 2",
/* colors */
"   c #49DD01",
" . c #CDCDA8",
" X c #59FF00",
" o c #37394D",
" O c #1E8402",
" + c #91998E",
" @ c #3BF800",
" # c #D1C1C3",
" $ c #1E0E10",
" % c #9F9F9F",
" & c #2BC601",
" * c #B6A3A5",
" = c #42FF00",
" - c #9C9D88",
" ; c #07092E",
" : c #BFAFB1",
" > c Gray56",
" , c #7B7D78",
" < c #C9BDBE",
" 1 c #53FF00",
" 2 c #113009",
" 3 c #112E09",
" 4 c #474952",
" 5 c #686A6F",
" 6 c #144B05",
" 7 c #7B7D7B",
" 8 c #1F2C1A",
" 9 c #383B57",
" 0 c #4A4C62",
" q c #494C61",
" w c #1F8B02",
" e c #2C1013",
" r c #1F4C09",
" t c #41BD02",
" y c #7A7B7D",
" u c #9E9F93",
" i c #494B5A",
" p c #080B38",
" a c #568542",
" s c #39FB00",
" d c #BDBDA4",
" f c #794D51",
" g c #3AEB01",
" h c #344B1A",
" j c #34BE02",
" k c #239802",
" l c #9D9E8B",
" z c #ECECBE",
" x c #070A30",
" c c #45BE02",
" v c #BCBC9C",
" b c #5D3C3F",
" n c #BBBC9B",
" m c Gray27",
" M c #31BE02",
" N c #5BFF00",
" B c #196F02",
" V c #47FF00",
" C c #336C15",
" Z c #1E8C00",
" A c #27B102",
" S c #080A34",
" D c #7F5349",
" F c None",
" G c #38BD02",
" H c #CDCDA9",
" J c #58FF00",
" K c #666865",
" L c #44FF00",
" P c #3F7331",
" I c #73433D",
" U c #3AFE00",
" Y c #495645",
" T c #3FBE02",
" R c #60804E",
" E c #090C3B",
" W c #F3EFEF",
" Q c #41FF00",
" ! c #9C9D89",
" ~ c #46BD02",
" ^ c #3C6731",
" / c #3CBE02",
" ( c #393B56",
" ) c #27B401",
" _ c #4AAE13",
" ` c #967679",
" ' c #43BD02",
" ] c #BCBD9E",
" [ c #4A4C63",
" { c #ACACAC",
" } c #4FFF00",
" | c #080B36",
".  c #BCBDA1",
".. c Gray62",
".X c #CDCEAB",
".o c #2CBD02",
".O c #4CFF00",
".+ c #ECECBC",
".@ c #D0C09A",
".# c #1B4C09",
".$ c #3DBD02",
".% c #5DFF00",
".& c #209400",
".* c #49FF00",
".= c #9B7A73",
".- c #BCBC9D",
".; c #3ABD02",
".: c #282D0F",
".> c #37394C",
"., c Gray44",
".< c #507D43",
".1 c #57FF00",
".2 c #32E900",
".3 c #805458",
".4 c #7E7F7A",
".5 c #54FF00",
".6 c #5F804E",
".7 c #2AB802",
".8 c White",
".9 c #4BAE12",
".0 c #45BD02",
".q c #D5CAAE",
".w c #464646",
".e c #383B56",
".r c #196E02",
".t c #4A4C61",
".y c Gray93",
".u c #1F130F",
".i c #F7F7CF",
".p c Gray21",
".a c #441419",
".s c #797B7B",
".d c #4A4C64",
".f c #4EFF00",
".g c #090B38",
".h c #494B59",
".j c #080B37",
".k c #568541",
".l c #3AFD00",
".z c #1D4C09",
".x c #D7D7D7",
".c c #383A52",
".v c #4BFF00",
".b c #30DC00",
".n c #56EE01",
".m c #55EE00",
".M c #ECECBD",
".N c #FDFDC7",
".B c #46BE02",
".V c #37F700",
".C c #557543",
".Z c #5E2628",
".A c #5CFF00",
".S c #37394A",
".D c #53EE01",
".F c #080A33",
".G c #52161C",
".H c #174A09",
".J c #BCBC9E",
/* pixels */
" F F F F F F F F F F F F F F F F F F F F F F F F F F F F F F F F",
" F F F F F F F F F F F F F F F F F F F F F F F F F F F F F F F F",
" F F F F F F F F F F F F F F F F F F F F F F F F F F F F F F F F",
" F F F F F F F F F F F F F F F F F F F F F F F F F F F F F F F F",
" f f f f.q.i.i.i.i.i.i.i.i.i.i.i.i.i.= f f f ` F F F F F F F F F",
".G.G.G.G.@.N.N y H.N.N.N.N.N.s ..N.N D.G.G.G f F F F F F F F F F",
".G.G.G.G.@.N.N [ l.N.N.N.N.N.e v.N.N D.G.G.G f F F Y > F F F F F",
".G.G.G.G.@.N.N 0 o.N.N.N.N.M E n.N.N D.G.G.G f F F.C C.x F F F F",
".G.G.G.G.@.N.N 0 |.+.N.N.N.  p n.N.N D.G.G.G f F F.w c.6 F F F F",
".G.G.G.G.@.N.N 0.g !.N.N.N i | v.N.N D.G.G.G f F F.w ~.m % F F F",
".G.G.G.G.@.N.N 0 7.>.N.N.N x 9.J.N.N D.G.G.G f F F.w.B.% _.x F F",
".G.G.G.G.@.N.N q.J.j.N.N.X.S q.J.N.N D.G.G.G f F F.w.B.%.A R F F",
".G.G.G.G.@.N.N.t.-.d ].N 5 K.t.-.N.N D.G.G e h.k a 8.0.A.%.n.. F",
".G.G.G.G.@.N.N 0.- d.h.N.c n 0.-.N.N D.G.G.:   1 1 r ' X N.%.9.x",
".G.G.G.G.@.N.N 0.- z.F.M ;.N 0.-.N.N D.G.G $ /.f.f.z t.1 J X.A R",
".G.G.G.G.@.N.N 0.-.N ( , 4.N 0.-.N.N D.G.G $ j L L.# T 1 1 1.5.D",
".G.G.G.G.@.N.N 0.-.N u S -.N 0.-.N.N D.G.G $.7.V.V.H.$ }.f.O.* g",
".G.G.G.G.@.N.N.X.+.N z.4.+.N.X.+.N.N D.G.G $ B.&.& 2.;.v.* L @ P",
".G.G.G.G I D D D D D D D D D D D D D.Z.G.G.u.r Z Z 3 G V = s w.x",
".G.G.G.G.G.G.G.G.G.G.G.G.G.G.G.G.G.G.G.G.G.a b { {.p j Q.l & + F",
".G.G.G.G.G.3.3.3.3.3.3.3.3.3.3.3.G.G.G.G.G.G f F F.w M U.b ^ F F",
".G.G.G.G.G.8.8.8.8.8.8.8.8.8.8.8.G.G.G.G.G.G f F F.w.o.2 O.x F F",
".G.G.G.G.G.8 #.G.G #.8.8.8.8.8.8.G.G.G.G.G.G f F F.w A ) + F F F",
".G.G.G.G.G.8 #.G.G #.8.8.8.8.8.8.G.G.G.G.G.G f F F m k ^ F F F F",
" *.G.G.G.G.8 #.G.G #.8.8.8.8.8.8.G.G.G.G.G.G f F F.< 6.x F F F F",
" F *.G.G.G.8 #.G.G #.8.8.8.8.8.8.G.G.G.G.G.G f F F.,.. F F F F F",
" F F *.G.G.8 W # # W.8.8.8.8.8.8.G.G.G.G.G.G f F F F F F F F F F",
" F F F < :.y.y.y.y.y.y.y.y.y.y.y : : : : : : < F F F F F F F F F",
" F F F F F F F F F F F F F F F F F F F F F F F F F F F F F F F F",
" F F F F F F F F F F F F F F F F F F F F F F F F F F F F F F F F",
" F F F F F F F F F F F F F F F F F F F F F F F F F F F F F F F F",
" F F F F F F F F F F F F F F F F F F F F F F F F F F F F F F F F"
};
