/* XPM */
static const char * IconPanelAxes[] = {
/* width height ncolors chars_per_pixel */
"32 32 169 2",
/* colors */
"   c #2C9731",
" . c #2B9330",
" X c #28892D",
" o c #C2B1B1",
" O c #CEBFC0",
" + c #1C5D1E",
" @ c #7E3133",
" # c #242779",
" $ c #6F2124",
" % c #55578B",
" & c #94373B",
" * c #399C3D",
" = c #792427",
" - c #DED9D9",
" ; c #BE9B9C",
" : c #D8D8DD",
" > c #932C30",
" , c #1C1F60",
" < c #6A1F22",
" 1 c #2B922F",
" 2 c #84272B",
" 3 c #8C5457",
" 4 c #9C9EC3",
" 5 c #298C2D",
" 6 c #8688AA",
" 7 c #A9CAAB",
" 8 c #282B86",
" 9 c #1E2165",
" 0 c #D0C0C1",
" q c #247C28",
" w c #9F6E70",
" e c #237827",
" r c #7274AA",
" t c #7F2529",
" y c #50A353",
" u c #20236A",
" i c #AA7174",
" p c #C0B0B1",
" a c #8F5E60",
" s c #CBBEBF",
" d c #24287B",
" f c #8AB88C",
" g c #89282C",
" h c #621D20",
" j c #323582",
" k c #863336",
" l c #373A94",
" z c #B19798",
" x c #73AE75",
" c c #316A27",
" v c #338736",
" b c #BCA5A6",
" n c #B3CBB4",
" m c #44479A",
" M c #B2C9B3",
" N c #9A4D50",
" B c #2F7732",
" V c #27832A",
" C c #262A83",
" Z c #912B30",
" A c None",
" S c #6C6E96",
" D c #237726",
" F c #227325",
" G c #9CBF9D",
" H c #206923",
" J c #D9E0D9",
" K c #9AB99B",
" L c #D9DED9",
" P c #1E6521",
" I c #1C611F",
" U c #712124",
" Y c #1C5F1F",
" T c #548C56",
" R c #1A591D",
" E c #24277A",
" W c #1A1D59",
" Q c #2A2E8D",
" ! c #9D595C",
" ~ c #26297F",
" ^ c #1C1F5E",
" / c #25297E",
" ( c #86272B",
" ) c #A4BAA1",
" _ c #5F1C1F",
" ` c #8D494C",
" ' c #922C30",
" ] c #BFBFCC",
" [ c #1C1F61",
" { c #691F22",
" } c #83272B",
" | c #9C9EC4",
".  c #9E6E70",
".. c #34388C",
".X c #7D2528",
".o c #20236B",
".O c #292D8B",
".+ c #1F236A",
".@ c #1B1E5C",
".# c #7476B0",
".$ c #88282C",
".% c #CAB5B5",
".& c #986163",
".* c #DED8D9",
".= c #DDD8D8",
".- c #37953B",
".; c #9798B1",
".: c #1D2061",
".> c #262A81",
"., c #358F39",
".< c #6B6C93",
".1 c #338737",
".2 c #2B932F",
".3 c #994D50",
".4 c #68B06B",
".5 c #28872C",
".6 c #C4B1B2",
".7 c #26812A",
".8 c #1D2064",
".9 c #6C6E97",
".0 c #C5A8A9",
".q c #9CC39E",
".w c #80262A",
".e c #1F2269",
".r c #282C89",
".t c #4E9C51",
".y c #702124",
".u c #8A292D",
".i c #1A1D5A",
".p c #4A8C4D",
".a c #7B2428",
".s c #835154",
".d c #DFD9D9",
".f c #C1D4C2",
".g c #C0D2C1",
".h c #373B94",
".j c #25297F",
".k c #966B6D",
".l c #74A576",
".z c #B2C8B3",
".x c #337A36",
".c c #AACCAB",
".v c #2F7632",
".b c #272B84",
".n c #257C28",
".m c #247A27",
".M c #2B6E2E",
".N c #227225",
".B c #206E23",
".V c #206C23",
".C c #1F6A22",
".Z c #1F6822",
".A c #1D6420",
".S c #1E2167",
".D c #569158",
".F c #B7999A",
".G c #1C601F",
".H c #548956",
".J c #9A9BBC",
".K c #20236C",
".L c #292D8C",
".P c #1C1E5E",
".I c #1B1E5D",
".U c #87282C",
".Y c #B3C9B3",
".T c #D9D9DF",
".R c #782327",
".E c #C6B1B2",
".W c #912B2F",
/* pixels */
" A A A A A A A A A A A A A A A A A A A A A A A A A A A A A A A A",
" A A A A A A A A A A A A A A A :.J A A A A A A A A A A A A A A A",
" A A A A A A A A A A A A A A A.<.. A A A A A A A A A A A A A A A",
" A A A A A A A A A A A A A A : ^.> | A A A A A A A A A A A A A A",
" A A A A A A A A A A A A A A S ^ ~ l A A A A A A A A A A A A A A",
" A A A A A A A A A A A A A :.P [.j.O 4 A A A A A A A A A A A A A",
" A A A A A A A A A A A A A.9 W 9 d.r.h A A A A A A A A A A A A A",
" A A A A A A A A A A A A :.: W.8 E 8 Q 4 A A A A A A A A A A A A",
" A A A A A A A A A A A A 6.I.i.S #.b.L m A A A A A A A A A A A A",
" A A A A A A A A A A A A ] ,.@.S # C.r.# A A A A A A A A A A A A",
" A A A A A A A A A A A A A A.; j / r.T A A A A A A A A A A A A A",
" A A A A A A A A A A A A A A A %.K A A A A A A A A A A A A A A A",
" A A A A A A A A A A A A A A A %.o A A A A A A A A A A A A A A A",
" A A A A A A A A A A A A A A A %.o A A A A A A A A A A A A A A A",
" A A A A A A A A A A A A A A A % u A A A A A A A A A A A A A A A",
" A A A A A A A A A A A A A A A %.+ A A A A A A A A A A A A A A A",
" A A A A A A A A A A A A A A A %.e A A A A A A A A A A A A A A A",
" A A A A A A A A A A A A A A A %.e A A A A A A A A A A A A A A A",
" A A A A A A A A A A A A A.d.3 ' c., 7 A A A A A A A A A A A A A",
" A A A A A A O - A A A A i Z.u.  ).x D.t J A A A A n A A A A A A",
" A A A A A z $.X ; A.0 &.W ` O A A J.l.V.n x A.g.-   y A A A A A",
" A A A A.= <.X ( g N > k.F A A A A A A.f.p.B v.1 5 .  .q A A A A",
" A A A A a.a ( g g.a w.* A A A A A A A A A G B.m.7 X 1 * J A A A",
" A A A b = ( g.$ 2.w 0 A A A A A A A A A A A.M.C.N q.5 1.4 A A A",
" A A.= @.U.$ 2 t.R U.E A A A A A A A A A A A.G R Y.Z F V.2.c A A",
" A A.&.U }.R.y { h _ s A A A A A A A A A A A.v H P I +.A e.- J A",
" A.% ! 3.s.k p o.6 O A A A A A A A A A A A A L.Y M.z K.D.H T f A",
" A A A A A A A A A A A A A A A A A A A A A A A A A A A A A A A A",
" A A A A A A A A A A A A A A A A A A A A A A A A A A A A A A A A",
" A A A A A A A A A A A A A A A A A A A A A A A A A A A A A A A A",
" A A A A A A A A A A A A A A A A A A A A A A A A A A A A A A A A",
" A A A A A A A A A A A A A A A A A A A A A A A A A A A A A A A A"
};
