/* XPM */
static const char * IconWindowsOne[] = {
/* width height ncolors chars_per_pixel */
"32 32 247 2",
/* colors */
"   c #F0531C",
" . c #DB400E",
" X c #A9310B",
" o c #BD4418",
" O c #D03D0D",
" + c #C63A0D",
" @ c #29489F",
" # c #213A80",
" $ c #D64516",
" % c #FD5118",
" & c #FF4C10",
" * c #FF4A10",
" = c #2D4CA6",
" - c #2A4AA3",
" ; c #F4470F",
" : c #EA440F",
" > c #B7350B",
" , c #203778",
" < c #DF410E",
" 1 c #3252AE",
" 2 c #264395",
" 3 c #1F3577",
" 4 c #1E3576",
" 5 c #D43E0D",
" 6 c #FC4A10",
" 7 c #2C4CA8",
" 8 c #8ABCAE",
" 9 c #CA3B0D",
" 0 c #97CABE",
" q c #BF380C",
" w c #28459A",
" e c #274599",
" r c #91C4B8",
" t c #3F59A0",
" y c #B4350B",
" u c #8FC2B6",
" i c #AA320B",
" p c #8CBEB3",
" a c #8BBEB2",
" s c #24408C",
" d c #F8480F",
" f c #FD8A59",
" g c #EE450F",
" h c #28479D",
" j c #21397F",
" k c #B1E0B6",
" l c #E3420E",
" z c #264291",
" x c #D93F0E",
" c c #D83F0D",
" v c #B1EDC3",
" b c #CE3C0D",
" n c #F64810",
" m c #F5480F",
" M c #2A49A2",
" N c #2949A1",
" B c #C3390C",
" V c #EB450F",
" C c #D2DCDD",
" Z c #B9360C",
" A c #B8360B",
" S c #E1420F",
" D c #AE330B",
" F c #2B4BA6",
" G c #2A4BA5",
" H c #233D87",
" J c #F2460F",
" K c #3C5AB0",
" L c #3A58AE",
" P c #E7430E",
" I c #274498",
" U c #1F3679",
" Y c #A1D5CA",
" T c #DD400E",
" R c #2C4DAA",
" E c #D23D0D",
" W c #8BBDB1",
" Q c #243F8B",
" ! c #FA4910",
" ~ c #C83A0D",
" ^ c #C73A0C",
" / c #FB6F3F",
" ( c #EF460F",
" ) c #BD370C",
" _ c #28469C",
" ` c #20387D",
" ' c #E4430E",
" ] c #B2340B",
" [ c #DA400E",
" { c #2F4EA6",
" } c #CF3D0D",
" | c #2948A0",
".  c #213A81",
".. c #D84719",
".X c #E1410E",
".o c #264393",
".O c #1E3574",
".+ c #D63E0D",
".@ c #FF4C11",
".# c #FE4A10",
".$ c #CC3B0D",
".% c #2B4AA5",
".& c #E64B16",
".* c #F3470F",
".= c #C1380C",
".- c #FF591E",
".; c #E8440E",
".: c #FF854C",
".> c #B6350B",
"., c #DE410E",
".< c #BEC093",
".1 c #AC320B",
".2 c #9DD0C5",
".3 c #D33E0D",
".4 c #2C4CA9",
".5 c #2B4CA8",
".6 c #8ABCAF",
".7 c #C6B687",
".8 c #C93B0D",
".9 c #DE7C49",
".0 c #AF3A11",
".q c #8DC0B5",
".w c #8BBEB3",
".e c #1C326E",
".r c #F84810",
".t c #FF5F24",
".y c #F7480F",
".u c #BB360C",
".i c #F7551C",
".p c #E2420E",
".a c #B0330B",
".s c #264292",
".d c #1E3473",
".f c #FF4D10",
".g c #B7A67B",
".h c #FF4B10",
".j c #2949A2",
".k c #223B84",
".l c #C3390D",
".z c #C2390C",
".x c #B8360C",
".c c #264495",
".v c #1F3677",
".b c #AD330B",
".n c #D63F0F",
".m c #FC4910",
".M c #2B4BA7",
".N c #F1460F",
".B c #223A7D",
".V c #B5E1B7",
".C c #B4E1B6",
".Z c #E6430E",
".A c #20387B",
".S c #C94719",
".D c #B4340B",
".F c #DC400E",
".G c #8CBFB3",
".H c #D13D0D",
".J c #F94910",
".K c #C63A0C",
".L c #FF8C51",
".P c #BCCCA0",
".I c #EE460F",
".U c #29489E",
".Y c #213A7F",
".T c #BC370C",
".R c #B1340B",
".E c #1D3371",
".W c #283F7F",
".Q c #F5470F",
".! c #2A4AA2",
".~ c #EB440F",
".^ c #BC7F54",
"./ c #E0410E",
".( c #274395",
".) c #264394",
"._ c #1F3576",
".` c #C0C093",
".' c #1E3575",
".] c #D98856",
".[ c #D53E0D",
".{ c #FD4A10",
".} c #2C4CA7",
".| c #CB3B0D",
"X  c #F34710",
"X. c #F2470F",
"XX c #AE572F",
"Xo c #C0380C",
"XO c #C76537",
"X+ c #B6E2B7",
"X@ c #E8440F",
"X# c #B5CA9F",
"X$ c #20377A",
"X% c #B7653B",
"X& c #1F3779",
"X* c #B5350B",
"X= c #9CB2C2",
"X- c #AB320B",
"X; c #E36C38",
"X: c #8BBEB1",
"X> c #D86937",
"X, c #DD7C49",
"X< c #2B499F",
"X1 c #29479D",
"X2 c #28479C",
"X3 c #21397E",
"X4 c #20397D",
"X5 c #DA3F0E",
"X6 c #BABE93",
"X7 c #24408E",
"X8 c #CF3C0D",
"X9 c #2A49A1",
"X0 c #C4390C",
"Xq c #EC450F",
"Xw c #BA360C",
"Xe c #E1420E",
"Xr c #264293",
"Xt c #254292",
"Xy c #D63F0D",
"Xu c #FF4D11",
"Xi c #B7BE93",
"Xp c #EB4E1B",
"Xa c #FE4B10",
"Xs c #CC3C0D",
"Xd c #294699",
"Xf c #6E99A1",
"Xg c #203879",
"Xh c #274497",
"Xj c #DF420F",
"Xk c #2B4591",
"Xl c #1F3678",
"Xz c #FE4D13",
"Xx c #D33D0D",
"Xc c #2C4DA9",
"Xv c #8BBDB0",
"Xb c #FB4910",
"Xn c #8ABDAF",
"Xm c #9ACDC2",
"XM c #CA3C0E",
"XN c #BECCA0",
"XB c #F0460F",
"XV c #BE370C",
"XC c #94C7BC",
"XZ c #28469B",
"XA c #20387C",
"XS c #E5430E",
"XD c #B3340B",
/* pixels */
" C.W t #X3XAX$X&Xl UX&X&XlXl.v 3.'.d.d.E.e.e.E.d._X$X4. .k H QX=",
" LX& KXc 7.M F G - N |X1XZ eXh.) zX7 s Q H.k.k # jX3X4XAXAX3.Y. ",
" 1X$Xm v v v v v v v v v v v v v v v v v v v v v v v v v v v H z",
" =.W.2 v v v v v v v v v v.CX6.<.`.`.P v v v v v v v v v v v Q.)",
" G.B Y v v v v v v v v.gXO TXS V.N.* m  .].V v v v v v v v v sXh",
" GX$.2 v v v v v v.^.SXx., ' V.N n.J 6 *.h.{X;X+ v v v v v vX7 w",
" FXlXm v v v v vX%.K.H x.X P.IX..yXb.#.h & & &.iX+ v v v v vXrXd",
" M.B 0 v v v vXX ) 9 5 .Xe P (.* d.m *.h &.f.f &.{X+ v v v v 2 {",
" M.BXC v v vX%.R.=.| E ../.;.IX..y !.#.h &.f.f.f &.iX+ v v vXh K",
" M.AXC v vXiX-.>.z.| E [./.ZXq.N m.J.#.@.@ &.f.f.f &X; v v v w K",
".j , r v vXXX-.x.z 9.H c <XS : (.*.rXz.t.-Xu &.f.f &Xb.V v vX2X<",
" hXg u vX#.> i.>Xo.8 OXy.F.p.;Xq.N n %.:.L.-.@ & & &Xa.] v v.U _",
" _ , u v.^.D iXD.T.K b.3 x <XS :.IX. %.:.L.t.@.h &.h.#   v v |X1",
" hXl.q v.S.x.1 DXw B.8 O.+.F.p.Z : (X  %.- %.# *.h.# 6 ;.P vX9 @",
" h.v.G v.| Z.b.1X*XV.K.$.H c., l.Z : g.* n.r !Xb.mXb.JX..< v - @",
"Xh.v.G v.$.T.R X.a Z.= ^ b 5 x.,.p P.~.I J ; n.y d.y.QXB.< v.% w",
"Xh.v p v.HXo yX- D.>.T.z ~ b 5 x.,.p.Z :XqXB.N.*.*.*.NXq.< v F _",
"Xh.v.w v.+.KXw.a i.R A ) B.8 O.3 [ TXe '.; :Xq g.I gXq.Z.< v.MX1",
" e._ a v < }.= > DX- ] > ) B.8 b 5 c . <.p 'XS P.;.;XS <X6 v.5 @",
".s._ a vX>.nXMXVXD.1.1 ] > ) B ~ b.H.+ x.F.,./XeXe./ T.[ v v.5Xh",
"Xt._ a v.`Xj $ +XwXD.1.1.R >.T.= ^.| O.3.+ cX5 . . x.+XO v v.4 e",
".o 4 a v vXpXp $.l.uXD.1.1.R.>.uXoX0 9 bX8.H E.3 5.H.|X# v v.4 w",
".c 4 a v v.7X@ /...lXwXD.1 i.aX* ZXV.zX0 ~ 9 9.$.| +XX v v vXc _",
".s 4X: v v v.9Xp f...l.u y DX-.1.RX* Z.T q.=.z.zXV o k v v vXc.c",
"Xr.'X: v v v v.9Xp /.. + q Z ].1 XX-.aXDX* A > y.0 k v v v v.4.o",
".c.'X: v v v v vX,X@.& $Xs.z.T.>.R DX-X-X-.1X-.0 k v v v v v.4.)",
" I.' W v v v v v vXNX> S xX8 ~.z )Xw A.D.D o.g v v v v v v vXc.(",
"Xh.' W v v v v v v v v.V.7X> [.3 } b.S.^X# v v v v v v v v v RXr",
" e.O W v v v v v v v v v v v v v v v v v v v v v v v v v v v R s",
" w.'Xf 8 8 8.6XnXnXnXvXvXvXv W WX: a a p.G.q u rXC 0Xm.2 Y Y RXk",
" _._.A.AXAX4X3.Y # #. . . . . .  # # j jX3 `X4XA.AX$X$X&X&X$ R t",
"X= 2 e |X9.!.% = =.}.} F.M.M.M.M.M.M.M.M.M.M.M.M.M.} 7 7 7 7 L C"
};
