/* XPM */
static const char * IconTVRefine[] = {
/* width height ncolors chars_per_pixel */
"16 16 200 2",
/* colors */
"   c #748B40",
" . c #A1BD76",
" X c #9EBD73",
" o c #262D39",
" O c #4C5A1C",
" + c #161A47",
" @ c #819767",
" # c #3E4822",
" $ c #252C1A",
" % c #04045D",
" & c #282F3E",
" * c #5D7033",
" = c #6B7C19",
" - c #404D06",
" ; c #6D833C",
" : c #C3C8AB",
" > c #AFB494",
" , c #637611",
" < c #566722",
" 1 c #60720E",
" 2 c #4A5820",
" 3 c #4D5B19",
" 4 c #49581F",
" 5 c #B2B990",
" 6 c #5A6B29",
" 7 c #839144",
" 8 c #121553",
" 9 c #222831",
" 0 c #677B39",
" q c #8F9B53",
" w c #0E0F4F",
" e c #758C40",
" r c #4C592F",
" t c #4E5D1D",
" y c #04044F",
" u c #161A50",
" i c #5A6B18",
" p c #5F7109",
" a c #424F11",
" s c #29303E",
" d c #717B49",
" f c #6E843C",
" g c #070841",
" h c #030347",
" j c #B0CE76",
" k c #AECE74",
" l c #3B4721",
" z c #768929",
" x c #849244",
" c c #303916",
" v c #DDDED7",
" b c #040458",
" n c #161A2E",
" m c #586908",
" M c #070847",
" N c #53640D",
" B c #4B5A19",
" V c #435025",
" C c #CBCFBB",
" Z c #424E10",
" A c None",
" S c #5C653A",
" D c #66771C",
" F c #C0C3B0",
" G c #040447",
" H c #191E4B",
" J c #ABAF98",
" K c #607316",
" L c #819833",
" P c #0D0E53",
" I c #4C5B2A",
" U c #3C464C",
" Y c #4B5929",
" T c #9DB94B",
" R c #5C6E33",
" E c #04044A",
" W c #03033F",
" Q c #7A9243",
" ! c #1B203C",
" ~ c #09095C",
" ^ c #5E700D",
" / c #697925",
" ( c #04044D",
" ) c #657521",
" _ c #9EA18E",
" ` c #495420",
" ' c #2E3720",
" ] c #445125",
" [ c #566830",
" { c #030342",
" } c #252C60",
" | c #657938",
".  c #596A1F",
".. c #637736",
".X c #B4B7AA",
".o c #748C40",
".O c #738A3F",
".+ c #70863C",
".@ c #040450",
".# c #252742",
".$ c #495823",
".% c #6F8531",
".& c #222835",
".* c #212834",
".= c #607215",
".- c #05055E",
".; c #4D5C2A",
".: c #5E7134",
".> c #040453",
"., c #272E3D",
".< c #798834",
".1 c #6E843D",
".2 c #6C823B",
".3 c #AFB594",
".4 c #DFE0D7",
".5 c #748725",
".6 c #0E1156",
".7 c #444F17",
".8 c #1D2329",
".9 c #778B6A",
".0 c #040456",
".q c #0E1038",
".w c #070845",
".e c #4A5720",
".r c #48531E",
".t c #56672F",
".y c #1E2437",
".u c #667A38",
".i c #3B422F",
".p c #687A65",
".a c #B5B8AA",
".s c #606F3C",
".d c #080953",
".f c #29313B",
".g c #A1BD75",
".h c #121535",
".j c #9FBD73",
".k c #040445",
".l c #718432",
".z c #6C8137",
".x c #7B815D",
".c c #0F1253",
".v c #121442",
".b c #111441",
".n c #5E7033",
".m c #424F07",
".M c #6C7E19",
".N c #353E43",
".B c #0D0F5E",
".V c #4C573F",
".C c #343938",
".Z c #39441F",
".A c #3A464B",
".S c #495728",
".D c #54630B",
".F c #A1A97B",
".G c #1A1F46",
".H c #596B27",
".J c #1B203D",
".K c #2D3613",
".L c #08095C",
".P c #4D5C25",
".I c #505F1E",
".U c #14172C",
".Y c #36404A",
".T c #435125",
".R c #53642E",
".E c #414B23",
".W c #7F952E",
".Q c #272E3B",
".! c #637523",
".~ c #262D30",
".^ c #B0CE75",
"./ c #13164F",
".( c #62750E",
".) c #5E7014",
"._ c #718520",
".` c #05055F",
".' c #607137",
".] c #C2C7AB",
".[ c #859244",
".{ c #7B9344",
".} c #676F41",
".| c #687A63",
"X  c #B7BAAA",
"X. c #748912",
"XX c #708618",
"Xo c #687C24",
"XO c #3E4B12",
"X+ c #121533",
"X@ c #03034C",
"X# c #353F48",
"X$ c #445225",
"X% c #5A6C2A",
"X& c #55672F",
"X* c #15194D",
"X= c #54652E",
"X- c #657A38",
"X; c #6D7E2C",
"X: c #D8FF77",
/* pixels */
" A A A FX .a.x.} d `.!Xo.l J A A",
" A A q r nX#.A.A.b { GX@.@.i A A",
" A A.M.B.7 @ X.j.j.j.j kX: T.3 A",
" A v 2 P.V h w y ( E G.k { W.# A",
" A.] s.J.c._ #.|.p.9.^ j.g ..' >",
" A x 8X+.`.8 }.E.K $X+.U.v U.N.C",
" A D.`.y b 9.f pXXX. 1 L.W - ' c",
" v.e.0 + M.G 3 Z f.u.:.H <.= ,.(",
".] &.w.L.h.6 m 6 fX-.:X& IX$.Z 4",
".[ u.& %.~.Q.m.+ f |.: [.;.T l S",
" =.`.*.> o B a e f 0 *.t I V.$.X",
".s.d./ gX* N t.o.1X-.nX= Y ].r A",
"X;.Y ~.q.,. .z   ; | R.R.S.P _ A",
".4.5.- ! OXO Q.O.2..X% i ).F A A",
" A.4 z H ^.I.{.% K.< 5 C A A A A",
" A A.4 /.D.) 7 : v A A A A A A A"
};
