/* XPM */
static const char * IconHelpCMDs[] = {
/* width height ncolors chars_per_pixel */
"32 32 207 2",
/* colors */
"   c #475947",
" . c #475A47",
" X c #122121",
" o c #A1A5A5",
" O c #122222",
" + c #12260E",
" @ c #12260F",
" # c #12270F",
" $ c #122710",
" % c #123012",
" & c #D7D8D7",
" * c #D7D8D8",
" = c #D7D9D7",
" - c #D7DAD7",
" ; c #123312",
" : c #123412",
" > c #485C48",
" , c #244A24",
" < c #B4ADAD",
" 1 c #4A2626",
" 2 c #132222",
" 3 c #132323",
" 4 c #A2A7A7",
" 5 c #381E1E",
" 6 c #132910",
" 7 c #132A10",
" 8 c #495353",
" 9 c #495454",
" 0 c #D8D9D7",
" q c #D8D9D9",
" w c #D8DAD8",
" e c #133413",
" r c #133613",
" t c #391414",
" y c #806767",
" u c #B5ADAD",
" i c #142424",
" p c #142525",
" a c #142626",
" s c #A3ADA3",
" d c #142B11",
" f c #142C11",
" g c #D9D7D7",
" h c #4A5555",
" j c #384B38",
" k c #4A5847",
" l c #384C38",
" z c #D9DBDB",
" x c #4A5948",
" c c #A49999",
" v c #143814",
" b c #143914",
" n c #929991",
" m c #152626",
" M c #152727",
" N c #152D11",
" B c #152D12",
" V c #DAD7D7",
" C c #DAD8D8",
" Z c #DADBDB",
" A c #394F39",
" S c #153915",
" D c #153A15",
" F c #153B15",
" G c #162828",
" H c #162F12",
" J c #163012",
" K c #163013",
" L c #3A4938",
" P c #3A4A38",
" I c #4C5959",
" U c #4C5A5A",
" Y c #4C5C4A",
" T c #5E6B6B",
" R c #163C16",
" E c #B8AEAE",
" W c #B8AFAF",
" Q c #3C1919",
" ! c #4E2828",
" ~ c #949A9A",
" ^ c #949D93",
" / c #3C2020",
" ( c #172828",
" ) c #172929",
" _ c #172A2A",
" ` c #3B4646",
" ' c #3B4747",
" ] c #3B4848",
" [ c #3B543B",
" { c #838A7F",
" } c #B9AFAF",
" | c #726363",
".  c #3D2020",
".. c #959F93",
".X c #182B2B",
".o c #95A495",
".O c #3C4848",
".+ c #3C4949",
".@ c #183414",
".# c #3C4D39",
".$ c #183514",
".% c #183718",
".& c #727C7C",
".* c #3E1717",
".= c #502C2C",
".- c #192929",
".; c #96A295",
".: c #192D2D",
".> c #192E2E",
"., c #BABEBE",
".< c #3D4A4A",
".1 c #CCD0CC",
".2 c #193514",
".3 c #193515",
".4 c #DEE0E0",
".5 c #3D5252",
".6 c #745959",
".7 c #859685",
".8 c #1A2F2F",
".9 c #3E4B4B",
".0 c #1A3816",
".q c #747E7E",
".w c #2E1010",
".e c #868E8E",
".r c #1B2B2B",
".t c #1B2F2F",
".y c #BCBFBF",
".u c #2D3C3C",
".i c #3F533C",
".p c #3F543C",
".a c #644D4D",
".s c #411D1D",
".d c #758875",
".f c #887474",
".g c #CFCBCB",
".h c #BDC0C0",
".j c #BDC2BD",
".k c #BDC5BD",
".l c #655454",
".z c #301111",
".x c #889393",
".c c #BEC3C3",
".v c #311111",
".b c #311212",
".n c #553333",
".m c #ADB1B1",
".M c #ADB3AD",
".N c #ADB4AD",
".B c #1E361E",
".V c #1E371E",
".C c #553E3E",
".Z c #9C9292",
".A c #425B3F",
".S c #675555",
".D c #AEB1B1",
".F c #AEB2B2",
".G c #AEB3B3",
".H c #677272",
".J c #556955",
".K c #685555",
".L c #1F451F",
".P c #798282",
".I c #331212",
".U c #331313",
".Y c #AFB3B3",
".T c #0E250E",
".R c #AFB4B4",
".E c #0E270E",
".W c #0E280E",
".Q c #AFB7AE",
".! c #0E290E",
".~ c #203535",
".^ c #687171",
"./ c #687373",
".( c #687474",
".) c #687765",
"._ c #213030",
".` c #B0B5B5",
".' c #B0B6B6",
".] c #21341E",
".[ c #0F280F",
".{ c #21351F",
".} c #0F290F",
".| c #0F2A0F",
"X  c #0F2B0F",
"X. c #9F9393",
"XX c None",
"Xo c #455757",
"XO c #351313",
"X+ c #101E1E",
"X@ c #10230E",
"X# c #223131",
"X$ c #B1B9B1",
"X% c #102D10",
"X& c #102E10",
"X* c #6A7878",
"X= c #361414",
"X- c #361515",
"X; c #111F1F",
"X: c #112020",
"X> c #11240E",
"X, c #11250E",
"X< c #361E1E",
"X1 c #11260E",
"X2 c #11260F",
"X3 c #233232",
"X4 c #233737",
/* pixels */
"XXXXXX.S.I 1.=.b.fXXXXXXXXXXXXXXXXXXXXXXXXXXXXXXXXXXXXXXXXXXXXXX",
"XXXXX..I / E } !.U cXXXXXXXXXXXXXXXXXXXXXXXXXXXXXXXXXXXXXXXXXXXX",
"XXXXXOX<XXXXXX C.nX.XXXXXXXXXXXXXXXXXXXXXXXXXXXXXXXXXXXXXXXXXXXX",
"XX VXO |XXXXXXXXXXXXXXXXXXXXXXXXXXXXXXXXXX o 8 9 h *XXXXXXXXXXXX",
"XX EX= <XXXXXXXXXXXXXXXXXXXXXXXXXXXXXX.y ` mX4.5.t.-.^ zXXXXXXXX",
"XX W Q uXXXXXXXXXXXXXXXXXXXXXXXXXX.y ` m.X.(.R.`.'Xo.> (.P.4XXXX",
"XX }.s uXXXXXXXX.gXXXXXXXXXXXXXX ' a _./ qXXXXXXXXXX.cX*.>.r.q Z",
"XX C.*.CXXXXXX g. .ZXXXXXXXXXXXX.H.H qXXXXXXXXXXXXXXXXXX q.x G.,",
"XXXX yX-.a u < 5.w.lXXXXXXXXXXXXXXXXXXXXXXXXXXXXXXXXXXXXXX.' p.F",
"XXXXXX.6 t.v.w.z.KXXXXXXXXXXXXXXXXXXXXXXXXXXXXXXXXXXXXXXXX.` X.F",
"XXXXXX.Q { W E VXXXX...MXXXXXXXXXXXXXXXXXXXXXXXXXXXXXXXXXX.RX:.m",
"XXXXXX.$.]XXXXXXXX.j HX@XXXXXXXXXXXXXXXXXXXXXXXXXXXXXXXXXX.Y O.m",
"XXXXXX.$X,.jXXXXXX.) 7X>XXXXXXXXXXXXXXXXXXXXXXXXXXXXXXXX.G.9 p.m",
"XXXXXX.@X1 YXXXXXX JX, #XXXXXXXXXXXXXXXXXXXXXXXXXX.G I M p 2.O *",
"XXXXXX.$ f $ 0XX.. N 7 #XXXXXXXXXXXXXXXXXXXX.G I M m 3 3.<.hXXXX",
"XXXXXX.$ d B ^XX.p #.@ #XXXXXXXXXXXXXXXXXX m pX# i i.+.hXXXXXXXX",
"XXXXXX.3.#.3.{.j J L.3 @XXXXXXXXXXXXXXXXXX i hXX.: hXXXXXXXXXXXX",
"XXXXXX.3 x.A 6.i d n.3 @XXXXXXXXXXXXXXXXXX._ ].D.~.&XXXXXXXXXXXX",
"XXXXXX.$ k.; K B @ &.2 +XXXXXXXXXXXXXXXXXX qX3.: TXXXXXXXXXXXXXX",
"XXXXXX.$ x w.0 $ PXX.$X2XXXXXXXXXXXXXXXXXXXXXXXXXXXXXXXXXXXXXXXX",
"XXXXXXXXXXXX.1XX &XXXXXXXXXXXXXXXXXXXXXXXXXXXXXXXXXXXXXXXXXXXXXX",
"XXXXXXXXXX.N.!.}.} AX$XXXXXXXXXXXXXXXXXXXXXXXXXXXXXXXXXXXXXXXXXX",
"XXXXXXXXXX b.W R F.L.%.dXXXXXXXXXXXXXXXXXXXXXXXXXXXXXXXXXXXXXXXX",
"XXXXXXXXXX D.|XXXX w , % sXXXXXXXXXXXXXXXXXXXXXXXXXXXXXXXXXXXXXX",
"XXXXXXXXXX b.[XXXXXX.o S >XXXXXXXXXXXXXXXXXXXXXXXXXXXXXXXXXXXXXX",
"XXXXXXXXXX DX XXXXXX.k F.VXXXXXXXXXXXXXXXX *XXXXXXXXXXXXXXXXXXXX",
"XXXXXXXXXX D.}XXXXXXXX v.WXXXXXXXXXXXXXXXX.eX;X; ~XXXXXXXXXXXXXX",
"XXXXXXXXXX S.|XXXXXXXX r.EXXXXXXXXXXXXXXXX )X; U.X.hXXXXXXXXXXXX",
"XXXXXXXXXX D.}XXXXXX - ;.TXXXXXXXXXXXXXXXX 3X+XX.8.YXXXXXXXXXXXX",
"XXXXXXXXXX b.}XXXXXX.JX& jXXXXXXXXXXXXXXXX 4 2 M.u.4XXXXXXXXXXXX",
"XXXXXXXXXX b.} .   lX%.B =XXXXXXXXXXXXXXXXXX.h.` qXXXXXXXXXXXXXX",
"XXXXXXXXXX.7 : ; e ; [ =XXXXXXXXXXXXXXXXXXXXXXXXXXXXXXXXXXXXXXXX"
};
