/* XPM */
static const char * IconCrvInterpolCrv[] = {
/* width height ncolors chars_per_pixel */
"32 32 246 2",
/* colors */
"   c #8B480B",
" . c #170E5C",
" X c #AF5F17",
" o c #BEBCCE",
" O c #1C116E",
" + c #241562",
" @ c #BF8E62",
" # c #C8C1BA",
" $ c #88460B",
" % c #826551",
" & c #603208",
" * c #4C2951",
" = c #B07946",
" - c #180E60",
" ; c #7D410A",
" : c #514C7A",
" > c #150D53",
" , c #7D5E42",
" < c #C7B5A5",
" 1 c #794627",
" 2 c #1D1172",
" 3 c #1C1171",
" 4 c #904B0C",
" 5 c #110A45",
" 6 c #673508",
" 7 c #524A92",
" 8 c #211483",
" 9 c #201482",
" 0 c #170F58",
" q c #7A3F0A",
" w c #693E17",
" e c #160D57",
" r c #150D56",
" t c #DCD9D7",
" y c #6E65AA",
" u c #6B649D",
" i c #8C490B",
" p c #534A96",
" a c #1A1068",
" s c #D2BEAC",
" d c #9D6736",
" f c #82440B",
" g c #413977",
" h c #24157F",
" j c #170D5B",
" k c #957159",
" l c #C8B9AC",
" z c #3E319F",
" x c #3C3668",
" c c #130C4D",
" v c #1B106C",
" b c #281B86",
" n c #AE9D8F",
" m c #89470B",
" M c #322B68",
" N c #63342B",
" B c #20137E",
" V c #1F137D",
" C c #C4B7AB",
" Z c #150C52",
" A c #140C51",
" S c #1D1046",
" D c #BFBDD1",
" F c #B5A28F",
" G c #9F7E5F",
" H c #683608",
" J c #4A4572",
" K c #110B44",
" L c #190F63",
" P c #B28861",
" I c #29206C",
" U c #7B400A",
" Y c #AE825D",
" T c #D8D7DC",
" R c #D7D7DB",
" E c #984F0C",
" W c #AFADC1",
" Q c #1D1274",
" ! c #453D84",
" ~ c #3A3562",
" ^ c #8E4A0C",
" / c #120B48",
" ( c #BFAE9F",
" ) c #1A0F67",
" _ c #D3BFAC",
" ` c #201A4F",
" ' c #C5AA91",
" ] c #A1540E",
" [ c #3D317C",
" { c #170E5A",
" } c #673D17",
" | c #D8D7DF",
".  c #D1B8A0",
".. c #1C104B",
".X c #1E1278",
".o c #9893BE",
".O c #954D0C",
".+ c #68360E",
".@ c None",
".# c #2A1E87",
".$ c #BDBCCB",
".% c #25178C",
".& c #23158A",
".* c #221589",
".= c #7B4010",
".- c #8E755E",
".; c #170E5D",
".: c #9D520D",
".> c #8C511A",
"., c #D2C6BB",
".< c #BFBCD0",
".1 c #9792B6",
".2 c #1C116F",
".3 c #6A3709",
".4 c #110A43",
".5 c #87460B",
".6 c #764518",
".7 c #4D281E",
".8 c #8883B1",
".9 c #A47245",
".0 c #150D54",
".q c #C2B6AB",
".w c #7C5E42",
".e c #1D1173",
".r c #AB5D17",
".t c #8F4B0C",
".y c #110A46",
".u c #84440B",
".i c #734318",
".p c #221485",
".a c #160D58",
".s c #793F0A",
".d c #281638",
".f c #221A5D",
".g c #966B44",
".h c #1B106A",
".j c #1A1069",
".k c #633308",
".l c #1E1659",
".z c #221488",
".x c #B0AEC7",
".c c #30238F",
".v c #140C4F",
".b c #934C0C",
".n c #BFBDCF",
".m c #1C106E",
".M c #1B106D",
".N c #7B5633",
".B c #5F3107",
".V c #371E39",
".C c #20137F",
".Z c #9B510D",
".A c #815946",
".S c #150C53",
".D c #D0C5BB",
".F c #8F4A0B",
".G c #190F64",
".H c #85450B",
".J c #793F13",
".K c #91531A",
".L c #4F4885",
".P c #D8D7DD",
".I c #2D1F92",
".U c #251C69",
".Y c #D7D7DC",
".T c #1E1276",
".R c #C0B5AB",
".E c #A89BA4",
".W c #3B3564",
".Q c #130B4A",
".! c #120B49",
".~ c #6C659E",
".^ c #6E6696",
"./ c #B47B46",
".( c #D3BFAD",
".) c #755233",
"._ c #170E5B",
".` c #9F520D",
".' c #4A418D",
".] c #B0ADC6",
".[ c #1F127A",
".{ c #452D71",
".} c #AAA7C0",
".| c #613208",
"X  c #CFBDAC",
"X. c #170E5E",
"XX c #21147F",
"Xo c #E0DBD7",
"XO c #656186",
"X+ c #733C09",
"X@ c #6D65A5",
"X# c #1C1170",
"X$ c #914B0C",
"X% c #A69A9E",
"X& c #110A44",
"X* c #100A43",
"X= c #50416E",
"X- c #86460B",
"X; c #B7AA9E",
"X: c #201481",
"X> c #D8C9BB",
"X, c #703A09",
"X< c #8D490B",
"X1 c #663509",
"X2 c #BCBBC7",
"X3 c #281982",
"X4 c #321E43",
"X5 c #211485",
"X6 c #765333",
"X7 c #C8B9AB",
"X8 c #AD9680",
"X9 c #6B381B",
"X0 c #3B3666",
"Xq c #241C60",
"Xw c #8B490C",
"Xe c #623308",
"Xr c #7F420A",
"Xt c #483D97",
"Xy c #B1AEC9",
"Xu c #1F137C",
"Xi c #1A0F4C",
"Xp c #140C50",
"Xa c #C0BDD1",
"Xs c #924C0C",
"Xd c #1B1164",
"Xf c #5F3108",
"Xg c #180F61",
"Xh c #CDBCAC",
"Xj c #7C400A",
"Xk c #DEDAD7",
"Xl c #AFADC0",
"Xz c #9893BA",
"Xx c #713B09",
"Xc c #1D1273",
"Xv c #281B8B",
"Xb c #110B46",
"Xn c #84450B",
"Xm c #CABAAC",
"XM c #A29FB3",
"XN c #271E6C",
"XB c #D8D7DE",
"XV c #1E1277",
"XC c #864E1A",
"XZ c #BAA38F",
"XA c #6E3909",
"XS c #130B4B",
/* pixels */
".@.@.@.@.@.@.@.@.@.@.@.@XoX .9 P.(X>X2XNXVX5 y |.@.@.@.@.@.@.@.@",
".@.@.@.@.@.@.@.@.@.@.,.>.FX$.FX$ E.: S.G.TXv.%Xt.@.@.@.@.@.@.@.@",
".@.@.@.@.@.@.P uX@ k.H.H ;XAXeXf 6.+X& . OX3.pX:.@.@.@.@.@.@.@.@",
".@.@.@.@.@XMX..T 8X3.J.i.-.q lXmX7X= 5XSX. v.T Q '.@.@.@.@.@.@.@",
".@.@.@.@.$X& . 2 b.I h t.@.@.@.@.@ o.UX&.Q {.; N X. .@.@.@.@.@.@",
".@.@.@.@XlX& > a.e B.CXy.@.@.@.@.@.@.}Xd /.4 `X1 ;.r @.@.@.@.@.@",
".@.@.@.@.] Z.y.a L.2 O o.@.@.@.@.@.@.@.< W W.@.( 1Xn.r. .@.@.@.@",
".@.@.@.@ | g.l 5Xp e g.@.@.@.@.@.@.@.@.@.@.@.@.@ <XeXw.r.@.@.@.@",
".@.@.@.@.@ w.=.. 5 ~ R.@.@.@.@.@.@.@.@.@.@.@.@.@.@.gXx ]X>.@.@.@",
".@.@.@.@.RX,  .g.@.@.@.@.@.@.@.@.@.@.@.@.@.@.@.@.@Xk &.t./.@.@.@",
".@.@.@.@X6 ;  .D.@.@.@.@.@.@ T.]Xy D.@.@.@.@.@.@.@.@.N U ]Xo.@.@",
".@.@.@.@.|.5 d.@.@.@.@.@.@X2Xq.2 8.z.8.@.@.@.@.@.@.@ FX, E _.@.@",
".@.@.@ #Xx  XZ.@.@.@.@.@.@.W .X#XX.I.z |.@.@.@.@.@.@X%X4 * u |.@",
".@.@.@ ,Xj.t.,.@.@.@.@.@.PXb.v )XcXX 9Xz.@.@.@.@.@.^ r.M.C.&.c D",
".@.@.@.)Xn i.@.@.@.@.@.@.P ZX* r.GX#.e.1.@.@.@.@.@X0 Z aXV z.p.o",
".@.@.DXe $.9.@.@.@.@.@.@.@ ! c.4.v._ ..P.@.@.@.@.@ A / j v.TXu 7",
".@.@.q.3 ^ Y.@.@.@.@.@.@.@XB.~ Z.dX4X2.@.@.@.@.@.@ g.Q /.a.G a.1",
".@.@ n.sXsXh.@.@.@.@.@.@.@.@.@ &X< =.@.@.@.@.@.@.@Xa [.Q.4.Q x R",
".@.@.wXj.O.@.@.@.@.@.@.@.@.@.@.B.5 =.@.@.@.@.@.@.@.@.E.7X9.A R.@",
".@.@ , f.O.@.@.@.@.@.@.@.@.@.@.kXn.:.@.@.@.@.@.@.@.@ C H ^ '.@.@",
".@.$.V N 1 |.@.@.@.@.@.@.@.@.@.6 q.`.@.@.@.@.@.@.@.@ GX+ 4X .@.@",
" R.0.m V.*.c |.@.@.@.@.@.@.@.@ FX+.Z s.@.@.@.@.@.@.@X6Xr 4.@.@.@",
" :.S.j.X z.zX@.@.@.@.@.@.@.@.@ l.k.b Y.xXB.@.@.@.@ t 6X- d.@.@.@",
".S / ..hXV V p.@.@.@.@.@.@.@.@.@X1.= +.[X5.o.@.@.@ %.s m G.@.@.@",
" I KXS._ a v.L.@.@.@.@.@.@.@.@.@ %Xi.j.[Xv.&.}.@X8.s.HXCXk.@.@.@",
".n.UXb.4 A.f.Y.@.@.@.@.@.@.@.@.@ J.! - 3.#.p.{.K.5.u q (.@.@.@.@",
".@.n.L MXO R.@.@.@.@.@.@.@.@.@.@ :X& A L.mXV N.u U HX;.@.@.@.@.@",
".@.@.@.@.@.@.@.@.@.@.@.@.@.@.@.@ u.fX& c {XgX4 } n t.@.@.@.@.@.@",
".@.@.@.@.@.@.@.@.@.@.@.@.@.@.@.@ |.' 0.4X&X0 R.@.@.@.@.@.@.@.@.@",
".@.@.@.@.@.@.@.@.@.@.@.@.@.@.@.@.@.@ oXlXl.@.@.@.@.@.@.@.@.@.@.@",
".@.@.@.@.@.@.@.@.@.@.@.@.@.@.@.@.@.@.@.@.@.@.@.@.@.@.@.@.@.@.@.@",
".@.@.@.@.@.@.@.@.@.@.@.@.@.@.@.@.@.@.@.@.@.@.@.@.@.@.@.@.@.@.@.@"
};
