/* XPM */
static const char * IconViewNext[] = {
/* width height ncolors chars_per_pixel */
"32 32 250 2",
/* colors */
"   c #BEBECB",
" . c #1C1C61",
" X c #325D09",
" o c #1A1A5F",
" O c #6A6A93",
" + c #509744",
" @ c #171752",
" # c #193661",
" $ c #0F4D4D",
" % c #D8DED7",
" & c #135E5E",
" * c #1B7909",
" = c #3A3632",
" - c #19492F",
" ; c #1A2158",
" : c #7C4F73",
" > c #277918",
" , c #105151",
" < c #4B8181",
" 1 c #E8D6D6",
" 2 c #0D4444",
" 3 c #C2AAAA",
" 4 c #5C7435",
" 5 c #892D2D",
" 6 c #185027",
" 7 c #115555",
" 8 c #19195A",
" 9 c #3B7171",
" 0 c #D7DCDC",
" q c #DED9D9",
" w c #B0B0C3",
" e c #D8D8DD",
" r c #212165",
" t c #0E4848",
" y c #123E4C",
" u c #25680F",
" i c #145B5B",
" p c #1A6618",
" a c #D21515",
" s c #125959",
" d c #69A05F",
" f c #A1B4B4",
" g c #519844",
" h c #161650",
" j c #EABDBD",
" k c #1F1F66",
" l c #135D5D",
" z c #1B1B62",
" x c #0C3F3F",
" c c #A4A4BA",
" v c #5A284A",
" b c #79282D",
" n c #105050",
" m c #A8444E",
" M c #B35C5C",
" N c #0F4545",
" B c #E3B9B9",
" V c #197409",
" C c #197209",
" Z c #0D4343",
" A c #892C2C",
" S c #211B57",
" D c #408C8C",
" F c #115454",
" G c #171D4D",
" H c #144457",
" J c #327171",
" K c #E7D7D7",
" L c #0E4747",
" P c #1B552C",
" I c #206F09",
" U c #145A5A",
" Y c #236C6C",
" T c #125858",
" R c #568787",
" E c #DB3D41",
" W c #7E8D5F",
" Q c #1A1A5D",
" ! c #ACC1C1",
" ~ c #A3A3B5",
" ^ c #26266C",
" / c #292965",
" ( c #5C3134",
" ) c #171750",
" _ c #205F5F",
" ` c #0F4B4B",
" ' c #135C5C",
" ] c #CBC0C5",
" [ c #1C1C62",
" { c None",
" } c #1C2E4E",
" | c #195623",
".  c #192C4B",
".. c #0C3E3E",
".X c #ED9494",
".o c #BCAA9F",
".O c #659292",
".+ c #104F4F",
".@ c #171753",
".# c #A44949",
".$ c #933535",
".% c #D56262",
".& c #1B7B0A",
".* c #1A7909",
".= c #217070",
".- c #1A7709",
".; c #1A7509",
".: c #0D4242",
".> c #5A5A84",
"., c #3E4D6F",
".< c #1B1B5A",
".1 c #115353",
".2 c #C8CFD2",
".3 c #7C2828",
".4 c #105048",
".5 c #A3A3A7",
".6 c #D7DADA",
".7 c #0E4646",
".8 c #96B890",
".9 c #9595AD",
".0 c #BDC7B3",
".q c #AEC2C2",
".w c #0F4A4A",
".e c #BECBCB",
".r c #EABBBB",
".t c #1A730F",
".y c #BCC9C9",
".u c #1D1D62",
".i c #195722",
".p c #901C2E",
".a c #495F19",
".s c #659191",
".d c #104E4E",
".f c #613827",
".g c #4A244C",
".h c #237171",
".j c #125D5D",
".k c #AEA190",
".l c #0D4141",
".z c #424272",
".x c #DD9090",
".c c #DFD8D7",
".v c #A2BCBC",
".b c #3D7D7D",
".n c #0E4545",
".m c #345811",
".M c #A36278",
".N c #1F6666",
".B c #2E7878",
".V c #182A45",
".C c #6A9292",
".Z c #AEC1C1",
".A c #9F6060",
".S c #0F4949",
".D c #537878",
".F c #1E1E62",
".G c #A8A790",
".H c #115858",
".J c #2F7C7C",
".K c #6A6A92",
".L c #37681A",
".P c #1E184E",
".I c #171751",
".U c #588D8D",
".Y c #1E1E65",
".T c #125C5C",
".R c #1C1C63",
".E c #A1B7B7",
".W c #418B34",
".Q c #1B2E4E",
".! c #3C7878",
".~ c #0D4040",
".^ c #A5A5BB",
"./ c #873A48",
".( c #7B8D8B",
".) c #292969",
"._ c #3F3F6E",
".` c #235C5C",
".' c #47234B",
".] c #8B3438",
".[ c #364926",
".{ c #1F5858",
".} c #0E4444",
".| c #7C2612",
"X  c #197309",
"X. c #527373",
"XX c #197109",
"Xo c #4B664B",
"XO c #A4C09F",
"X+ c #105353",
"X@ c #3D8989",
"X# c #AEC0C0",
"X$ c #CAB4B4",
"X% c #146464",
"X& c #26265F",
"X* c #0F4848",
"X= c #537777",
"X- c #8484A4",
"X; c #18255B",
"X: c #BDBDC8",
"X> c #195720",
"X, c #115757",
"X< c #1C6565",
"X1 c #27276D",
"X2 c #124E4E",
"X3 c #93AFAF",
"X4 c #658F8F",
"X5 c #762626",
"X6 c #767696",
"X7 c #BDCBCB",
"X8 c #1B5B25",
"X9 c #985B5B",
"X0 c #125B5B",
"Xq c #1D1D63",
"Xw c #196219",
"Xe c #A1B6B6",
"Xr c #1B1B61",
"Xt c #0D3F3F",
"Xy c #337118",
"Xu c #578181",
"Xi c #94B3B3",
"Xp c #4F9044",
"Xa c #115050",
"Xs c #181854",
"Xd c #505081",
"Xf c #8C3338",
"Xg c #1B7C0A",
"Xh c #EC7272",
"Xj c #1A7809",
"Xk c #1A7609",
"Xl c #0E4343",
"Xz c #1C6B6B",
"Xx c #2A2A6C",
"Xc c #105252",
"Xv c #462756",
"Xb c #166565",
"Xn c #171D4C",
"Xm c #D7D7DA",
"XM c #217109",
"XN c #672E48",
"XB c #1C1C5E",
"XV c #115656",
"XC c #1A1A5C",
"XZ c #2F7A7A",
"XA c #D7DDDD",
"XS c #0E4949",
"XD c #BDCACA",
"XF c #196E0E",
"XG c #1B2060",
"XH c #125A5A",
/* pixels */
" f J.h YXA { { { { { { { { { { { { { { { { { { { { { { { { { { {",
"X* F.B.=.b { { { { { { { { { { { { { { { { { { { { { { { { { { {",
".~XS 7XZXz.U { { { { { { { { { { { { { { { { { { { { { { { { { {",
" 9.~ `X, DXbXi { { { { { {.E { { { { { { { { { { { { { { { { { {",
".eX2.l $ UX@Xb.v { { { {Xe l { { { { { { { { { { { { { { { { { {",
" { ! N.: n i.JX%XA { {X3 ' &.Z { { { { { { { { { { { { { { { { {",
" { {.C N 2 ,X<.J Y.2 R.T & &.s { { { { { { { { { { { { { { { { {",
" { { {Xu.l.7.1.N.J.H sX0 l & < { { { { { { { { { { { { { { { { {",
" { { { { _.~ L.1.1 7 TXH l & l { { { { { { { { { { { { { { { { {",
" { { { { 0.`.: ` n.1XV sX0 l &XD { { { { { { { { { { { { { { { {",
" { { { { {.D L ` $ n FX,XH ' &.q { { { { { { { { { { { { { { { {",
" { { { {X.Xt Z L ` $ , 7 s.T & < { { { { { { { { { { { { { { {X6",
" { {.6X=.~.....:.7 `.dXcXVXH &.N { { { { { { { { { { { { e wX- {",
" {.y.{.S.n.:Xt...~.n.w.dX+ T.T & 0 { { { { { { { { ] O.)Xr c { {",
" { {X3 _.+.S 2.l...~.} `.+ 7XH &.q { { { { { q.AXf vXrXC ~ { { {",
" { { { {X# 9.+.S Z.~...} ` nX, l.O { { { { 3 M.].g QX&X: { { { {",
" { { { { { {X7 =Xa t.: xXl.w.1 s.! { { { 3.#XN S Q.> { { { { { {",
" { { { { { K m :.2X4.+.n x.l `XV.j {X:.z./.'XC ..9 { { { { { { {",
" { { {.r.x.f.;.; I X u.[.4 Z.l.d s.,.< ^ ..uXB.^ { { { { { { { {",
" { { {.%.M W VXF -.;.;.;.;X8.4.l n #X1.Y.RXx.5 { { { { { { { { {",
" { { { { { {.(Xn.@.VXw V.;X> GX; y H [ z PXm { { { { { { { { { {",
" { { { { { {.9.I @.@Xs 6 GXs . kXqXG } p * { { { { { { { { { { {",
" { { { { { { { h ) @.@Xs 8XqXqXr. X8XjXj.* { { { { { { { { { { {",
" { { { { { { {._ h h @ Q.R [ o.iXk.-XjXj.*.0 { { { { { { { { { {",
" { {XOXpXpXpXpXo.P 8Xq k rXC | V.;XkXjXj.* d { { { { { { { { { {",
" { {.k >XX C.m b.$Xv.FXB ^ /.GX  V.;.-XjXj g { { { { { { { { { {",
" { { { {.8.LX5 5.$ ( ;.QXCXd { ].W VXk.-Xj + 1.p j { { { { { { {",
" { { { { {X$ A.3.fXM.&.t.K   { { {.oXyXkXj = EXh { { { { { { { {",
" { { { { { {X9X9XMXj.&Xg { { { { { { %.|.p.X { { { { { { { { { {",
" { { { { { { { {.c.aXj.& { { { { { { { a B { { { { { { { { { { {",
" { { { { { { { { {.c 4.W { { { { { { { { { { { { { { { { { { { {",
" { { { { { { { { { { { { { { { { { { { { { { { { { { { { { { { {"
};
