/* XPM */
static const char * IconANIntSlider[] = {
/* width height ncolors chars_per_pixel */
"64 64 248 2",
/* colors */
"   c #000000",
" . c #A0B0C6",
" X c #000200",
" o c #000B00",
" O c #000D00",
" + c #DA6655",
" @ c #001300",
" # c #CA1C13",
" $ c #001600",
" % c #CA1F15",
" & c #001F00",
" * c #002100",
" = c #EAC2B7",
" - c #EAC4B6",
" ; c #EAC4B7",
" : c #EAC5B7",
" > c #EAC5B8",
" , c #C4EEB2",
" < c #EAC6BB",
" 1 c #EAC7BA",
" 2 c #EAC7BB",
" 3 c #002800",
" 4 c #EAC9BD",
" 5 c #E9EAD9",
" 6 c #EACBC0",
" 7 c #0CFE0A",
" 8 c #EACCC1",
" 9 c #EACCC2",
" 0 c #EACEC2",
" q c #EACEC4",
" w c #EACFC4",
" e c #EAD0C6",
" r c #003400",
" t c #1FF421",
" y c #CB1F15",
" u c #CB2016",
" i c #CB2217",
" p c #003D00",
" a c #CB2518",
" s c #C6CCD0",
" d c #BA0100",
" f c #EBCEC4",
" g c #EBCFC4",
" h c #EBCFC5",
" j c #32FA2C",
" k c #DC6958",
" l c #DC6D5B",
" z c #DC725F",
" x c #90C3AB",
" c c #A1F392",
" v c #BB0200",
" b c #EBEADD",
" n c #007500",
" m c #007600",
" M c #58F84B",
" N c #007A00",
" B c #21F820",
" V c #257580",
" C c #DD7666",
" Z c #DD7966",
" A c #BC0300",
" S c #008C00",
" D c #BC0401",
" F c #DD7E6C",
" G c #0FFE0D",
" H c #009200",
" J c #EDD1C6",
" K c #EDD4C9",
" L c #EDD7CB",
" P c #EDD7CC",
" I c #EDD8CE",
" U c #EDD9CE",
" Y c #00A000",
" T c #CE261A",
" R c #CE281C",
" E c #CE2A1F",
" W c #3966A0",
" Q c #CE2B1F",
" ! c #CE2C1F",
" ~ c #5CA398",
" ^ c #BD0401",
" / c #10FC0D",
" ( c #EDEADD",
" ) c #DE7E6C",
" _ c #BD0501",
" ` c #BD0601",
" ' c #BD0602",
" ] c #DE806F",
" [ c #DE8273",
" { c #DE8475",
" } c #FFFFFF",
" | c #DBEDCA",
".  c #EED9CF",
".. c #EEDACF",
".X c #EEDAD0",
".o c #EEDCD1",
".O c #EEDDD3",
".+ c #EEDDD4",
".@ c #EEDED5",
".# c #EEE0D7",
".$ c #CF2D21",
".% c #00CC00",
".& c #CF3023",
".* c #EEE9E0",
".= c #EEEAE0",
".- c #DF8473",
".; c #00D800",
".: c #00DA00",
".> c #EFE2D8",
"., c #EFE2D9",
".< c #EFE3D9",
".1 c #EFE3DA",
".2 c #EFE5DA",
".3 c #EFE5DC",
".4 c #EFE5DD",
".5 c #EFE6DD",
".6 c #EFE6E2",
".7 c #EFE7DE",
".8 c #00ED00",
".9 c #EFE9E0",
".0 c #D03125",
".q c #EFEAE0",
".w c #D03226",
".e c #D03527",
".r c #00F700",
".t c #00FC00",
".y c #00FE00",
".u c #E08C7D",
".i c #00FF00",
".p c #F0E6DD",
".a c #F0E7DE",
".s c #F0E9E0",
".d c #F0EAE1",
".f c #F0EAE2",
".g c #F0EAE4",
".h c #C00501",
".j c #F0EBE3",
".k c #C00601",
".l c #C00602",
".z c #C00702",
".x c #C00703",
".c c #F0EDE5",
".v c #F0EEE5",
".b c #F0EEE6",
".n c #F0F0EA",
".m c #E18F81",
".M c #14EE1C",
".N c #E19181",
".B c #E19282",
".V c #E19888",
".C c #7393B7",
".Z c #C10703",
".A c #C10803",
".S c #C10903",
".D c #C10904",
".F c #02FF01",
".G c #E29686",
".H c #E29788",
".J c #E2998A",
".K c #F2EAE3",
".L c #BCC6CE",
".P c #F2EEE6",
".I c #C20904",
".U c #F2EFE7",
".Y c #C20A04",
".T c #04D413",
".R c #F2F0E9",
".E c #C20B05",
".W c #C20C05",
".Q c #F2F2EA",
".! c #F2F3ED",
".~ c #D34335",
".^ c #28FA23",
"./ c #E39889",
".( c #F3EAE3",
".) c #F3EAE5",
"._ c #E3A090",
".` c #F3F3ED",
".' c #F3F3EE",
".] c #F3F4EE",
".[ c #D44031",
".{ c #D44435",
".} c #AAF09A",
".| c #CFEEBF",
"X  c #C40C05",
"X. c #C40C06",
"XX c #C40E06",
"Xo c #C40F08",
"XO c #05FE04",
"X+ c #86F378",
"X@ c #D54B3B",
"X# c #E5A193",
"X$ c #E5A496",
"X% c #E5A497",
"X& c #E5A797",
"X* c #E5A799",
"X= c #E5A99C",
"X- c #C51009",
"X; c #E5AB9D",
"X: c #C51209",
"X> c #06FE06",
"X, c #E5AD9D",
"X< c #19FC16",
"X1 c #E6B1A3",
"X2 c #E6B1A4",
"X3 c #E6B2A4",
"X4 c #D74839",
"X5 c #E6B5A6",
"X6 c #C0DEBD",
"X7 c #1F4C92",
"X8 c #C0E0BD",
"X9 c #D75241",
"X0 c #D75343",
"Xq c #D75344",
"Xw c #E5E0DE",
"Xe c #E5E1DC",
"Xr c #D75544",
"Xt c #C0EFAF",
"Xy c #E5EBD4",
"Xu c #C7130A",
"Xi c #C7130D",
"Xp c #E5EDD4",
"Xa c #C7140C",
"Xs c #C7160D",
"Xd c #E7B6A7",
"Xf c #E7BAAB",
"Xg c #E7BBAF",
"Xh c #D85544",
"Xj c #D85545",
"Xk c #D85644",
"Xl c #D85847",
"Xz c #D85848",
"Xx c #D85947",
"Xc c #D85B4A",
"Xv c #D85B4B",
"Xb c #65F758",
"Xn c #C8170E",
"Xm c #9DF38E",
"XM c #9DF48E",
"XN c #D5D7D7",
"XB c #D95948",
"XV c #D95E4E",
"XC c #D96551",
"XZ c #2FFC27",
"XA c #E9B8AB",
"XS c #E9BDB0",
"XD c #E9BDB1",
"XF c #E9C0B2",
/* pixels */
".d.d.d.d.d.d.d.d.d.d.d.d.d.d.d.d.d.d.d.d.d.d.d.d.d.d.d.d.d.d.d.d.d.d.d.d.d.d.d.d.d.d.d.d.d.d.d.d.d.d.d.d.d.d.d.d.d.d.d.d.d.d.d.d",
".d.d.d.d.d.d.d.d.d.d.d.d.d.d.d.d.d.d.d.d.d.d.d.d.d.d.d.d.d.d.d.d.d.d.d.d.d.d.d.d.d.d.d.d.d.d.d.d.d.d.d.d.d.d.d.d.d.d.d.d.d.d.d.d",
".d.d.d.d.d.d.d.d.d.d.d.d.d.d.d.d.d.d.d.d.d.d.d.d.d.d.d.d.d.d.d.d.d.d.d.d.d.d.d.d.d.d.d.d.d.d.d.d.d.d.d.d.d.d.d.d.d.d.d.d.d.d.d.d",
".d.d.d.d.d.d.d.d.d.d.d.d.d.d.d.d.d.f.j.j.j.j.j.j.f.d.d.d.d.d.d.d.d.d.d.d.d.d.d.d.d.d.d.d.d.d.d.d.d.d.d.d.d.d.d.d.d.d.d.d.d.d.d.d",
".d.d.d.d.d.d.d.d.d.d.d.d.d.d.d.d.f.3.O.@.<.,.,.@.5.f.d.d.d.d.d.d.d.d.d.d.d.d.d.d.d.d.d.f.j.d.d.d.d.d.d.d.d.d.d.d.d.d.d.d.d.d.d.d",
".d.d.d.d.d.d.d.d.d.d.d.d.d.d.d.d.j.oXgX#.N.m.NX2.+.j.d.d.d.d.d.d.d.d.d.d.d.d.d.d.d.d.j.5.1.d.d.d.d.d.d.d.d.d.d.d.d.d.d.d.d.d.d.d",
".d.d.d.d.d.d.d.d.d.d.d.d.d.d.d.d.f.f 4XvX-XXXs.H.#.j.d.d.d.d.d.d.d.d.d.d.d.d.d.d.d.f.s f <.f.d.d.d.d.d.d.d.d.d.d.d.d.d.d.d.d.d.d",
".d.d.d.d.d.d.d.d.d.d.d.d.d.d.d.d.d.f.cX$.k _ i >.v.f.d.d.d.d.d.d.d.d.d.d.d.d.d.d.d.PX1.- >.f.d.d.d.d.d.d.d.d.d.d.d.d.d.d.d.d.d.d",
".d.d.d.d.d.d.d.d.d.d.d.d.d.d.d.d.d.d.QXd.l `.$ g.b.d.d.f.v.b.v.j.c.R.U.v.f.d.d.d.RXS !.e h.b.j.d.d.d.d.d.d.d.d.d.d.d.d.d.d.d.d.d",
".d.d.d.d.d.d.d.d.d.d.d.d.d.d.d.d.d.d.QX5.l ^X  ;.n.d.d P F.~X0 C z.e TXh >.f.d.+.V u AXsXC.G g.7.d.d.d.d.d.d.d.d.d.d.d.d.d.d.d.d",
".d.d.d.d.d.d.d.d.d.d.d.d.d.d.d.d.d.d.QX5.l ^.Y -.n.d.d.aX9.A.S %XVX@.lXi.G.3.d w.B # vXa k ;.2.s.d.d.d.d.d.d.d.d.d.d.d.d.d.d.d.d",
".d.d.d.d.d.d.d.d.d.d.d.d.d.d.d.d.d.d.QX5.l ^.Y -.n.d.d.cXj _.ZX4 U.-.kX. {.#.j.4 = Q d EXF.7.f.d.d.d.d.d.d.d.d.d.d.d.d.d.d.d.d.d",
".d.d.d.d.d.d.d.d.d.d.d.d.d.d.d.d.d.d.QX5.l ^.Y -.n.d.d.j ZXX.DXx.'XA.x.DXV K.j.f 8.$ d.& q.f.d.d.d.d.d.d.d.d.d.d.d.d.d.d.d.d.d.d",
".d.d.d.d.d.d.d.d.d.d.d.d.d.d.d.d.d.d.QX5.l ^.Y -.n.d.d.j )X-.IXl.`XF.x.SXz J.c.f 6.$ d.& 9.f.d.d.d.d.d.d.d.d.d.d.d.d.d.d.d.d.d.d",
".d.d.d.d.d.d.d.d.d.d.d.d.d.d.d.d.d.d.QX5.l ^.Y -.n.d.d.j )X-.IXl.`XF.x.SXz J.c.f 6.$ d.0 g.f.d.d.d.d.d.d.d.d.d.d.d.d.d.d.d.d.d.d",
".d.d.d.d.d.d.d.d.d.d.d.d.d.d.d.d.d.d.QX5.l ^.Y -.n.d.d.j )X-.IXl.`XF.x.SXz J.c.f 4 ! d RXF.v.j.f.d.d.d.d.d.d.d.d.d.d.d.d.d.d.d.d",
".d.d.d.s.d.d.d.d.d.d.d.d.d.d.d.d.d.f.]Xf.z ^.Y 1.!.f.d.c ]X-.YXB.] ;.x.SXc K.c.d. .0 dXn.u.O.O.9.d.d.d.d.d.d.d.d.d.d.d.d.d.d.d.d",
".d.d.d.7.d.d.d.d.d.d.d.d.d.d.d.d.f.5.@.m _ A.ZX*.X.>.f.3 k.E.h.{.7X% '.IX@ :.d.d.RXq D.S.[X= 4.5.f.d.d.d.d.d.d.d.d.d.d.d.d.d.d.d",
".d.d.j.v.d.d.d.d.d.d.d.d.d.d.d.d.j.o.m Q.WX XoXk ] 2.j 0.~X..A !X3XrXu T.[./.@.f.bX; !.A i.J.p.f.d.d.d.d.d.d.d.d.d.d.d.d.d.d.d.d",
".d.d.j.v.d.d.d.d.d.d.d.d.d.d.d.d.d.d.d.d.f.f.f.f.d.d.d.d.d.f.f.d.d.d.f.d.d.d.d.d.d.d.d.f.d.d.d.d.d.d.d.d.d.d.d.d.d.d.d.d.d.d.d.d",
".d.d.j.v.d.d.d.d.d.d.d.d.d.d.d.d.d.d.d.f.f.f.f.f.d.d.d.d.f.f.f.f.d.d.f.f.f.d.d.d.d.d.f.f.f.d.d.d.d.d.d.d.d.d.d.d.d.d.d.d.d.d.d.d",
".d.d.j.v.d.d.d.d.d.d.d.d.d.d.d.d.d.d.d.d.d.d.d.d.d.d.d.d.d.d.d.d.d.d.d.d.d.d.d.d.d.d.d.d.d.d.d.d.d.d.d.d.d.d.d.d.d.d.d.d.d.d.d.d",
".d.d.d.9.d.d.d.d.d.d.d.d.d.d.d.d.d.d.d.d.d.d.d.d.d.d.d.d.d.d.d.d.d.d.d.d.d.d.d.d.d.d.d.d.d.d.d.d.d.d.d.d.d.d.d.d.d.d.d.d.d.d.d.d",
".d.d.d.d.d.d.d.d.d.d.d.d.d.d.d.d.d.d.d.d.d.d.d.d.d.d.d.d.d.d.d.d.d.d.d.d.d.d.d.d.d.d.d.d.d.d.d.d.d.d.d.d.d.d.d.d.d.d.d.d.d.d.d.d",
".d.d.d.d.d.d.d.d.d.d.d.d.d.d.d.d.d.d.d.d.d.d.d.d.d.d.d.d.d.d.d.d.d.d.d.d.d.d.d.d.d.d.d.d.d.d.d.d.d.d.d.d.d.d.d.d.d.d.d.d.d.d.d.d",
".d.d.d.d.d.d.d.d.d.d.d.d.d.d.d.d.d.d.d.d.d.d.d.d.d.d.d.d.d.d.d.d.d.d.d.d.d.d.d.d.d.d.d.d.d.d.d.d.d.d.d.d.d.d.d.d.d.d.d.d.d.d.d.d",
".d.d.d.d.d.d.d.d.d.d.d.d.d.d.d.d.d.d.d.d.d.d.d.d.d.d.d.d.d.d.d.d.d.d.d.d.d.d.d.d.d.d.d.d.d.d.d.d.d.d.d.d.d.d.d.d.d.d.d.d.d.d.d.d",
".d.d.d.f.d ( b b b b b b b b b b b b b b b b b b b b b b b b b b b b b b b b b b b b b b b b b b b b b b b b b b b (.f.f.d.d.d }",
".d.d.KXyXb G 7 7 7 7 7 7 7 7 7 7 7 7 7 7 7 7 7 7 7 7 7 7 7 7 7 7 7 7 7 7 7 7 7 7 7 7 7 7 7 7 7 7 7 7 7 7 7 7 7 7 7X<Xm.q.f.d.d }",
".d.f.| B.i.i.i.i.i.i.i.i.i.i.i.i.i.i.i.i.i.i.i.i.i.i.i.i.r H n n m Y.i.i.i.i.i.i.i.i.i.i.i.i.i.i.i.i.i.i.i.i.i.i.i.i.F MXp.K.d }",
".d.fXtX>.i.i.i.i.i.i.i.i.i.i.i.i.i.i.i.i.i.i.i.i.i.i.i.i.: $ X X X 3.i.i.i.i.i.i.i.i.i.i.i.i.i.i.i.i.i.i.i.i.i.i.i.i.i tX6.6.d }",
".d.fXtX>.i.i.i.i.i.i.i.i.i.i.i.i.i.i.i.i.i.i.i.i.i.i.i.i.; O       &.i.i.i.i.i.i.i.i.i.i.i.i.i.i.i.i.i.i.i.i.i.i.i.i.i.T V ..* }",
".d.fXtX>.i.i.i.i.i.i.i.i.i.i.i.i.i.i.i.i.i.i.i.i.i.i.i.i.; O       *.i.i.i.i.i.i.i.i.i.i.i.i.i.i.i.i.i.i.i.i.i.i.i.i.i t ~ WXN }",
".d.fXtX>.i.i.i.i.i.i.i.i.i.i.i.i.i.i.i.i.i.i.i.i.i.i.i.i.; O       *.i.i.i.i.i.i.i.i.i.i.i.i.i.i.i.i.i.i.i.i.i.i.i.i.iXZX8X7.L }",
".d.fXtX>.i.i.i.i.i.i.i.i.i.i.i.i.i.i.i.i.i.i.i.i.i.i.i.i.; O       &.i.i.i.i.i.i.i.i.i.i.i.i.i.i.i.i.i.i.i.i.i.i.i.i.i.^ xX7 s }",
".d.fXtX>.i.i.i.i.i.i.i.i.i.i.i.i.i.i.i.i.i.i.i.i.i.i.i.i.: @       r.i.i.i.i.i.i.i.i.i.i.i.i.i.i.i.i.i.i.i.i.i.i.i.i.i.T V.CXe }",
".d.fXtX>.i.i.i.i.i.i.i.i.i.i.i.i.i.i.i.i.i.i.i.i.i.i.i.i.t N X   o.%.i.i.i.i.i.i.i.i.i.i.i.i.i.i.i.i.i.i.i.i.i.i.i.i.i.M xXw.d }",
".d.f , 7.i.i.i.i.i.i.i.i.i.i.i.i.i.i.i.i.i.i.i.i.i.i.i.i.i.r p   S.i.i.i.i.i.i.i.i.i.i.i.i.i.i.i.i.i.i.i.i.i.i.i.i.i.i j |.(.d }",
".d.f 5X+XO.i.i.i.i.i.i.i.i.i.i.i.i.i.i.i.i.i.i.i.i.i.i.i.i.i.8 H.y.i.i.i.i.i.i.i.i.i.i.i.i.i.i.i.i.i.i.i.i.i.i.i.i.i /.}.q.f.d }",
".d.d.f.=.| cXmXmXmXmXmXmXmXmXmXmXmXmXmXmXmXmXmXmXmXmXmXmXmXmXmXMXmXmXmXmXmXmXmXmXmXmXmXmXmXmXmXmXmXmXmXmXmXmXmXmXm.} |.f.d.d.d }",
".d.d.d.d.K.).).).).).).).).).).).).).).).).).).).).).).).).).).).).).).).).).).).).).).).).).).).).).).).).).).).).).f.d.d.d.d }",
".d.d.d.d.d.d.d.d.d.d.d.d.d.d.d.d.d.d.d.d.d.d.d.d.d.d.d.d.d.d.d.d.d.d.d.d.d.d.d.d.d.d.d.d.d.d.d.d.d.d.d.d.d.d.d.d.d.d.d.d.d.d.d }",
".d.d.d.d.d.d.d.d.d.d.d.d.d.d.d.d.d.d.d.d.d.d.d.d.d.d.d.d.d.d.d.d.d.d.d.d.d.d.d.d.d.d.d.d.d.d.d.d.d.d.d.d.d.d.d.d.d.d.d.d.d.d.d }",
".d.d.d.d.d.d.d.d.d.d.d.d.d.d.d.d.d.d.d.d.d.d.d.d.d.d.d.d.d.f.c.v.c.f.d.d.d.d.d.d.d.d.d.d.d.d.d.d.d.d.d.d.d.d.d.d.d.d.d.d.d.d.d }",
".d.d.d.d.d.d.d.d.d.d.d.d.d.d.d.d.d.d.d.d.d.d.d.d.d.d.d.d.f.9.X P P.5.f.d.d.d.d.d.d.d.d.d.d.d.d.d.d.d.d.d.d.d.d.d.d.d.d.d.d.d.d }",
".d.d.d.d.d.d.d.d.d.d.d.d.d.d.d.d.d.d.d.d.d.d.d.d.d.d.d.d.g LXk.w l.7.d.d.d.d.d.d.d.d.d.d.d.d.d.d.d.d.d.d.d.d.d.d.d.d.d.d.d.d.d }",
".d.d.d.d.d.d.d.d.d.d.d.d.d.d.d.d.d.d.d.d.d.d.d.d.d.d.d.d.cX,Xc [XD.f.d.d.d.d.d.d.d.d.d.d.d.d.d.d.d.d.d.d.d.d.d.d.d.d.d.d.d.d.d }",
".d.d.d.d.d.d.d.d.d.d.d.d.d.d.d.d.d.d.d.d.d.d.d.d.d.d.d.f.7XhX: aX3.j.d.d.d.d.d.d.d.d.d.d.d.d.d.d.d.d.d.d.d.d.d.d.d.d.d.d.d.d.d }",
".d.d.d.d.d.d.d.d.d.d.d.d.d.d.d.d.d.d.d.d.d.d.d.d.d.d.d.f.4XD._ Q y...f.d.d.d.d.d.d.d.d.d.d.d.d.d.d.d.d.d.d.d.d.d.d.d.d.d.d.d.d }",
".d.d.d.d.d.d.d.d.d.d.d.d.d.d.d.d.d.d.d.d.d.d.d.d.d.d.d.f.9X&X$ e +.O.f.d.d.d.d.d.d.d.d.d.d.d.d.d.d.d.d.d.d.d.d.d.d.d.d.d.d.d.d }",
".d.d.d.d.d.d.d.d.d.d.d.d.d.d.d.d.d.d.d.d.d.d.d.d.d.d.d.d.dX# lX2 9.f.d.d.d.d.d.d.d.d.d.d.d.d.d.d.d.d.d.d.d.d.d.d.d.d.d.d.d.d.d }",
".d.d.d.d.d.d.d.d.d.d.d.d.d.d.d.d.d.d.d.d.d.d.d.d.d.d.d.d.f.1 I.#.d.d.d.d.d.d.d.d.d.d.d.d.d.d.d.d.d.d.d.d.d.d.d.d.d.d.d.d.d.d.d }",
".d.d.d.d.d.d.d.d.d.d.d.d.d.d.d.d.d.d.d.d.d.d.d.d.d.d.d.d.d.f.f.f.d.d.d.d.d.d.d.d.d.d.d.d.d.d.d.d.d.d.d.d.d.d.d.d.d.d.d.d.d.d.d }",
".d.d.d.d.d.d.d.d.d.d.d.d.d.d.d.d.d.d.d.d.d.d.d.d.d.d.d.d.d.d.d.d.d.d.d.d.d.d.d.d.d.d.d.d.d.d.d.d.d.d.d.d.d.d.d.d.d.d.d.d.d.d.d }",
".d.d.d.d.d.d.d.d.d.d.d.d.d.d.d.d.d.d.d.d.d.d.d.d.d.d.d.d.d.d.d.d.d.d.d.d.d.d.d.d.d.d.d.d.d.d.d.d.d.d.d.d.d.d.d.d.d.d.d.d.d.d.d }",
".d.d.d.d.d.d.d.d.d.d.d.d.d.d.d.d.d.d.d.d.d.d.d.d.d.d.d.d.d.d.d.d.d.d.d.d.d.d.d.d.d.d.d.d.d.d.d.d.d.d.d.d.d.d.d.d.d.d.d.d.d.d.d }",
".d.d.d.d.d.d.d.d.d.d.d.d.d.d.d.d.d.d.d.d.d.d.d.d.d.d.d.d.d.d.d.d.d.d.d.d.d.d.d.d.d.d.d.d.d.d.d.d.d.d.d.d.d.d.d.d.d.d.d.d.d.d.d }",
".d.d.d.d.d.d.d.d.d.d.d.d.d.d.d.d.d.d.d.d.d.d.d.d.d.d.d.d.d.d.d.d.d.d.d.d.d.d.d.d.d.d.d.d.d.d.d.d.d.d.d.d.d.d.d.d.d.d.d.d.d.d.d }",
".d.d.d.d.d.d.d.d.d.d.d.d.d.d.d.d.d.d.d.d.d.d.d.d.d.d.d.d.d.d.d.d.d.d.d.d.d.d.d.d.d.d.d.d.d.d.d.d.d.d.d.d.d.d.d.d.d.d.d.d.d.d.d }",
".d.d.d.d.d.d.d.d.d.d.d.d.d.d.d.d.d.d.d.d.d.d.d.d.d.d.d.d.d.d.d.d.d.d.d.d.d.d.d.d.d.d.d.d.d.d.d.d.d.d.d.d.d.d.d.d.d.d.d.d.d.d.d }",
".d.d.d.d.d.d.d.d.d.d.d.d.d.d.d.d.d.d.d.d.d.d.d.d.d.d.d.d.d.d.d.d.d.d.d.d.d.d.d.d.d.d.d.d.d.d.d.d.d.d.d.d.d.d.d.d.d.d.d.d.d.d.d }",
".d.d.d.d.d.d.d.d.d.d.d.d.d.d.d.d.d.d.d.d.d.d.d.d.d.d.d.d.d.d.d.d.d.d.d.d.d.d.d.d.d.d.d.d.d.d.d.d.d.d.d.d.d.d.d.d.d.d.d.d.d.d.d }",
".d.d.d.d.d.d.d.d.d.d.d.d.d.d.d.d.d.d.d.d.d.d.d.d.d.d.d.d.d.d.d.d.d.d.d.d.d.d.d.d.d.d.d.d.d.d.d.d.d.d.d.d.d.d.d.d.d.d.d.d.d.d.d }",
".d.d.d.d.d.d.d.d.d.d.d.d.d.d.d.d.d.d.d.d.d.d.d.d.d.d.d.d.d.d.d.d.d.d.d.d.d.d.d.d.d.d.d.d.d.d.d.d.d.d.d.d.d.d.d.d.d.d.d.d.d.d.d }"
};
