/* XPM */
static const char * IconTransTranslateX[] = {
/* width height ncolors chars_per_pixel */
"32 32 191 2",
/* colors */
"   c #6153BC",
" . c #A56960",
" X c #AC230E",
" o c #B1ACD2",
" O c #D8D7E1",
" + c #220EA9",
" @ c #631408",
" # c #8B1C0B",
" $ c #80190A",
" % c #9E200D",
" & c #230EAD",
" * c #220EAC",
" = c #6B1509",
" - c #6055AD",
" ; c #5F53AC",
" : c #25197D",
" > c #2E0C51",
" , c #6E1844",
" < c #1B0B87",
" 1 c #671508",
" 2 c #210DA4",
" 3 c #190A7B",
" 4 c #901D0C",
" 5 c #5C1207",
" 6 c #1E0C97",
" 7 c #BEA39F",
" 8 c #1C0B8B",
" 9 c #130861",
" 0 c #2E1E96",
" q c #6F1609",
" w c #4B4384",
" e c #971E0C",
" r c #210DA7",
" t c #1F0C9B",
" y c #170972",
" u c #932E1F",
" i c #A49FC4",
" p c #811A0A",
" a c #B2ADD5",
" s c #2A1F74",
" d c #CBCAD3",
" f c #1D0B8F",
" g c #1C0B8E",
" h c #A29EB8",
" j c #140865",
" k c #A19EB7",
" l c #E0D8D7",
" z c #AF4737",
" x c #1A0A82",
" c c #120759",
" v c #941E0C",
" b c #6053B6",
" n c #A29EBB",
" m c #B0ACCC",
" M c #B7A19E",
" N c #13075D",
" B c #12075C",
" V c #AEABC0",
" C c #100650",
" Z c #6153BA",
" A c #531007",
" S c #521006",
" D c #514793",
" F c #751B0E",
" G c #4638A6",
" H c #4D438F",
" J c #302197",
" K c #685DB0",
" L c None",
" P c #6E170A",
" I c #A0200D",
" U c #220EAA",
" Y c #3D2EA0",
" T c #200D9E",
" R c #8A1C0B",
" E c #571107",
" W c #1D0C91",
" Q c #BC6153",
" ! c #691508",
" ~ c #3B2CA1",
" ^ c #541107",
" / c #531106",
" ( c #1E0C95",
" ) c #271980",
" _ c #15096B",
" ` c #362992",
" ' c #7C190A",
" ] c #D5B2AD",
" [ c #5041B2",
" { c #210DA5",
" } c #110753",
" | c #5B1207",
".  c #170970",
".. c #1E0C98",
".X c #16096F",
".o c #5C396B",
".O c #831A0A",
".+ c #A39FC1",
".@ c #1C0B8C",
".# c #140863",
".$ c #6E1609",
".% c #4C4386",
".& c #4B4385",
".* c #1A0A80",
".= c #110756",
".- c #961E0C",
".; c #40358E",
".: c #801A0A",
".> c #B2ADD6",
"., c #1D0B90",
".< c #473AA2",
".1 c #A9220E",
".2 c #B0ACCA",
".3 c #7A1A2F",
".4 c #4C4389",
".5 c #6E232D",
".6 c #12075A",
".7 c #931E0C",
".8 c #601308",
".9 c #49427C",
".0 c #10064E",
".q c #190C6E",
".w c #B4948F",
".e c #B0ACCD",
".r c #721709",
".t c #B6A19E",
".y c #8F4D43",
".u c #100651",
".i c #6153BB",
".p c #CDBDBB",
".a c #AF2510",
".s c #521007",
".d c #511006",
".f c #D8D7E0",
".g c #641408",
".h c #D4BEBB",
".j c #8C1C0B",
".k c #150966",
".l c #140965",
".z c #230EAC",
".x c #220EAB",
".c c #B02B17",
".v c #200D9F",
".b c #902D1F",
".n c #1E0C93",
".m c #1D0C92",
".M c #13085D",
".N c #BF3F2C",
".B c #180A79",
".V c #211764",
".C c #6E1725",
".Z c #531107",
".A c #15096C",
".S c #7B190A",
".D c #1B0B89",
".F c #130860",
".G c #D9D8E0",
".H c #984F44",
".J c #701609",
".K c #68170B",
".L c #210DA6",
".P c #190A7D",
".I c #110754",
".U c #831A0B",
".Y c #B2ADD4",
".T c #4E4493",
".R c #1C0B8D",
".E c #A29EB7",
".W c #140864",
".Q c #A19EB6",
".! c #4B4386",
".~ c #1A0A81",
".^ c #120758",
"./ c #110757",
".( c #B22C18",
".) c #180975",
"._ c #170974",
".` c #392C92",
".' c #A29EBA",
".] c #B0ACCB",
".[ c #300E72",
".{ c #9D1F0D",
".} c #12075B",
".| c #5F1308",
"X  c #10064F",
"X. c #DCDBE2",
"XX c #4D438E",
"Xo c #D7D7DD",
"XO c #991F0C",
"X+ c #2F0D6A",
"X@ c #100652",
/* pixels */
" L L L L L L L L L L L L L L L L L L L L L L L L L L L L L L L L",
" L L L L L L L L L L L L L L L L L L L L L L L L L L L L L L L L",
" L L L L L L L L L L L L L L L L L L L L L L L L L L L L L L L L",
" L L L L L L L L L L L L L L L L L L L L L L L L L L L L L L L L",
" L L L L L L L L L L L L L L L L L L L L L L L L L L L L L L L L",
" L L L L L L L L L L L L L L L L L L L L L L L L L L L L L L L L",
" L L L L L L L L L L L L L L L L L L L L L L L L L L L L L L L L",
" L L L L L L L L d L L L L L L L L L L L L L L O L L L L L L L L",
" L L L L L L L.Q.9 L L L L L L L L L L L L L L.> Z L L L L L L L",
" L L L L L L.Q./.T L L L L L L L L L L L L L L.Y.x.i L L L L L L",
" L L L L L.Q./.} H L L L L L L L L L L L L L L.Y &.x Z L L L L L",
" L L L L.Q./.}.}.4 L L L L.p . #XO z ] L L L L o & &.x.i L L L L",
" L L L.Q.^.}.}.6 w L L L.t =.O.7 I.1 X Q L L L.Y.x * & &   L L L",
" L L k c B.6.^.=.% L L L / q p 4.{.c.a X ] L L a r + U * &.i L L",
" L k.}.6./.=.I } _.....[.Z ! ' #.-.N.(.1 ,.... t 2 2 {.L +.z   L",
".+.=.IX@ CX .0.0 j g gX+.d.8.J p.j e % I.3 g g.m T T T T.v.v 2 b",
"Xo s./ }.u CX X .= _ _ > | A.g.r $ R 4 v.C _ _._.. 6 (.n.,.@.* i",
" LX..`.k.M c./.=.VXXXX.o P / E @.J.S.:.U.5XXXX.; W f.R.D.~.  n L",
" L L.G.< :.l.F N.& L L l.b.K / S.| 1.$.$ 7 L L.e 8 < x 3.A.' L L",
" L L L.f Y `.q.k.! L L L l u F 5.d.s ^ M L L L m x.P.).W h L L L",
" L L L L.f ~ G ) D L L L L L.h.H.y.w L L L L L.].B y.#.E L L L L",
" L L L L L.f J [ K L L L L L L L L L L L L L L m.X 9.E L L L L L",
" L L L L L L.f 0 ; L L L L L L L L L L L L L L.2 9.E L L L L L L",
" L L L L L L L.f - L L L L L L L L L L L L L L V k L L L L L L L",
" L L L L L L L L L L L L L L L L L L L L L L L L L L L L L L L L",
" L L L L L L L L L L L L L L L L L L L L L L L L L L L L L L L L",
" L L L L L L L L L L L L L L L L L L L L L L L L L L L L L L L L",
" L L L L L L L L L L L L L L L L L L L L L L L L L L L L L L L L",
" L L L L L L L L L L L L L L L L L L L L L L L L L L L L L L L L",
" L L L L L L L L L L L L L L L L L L L L L L L L L L L L L L L L",
" L L L L L L L L L L L L L L L L L L L L L L L L L L L L L L L L",
" L L L L L L L L L L L L L L L L L L L L L L L L L L L L L L L L"
};
