/* XPM */
static const char * IconSrfEvalTangent[] = {
/* width height ncolors chars_per_pixel */
"32 32 247 2",
/* colors */
"   c #A88484",
" . c #4D2A2E",
" X c #FBC5C5",
" o c #342572",
" O c #F9C3C3",
" + c #F7C1C1",
" @ c #3E2C89",
" # c #371015",
" $ c #6A4547",
" % c #66516E",
" & c #EDBAC1",
" * c #493537",
" = c #3D1A1E",
" - c #87688B",
" ; c #31191C",
" : c #412E8F",
" > c #402E8E",
" , c #B99191",
" < c #B78F8F",
" 1 c #826E9D",
" 2 c #B38B8B",
" 3 c #9B7A7A",
" 4 c #2D2064",
" 5 c #EEBBBB",
" 6 c #ECB9B9",
" 7 c #443095",
" 8 c #947273",
" 9 c #30226A",
" 0 c #2C0C10",
" q c #EBB7BB",
" w c #AA8585",
" e c #FDC6C6",
" r c #FBC4C4",
" t c #A47F7F",
" y c #E1B1B1",
" u c #6F6062",
" i c #9B798A",
" p c #3F2D89",
" a c #B98C8D",
" s c #735891",
" d c #DCABAC",
" f c #D9D7D7",
" g c #BF9696",
" h c #BD9494",
" j c #4B2B2E",
" k c #352675",
" l c #B6ADAE",
" z c #AD86AC",
" x c #C1BBBC",
" c c #CE9D9E",
" v c #F4C0C0",
" b c #9F7D7D",
" n c #3F202C",
" m c #F2BEBE",
" M c #F0BCBC",
" N c #320D12",
" B c #9D9192",
" V c #4A379A",
" C c #EEBABA",
" Z c #3C1B1F",
" A c #230A0D",
" S c #422F92",
" D c #D0A3A3",
" F c #756164",
" G c #CEA1A1",
" H c #583437",
" J c #2F2168",
" K c #2E0D11",
" L c #453198",
" P c #443197",
" I c #8373B7",
" U c #391B1F",
" Y c #E7B6B6",
" T c #E4B2B3",
" R c #5A3A3C",
" E c #2F1115",
" W c #3C2A85",
" Q c #533235",
" ! c #27238E",
" ~ c #290B0F",
" ^ c #280B0E",
" / c #BAB0B1",
" ( c #382977",
" ) c #3E181D",
" _ c #604D91",
" ` c None",
" ' c #BD9393",
" ] c #887476",
" [ c #B6ACAD",
" { c #A58282",
" } c #F8C3C3",
" | c #2B289F",
".  c #F6C1C1",
".. c #3530C0",
".X c #A17E7E",
".o c #F4BFBF",
".O c #340E13",
".+ c #2D2062",
".@ c #D8AAAA",
".# c #D6A8A8",
".$ c #453294",
".% c #D4A6A6",
".& c #B3ACAD",
".* c #30191C",
".= c #371419",
".- c #B48D8D",
".; c #2D2065",
".: c #3A297F",
".> c #4A3992",
"., c #3D1E22",
".< c #EBB9B9",
".1 c #453297",
".2 c #E9B7B7",
".3 c #735EA3",
".4 c #E7B5B5",
".5 c #E5B3B3",
".6 c #382969",
".7 c #E1AFAF",
".8 c #513B9C",
".9 c #30226B",
".0 c #3C2B84",
".q c #C79C9C",
".w c #4D3638",
".e c #FCC6C6",
".r c #FAC4C4",
".t c #34181C",
".y c #332A9C",
".u c #F8C2C2",
".i c #DCADAD",
".p c #DAABAB",
".a c #280C10",
".s c #2D2682",
".d c #260A0E",
".f c #AE8283",
".g c #886A82",
".h c #C69AB5",
".j c #D0CED9",
".k c #C0BBBC",
".l c #DCDBDE",
".z c #EFBCBC",
".x c #300D11",
".c c #9A7979",
".v c #483599",
".b c #EDBABA",
".n c #AF8687",
".m c #38287C",
".M c #463397",
".N c #EBB8B8",
".B c #422F93",
".V c #825D5E",
".C c #351519",
".Z c #4B2428",
".A c #31236B",
".S c #2F0F13",
".D c #3B2A82",
".F c #604E99",
".G c #443198",
".H c #C29596",
".J c #FEC7C7",
".K c #FCC5C5",
".L c #E2B2B2",
".P c #3D2C87",
".I c #DEAEAE",
".U c #D5A8B9",
".Y c #3F2F7F",
".T c #2E1115",
".R c #2D1114",
".E c #B89FA3",
".W c #431E23",
".Q c #421E22",
".! c #8E6466",
".~ c #411C21",
".^ c #270B0E",
"./ c #4C2C2F",
".( c #342574",
".) c #C4BEBF",
"._ c #402E8D",
".` c #F5C1C1",
".' c #55383B",
".] c #F3BFBF",
".[ c #A9829E",
".{ c #F2BDBE",
".} c #F1BDBD",
".| c #9D7A7B",
"X  c #604649",
"X. c #EFBBBB",
"XX c #2C2062",
"Xo c #806365",
"XO c #D1A4A4",
"X+ c #8B6C7D",
"X@ c #CDA0A0",
"X# c #A77D7E",
"X$ c #AF8989",
"X% c #999091",
"X& c #C59898",
"X* c #2D0C10",
"X= c #E6B5B5",
"X- c #7A6097",
"X; c #3B256D",
"X: c #342670",
"X> c #E4B3B3",
"X, c #BE9091",
"X< c #3029A1",
"X1 c #33246F",
"X2 c #32246E",
"X3 c #E2B1B1",
"X4 c #544296",
"X5 c #E0AFAF",
"X6 c #451F24",
"X7 c #B68889",
"X8 c #C29898",
"X9 c #DAD7D7",
"X0 c #290C0F",
"Xq c #574446",
"Xw c #F9C4C4",
"Xe c #391318",
"Xr c #F7C2C2",
"Xt c #3F2D8B",
"Xy c #A27F7F",
"Xu c #C2BBBC",
"Xi c #2F226E",
"Xp c #F5C0C0",
"Xa c #EFBABA",
"Xs c #2B1F60",
"Xd c #302CB1",
"Xf c #3F3AC3",
"Xg c #240A0D",
"Xh c #352677",
"Xj c #D0A1A2",
"Xk c #2E2166",
"Xl c #A37879",
"Xz c #322EB6",
"Xx c #300D12",
"Xc c #38287D",
"Xv c #EAB8B8",
"Xb c #443196",
"Xn c #A7838A",
"Xm c #E8B6B6",
"XM c #E6B4B4",
"XN c #5A383B",
"XB c #6F539F",
"XV c #CA9F9F",
"XC c #463370",
"XZ c #2A0B0F",
"XA c #2F2BAC",
"XS c #FDC7C7",
"XD c #6C5253",
/* pixels */
" ` ` ` ` ` ` ` ` ` ` ` ` ` ` `.&.&.& x ` ` ` ` ` ` ` ` ` ` ` ` `",
" ` ` ` ` ` ` ` ` ` ` `.&Xq ;Xg.^.^.^.,.d.w F f ` ` ` ` ` ` ` ` `",
" ` ` ` ` ` ` ` ` `X% ; ~X*.x N H N )X# )Xx 0 ~.'.) ` ` ` ` ` ` `",
" ` ` ` ` ` ` `.k.tX0 K./ 8 t 'X8.q G.%X@.fX, $ K.a u.l ` ` ` ` `",
" ` `.j ` ` ` u ~ Q.!.| wX$ < gX&XVXO.# dX5X3X>.HXl Z n / ` ` ` `",
" ` ` I._ 7 pX;X; %.g.g i 2 , g.q G.%.@.IX3XM.4XmXmX&.Z.T [ ` ` `",
" ` `.lX:.D S.M P PXb 7.B S >Xt s D.#.i yXMXm.2.2XvXvX&.Z.a ] ` `",
" ` ` ` 1 J.m @.$.v.1 P P.G P PXb.[.pX5X>XmXv.N 6 6 6.<Xv a E ] `",
" ` ` `.l (.9.m W._.M.v.M P P P.G.[.I.L.4Xv 6.b 5 5.b.b 6.N.! E ]",
" ` ` ` `XCXk.9Xh.D.P._.$ V.v.1.B.E yX=.2.bX. M M M.z 5.b 6.NX7 0",
" ` ` ` ` U.YXX 9 k.:.0 @ :.$ VX4.IX>Xm 6X..} m m m.}.z 5.b 6XvXl",
" ` ` `XuXx _.AXX 9 kXc.D.P @._X-X3.4.NX. m.].o.o.] m.} M 5.b 6 2",
" ` ` ` l .X+.>Xk.+.A.(.m.:.0.0.3.5.NX. mXp. . .  v.] m.}.z C 6XN",
" ` ` ` FXN.c _ oXX 4.A.(.m.mXc S.8.h m.`Xr.u }.uXrXp.o m.}X..b./",
" ` ` `X .V.cX+X4.AXX 4.A oX1.9Xc > L z.uXw.r.rXw OXrXp.] m M 5Xg",
" ` ` ` Z 8 3.X.F.Y JXs 4 -.[.Y J k @ 7XB &.K.K X O.u. Xp m.}.z ;",
" ` ` f.=.c.| t i.FX2.6X8XO d.@ s JX2.D S.8.h e.e r OXr. .o m MXq",
" ` ` l ..c b {X$ iXnX& G.#.IXM 6 zX1 J.m._ L.yXz.. I }. Xp m.V u",
" ` ` F . 3Xy  X$ < g.q D.@ y Y.b.] qX-.; o.PX<Xz.....UXrXp.o a.&",
" ` `X XD b t w 2 ,X8XVXO.p yXmX..o.u X & -Xi |XAXf..Xf }. .o R f",
" ` `.xXo b {.n.- 'X#.|X#.f.nX7.7.oXr.r e.J.U ! |XAXdXd } + c A `",
" ` l.= 3Xy w.!./Xg.d ^ ~ ~.^.^.^.tX#.N.KXS.JX- ! |X<.3 OXrXM * `",
" ` FXN bXD.T ~X*.xXx NX X .~.O.O N 0.a HXa e.JX-.s.P & OXrX, u `",
" ` Z $.,X0 K KX  l f ` ` ` ` `Xu B.Q #.S.R.! e e.e.K XXw.u.C.& `",
"Xu 0 ~X*X*XD f ` ` ` ` ` ` ` ` ` ` ` B.WXe E.V.{.K X XXw } R f `",
".wXZX* U x ` ` ` ` ` ` ` ` ` ` ` ` ` `X9XoXe.C j T X.r O d * ` `",
"Xu jXD ` ` ` ` ` ` ` ` ` ` ` ` ` ` ` ` ` `.E # =.TXjXw O c u ` `",
" ` f ` ` ` ` ` ` ` ` ` ` ` ` ` ` ` ` ` ` ` `X9.WX6.TXj } R.k ` `",
" ` ` ` ` ` ` ` ` ` ` ` ` ` ` ` ` ` ` ` ` ` ` `X9.W.~.T h.* ` ` `",
" ` ` ` ` ` ` ` ` ` ` ` ` ` ` ` ` ` ` ` ` ` ` ` `X9.W ).RX% ` ` `",
" ` ` ` ` ` ` ` ` ` ` ` ` ` ` ` ` ` ` ` ` ` ` ` ` `X9 BX% ` ` ` `",
" ` ` ` ` ` ` ` ` ` ` ` ` ` ` ` ` ` ` ` ` ` ` ` ` ` ` ` ` ` ` ` `"
};
