/* XPM */
static const char * IconSketch[] = {
/* width height ncolors chars_per_pixel */
"32 32 114 2",
/* colors */
"   c #13130C",
" . c #11110A",
" X c #21211D",
" o c #0F0F08",
" O c #54544F",
" + c #0D0D06",
" @ c #DEDEDD",
" # c #191915",
" $ c #5E5E5C",
" % c #171713",
" & c #91918E",
" * c #464641",
" = c #0F0F0B",
" - c #090905",
" ; c #CACAC9",
" : c #070703",
" > c #C8C8C7",
" , c #81817E",
" < c #383833",
" 1 c #7D7D7A",
" 2 c #363631",
" 3 c #424240",
" 4 c #2A2A25",
" 5 c #AEAEAD",
" 6 c #ACACAB",
" 7 c #656562",
" 8 c #61615E",
" 9 c #1A1A15",
" 0 c #A6A6A5",
" q c #5F5F5C",
" w c #9E9E9D",
" e c #10100B",
" r c #0E0E09",
" t c #0C0C07",
" y c #51514E",
" u c #0A0A05",
" i c #90908F",
" p c #8E8E8D",
" a c #434340",
" s c #2B2B25",
" d c #3B3B38",
" f c #23231D",
" g c #333330",
" h c #ADADAB",
" j c #62625E",
" k c None",
" l c #9F9F9D",
" z c #11110B",
" x c #0F0F09",
" c c #0D0D07",
" v c #0B0B05",
" b c #171714",
" n c #8F8F8D",
" m c #464642",
" M c #8B8B89",
" N c #CACACA",
" B c #070704",
" V c #1E1E17",
" C c #BABABA",
" Z c #63635E",
" A c #2C2C28",
" S c #282824",
" D c #14140D",
" F c #101009",
" G c #0E0E07",
" H c #DBDBDA",
" J c #5F5F5D",
" K c #181814",
" L c #D7D7D6",
" P c #474742",
" I c #8A8A87",
" U c #0E0E0A",
" Y c #0A0A06",
" T c #080804",
" R c #373732",
" E c #BBBBBA",
" W c #ABABAA",
" Q c #60605D",
" ! c #0D0D08",
" ~ c #0B0B06",
" ^ c #50504D",
" / c #090904",
" ( c #4E4E4B",
" ) c #8F8F8E",
" _ c #383832",
" ` c #42423F",
" ' c #BCBCBA",
" ] c #40403D",
" [ c #343431",
" { c #32322F",
" } c #ACACAA",
" | c #1C1C16",
".  c #1A1A14",
".. c #161610",
".X c #A0A09E",
".o c #12120C",
".O c #10100A",
".+ c #0E0E08",
".@ c #53534F",
".# c #0C0C06",
".$ c #929290",
".% c #161613",
".& c #D7D7D7",
".* c #90908E",
".= c #454541",
".- c #43433F",
".; c #080805",
".: c #3B3B37",
".> c #80807E",
"., c #353531",
".< c #33332F",
".1 c #787876",
".2 c #1D1D16",
".3 c #6E6E6C",
/* pixels */
" k k.3 g a 0 k k k k k k k k k k k k k k k k k k k k k k k k k k",
" k l v.# z U I k k k k k k k k k k k k k k k k k k k k k k k k k",
" k 2 v b < D J k k k k k k k k k k k k k k k k k k k k k k k k k",
" k.# u $ k.@ & k k.* 8 L k k k k k k k k k k k k k k k k k k k k",
" k c e A @ k k k L # u : k k k k k k k k k k k k k k k k k k k k",
" k O V r.< H k k.* v - $ k k k k k k k k k k k k k k k k k k k k",
" k k O z /.$ k L # u % L k k k k k k k k k k S L k k k k k k k k",
" k k k.2.# [ k., ~ T p k k k k k k k k k k.* v K C k k k k k k k",
" k k k 6.# B ) u u.% C k k k k k k k ` T.- # ~ T L k k k k k k k",
" k k k & ~ B - ~ / : K k k k k k k k.=.# t v - $ k k k k k k k k",
" k k k.= / - u T / u ~.* k k k k k k.X _ u u : W k k k k k k k k",
" k w d B u u u v ~.,.* k k k k k k k k Q v T : K k k k k k k k k",
" P o - u u u.# T q k k k L k k k k k L u ~ B c ~.* k k k k k M.&",
".& P.# 9 ,.# t : k k k E K T ] k k k y ~ T p 6 E k k k k k k 9 u",
" k k k k.* +   T k k k.,.#.o - l k E v u.% k k k k k k k k E v T",
" k k k k E 8 F ~.1 g 3.# v T T 3 k # ~ T w k k k k k k k k., v :",
" k k k k k k O.+ - ~ c c T T T n.* v v.% k k k k k k k k E v - $",
" k k k k k k k Z 4.= R.O T ! ^ L u.# / p k k k k k k k k., v : L",
" k k k k k k k k k k h . = X i b v ~.% k k ; L k k k k E v u ` k",
" k k k k k k k k k k k O o.# B u.# / n k w T B T 8 k k., v T C k",
" k k k k k k k k k k k k h.@.# 9  .; h k u + f u.* k E u u { k k",
" k k k k k k k k k k k k k k N.& G /.; < + T 7 R.& k # v T W k k",
" k k k k k k k k k k k k k k k k Z G c.#.# B k k k.* u u.% k k k",
" k k k k k k k k k k k k k k k k k k j |.  B k k L - / T T ( > k",
" k k k k k k k k k k k k k k k k k k k m.o Y k L b -.+ + G - 5 k",
" k k k k k k k k k k k k k k k k k k k ' F u.: % -.# u.> * / n k",
" k k k k k k k k k k k k k k k k k k k k O x u - u u % k 9 T 3 k",
" k k k k k k k k k k k k k k k k k k k k k ' & 6 2 T C } ~ : W k",
" k k k k k k k k k k k k k k k k k k k k k k k k k ; k R x % k k",
" k k k k k k k k k k k k k k k k k k k k k k k k k k.& . ~ % k k",
" k k k k k k k k k k k k k k k k k k k k k k k k k k 1.. T /.* k",
" k k k k k k k k k k k k k k k k k k k k k k k k k k k.X s.* k k"
};
