/* XPM */
static char *IconGenGeom[] = {
/* width height ncolors chars_per_pixel */
"16 16 114 2",
/* colors */
"   c #A38189",
" . c #BCBFBF",
" X c #C4BABD",
" o c #707071",
" O c #B4B7B7",
" + c #320610",
" @ c #111617",
" # c #ACAFAF",
" $ c #454D4D",
" % c #C9BBBE",
" & c #541A27",
" * c #373F3F",
" = c #B9ABAE",
" - c #616868",
" ; c #BCBEBE",
" : c #BBA0A6",
" > c #575E5E",
" , c #0F1314",
" < c #ACAEAE",
" 1 c #C1BBBC",
" 2 c #818787",
" 3 c #762134",
" 4 c #3E0814",
" 5 c #474E4E",
" 6 c #D8D9D9",
" 7 c #310711",
" 8 c #580C1D",
" 9 c #797F7F",
" 0 c #490918",
" q c #6D7373",
" w c #3F1D25",
" e c #824653",
" r c #999E9E",
" t c #291A19",
" y c #364040",
" u c #919696",
" i c None",    
" p c #400915",
" a c #370C16",
" s c #741E31",
" d c #D7D8D7",
" f c #0C1213",
" g c #ADB1B1",
" h c #A1A5A5",
" j c #471722",
" k c #BDBEBD",
" l c #5F6464",
" z c #DCD7D8",
" x c #B0B2B0",
" c c #626A6A",
" v c #AEB0AE",
" b c #440C18",
" n c #251117",
" m c #340912",
" M c #A2A4A2",
" N c #525A5A",
" B c #ADB0B0",
" V c #61343E",
" C c #ABAEAE",
" Z c #939693",
" A c #464E4E",
" S c #570C1D",
" D c #1D2929",
" F c #9FA2A2",
" G c #23080E",
" H c #674F54",
" J c #A99498",
" K c #460916",
" L c #600D1F",
" P c #6A7171",
" I c #8F9292",
" U c #220E10",
" Y c #626969",
" T c #7B5C64",
" R c #BBBDBD",
" E c #430916",
" W c #747874",
" Q c #374242",
" ! c #545B5B",
" ~ c #4D0A19",
" ^ c #828888",
" / c #D9DADA",
" ( c #590D1E",
" ) c #D7D8D8",
" _ c #9FA1A1",
" ` c #475151",
" ' c #3A0713",
" ] c #271314",
" [ c #6A3642",
" { c #530B1B",
" } c #490E1B",
" | c #404840",
".  c #450A17",
".. c #606666",
".X c #394343",
".o c #BBBCBC",
".O c #350711",
".+ c #5D0C1E",
".@ c #DAD7D7",
".# c #6D4F55",
".$ c #5A5356",
".% c #BCC0C0",
".& c #191E16",
".* c #535C5C",
".= c #ACB0B0",
".- c #201916",
".; c #A0A4A4",
".: c #454144",
".> c #470B18",
"., c #717979",
".< c #460917",
".1 c #606565",
".2 c #949898",
".3 c #5C5A57",
/* pixels */
" i i i i < B ) i i i i i i i i i",
" i i i i i D A i i i i i i i i i",
" i i i i C i ` i = }.< s : i i i",
" i i i r P B ! J p K.+ 8 [.% i i",
" i.; # 9 i * $ j ' { ~ b.$.*., i",
" i i O / i 5.X &.O +.  , z i 2.;",
" i i l y u.2.: T 4 7 f o g i i -",
" i R I i N ^ w E L @ _ i > i i i",
" i.1 i i i a ( 0 n.. i i h ) i i",
" _.o i X   E S e Q i i i ) q i i",
" F k | ].> 3 V.@ < i i i i 6 Y .",
" i W i.& t G 1 i B i i i i i i i",
" d Z %.- m H i i # R i i i i i i",
" M i z U.# i i i ;.= i i i i i i",
" x i i.3 i i i i i < i i i i i i",
" i i i v i i i i i c i i i i i i"
};
