/* XPM */
static const char * IconCrvBezierCrv[] = {
/* width height ncolors chars_per_pixel */
"32 32 234 2",
/* colors */
"   c #261361",
" . c #30332F",
" X c #1F0904",
" o c #AAABAA",
" O c #5E625C",
" + c #161B12",
" @ c #3B0A05",
" # c #6F5DA5",
" $ c #3F20A1",
" % c #6348B7",
" & c #AD6461",
" * c #4E524C",
" = c #070D03",
" - c #800F0A",
" ; c #7E231F",
" : c #2A156B",
" > c #1D1147",
" , c #131712",
" < c #C3ACAB",
" 1 c #6A0D08",
" 2 c #8D8F8D",
" 3 c #3A1D14",
" 4 c #24125B",
" 5 c #23125A",
" 6 c #A398C7",
" 7 c #9F211B",
" 8 c #3D1F98",
" 9 c #88100B",
" 0 c #A16562",
" q c #BABAB9",
" w c #3A1D95",
" e c #D0C9C8",
" r c #7D0F0A",
" t c #DAD8DF",
" y c #D9D8DE",
" u c #8A1F1A",
" i c #030702",
" p c #DCD7D7",
" a c #341A85",
" s c #B2231D",
" d c #8A1610",
" f c #C3BDBB",
" g c #4F2FB0",
" h c #470C06",
" j c #AE160F",
" k c #523F8B",
" l c #402F76",
" z c #D2AEAC",
" x c #6B130F",
" c c #781533",
" v c #660E14",
" b c #421E18",
" n c #AF231D",
" m c #97120C",
" M c #211154",
" N c #8C5350",
" B c #81100A",
" V c #BF5854",
" C c #AB160F",
" Z c #371C8E",
" A c #151A13",
" S c #4525A9",
" D c #68413D",
" F c #8E908D",
" G c #630F0A",
" H c #8D150F",
" J c #32197F",
" K c #31197E",
" L c #6E1B18",
" P c #6D1B17",
" I c #090E07",
" U c #050A03",
" Y c #040802",
" T c #D8D7DC",
" R c #C0BCCB",
" E c #32372F",
" W c #25135E",
" Q c #483B73",
" ! c #530A07",
" ~ c #BFA09F",
" ^ c #312063",
" / c #AE150E",
" ( c #6B120E",
" ) c #361B89",
" _ c #351B88",
" ` c None",
" ' c #261362",
" ] c #AAA3BF",
" [ c #721C18",
" { c #4D2EB0",
" } c #AF928F",
" | c #2F1B6E",
".  c #201052",
".. c #7A3E3A",
".X c #780E0A",
".o c #5C5E5B",
".O c #9A93AF",
".+ c #4020A3",
".@ c #201C16",
".# c #3A1D93",
".$ c #060D03",
".% c #391D92",
".& c #060B03",
".* c #050902",
".= c #2B156D",
".- c #740E09",
".; c #3F1F1A",
".: c #73241F",
".> c #6A0D09",
"., c #BE6662",
".< c #331A82",
".1 c #CFBCBB",
".2 c #4C2AB5",
".3 c #87100B",
".4 c #BCAFC6",
".5 c #DBD8E1",
".6 c #6E1510",
".7 c #DAD8E0",
".8 c #7C0F0A",
".9 c #513F88",
".0 c #9D95B8",
".q c #4322AC",
".w c #B1231D",
".e c #5C0C08",
".r c #4F2FB1",
".t c #2E1776",
".y c #790F0A",
".u c #E2D8D7",
".i c #792521",
".p c #5737BC",
".a c #D7D7D6",
".s c #281466",
".d c #12180E",
".f c #BAB2D4",
".g c #221156",
".h c #A197C2",
".j c #81100B",
".k c #B99F9E",
".l c #381C90",
".z c #AA160F",
".x c #DFD8D7",
".c c #131612",
".v c #4121A6",
".b c #0A0913",
".n c #23115A",
".m c #550A07",
".M c #BABBB9",
".N c #2E1872",
".B c #7D739B",
".V c #2C1670",
".C c #030602",
".Z c #9B130D",
".A c #31352F",
".S c #5D0B08",
".D c #5C0B07",
".F c #493B75",
".G c #3D1E9B",
".H c #A41F19",
".J c #40288A",
".K c #4725B2",
".L c #581C7A",
".P c #7A0E0A",
".I c #4523B0",
".U c #A4160F",
".Y c #C3BED2",
".T c #371B8B",
".R c #C2BED1",
".E c #271364",
".W c #9E9F9D",
".Q c #A298C2",
".! c #211054",
".~ c #151B13",
".^ c #2A156A",
"./ c #291569",
".( c #6C0D09",
".) c #8E918D",
"._ c #C4ACAB",
".` c #8E8F8D",
".' c #4120A5",
".] c #4020A4",
".[ c #C6C0DB",
".{ c #3A1D94",
".} c #070B05",
".| c #060B04",
"X  c #7E0F0A",
"X. c #050B03",
"XX c #040902",
"Xo c #040702",
"XO c #DDD7D7",
"X+ c #C1BDCC",
"X@ c #680D08",
"X# c #341A84",
"X$ c #8170B5",
"X% c #271460",
"X& c #D4A3A0",
"X* c #25125E",
"X= c #3D1F9A",
"X- c #6A5A9B",
"X; c #231552",
"X: c #86100B",
"X> c #B6B0CB",
"X, c #2D1773",
"X< c #DAD8E1",
"X1 c #AF160F",
"X2 c #3C2585",
"X3 c #4422AE",
"X4 c #CF9491",
"X5 c #BA9290",
"X6 c #8E110C",
"X7 c #5C1916",
"X8 c #5D615C",
"X9 c #161C13",
"X0 c #D0AEAC",
"Xq c #4627A9",
"Xw c #5C5F5B",
"Xe c #D6D7D6",
"Xr c #281467",
"Xt c #7E6462",
"Xy c #4C3C7D",
"Xu c #AD231D",
"Xi c #95120C",
"Xp c #594597",
"Xa c #0C1209",
"Xs c #231158",
"Xd c #A297C4",
"Xf c #060C03",
"Xg c #42261D",
"Xh c #591B16",
"Xj c #826EBF",
"Xk c #321981",
"Xl c #761C18",
"Xz c #5F0B08",
"Xx c #BABBBA",
"Xc c #2D1672",
/* pixels */
" ` ` ` ` ` ` ` ` ` ` ` ` ` ` ` `.RXd.f ` ` ` ` ` ` ` ` ` ` ` ` `",
" ` ` ` ` ` ` ` ` ` ` ` ` ` ` `.BXk.G.q.r ` ` ` ` ` ` ` ` ` ` ` `",
" ` ` ` ` ` ` ` ` ` ` ` ` ` `X+X* K w.p.IXj ` ` ` ` ` ` ` ` ` ` `",
" ` ` ` ` ` ` ` ` ` ` ` ` ` `.0 M.V )X=.+.G ` ` ` ` ` ` ` ` ` ` `",
" ` ` ` ` ` ` ` ` ` ` ` ` ` `X>   5Xc.<.T.J ` ` ` ` ` ` ` ` ` ` `",
" ` ` ` ` ` ` ` ` ` ` ` ` ` `X<X2 W.!Xr.= ] ` ` ` ` ` ` ` ` ` ` `",
" ` ` ` ` ` ` ` ` ` ` ` ` ` `.)XfX; l >.bXe ` ` ` ` ` ` ` ` ` ` `",
" ` ` ` ` ` ` ` ` ` ` ` ` `.a.~XX ..a.$XX 2 ` ` ` ` ` ` ` ` ` ` `",
" ` ` ` ` ` ` ` ` ` ` ` ` ` * U iXe ` E.&.c ` ` ` ` ` ` ` ` ` ` `",
" ` ` ` ` ` ` ` ` ` ` ` `.W.&Xo.o ` `Xx.$ Y.` ` ` ` ` ` ` ` ` ` `",
" ` ` ` ` ` ` ` ` ` ` ` ` A Y.c ` ` ` `X9.| , ` ` ` ` ` ` ` ` ` `",
" ` ` ` ` ` ` ` ` ` ` `X8 U i q ` ` ` `.)XaXo.M ` ` ` ` ` ` ` ` `",
" ` ` ` ` ` ` ` ` ` `XxX. i.o ` ` ` ` ` ` = I . ` ` ` ` ` ` ` ` `",
" ` ` ` ` ` ` ` ` ` ` A Y.c ` p <._XO ` ` OXfXo.M ` ` ` ` ` ` ` `",
" ` ` ` ` ` ` ` ` ` F.*.CXtX7.m.S.DXz L 0 e.d.}Xw ` ` ` ` ` ` ` `",
" ` ` ` ` ` ` ` `Xe U X !.( BX6 m.Z.Z 9X@.i 3 + YXe ` ` ` ` ` ` `",
" ` ` ` ` ` ` ` `.A @ 1 -X: u &X0 z.,Xu C d (Xg YXw ` ` ` ` ` ` `",
" ` ` ` ` ` ` ` F h.X.j.yX5 ` ` ` ` ` `X4X1 7 x b Y ` ` ` ` ` ` `",
" ` ` ` ` ` `XeXh.PX Xl.1 ` ` ` ` ` ` ` `X& s.H (.;.` ` ` ` ` ` `",
" ` ` ` ` ` ` N.8 r [XO ` ` ` ` ` ` ` ` ` `X& / H ;.@ ` ` ` ` ` `",
" ` ` ` ` ` ~.y.8 LXO ` ` ` ` ` ` ` ` ` ` ` `X& j.-.: o ` ` ` ` `",
" ` ` `.Y.4.y - PXO ` ` ` ` ` ` ` ` ` ` ` ` ` ` V.U.e D ` ` ` ` `",
" ` TX-.%.'.L v.k ` ` ` ` ` ` ` ` ` ` ` ` ` ` `.u.w.3.6 f ` ` ` `",
" ` Q.t.l S.K % ` ` ` ` ` ` ` ` ` ` ` ` ` ` ` ` `X4.z.>.. ` ` ` `",
" t.n : a 8Xq.] t ` ` ` ` ` ` ` ` ` ` ` ` ` ` ` ` ` nXi G.x ` ` `",
" t.sXsXcX#.l.% t ` ` ` ` ` ` ` ` ` ` ` ` ` ` ` ` ` } c _ $ g.[ `",
" `XpX%.g./.t k ` ` ` ` ` ` ` ` ` ` ` ` ` ` ` ` ` `.O : ) $.2X3.5",
" `.7 #./ 5.F T ` ` ` ` ` ` ` ` ` ` ` ` ` ` ` ` ` `Xy ' J.# {.v 6",
" ` ` ` ` ` ` ` ` ` ` ` ` ` ` ` ` ` ` ` ` ` ` ` ` `.9. .^ J Z.{.h",
" ` ` ` ` ` ` ` ` ` ` ` ` ` ` ` ` ` ` ` ` ` ` ` ` `.Q |.g.EX,.t y",
" ` ` ` ` ` ` ` ` ` ` ` ` ` ` ` ` ` ` ` ` ` ` ` ` ` `X$.N 4 ^ R `",
" ` ` ` ` ` ` ` ` ` ` ` ` ` ` ` ` ` ` ` ` ` ` ` ` ` ` ` ` t ` ` `"
};
