/* XPM */
static const char * IconTransScaleZ[] = {
/* width height ncolors chars_per_pixel */
"32 32 239 2",
/* colors */
"   c #231533",
" . c #2C1E1E",
" X c #716565",
" o c #771D12",
" O c #2AAC11",
" + c #5C4D4D",
" @ c #424B30",
" # c #32FB15",
" $ c #23174A",
" % c #5A4B4B",
" & c #2828C6",
" * c #31F314",
" = c #FD3315",
" - c #30EF13",
" ; c #30ED13",
" : c #635757",
" > c #6C6363",
" , c #3131F3",
" < c #2828C9",
" 1 c #241844",
" 2 c #2E2EE6",
" 3 c #21450F",
" 4 c #322720",
" 5 c #2B2BD9",
" 6 c #2B26A4",
" 7 c #2BD511",
" 8 c #2828CC",
" 9 c #671C12",
" 0 c #A57513",
" q c #251313",
" w c #286E12",
" e c #2DBF13",
" r c #2DAB13",
" t c #5C4C4C",
" y c #3030EE",
" u c #651C13",
" i c #2727C4",
" p c #C42A14",
" a c #D9D7D7",
" s c #1E0F0F",
" d c #635656",
" f c #27B910",
" g c #23152B",
" h c #312311",
" j c #2B4818",
" k c #235410",
" l c #3030F1",
" z c #28A711",
" x c #2929C9",
" c c #F14115",
" v c #BAB5B5",
" b c #D15013",
" n c #299712",
" m c #2EE613",
" M c #2C2CD9",
" N c #5E5454",
" B c #B2ADAD",
" V c #2B25A3",
" C c #252212",
" Z c #2DD612",
" A c #2ECE13",
" S c #2B6F14",
" D c #271414",
" F c #2A6F13",
" G c #2F2FE9",
" H c #39AB28",
" J c #54D614",
" K c #2626BF",
" L c #2C2CDC",
" P c #7CAE14",
" I c #3130CD",
" U c #AF8315",
" Y c #366922",
" T c #A92613",
" R c #7B9E13",
" E c #D75B15",
" W c #2F2FEC",
" Q c #272298",
" ! c #2A193B",
" ~ c #FF3315",
" ^ c #221212",
" / c #28C610",
" ( c #285F14",
" ) c None",
" _ c #B02713",
" ` c #291B51",
" ' c #2B2BD4",
" ] c #231E80",
" [ c #254F11",
" { c #594B4B",
" } c #29A011",
" | c #241C6D",
".  c #221640",
".. c #2E2EE4",
".X c #2FE913",
".o c #2525BA",
".O c #4D1711",
".+ c #2EE512",
".@ c #605555",
".# c #281F7E",
".$ c #3131F4",
".% c #31D115",
".& c #30D114",
".* c #3030E9",
".= c #27193E",
".- c #2E2EE7",
".; c #413333",
".: c #213910",
".> c #262089",
"., c #4C4141",
".< c #212D10",
".1 c #2A2ACF",
".2 c #2B2170",
".3 c #222111",
".4 c #3030EC",
".5 c #2AD111",
".6 c #267611",
".7 c #989292",
".8 c #5B1911",
".9 c #221111",
".0 c #2D2DDF",
".q c #2D1F1F",
".w c #342312",
".e c #255810",
".r c #2A2AD2",
".t c #2AAD11",
".y c #3030EF",
".u c #2DA114",
".i c #5B4C4C",
".p c #21121D",
".a c #31F414",
".s c #2727C5",
".d c #32EE15",
".f c #2D2DE2",
".g c #D8D7D7",
".h c #31E814",
".j c #625656",
".k c #251F84",
".l c #333E21",
".z c #261A50",
".x c #3030F2",
".c c #2929CA",
".v c #D42C14",
".b c #3131E9",
".n c #224610",
".m c #544848",
".M c #2626BD",
".N c #F03115",
".B c #7FAE15",
".V c #B1ADAD",
".C c #2CDC12",
".Z c #287F12",
".A c #2BD611",
".S c #2C269B",
".D c #2F2FEA",
".F c #2B3F12",
".G c #276D11",
".H c #302EE1",
".J c #A82613",
".K c #33FF15",
".L c #5D4D4D",
".P c #342532",
".I c #3DF015",
".U c #231749",
".Y c #2F2FED",
".T c #646557",
".R c #2828C5",
".E c #5BD715",
".W c #8D8212",
".Q c #32EB14",
".! c #2827BB",
".~ c #344D21",
".^ c #3434FF",
"./ c #2B2BD5",
".( c #281B51",
".) c #2E2CCE",
"._ c #6D6363",
".` c #3131F2",
".' c #244F11",
".] c #2828C8",
".[ c #244911",
".{ c #2E2EE5",
".} c #211640",
".| c #233F10",
"X  c #2525BB",
"X. c #B62813",
"XX c #B3AEAE",
"Xo c #30D115",
"XO c #41F115",
"X+ c #2BBE1A",
"X@ c #F73114",
"X# c #A5A0A0",
"X$ c #312121",
"X% c #2F1F1F",
"X& c #2B26A6",
"X* c #2A2AD0",
"X= c #2B1B46",
"X- c #324111",
"X; c #2727C3",
"X: c #979292",
"X> c #24173F",
"X, c #C52A14",
"X< c #EA3E14",
"X1 c #1F0F0F",
"X2 c #3535FF",
"X3 c #256011",
"X4 c #716666",
"X5 c #2B26A9",
"X6 c #45CE12",
"X7 c #3030F0",
"X8 c #23184B",
"X9 c #2BA113",
"X0 c #29A111",
"Xq c #244810",
"Xw c #302BBB",
"Xe c #30F014",
"Xr c #2D2DE3",
"Xt c #291D5E",
"Xy c #2A9112",
"Xu c #5F5454",
"Xi c #2929CB",
"Xp c #9C9393",
"Xa c #281414",
"Xs c #2A2497",
"Xd c #2F2FE8",
"Xf c #534848",
"Xg c #2626BE",
"Xh c #214010",
"Xj c #2C2CDB",
"Xk c #3131ED",
"Xl c #67A812",
"Xz c #2AD211",
"Xx c #2F2FEB",
"Xc c #261840",
"Xv c #30212C",
"Xb c #262296",
"Xn c #29CA10",
"Xm c #3636FF",
"XM c #2C2CDE",
/* pixels */
" ) ) ) ) ) ) ) ) ) ) ) ) ) ) ) ) ) ) ) ) ) ) ) ) ) ) ) ) ) ) ) )",
" ) ) ) ) ) ) ) ) ) ) ) ) ) ) ) ) ) ) ).gXfX1  .U $.U $X8 $X:.g )",
" ) ) ) ) ) ) ) ) ) ) ) ) ) ) ) ) ) ) aX$ q D.# xXj ,.^X2Xm.z.V )",
" ) ) ) ) ) ) ) ) ) ) ).g ) ) ) ) ) ) :.> | & & & &.c.*XmXm `.V )",
" ) ) ) ) ) ) ) ) ) ) ).@.q > v ) ) )Xa.R & & & & & & &.bX2.( B )",
" ) ) ) ) ) ) ) ) ) ) N r.h n.3.;.7.g ! & & & & & & & & &XkXw._ )",
" ) ) ) ) ) ) ) ) ) >.u.K.K.K.K.% S q.9 Q & &.>XcXs.! & &.cXw.m )",
" ) ) ) ) ) ) ) )Xf.<.d.K.K.K.K.K.K.K H.F.p.}  .4Xm ' & & &X5.m )",
" ) ) ) ) ) ) )XuX..v oX- e.K.K.K.K.K.K.K.d.u CX>Xs g & & &X&., )",
" ) ) ) ) ) ).@ _ ~ ~ ~ ~ p.O.'.&.K.K.K.K.K.K.K.% F.3. Xb & !X1 )",
" ) ) ) ) ).j 9 ~ ~ ~ ~ ~ ~ ~.N.J h.G.d.K.K.K.K.K.K.KXo w.3  .m )",
" ) ) ) ) d u = ~ ~ ~ ~ ~ ~ ~ ~ ~ ~X, o.|X9.d.K.K.K.K.K.K.K.Z 4 )",
" ) ) ) ) C P E ~ ~ ~ ~ ~ ~ ~ ~ ~ ~ ~ ~ ~ T.8 [ e.K.K.K.K.K ;Xh )",
" ) ) ).T.Q.K.K J U c ~ ~ ~ ~ ~ ~ ~ ~ ~ ~ ~ ~.N.J h w.&.K *.+ 3 )",
" ) ).T.Q.K.K.K.K.K.K.E E ~ ~ ~ ~ ~ ~ ~ ~ ~ ~ ~ ~ ~.v.O.F Z.+ 3 )",
" ) X A.K.K.K.K.K.K.K.K.KXO P c ~ ~ ~ ~ ~ ~ ~ ~ ~ ~ ~X<.w.t.+.n )",
" ) % nXn.C.a.K.K.K.K.K.K.K.K.K.E 0 ~ ~ ~ ~ ~ ~ ~ ~X@ R.[.t.+Xh )",
" ).i j / / /.5.X #.K.K.K.K.K.K.K.K.K.B E ~ ~ ~ ~ ~ R.+.6 O.+.< )",
" ) t.e / / / / /Xn.CXe.K.K.K.K.K.K.K.K.K.I U c = b.+.+Xq }.3X# )",
" ) + n f kXhXh.Z f / /.5.X.a.K.K.K.K.K.K.K.K.KXl.+.+.+.[ sX# ) )",
" ).LX3.9.p.2.# g ^ j e / / / 7Xe.K.K.K.K.K.K -.+X6.+.+.:X: ) ) )",
" ).L q.k.o.1Xj.. G.2.P.bX+ / / /Xn.C.a.K.K -.+.+.+.+ k ..g ) ) )",
" )XXXt.MX X*.0.- y.xXw.P H / / / / / /.5 m.+.+.W 0X3 ..g ) ) ) )",
" ).i V.M K./Xr WX7 ,.$.S 4 / / / / / / /.A.+.+.+ }X%.g ) ) ) ) )",
" ).i 6.MX; M.-.y ,.$ ,.H.= ( / / / / / / 7.+.+ }X$ a ) ) ) ) ) )",
" ) t 6 K 8XM W.`.$.`X7.Y.).pXn / / / / /Xz.+.+.l a ) ) ) ) ) ) )",
" )XpX& K 8 2 l.$.x.yXx.-.f 1.;X3 z / / /.A Z.~ a ) ) ) ) ) ) ) )",
" )XXX=Xg M y ,.x.YXd.f L./ | B aXpX$XyX0 7 Y a ) ) ) ) ) ) ) ) )",
" )XXX=X;.{ ,X7 G.f 5X*Xi.s. .V ) ) ) vX4 @ a ) ) ) ) ) ) ) ) ) )",
" ) )X= I.x.DXM.r < K.o.o ] ..g ) ) ) ) ) ) ) ) ) ) ) ) ) ) ) ) )",
" ) ) ! 6Xj iX;X;X;.].! QXv.g ) ) ) ) ) ) ) ) ) ) ) ) ) ) ) ) ) )",
" ) )X4.L.L + t.i.i.i.i { a ) ) ) ) ) ) ) ) ) ) ) ) ) ) ) ) ) ) )"
};
