/* XPM */
static const char * IconWirefram[] = {
/* width height ncolors chars_per_pixel */
"32 32 161 2",
/* colors */
"   c #120E15",
" . c #100C13",
" X c #0E0A11",
" o c #0D0A10",
" O c #38353A",
" + c #626063",
" @ c #37333C",
" # c #2C2731",
" $ c #26212B",
" % c #221D27",
" & c #211D26",
" * c #1B1720",
" = c #1A151F",
" - c #17131C",
" ; c #4B484F",
" : c #49464D",
" > c #140F19",
" , c #130F18",
" < c #120D17",
" 1 c #110D16",
" 2 c #DDDDDE",
" 3 c #DBDBDC",
" 4 c #39363D",
" 5 c #D7D7D8",
" 6 c #353239",
" 7 c #68656B",
" 8 c #67656A",
" 9 c #666369",
" 0 c #656368",
" q c #636166",
" w c #615F64",
" e c #CBCBCC",
" r c #949296",
" t c #939295",
" y c #919093",
" u c #C5C5C6",
" i c #C3C3C4",
" p c #8E8C90",
" a c #201C24",
" s c #535156",
" d c #1D1A21",
" f c #BCBBBD",
" g c #BBBBBC",
" h c #848286",
" j c #17121B",
" k c #16121A",
" l c #4B474E",
" z c #4A474D",
" x c #48454B",
" c c #130E17",
" v c #47454A",
" b c #120E16",
" n c None",
" m c #110C15",
" M c #100C14",
" N c #0F0C13",
" B c #AEADAF",
" V c #0E0A12",
" C c #0D0A11",
" Z c #ACABAD",
" A c #DEDEDE",
" S c #3D3940",
" D c #3B373E",
" F c #3A373D",
" G c #39353C",
" H c #D8D8D8",
" J c #38353B",
" K c #37353A",
" L c #9C9B9D",
" P c #666468",
" I c #646266",
" U c #2F2B32",
" Y c #626064",
" T c #615E63",
" R c #939194",
" E c #28252B",
" W c #1F1B22",
" Q c #1C191F",
" ! c #1A171D",
" ~ c #141117",
" ^ c #120F15",
" / c #474449",
" ( c #120D15",
" ) c #110D14",
" _ c #100B13",
" ` c #0F0B12",
" ' c #0E0B11",
" ] c #ADACAD",
" [ c #0D0910",
" { c #413E43",
" } c #39363B",
" | c #2C2831",
".  c #221E27",
".. c #535157",
".X c #18141D",
".o c #4A474E",
".O c #15101A",
".+ c #130E18",
".@ c #120E17",
".# c #100C15",
".$ c #AEADB0",
".% c #3D3941",
".& c #A4A3A6",
".* c #69666C",
".= c #312D35",
".- c #656268",
".; c #2E2B32",
".: c #626065",
".> c #29252D",
"., c #939195",
".< c #C8C6C9",
".1 c #929194",
".2 c #C6C6C7",
".3 c #221D26",
".4 c #C1C0C2",
".5 c #211D25",
".6 c #201D24",
".7 c #555258",
".8 c #1F1B23",
".9 c #BDBCBE",
".0 c #BCBCBD",
".q c #1C1920",
".w c #838185",
".e c #17131B",
".r c #4C484F",
".t c #16111A",
".y c #4A464D",
".u c #49464C",
".i c #140F18",
".p c #130F17",
".a c #120D16",
".s c #464449",
".d c #110D15",
".f c #0F0B13",
".g c #0E0B12",
".h c #AEACAF",
".j c #ADACAE",
".k c #ACACAD",
".l c #3E3A41",
".z c #3C383F",
".x c #3A383D",
".c c #39363C",
".v c #6D6B6F",
".b c #D7D7D7",
".n c #37343A",
".m c #A1A0A2",
".M c #636165",
".N c #2E2A31",
".B c #989699",
".V c #615F63",
".C c #2A282D",
".Z c #28242B",
".A c #929093",
".S c #919092",
".D c #211C24",
".F c #1F1A22",
".G c #1E1A21",
".H c #1D1A20",
".J c #BCBBBC",
".K c #4C494E",
".L c #48454A",
/* pixels */
" n n n n n n n n n n n n n s.c v / Y.k.j.j u n n n n n n n n n n",
" n n n n n n n n n n.b.S.q.f ` b.O c.@ o.g.7 n n n n n n n n n n",
" n n n n n n n n n n.L M N.g X O.H.g.6.g ' [ 2 n n n n n n n n n",
" n n n n n n n n n n.f.d.z.+.+ , c M.l.H h.e.w n n n n n n n n n",
" n n n n n n n n n.j M M n m N 5 B.d 6 n 5 c E n n n n n n n n n",
" n n n n n n n n n.L.d.L.j 1 . n n.d G n n.%.g.4 n n n n n n n n",
" n n n n n n n n n.f.d.j.j 1 4 n n a.= g n r.i.K n n n n n n n n",
" n n n n n n n n.j m _ n I.a x n n.u.e Z n n.i ~ A n n n n n n n",
" n n n n n n n n.L.a.M n.u 1.: n n :.f.< n n.r `.& n n n n n n n",
" n n n n n n n n ).d.J n a.p.j n n., M.V n n.$ 1.N n n n n n n n",
" n n n n n n n.A.t.G n n 1 M.j n n B.d 7 n n n.3 X.2 n n n n n n",
" n n n n n n n.c j.M n 5.a M n n n B m.* n n n 9 N T n n n n n n",
" n n n n n n.b.d M.J n.h.X.f n n n n - S n n n.9.@ ! 3 n n n n n",
" n n n n n n.A.@.c n n.h @.G n n n n &.; n n n n. .g L n n n n n",
" n n n n n n F.@.A n n.y.i x n n n n *.>.J n n n r.d { n n n n n",
" n n n n n.b.t M.b n n z.@ / n n n n.o.> ] n n n 5 c C i n n n n",
" n n n n n q - } n n n.a.d.j n n n n.o.f.< n n n n S.f.v n n n n",
" n n n n n a (.A n n n c M.j n n n n z.# w n n n n r 1 ^ n n n n",
" n n n n f > _.b n n.0.@ M.b n n n n B.d 8 n n n n n c X.B n n n",
" n n n n I # J n n n B.@.f n n n n n B - 7 n n n n n ;.#.x n n n",
" n n n n.a.e y n n n., b.G n n n n n B c.l n n n n n.$ < ' H n n",
" n n n.j.@ `.b n n n z 1 x n n n n n n c U n n n n n n.3 ` P n n",
" n n n.u.@ J n n n.b.c M d.:.j.k.b n n $.>.J n n n n n 9 1.H n n",
" n n.b.a M.S n.b Y X M.a.a 1 1 1 M N ` &.> s Z ].b n n.9 , X B n",
" n n.1 b.g.b Y X.d.d.8 R B B.- z.o.5.i ,.F |.@.d.8 . X / , N.c n",
" n n D.d C Q M.d.8.1 n n n n n n n n n.o N.. B 0 l l. .@.g `.C n",
" n 5 1 N.g M W.1 n n n n n n n n n n n.o.d 7 n n n.S Q C [ J.b n",
" n p.g C o C.s +.k ].b n n n n n n n n B.a 7 n g.n o o.H.m n n n",
" n n.D <.a.a c.a k   ` X o.s.s +.k ].b B.@.l K X.g `.1 n n n n n",
" n n n n n B B t ;.r % > > ,.@ 1 M . V.f.d.Z ..f I 5 n n n n n n",
" n n n n n n n n n n n n n B.$ t.o ; % =.+ M F.0 n n n n n n n n",
" n n n n n n n n n n n n n n n n n n n n n e n n n n n n n n n n"
};
