/* XPM */
static const char * IconHelpHome[] = {
/* width height ncolors chars_per_pixel */
"32 32 161 2",
/* colors */
"   c #535758",
" . c #4B3443",
" X c #828486",
" o c #2C232B",
" O c #54404F",
" + c #966A86",
" @ c #B12C37",
" # c #DE323F",
" $ c #B37D9F",
" % c #3D1C21",
" & c #0E1417",
" * c #0D1416",
" = c #0C1215",
" - c #211D23",
" ; c #483846",
" : c #A12934",
" > c #A02933",
" , c #919394",
" < c #573D4E",
" 1 c #362A34",
" 2 c #BDBEBF",
" 3 c #2B171C",
" 4 c #342832",
" 5 c #1B1B20",
" 6 c #BBBCBD",
" 7 c #FFA5D2",
" 8 c #19191E",
" 9 c #1D1418",
" 0 c #6A4A5D",
" q c #1C2124",
" w c #1B2123",
" e c #4B3745",
" r c #B12B36",
" t c #B02B35",
" y c #422F3C",
" u c #D7D7D8",
" i c #3D1B20",
" p c #262027",
" a c #0D1315",
" s c #3B191E",
" d c #0C1114",
" f c #0B1113",
" g c #473744",
" h c #717577",
" j c #D0303D",
" k c #CF303C",
" l c #636769",
" z c #5A1E25",
" x c #BCBDBD",
" c c #1B1A1F",
" v c #19181D",
" b c #1C1316",
" n c #EE3543",
" m c None",
" M c #382D38",
" N c #535759",
" B c #525758",
" V c #4C3845",
" C c #70262D",
" Z c #6F242C",
" A c #43303C",
" S c #966A87",
" D c #111418",
" F c #6C2229",
" G c #101417",
" H c #6A2027",
" J c #3B181D",
" K c #0B1012",
" L c #DD323F",
" P c #FF3746",
" I c #F0A5D2",
" U c #35393B",
" Y c #0F1619",
" T c #0E1618",
" R c #0D1417",
" E c #211D24",
" W c #626667",
" Q c #1E1B21",
" ! c #1D1B20",
" ~ c #2A1519",
" ^ c #1B191E",
" / c #C388AC",
" ( c #EE3442",
" ) c #1F181B",
" _ c #1E161A",
" ` c #444849",
" ' c #6A1F26",
" ] c #A0A2A3",
" [ c #0E1517",
" { c #3F2F3A",
" } c #0D1316",
" | c #3E2D39",
".  c #0C1315",
".. c #EE9BC5",
".X c #473745",
".o c #393E41",
".O c #CF88AD",
".+ c #373C3F",
".@ c #909293",
".# c #7E2E39",
".$ c #3A2D38",
".% c #BCBDBE",
".& c #BBBDBD",
".* c #8E607A",
".= c #1A1A1F",
".- c #4B3442",
".; c #1D1518",
".: c #242A2C",
".> c #5A2933",
"., c #131418",
".< c #2A2128",
".1 c #6B4B5E",
".2 c #8F252F",
".3 c #1C2224",
".4 c #ACADAE",
".5 c #BF7EA0",
".6 c #813D4C",
".7 c #BE7E9F",
".8 c #2A232B",
".9 c #42303C",
".0 c #464B4D",
".q c #D7D8D8",
".w c #101418",
".e c #272128",
".r c #3C1A1F",
".t c #0C1214",
".y c #0B1013",
".u c #3C4143",
".i c #6B2B36",
".p c #B03E4F",
".a c #D0313D",
".s c #EE3B4A",
".d c #593F4F",
".f c #0E1619",
".g c #3A2C37",
".h c #5C2127",
".j c #503746",
".k c #1D1B21",
".l c #352832",
".z c #1A191E",
".x c #19191D",
".c c #C388AD",
".v c #372C37",
".b c #525658",
".n c #9F6A86",
".m c #2C242C",
".M c #976B88",
".N c #111518",
".B c #464A4C",
".V c #D7D7D7",
".C c #6B2128",
".Z c #3B191D",
".A c #0A0F11",
".S c #5F2933",
".D c #0E1518",
".F c #0C1316",
".G c #3A2B36",
".H c #616566",
".J c #2B161A",
".K c #1C1A1F",
".L c #A12A35",
/* pixels */
" m m m m m m m m m m m m m m m m m m m ,.  9.p w Y.q m m m m m m",
" m m m m m m m m m m m m m m m m m x.3 =.< ~.t = R l m m m m m m",
" m m m m m m m m m m m m m m m u N.  d.# f = z L.t T.q m m m m m",
" m m m m m m m m m m m m m m ,.  !.2 f.t.r k P P ' * l m m m m m",
" m m m m m m m m m m m m x.3 =.i ~.t.; > P P P P P b.D.% m m m m",
" m m m m m m m m m m u N.  s.S f =.C n P P P P P P t a.o m m m m",
" m m m m m m m m m ,.  !.6.Z.t.r n P P P P P P P P P J & 2 m m m",
" m m m m m m m.& q.t.>.s.t.; r P P P P P P P P P P P ( 3.u m m m",
" m m m m m m u w.8 o % = > P P P P P P P P P P P P P P H R h m m",
" m m m m m m  .y.A.t.f # P P P P P P P P P P P P P P n i a.: m m",
" m m m m m , = c.A.A *.h P P P P P P P P P P P P P F *.t f.  x m",
" m m m m.& = K.*.d.A f.D.a P P P P P P P P P P @ _ a f.t } *.0 m",
" m m m u w.y.$.....A.A } % P P P P P P P P n i }.t.t } } }.N.0 m",
" m m m.b f.m 7 7 7 0.A f [.L P P P P P P F *.  = a } } 8 . Q.0 m",
" m m X d c.O 7 7 7 7 ^.A.  ) P P P P : _ } = = a }.N.G.j.j Q.0 m",
" m.B.t K.7 7 7 7 7 7.n.A K R C P j i }.t.t =. .  p.j.j.j.j.k.0 m",
" m.B K.v.=.K V.1.5 7 7.g.A.J Y Z *.t f.t =.F E.-.j.j.j.j.j !.0 m",
" m.B K.A.A.A.A.A.A.g e.n.A.A }.D d f.t.F.w.9.j.j.j.j.j.j.j Q.0 m",
" m.B K + g.z.A.A.A.A.A.A.A.A., a a a =.l.j.j.j.j.j.j.j.j.j G.0 m",
" m.B f I I I I $ + g.z.A.A.A.A.t.  -.-.j.j.j.j.j.j.j.j.j.j v.0 m",
" m.B f I I I I I I I I I $ O.A } 1.j.j.j.j.j.j.j.j.j.j.j.j G.0 m",
" m.B.y I I I I I I I I I I $.A a {.j.j.j.j.j.j.j.j.j.j.j.j f.0 m",
" m.B f I I I I I I I I I I $.A } {.j.j.j.j.j.j.j.j.j.j.j.j f.0 m",
" m.B 5 I I I I I I I I I I $.A = {.j.j.j.j.j.j.j.j.j.j.j <.t.0 m",
" m.B.y I I I I I I I I I I $.A } {.j.j.j.j.j.j.j.j.j y.x. .3 ] m",
" m.B f I I I I I I I I I I $.A a {.j.j.j.j.j.j.j 4.t.  } W.V m m",
" m.B f I I I I I I I I I I $.A * {.j.j.j.j.j A 8.  }.+ 6 m m m m",
" m.B.y I I I I I I I I I I $.A } {.j.j.j |.e = a.3 ] m m m m m m",
" m.H.y I I I I I I I I I I $.A } {.j.j.l D =. .H m m m m m m m m",
" m m.@ g g.X ;.M.c I I I I $.A } { | v.t = B u m m m m m m m m m",
" m m.@.A.A.A.A.A.A g S / I $.A * M f.t w.& m m m m m m m m m m m",
" m m m m.4.@ ` U.A.A.A.A.z.v.A f d.t , m m m m m m m m m m m m m"
};
