/* XPM */
static const char * noname[] = {
/* width height ncolors chars_per_pixel */
"32 32 208 2",
/* colors */
"   c #54FFED",
" . c #91493C",
" X c #A35848",
" o c #8F8F8F",
" O c #32B68E",
" + c #B64C40",
" @ c #55EEED",
" # c #250D10",
" $ c #D7CBCC",
" % c #7F5349",
" & c #C86B58",
" * c #92493C",
" = c #5C242A",
" - c #940B0E",
" ; c #A45848",
" : c #940C0F",
" > c #B74C40",
" , c #933930",
" < c #C79F7F",
" 1 c #261515",
" 2 c #805458",
" 3 c #44F6C0",
" 4 c #44F7C0",
" 5 c #133228",
" 6 c #57EEEE",
" 7 c #34BC92",
" 8 c #B77662",
" 9 c #384440",
" 0 c #57FFF4",
" q c #57FFF6",
" w c #247B60",
" e c #263B3C",
" r c #960C0F",
" t c #DB9F80",
" y c #3A1115",
" u c #14392E",
" i c #FDFDC7",
" p c #711917",
" a c #832823",
" s c #35B890",
" d c #840A0D",
" f c #C99E7E",
" g c #369F93",
" h c #35C095",
" j c #58FFF8",
" k c #152F26",
" l c #4D151B",
" z c #46FBC6",
" x c #153B2F",
" c c #BA4C40",
" v c #850B0D",
" b c #EDDBAD",
" n c #73090B",
" m c #59FFFB",
" M c #CAAE8A",
" N c #972928",
" B c #EECEA3",
" V c #4E2126",
" C c #BB4C40",
" Z c #163E32",
" A c #FFFFFF",
" S c #A86955",
" D c #74090B",
" F c #37C699",
" G c #5AFFFE",
" H c #BC3D35",
" J c #5F5F5F",
" K c #DCD8D8",
" L c #DDBA96",
" P c #861B19",
" I c #173329",
" U c #990C0F",
" Y c #48FFCB",
" T c #173933",
" R c #286968",
" E c #BC4D40",
" W c #BC4D41",
" Q c #870B0D",
" ! c #73433D",
" ~ c #399E9B",
" ^ c #BD3C35",
" / c #5BFFFE",
" ( c #5BFFFF",
" ) c #606765",
" _ c #49FFCF",
" ` c #751918",
" ' c #985747",
" ] c #CD9E7E",
" [ c #DECDA2",
" { c #9A1B1E",
" } c #184537",
" | c #3A9E9D",
".  c #5CFFFF",
".. c #4AFFD1",
".X c #DFCDA2",
".o c #3B9E9E",
".O c #19483A",
".+ c #AC4B3F",
".@ c #19493A",
".# c #9B201F",
".$ c #77090C",
".% c #BBBBBB",
".& c #BC9D7D",
".* c #5DFFFF",
".= c #194E3E",
".- c #52161C",
".; c #195341",
".: c #E0BD96",
".> c #9C0C0F",
"., c #4BFFD4",
".< c #771917",
".1 c #771A18",
".2 c #E0CDA2",
".3 c #2A9775",
".4 c #1A4A3D",
".5 c #9B473E",
".6 c #CFAE8B",
".7 c #1A5845",
".8 c #CFBC94",
".9 c #9C3A31",
".0 c #9D1D1B",
".q c #2B9574",
".w c #1B4A3F",
".e c #1B4A41",
".r c #79090C",
".t c #8A3830",
".y c #8A3930",
".u c #9C4A3D",
".i c #E2BD96",
".p c #F3ECBA",
".a c #4DFFD9",
".s c #78372E",
".d c #D0BC94",
".f c #D0C09A",
".g c #3DBFA6",
".h c #ACACAC",
".j c #1C4A41",
".k c #1C4A42",
".l c #7A0A0C",
".z c #D1AE8A",
".x c #4EFFDE",
".c c #1D3938",
".v c #1D3939",
".b c #7A1A18",
".n c #D1BC94",
".m c #3DDCAB",
".M c #3DDDAB",
".N c #D1C1C3",
".B c #1D483A",
".V c #1D4A45",
".C c #1D4A47",
".Z c #794D51",
".A c #2DA47F",
".S c #F5EEBB",
".D c #4FFFDD",
".F c #4FFFE0",
".G c #C26A57",
".H c #441318",
".J c #8C493C",
".K c #D2BC95",
".L c #8E0B0E",
".P c #1D624D",
".I c #1D654F",
".U c #B06858",
".Y c #691816",
".T c #1E4A49",
".R c #7C0A0C",
".E c #AF9496",
".W c #7A5248",
".Q c #2EA781",
".! c #8C676B",
".~ c #8D493C",
".^ c #D3BC95",
"./ c #40BFB0",
".( c #0E1A18",
".) c #1F4A4A",
"._ c #444444",
".` c #1E6D55",
".' c #9F6854",
".] c #D58F74",
".[ c #211515",
".{ c #6B080A",
".} c #F7EFBD",
".| c #7D1A18",
"X  c #8E493C",
"X. c #D4BC95",
"XX c #900B0E",
"Xo c #B34C40",
"XO c #204A4A",
"X+ c #454545",
"X@ c #40E7B3",
"X# c #6A3E42",
"X$ c #0F251E",
"X% c #E6E6E6",
"X& c #8F493C",
"X* c #D5BC95",
"X= c #910B0E",
"X- c #F8F8F8",
"X; c #351115",
"X: c #464646",
"X> c #20745A",
"X, c #53FFEA",
"X< c #53FFEB",
"X1 c #102E25",
"X2 c #920B0E",
"X3 c #353535",
"X4 c #42ECBA",
"X5 c #42F1BB",
/* pixels */
"X%X%X%X%X%X%X%X%X%X%X%X%X%X%X%X%X%X%X%X%X%X%X%X%X%X%X%X%X%X%X%X%",
"X%X%X%X%X%X%X%X%X%X%X%X%X%X%X%X%X%X%X%X%X%X%X%X%X%X%X%X%X%X%X%X%",
"X%X%X%X%X%X%X%X%X%X%X%X%X%X%X%X%X%X%X%X%X%X%X%X%X%X%X%X%X%X%X%X%",
"X%X%X%X%X%X%.Z.-.-.-.- % i i i i i i i i i i i i i i i %.-.-.-.-",
"X%X%X%X%X%X%.Z.-.-.-.- %.X.~X&X&X&.6 i i i i i i i i i %.-.-.-.-",
"X%X%X%X%X%X%.Z.-.-.-.- % +.b c W E.0.5 i.LX* i i i i i %.-.-.-.-",
"X%X%X%.h 9X%.Z.-.-.-.- % +.~ i i i i H <X=.^ i i i i i %.-.-.-.-",
"X%X%X%.h R o.Z.-.-.-.- % >.J i i i i t.| r.n i i i i i %.-.-.-.-",
"X%X%X%.h.) ~X#.-.-.-.- % >X  i i i i.:.{ U.8 i i.p i i %.-.-.-.-",
"X%X%X%.h.).  e.-.-.-.- % >X& i i i i ;.sX2X. i i X.y i %.-.-.-.-",
"X%X%X%.hXO.* @X;.-.-.- % > `X&X&.J p.$ [ :X* i.z.r M i %.-.-.-.-",
"X%X%X%.h.).*.* |.H.-.- % > P c W CXo {.S UX*.p.R.' i i %.-.-.-.-",
".(.j.e T.) (. .*.v.-.- % >.u i i i i ^ S.>X* , ' i i i %.-.-.-.-",
" gX<X<./.T m G.  6 #.- % + . i i i i t.rX2 a n 8 i i i %.-.-.-.-",
".e.x.x.g.C 0 q j /.o.H % >X& i i i i.i DXX.< b.# L i i %.-.-.-.-",
".O 3 3 s.VX<X,X<   0.c.W + * i i i i ].YX2X* i B N.} i %.-.-.-.-",
" x F F.q.k.F.D.a..X4.B.W +.tX..^.K.d.1.& -X* i i &.U i %.-.-.-.-",
"X$X>X>.7.w., _ zX@ w y %.G.l v d Q.9 f i.+.2 i i i.].} %.-.-.-.-",
"X1.`.`.;.4 Y 4.M.A.[.- !.f.f.f.f.f.f.f.f.f.f.f.f.f.f.f !.-.-.-.-",
"X:X+._X3.@X5.m O I l.-.-.-.-.-.-.-.-.-.-.-.-.-.-.-.-.-.-.-.-.-.-",
"X%X%X%.h }.m 7.I y.-.-.-.-.-.-.-.-.-.-.-.-.-.-.-.-.-.-.-.-.-.-.-",
"X%X%X%.h Z h.3 1.-.-.-.-.N.N.N.N.N.N.N.N.N.N.N.N.E.-.-.-.-.-.-.-",
"X%X%X%.h u.Q k.-.-.-.-.- A A A A A A A A A A A A.N.-.-.-.-.-.-.-",
"X%X%X%.h 5.P V.-.-.-.-.- A A.-.-.- A A A A A A A.N.-.-.-.-.-.-.-",
"X%X%X%.h.= ).Z.-.-.-.-.- A A.-.-.- A A A A A A A.N.-.-.-.-.-.-.-",
"X%X%X%.% JX% K =.-.-.-.- A A.-.-.- A A A A A A A.N.-.-.-.-.-.-.-",
"X%X%X%X%X%X%X% K =.-.-.- A A.-.-.- A A A A A A A.N.-.-.-.-.-.-.-",
"X%X%X%X%X%X%X%X% K =.-.- A A 2 2 2 A A A A A A A.N.-.-.-.-.-.-.-",
"X%X%X%X%X%X%X%X%X% K.!.ZX-X-X-X-X-X-X-X-X-X-X-X- $.Z.Z.Z.Z.Z.Z.Z",
"X%X%X%X%X%X%X%X%X%X%X%X%X%X%X%X%X%X%X%X%X%X%X%X%X%X%X%X%X%X%X%X%",
"X%X%X%X%X%X%X%X%X%X%X%X%X%X%X%X%X%X%X%X%X%X%X%X%X%X%X%X%X%X%X%X%",
"X%X%X%X%X%X%X%X%X%X%X%X%X%X%X%X%X%X%X%X%X%X%X%X%X%X%X%X%X%X%X%X%"
};
