/* XPM */
static const char * IconPanelMouseSens[] = {
/* width height ncolors chars_per_pixel */
"32 32 246 2",
/* colors */
"   c #E86674",
" . c #867F3E",
" X c #3E6C22",
" o c #B73D1C",
" O c #A4B49A",
" + c #23470E",
" @ c #23450E",
" # c #987449",
" $ c #D8DAD7",
" % c #22430D",
" & c #2F5E13",
" * c #3B7718",
" = c #990F0F",
" - c #CD1414",
" ; c #C0C6BC",
" : c #3A7517",
" > c #306095",
" , c #8E0E0E",
" < c #C21313",
" 1 c #81A96A",
" 2 c #468C1C",
" 3 c #830D0D",
" 4 c #B71212",
" 5 c #E01616",
" 6 c #F06978",
" 7 c #365F13",
" 8 c #EF6977",
" 9 c #1F3F0D",
" 0 c #D51515",
" q c #1E3D0C",
" w c #B67059",
" e c #CA1414",
" r c #2A5411",
" t c #295210",
" y c #F31818",
" u c #FDD0DA",
" i c #DC606E",
" p c #DB606D",
" a c #800D0D",
" s c #E81717",
" d c #5B6B55",
" f c #41821A",
" g c #EA6775",
" h c #0D190F",
" j c #D21515",
" k c #62874B",
" l c #930F0F",
" z c #1A350B",
" x c #2B2F33",
" c c #7B885D",
" v c #BC1313",
" b c #F01818",
" n c #254A0F",
" m c #B11212",
" M c #24480E",
" N c #757536",
" B c #316314",
" V c #DA1616",
" C c #3D7A19",
" Z c #F81919",
" A c #20420D",
" S c #683912",
" D c #D6D7D7",
" F c #20400D",
" G c #B1BBAC",
" H c #DA6875",
" J c #376E16",
" K c #DE616F",
" L c #43871B",
" P c #437B1B",
" I c #FA909E",
" U c #25350B",
" Y c #1B360B",
" T c #1A340A",
" R c #274F10",
" E c #DBE0D8",
" W c #7D0C0C",
" Q c #A61010",
" ! c #3E7D19",
" ~ c #670C0A",
" ^ c None",
" / c #E66473",
" ( c #28517E",
" ) c #E56472",
" _ c #728ECA",
" ` c #900E0E",
" ' c #959F93",
" ] c #B91212",
" [ c #AE1111",
" { c #B4C0AE",
" } c #C36A64",
" | c #21410D",
".  c #6F0B0B",
".. c #385713",
".X c #2D5A12",
".o c #CC1414",
".O c #E06670",
".+ c #614956",
".@ c #E06270",
".# c #A29D8F",
".$ c #EA1717",
".% c #AB1111",
".& c #DF1616",
".* c #EF6978",
".= c #ED6776",
".- c #1D3B0C",
".; c #204165",
".: c #1C390B",
".> c #C2C7B8",
"., c #C91414",
".< c #1C370B",
".1 c #1B350A",
".2 c #295211",
".3 c #4C7930",
".4 c #285010",
".5 c #BE1313",
".6 c #D42518",
".7 c #688D52",
".8 c #DC1616",
".9 c #4986CF",
".0 c #629842",
".q c #FA1919",
".w c #173013",
".e c #C5262A",
".r c #E41717",
".t c #23460E",
".y c #A7644E",
".u c #D91616",
".i c #2E5B12",
".p c #3A7417",
".a c #478F1D",
".s c #436916",
".d c #45891B",
".f c #B77799",
".g c #E11717",
".h c #51932A",
".j c #EF6877",
".k c #508F29",
".l c #32300C",
".z c #3B270B",
".x c #1D3A0B",
".c c #FF1A1A",
".v c #ABC29D",
".b c #2A5511",
".n c #2A5311",
".m c #295110",
".M c #356A15",
".N c #666A21",
".B c #4B7924",
".V c #994322",
".C c #783247",
".Z c #41811A",
".A c #407F19",
".S c #30380D",
".D c #EC6877",
".F c #21311C",
".G c #657D2D",
".H c #677D5A",
".J c #941610",
".K c #E96674",
".L c #BABBBC",
".P c #D6656B",
".I c #254B0F",
".U c #25490F",
".Y c #24470E",
".T c #D9DCD7",
".R c #9FB294",
".E c #306013",
".W c #3D7B19",
".Q c #3C7918",
".! c #3B7517",
".~ c #E46472",
".^ c #5F824B",
"./ c #478E1C",
".( c #6D7E31",
".) c #A21010",
"._ c #D61515",
".` c #640E0B",
".' c #2C5812",
".] c #E36674",
".[ c #4F180A",
".{ c #970F0F",
".} c #2B5611",
".| c #A74B50",
"X  c #C01313",
"X. c #376F16",
"XX c #F41818",
"Xo c #376D16",
"XO c #366B15",
"X+ c #43861B",
"X@ c #365C1F",
"X# c #42841A",
"X$ c #7C9F67",
"X% c #D2DBE0",
"X& c #DE1616",
"X* c #EC6776",
"X= c #EB6775",
"X- c #9F1010",
"X; c #D31515",
"X: c #1B370B",
"X> c #FC1919",
"X, c #3871AF",
"X< c #F11818",
"X1 c #274E10",
"X2 c #264C0F",
"X3 c #D85E6C",
"X4 c #B21212",
"X5 c #E61717",
"X6 c #DBDFD8",
"X7 c #326314",
"X8 c #3D7A18",
"X9 c #D01515",
"X0 c #E76574",
"Xq c #C51414",
"Xw c #1E3C5D",
"Xe c #EE1818",
"Xr c #681F0E",
"Xt c #E31717",
"Xy c #22440E",
"Xu c #D25C69",
"Xi c #21420D",
"Xp c #2D5B12",
"Xa c #617F4F",
"Xs c #F61919",
"Xd c #387016",
"Xf c #458B1C",
"Xg c #AC1412",
"Xh c #760B0B",
"Xj c #EE6877",
"Xk c #ED6876",
"Xl c #CD5A67",
"Xz c #6B0A0A",
"Xx c #1D3A0C",
"Xc c #FE1A1A",
"Xv c #1C380B",
"Xb c #324E10",
"Xn c #295311",
"Xm c #B9CAAF",
"XM c #890D0D",
"XN c #274D0F",
"XB c #BD2F1F",
"XV c #346815",
"XC c #336614",
"XZ c #3F7F19",
"XA c #D66D80",
"XS c #E96675",
/* pixels */
" ^ ^ ^ ^ ^ ^ ^ ^ ^ ^ ^ ^ ^ ^ ^ ^ ^ ^ ^ ^ ^ ^ ^ ^ ^ ^ ^ ^ ^ ^ ^ ^",
" ^ ^ ^ ^ ^ ^ ^ ^ ^ ^.T.R k.7.7X$Xm ^ ^ ^ ^ ^ ^ ^ ^ ^ ^ ^ ^ ^ ^ ^",
" ^ ^ ^ ^ ^ ^ ^ ^ O.3.EXV J.p.Q.WXZ.Z.0.v ^ ^ ^ ^ ^ ^ ^ ^ ^ ^ ^ ^",
" ^ ^ ^ ^ ^ ^ $XaXn.i B.MXd.!X8XZ.ZX# L L.k.v ^ ^ ^ ^ ^ ^ ^ ^ ^ ^",
" ^ ^ ^ ^ ^ $Xb.I r.iX7.MXd :X8XZ fX+ LXf 2 2 1 ^ ^ ^ ^ ^ ^ ^ ^ ^",
" ^ ^ ^ ^ ^.UXiX1.} &X7.MX..p.QXZ fX+.d 2./.a.a.h E ^ ^ ^ ^ ^ ^ ^",
" ^ ^ ^ ^.H.< %XNXn.i.EXVXo.p.Q !.N.N.( w . #.G.a.h E ^ ^ ^ ^ ^ ^",
" ^ ^ ^ ;Xv.: %X2 t.X.EXCXo.s o Z.c o i.@ /.KX=.O ..hX6 ^ ^ ^ ^ ^",
" ^ ^ ^.3X:Xv | n.m.'.EXCXB.6.$XXXc.c.y.@ / gX*XkX* w.0 ^ ^ ^ ^ ^",
" ^ ^ ^.tX: Y 9.t R.}.. v j.8 sX<X>.c o.P /XSX*XjXjX*.P D ^ ^ ^ ^",
" ^ ^ {.t.- TXxXy.IXbXg v.o.u.r b.q.c.e > _.KXk 8 6Xj g } ^ ^ ^ ^",
" ^ ^X$.I 9.1Xx F M.J.% ]Xq j.&.$XXXc.C.;.9.fX*.j 6 8X*.~ I ^ ^ ^",
" ^ ^.^X2Xi.< Y qXr = QX4X  - V.rX<X>.eXwX,.9 gXj 6.*X*X0 H ^ ^ ^",
" ^ ^.^.m.t.- T U 3 `X-.% 4Xq 0.gXe Z bXw ( _XAXkXj.*Xk   i.> ^ ^",
" ^ ^.^.b.U F.<.[ WXM.{.) mX  - VX5X<X>.+XwX,.f.D.=XjX*X0 K.# ^ ^",
" ^ ^.R.XX1Xy U ~.  a , = Q 4Xq jX&.$Xs bXw > _ I gX* g / K c ^ ^",
" ^ ^ ^ X.n.U.S ~XzXh 3 `X- [ v e 0Xt b.q.C (X% u  .KX0.~ p.B ^ ^",
" ^ ^ ^.R.' R.Y.l.`. Xh 3 l.)X4 <X9.8 s yXc.| u I / ).~.@ w ! ^ ^",
" ^ ^ ^ ^.7.nXN @.l.[.  W , = Q 4XqX;X&.$Xs.e.D.] K.@ K i #.Q ^ ^",
" ^ ^ ^ ^ ^ X.2.U %.-.zXh a ,X-.% v.,._.&Xe.6 wXuX3 pX3 N.Z.! ^ ^",
" ^ ^ ^ ^ ^.T X.4 + |.: z.l W `X- [.5., 0.&Xe.yXlXlXu N.A.W 1 ^ ^",
" ^ ^ ^ ^ ^ ^ ^.R t.Y FXv z.x.SXr.J m v.,._ 5.V.y.G P ! C.B ^ ^ ^",
" ^ ^ ^ ^ ^ ^ ^ ^X6Xa @ 9.< TXx A.U.4.}.. 7 S.sXd.p * :.BX6 ^ ^ ^",
" ^ ^ ^ ^ ^ ^ ^ ^ ^ ^ ;XaXiXv T.: F.YX1.bXp.EXn BXO JX$X6 ^ ^ ^ ^",
" ^ ^ ^ ^ ^ ^ ^ ^ ^ ^ ^ ^ ^ { G c dX@.tX2Xn.'.w.F.RX6 ^ ^ ^ ^ ^ ^",
" ^ ^ ^ ^ ^ ^ ^ ^ ^ ^ ^ ^ ^ ^ ^ ^ ^ ^ ^Xm {.T.L h ^ ^ ^ ^ ^ ^ ^ ^",
" ^ ^ ^ ^ ^ ^ ^ ^ ^ ^ ^ ^ ^ ^ ^ ^ ^ ^ ^ ^ ^ ^ ^ h ^ ^ ^ ^ ^ ^ ^ ^",
" ^ ^ ^ ^ ^ ^ ^ ^ ^ ^ ^ ^ ^ ^ ^ ^ ^ ^ ^ ^ ^ ^ x x ^ ^ ^ ^ ^ ^ ^ ^",
" ^ ^ ^ ^ ^ ^ ^ ^ ^ ^ ^ ^ ^ ^ ^ ^ ^ ^ ^ ^ ^ ^ h.L ^ ^ ^ ^ ^ ^ ^ ^",
" ^ ^ ^ ^ ^ ^ ^ ^ ^ ^ ^ ^ ^ ^ ^ ^ ^ ^ ^ ^ ^ ^ ' h ' D ^ ^ ^ ^ ^ ^",
" ^ ^ ^ ^ ^ ^ ^ ^ ^ ^ ^ ^ ^ ^ ^ ^ ^ ^ ^ ^ ^ ^ ^.L d h ' ^ ^ ^ ^ ^",
" ^ ^ ^ ^ ^ ^ ^ ^ ^ ^ ^ ^ ^ ^ ^ ^ ^ ^ ^ ^ ^ ^ ^ ^ ^ D d x ^ ^ ^ ^"
};
