/* XPM */
static char *IconGenHierachy[] = {
/* width height ncolors chars_per_pixel */
"16 16 29 1",
/* colors */
"  c #9A6969",
". c #484899",
"X c #722727",
"o c #394141",
"O c #ADADCA",
"+ c #BCBEBE",
"@ c #A1A1C4",
"# c #555519",
"$ c None",
"% c #B7B7A4",
"& c #691919",
"* c #BEA4A4",
"= c #ADAFB7",
"- c #1E1E84",
"; c #ADB0B0",
": c #6363A6",
"> c #9294A9",
", c #545941",
"< c #D7D7DF",
"1 c #5F5F27",
"2 c #A37777",
"3 c #484F4F",
"4 c #7B7B4F",
"5 c #0F0F7D",
"6 c #0F1820",
"7 c #0F172D",
"8 c #0F1919",
"9 c #54549F",
"0 c #DCDCD8",
/* pixels */
"*X&2$$$$$$$$$$$$",
"X&&&$$$$$$$$$$$$",
"X&&&$$$$$$$$$$$$",
"*&& $$%44%$$$$$$",
"$3o;;;####$$$$$$",
"$38888####0$$$$$",
"$33$$$1##1$$$$$$",
"$33$$$0,,0$$@.:$",
"$33$$$$3o;;=555:",
"$33$$$$38887555.",
"$33$$$$33$$$95-<",
"$33$$$$33$$$$O<$",
"$33$$$$33$$$95-<",
"$33$$$$3o;;>555.",
"$33$$$$+8886555:",
"$33$$$$$$$$$@-:$"
};
