/* XPM */
static const char * IconGenTrsSpr3DBisector[] = {
/* width height ncolors chars_per_pixel */
"32 32 247 2",
/* colors */
"   c #2333A0",
" . c #783194",
" X c #22339F",
" o c #D88585",
" O c #B2556D",
" + c #CF8686",
" @ c #2F45DA",
" # c #67256C",
" $ c #E13135",
" % c #CB8282",
" & c #E19191",
" * c #5B8406",
" = c #C98080",
" - c #2638B0",
" ; c #D57878",
" : c #E6BABA",
" > c #E5A2A2",
" , c #485A04",
" < c #742C72",
" 1 c #2A3DC1",
" 2 c #343FB7",
" 3 c #293DC0",
" 4 c #3047DE",
" 5 c #213097",
" 6 c #D9DBE5",
" 7 c #64236C",
" 8 c #EC5D5D",
" 9 c #2A3BAD",
" 0 c #2D42D1",
" q c #1D2B89",
" w c #E2A2A2",
" e c #2435A7",
" r c #2C3CBC",
" t c #905883",
" y c #F43030",
" u c #9F1C50",
" i c #5B64C9",
" p c #283AB8",
" a c #D78080",
" s c #E69292",
" d c #273AB7",
" f c #CE8181",
" g c #A01947",
" h c #1E2D8D",
" j c #887028",
" k c #95513F",
" l c #6875CF",
" z c #2537AB",
" x c #B4BADE",
" c c #7B1C54",
" v c #E35757",
" b c #7784D7",
" n c #3149E5",
" m c #22329E",
" M c #3749D7",
" N c #DF8181",
" B c #EC9191",
" V c #3B439C",
" C c #E27A7A",
" Z c #E16262",
" A c #2637AF",
" S c #2537AE",
" D c #ED8888",
" F c #E7D1D1",
" G c #F16B6B",
" H c #1D2A85",
" J c #E08585",
" K c #3046DD",
" L c #5062D8",
" P c #2F46DC",
" I c #D38282",
" U c #D9DAE4",
" Y c #792162",
" T c #CF5050",
" R c #74143C",
" E c #4946BA",
" W c #2E43D1",
" Q c #DB4848",
" ! c #844F1D",
" ~ c #1E2C89",
" ^ c #2334A5",
" / c #2A3EC3",
" ( c #DE9D9D",
" ) c #E6E0E0",
" _ c #E39898",
" ` c #841F5C",
" ' c #1E2C8C",
" ] c #2436A9",
" [ c #852A6A",
" { c #DEB7B7",
" } c #3148E4",
" | c #515EB4",
".  c #23339E",
".. c #D16C6F",
".X c #283BBA",
".o c #E6D9D9",
".O c #DB7C7C",
".+ c #1F2E90",
".@ c #9A93C0",
".# c #D7A6A6",
".$ c #2C40CB",
".% c #EC9D9D",
".& c #374DE3",
".* c #EA6D6D",
".= c None",
".- c #B4112B",
".; c #C98B8B",
".: c #CF5859",
".> c #213095",
"., c #D2142E",
".< c #2638B1",
".1 c #2D42CF",
".2 c #1D2B87",
".3 c #D18C8C",
".4 c #E68383",
".5 c #3047DF",
".6 c #C1193E",
".7 c #C1C5DF",
".8 c #213098",
".9 c #E66262",
".0 c #E7A8A8",
".q c #3B2B80",
".w c #E48E8E",
".e c #8B1C4E",
".r c #BC4F53",
".t c #2B3FC6",
".y c #2A3FC5",
".u c #CE8C8C",
".i c #584699",
".p c #EB9898",
".a c #B37682",
".s c #DF7F7F",
".d c #903177",
".f c #1F2D8F",
".g c #D06663",
".h c #1E2D8E",
".j c #E65B5B",
".k c #D95858",
".l c #22329F",
".z c #293CBD",
".x c #283CBC",
".c c #202F93",
".v c #E44345",
".b c #2D41CE",
".n c #29359F",
".m c #374DDB",
".M c #2A3EC1",
".N c #EA6565",
".B c #3046DE",
".V c #C58289",
".C c #2739B4",
".Z c #1E2C8A",
".A c #9BA3D3",
".S c #E7B4B4",
".D c #2B3EC5",
".F c #2A3EC4",
".G c #C56D7F",
".H c #3148E2",
".J c #22319B",
".K c #21319A",
".L c #283BB8",
".P c #EBA4A4",
".I c #941945",
".U c #603778",
".Y c #D68C8C",
".T c #7E1743",
".R c #283BBB",
".E c #2F45D9",
".W c #E5ABAB",
".Q c #EE2D2D",
".! c #BE1536",
".~ c #1F2E91",
".^ c #2638AF",
"./ c #A31439",
".( c #CB7777",
".) c #E09C9C",
"._ c #293DBF",
".` c #B11740",
".' c #D7AAAA",
".] c #2D42D0",
".[ c #5167F0",
".{ c #2839AA",
".} c #DC7777",
".| c #E25C5C",
"X  c #B6A4C5",
"X. c #E37274",
"XX c #F34F4F",
"Xo c #EA5050",
"XO c #3047E0",
"X+ c #721847",
"X@ c #283AB7",
"X# c #273AB6",
"X$ c #A92966",
"X% c #F07070",
"X& c #1E2D8C",
"X* c #DBA7A7",
"X= c #B12A50",
"X- c #2B3FC7",
"X; c #DC7070",
"X: c #D5A1A1",
"X> c #D28787",
"X, c #A4ACE1",
"X< c #F34848",
"X1 c #2E44D7",
"X2 c #EB8F8F",
"X3 c #D49696",
"X4 c #F64141",
"X5 c #DB9393",
"X6 c #2637AE",
"X7 c #E18C8F",
"X8 c #2537AD",
"X9 c #C46762",
"X0 c #DBA0A0",
"Xq c #3248DE",
"Xw c #293CBE",
"Xe c #EB7B7B",
"Xr c #DC6769",
"Xt c #E2AAAA",
"Xy c #2739B2",
"Xu c #2D41CF",
"Xi c #2C41CE",
"Xp c #F43838",
"Xa c #E66C6C",
"Xs c #EB9595",
"Xd c #3046DF",
"Xf c #702665",
"Xg c #2739B5",
"Xh c #2F45D4",
"Xj c #476507",
"Xk c #2D43D2",
"Xl c #CB7C7C",
"Xz c #1E2C8B",
"Xx c #2536A9",
"Xc c #721C53",
"Xv c #3148E3",
"Xb c #22319C",
"Xn c #21319B",
"Xm c #556B04",
"XM c #C37074",
"XN c #CA8788",
"XB c #283BB9",
"XV c #CB4B5B",
"XC c #70387F",
"XZ c #C0122C",
"XA c #DFA3A3",
"XS c #F82121",
"XD c #2B40C9",
/* pixels */
".)X0 {X*X; +X3.3X>.O.9 > >.p D 8.S.=.=.=.=.=.=.=.=.=.=.=.=.=.=.=",
".WX0X* { C.3.u.u.3 IX. 8 w.PX2X%.9.=.=.=.=.=.=.=.=.=.=.=.=.=.=.=",
" s.WX0.' (X;XN +X3.3.OXa.N.0X2XeXX.o.=.=.=.=.=.=.=.=.=.=.=.=.=.=",
".wX0X:X:.'XrX> +X> + I N.j.*.V.GX$ t /.t M b x.=.=.=.=.=.=.=.=.=",
"Xe &XtX:.#.sXr fX3.3 f.G.d g ` < `.` r 1.FXD.1 M b.=.=.=.=.=.=.=",
".* J IXAX:X5 Z I IXN <XfXf `.! Y `.`.q -.CXB.F.1X1 PX,.=.=.=.=.=",
" ) vX5X5XAX*.9.}XMXf 7XfXfXf.e.! `.I.`.J XXxX# 1Xi @.5X,.=.=.=.=",
".= F.| & _XA NXVXc # 7 7Xf c c./.-.IXZ.q ~.+   - /Xk.B.5 6.=.=.=",
".=.=.S.*.w.W t.! `Xf 7 7XcXc.T.T.-.-./.e.~ qXz mXy.$.EXv.m.=.=.=",
".=.=.= BX% [.U g u `XfXfXcX+ R R./XZ.`., i 9.h h ]._XkXO n.7.=.=",
".=.=.=.=XV.e < <.! u ` cX+ R R k.:.v.QX4.G iXx.2  .x.].5 n L.=.=",
".=.=.=.=.f g [.i.6.`.e cX+ OXlXl ;XrXo yX< ) l.f.8.XXi K n.5.=.=",
".=.=.=.@ e 2X=.d.dXZ.I.e OXl =XMX9.: Q.QXS.P U.J 5X#Xi K }.5 x.=",
".=.=.=.+X6.D.iX$ .., g..Xl.(X9 j jX9 T.vXSX4 F |.K.R.]XqXv 4 x.=",
".=.=.A.c d.$Xq ..d.6 $XrX;..XjXm * *.g QXpXSXX V e 3Xk.&.H K x.=",
".=.= |.K.X.1 4Xv.d u y Z.:.r ,Xj * * j.|.j y.v.f.<.t M.[ 4Xk x.=",
".=.= | m.X 0.5 } MXV yXo.k.: , , ,Xm k...9X<Xf  .x.$.&.[.E.$.7.=",
".=.=.+ m.XXu K n @X X4.Q Q T j , , !X9.(X;Xr.KXg / W.[XqXk 2.=.=",
".=.=.c.K -.$.E.HXd.=.%XS.Q Q T.r kX9 = +...n.C.M.$Xh MXkX-.A.=.=",
".=.=.K ' ].z.1 PXOX, )XXXp.v T.gXMXMXl t.n.C 3X-.1 W.]XD 2.=.=.=",
".=.= 2.2Xn S /.1X1.EX,.p y y vX;Xl.a tX8 d._.yXD.$.$.t p.@.=.=.=",
".=.=.A.c.Z.l AXwX-.b.1 i OX=X= O V.CX@.X._ /.F.t.t 1 p.q.o.=.=.=",
".=.= 6.^ ' '   SX#.z /.F / 3.z.R.X.X.x.zXw._ 3Xw.XXy.nX..j ).=.=",
".=.=.= bXx.ZXzXb ^X8.<Xg dX@ d d p pX@ p.L dX# - e.iX7X2X% C.=.=",
".=.=.=.= l.{X& H.+.K   ^ ] zX8 S.^X6X6X8X8 z ^XnXC G.% B B.9.p.=",
".=.=.=.=.= l E.>.2 H.f.c 5.J m.l X X    Xb 5X& t J 8.%.pXs.4Xo :",
".=.=.=.=.=.= b L 9.cXz H H.2Xz h.f hXz q ~.U.V.u a.NX2.P.%X2 DXX",
".=.=.=.=.=.=.= 6 b E 9.  5.~ ' q.Z h.q t = =Xl.;X>.sXe >.0.p.w G",
".=.=.=.=.=.=.=.=.=.= U.A i |.@ O.aX3X5Xo.OXl %.; + N.*Xt.P > _ D",
".=.=.=.=.=.=.=.=.=.=.=.=.=.=.=.j aX5.' N vX> +.; =X> C s.W.0 _ _",
".=.=.=.=.=.=.=.=.=.=.=.=.=.=.=.w J JX*X*X.X. a %XN.u aXe : >XA _",
".=.=.=.=.=.=.=.=.=.=.=.=.=.=.=.o.| o.)XA {XaX; o %.;.YX.Xt : ( ("
};
