/* XPM */
static const char * IconViewPrev[] = {
/* width height ncolors chars_per_pixel */
"32 32 253 2",
/* colors */
"   c #BEBECB",
" . c #1C1C61",
" X c #271C58",
" o c #4D7E34",
" O c #B35543",
" + c #8A1C07",
" @ c #BB2509",
" # c #191F54",
" $ c #509344",
" % c #C83519",
" & c #B12409",
" * c #171752",
" = c #943535",
" - c #A62108",
" ; c #E2D9D7",
" : c #D8DED7",
" > c #D33A1D",
" , c #911D07",
" < c #277918",
" 1 c #C14C36",
" 2 c #5F253C",
" 3 c #B0B0C0",
" 4 c #488A35",
" 5 c #1A5D1F",
" 6 c #89200C",
" 7 c #195228",
" 8 c #8E1D07",
" 9 c #C0260A",
" 0 c #19195A",
" q c #841A07",
" w c #954232",
" e c #831A06",
" r c #182945",
" t c #181E4F",
" y c #AB2209",
" u c #D4B2AB",
" i c #DED9D9",
" p c #D8D8DD",
" a c #212165",
" s c #1A6F0E",
" d c #951E07",
" f c #A8A890",
" g c #1D1D61",
" h c #1B1B5F",
" j c #841E0A",
" k c #BC2609",
" l c #A4A4B7",
" z c #5B8744",
" x c #CF3315",
" c c #801A06",
" v c #161650",
" b c #1F1F66",
" n c #1D1D64",
" m c #874948",
" M c #1B1B62",
" N c #881B07",
" B c #A4A4BA",
" V c #973A3A",
" C c #181855",
" Z c #AF2309",
" A c #C49E9E",
" S c #B0C7AB",
" D c #25255B",
" F c #DBC0BB",
" G c #9A1F08",
" H c #197409",
" J c #197209",
" K c #C1270A",
" L c #851B07",
" P c #D7D7DB",
" I c #A55851",
" U c #E3B6B2",
" Y c #8C1C07",
" T c #B32409",
" R c #D54327",
" E c #222268",
" W c #CA2C0F",
" Q c #DFC1BB",
" ! c #9E2008",
" ~ c #1E1E64",
" ^ c #1C1C62",
" / c None",
" ( c #931D07",
" ) c #1E6B0A",
" _ c #891C07",
" ` c #BA2509",
" ' c #812A2A",
" ] c #337018",
" [ c #DD4428",
" { c #7E1906",
" } c #171753",
" | c #D44529",
".  c #5C4619",
".. c #A52108",
".X c #C05C4A",
".o c #1A7909",
".O c #1A7709",
".+ c #1A7509",
".@ c #901D07",
".# c #A03210",
".$ c #B72509",
".% c #515185",
".& c #AF240B",
".* c #AE240A",
".= c #7B1906",
".- c #873740",
".; c #1B770D",
".: c #A9321C",
".> c #96BA90",
"., c #96B890",
".< c #42853A",
".1 c #234D29",
".2 c #703408",
".3 c #BF260A",
".4 c #BE2609",
".5 c #19195B",
".6 c #9191A9",
".7 c #821A06",
".8 c #E2B0A6",
".9 c #25256A",
".0 c #AA2209",
".q c #A92208",
".w c #5C3354",
".e c #5C6E78",
".r c #BA2D12",
".t c #951E08",
".y c #941E07",
".u c #1B1B60",
".i c #7F1A06",
".p c #282866",
".a c #E3DAD8",
".s c #257309",
".d c #DDC0BB",
".f c #9C1F08",
".g c #DFCDCA",
".h c #871B07",
".j c #CCCCD5",
".k c #4C2851",
".l c #68688A",
".z c #AE2309",
".x c #DFD8D7",
".c c #991F08",
".v c #215D1C",
".b c #8E1C07",
".n c #1A1A5B",
".m c #CAA59E",
".M c #18353B",
".N c #B52409",
".B c #C23419",
".V c #552049",
".C c #8F5543",
".Z c #A02008",
".A c #C7280A",
".S c #C5BFC7",
".D c #195621",
".F c #519944",
".G c #852C2C",
".H c #C93519",
".J c #171751",
".K c #A55F5F",
".L c #CB7160",
".P c #E3D9D7",
".I c #222269",
".U c #1C1C63",
".Y c #921D07",
".T c #D06551",
".R c #BDBDC2",
".E c #B1B79F",
".W c #B92509",
".Q c #414170",
".! c #7D1906",
".~ c #D27260",
".^ c #87353E",
"./ c #D49A90",
".( c #B0C8AB",
".) c #A42108",
"._ c #758250",
".` c #381F50",
".' c #197509",
".] c #E24E31",
".[ c #197309",
".{ c #8F1D07",
".} c #C6371C",
".| c #B62509",
"X  c #191959",
"X. c #851A07",
"XX c #7B3028",
"Xo c #CCB6B6",
"XO c #8888A8",
"X+ c #D8D8DC",
"X@ c #971E08",
"X# c #961E07",
"X$ c #221C5B",
"X% c #721C1F",
"X& c #3F243C",
"X* c #1B1B5E",
"X= c #BE260A",
"X- c #BB1D11",
"X; c #C96350",
"X: c #29296F",
"X> c #811A06",
"X, c #AE3A25",
"X< c #A92209",
"X1 c #883210",
"X2 c #762626",
"X3 c #B0C2B1",
"X4 c #69697C",
"X5 c #C75844",
"X6 c #1F1F65",
"X7 c #8E210C",
"X8 c #1D1D63",
"X9 c #196219",
"X0 c #36580E",
"Xq c #1B1B61",
"Xw c #9F5B4E",
"Xe c #891B07",
"Xr c #B2250B",
"Xt c #B02309",
"Xy c #505081",
"Xu c #5B2140",
"Xi c #763840",
"Xp c #1B7A0A",
"Xa c #D68070",
"Xs c #1A7809",
"Xd c #9B1F08",
"Xf c #BECFBB",
"Xg c #5B5B85",
"Xh c #C2270A",
"Xj c #193D3A",
"Xk c #2A2A6C",
"Xl c #181857",
"Xz c #68688B",
"Xx c #7B1806",
"Xc c #438A3B",
"Xv c #217109",
"Xb c #981F08",
"Xn c #BC2C11",
"Xm c #216F09",
"XM c #BB6D5F",
"XN c #A94533",
"XB c #8F1E09",
"XV c #9696AE",
"XC c #8D1C07",
"XZ c #1A1A5C",
"XA c #C9A59E",
"XS c #C64C35",
"XD c #68688E",
"XF c #3F4569",
"XG c #D3B1AB",
"XH c #302757",
"XJ c #CE998F",
"XK c #C82A0C",
"XL c #DBA99F",
/* pixels */
" / / / / / / / / / / / / / / / / / / / / / / / / / / / / / p.j /",
" / / / / / / / / / / / / / / / / / / / / / / / / / / / /.6.j / /",
" / / / / / / / / / / / / / / / / / / / / / / / / 3XV.%XO / / / /",
" / / / / / / / / / / / / / / / / / / / / /Xo.K.w M hXg / / / / /",
" / / / / / / / / / / / / / / / / / / / i.K =.kX$ 0 l / / / / / /",
" / / / / / p p / / / / / / / / / / /.S I.^ XXZ.pX+ / / / / / / /",
" / / / / A.V B / / / / / / / / / /.l.-.k X hXD P / / / / / / / /",
" / /X+.e 5.< $ $ $.C z.>.(.(X3.l.Q.9X* h ^XV / / / / / / / / / /",
" /X-XiXm H.+.+.+.+.+.+.+.+ 7.J.nX:X8 n ^X4 / / / / / / / / / / /",
" / U / f ].M rX9.'.+.+ s t C g.I n ^Xk.R / / / / / / / / / / / /",
" / / / / D.J } C 7 H.D *.n bXu X.u 7 4 / / / / / / / / / / / / /",
" / / / /Xz v.J } }Xl 0 . ~ ^X%.$X1.sXp / / / / / / / / / / / / /",
" / / / /X+ v v.J *X X8.UXq #X0X@.| 9.#.d / / / / / / / / / / / /",
" / / / S SXF v.JX*X8X6 gXj HXv L ! T.4 KXS./ / / / / / / / / / /",
" < J J J.vX& 2 ~ E a aXH ].[.' N.b.. & k KXh.B./ / / / / / / / /",
"Xf., < )X2 VXN.`.5X*X Xy : o.[.2 qX@X<Xt `.3 K K.3.L.P / / / / /",
" / / / m '.GXX.1.; 5.p   / /Xf. .7 Y.fX< & `X= 9XhXh.3X5.d / / /",
" / / / AX2. .OXsXpXc / / / / / uXC q.Y.Z.q Z.$ k.3 KXhXh.3XSXG /",
" / / / / / /._Xs.o.F / / / / / /.t.! +Xb.).0Xt.$ @.4 9 KXh yXA /",
" / / / / / / /.EXv 4 / / / / / /XNX> L.{Xd.).0 Z.N ` k.3.:.x / /",
" / / / / / / / /.x : / / / / / /XM _.=Xe.y !...0 Z.N.WX;.x / / /",
" / / / / / / / / / / / / / / / / u.@.=X. 8X@.Z -.0.zXN / / / / /",
" / / / / / / / / / / / / / / / / ;.cX> {.h , G.Z -.}.AXL / / / /",
" / / / / / / / / / / / / / / / / /.# N.= q Y.y G.Z.r.].A Q / / /",
" / / / / / / / / / / / / / / / / / O.b.! {.hXB 6 +.ZXn [.H.P / /",
" / / / / / / / / / / / / / / / / /XJ d.7Xx w.xXa jXC.).} > % / /",
" / / / / / / / / / / / / / / / / / FXd _Xw / / /.X.i , - | x.T /",
" / / / / / / / / / / / / / / / / / /XdXw / / / /.a 1.i ( y R W.~",
" / / / / / / / / / / / / / / / / / /.g / / / / / /.aX, cX#.* [XK",
" / / / / / / / / / / / / / / / / / / / / / / / / / /.8.: e GXr.]",
" / / / / / / / / / / / / / / / / / / / / / / / / / / /.8X7X..f.&",
" / / / / / / / / / / / / / / / / / / / / / / / / / / / /XaX7.7.m"
};
