/* XPM */
static const char * IconWindowsTwoHor[] = {
/* width height ncolors chars_per_pixel */
"32 32 245 2",
/* colors */
"   c #8EC1B6",
" . c #CA3E11",
" X c #D03D0D",
" o c #29489F",
" O c #576094",
" + c #213A80",
" @ c #2F4587",
" # c #1D3372",
" $ c #FF4C10",
" % c #6274B9",
" & c #2B4AA4",
" * c #2A4AA3",
" = c #223C84",
" - c #5B72B2",
" ; c #E3ACA3",
" : c #E9440E",
" > c #B7350B",
" , c #575B8D",
" < c #203778",
" 1 c #DF410E",
" 2 c #264395",
" 3 c #1E3576",
" 4 c #2E4589",
" 5 c #AD320B",
" 6 c #CF3F12",
" 7 c #D43E0D",
" 8 c #CD6D3E",
" 9 c #AAB4D1",
" 0 c #5D74B7",
" q c #273F82",
" w c #5C74B6",
" e c #233B7E",
" r c #BF380C",
" t c #28459A",
" y c #FB551C",
" u c #274599",
" i c #20377B",
" p c #1F377A",
" a c #F57B58",
" s c #4C72A6",
" d c #8BBEB2",
" f c #5D76BA",
" g c #F8480F",
" h c #EE450F",
" j c #29479E",
" k c #5E6DB1",
" l c #28479D",
" z c #21397F",
" x c #565F92",
" c c #20397E",
" v c #E3420E",
" b c #F7511B",
" n c #D93F0E",
" m c #1E3472",
" M c #9C5B4C",
" N c #B1EDC3",
" B c #CE3C0D",
" V c #F5480F",
" C c #2A49A2",
" Z c #586197",
" A c #2949A1",
" S c #223B83",
" D c #C3390C",
" F c #EB450F",
" G c #B8CB9F",
" H c #B9360C",
" J c #1F3676",
" K c #AE330B",
" L c #2B4BA6",
" P c #59639B",
" I c #2A4BA5",
" U c #F96F3A",
" Y c #21387B",
" T c #1F3679",
" R c #BDBF93",
" E c #2C4DAA",
" W c #D23D0D",
" Q c #8BBDB1",
" ! c #5D75B9",
" ~ c #2D4CA1",
" ^ c #C73A0C",
" / c #EF460F",
" ( c #2A489E",
" ) c #E9BEBB",
" _ c #213A7E",
" ` c #BD370C",
" ' c #28469C",
" ] c #565E91",
" [ c #20387D",
" { c #E4430E",
" } c #B2340B",
" | c None",
".  c #2B448B",
".. c #2948A0",
".X c #4D75AC",
".o c #DB6B4A",
".O c #E1410E",
".+ c #1E3574",
".@ c #AF9067",
".# c #FE4A10",
".$ c #243E87",
".% c #2A4AA4",
".& c #9C3B2D",
".* c #223C85",
".= c #F3470F",
".- c #EDBFBB",
".; c #31498D",
".: c #274597",
".> c #203779",
"., c #B6350B",
".< c #1F3778",
".1 c #DE410E",
".2 c #9FD2C7",
".3 c #AC320B",
".4 c #D33E0D",
".5 c #3A5399",
".6 c #2C4CA9",
".7 c #2B4CA8",
".8 c #243E8A",
".9 c #5D74B8",
".0 c #99CCC1",
".q c #BFACBF",
".w c #D8DADE",
".e c #BE380C",
".r c #BBA8BB",
".t c #D5694A",
".y c #DB3F0E",
".u c #D03C0D",
".i c #2A49A0",
".p c #ED450F",
".a c #28479E",
".s c #415BA6",
".d c #E2420E",
".f c #B0330B",
".g c #5C68A6",
".h c #264292",
".j c #3151AA",
".k c #D73F0D",
".l c #FF4D10",
".z c #FF4B10",
".x c #BAB5CA",
".c c #2E4DA7",
".v c #EEAEA4",
".b c #2A49A3",
".n c #223B84",
".m c #C2390C",
".M c #456399",
".N c #B8360C",
".B c #A3ADC7",
".V c #274496",
".C c #5C6AA9",
".Z c #1F3677",
".A c #2B4BA7",
".S c #59639C",
".D c #233D88",
".F c #BD6E42",
".G c #243C7F",
".H c #6275A8",
".J c #223A7D",
".K c #28469A",
".L c #B4E1B6",
".P c #20387B",
".I c #B4340B",
".U c #FF672D",
".Y c #26418E",
".T c #5A65A0",
".R c #243F8C",
".E c #D13D0D",
".W c #5D75BA",
".Q c #733D4F",
".! c #F94910",
".~ c #7589C1",
".^ c #2B4AA0",
"./ c #C84C25",
".( c #EE460F",
".) c #5F6EB2",
"._ c #8EA7B5",
".` c #BC370C",
".' c #254190",
".] c #1D3371",
".[ c #FA4D14",
".{ c #FF6026",
".} c #4A6E9D",
".| c #DC4F1E",
"X  c #5379B3",
"X. c #EB440F",
"XX c #274395",
"Xo c #264394",
"XO c #1F3576",
"X+ c #1E3575",
"X@ c #B7A0B2",
"X# c #CB3B0D",
"X$ c #2A4AA5",
"X% c #374F94",
"X& c #F2470F",
"X* c #5E6BAD",
"X= c #4867BF",
"X- c #20377A",
"X; c #3755AB",
"X: c #1F3779",
"X> c #B5350B",
"X, c #DD410E",
"X< c #ECC8C8",
"X1 c #E25020",
"X2 c #8BBEB1",
"X3 c #5F6DB1",
"X4 c #5E6DB0",
"X5 c #21397E",
"X6 c #E4420E",
"X7 c #EE6632",
"X8 c #1C326F",
"X9 c #364F99",
"X0 c #F6480F",
"Xq c #C03C12",
"Xw c #2A49A1",
"Xe c #223B82",
"Xr c #3D5AAD",
"Xt c #BA360C",
"Xy c #AF330B",
"Xu c #264293",
"Xi c #5B68A6",
"Xp c #4F68AE",
"Xa c #1E3474",
"Xs c #FE4B10",
"Xd c #2B4BA5",
"Xf c #233D86",
"Xg c #5C73B4",
"Xh c #5770B9",
"Xj c #21387A",
"Xk c #203879",
"Xl c #5D6AAB",
"Xz c #274497",
"Xx c #264496",
"Xc c #1F3678",
"Xv c #2C4488",
"Xb c #D9A890",
"Xn c #C5B1C5",
"Xm c #95C9BD",
"XM c #BE370C",
"XN c #5E6CAF",
"XB c #28469B",
"XV c #565E90",
"XC c #CCA283",
"XZ c #92C5BA",
"XA c #B3340B",
/* pixels */
" |.BXh.s.5.  +.PXO.]X8XaX: c.H |.wXh.s.5. Xe.P.Z #X8 mXc [ @.w |",
" 9.>.s.R.* + [ p 3Xa.].]X+ [.*.H 4Xr.R.DXeX5 i.ZXa #.]Xa pXe.;.w",
".jX:X .X.X.X.X s s.}.}.}.}.MXe.n [ %X3X4XNX*Xl.gXi.T.S P Z @ = @",
".j.PXm N N N N N N N N N N N.8XuX5.qX<X<X<X<X<X<X<X<X<X<X< ZXo.*",
"Xd.G.2 N N N N N N N N N N N.RXX.$XnX<X<X<X<X<X<X<X<X<X<X< ZXz.D",
" I.P.2 N N N N N N N N N N N.Y uXfXnX<X<X<X<X<X<X<X<X<X<X< P t.8",
" LXc.0 N N N N N N N N N N N.'.K SXnX<X<X<X<X<X<X<X<X<X<X<.S j.8",
" &Xj.0 N N N N N N N N N N NXo ~ _XnX<X<X<X<X<X<X<X<X<X<X<.SX;.*",
"Xw eXm N N N N N N N N N N N.VX;.G.qX<X<X<X<X<X<X<X<X<X<X<.TX=Xf",
" C YXZ N N N N N N N N N N N uXr _.qX<X<X<X<X<X<X<X<X<X<X<.TX=.D",
" C.>XZ N N G 8 :X&X7XC N N NXB.j.P.rX<X< ;.o { / b a.-X<X<XiXrXf",
".aXk   N.F X.O / gXs $ a.L N jXB.>.rX<XCX#.1.pX0.# $ y.vX<.g C +",
" l <  .@.` 7 v h g.z $.l y N.. j.>.rXb.` B 1.pX0.# $.l y.-.g.% +",
" lXc QXy.e W 1X..=.{.{ $ $ RXw o.>X@./.e B.1 :X&.[.U $ $ a.CX$ S",
" j.Z.@ K H B n {.p b.U.zXsX7.b AX-.@ }.N ^.k {X. V U $.z b.C L =",
" 2.Z.& } }.m BX,X6 h V.!.!X& & t.Z.Q.I K.m B n v F.= g.!.=.S.b [",
".V.Z.& H.3 > D W.y {X. / / : L 'Xc.&XMXy., D.u n.d :.( / F , &X5",
".:.Z MX#XA K.` D.E n.1 v.O.|.A jXc.Q BX>.3 H D B.kX,.O v.|X* L z",
" uXO QX1 ..f 5., rX# X 7.E.@.7 oXc ,X1 .XA 5., `X# X 7.4.oXN L z",
".'XO d RX7 6X>.3.f.N `XM.F N.7Xz.Z O.- U.|Xt.3 K >.` rXq )XN CX:",
".h 3 d N GX1 B.` }Xy 5.F N N.6 uXc OX<.vX1.E r.IXy 5./ )X<X4.% T",
"XoXO d N N N R 8 8XC.L N N N.6.K.< OX<X<X< ;.o.t.t ;X<X<X<X4Xd p",
" 2 3 d N N N N N N N N N N N E 'Xj xX<X<X<X<X<X<X<X<X<X<X< k L Y",
".hX+X2 N N N N N N N N N N N E.V.G xX<X<X<X<X<X<X<X<X<X<X< k * _",
" 2X+X2 N N N N N N N N N N N.6XoXv xX<X<X<X<X<X<X<X<X<X<X<X3 * q",
"XzX+ Q N N N N N N N N N N N.6XXX% ]X<X<X<X<X<X<X<X<X<X<X<X3.% 4",
".VX+ Q N N N N N N N N N N N EXx.s ]X<X<X<X<X<X<X<X<X<X<X<.)X$.;",
" uXa Q N N N N N N N N N N N E.YXpXVX<X<X<X<X<X<X<X<X<X<X<.)XwX%",
".KX+ Q N N N N N N N N N N N E.YXpXVX<X<X<X<X<X<X<X<X<X<X<.).c.5",
" 'XO 3X+ JXO 3Xc.<X- Y e q 4 EX9 4 T.+XOXO 3.ZXc.>.P.J qXv ~X=.H",
"._.h.V (.^.i........ o o o ( E.BXoXo l.^.i........ o o j (.7.~ |",
".x -XgXg w 0.9 ! ! ! f f f f 9 |Xp -Xg w 0.9 ! ! !.W f f f.~ | |"
};
