/* XPM */
static const char * IconTransTranslateY[] = {
/* width height ncolors chars_per_pixel */
"32 32 194 2",
/* colors */
"   c #3C2E9B",
" . c #4C3EAE",
" X c #AC230E",
" o c #B1ACD2",
" O c #271C6F",
" + c #D8D7E1",
" @ c #220EA9",
" # c #631408",
" $ c #8B1C0B",
" % c #80190A",
" & c #1D0C90",
" * c #150967",
" = c #9E200D",
" - c #230EAD",
" ; c #220EAC",
" : c #201375",
" > c #6B1509",
" , c #200DA0",
" < c #180A77",
" 1 c #170A76",
" 2 c #6055AD",
" 3 c #1D0C93",
" 4 c #1C0B88",
" 5 c #671508",
" 6 c #110752",
" 7 c #180A7A",
" 8 c #901D0C",
" 9 c #100751",
" 0 c #5C1207",
" q c #6D1725",
" w c #1F0C98",
" e c #1E0C97",
" r c #A39FC0",
" t c #BEA39F",
" y c #140862",
" u c #6F1609",
" i c #220DA8",
" p c #971E0C",
" a c #210DA7",
" s c #110755",
" d c #1F0C9B",
" f c #932E1F",
" g c #160971",
" h c #811A0A",
" j c #B2ADD5",
" k c #CBCAD3",
" l c #1D0B8F",
" z c #A29EB8",
" x c #140865",
" c c #A19EB7",
" v c #AFACC8",
" b c #7A1A2E",
" n c #E0D8D7",
" m c #1A0A82",
" M c #120759",
" N c #941E0C",
" B c #49427B",
" V c #3D3097",
" C c #8F4035",
" Z c #B0ACCC",
" A c #B7A19E",
" S c #13075D",
" D c #12075C",
" F c #AEABC0",
" G c #100650",
" H c #6153BA",
" J c #6053B9",
" K c #531007",
" L c #35259C",
" P c #521006",
" I c #751B0E",
" U c #DBD9E2",
" Y c None",
" T c #655BAD",
" R c #7F1B32",
" E c #6E170A",
" W c #A0200D",
" Q c #220EAA",
" ! c #8A1C0B",
" ~ c #571107",
" ^ c #1D0C91",
" / c #BC6153",
" ( c #691508",
" ) c #2C1F85",
" _ c #200DA1",
" ` c #541107",
" ' c #531106",
" ] c #16096C",
" [ c #15096B",
" { c #7C190A",
" } c #D5B2AD",
" | c #1C0B89",
".  c #1B0B88",
".. c #210DA5",
".X c #190A7C",
".o c #110753",
".O c #100752",
".+ c #5B1207",
".@ c #1E0C98",
".# c #831A0A",
".$ c #1C0B8C",
".% c #140863",
".& c #2D1E96",
".* c #964F44",
".= c #6E1609",
".- c #4B4385",
".; c #110756",
".: c #961E0C",
".> c #801A0A",
"., c #B2ADD6",
".< c #A9220E",
".1 c #A29EB9",
".2 c #B0ACCA",
".3 c #4C4389",
".4 c #AE4737",
".5 c #12075A",
".6 c #931E0C",
".7 c #4A427D",
".8 c #601308",
".9 c #0F064D",
".0 c #B4948F",
".q c #15086A",
".w c #2E0D51",
".e c #63477B",
".r c #B1ACCE",
".t c #721709",
".y c #B6A19E",
".u c #13075E",
".i c #D7D7DC",
".p c #3E309C",
".a c #100651",
".s c #6153BB",
".d c #CDBDBB",
".f c #AF2510",
".g c #521007",
".h c #511006",
".j c #D8D7E0",
".k c #2D1D95",
".l c #8C4D43",
".z c #641408",
".x c #8C1C0B",
".c c #230EAC",
".v c #220EAB",
".b c #B02B17",
".n c #200D9F",
".m c #6257AE",
".M c #902D1F",
".N c #13085D",
".B c #1E1175",
".V c #BF3F2C",
".C c #2F0E68",
".Z c #210DA3",
".A c #200DA2",
".S c #211764",
".D c #2B1D85",
".F c #531107",
".G c #1E0C96",
".H c #504692",
".J c #7B190A",
".K c #1C0B8A",
".L c #140861",
".P c #701609",
".I c #68170B",
".U c #4B4383",
".Y c #210DA6",
".T c #110754",
".R c #4C3DAF",
".E c #1E0C99",
".W c #160970",
".Q c #831A0B",
".! c #B2ADD4",
".~ c #1C0B8D",
".^ c #140864",
"./ c #4B4386",
".( c #1A0A81",
".) c #120758",
"._ c #110757",
".` c #B22C18",
".' c #C19790",
".] c #413590",
".[ c #170974",
".{ c #160A69",
".} c #7C3E49",
".| c #A29EBA",
"X  c #B0ACCB",
"X. c #300E72",
"XX c #9D1F0D",
"Xo c #12075B",
"XO c #5F1308",
"X+ c #10064F",
"X@ c #0F064E",
"X# c #322398",
"X$ c #4D438E",
"X% c #991F0C",
/* pixels */
" Y Y Y Y Y Y Y Y Y Y Y Y Y Y Y.| H Y Y Y Y Y Y Y Y Y Y Y Y Y Y Y",
" Y Y Y Y Y Y Y Y Y Y Y Y Y Y.1.( @.s Y Y Y Y Y Y Y Y Y Y Y Y Y Y",
" Y Y Y Y Y Y Y Y Y Y Y Y Y z g &...c H Y Y Y Y Y Y Y Y Y Y Y Y Y",
" Y Y Y Y Y Y Y Y Y Y Y Y z.q m 3.Z ; -.s Y Y Y Y Y Y Y Y Y Y Y Y",
" Y Y Y Y Y Y Y Y Y Y Y z.^ 7.K e.A Q - ; J Y Y Y Y Y Y Y Y Y Y Y",
" Y Y Y Y Y Y Y Y Y Y c y 1 m l.G _ a.v -.v J Y Y Y Y Y Y Y Y Y Y",
" Y Y Y Y Y Y Y Y Y c.u.W.X.  ^ w ,.Y Q ; - Q H Y Y Y Y Y Y Y Y Y",
" Y Y Y Y Y Y Y Y c.u ] <.(.K ^.@.n.. i.v - - Q H Y Y Y Y Y Y Y Y",
" Y Y Y Y Y Y Y Y F v.2X  Z.r.].[ & d j.! o.!.!., + Y Y Y Y Y Y Y",
" Y Y Y Y Y Y Y Y Y Y Y Y Y YX$ [.~.@ Y Y Y Y Y Y Y Y Y Y Y Y Y Y",
" Y Y Y Y Y Y Y Y Y Y Y Y Y YX$ [.$.E Y Y Y Y Y Y Y Y Y Y Y Y Y Y",
" Y Y Y Y Y Y Y Y Y Y Y Y Y.d.} q b R } Y Y Y Y Y Y Y Y Y Y Y Y Y",
" Y Y Y Y Y Y Y Y Y Y Y Y.y >.#.6 W.< X / Y Y Y Y Y Y Y Y Y Y Y Y",
" Y Y Y Y Y Y Y Y Y Y Y Y ' u h 8XX.b.f X } Y Y Y Y Y Y Y Y Y Y Y",
" Y Y Y Y Y Y Y Y Y Y Y.0.F ( { $.:.V.`.<.4 Y Y Y Y Y Y Y Y Y Y Y",
" Y Y Y Y Y Y Y Y Y Y Y.l.h.8.P h.x p = WX% Y Y Y Y Y Y Y Y Y Y Y",
" Y Y Y Y Y Y Y Y Y Y Y.*.+ K.z.t % ! 8 N.x Y Y Y Y Y Y Y Y Y Y Y",
" Y Y Y Y Y Y Y Y Y Y Y.' E ' ~ #.P.J.>.Q C Y Y Y Y Y Y Y Y Y Y Y",
" Y Y Y Y Y Y Y Y Y Y Y n.M.I ' PXO 5.=.= t Y Y Y Y Y Y Y Y Y Y Y",
" Y Y Y Y Y Y Y Y Y Y Y Y n f I 0.h.g ` A Y Y Y Y Y Y Y Y Y Y Y Y",
" Y Y Y Y Y Y Y Y Y Y Y Y Y Y.e.w.CX. Y Y Y Y Y Y Y Y Y Y Y Y Y Y",
" Y Y Y Y Y Y Y Y Y Y Y Y Y YX$ [ |.E Y Y Y Y Y Y Y Y Y Y Y Y Y Y",
" Y Y Y Y Y Y Y Y Y Y Y Y Y YX$ [ 4.E Y Y Y Y Y Y Y Y Y Y Y Y Y Y",
" Y Y Y Y Y Y Y Y 2.m T.H.-.-.S y.% x B.U.3./.-.7 k Y Y Y Y Y Y Y",
" Y Y Y Y Y Y Y Y.j.k.R.D *.N.; G.9 9 s MXo D M c Y Y Y Y Y Y Y Y",
" Y Y Y Y Y Y Y Y Y.j.& ..B.L.).a.9 6.;.5Xo M c Y Y Y Y Y Y Y Y Y",
" Y Y Y Y Y Y Y Y Y Y.j L.p.{ D.O.9.o.)Xo.5 c Y Y Y Y Y Y Y Y Y Y",
" Y Y Y Y Y Y Y Y Y Y Y.jX# ).L sX@.T.5Xo c Y Y Y Y Y Y Y Y Y Y Y",
" Y Y Y Y Y Y Y Y Y Y Y Y.j   :.;X@._Xo z Y Y Y Y Y Y Y Y Y Y Y Y",
" Y Y Y Y Y Y Y Y Y Y Y Y Y.j V SX+.5.1 Y Y Y Y Y Y Y Y Y Y Y Y Y",
" Y Y Y Y Y Y Y Y Y Y Y Y Y Y U O.O.1 Y Y Y Y Y Y Y Y Y Y Y Y Y Y",
" Y Y Y Y Y Y Y Y Y Y Y Y Y Y Y.i r Y Y Y Y Y Y Y Y Y Y Y Y Y Y Y"
};
