/* XPM */
static const char * IconTransScaleY[] = {
/* width height ncolors chars_per_pixel */
"32 32 131 2",
/* colors */
"   c #2525B6",
" . c #221853",
" X c #7C7373",
" o c #2828C6",
" O c #321D1D",
" + c #DAC2AE",
" @ c #25194F",
" # c #2A1515",
" $ c #B62814",
" % c #261E74",
" & c #271515",
" * c #251313",
" = c #2727C1",
" - c #231111",
" ; c #B6E7AE",
" : c #2EB114",
" > c #291624",
" , c #C2E7BD",
" < c #C42A14",
" 1 c #D9D7D7",
" 2 c #2C2055",
" 3 c #E85F4B",
" 4 c #6E6464",
" 5 c #90AF85",
" 6 c #2C1616",
" 7 c #B4AFAF",
" 8 c #271414",
" 9 c #251212",
" 0 c #272295",
" q c #C4844B",
" w c #83E874",
" e c #26162A",
" r c #2A249B",
" t c #261841",
" y c #201010",
" u c #2525B7",
" i c None",
" p c #E92F13",
" a c #706565",
" s c #2524AD",
" d c #35274C",
" f c #2FE913",
" g c #625757",
" h c #605555",
" j c #B4AEAE",
" k c #3131F4",
" l c #BFBCBC",
" z c #2B1717",
" x c #3A2929",
" c c #291515",
" v c #271313",
" b c #A8A2A2",
" n c #403467",
" m c #322121",
" M c #2A1919",
" N c #25141E",
" B c #281717",
" V c #989292",
" C c #241313",
" Z c #221111",
" A c #2826B9",
" S c #26208C",
" D c #322FD0",
" F c #E7B6AE",
" G c #7B7272",
" H c #311C1C",
" J c #C1BDBD",
" K c #544FBC",
" L c #251A4F",
" P c #2B1616",
" I c #291414",
" U c #AAA3A3",
" Y c #544848",
" T c #322020",
" R c #201436",
" E c #5FE84B",
" W c #3232F7",
" Q c #281520",
" ! c #3433EF",
" ~ c #281616",
" ^ c #241212",
" / c #27218C",
" ( c #9E2513",
" ) c #D9E6D7",
" _ c #1F1010",
" ` c #241B61",
" ' c #2525B8",
" ] c #3434FF",
" [ c #26162E",
" { c #422F2F",
" } c #514141",
" | c #261B4F",
".  c #272192",
".. c #B72814",
".X c #5F5555",
".o c #2A1717",
".O c #9C9494",
".+ c #281515",
".@ c #261313",
".# c #2424B3",
".$ c #271717",
".% c #934D14",
".& c #52B13D",
".* c #211111",
".= c #1F0F0F",
".- c #3535FF",
".; c #281825",
".: c #CCC9C9",
".> c #332CB4",
"., c #C0BFD1",
".< c #4A3E50",
".1 c #615656",
".2 c #B5AFAF",
".3 c #392828",
".4 c #26239D",
".5 c #281414",
".6 c #2F2FE8",
".7 c #A9A3A3",
".8 c #A7A1A1",
".9 c #332222",
".0 c #27218A",
".q c #241F87",
".w c #2B1A1A",
".e c #3935B6",
".r c #251414",
".t c #261840",
".y c #796D6D",
".u c #231212",
".i c #B86013",
".p c #211010",
".a c #3636FF",
/* pixels */
" i i i i i i i i i i i i i i b - >.X i i i i i i i i i i i i i i",
" i i i i i i i i i i i i i b y r !.5.1 i i i i i i i i i i i i i",
" i i i i i i i i i i i i b y . k.-.> 9 a i i i i i i i i i i i i",
" i i i i i i i i i i i.8 y R.6 W ].a.> ^.y i i i i i i i i i i i",
" i i i i i i i i i i.8 y _ ` % 2 @ L D 8 ^ g i i i i i i i i i i",
" i i i i i i i i i i., m.@ d d T.@ _ K.@ { } i i i i i i i i i i",
" i i i i i i i i i i i J j J.O ~ I.= 1 j.: J i i i i i i i i i i",
" i i i i i i i i i i i i i i.2 & I y i i i i i i i i i i i i i i",
" i i i i i i i , E E E E E E.& B I y E E E E E E w i i i i i i i",
" i i i i i i i ; f f f f f f : C I.p f f f f f f E i i i i i i i",
" i i i i i i i ; f f f f f f : Z I y f f f f f f E i i i i i i i",
" i i i i i i i ; f f f f f f : y I y f f f f f f E i i i i i i i",
" i i i i i i i ; f f f f f f :.p I _ f f f f f f E i i i i i i i",
" i i i i i i i F p p p p p p $ y I _ p p p p p p 3 i i i i i i i",
" i i i i i i i F p p p p p p $ y I.= p p p p p p 3 i i i i i i i",
" i i i i i i i F p p p p p p (.* I _ p p p p p p 3 i i i i i i i",
" i i i i i i i F p p p p p p <.+ c _ p p p p p p 3 i i i i i i i",
" i i i i i i i F p p p p p p.. C # y p p p p p p 3 i i i i i i i",
" i i i i i i i +.i.i.i.i.i.i.%.w H Z.i.i.i.i.i.i q i i i i i i i",
" i i i i i i i ; f f f f f f :.r O Z f f f f f f E i i i i i i i",
" i i i i i i i ; f f f f f f :.u P * f f f f f f E i i i i i i i",
" i i i i i i i ; f f f f f f : y 6.r f f f f f f E i i i i i i i",
" i i i i i i i ; f f f f f f : y 6 M f f f f f f E i i i i i i i",
" i i i i i i i ) ; ; ; ; ; ; 5 y 6.9 ; ; ; ; ; ; , i i i i i i i",
" i i i i i i i i i i i i i i 7 y 6 x i i i i i i i i i i i i i i",
" i i i i i i i i i i l X Y G 4 _ 6.$ l Y V l i i i i i i i i i i",
" i i i i i i i i i i.O.;.o t.t.@ P.@ 0.@ [.< i i i i i i i i i i",
" i i i i i i i i i i U c.3.e.4.q S.  A e v h i i i i i i i i i i",
" i i i i i i i i i i i U.@ n o.# ' = / z h i i i i i i i i i i i",
" i i i i i i i i i i i i U 9 |   u.0 #.X i i i i i i i i i i i i",
" i i i i i i i i i i i i i U -.q s Q h i i i i i i i i i i i i i",
" i i i i i i i i i i i i i i.7 - N.1 i i i i i i i i i i i i i i"
};
