/* XPM */
static char *IconGenAxes[] = {
/* width height ncolors chars_per_pixel */
"16 16 63 1",
/* colors */
"  c #924B4D",
". c #C1C2D4",
"X c #6F2124",
"o c #B49899",
"O c #C8B2B3",
"+ c #B1B2C4",
"@ c #2A902E",
"# c #93393D",
"$ c #83272A",
"% c #B9999A",
"& c #9DC69F",
"* c #A06567",
"= c #9EBCA0",
"- c #9E6365",
"; c #BFCDC0",
": c #4C5098",
"> c None",
", c #671E21",
"< c #2A2D69",
"1 c #81262A",
"2 c #1F6922",
"3 c #D9E0D9",
"4 c #D9DED9",
"5 c #1D6320",
"6 c #7B2427",
"7 c #25297E",
"8 c #8A8CAC",
"9 c #C7B2B3",
"0 c #C6B2B2",
"q c #9899B3",
"w c #50A554",
"e c #1B1E5C",
"r c #54568A",
"t c #88282C",
"y c #DED8D9",
"u c #DDD8D8",
"i c #9798B1",
"p c #298B2D",
"a c #484B8B",
"s c #446B34",
"d c #C4B1B2",
"f c #26812A",
"g c #4E529E",
"h c #6C6E97",
"j c #A45457",
"k c #82AF84",
"l c #C1D4C2",
"z c #25297F",
"x c #B3CAB4",
"c c #71A773",
"v c #327E35",
"b c #D0C0C0",
"n c #BFBFCD",
"m c #237626",
"M c #1F6A22",
"N c #D9DFD9",
"B c #1E6621",
"V c #363A92",
"C c #1B1E5D",
"Z c #54568B",
"A c #D9D9DF",
"S c #BE9C9D",
"D c #272A83",
/* pixels */
">>>>>>>>n>>>>>>>",
">>>>>>>i:>>>>>>>",
">>>>>>><D.>>>>>>",
">>>>>>qezg>>>>>>",
">>>>>>hC7V>>>>>>",
">>>>>>>8aA>>>>>>",
">>>>>>>+Z>>>>>>>",
">>>>>>>+r>>>>>>>",
">>>>>>>+r>>>>>>>",
">>>0>>S#sc3>l4>>",
">>o6-j*u>=vk@w>>",
">u6t$%>>>>N2mp&>",
"> 1X,d>>>>>M5Bf3",
"y09Ob>>>>>>Nxxx;",
">>>>>>>>>>>>>>>>",
">>>>>>>>>>>>>>>>"
};
