/* XPM */
static char *IconWindowsOne[] = {
/* width height ncolors chars_per_pixel */
"16 16 160 2",
/* colors */
"   c #DB400E",
" . c #BBBF93",
" X c #BE4419",
" o c #2B4AA1",
" O c #C53A0C",
" + c #2A48A0",
" @ c #B0B188",
" # c #FF4C10",
" $ c #D08555",
" % c #2A4AA3",
" & c #F4470F",
" * c #C2380C",
" = c #EA440F",
" - c #FD551B",
" ; c #B7350B",
" : c #DF410E",
" > c #264395",
" , c #AD320B",
" < c #D43E0D",
" 1 c #FC4A10",
" 2 c #B85A30",
" 3 c #8ABCAE",
" 4 c #233E88",
" 5 c #AD3F18",
" 6 c #C0380D",
" 7 c #FE591F",
" 8 c #B4CA9F",
" 9 c #3957AE",
" 0 c #93C6BA",
" q c #8FC2B6",
" w c #8DC0B4",
" e c #25408D",
" r c #8BBEB2",
" t c #29479E",
" y c #21397F",
" u c #20397E",
" i c #B1E0B6",
" p c #F8551C",
" a c #B1330B",
" s c #B1EDC3",
" d c #2D4DA5",
" f c #DD6836",
" g c #2A49A2",
" h c #C3390C",
" j c #B9360C",
" k c #AE330B",
" l c #2B4BA6",
" z c #233D87",
" x c #E55523",
" c c #4763B4",
" v c #D23D0D",
" b c #8BBDB1",
" n c #243F8B",
" m c #C73A0C",
" M c #EF460F",
" N c #2A489E",
" B c #28469C",
" V c #B2E1B6",
" C c #E4430E",
" Z c #C4AA7C",
" A c #25418F",
" S c #2948A0",
" D c #FE4A10",
" F c #F3470F",
" G c #4A69C0",
" H c #A3D6CB",
" J c #B6350B",
" K c #DE410E",
" L c #BEC093",
" P c #D33E0D",
" I c #233E89",
" U c #2A479D",
" Y c #BE380C",
" T c #24408D",
" R c #F7480F",
" E c #C5390C",
" W c #29479F",
" Q c #ED450F",
" ! c #F7551C",
" ~ c #B0330B",
" ^ c #264292",
" / c #D83F0E",
" ( c #FF4D10",
" ) c #FF4B10",
" _ c #CD3C0D",
" ` c #F54810",
" ' c #2A49A3",
" ] c #6E99A0",
" [ c #B7360B",
" { c #274496",
" } c #AD330B",
" | c #9ED1C5",
".  c #344F9C",
".. c #E14D1D",
".X c #B5E1B7",
".o c #2C488A",
".O c #ED6839",
".+ c #8EC1B5",
".@ c #8CBFB3",
".# c #243F8C",
".$ c #D13D0D",
".% c #F94910",
".& c #C63A0C",
".* c #EE460F",
".= c #BC370C",
".- c #B1C99F",
".; c #6883B4",
".: c #254190",
".> c #F5470F",
"., c #2A4AA2",
".< c #C43A0D",
".1 c #DB9562",
".2 c #CD4819",
".3 c #264394",
".4 c #C47548",
".5 c #D53E0D",
".6 c #CE6D3E",
".7 c #B95A30",
".8 c #8ABCAD",
".9 c #CB3B0D",
".0 c #E14C1C",
".q c #2A4AA5",
".w c #C0CDA0",
".e c #FF7136",
".r c #1F3779",
".t c #DD410E",
".y c #8BBEB1",
".u c #3C5BB3",
".i c #29479D",
".p c #B57D53",
".a c #DA3F0E",
".s c #24408E",
".d c #607DB5",
".f c #CF3C0D",
".g c #2A49A1",
".h c #C4390C",
".j c #223B82",
".k c #EC450F",
".l c #BA360C",
".z c #C1C193",
".x c #AF330B",
".c c #264293",
".v c #FF4D11",
".b c #FE4B10",
".n c #CC3C0D",
".m c #2B4BA5",
".M c #8ABBAC",
".N c #AF4018",
".B c #274497",
".V c #9CCFC4",
".C c #8BBDB0",
".Z c #FB4910",
".A c #8ABDAF",
".S c #96C9BE",
".D c #BF390D",
".F c #2A489D",
".G c #20387C",
".H c #E5430E",
".J c #92C5BA",
".K c #B67E53",
/* pixels */
".; c.B > ^ A.# z.j u.r.r.G y.j.o",
" N | s s s s s L.z.X s s s s s.s",
" t q s s V.4 K.k.> 1 p.w s s s.c",
".i.+ s.- X P C M.% ) # #.1 s s.B",
" {.S s 5.h < C.* R D # ( #.w s B",
" >.J.K ~.h v : = F -.e.v # ! s o",
" { q 2.x Y _   C Q ` 7.b ).Z.X o",
".3 w h k [.&.$.t.H Q & R.%.>.z g",
" I.@.n J k.l m v   C = M M.k L.q",
" n r / 6.x.x Y m.$.a : C C : . l",
" T r $...D.x k j E.9 v.5 <.2 s.m",
" e r s x.O.D a } J.= h O * 8 s S",
" 4.y s.X f.0.< ; k ,.x.N @ s s.g",
".# b s s s Z.6.f O.7.p i s s s g",
".: ].M.8.8.M.8 3.A.C.y w 0.V H.,",
".  n.F 9 G.u d % ' g g + W.i U.d"
};
