/* XPM */
static const char * IconViewBack[] = {
/* width height ncolors chars_per_pixel */
"32 32 155 2",
/* colors */
"   c #000000",
" . c #BAA8B0",
" X c #1E6909",
" o c #863C45",
" O c #4F8D43",
" + c #A9A9A9",
" @ c #D8DED7",
" # c #8C2D2D",
" $ c #5D1F23",
" % c #A89C8A",
" & c #562F08",
" * c #88544D",
" = c #AFC6AB",
" - c #3C3C62",
" ; c #865E62",
" : c #186F09",
" > c #186D09",
" , c #9595AC",
" < c #AA9599",
" 1 c #BF9D9D",
" 2 c #26173F",
" 3 c #4E4E7A",
" 4 c #BDBDC9",
" 5 c #956D6D",
" 6 c #652534",
" 7 c #8C4E43",
" 8 c #345717",
" 9 c #CFC0C0",
" 0 c #8E2E2E",
" q c #181855",
" w c #702424",
" e c #5B5B5B",
" r c #131346",
" t c #CCC0C0",
" y c #361E4E",
" u c #2F5115",
" i c #611F1F",
" p c #591E21",
" a c #68273D",
" s c #7C2929",
" d c #2F193D",
" f c #D7D7DB",
" g c #6D2424",
" h c #9696AF",
" j c #3D3D3D",
" k c #902F2F",
" l c #381F4C",
" z c None",
" x c #1C1702",
" c c #186A0E",
" v c #2B4E0D",
" b c #444108",
" n c #2D2D2D",
" m c #171753",
" M c #722525",
" N c #954444",
" B c #632020",
" V c #381B3B",
" C c #B0A4AA",
" Z c #7C2828",
" A c #552F08",
" S c #B0B0C1",
" D c #A47870",
" F c #874D43",
" G c #18591E",
" H c #468034",
" J c #19195B",
" K c #933B3B",
" L c #2C1B46",
" P c #0B0B0B",
" I c #070707",
" U c #050505",
" Y c #634E68",
" T c #010101",
" R c #1E6809",
" E c #AAAAAA",
" W c #742626",
" Q c #181814",
" ! c #822D2D",
" ~ c #9C9C9C",
" ^ c #9494A8",
" / c #7E2929",
" ( c #632F36",
" ) c #77282C",
" _ c #712626",
" ` c #151549",
" ' c #AFAFBF",
" ] c #6F2424",
" [ c #5D5D89",
" { c #2F1D52",
" } c #186E09",
" | c #8C8C8C",
".  c #186C09",
".. c #601F1F",
".X c #CFD0C7",
".o c #C8B3B3",
".O c #4F4F7B",
".+ c #D5C3C3",
".@ c #17170F",
".# c #922F2F",
".$ c #6A2222",
".% c #265A31",
".& c #171751",
".* c #672636",
".= c #742525",
".- c #AEAEBA",
".; c #4C4C71",
".: c #C9C9D1",
".> c #4F293F",
"., c #612433",
".< c #141447",
".1 c #5A5A5A",
".2 c #8A2D2D",
".3 c #622020",
".4 c #17531B",
".5 c #69698D",
".6 c #CAB4B4",
".7 c #4F1F17",
".8 c #B0B0C2",
".9 c #D8D8DC",
".0 c #4E4E79",
".q c #4A4A4A",
".w c #843434",
".e c #6C2323",
".r c #864D43",
".t c #A46767",
".y c #9D666A",
".u c #5D1E1E",
".i c #3E4709",
".p c #25592F",
".a c #161610",
".s c #1D1803",
".d c #602024",
".f c #5F2023",
".g c #802929",
".h c #4F8E44",
".j c #4E8C43",
".k c #505081",
".l c #7E4634",
".z c #D7D7D7",
".x c #644D63",
".c c #C5AFAB",
".v c #65222C",
".b c #6E2838",
".n c #6E2424",
".m c #95B78F",
".M c #101010",
".N c #872C2C",
".B c #2B1A45",
".V c #B9B9B9",
".C c #040404",
".Z c #020202",
".A c #402049",
".S c #B3B3B3",
".D c #391F4C",
/* pixels */
" z z z z z z z z z z z z z z z z z z z z z z z z z z z z z z z z",
" z z z z z z z z z z z z z z z z z z z z z z z z z z z z z z z z",
" z z z z z z z z z z z z z z z z z z j               j E z z z z",
" z z z z z z z z z z z z z z z z z j        .Z T       P.C.S z z",
" z z z z z z z z 4 4 z z z z z z z j   j z z z z z z.V.q U I.z z",
" z z z z z z z z ' ' z z z z z z z j   j z z z z z z z z.M   e z",
" z z z z z z z z ' ' z z z z z z z j   j z z z z z z z z |     z",
" z z z z z z z z ' ' z z z z z z z j   j z z z z z z z z +     z",
" z z z z z z z z ' ' z z z z z z z j   j z z z z z z z z n  .M z",
" z z z z z z z z ' ' z z z z z z z j   j z z z z z z.V.q     ~ z",
" z z z z z z z z ' ' z z z z z z z j                      .q z z",
" z z z z z z z z ' ' z z z z z z z j        .Z T       P  .S z z",
" z z z z z z z z , ' z z z z z z z j   j z z z z z z.V.q U I.z z",
" z z z z z z z z.0 ' z z z z z z z j   j z z z z z z z z.M   e z",
" z z z z z z z z.0 ' z z z z z z z j   j z z z z z z z z |     z",
" z z z z z z z z 3.5 z z z z z z z j   j z z z z z z z z +     z",
" z z z z z z z z.0.O z z z z z z z j   j z z z z z z z z +     z",
" z z z z z z z z 3.O z z z z z z z j   j z z z z z z z z n   n z",
" z z z z z z z z.0.O z z z z z z z j   n + + + + + +.1.M    .V z",
" z z z z z z z t.B l.+ z z z z z z j                       ~ z z",
" z z z z z z z ( L.D o z z z z z z z j               j + z z z z",
" z z z z z z ^ 2.,.* { S z z z z z z z z z z z z z z z z z z z z",
" z z z z z C.f M.g.2 0 K . z z z z z z z z z z z z z z z z z z z",
" z z z.- - p i w 6.b.#.# a.k.8 z z z z z z z z z z z z z z z z z",
".j.j.p r V B.u d.< q.A k # y J.% O O O.m = = = = @ z z z z z z z",
" >.  v.4 u.$ $ m ` q.&.2.N 8 G c : : : X : : : : R } } } } H.h.h",
".r F < Y.v.= _.a.@.@ Q s Z.>.x.c 7 7.l & A.i b D.X z z z z z z z",
" z z z z 1 / N *.s x.7.n ] 9 z z z z z z z z z z.c.c % z z z z z",
" z z z z z.t !.w g.3.u.. 5 z z z z z z z z z z z z z z z z z z z",
" z z z z z z.y ) W.e.d ; z z z z z z z z z z z z z z z z z z z z",
" z z z z z z ^.:.6.o.9 h z z z z z z z z z z z z z z z z z z z z",
" z z z z z f.; z z z z [ z z z z z z z z z z z z z z z z z z z z"
};
