/* XPM */
static const char * IconTVEvalCurvature[] = {
/* width height ncolors chars_per_pixel */
"32 32 240 2",
/* colors */
"   c #9E5956",
" . c #300D2C",
" X c #AF6460",
" o c #4E0B0E",
" O c #814240",
" + c #744447",
" @ c #050A72",
" # c #5A1B1D",
" $ c #3D389F",
" % c #894E4B",
" & c #884E4A",
" * c #36070A",
" = c #8F4947",
" - c #521115",
" ; c #763635",
" : c #4F0F12",
" > c #985753",
" , c #070C77",
" < c #A8605C",
" 1 c #54171A",
" 2 c #B19FA0",
" 3 c #682627",
" 4 c #055907",
" 5 c #33070A",
" 6 c #8C4947",
" 7 c #320709",
" 8 c #15156A",
" 9 c #4D0F13",
" 0 c #C7BBBC",
" q c #5F1C1E",
" w c #925350",
" e c #FB8F89",
" r c #6A2C2C",
" t c #110E87",
" y c #A15C58",
" u c #47672A",
" i c #332C70",
" p c #520E11",
" a c #7C4644",
" s c #531F1F",
" d c #450F39",
" f c #C96B68",
" g c #070E94",
" h c #390A0C",
" j c #8B4F4C",
" k c #8A4F4B",
" l c #9B5855",
" z c #7F6061",
" x c #9A5854",
" c c #67418F",
" v c #623534",
" b c #4C0A0E",
" n c #998081",
" m c #764441",
" M c #AA615D",
" N c #1C1D7A",
" B c #662E2E",
" V c #070E97",
" C c #050A6A",
" Z c #864D4A",
" A c #844B48",
" S c #BCACAD",
" D c #060C82",
" F c #4A3451",
" G c #0D0D6B",
" H c #92524F",
" J c #050A6D",
" K c #ABADD1",
" L c #A35D59",
" P c #614243",
" I c #5D2828",
" U c #060C85",
" Y c #B26661",
" T c #510B0F",
" R c #5D1B1E",
" E c #070E9D",
" W c #ABADD4",
" Q c #313584",
" ! c #F88E88",
" ~ c #8D504D",
" ^ c #511A1C",
" / c #5E2C2C",
" ( c #110E7F",
" ) c None",
" _ c #9D5956",
" ` c #602324",
" ' c #0B10A4",
" ] c #784542",
" [ c #591B1D",
" { c #58191C",
" } c #5F63BE",
" | c #D7D7E1",
".  c #078B0A",
".. c #884E4B",
".X c #35070A",
".o c #462C6A",
".O c #340709",
".+ c #864C49",
".@ c #4E0F12",
".# c #874140",
".$ c #955551",
".% c #571D1E",
".& c #6C2C2C",
".* c #6B2A2B",
".= c #5C5F93",
".- c #A55E5A",
".; c #D27E79",
".: c #5A1417",
".> c #6F3F3C",
"., c #EB8E81",
".< c #310709",
".1 c #652425",
".2 c #814A47",
".3 c #06790C",
".4 c #0810A7",
".5 c #9C5451",
".6 c #5F1E1F",
".7 c #FB8F8A",
".8 c #FA8F89",
".9 c #45090C",
".0 c #2D8D25",
".q c #070E92",
".w c #9F8F8F",
".e c #F08A89",
".r c #DBD7D7",
".t c #A05C58",
".y c #683538",
".u c #C97B94",
".i c #A89091",
".p c #C96D69",
".a c #050A68",
".s c #8A4F4C",
".d c #4F3493",
".f c #6B6D41",
".g c #A67A8F",
".h c #662122",
".j c #060C80",
".k c #995854",
".l c #BA6D85",
".z c #975652",
".x c #080FA3",
".c c #4B0A0E",
".v c #4A0A0D",
".b c #915E77",
".n c #A9615D",
".m c #050961",
".M c #151974",
".N c #834B48",
".B c #060C83",
".V c #431113",
".C c #090E72",
".Z c #B2B4CF",
".A c #FC908A",
".S c #098E11",
".D c #3339AF",
".F c #614244",
".G c #604243",
".H c #A15B58",
".J c #6A3C39",
".K c #7C4744",
".L c #B06460",
".P c #C3BABB",
".I c #774049",
".U c #6B3130",
".Y c #3D0F10",
".T c #8C504D",
".R c #D7D7DF",
".E c #9B5955",
".W c #663A38",
".Q c #AB625E",
".! c #754340",
".~ c #1A3264",
".^ c #74413F",
"./ c #9497BE",
".( c #4C1A1B",
".) c #AAABC3",
"._ c #330709",
".` c #854C49",
".' c #602728",
".] c #652023",
".[ c #955552",
".{ c #FE918B",
".} c #945551",
".| c #935350",
"X  c #855356",
"X. c #BD7797",
"XX c #783E3C",
"Xo c #A45E5A",
"XO c #300709",
"X+ c #836061",
"X@ c #7E4845",
"X# c #C5BBBC",
"X$ c #8E514E",
"X% c #190A52",
"X& c #DAD7D7",
"X* c #BF6667",
"X= c #131AA2",
"X- c #541215",
"X; c #9E5A57",
"X: c #9D5A56",
"X> c #864946",
"X, c #060C7E",
"X< c #5E62A6",
"X1 c #070B75",
"X2 c #080FA1",
"X3 c #A65D6C",
"X4 c #AD635F",
"X5 c #9D9FBC",
"X6 c #511F1F",
"X7 c #7D3F3D",
"X8 c #412B79",
"X9 c #342D80",
"X0 c #864D49",
"Xq c #BDACAD",
"Xw c #060C81",
"Xe c #965652",
"Xr c #050B76",
"Xt c #151B89",
"Xy c #490A0D",
"Xu c #1B1485",
"Xi c #050A6C",
"Xp c #ABADD0",
"Xa c #90504C",
"Xs c #A65F5B",
"Xd c #71403E",
"Xf c #070D8F",
"Xg c #763B39",
"Xh c #703A3D",
"Xj c #060C84",
"Xk c #804946",
"Xl c #421113",
"Xz c #09109E",
"Xx c #FB908A",
"Xc c #050A6F",
"Xv c #90524F",
"Xb c #F98E88",
"Xn c #050965",
"Xm c #040964",
"XM c #D6D7DC",
"XN c #9F5B57",
/* pixels */
" ) ) ) )XfXc.) ) ) )X=Xj./ ) ) ) ) ) ) ) ) ) } V Q ) )X< U 8 ) )",
" ) ) ) | gXnXM ) ) ) } E Q ) ) ) ) ) ) ) ) ) W E C ) )Xt ,.= ) )",
" ) ) )Xp g.m ) ) ) ) W.x J.R ) ) ) ) ) ) ) ) |X2Xi.Z./Xj 8XM ) )",
" ) ) ) K gXn ) ) ) ) ).D UX< ) ) ) ) ) ) ) ) ) EXiX5Xt ,.= ) ) )",
" ) ) ) K VXn ) ) ) ) ) }X2 N ) ) ) ) ) ) )X& ).DX,Xr D.MXM ) ) )",
" ) ) ) W E C ) ) ) ) ).P.4X1.= P P.F 7._ * nX#.D.BXc.MX5 ) ) ) )",
" ) ) ) |.xXr F.F 7 7.X ^X9Xz GX* f f.8.8 e.& z.D.B CX5 ) ) ) ) )",
" ) ) ) ) (Xf i f ! ! !Xb.eX=Xw.g.8 e eXxXx <X%Xf.B Q ) ) ) ) ) )",
" ) ) ) ) d.4.CX.XbXbXb.8.8 cXz.C.uXx.A.A.; 8 DXfX,.= ) ) ) ) ) )",
" ) ) )Xq.#XuX= NX..8.8 e e.7 $.~.3. .f.o @XjX1.qXi.) ) ) ) ) ) )",
" ) ) ).i O.I 'X=.CX8.l.A.A.A., 4.3. .S.~Xu cX3XfXn.Z ) ) ) ) ) )",
" ) ) ) +Xe.`XhXu.4 U J.aXnXm.m 4.3. .S.0.{.{X9 D i ) ) ) ) ) ) )",
" ) ) ) {.`.`.+ 3 d t.x E V.d.b.; u u u.CX8 i.jXc F ) ) ) ) ) ) )",
" ) ) ).c.s.`.+.+.h -.( . r.&.p.p.p.;.{.d.j UXw c.V 0 ) ) ) ) ) )",
" ) ) 0 q.`.`.+.+X0 b T o.cXy.9 { h *Xl.OX% G . r.V z ) ) ) ) ) )",
" ) )Xq #.`.`.+.+XX : 5X> H OX7 ; q R { T o b.cXy.9._ ) ) ) ) ) )",
" ) ) + ;.`.`.+.+Xg.6 hX:.k.$Xv.T ZXk.K mXd.J / /.'.< ) ) ) ) ) )",
" ) ).y =.`.`.+.+ # ; IX; lXe wX$...NX@ ].^.>.J vXX.G ) ) ) ) ) )",
" ) ).c.s.`.`.`.+ : B I.t _ >.}Xv.s.`Xk a mXd.J.W.%.w ) ) ) ) ) )",
" ).rX-.`.`.`.`.+.c sX> yX; x.[ w.T &.NX@ ].!.>.J.Y.P ) ) ) ) ) )",
" )Xq.h.`.`.`.`Xg :.(   LXN.E > wX$ k.`Xk a.!Xd vXO ) ) ) ) ) ) )",
" )X+.U.`.`.`.` `.1XO <.-.tX:.k.}X$ jX0.2.K mXd.U.G ) ) ) ) ) ) )",
" ) + =.`.`.`.+ #.'X6.nXs L   lXe w ~...NX@ ].!.Y.w ) ) ) ) ) ) )",
" ).c.|.`.`.`.`.c sX7 MXs LXN.E.z.|X$ %.`Xk a m.O.P ) ) ) ) ) ) )",
".r b.`.`.`.`XX.].X 6.Q <Xo yX: >.}X$ k Z.2X@.^XO ) ) ) ) ) ) ) )",
" )X .U.`.`.`Xg 3XO.LX4.n.- LX; x.[ w ~.. AXk ^.G ) ) ) ) ) ) ) )",
" )X  -X@.`.` [ r h YX4.QXs LXN l.z wX$ j O ` n 2 ) ) ) ) ) ) ) )",
" ) )Xg 9.`.`.@ 3 s Y X.Q <XoXN.E > 6.1X- 1X+ 0 ) ) ) ) ) ) ) ) )",
" ) ).r.].U.`.c sXa Y X.Q.H 6.* #Xy.y.i.r ) ) ) ) ) ) ) ) ) ) ) )",
" ) ) ).r.:.&.6.X.5.5.# RXyXy + S ) ) ) ) ) ) ) ) ) ) ) ) ) ) ) )",
" ) ) ) ) 2 p 1XO -.v ^X+ 0 ) ) ) ) ) ) ) ) ) ) ) ) ) ) ) ) ) ) )",
" ) ) ) ) ) 2X  +.i.r ) ) ) ) ) ) ) ) ) ) ) ) ) ) ) ) ) ) ) ) ) )"
};
