/* XPM */
static const char * IconCrvBsplineCrv[] = {
/* width height ncolors chars_per_pixel */
"32 32 245 2",
/* colors */
"   c #261361",
" . c #5B0B07",
" X c #4E2EB0",
" o c #090C0C",
" O c #4F33A7",
" + c #AAABAA",
" @ c #312065",
" # c #AC150E",
" $ c #4D3631",
" % c #8678B5",
" & c #39257A",
" * c #6F5DA5",
" = c #630C08",
" - c #621432",
" ; c #3F20A1",
" : c #7A615D",
" > c #C8BBBA",
" , c #9C3A36",
" < c #800F0A",
" 1 c #391D91",
" 2 c #DFD7D7",
" 3 c #2A156B",
" 4 c #64100C",
" 5 c #600C08",
" 6 c #230A04",
" 7 c #41463F",
" 8 c #23125A",
" 9 c #A398C7",
" 0 c #3D1F98",
" q c #88100B",
" w c #621D17",
" e c #584A84",
" r c #7D0F0A",
" t c #DAD8DF",
" y c #D9D8DE",
" u c #A6150E",
" i c #DCD7D7",
" p c #341A85",
" a c #B2231D",
" s c #670D08",
" d c #2F2F37",
" f c #8F110B",
" g c #ABACAA",
" h c #B7B0CD",
" j c #85100B",
" k c #342D28",
" l c #2E1775",
" z c #0B0C03",
" x c #470A06",
" c c #0A0802",
" v c #2D1A6A",
" b c #7A0F0A",
" n c #C7ADAB",
" m c #281465",
" M c #271464",
" N c #3E1F9F",
" B c #1D0A04",
" V c #4D2DB1",
" C c #221355",
" Z c #81100A",
" A c #A3908E",
" S c #C5BFD7",
" D c #381C8F",
" F c #371C8E",
" G c #705BB2",
" H c #32197F",
" J c #8A130C",
" K c #231159",
" L c #560A07",
" P c #221158",
" I c #734441",
" U c #131028",
" Y c #88514F",
" T c #050A03",
" R c #2B166E",
" E c #040802",
" W c #D8D7DC",
" Q c #A6140D",
" ! c #4321AA",
" ~ c #8A605E",
" ^ c #9B130C",
" / c #952C27",
" ( c #BA9297",
" ) c #5E0B08",
" _ c #351611",
" ` c #A34B45",
" ' c #312063",
" ] c #CAAEAD",
" [ c #4626A6",
" { c #361B89",
" } c #92918D",
" | c #351B88",
".  c #660E09",
".. c None",
".X c #650C08",
".o c #4F0A06",
".O c #211053",
".+ c #201052",
".@ c #A04945",
".# c #780E0A",
".$ c #770E09",
".% c #3A257C",
".& c #471815",
".* c #4020A3",
".= c #620C08",
".- c #2E1970",
".; c #A04B48",
".: c #3A1D93",
".> c #391D92",
"., c #060B03",
".< c #050902",
".1 c #2A156C",
".2 c #AFADB6",
".3 c #584499",
".4 c #25125D",
".5 c #7E6EB1",
".6 c #4E2CB7",
".7 c #540D07",
".8 c #6C342F",
".9 c #4C2AB5",
".0 c #483A72",
".q c #87100B",
".w c #0D0C03",
".e c #2E1773",
".r c #DBD8E1",
".t c #D5AEAD",
".y c #513F88",
".u c #9D95B8",
".i c #823834",
".p c #8F1C16",
".a c #CAADAC",
".s c #CEBDC7",
".d c #0B0A18",
".f c #3A2E64",
".g c #B8B0CF",
".h c #2E1776",
".j c #83100A",
".k c #201151",
".l c #B27470",
".z c #790F0A",
".x c #5E615C",
".c c #E2D8D7",
".v c #55497B",
".b c #780F09",
".n c #371C8C",
".m c #593CB4",
".M c #BEADB7",
".N c #CD9491",
".B c #320C06",
".V c #291467",
".C c #281466",
".Z c #AE231D",
".A c #8B4643",
".S c #96120C",
".D c #231157",
".F c #221156",
".G c #381C90",
".H c #A8140D",
".J c #131612",
".K c #9E130D",
".L c #4121A6",
".P c #620D0A",
".I c #331981",
".U c #23115A",
".Y c #40433E",
".T c #3B1E96",
".R c #BABBB9",
".E c #301D6A",
".W c #523832",
".Q c #A11913",
".! c #A5140D",
".~ c #C1BCCD",
".^ c #5C0B07",
"./ c #493B75",
".( c #520A07",
".) c #4725B2",
"._ c #8F4946",
".` c #271364",
".' c #B9B1D2",
".] c #B2ACAA",
".[ c #30187A",
".{ c #A298C2",
".} c #211054",
".| c #3F3E39",
"X  c #770E0A",
"X. c #AA150E",
"XX c #760E09",
"Xo c #2A156A",
"XO c #141912",
"X+ c #291569",
"X@ c #7D3734",
"X# c #6C0D09",
"X$ c #4120A5",
"X% c #610C08",
"X& c #570D08",
"X* c #8A120C",
"X= c #7E71A5",
"X- c #89100B",
"X; c #C6C0DB",
"X: c #3A1D94",
"X> c #050B03",
"X, c #040902",
"X< c #040702",
"X1 c #690D09",
"X2 c #341A84",
"X3 c #4A4540",
"X4 c #B84C46",
"X5 c #17132F",
"X6 c #6A5A9B",
"X7 c #2D1773",
"X8 c #DAD8E1",
"X9 c #4522AF",
"X0 c #4422AE",
"Xq c #CF9491",
"Xw c #A3130D",
"Xe c #8D110B",
"Xr c #49100A",
"Xt c #83100B",
"Xy c #4929AC",
"Xu c #4627A9",
"Xi c #5C5F5B",
"Xp c #6F100B",
"Xa c #0F0C20",
"Xs c #D6D7D6",
"Xd c #281467",
"Xf c #411F79",
"Xg c #4C3C7D",
"Xh c #804943",
"Xj c #31197D",
"Xk c #231158",
"Xl c #8A110B",
"Xz c #221157",
"Xx c #675994",
"Xc c #060C03",
"Xv c #A8140E",
"Xb c #A7140D",
"Xn c #6B0E0A",
"Xm c #C0BCCA",
"XM c #331982",
"XN c #5F0D08",
"XB c #871215",
"XV c #92120C",
"XC c #3B1E97",
"XZ c #BABBBA",
"XA c #2D1672",
/* pixels */
"................ y.g 9.r........................................",
"..............Xm & 1X$X9X;......................................",
".............. ' l.n [.6 X..............X=.3 N GX8..............",
".............. P MXM 1 ; ;.'..........Xm.1 F.*X9 X..............",
"...............e.}.VXj | { S.......... @Xd p.T V !.'............",
".............. G &.O.4 3Xx............XAXk RX2X:XC.g............",
"................X5 C.k d...............5.E K.1.[.[.~............",
".............. gXcX< TX<..............X8 O.C.OXz e..............",
".............. 7.,X<., E +.............. 7 UXa.d +..............",
"..............XO T.JXcX,Xi..............Xc.<X, T.Y..............",
"............XZXc E.& LXr.|............XZXc EX>X>.J..............",
"............ }.w s b qXnX@.............x z B kXc E.R............",
"............ d.BXt.$ / u 5 ]...........W s.X.P.8 E }............",
"............ B.jXX Y.c.Z <.i........ 2X  Z f.QXn _.Y............",
".......... gXN j . i..X4.SX%........ (Xl.= A aX*XpX<............",
"..........X3.qXX I.....tXwX% n...... , <.o..XqX. =.B.R..........",
".......... w q.^ >....Xs.!.#.A.... 2 fX# I.....ZXl. Xi..........",
"........XZ q.b.(.........pXV.=.....aXe.^ A.....l.! 5 $..........",
"........ }XlX# ~........Xh.KX% >...@ j.(Xs.....c.H.zX&..........",
".........i.q L i........ ]XvX#._ 2.qXX.&........X4.K =.]........",
"........ ZX .8............ J.S 4.;.j )X3.........NXb.X :........",
"...... (XB.X ~.............W # J.XX  x +..........Xb bX@........",
".. WX6.>X$Xf.M.............x.7X.X-X1 c............ ` ^.=Xs......",
"...0.h.GXu.).m............ gXc 6.W T d.............t.!.X n......",
" t.U 3 p 0Xu.* t............Xc E o.<Xi.............s Q r.A......",
" t.CXkXAX2.G.> t.............f F.*.n.2.............. - | ; XX;..",
"...3  .FX+.h.y.............vXA D.*.9 !.............u 3 { ;.9X0.r",
".. t *X+ 8./ W............ @Xd.I.TXy.L S..........Xg   H.: X.L 9",
".......................... R.F R.I DX: h...........y.+Xo H FX:.{",
"...........................5 v.D m l.%.............{.-.F.`X7.h y",
"............................ %.1.U.0 W...............5.e 8 'Xm..",
"................................ t...................... t......"
};
