/* XPM */
static const char * IconViewDown[] = {
/* width height ncolors chars_per_pixel */
"32 32 150 2",
/* colors */
"   c #000000",
" . c #692222",
" X c #C8A2AA",
" o c #A9A9A9",
" O c #171752",
" + c #732525",
" @ c #AEAEBB",
" # c #B89590",
" $ c #642020",
" % c #24194E",
" & c #894E4E",
" * c #6A1708",
" = c #141448",
" - c #BDBDC6",
" ; c #19195A",
" : c #341B39",
" > c #4A1727",
" , c #141420",
" < c #16164D",
" 1 c #E5D6D6",
" 2 c #D8D8DD",
" 3 c #E2BCBC",
" 4 c #842B2B",
" 5 c #50507F",
" 6 c #4B4B70",
" 7 c #676767",
" 8 c #5F152E",
" 9 c #181855",
" 0 c #2E1843",
" q c #87966F",
" w c #792523",
" e c #6B1808",
" r c #14143D",
" t c #935A50",
" y c #181858",
" u c #542E08",
" i c #15154B",
" p c #DDD8D7",
" a c #E28D8D",
" s c #D3A9A9",
" d c #EB3D3D",
" f c #222251",
" g c #1A1A5D",
" h c #9B465B",
" j c #8B6276",
" k c #3D3D3D",
" l c #4F4F7D",
" z c #651608",
" x c None",
" c c #60162E",
" v c #313131",
" b c #2F1943",
" n c #2D2D2D",
" m c #171753",
" M c #6C6A43",
" N c #141446",
" B c #AEAEBC",
" V c #D6D6D6",
" C c #B79590",
" Z c #2D163A",
" A c #B0B0C1",
" S c #691708",
" D c #111111",
" F c #19195B",
" G c #13132A",
" H c #9D695F",
" J c #141421",
" K c #16164E",
" L c #4E4E7B",
" P c #967D6F",
" I c #010101",
" U c #AEAEAE",
" Y c #6E1809",
" T c #6D1808",
" R c #815943",
" E c #252559",
" W c #131344",
" Q c #9C9C9C",
" ! c #955A50",
" ~ c #E4AEAE",
" ^ c #181856",
" / c #772618",
" ( c #8C8C8C",
" ) c #18182E",
" _ c #1A1A5B",
" ` c #E1AEAE",
" ' c #6F1C10",
" ] c #792727",
" [ c #13131F",
" { c #19193C",
" } c #BEBECA",
" | c #C3C8BB",
".  c #6A6A92",
".. c #804C69",
".X c #9B685F",
".o c #1A1A4A",
".O c #2D173F",
".+ c #4F4F7E",
".@ c #707070",
".# c #641608",
".$ c #965B50",
".% c #301945",
".& c #2F1944",
".* c #171754",
".= c #6B1708",
".- c #141447",
".; c #4C4C74",
".: c #5A5A5A",
".> c #5C1C2E",
"., c #17172C",
".< c #282861",
".1 c #16164C",
".2 c #B0B0C2",
".3 c #191945",
".4 c #681708",
".5 c #7C5843",
".6 c #742517",
".7 c #696990",
".8 c #291F44",
".9 c #BEA39E",
".0 c #191948",
".q c #6F6D43",
".w c #131342",
".e c #4B4B6F",
".r c #2F1843",
".t c #181854",
".y c #2E1842",
".u c #505081",
".i c #754A6A",
".p c #6D1809",
".a c #181815",
".s c #6C1808",
".d c #C5AFAB",
".f c #E4B9B9",
".g c #131345",
".h c #9494A9",
".j c #181857",
".k c #DED8D7",
".l c #15154A",
".z c #4D4D77",
".x c #762618",
".c c #101010",
".v c #1A1A5C",
".b c #C0A49F",
".n c #080808",
".m c #B9B9B9",
".M c #060606",
".N c #8E4F43",
".B c #661608",
".V c #020202",
/* pixels */
" x x x x x x x x x x x.z x x x x x x x x.m k k k k k.m x x x x x",
" x x x x x x x x x x x L x x x x x x x.m n           I D 7 x x x",
" x x x x x x x x x x @.j x x x x x x x o     k k k k D.n.M.@ x x",
" x x x x x x x x x x.h ^ 2 x x x x x x o     x x x x x Q  .V U x",
" x x x x x x x x x x.e 9.2 x x x x x x o     x x x x x x.:   v x",
" x x x x x x x x x x.e.t A x x x x x x o     x x x x x x V     V",
" x x x x x x x x x x 6.*.  x x x x x x o     x x x x x x x n  .:",
" x x x x x x x x x x f m.u x x x x x x o     x x x x x x x (    ",
" x x x x x x x x x x N O.u x x x x x x o     x x x x x x x o    ",
" x x x x x x x x x x r.,.< x x x x x x o     x x x x x x x o    ",
" x x x x x x x x x - [.a.o x x x x x x o     x x x x x x x o    ",
" x x x x x x x x x B ,.a.0 x x x x x x o     x x x x x x x (    ",
" x x x x x x x x x.; J.a.3 A x x x x x o     x x x x x x x n  .:",
" x x x x x x x x x E G ) {.7 x x x x x o     x x x x x x Q     V",
" x x x x x x x x x K.g 9 F 5 x x x x x o     x x x x x V.c   n x",
" x x x x x x x p t K.- 9.v.% C x x x x o     o o o o.:.c  .c V x",
" x x x x x x p.6.= K =.*.v.& Y ! x x x o                .c V x x",
" x x x x x.9.=.=.= K.-.*.v b T Y /.k x x o k k k k k o V x x x x",
" 3 } x x.X.=.=.=.= K.- m _.y.s.s.p.x.b x x X x x x x x x x x x x",
" a.i x t.=.=.=.= *.1 = m ;.y.=.s.s T Y # x h.f x x x x x x x x x",
" ` L t.=.=.= * * * i.- m F.y.=.=.=.s.s.p.$.. x x x x x x x x x x",
" `.O.= * * * * * * i.-.* _ 0 * * * *.=.=.s c x x x x x x x x x x",
" `.O * * S S S S S.- i m ; 0 S S S S S * * 8 x x x x x x x x x x",
" ~ : u u u u u u u W.j.*.l.8 u u u u u u u.> 1 x x x x x x x x x",
" d j x x x x x x x.w y m < 5 x x x x x x x d s x x x x x x x x x",
" x x x x x x x x x =.j.* <.+ x x x x x x x x x x x x x x x x x x",
" x x x x x x x x x.l.g.t.v l x x x x x x x x x x x x x x x x x x",
" x x x x x x x x ! i.g.* g.r.b x x x x x x x x x x x x x x x x x",
" x x x x x x x ! Y Z N %.v >.s.b x x x x x x x x x x x x x x x x",
" x x x x x x ! Y.p ' $ ] 4.B.4 * H x x x x x x x x x x x x x x x",
" x x x x x.N.s.s.s e $ + w.#.# z.B.d x x x x x x x x x x x x x x",
" x x x x x q R.q R.q & . P.5 M.5.5 | x x x x x x x x x x x x x x"
};
