/* XPM */
static const char * IconTransRotateZ[] = {
/* width height ncolors chars_per_pixel */
"32 32 252 2",
/* colors */
"   c #BCBAC9",
" . c #675F9A",
" X c #A56960",
" o c #AC230E",
" O c #D8D7E1",
" + c #631408",
" @ c #8B1C0B",
" # c #1F0D9C",
" $ c #271A86",
" % c #1D0C90",
" & c #9E200D",
" * c #1B0B84",
" = c #1A0B83",
" - c #6B1509",
" ; c #200DA0",
" : c #180A77",
" > c #1E0C94",
" , c #16096B",
" < c #1D0C93",
" 1 c #2E1CA7",
" 2 c #15096A",
" 3 c #26197E",
" 4 c #741C0B",
" 5 c #1B0B87",
" 6 c #200DA3",
" 7 c #180A7A",
" 8 c #901D0C",
" 9 c #100751",
" 0 c #4838B3",
" q c #1F0C98",
" w c #1E0C97",
" e c #16096E",
" r c #A39FC0",
" t c #BEA39F",
" y c #1C0B8B",
" u c #140862",
" i c #130861",
" p c #241875",
" a c #6F1609",
" s c #5446AE",
" d c #BFBCD8",
" f c #1A0A7F",
" g c #190A7E",
" h c #110755",
" j c #1F0C9B",
" k c #170972",
" l c #281986",
" z c #932E1F",
" x c #811A0A",
" c c #B2ADD5",
" v c #4E4494",
" b c #1D0B8F",
" n c #1C0B8E",
" m c #140865",
" M c #233D1A",
" N c #5446B1",
" B c #3B3374",
" V c #E0D8D7",
" C c #AF4737",
" Z c #1A0A82",
" A c #120759",
" S c #180976",
" D c #170975",
" F c #4737AE",
" G c #4F4498",
" H c #92472E",
" J c #150869",
" K c #8F4035",
" L c #751B0B",
" P c #B7A19E",
" I c #13075D",
" U c #9790C4",
" Y c #12075C",
" T c #6B61B0",
" R c #ADABBF",
" E c #BEBBD3",
" W c #413594",
" Q c #100650",
" ! c #3F3488",
" ~ c #531007",
" ^ c #521006",
" / c #751B0E",
" ( c #554F83",
" ) c #665F97",
" _ c #B1ACD0",
" ` c #D8D7DF",
" ' c #AEABC3",
" ] c #BFBBD7",
" [ c #4B4283",
" { c #595094",
" } c #6A60A8",
" | c None",
".  c #BDBACB",
".. c #BCBACA",
".X c #574F88",
".o c #B1ACD3",
".O c #243E1A",
".+ c #645E8E",
".@ c #6E170A",
".# c #A0200D",
".$ c #3C2F14",
".% c #200D9E",
".& c #180A75",
".* c #571107",
".= c #1D0C91",
".- c #150968",
".; c #BC6153",
".: c #1B0B85",
".> c #1A0B84",
"., c #23186F",
".< c #691508",
".1 c #200DA1",
".2 c #180A78",
".3 c #291A8C",
".4 c #541107",
".5 c #531106",
".6 c #1E0C95",
".7 c #16096C",
".8 c #A39FBE",
".9 c #15096B",
".0 c #D5B2AD",
".q c #1C0B89",
".w c #1B0B88",
".e c #2C1B9C",
".r c #13085F",
".t c #241873",
".y c #5346AB",
".u c #5246AA",
".i c #45250F",
".p c #190A7C",
".a c #110753",
".s c #100752",
".d c #211766",
".f c #5B1207",
".g c #1F0C99",
".h c #1E0C98",
".j c #16096F",
".k c #831A0A",
".l c #1C0B8C",
".z c #140863",
".x c #9891CA",
".c c #964F44",
".v c #6E1609",
".b c #4B4385",
".n c #1A0A80",
".m c #9690BE",
".M c #22176A",
".N c #948FB2",
".B c #1F0C9C",
".V c #170973",
".C c #801A0A",
".Z c #4F4496",
".A c #1D0B90",
".S c #150867",
".D c #A9220E",
".F c #A29EB9",
".G c #140866",
".H c #B0ACCA",
".J c #5546B3",
".K c #5446B2",
".L c #3B3375",
".P c #AE4737",
".I c #12075A",
".U c #931E0C",
".Y c #BEBBD1",
".T c #210EA1",
".R c #180977",
".E c #D0BDBB",
".W c #200F96",
".Q c #B4948F",
".! c #15086A",
".~ c #313918",
".^ c #B6A19E",
"./ c #13075E",
".( c #D7D7DC",
".) c #AEABC1",
"._ c #8F4D43",
".` c #585091",
".' c #AF2510",
".] c #928EAC",
".[ c #511006",
".{ c #B1ACD1",
".} c #645E8C",
".| c #AEABC4",
"X  c #8C4D43",
"X. c #8C1C0B",
"XX c #281A86",
"Xo c #1D0C8F",
"XO c #5C51A5",
"X+ c #3B2F14",
"X@ c #2F2090",
"X# c #1A0B82",
"X$ c #B02B17",
"X% c #200D9F",
"X& c #574F8C",
"X* c #902D1F",
"X= c #1E0C93",
"X- c #1D0C92",
"X; c #1B0B86",
"X: c #13085D",
"X> c #2B1B99",
"X, c #190A7A",
"X< c #180A79",
"X1 c #5D1207",
"X2 c #531107",
"X3 c #1E0C96",
"X4 c #16096D",
"X5 c #A39FBF",
"X6 c #1C0B8A",
"X7 c #1B0B89",
"X8 c #130860",
"X9 c #984F44",
"X0 c #68170B",
"Xq c #5346AC",
"Xw c #4B4383",
"Xe c #9690BC",
"Xr c #190A7D",
"Xt c #A6A0CF",
"Xy c #100753",
"Xu c #8B82C5",
"Xi c #1F0C9A",
"Xp c #170971",
"Xa c #938FAF",
"Xs c #160970",
"Xd c #5F54A7",
"Xf c #1D0B8E",
"Xg c #1C0B8D",
"Xh c #140864",
"Xj c #1B401B",
"Xk c #4C4387",
"Xl c #1A0A81",
"Xz c #23176C",
"Xx c #9690BF",
"Xc c #B22C18",
"Xv c #BDBBCE",
"Xb c #170974",
"Xn c #4737AD",
"Xm c #4F4497",
"XM c #150868",
"XN c #5546B4",
"XB c #9D1F0D",
"XV c #12075B",
"XC c #23176F",
"XZ c #10064F",
"XA c #15086B",
"XS c #554F82",
"XD c #D8D7DE",
"XF c #5B519F",
"XG c #D7D7DD",
"XH c #991F0C",
"XJ c #AEABC2",
"XK c #220EA6",
/* pixels */
" | | | | | | | | | | | | | | | | | | | | | | | | | | | | | | | |",
" | | | | | | | | | | | | | | | | | | | | | | | | | | ]Xd | | | |",
" | | | | | | | | | | | | | | | | | | | | | | | | |Xt.g.u | | | |",
" | | | | | | | | | | | | _ TX> q #Xn.J.K d | | | UX3.g.u | | | |",
" | | | | | | | | | `Xx.3XgXgXgXgXf.=X3 #XK 0XtXOXg >.gXq | | | |",
" | | | | | | | |.8XX.w 5 f DXMX8 Y Y.!X<X;.W = ZX7 % w w | | | |",
" | | | | | | |X&Xr.: Z.V.r BXa.)XJXJ.N.M.r J.V.p.:Xg.6 w | | | |",
" | | | | | |.X 7.>.nXsXS   | | | | | |.].I u ,.V g.w <.h | | | |",
" | | | | |.FXs = ZX4.. | | | | | | |.+XyXZ hX8.9.VXl n q | | | |",
" | | | |.(Xz.p.:.2.F | | | | | |.(.` eXh.I.s 9XV.- :X7X3.{ | | |",
" | | | |Xa eX;.: { | | | | | | | | `.H.Z.R ,./ h h.GX,.=.{ | | |",
" | | | |.d 7X7 l | | | | |.E X @XH C.0 | |.Y } !.z AXp.6.o | | |",
" | | |.|X8X#XgXx | | | |.^ -.k.U.#.D o.; | | | | E i.2Xi c | | |",
" | | |XJXh *X- | | | | |.5 a x 8XBX$.' o.0 | | | |XC.&.6.J | | |",
" | | |.N m.q.e | | | |.QX2.< 4.~.O HXc.D.P | | | | )Xh bX% | | |",
" | | | [.7.A s | | | |X .[ +X+XjXj.O &.#XH | | | |XJ.r.l.B | | |",
" | | |.b 2.= N | | | |.c.f ~.iXjXj M 8.UX. | | | |.)X8X6.h | | |",
" | | |XkXM % F | | | |.Q.@.5.*.i.$ L.C.k K | | | | R m y.6 | | |",
" | | | . mXg 6 O | | | VX*X0.5 ^X1.<.v.v t | | | |.}.V y.l | | |",
" | | | ' Y.:.1Xu ] | | | V z /.f.[ ~.4 P | | | |.( Y f n W | | |",
" | | | '.z.wX3.% ; 1 N.o | |.EX9._.Q | | | | | |.+Xs.:.lXe | | |",
" | | |.H AXb.w < jX% ;.1 ;Xn.xXv | | | | | | |.F J g.w $ | | | |",
" | | |XDX:.z.p 5Xo w j.% ;.1.3.( | | | | | |XG pXrX; Z r | | | |",
" | | | |.r.I.jXrX;Xf >.g.BXF.( | | | | | |Xv 3Xl.:.n { | | | | |",
" | | | | e.s.SXb f 5Xg.=X@ | | | | | |.H WX#X; *Xr.` | | | | | |",
" | | | |Xs.a I.7 S f.2 *.T 1XN N s.y nXgX6X; f.V.X | | | | | | |",
" | | | | ! A hXh.j.VXVXA f.w %X=.= nX6.: g k.,.F | | | | | | | |",
" | | | | v Y Q./.M.(.m.t.rX8Xh 2.7X4.S i.L.] | | | | | | | | | |",
" | | | |XmXh Q ( | | | | E.H.|.bXw [.)XG | | | | | | | | | | | |",
" | | | | G.S.+ | | | | | | | | | | | | | | | | | | | | | | | | |",
" | | | |X5.  | | | | | | | | | | | | | | | | | | | | | | | | | |",
" | | | | | | | | | | | | | | | | | | | | | | | | | | | | | | | |"
};
