/* XPM */
static const char * IconGenHierachy[] = {
/* width height ncolors chars_per_pixel */
"32 32 50 1",
/* colors */
"  c #9A6969",
". c #484899",
"X c #722727",
"o c #394141",
"O c #ADADCA",
"+ c #7E7EB3",
"@ c #141D19",
"# c #CACABE",
"$ c #222919",
"% c #A1A1C4",
"& c #0F1263",
"* c #915B5B",
"= c #84845B",
"- c #555519",
"; c None",
": c #B7B7A4",
"> c #691919",
", c #393992",
"< c #BEA4A4",
"1 c #1E1E84",
"2 c #0F1633",
"3 c #271919",
"4 c #1E2727",
"5 c #ADB0B0",
"6 c #8A4F4F",
"7 c #0F144D",
"8 c #9292BD",
"9 c #6363A6",
"0 c #211919",
"q c #4E4F4F",
"w c #DDD8D8",
"e c #D7D7DF",
"r c #8E8E69",
"t c #5F5F27",
"y c #B59696",
"u c #484D63",
"i c #484F4F",
"p c #D7D8D8",
"a c #7B7B4F",
"s c #BCBCD1",
"d c #0F0F7D",
"f c #CEBEBE",
"g c #814141",
"h c #C0C0B0",
"j c #0F1919",
"k c #54549F",
"l c #4D534F",
"z c #DCDCD8",
"x c #ADAD96",
"c c #8384AF",
/* pixels */
";;yX>gf;;;;;;;;;;;;;;;;;;;;;;;;;",
"wX>>>>>*;;;;;;;;;;;;;;;;;;;;;;;;",
" >>>>>>>f;;;;;;;;;;;;;;;;;;;;;;;",
"6>>>>>>> ;;;;;;;;;;;;;;;;;;;;;;;",
"X>>>>>>>6;;;;;;;;;;;;;;;;;;;;;;;",
"6>>>>>>>y;;;;;;;;;;;;;;;;;;;;;;;",
"<X>>>>>gw;;;;zrt-a#;;;;;;;;;;;;;",
";wg>>> ;;;;;zt-----:;;;;;;;;;;;;",
";;;03q;;;;;;a-------;;;;;;;;;;;;",
";;;jj4iiiiil--------x;;;;;;;;;;;",
";;;jjjjjjjj$--------a;;;;;;;;;;;",
";;;jjjjjjjj$--------a;;;;;;;;;;;",
";;;jji;;;;;;--------h;;;;;;;;;;;",
";;;jji;;;;;;:------=;;;;;;;;;;;;",
";;;jji;;;;;;;zt---:;;;;;;;8.9e;;",
";;;jji;;;;;;;;5j@i;;;;;;e1dddd%;",
";;;jji;;;;;;;;5jji;;;;;;1ddddd1e",
";;;jji;;;;;;;;5jjjjjjjj2ddddddd.",
";;;jji;;;;;;;;5jjjjjjjj&ddddddd.",
";;;jji;;;;;;;;5jjjjjjjj&ddddddd.",
";;;jji;;;;;;;;5jji;;;;;sddddddd%",
";;;jji;;;;;;;;5jji;;;;;;%1dddd9;",
";;;jji;;;;;;;;5jji;;;;;;;;8.9e;;",
";;;jji;;;;;;;;5jji;;;;;;;;O+Oe;;",
";;;jji;;;;;;;;5jji;;;;;;e1dddd%;",
";;;jji;;;;;;;;5jji;;;;;;1ddddd1e",
";;;jji;;;;;;;;5jjo55555cddddddd.",
";;;jji;;;;;;;;5jjjjjjjj&ddddddd.",
";;;jji;;;;;;;;p5jjjjjjj7ddddddd.",
";;;jji;;;;;;;;;;iiiiiiiuddddddd%",
";;;jji;;;;;;;;;;;;;;;;;;%dddddk;",
";;;jji;;;;;;;;;;;;;;;;;;;s,d18;;"
};
