/* XPM */
static const char * IconKill[] = {
/* width height ncolors chars_per_pixel */
"32 32 243 2",
/* colors */
"   c #8C1313",
" . c #CCBBBB",
" X c #ADADAD",
" o c #A74B4B",
" O c #711616",
" + c #8E2222",
" @ c #951F1F",
" # c #6B1010",
" $ c #690E0E",
" % c #250D0D",
" & c #A1A1A1",
" * c #761E1E",
" = c #571010",
" - c #999999",
" ; c #380F0F",
" : c #991C1C",
" > c #BBA0A0",
" , c #7B2626",
" < c #892020",
" 1 c #2F1010",
" 2 c #101058",
" 3 c #971A1A",
" 4 c #710F0F",
" 5 c #939393",
" 6 c #DFD7D7",
" 7 c #919191",
" 8 c #19196E",
" 9 c #660E0E",
" 0 c #911414",
" q c #8D8D8D",
" w c #B69191",
" e c #791010",
" r c #941A1A",
" t c #6E0F0F",
" y c #762424",
" u c #491C1C",
" i c #DCD7D7",
" p c #CEBCBC",
" a c #B39191",
" s c #731717",
" d c #711515",
" f c #C0A1A1",
" g c #761010",
" h c #D6BDBD",
" j c #A43D3D",
" k c #891212",
" l c #B09191",
" z c #A76464",
" x c #636363",
" c c #7E1111",
" v c #C6ADAD",
" b c #660D0D",
" n c #992828",
" m c #861212",
" M c #3B1414",
" N c #535353",
" B c #A46464",
" V c #7B1111",
" C c #A14A4A",
" Z c #691313",
" A c #701010",
" S c #CEAEAE",
" D c #DED8D8",
" F c #4B4B4B",
" G c #494949",
" H c #C3ADAD",
" J c #7B1E1E",
" K c #630D0D",
" L c #474747",
" P c #9B2323",
" I c #611818",
" U c #9E4A4A",
" Y c #D5C5C5",
" T c #6D1010",
" R c #CBAEAE",
" E c #393939",
" W c #6B0E0E",
" Q c #373737",
" ! c None",
" ~ c #B46666",
" ^ c #771313",
" / c #BDA0A0",
" ( c #853B3B",
" ) c #730F0F",
" _ c #822121",
" ` c #AF5757",
" ' c #951616",
" ] c #680E0E",
" [ c #931414",
" { c #B59898",
" } c #232323",
" | c #1F1F1F",
".  c #761515",
".. c #E4DDDD",
".X c #A34B4B",
".o c #741313",
".O c #7B1010",
".+ c #E2DBDB",
".@ c #721111",
".# c #700F0F",
".$ c #DED7D7",
".% c #151515",
".& c #5E1111",
".* c #131313",
".= c #111111",
".- c #0F0F0F",
".; c #851313",
".: c #0D0D0D",
".> c #831111",
"., c #BCBCBC",
".< c #D9C8C8",
".1 c #781010",
".2 c #382020",
".3 c #AA6F6F",
".4 c #7B3737",
".5 c #B2B2B2",
".6 c #CDBCBC",
".7 c #8B1212",
".8 c #AEAEAE",
".9 c #9B3C3C",
".0 c #B29191",
".q c #801111",
".w c #907676",
".e c #881212",
".r c #952222",
".t c #7D1111",
".y c #A0A0B7",
".u c #8B3939",
".i c #271212",
".p c #929292",
".a c #C5ADAD",
".s c #BDBDD0",
".d c #721D1D",
".f c #B79292",
".g c #851212",
".h c #3D3B3B",
".j c #CDAEAE",
".k c #6D0E0E",
".l c #7D3838",
".z c #823333",
".x c #620D0D",
".c c #170F0F",
".v c #975858",
".b c #8D1313",
".n c #8D4141",
".m c #9A2323",
".M c #22227D",
".N c #CACAD9",
".B c #821212",
".V c #935454",
".C c #B17878",
".Z c #4B4B8E",
".A c #903A3A",
".S c #BFA0A0",
".D c #CDC8C8",
".F c #971616",
".G c #6A0E0E",
".H c #871A1A",
".J c #771E1E",
".K c #BC9393",
".L c #B36666",
".P c #8A1313",
".I c #666666",
".U c #646464",
".Y c #626262",
".T c #741111",
".R c #B17171",
".E c #720F0F",
".W c #E0D7D7",
".Q c #C7AEAE",
".! c #7F1F1F",
".~ c #941616",
".^ c #670E0E",
"./ c #585858",
".( c #545454",
".) c #6E1818",
"._ c #7A1010",
".` c #872020",
".' c #6F0F0F",
".] c #DDD7D7",
".[ c #4A4A4A",
".{ c #A22A2A",
".} c #4D1515",
".| c #0D0D4D",
"X  c #8A4747",
"X. c #464646",
"XX c #CFBCBC",
"Xo c #6F1C1C",
"XO c #CCA2A2",
"X+ c #844141",
"X@ c #7B1414",
"X# c #821111",
"X$ c #982020",
"X% c #812727",
"X& c #771010",
"X* c #AD7373",
"X= c #956262",
"X- c #8B1D1D",
"X; c #6C0F0F",
"X: c #1A1414",
"X> c #280E0E",
"X, c #383838",
"X< c #343434",
"X1 c #4F1010",
"X2 c #CBA4A4",
"X3 c #8A1212",
"X4 c #6C1C1C",
"X5 c #581C1C",
"X6 c #981919",
"X7 c #D7D7D7",
"X8 c #601010",
"X9 c #741D1D",
"X0 c #871212",
"Xq c #691C1C",
"Xw c #1E1E1E",
"Xe c #1C1C1C",
"Xr c #1A1A1A",
"Xt c #3F3B3B",
"Xy c #181818",
"Xu c #CFAEAE",
"Xi c #974949",
"Xp c #161616",
"Xa c #141414",
"Xs c #640D0D",
"Xd c #121212",
"Xf c #8F1313",
"Xg c #101010",
"Xh c #861414",
"Xj c #8E2929",
"Xk c #0E0E0E",
"Xl c #9C2323",
"Xz c #841212",
"Xx c #955454",
"Xc c #9A2121",
"Xv c #BDBDBD",
"Xb c #301515",
"Xn c #BBBBBB",
"Xm c #701212",
"XM c #2C1111",
"XN c #CCAEAE",
"XB c #6C0E0E",
"XV c #C29797",
"XC c #791E1E",
/* pixels */
" ! ! ! ! ! ! ! ! ! ! ! ! ! ! ! ! ! ! ! ! ! ! ! ! ! ! ! ! ! ! ! !",
" ! ! ! /X4 ,.< ! ! ! ! ! ! ! ! ! ! ! ! ! ! ! ! ! !.$.lXoXV ! ! !",
" ! ! !.` 0.B.n ! ! ! ! ! ! ! ! ! ! ! ! ! ! ! ! ! ! B V.; #.$ ! !",
" ! !.j.e WXf.G ! ! ! ! ! ! ! ! ! ! ! ! ! ! ! ! ! ! < t.O ].a ! !",
" ! !.W   ]Xf.#.f ! ! ! !X7 7 Q.:.:Xk L X ! ! ! ! RX#.x.g $ H ! !",
" ! ! !.7 $ kX0X  ! ! ! LXkXg.=XdXdXd.=Xg.= X ! ! z e.4 k $.6 ! !",
" ! !.$Xz.^X*.~.J ! !X,.=Xg.U.8.8.8.8.I.hXrXa q ! _ )X+.b.GXX ! !",
" ! >.lX&.x !.mX@.3.(XgXw & ! ! ! ! ! ! !.I |Xa.v.1X4 i.mX-X%.K !",
".V ) V ) / !XO.~X5.=Xk., ! ! ! ! ! ! ! ! !.hXa.i t.0 ! h 'Xh A.R",
" m gXi.<.a p ! ~X:Xg Q ! ! ! ! ! ! ! ! ! !.5Xa.-X5 !.6.a.< ~.F.T",
" 0.GX4 9 W $.d.wXdXk.}.C.Y L.D ! !X7X..I {.J.iXd.h.4.G W ].d.1 b",
" PX3 cXz kXf  .&Xd.c.~ MXg.=Xw ! ! G.-Xk.2.1 =Xd %.q.g  Xf m.t.d",
" !XuXN 6 ! ! h uXg %.! u.*.=Xe ! !.IXa.=X> $X8.*Xk.K ! ! !Xu R.$",
" ! ! ! ! ! ! !.[XgXb + O ,.).)X2 >.#.& = W V.1XdXk., ! ! ! ! ! !",
" ! ! ! ! ! ! ! FXgXt P @ T nX$ AXj._.' 4 V J fXdXk X ! ! ! ! ! !",
" ! ! ! ! ! ! !.IXd L.W j 3.  _X6.oX%X@ e.u.$.,Xd.: ! ! ! ! ! ! !",
" ! ! ! ! ! ! !.8.*.- ! !.9.F.HXj 3.H _.n ! !.pXgXe ! ! ! ! ! ! !",
" ! ! ! ! ! ! !X7Xa.- - a.'.qX6Xh J.{.H d.C.+ |.- 7 ! ! ! ! ! ! !",
" ! ! ! ! ! ! ! !.IXyXd Z._.#.#.bXc s.{ r ^.}XgXkXn ! ! ! ! ! ! !",
" ! ! ! ! ! ! ! !X=X:Xr.2 (.E._XC ` : s ` ZXg.- 1 D ! ! ! ! ! ! !",
" i H.a.a.a.0.4 9 e.T.%.-X1X&Xx ! !XO 3. XbXg ;.B ].d.f v.a.a v D",
".J 4.' $.k.#.t c.A.$Xt.=X>.S ! ! ! !XOX@Xd.:.D jXf.B g $.G 4.@ O",
".q.! CX3.9 U z 6 !Xx ;Xg L !.y.| 2 8.NXv.*XkX*...WXV o.9 k C.r )",
" @.z.f.$ ! ! ! ! f eXM.-.Y !.Z 8 2 2.Z !.*.- IX2 ! ! ! ! ! HX9.E",
"XlXhX;.G.n.. !XX._ T.=Xk., !.s.M 8 8.y ! F.= 1Xm Y !.$.lXs t.1 *",
".W.L.r ' V.v !.AX&X1Xd.: ! ! ! ! ! ! ! ! 5Xd.c.e ( ! B.t.q <Xi.$",
" ! ! ! S mXs R c W.wXdXk ! ! ! ! ! ! ! ! 5.=.: [ ).Q C 4 a ! ! !",
" ! ! !.j.g K.A.OXqX7Xa.= - ! ! ! ! ! ! ! E.-X..L.P (.X e w ! ! !",
" ! ! !.jX# y.tXB l !./XpX<.5 ! ! ! ! ! NXgXkXn.W 0 A + eX  ! ! !",
" ! ! !Xu r W gXq ! ! ! }XyXg E x 7X.Xe.-Xg.( ! ! o.B OXBX= ! ! !",
" ! ! !.W.mX0 J.] ! ! !X7.h.%.=Xg.-Xg.=Xg & ! ! !.W.m.>X9 . ! ! !",
" ! ! ! ! !.j ! ! ! ! ! ! !Xv F F.[.[ 5X7 ! ! ! ! ! !.j ! ! ! ! !"
};
