/* XPM */
static const char * IconDataSaveMatrix[] = {
/* width height ncolors chars_per_pixel */
"32 32 137 2",
/* colors */
"   c #FDEC00",
" . c #CDCDA8",
" X c #D1C1C3",
" o c #06092A",
" O c #9F9F9F",
" + c #4D4A09",
" @ c #888985",
" # c #090C3A",
" $ c #363845",
" % c #3F3505",
" & c #BFAFB1",
" * c Gray56",
" = c #7C6202",
" - c #CBBFC0",
" ; c #C9BDBE",
" : c #090C3D",
" > c #1D1D0B",
" , c #191707",
" < c #F7C600",
" 1 c #FEE700",
" 2 c #FEDD00",
" 3 c #080B35",
" 4 c #717171",
" 5 c #806502",
" 6 c #382D04",
" 7 c #F4C000",
" 8 c #9E9F93",
" 9 c #CFA400",
" 0 c #090B39",
" q c #494B5A",
" w c #080B38",
" e c #484B59",
" r c #BDBDA4",
" t c #794D51",
" y c #302809",
" u c #383A53",
" i c #82595D",
" p c Yellow", 
" a c #494B5D",
" s c #5C5E69",
" d c Gray31",
" f c #8C6D00",
" g c #ECECBE",
" h c #FFF600",
" j c #BCBC9C",
" k c #BBBC9B",
" l c #434343",
" z c #0A0D40",
" x c #EEBC00",
" c c #9D9E8E",
" v c #FFDC00",
" b c #080A34",
" n c #484A55",
" m c #3C3A32",
" M c #7F5349",
" N c #C09701",
" B c #5E262C",
" V c None",
" C c #CDCDA9",
" Z c #744448",
" A c #351014",
" S c #322628",
" D c #383806",
" F c #06092B",
" G c #DDD1D3",
" H c #181A36",
" J c #090C3B",
" K c #1B1B1B",
" L c #9E9E03",
" P c #383B55",
" I c #3A1115",
" U c #090C3E",
" Y c #E1DDDD",
" T c #3D3907",
" R c #ABAC94",
" E c #3D3B32",
" W c #BCBD9E",
" Q c #9D9F90",
" ! c #080B36",
" ~ c #ABAC97",
" ^ c #BCBDA1",
" / c #4D4D09",
" ( c #9A7A02",
" ) c #CDCEAB",
" _ c #4B4B07",
" ` c #080B39",
" ' c #ECECBC",
" ] c #868779",
" [ c #D5A700",
" { c #EEEE01",
" } c #373949",
" | c #AFA0A1",
".  c #BCBC9D",
".. c #0A0D41",
".X c #FEDC00",
".o c #080A35",
".O c #5B5D62",
".+ c #3A3C5C",
".@ c #544705",
".# c #805458",
".$ c #9C9D87",
".% c #07092D",
".& c #21130B",
".* c #4B3E09",
".= c #7C7C04",
".- c #505050",
".; c #373848",
".: c White",
".> c #E7B600",
"., c Yellow",
".< c #FFFB00",
".1 c #FFF700",
".2 c #FFF100",
".3 c #464646",
".4 c #444444",
".5 c #080B34",
".6 c Gray93",
".7 c #F7F7CF",
".8 c #BCBD9F",
".9 c #474715",
".0 c #080B37",
".q c #191C41",
".w c #4D151B",
".e c #D7D7D7",
".r c #BCBDA2",
".t c #CDCEAC",
".y c #4B4B08",
".u c #9D9E8A",
".i c #ECECBD",
".p c #FDFDC7",
".a c #3E3205",
".s c #1A1606",
".d c #947400",
".f c #2E2609",
".g c Gray3",
".h c #080A33",
".j c #52161C",
/* pixels */
" V V V V V V V V V V V V V V V V V V V V V V V V V V V V V V V V",
" V V V V V V V V V V V V V V V V V V V V V V V V V V V V V V V V",
" V V V V V V V V V V V V V V V V V V V V V V V V V V V V V V V V",
" V V V V V V V V V V V V V V V V V V V V V V V V V V V V V V V V",
" V V V V V V V V V ; t t t t.7.7.7.7.7.7.7.7.7.7.7.7.7.7 t t t t",
" V V V V V V V V V &.j.j.j.j.p.p.t q C.p.p.p.p.t e ..p.p.j.j.j.j",
" V V V.3 ,.e V V V &.j.j.j.j.p.p r.o.u.p.p.p.p Q 3 j.p.p.j.j.j.j",
" V V V.3 D d V V V &.j.j.j.j.p.p.r z.;.p.p.p.p P.0 k.p.p.j.j.j.j",
" V V V.3.g L O V V &.j.j.j.j.p.p.r.. o.p.p.p.p 0.5 j.p.p.j.j.j.j",
" V V V.3.g.,.9.e V &.j.j.j.j.p.p.r : ! W.p.p ^ 0 !. .p.p.j.j.j.j",
" V V V.3.g., {.- V &.j.j.j.j.p.p.r ` : n.p.p a.h `. .p.p.j.j.j.j",
" V V V.3.g.,., L O &.j.j.j.j.p.p.r 3 J H.p.p.q F 3. .p.p.j.j.j.j",
".g.y _ >.g.,.,.,.9 |.j.j.j.j.p.p.r ! s b C ) 3.O !. .p.p.j.j.j.j",
".=.,., /.g.,.,., p S.j.j.j.j.p.p.r w R #.u c.% ~ w. .p.p.j.j.j.j",
".g.,., /.g.,.,.,., L I.j.j.j.p.p.r.5. .+ } u $.r.5. .p.p.j.j.j.j",
".g h h +.g.,.,.,.,., T.w.j.j.p.p.r.o.  8.% !.$.r.o. .p.p.j.j.j.j",
".g < <.*.g.,.,.,.,  .@.w.j.j.p.p.r !.  g U.% '.r !. .p.p.j.j.j.j",
".g.d.d y.g.,.,.< 1 ( A.j.j.j.p.p.i.8 '.p @ ].p.i.8 '.p.p.j.j.j.j",
".s f f.f.g.,.1 2 9.&.j.j.j.j M M M M M M M M M M M M M M.j.j.j.j",
".3.3.4 K.g.2.X.>.a |.j.j.j.j.j.j.j.j.j.j.j.j.j.j.j.j.j.j.j.j.j.j",
" V V V.3.g v x 5 * &.j.j.j.j B.#.#.#.#.#.#.#.#.#.# Z.j.j.j.j.j.j",
" V V V.3.g 7 N m V &.j.j.j.j.#.:.:.:.:.:.:.:.:.:.: X.j.j.j.j.j.j",
" V V V.3.g [ 6.e V &.j.j.j.j.#.:.#.j.j.:.:.:.:.:.: X.j.j.j.j.j.j",
" V V V.3.g = * V V &.j.j.j.j.#.:.#.j.j.:.:.:.:.:.: X.j.j.j.j.j.j",
" V V V.3 % E V V V V i.j.j.j.#.:.#.j.j.:.:.:.:.:.: X.j.j.j.j.j.j",
" V V V 4 l.e V V V V V i.j.j.#.:.#.j.j.:.:.:.:.:.: X.j.j.j.j.j.j",
" V V V V V V V V V V V V i.j.#.: G X X.:.:.:.:.:.: X.j.j.j.j.j.j",
" V V V V V V V V V V V V V & -.6.6.6.6.6.6.6.6.6.6 Y & & & & & &",
" V V V V V V V V V V V V V V V V V V V V V V V V V V V V V V V V",
" V V V V V V V V V V V V V V V V V V V V V V V V V V V V V V V V",
" V V V V V V V V V V V V V V V V V V V V V V V V V V V V V V V V",
" V V V V V V V V V V V V V V V V V V V V V V V V V V V V V V V V"
};
