/* XPM */
static const char * IconPanelConfiguration[] = {
/* width height ncolors chars_per_pixel */
"32 32 185 2",
/* colors */
"   c #442F2F",
" . c #402B2B",
" X c #ABABAB",
" o c #543838",
" O c #A9A9A9",
" + c #6A4747",
" @ c #725C5C",
" # c #805656",
" $ c #5D4444",
" % c #D7D6D6",
" & c #AD7878",
" * c #513838",
" = c #674747",
" - c #0B0707",
" ; c #372525",
" : c #A97474",
" > c #3B3636",
" , c #8F8F8F",
" < c #464444",
" 1 c #BFBEBE",
" 2 c #6E5E5E",
" 3 c #BBBABA",
" 4 c #362727",
" 5 c #463030",
" 6 c #181010",
" 7 c #2E1F1F",
" 8 c #442E2E",
" 9 c #422C2C",
" 0 c #231E1E",
" q c #392D2D",
" w c #ABAAAA",
" e c #6C4848",
" r c #BFB7B7",
" t c #3F2C2C",
" y c #545151",
" u c #533939",
" i c #251919",
" p c #694848",
" a c #3B2828",
" s c #AD7777",
" d c #524F4F",
" f c #231717",
" g c #392626",
" h c #4F3535",
" j c #3F3939",
" k c #4D3333",
" l c #919090",
" z c #5B5B5B",
" x c #8F8E8E",
" c c #584141",
" v c #464343",
" b c #5C5252",
" n c #342424",
" m c #1C1313",
" M c #BC8282",
" N c #322222",
" B c #5F5858",
" V c #302020",
" C c #442D2D",
" Z c #5A3C3C",
" A c #704B4B",
" S c #231D1D",
" D c #686464",
" F c #ADABAB",
" G c #6E4949",
" H c #372A2A",
" J c #2A2727",
" K c None",
" L c #130D0D",
" P c #221F1F",
" I c #573C3C",
" U c #9B6B6B",
" Y c #6D4B4B",
" T c #553A3A",
" R c #533838",
" E c #3B2727",
" W c #513636",
" Q c #1A1717",
" ! c #959393",
" ~ c #654343",
" ^ c #745555",
" / c #918F8F",
" ( c #D6D6D6",
" ) c #402F2F",
" _ c #644545",
" ` c #1E1414",
" ' c #817F7F",
" ] c #BC8181",
" [ c #5C3D3D",
" { c #724C4C",
" } c #392B2B",
" | c #BABABA",
".  c #453030",
".. c #171010",
".X c #CD8E8E",
".o c #2B1D1D",
".O c #9D6C6C",
".+ c #412C2C",
".@ c #494141",
".# c #553939",
".$ c #2F2E2E",
".% c #533737",
".& c #624949",
".* c #615F5F",
".= c #9C9C9C",
".- c #8A7070",
".; c #0E0A0A",
".: c #684848",
".> c #7E5757",
"., c #382626",
".< c #4E3535",
".1 c #EEA4A4",
".2 c #4A3131",
".3 c #604040",
".4 c #131212",
".5 c #292121",
".6 c #8C8C8C",
".7 c #434141",
".8 c #BCBBBB",
".9 c #5C4949",
".0 c #050404",
".q c #191111",
".w c #8B6060",
".e c #2F2020",
".r c #432D2D",
".t c #412B2B",
".y c #494040",
".u c #573A3A",
".i c #ACABAB",
".p c #6D4949",
".a c #3F2929",
".s c #6B4747",
".d c #555252",
".f c #261A1A",
".g c #986969",
".h c #DC9898",
".j c #AE7878",
".k c #695F5F",
".l c #3A2727",
".z c #382525",
".x c #4E3434",
".c c #644343",
".v c #4C3232",
".b c #433333",
".n c #5A5A5A",
".m c #454242",
".M c #4B3434",
".N c #4A4A4A",
".B c #1B1212",
".V c #BB8181",
".C c #FFB0B0",
".Z c #312121",
".A c #D19090",
".S c #452E2E",
".D c #C6BDBD",
".F c #875B5B",
".G c #593B3B",
".H c #6F4A4A",
".J c #DEDBDB",
".K c #1A1414",
".L c #A09E9E",
".P c #140E0E",
".I c #845B5B",
".U c #575353",
".Y c #543939",
".T c #3C2828",
".R c #523737",
".E c #D7D7D7",
".W c #151212",
".Q c #5F5454",
".! c #211717",
".~ c #654646",
".^ c #EDA4A4",
"./ c #070404",
".( c #1D1313",
".) c #332222",
"._ c #493131",
".` c #5F4040",
".' c #312020",
".] c #5D3E3E",
".[ c #5B3C3C",
".{ c #3E3D3D",
".} c #B9B9B9",
".| c #181111",
"X  c #2E2020",
/* pixels */
" K K K K K K K K K K K K K K K K K K K K K K K K K K K K K K K K",
" ( z.Q.4.{.} K K K K K K K K K K K K K K K K K K K K K K K K K K",
".4.h.C.C.C.~.6 K K K K K K K K K K K K K K K K K K K K K K K K K",
" c.I.C.C.C.C.^.& ( K K K K K K K K K K K K K K K K K K K K K K K",
" 2X  u.^.C.C.C.C ^.6 K K K K K K K K K K K K K K K K K K K K K K",
" r.x.q u.C.C.C.C.C s.b.} K K K K K K K K K K K K K K K K K K K K",
" r.%.<X  u.C.C.C.C.C.C s j.} K K K K K K K K K K K K K K K K K K",
" 3 E.%.< 6 L.^.C.C.C.C.C.1 n.n ( K K K K K K K K K K K K K K K K",
" K.L.Z R.< 7  .^.C.C.C.C.C.C.O S ( K K K K K K K K K K K K K K K",
" K K d.e R.<.e i.^.C.C.C.C.C.C.C = S.6 ( K K K K K K K K K K K K",
" K K K / 8 R R.o.P.C.C.C.C.C.C.C.C.C.1 ].    U  .$ O K K K K K K",
" K K K K.* a R o.! _.C.C.C.C.C.C.C.C.C.C.C.C.C.C.C.X.~.N ( K K K",
" K K K K K.U.r o o., &.C.C.C.C.C.C.C.C.C.C.C.C.C.C.C.C.X.b ( K K",
" K K K K K K.k h o m 5.C.C.C.C.C.C.X ] ] ] ] ] ].C.C.C.C.C U.6 K",
" K K K K K K K B.S ;.0.C.C.C.C.C.1.Y q P.5 ) H.K n.V.C.C.C.C.j.=",
" K K K K K K K K.y ....C.C.C.C.C.g.` { { { { { A k.( _.C.C.C.C @",
" K K K K K K K K.E./.:.C.C.C.C.C.f G { { { { {.H e.c.' u.X.C.C.O",
" K K K K K K K K | 6.C.C.C.C.C.j f.F { { { { {.p.s.s.s k.| _.w  ",
" K K K K K K K K x p.C.C.C.C.C.> Z # [ o.# [ + ~.s.s.s.s.c `.W D",
" K K K K K K K K <.M.C.C.C.C.C.C T 0 y.d ! F l Q.u.s.s.s.s.s.s K",
" K K K K K K K K.7 :.C.C.C.C.C.C.C s.= K K K K K.*.S.s.s.s.s.- K",
" K K K K K K K K 3 Y s.C.C.C.C.C.C.C s z K K K K K.L }.s.s + b K",
" K K K K K K K K K V * _.^.C.C.C.C.C.C.A , K K K K K.E } W.v w K",
" K K K K K K K K |.a.).P - _.V.V M M I N > K K K K K K K 1.* K K",
" K K K K K K K K w t.T.l.z.B.; J.9.o 4.2.D K K K K K K K K K K K",
" K K K K K K K K X V a.l.t 9._ h.R.u.[.3.J K K K K K K K K K K K",
" K K K K K K K K K Q V.l.+ 9._.x.%.u [.c K K K K K K K K K K K K",
" K K K K K K K K K.E v.B.T C._.x.%.G [.] % K K K K K K K K K K K",
" K K K K K K K K K K K.E.* 7 g.l.r $.@.m K K K K K K K K K K K K",
" K K K K K K K K K K K K K K.8 ' F.i K K K K K K K K K K K K K K",
" K K K K K K K K K K K K K K K K K K K K K K K K K K K K K K K K",
" K K K K K K K K K K K K K K K K K K K K K K K K K K K K K K K K"
};
