/* XPM */
static const char * IconDataQuickSave[] = {
/* width height ncolors chars_per_pixel */
"32 32 187 2",
/* colors */
"   c Gray68",
" . c #4A4D63",
" X c #1F3028",
" o c #D1C1C3",
" O c #3DDCAB",
" + c #56575E",
" @ c #9F9F9F",
" # c #676868",
" $ c #20745A",
" % c #D7CBCC",
" & c #F1F1C1",
" * c #696B77",
" = c #07092E",
" - c #1A4A3D",
" ; c #36181A",
" : c #1B1D48",
" > c #53FFEB",
" , c #2D3053",
" < c #1C4A42",
" 1 c #484953",
" 2 c #1B4A41",
" 3 c #818181",
" 4 c #4A4C62",
" 5 c #9D9F8F",
" 6 c #8F908B",
" 7 c #184537",
" 8 c #171933",
" 9 c #35C095",
" 0 c #2EA781",
" q c #4AFFD1",
" w c #9E9F93",
" e c #817370",
" r c #AFB09D",
" t c #090B39",
" y c #5F5F5F",
" u c #3A3148",
" i c #303D3E",
" p c #133228",
" a c #BCBDA3",
" s c #794D51",
" d c #102E25",
" f c #7B7C77",
" g c #37191A",
" h c #40BFB0",
" j c #40E7B3",
" k c #ECECBE",
" l c #57EEEE",
" z c #F8F8F8",
" x c #BCBC9C",
" c c #5BFFFF",
" v c #BBBC9B",
" b c #5AFFFE",
" n c #3A1216",
" m c #195341",
" M c #161845",
" N c #7F5349",
" B c #4EFFDE",
" V c #5C242A",
" C c None",
" Z c #42F1BB",
" A c #CDCDA9",
" S c #63656C",
" D c #2DA47F",
" F c #1E2146",
" G c #409F9F",
" H c #73433D",
" J c #44F7C0",
" K c #19483A",
" L c #8D8F8B",
" P c #EFEFC0",
" I c #BFC0A8",
" U c #ADAE93",
" Y c #1B4A3F",
" T c #2A9775",
" R c #181A39",
" E c #4A4C60",
" W c #35B890",
" Q c #56857C",
" ! c #153B2F",
" ~ c #54FFED",
" ^ c #14392E",
" / c #919795",
" ( c #42ECBA",
" ) c #34BC92",
" _ c #4A4C63",
" ` c #ACACAC",
" ' c #204A4A",
" ] c #1E6D55",
" [ c #1D4A47",
" { c #ABAC97",
" } c #191C40",
" | c #43665F",
".  c #BCBDA1",
".. c #3DDDAB",
".X c #9E9F94",
".o c #57FFF6",
".O c #F0F0C0",
".+ c #494B5B",
".@ c #20352C",
".# c #EEEEBE",
".$ c #ACAC9B",
".% c #ECECBC",
".& c #D0C09A",
".* c #1D624D",
".= c #696B6D",
".- c #5DFFFF",
".; c #7B7C78",
".: c #3A3C56",
".> c #59FFFB",
"., c #B6B79E",
".< c #494B5E",
".1 c #384440",
".2 c #8C676B",
".3 c #AEAF96",
".4 c #55EEED",
".5 c #181B3B",
".6 c #4FFFDD",
".7 c #BCBC9D",
".8 c #BBBC9C",
".9 c #3A3C59",
".0 c #286968",
".q c #10123D",
".w c #163E32",
".e c #0F251E",
".r c #37394C",
".t c #369F93",
".y c #4FFFE0",
".u c #676867",
".i c #4A4D65",
".p c #409FA0",
".a c #805458",
".s c #48ADAB",
".d c #07092D",
".f c #BDBEA4",
".g c #2B9574",
".h c #237A5F",
".j c #393B54",
".k c #485552",
".l c #53FFEA",
".z c #46FBC6",
".x c White",
".c c #AEAE95",
".v c #194E3E",
".b c #6A3E42",
".n c #181A3A",
".m c #AF9496",
".M c #4A4C61",
".N c #3A1116",
".B c #48FFCB",
".V c #32B68E",
".C c #1D4A45",
".Z c #3DBFA6",
".A c #49FFCF",
".S c #57FFF4",
".D c #1A5845",
".F c #1F4A4A",
".G c #1E4A49",
".H c #AEB09B",
".J c #1B1E43",
".K c #264A3D",
".L c #ABAC98",
".P c #44F6C0",
".I c #4D151B",
".U c #37C699",
".Y c #575860",
".T c #BCBDA2",
".R c #19493A",
".E c #56585F",
".W c #CDCEAC",
".Q c #4BFFD4",
".! c #58FFF8",
".~ c #353759",
".^ c #494B5C",
"./ c #ECECBD",
".( c #1E664F",
".) c #FDFDC7",
"._ c #4DFFD9",
".` c #5CFFFF",
".' c #5BFFFE",
".] c #494B5F",
".[ c #BBBBBB",
".{ c #46475C",
".} c #AEAF97",
".| c #52161C",
"X  c #DCD8D8",
"X. c #181B3C",
"XX c #BCBC9E",
/* pixels */
" C C C C C C C C C C C C C C C C C C C C C C C C C C C C C C C C",
" C C C C C C C C C C C C C C C C C C C C C C C C C C C C C C C C",
" C C C C C C C C C C C C C C C C C C C C C C C C C C C C C C C C",
" C C C C C C s.|.|.|.| N.).).).).).).).).).).).).).).) N.|.|.|.|",
" C C C C C C s.|.|.|.| N.).).).7XX A.).).).).).).).).) N.|.|.|.|",
" C C C C C C s.|.|.|.| N.).).u.+ 4.: 6.).T.7.).).).).) N.|.|.|.|",
" C C C `.1 C s.|.|.|.| N.).}.E.).) k F.,.T x.).).).).) N.|.|.|.|",
" C C C `.0 @ s.|.|.|.| N./ R.).).).).f.j.T v.).).).).) N.|.|.|.|",
" C C C `.F.s.b.|.|.|.| N.  1.).).).).) t.T v.).).).).) N.|.|.|.|",
" C C C `.F.` i.|.|.|.| N 5.u.).).).).) :.L x.).).%.r.) N.|.|.|.|",
" C C C ` '.-.4 n.|.|.| N.M.8.).).).).) 4 fXX.).).5.c.) N.|.|.|.|",
" C C C `.F.-.- G.I.|.| N .XX.).).).).).].;. .).Y #.).) N.|.|.|.|",
".k Q Q |.F c.`.- i.|.| N _.7.).).).).).<.;.T.3 +.).).) N.|.|.|.|",
".t > > h.G.> b.` l.N.| N.i. .).).).).).^ f.L =.{.).).) N.|.|.|.|",
" 2 B B.Z [.S.o.!.'.p.I N w.=.).).) &.) R {X..%.9.$.).) N.|.|.|.|",
" K.P.P W.C >.l > ~.S i N.) ,.O.) * S.3 8.T a.) k M P.) N.|.|.|.|",
" !.U.U.g <.y.6._ q (.K N.).H.~.#.).J.d U.T a.).).X E.) N.|.|.|.|",
".e $ $.D Y.Q.A.z j.h.I N.).) r } =.n.q I.W A.).).) L P N.|.|.|.|",
" d ] ] m -.B J.. D g.| H.&.&.&.&.&.& e u.&.&.&.&.&.&.& H.|.|.|.|",
" `   ` 3.R Z O.V.@.|.|.|.|.|.|.|.|.|.|.|.|.|.|.|.|.|.|.|.|.|.|.|",
" C C C ` 7 O ).(.I.|.|.|.|.|.|.|.|.|.|.|.|.|.|.|.|.|.|.|.|.|.|.|",
" C C C `.w 9 T ;.|.|.|.| o o o o o o o o o o o o.m.|.|.|.|.|.|.|",
" C C C ` ^ 0 X.|.|.|.|.|.x.x.x.x.x.x.x.x.x.x.x.x o.|.|.|.|.|.|.|",
" C C C ` p.*.b.|.|.|.|.|.x.x.|.|.|.x.x.x.x.x.x.x o.|.|.|.|.|.|.|",
" C C C `.v / s.|.|.|.|.|.x.x.|.|.|.x.x.x.x.x.x.x o.|.|.|.|.|.|.|",
" C C C.[ y CX  V.|.|.|.|.x.x.|.|.|.x.x.x.x.x.x.x o.|.|.|.|.|.|.|",
" C C C C C C CX  V.|.|.|.x.x.|.|.|.x.x.x.x.x.x.x o.|.|.|.|.|.|.|",
" C C C C C C C CX  V.|.|.x.x.a.a.a.x.x.x.x.x.x.x o.|.|.|.|.|.|.|",
" C C C C C C C C CX .2 s z z z z z z z z z z z z % s s s s s s s",
" C C C C C C C C C C C C C C C C C C C C C C C C C C C C C C C C",
" C C C C C C C C C C C C C C C C C C C C C C C C C C C C C C C C",
" C C C C C C C C C C C C C C C C C C C C C C C C C C C C C C C C"
};
