/* XPM */
static const char * IconTransTranslateXY[] = {
/* width height ncolors chars_per_pixel */
"32 32 239 2",
/* colors */
"   c #6153BC",
" . c #574F87",
" X c #564F86",
" o c #AC230E",
" O c #D8D7E1",
" + c #631408",
" @ c #8B1C0B",
" # c #301DB0",
" $ c #281A87",
" % c #574F8A",
" & c #170B69",
" * c #80190A",
" = c #1D0C90",
" - c #9E200D",
" ; c #230EAD",
" : c #6B1509",
" > c #200DA0",
" , c #1E0C94",
" < c #2E0C51",
" 1 c #6E1844",
" 2 c #1C0B88",
" 3 c #1B0B87",
" 4 c #13085E",
" 5 c #241872",
" 6 c #3F30A7",
" 7 c #671508",
" 8 c #210DA4",
" 9 c #190A7B",
" 0 c #291A8E",
" q c #901D0C",
" w c #100751",
" e c #5C1207",
" r c #6D1725",
" t c #A39FC0",
" y c #BEA39F",
" u c #140862",
" i c #130861",
" p c #6F1609",
" a c #971E0C",
" s c #210DA7",
" d c #110755",
" f c #6154BE",
" g c #170972",
" h c #932E1F",
" j c #938FB0",
" k c #811A0A",
" l c #CBCAD3",
" z c #1C0B8E",
" x c #140865",
" c c #362B83",
" v c #7A1A2E",
" b c #E0D8D7",
" n c #1A0A82",
" m c #120759",
" M c #5244AF",
" N c #A7A0D4",
" B c #941E0C",
" V c #A7A1CA",
" C c #180976",
" Z c #4F4498",
" A c #483AA5",
" S c #A29EBB",
" D c #655F93",
" F c #23167A",
" G c #3C3378",
" H c #B7A19E",
" J c #13075D",
" K c #12075C",
" L c #BFBBD4",
" P c #100650",
" I c #585090",
" U c #531007",
" Y c #521006",
" T c #751B0E",
" R c #4D438F",
" E c None",
" W c #1F0D9A",
" Q c #301DAE",
" ! c #493AAC",
" ~ c #7F1B32",
" ^ c #D8D7E2",
" / c #6E170A",
" ( c #A0200D",
" ) c #220EAA",
" _ c #948CC7",
" ` c #180A75",
" ' c #301DB1",
" ] c #8A1C0B",
" [ c #571107",
" { c #1D0C91",
" } c #BC6153",
" | c #230EAE",
".  c #1B0B85",
".. c #9791C3",
".X c #220EAD",
".o c #691508",
".O c #200DA1",
".+ c #291A8C",
".@ c #541107",
".# c #531106",
".$ c #1E0C95",
".% c #A39FBE",
".& c #15096B",
".* c #7C190A",
".= c #D5B2AD",
".- c #1C0B89",
".; c #140860",
".: c #13085F",
".> c #9791C6",
"., c #190A7C",
".< c #110753",
".1 c #100752",
".2 c #211766",
".3 c #5B1207",
".4 c #51459F",
".5 c #1E0C98",
".6 c #16096F",
".7 c #5C396B",
".8 c #831A0A",
".9 c #5647BB",
".0 c #1C0B8C",
".q c #6E1609",
".w c #C0BCDA",
".e c #4C4386",
".r c #BFBCD9",
".t c #220DA9",
".y c #210DA8",
".u c #A7A0D2",
".i c #110756",
".p c #22176A",
".a c #961E0C",
".s c #801A0A",
".d c #160A68",
".f c #A9220E",
".g c #9991CE",
".h c #A19EB8",
".j c #5446B2",
".k c #7A1A2F",
".l c #6E232D",
".z c #1B0A84",
".x c #1A0A83",
".c c #12075A",
".v c #931E0C",
".b c #601308",
".n c #4E40AC",
".m c #261692",
".M c #180977",
".N c #0F064D",
".B c #50449A",
".V c #382A93",
".C c #15086A",
".Z c #2E0D51",
".A c #63477B",
".S c #721709",
".D c #B6A19E",
".F c #13075E",
".G c #12075D",
".H c #D8D7DD",
".J c #D7D7DC",
".K c #100651",
".L c #6153BB",
".P c #CDBDBB",
".I c #493AAA",
".U c #AF2510",
".Y c #521007",
".T c #511006",
".R c #564F85",
".E c #DAD9E2",
".W c #D8D7E0",
".Q c #641408",
".! c #31267B",
".~ c #8C1C0B",
".^ c #1A0D6B",
"./ c #564F88",
".( c #230EAC",
".) c #220EAB",
"._ c #B02B17",
".` c #200D9F",
".' c #1A0D6E",
".] c #6357AF",
".[ c #902D1F",
".{ c #746AB9",
".} c #1D0C92",
".| c #1B0B86",
"X  c #BF3F2C",
"X. c #2F0E68",
"XX c #210DA3",
"Xo c #200DA2",
"XO c #A5A0CB",
"X+ c #6E1725",
"X@ c #531107",
"X# c #7B190A",
"X$ c #1C0B8A",
"X% c #140861",
"X& c #130860",
"X* c #701609",
"X= c #68170B",
"X- c #210DA6",
"X; c #190A7D",
"X: c #110754",
"X> c #221768",
"X, c #211767",
"X< c #50459F",
"X1 c #1E0C99",
"X2 c #2F1CAD",
"X3 c #831A0B",
"X4 c #6156A9",
"X5 c #5747BD",
"X6 c #5647BC",
"X7 c #1C0B8D",
"X8 c #140864",
"X9 c #A19EB6",
"X0 c #4C4387",
"Xq c #2C1C96",
"Xw c #120758",
"Xe c #110757",
"Xr c #B22C18",
"Xt c #200C9E",
"Xy c #7C3E49",
"Xu c #150868",
"Xi c #A29EBA",
"Xp c #211477",
"Xa c #300E72",
"Xs c #9D1F0D",
"Xd c #12075B",
"Xf c #41349D",
"Xg c #2D2086",
"Xh c #5F1308",
"Xj c #0F064E",
"Xk c #201662",
"Xl c #6256B0",
"Xz c #564F83",
"Xx c #4D438E",
"Xc c #D7D7DD",
"Xv c #40329F",
"Xb c #BFBBD6",
"Xn c #2F0D6A",
"Xm c #3B2BA4",
"XM c #100652",
/* pixels */
" E E E E E E E E E E E E E E E.W.g E E E E E E E E E E E E E E E",
" E E E E E E E E E E E E E EXc $ ).u E E E E E E E E E E E E E E",
" E E E E E E E E E E E E E E 5.0 s ;.r E E E E E E E E E E E E E",
" E E E E E E E E E E E E E I., = 8.X # ^ E E E E E E E E E E E E",
" E E E E E E E E E E E E X.6. .}XX ) |X2 O E E E E E E E E E E E",
" E E E E E E E E E E E.hXuX;X$.$.O.t.X |   E E E E E E E E E E E",
" E E E E E E E E E EX9X& `.x.0.$.O s.) | ;.L E E E E E E E E E E",
" E E E E E E E E E l.eXx ZX< 0.|.$Xt.jX6X5.9 _ E E E E E E E E E",
" E E E E E E E E E E E E E EXx.&X7.5 E E E E E E E E E E E E E E",
" E E E E E E E S E E E E E EXx.&.0.5 E E E E E E _ E E E E E E E",
" E E E E E E.h 4 E E E E E EXx.&.0.5 E E E E E EX6.L E E E E E E",
" E E E E E j.:X8 E E E E E.PXy r v ~.= E E E E EX5 ; f O E E E E",
" E E E E./X& i u E E E E.D :.8.v (.f o } E E E EX6 ; | Q ^ E E E",
" E E.J % iX&.: x E E E E.# p k qXs._.U o.= E E E.j ).) ; '.w E E",
" EXcX>X& 4 K.c.:.5.5.5XaX@.o.* @.aX Xr.f 1.5.5.5XtX- s.y ).( N E",
" L.2XdXe.iX:.< m z z zXn.T.bX* k.~ a - (.k z z z W.`.` >.`Xo 8.>",
".H cXe.K PXj.N.K.&.&.& <.3 U.Q.S * ] q BX+.&.&.& 3.$ , { z.- C.%",
" E.EXf.^.GXw dX:XxXxXx.7 /.# [ +X*X#.sX3.lXxXxXx.+X7X$.z 9XuX9 E",
" E E E.{.V &X&X& E E E b.[X=.# YXh 7.q.q y E E E.4 n., g.2.J E E",
" E E E E.].I F.d E E E E b h T e.T.Y.@ H E E E E.B.M.CXk.J E E E",
" E E E E E V 6 M E E E E E E.A.ZX.Xa E E E E E E R x.R E E E E E",
" E E E E E EXO.m E E E E E EXx.&X$X1 E E E E E EX0Xz E E E E E E",
" E E E E E E E.W E E E E E EXx.&.-X1 E E E E E E l E E E E E E E",
" E E E E E E E E E E E E E EXx.& 2X1 E E E E E E E E E E E E E E",
" E E E E E E E E EXbXq A.dX&X: dXwXd i.: iX& D E E E E E E E E E",
" E E E E E E E E E EXOXmXgX%.i.N.1Xw.F i i . E E E E E E E E E E",
" E E E E E E E E E E E.. !.'.cXj w m 4 i G E E E E E E E E E E E",
" E E E E E E E E E E E EXlXv.; P.1XdX&X,.J E E E E E E E E E E E",
" E E E E E E E E E E E E EX4XpXM.1 J.pXc E E E E E E E E E E E E",
" E E E E E E E E E E E E E.W.n K dX&Xi E E E E E E E E E E E E E",
" E E E E E E E E E E E E E E.W.!Xe S E E E E E E E E E E E E E E",
" E E E E E E E E E E E E E E E.J t E E E E E E E E E E E E E E E"
};
