/* XPM */
static const char * IconGuiritFullScreen[] = {
/* width height ncolors chars_per_pixel */
"32 32 194 2",
/* colors */
"   c #B88641",
" . c #AF8542",
" X c #B59655",
" o c #445A7E",
" O c #FF7B31",
" + c #CD7B24",
" @ c #FF7F5C",
" # c #CF9E4A",
" $ c #566B75",
" % c #C0B23B",
" & c #2A428C",
" * c #556974",
" = c #F47A1C",
" - c #E0A729",
" ; c #B1935E",
" : c #42567F",
" > c #6C7D66",
" , c #8C8E6B",
" < c #354C86",
" 1 c #8B8360",
" 2 c #28408D",
" 3 c #C5842C",
" 4 c #77806A",
" 5 c #475B7D",
" 6 c #FF3D09",
" 7 c #EA6C15",
" 8 c #395183",
" 9 c #FF630C",
" 0 c #394F83",
" q c #CE912E",
" w c #FF3309",
" e c #2C458A",
" r c #FF754E",
" t c #A3AB56",
" y c #526777",
" u c #263E8E",
" i c #FF5523",
" p c #3E5481",
" a c #9E6D4E",
" s c #FA9D38",
" d c #5D7171",
" f c #A68A4F",
" g c #314888",
" h c #2A438B",
" j c #A88547",
" k c #C58328",
" l c #43597F",
" z c #FF3E05",
" x c #F08D1A",
" c c #28418C",
" v c #DD7C25",
" b c #A29065",
" n c #9CA24B",
" m c #65776B",
" M c #5F706F",
" N c #888E5F",
" B c #F1A160",
" V c #5E6C6E",
" C c #FF5540",
" Z c #263F8D",
" A c #654D7F",
" S c #928255",
" D c #4C617A",
" F c #816B76",
" G c #385084",
" H c #314987",
" J c #516678",
" K c #F09A58",
" L c #FF1C0B",
" P c #B29853",
" I c #495F7A",
" U c #CC7B24",
" Y c #C5A55F",
" T c #697A6B",
" R c #776079",
" E c #364E85",
" W c #FFAB77",
" Q c #29428C",
" ! c #FF7149",
" ~ c #FF4F07",
" ^ c #937F52",
" / c #6F7F6A",
" ( c #47597B",
" ) c #C5AC58",
" _ c #66786B",
" ` c #899069",
" ' c #DAB727",
" ] c #FF6760",
" [ c #27408D",
" { c #FF6856",
" } c #FF7D63",
" | c #D39E80",
".  c #FF310A",
".. c #B8A358",
".X c #586C74",
".o c #D85B22",
".O c #253E8E",
".+ c #816E78",
".@ c #FF6324",
".# c #FF5B24",
".$ c #E4A34B",
".% c #CD7A24",
".& c #C5A954",
".* c #8A985C",
".= c #4F6578",
".- c #FF7448",
".; c #7A8460",
".: c #42597F",
".> c #D95B3D",
"., c #B99348",
".< c #E2B563",
".1 c #CE902B",
".2 c #C3BA37",
".3 c #2E4689",
".4 c #B1A84D",
".5 c #A7754A",
".6 c #708163",
".7 c #405780",
".8 c #FF3609",
".9 c #C5A650",
".0 c #334B87",
".q c #C5A450",
".w c #2C448A",
".e c #D0B529",
".r c #263F8E",
".t c #788A64",
".y c #928256",
".u c #CAAC2D",
".i c #FF6F44",
".p c #3E5581",
".a c #D0B540",
".s c #3D5380",
".d c #A68B4F",
".f c #314988",
".g c #C58732",
".h c #2A428B",
".j c #FF6426",
".k c #7D8362",
".l c #C7822A",
".z c #FF7E68",
".x c #495F7B",
".c c #6B746E",
".v c #3C5382",
".b c #666E69",
".n c #2F4789",
".m c #A3894F",
".M c #E6871A",
".N c #FF6629",
".B c #C5842B",
".V c #99804F",
".C c #475D7C",
".Z c #D3BE3F",
".A c #FCA66B",
".S c #7E705C",
".D c #626B72",
".F c #596C73",
".G c #FF682C",
".H c #536577",
".J c #7D8C5E",
".K c #4C607A",
".L c #DFA223",
".P c #FF5122",
".I c #EE621B",
".U c #A8855A",
".Y c #5E7171",
".T c #2B438B",
".R c #B9A63C",
".E c #42577D",
".W c #3D5482",
".Q c #657671",
".! c #9D9952",
".~ c #364D85",
".^ c #C3A553",
"./ c #C5A24B",
".( c #EBA060",
".) c #FF6F53",
"._ c #52597C",
".` c #485E7C",
".' c #AA9658",
".] c #FF6F3F",
".[ c #8A7F53",
".{ c #FF5E1E",
".} c #C2A25F",
".| c #3B5283",
"X  c #C68942",
"X. c #344B86",
"XX c #5A6D73",
"Xo c #536876",
"XO c #273F8D",
"X+ c #465C7D",
"X@ c #F39A43",
"X# c #395084",
"X$ c #B8A658",
"X% c #324987",
/* pixels */
".O.O.O.O.O.O.O.O.O.O.O.O.O.O.O.O.O.O.O.O.O.O.O.O.O.O.O.O.O.O.O.O",
".O.O.O.O.O.O.O.O.O.O.O.O.O.O.O.O.O.O.O.O.O.O.O.O.O.O.O.O.O.O.O.O",
".O.O.O.O.O.O.O.O.O.O.O.O.O.O.O.O.O.O.O.O.O.O.O.O.O.O.O.O.O.O.O.O",
".O.O.O.O.O.O.O.O.O.O.O.O.O.O.O.O.O.O.O.O.O.O.O.O.O.O.O.O.O.O.O.O",
".O.O.O.O.O.O.O.O.O.O.O.O.O.O.O.O.O.O.O.O.O.O.O.O.O.O.O.O.O.O.O.O",
".O.O.O.O.O.O.O.O.O.O.O.O.O.O.O.O.O.O.O.O.O.O.O.O.O.O.O.O.O.O.O.O",
".O.O.O.O.O.O.O.O.O.O.O.O.O.O.O.O.O.O.O.O.O.O.O.O.O.O.O.O.O.O.O.O",
".O.O.O.O.O.O.O.O.O.O.O.O.O.O.O.O.O.O.O.O.O.O.O.O.O.O.O.O.O.O.O.O",
".O.O.O.O.O.O.O.O.O.O.O.O.O.O.O.O.O.O.O.O.O.O.O.O.O.O.O.O.O.O.O.O",
".O.O.O.O Z [.O ZXO.O.O.O.O.O.O.O.O.O.O.O.O.O.O.O.O.O o.O.O.O.O.O",
".O u b Y.* / t |.Q.O.O.O.O.O.O.O JX .> T c.O.O.O.O 5 9 l.O.O H.O",
".O ;.(.w.O.O.O , `.O.O.O.O.O.O.O.O.,.G.O.O.O.O.O.O.O.T.O.O :.R.O",
".K.z 4.O.O.O.O &.t.0 y.|.h d.Y 2.O.d.N.O.O 0.E.b (.r VX%.n.o qXX",
".' }X+.O.O u l.`.= *.}X$ & N r.v.O f.j Z > = '.I v.e L $.; 7.M.[",
"./ @.p.O.O 2.J W.< I.+...OXo !.:.O.m.@ Z.O   . Q g.7.  $.O +.g.O",
" P ].X.O.O.O.O.A ).O F.^.O D.i.C.O.y.# e.O.5 ^.O.O 8.8.F.O.%.B.O",
".H { X.O.O.O.O B.&.O R.q.O.`.].C.O.y i.f.O.5.V.O.O G w M.O.l k.O",
".O.U.).D.O.O.O K.9.O A #.O.k C.X.O S.P.0.O a j.O.O.3 6 M.O 3 U.s",
".O.O 1X@.a.4.Z.$.c.O._.- s.! O %.6 -.{.2 m.L x _.O n ~.u <.S z.1",
".O.O.O.O p.xX..O.O.O.O.WX#.r.~.O h & & [ c & & [.O Q & &.O.O E.r",
".O.O.O.O.O.O.O.O.O.O.O.O.O.O.O.O.O.O.O.O.O.O.O.O.O.O.O.O.O.O.O.O",
".O.O.O.O.O.O.O.O.O.O.O.O.O.O.O.O.O.O.O.O.O.O.O.O.O.O.O.O.O.O.O.O",
".O.O.O.O.O.O.O.O.O.O.O.O.O.O.O.O.O.O.O.O.O.O.O.O.O.O.O.O.O.O.O.O",
".O.O.O.O.O.O.O.O.O.O.O.O.O.O.O.O.O.O.O.O.O.O.O.O.O.O.O.O.O.O.O.O",
".O.O.O.O.O.O.O.O.O.O.O.O.O.O.O.O.O.O.O.O.O.O.O.O.O.O.O.O.O.O.O.O",
".O.O.O.O.O.O.O.O.O.O.O.O.O.O.O.O.O.O.O.O.O.O.O.O.O.O.O.O.O.O.O.O",
".O.O.O.O.O.O.O.O.O.O.O.O.O.O.O.O.O.O.O.O.O.O.O.O.O.O.O.O.O.O.O.O",
".O.O.O.O.O.O.O.O.O.O.O.O.O.O.O.O.O.O.O.O.O.O.O.O.O.O.O.O.O.O.O.O",
".O.O.O.O.O.O.O.O.O.O.O.O.O.O.O.O.O.O.O.O.O.O.O.O.O.O.O.O.O.O.O.O",
".O.O.O.O.O.O.O.O.O.O.O.O.O.O.O.O.O.O.O.O.O.O.O.O.O.O.O.O.O.O.O.O",
".O.O.O.O.O.O.O.O.O.O.O.O.O.O.O.O.O.O.O.O.O.O.O.O.O.O.O.O.O.O.O.O",
".O.O.O.O.O.O.O.O.O.O.O.O.O.O.O.O.O.O.O.O.O.O.O.O.O.O.O.O.O.O.O.O"
};
