/* XPM */
static const char * IconANSelect[] = {
/* width height ncolors chars_per_pixel */
"64 64 244 2",
/* colors */
"`` c #BE3A2D",
"`a c #B60901",
"`b c #E0D0C8",
"`c c #ADADAD",
"`d c #ABABAB",
"`e c #695E67",
"`f c #893673",
"`g c #A5A5A5",
"`h c #E3D6CE",
"`i c #958792",
"`j c #E1D4CC",
"`k c #9F9F9F",
"`l c #E0D2CB",
"`m c #C39FB2",
"`n c #D4A39B",
"`o c #CB8A85",
"`p c #CF9D96",
"`q c #DEC7BF",
"`r c #E4DAD2",
"`s c #B196AA",
"`t c #877984",
"`u c #C86B61",
"`v c #E3D8D1",
"`w c #E2D8D0",
"`x c #E1D6CF",
"`y c #A37899",
"`z c #B9AAB5",
"a` c #8D8D8D",
"aa c #B5A6B1",
"ab c #BD3528",
"ac c #878787",
"ad c #D7B6AE",
"ae c #C14639",
"af c #DDC9C1",
"ag c #E5DED6",
"ah c #E3DCD4",
"ai c #E2DAD3",
"aj c #756772",
"ak c #C45549",
"al c #7F7F7F",
"am c #D6ABA3",
"an c #DABCB4",
"ao c #797979",
"ap c #E0CFC7",
"aq c #DECDC5",
"ar c #E6E2DA",
"as c #E5E0D9",
"at c #D19C94",
"au c #717171",
"av c #C13F32",
"aw c #B81205",
"ax c #BF3D30",
"ay c #DCC0B9",
"az c #E2D3CC",
"b` c #E1D3CB",
"ba c #BA2114",
"bb c #E6E4DD",
"bc c #8B3977",
"bd c #BE96AC",
"be c #B81408",
"bf c #D5AFA8",
"bg c #DBC2BB",
"bh c #E3D7D0",
"bi c #8E457D",
"bj c #E1D5CE",
"bk c #DFD3CC",
"bl c #D5A69E",
"bm c #D1A09A",
"bn c #515151",
"bo c #D6B3AC",
"bp c #E5DDD5",
"bq c #C9827B",
"br c #C3C3C4",
"bs c #BD362A",
"bt c #E6E1D9",
"bu c #E4DFD7",
"bv c #BC2B1F",
"bw c #C03C30",
"bx c #373737",
"by c #B70D03",
"bz c #C8675C",
"c` c #BD382D",
"ca c #E0D0C9",
"cb c #DFD0C8",
"cc c #8A3875",
"cd c #BC2F22",
"ce c #E4D8D0",
"cf c #BE3C31",
"cg c #E2D6CE",
"ch c #D18D82",
"ci c #A06E94",
"cj c #CE897F",
"ck c #888186",
"cl c #E5DCD4",
"cm c #DCC5BE",
"cn c #E4DAD3",
"co c #B196AB",
"cp c #E3DAD2",
"cq c #B096AA",
"cr c #BAACB7",
"cs c #C4C4C4",
"ct c #C2C2C2",
"cu c #C2C0C2",
"cv c #CC908A",
"cw c #7C757A",
"cx c #BEBEBE",
"cy c #BCBCBC",
"cz c #E6E0D8",
"d` c #DDC9C2",
"da c #BABABA",
"db c #E5DED7",
"dc c #E4DED6",
"dd c #C86F65",
"de c #D7BFBC",
"df c #B2B2B2",
"dg c #D2A7A0",
"dh c #E1D1C9",
"di c #DFCFC7",
"dj c #E7E4DC",
"dk c #9E949B",
"dl c #D29E96",
"dm c #DBC9C3",
"dn c #A8A8A8",
"do c #D6AFA7",
"dp c #D5ADA6",
"dq c #B71005",
"dr c #DAC0B8",
"ds c #C55044",
"dt c #BA2315",
"du c #C29EB1",
"dv c #C24C41",
"dw c #E6E6DE",
"dx c #80236A",
"dy c #7F2169",
"dz c #7E1F68",
"e` c #989898",
"ea c #C45B50",
"eb c #D7B3AB",
"ec c #A67D9C",
"ed c #DBC4BC",
"ee c #E3D9D1",
"ef c #C98079",
"eg c #8E477E",
"eh c #D0958D",
"ei c #909090",
"ej c #C5665E",
"ek c #B6A7B2",
"el c #B91A0D",
"em c #B29FAE",
"en c #CB7267",
"eo c #DECAC2",
"ep c #E6DFD7",
"eq c #E5DFD6",
"er c #E4DDD5",
"es c #CA847D",
"et c #E2D9D3",
"eu c #BB291C",
"ev c #E0D5D1",
"ew c #BE382C",
"ex c #E0CEC7",
"ey c #E7E3DB",
"ez c #DECCC5",
"f` c #944E80",
"fa c #CD8379",
"fb c #D5ACA5",
"fc c #D3AAA3",
"fd c #CF9088",
"fe c #E0D2CA",
"ff c #E8E7DF",
"fg c #686868",
"fh c #E7E5DE",
"fi c #666666",
"fj c #8B3A77",
"fk c #646464",
"fl c #BD3124",
"fm c #7E1E67",
"fn c #BE453C",
"fo c #D19D97",
"fp c #DBC3BB",
"fq c #5C5C5C",
"fr c #A57A9A",
"fs c #E2D8CF",
"ft c #E1D6CE",
"fu c #A37698",
"fv c #CA786F",
"fw c #B289A0",
"fx c #D9B8AF",
"fy c #BC3326",
"fz c #CC877E",
"g` c #BCB6BA",
"ga c #B19AAC",
"gb c #DCC7BF",
"gc c #E4DCD4",
"gd c #D29A91",
"ge c #4A4A4A",
"gf c #D5A9A1",
"gg c #D9CCC9",
"gh c #D5A097",
"gi c #D1B5B4",
"gj c #E5E0D8",
"gk c #3E3E3E",
"gl c #3A3A3A",
"gm c #E3D5CC",
"gn c #C97C74",
"go c #8E3F79",
"gp c #A19A9F",
"gq c #E0D1C9",
"gr c #BA1F13",
"gs c #E7E4DD",
"gt c #DECFC7",
"gu c #E6E4DC",
"gv c #DCCBC5",
"gw c #955183",
"gx c #989096",
"gy c #D4ADA6",
"gz c #E3D7CF",
"h` c #BB2517",
"ha c #E1D5CD",
"hb c #D49085",
"hc c #A27396",
"hd c #202020",
"he c #C8756C",
"hf c #B49DAE",
"hg c #B9180B",
"hh c #AC7A99",
"hi c #BBAFB8",
"hj c #B095AA",
"hk c #AB7898",
"hl c #E1D7D0",
"hm c #C5C5C5",
"hn c #B9ABB6",
"ho c #C3C3C3",
"hp c #BF382B",
"hq c #C1C1C1",
"hr c #BFBFBF",
"hs c #BDBDBD",
"ht c #DFCCC4",
"hu c #E6E1D8",
"hv c #E5DFD7",
"hw c #E4DDD6",
"hx c #E2DBD4",
"hy c #AA9FA7",
"hz c #D7AEA5",
"i` c #B5B5B5",
/* pixels */
"agagagagagagagagagagagagagagagagagagagagagagagagagagagagagagagagagagagagagagagagagagagagagagagagagagagagagagagagagagagagagagagag",
"agagagagagagagagagagagagagagagagagagagagagagagagagagagagagagagagagagagagagagagagagagagagagagagagagagagagagagagagagagagagagagagag",
"agagagagagagagagagagagagagagagagagagagagagagagagagagagagagagagagagagagagagagagagagagagagagagagagagagagagagagagagagagagagagagagag",
"agagagagagagagagagagagagagagagagagagagagagagagagagagagagagagagagagagagagagagagagagagagagagagagagagagagagagagagagagagagagagagagag",
"agagagagagagagagagagagagagagagagagagagagagagagagagagagagagagagagagagagagagagagagagagagagagagagagagagagagagagagagagagagagagagagag",
"agagagagagagagagagagagagagagagagagagagagagagagagagagagagagagagagagagagagagagagagagagagagagagagagagagagagagagagagagagagagagagagag",
"agagagagagagagagagagagagagagagagagagagagagagagagagagagagagagagagagagagagagagagagagagagagagagagagagagagagagagagagagagagagagagagag",
"agagagagagagagagagagagagagagagagagagagagagagagagagagagagagagagagagagagagagagagagagagagagagagagagagagagagagagagagagagagagagagagag",
"agagagagagagagagagagagagagagagagagagagagagagagagagagagagagagagagagagagagagagagagagagagagagagagagagagagagagagagagagagagagagagagag",
"agagagagagagagagagagagagagagagagagagagagagagagagagagagagagagagagagagagagagagagagagagagagagagagagagagagagagagagagagagagagagagagag",
"agagagagagagagagagagagagagagagagagagagagagagagagagagagagagagagagagagagagagagagagagagagagagagagagagagagagagagagagagagagagagagagag",
"agagagagagagagagagagagagagagagagagagagagagagagagagagagagagagagagagagagagagagagagagagagagagagagagagagagagagagagagagagagagagagagag",
"agagagagagagagagagagagagagagagagagagagagagagagagagagagagagagagagagagagagagagagagagagagagagagagagagagagagagagagagagagagagagagagag",
"agagagagagagagagagagagagagagagagagagagagagagagagagagagagagagagagagagagagagagagagagagagagagagagagagagagagagagagagagagagagagagagag",
"agagagagagagagagagagagagagagagagagagagagagagagagagagagagagagagagagagagagagagagagagagagagagagagagagagagagagagagagagagagagagagagag",
"agagagagagagagagagagagagagagagagagagagagagagagagagagagagagagagagagagagagagagagagagagagagagagagagagagagagagagagagagagagagagagagag",
"agagagagaghvgjgjgjaghvhvagagagagagagagagagagagagaghvhvhvhvagagagagagagagagagagagagagagagagagagagagagagagagagagagagagagagagagagag",
"agagaghvep`vapaqapgj`wcpagagagagagagagagagagagagag`vcperaigcagagagagagagagagagagagagagagagagagagagagagagagagagaghvagagagagagagag",
"agaghvhvgqbofcgydgdoehaybtagagagagagagagagagagagagdihzghfbd`hvagagagagagagagagagagagagagagagagagagagagagagagaghvgcbpagagagagagag",
"agagerayescvafgcfxakelgddwagagagagagagagagagagaghvar`uhgfnfbaragagagagagagagagagagagagagagagagagagagagagagagagdcdreogjagagagagag",
"aggj`lfahpanhvhvageoakghbbagagagaghvczhvhvagagagaggj`pc`fnfbaragagagaghvhvczgjagagagagagagaghvhvczhvagagagagbtfxesebeyhvagagagag",
"aggjcbgncdgd`wbtgjhvbf`qbtagagaghvgcazgzcpagagagagczfoc`fnfbaragagaghvergzb`eeagagagagaghvergzcgazaihvagagerbhdsakadcn`ragagagag",
"agbt`q`uhgbvchaycgasdicghvagaghvbpan`ofcbmdogzagagczfoc`fnfbaragaghv`bhzfc`ofdafhvagaghvcndrdgbmefathahvbped`ofldvehfcbgagagagag",
"aghvaidlh`hggrbvcjcmgzeragagaghufxgnbfhtfvhpfberhvczfoc`fnfbaraghvexfzaehtanavgn`bbtaggjambqanbgejbs`ngcerboesfyhgfaaf`bagagagag",
"agagczgqesh`elhgh`cdfzdiczagczhtenaeboahblbvhefebtczfoc`fnfbarcz`jchabfv`vgmhpgramguczcmbzdsbgafejcdes`vgj`vcvfyawchgueragagagag",
"agagephvfpgndddtawbeabgherhvgughbvaxbfgvateu`u`bbtczfoc`fnfbarcz`lefeubqeogbabdqgdbugschdtakgteedoefdocnczhvcvflawhbffhvagagagag",
"agageeb`ercbcmfv`ueuaw`ugbbtdwchdqewcvfc`pfz`ncggjczfoc`fnfbarbteoddbaaedggycjfaandcdwenbyakgbbtbpdigzbpagbpdg``awhbdwagagagagag",
"aggj`banczbtagaqaffvbvbvghfhdwchby```pbggbhlfseragczfoc`fnfbararcmeadteaancmftaiaghvfhenbyaebfhuhvczczagagagadavawhbdwagagagagag",
"aggjhtdggbhvhvczbt`ldvfybldjdjblabew`nararhvb`gchvczfoc`fnbfarbtezhebaakexgubtbtb``vguehfldtenhxbterfeerhvagboavawhbffepagagagag",
"aggj`bfdbzaygjareyhtaveaedbtczgvddelbzaf`wdiadcghvbtbmcfeufdfhhv`wfdhggr`udr`lfpeocpbtedeabyflfzeoaqadcphvagbf``dqhb`xhtagagagag",
"aggjcafzdvfobgedebcv`udlbjepagdcgfaxgreafvdpaneeep`wfvdt`abzhaczagfxdvbeaweaehadcgczagergdbsbydt`ubmdrclhvagcmenba`uboedagagagag",
"aggjfedgcvdobffc`o`ofxeehvagagcz`lfdavbwdsamcphvhvfeddavavhegbczhvgzdlaebwavbqexczagagczaqfabwbwdsgdgchvagaghvdrbz`ubfhaagagagag",
"agagbpergcer`rafcmgzagagagagagagagbpb`cmgzclagagager`rcece`reragagagbp`hedfpgzdbagagagagagbpdhafcecneqagagagagag`r`rgcagagagagag",
"agagaghvhvhvaggcgchvhvagagagagagaghvgjagczhvagagagaggjczczgjagagagaghvgjhwerhvagagagagagaghvhvbuczhvagagagagagaggjhvhvagagagagag",
"agagetevevevevevevevevevevevevevevevevevevevevevevevevevevevevevevevevevevevevevevevevevevevevevevevevevevevevevevevevetagagagag",
"aggggwccfjfjfjfjfjfjfjfjfjfjfjfjfjfjfjfjfjfjfjfjfjfjfjfjfjfjfjfjfjfjfjfjfjfjfjfjfjfjfjfjfjfjfjfjfjfjfjfjfjfjfjfjfjfjbcgwggagagag",
"ggf`gwg`hihihihihihihihihihihihihihihihihihihihihihihihihihihihihihihihihihihihihihihihihihihihihihihihihihihihihihig`gwf`bkagag",
"`mfmhcfuhfhfhfhfhfhfhfhfhfhfhfcqgahfhfhfhfhfhfhfhfhfhfhfhfhfhfhfhfhfhfhfhfhfgahfhfhfhfhfhfhfhfhfhfhfhfhfhfhfhfhfhfgafrcidy`magag",
"`mdzhcfrbrcscscscscscscscscse`e`ace`cscscscscsauaucscscscscscscscscsct`ccs`gfghocscscscscscscscscscscscscscscscscscueccidxgofwah",
"`mdzhcfrbrcscscscscscscscshmfqaohoi`cshr`k`dcsfgfkcscy`gdacscx`k`dhoa`fqcy`d`kcshrdndfcsct`k`g`kcscscscscscscscscscueccidybdci`m",
"`mdzhcfrbrcscscscscscscscshmalhdbndnhmala`fqhqfgfkcsaldnfghoaoeigkctfifqcxeifkhmaockfgdncyhdgxgecycscscscscscscscscueccidy`m`mci",
"`mdzhcfrbrcscscscscscscscscsdae`gkbxcsgkacachsfgfkhrbxeia`hsgl`cdfhmaoauhmeibnhobxe`fgalcxhd`dgk`ccscscscscscscscscueccidyduhhfw",
"`mdzhcfrbrcscscscscscscscshmachrcygecsbnaoi`ctfgfkhobxeii`cxgeaodfhsaoauhme`gectbneifka`hqgk`dgk`ccscscscscscscscscueccidx`fhkbk",
"`mfmhc`y`zhnhnhnhnhnhnhnhncr`ickgxemhngp`egxhn`i`tekdk`edkhnhy`e`ihnem`tek`i`tekaagx`tekaaajgpcwhyhnhnhnhnhnhnhnhnekfrcidyduagag",
"de`fcihnhjcqcqcqcqcqcqcqcqcqhjcocqcqcqcqco`scq`scocqcq`scqcqcqco`scqcqcocq`scocqcq`s`scqcqcocqcocqcqcqcqcqcqcqcqcqcqcrciccdmagag",
"aggiccbiegegegegegegegegegegegegegegegegegegegegegegegegegegegegegegegegegegegegegegegegegegegegegegegegegegegegegegbi`fdeagagag",
"agergibdbdbdbdbdbdbdbdbdbdbdbdbdbdbdbdbdbdbdbdbdbdbdbdbdbdbdbdbdbdbdbdbdbdbdbdbdbdbdbdbdbdbdbdbdbdbdbdbdbdbdbdbdbdbdbdgiagagagag",
"agageqeqeqeqeqeqeqeqeqeqeqeqeqeqeqeqeqeqeqeqeqeqeqeqeqeqeqeqeqeqeqeqeqeqeqeqeqeqeqeqeqeqeqeqeqeqeqeqeqeqeqeqeqeqeqeqeqagagagagag",
"agagagagagagagagagagagagagagagagagagagagagagagagagagagagagagagagagagagagagagagagagagagagagagagagagagagagagagagagagagagagagagagag",
"agagagagagagagagagagagagagagagagagagagagagagagagagagagagagagagagagagagagagagagagagagagagagagagagagagagagagagagagagagagagagagagag",
"agagagagagagagagagagagagagagagagagagagagagagagagagagagagagagagagagagagagagagagagagagagagagagagagagagagagagagagagagagagagagagagag",
"agagagagagagagagagagagagagagagagagagagagagagagagagagagagagagagagagagagagagagagagagagagagagagagagagagagagagagagagagagagagagagagag",
"agagagagagagagagagagagagagagagagagagagagagagagagagagagagagagagagagagagagagagagagagagagagagagagagagagagagagagagagagagagagagagagag",
"agagagagagagagagagagagagagagagagagagagagagagagagagagagagagagagagagagagagagagagagagagagagagagagagagagagagagagagagagagagagagagagag",
"agagagagagagagagagagagagagagagagagagagagagagagagagagagagagagagagagagagagagagagagagagagagagagagagagagagagagagagagagagagagagagagag",
"agagagagagagagagagagagagagagagagagagagagagagagagagagagagagagagagagagagagagagagagagagagagagagagagagagagagagagagagagagagagagagagag",
"agagagagagagagagagagagagagagagagagagagagagagagagagagagagagagagagagagagagagagagagagagagagagagagagagagagagagagagagagagagagagagagag",
"agagagagagagagagagagagagagagagagagagagagagagagagagagagagagagagagagagagagagagagagagagagagagagagagagagagagagagagagagagagagagagagag",
"agagagagagagagagagagagagagagagagagagagagagagagagagagagagagagagagagagagagagagagagagagagagagagagagagagagagagagagagagagagagagagagag",
"agagagagagagagagagagagagagagagagagagagagagagagagagagagagagagagagagagagagagagagagagagagagagagagagagagagagagagagagagagagagagagagag",
"agagagagagagagagagagagagagagagagagagagagagagagagagagagagagagagagagagagagagagagagagagagagagagagagagagagagagagagagagagagagagagagag",
"agagagagagagagagagagagagagagagagagagagagagagagagagagagagagagagagagagagagagagagagagagagagagagagagagagagagagagagagagagagagagagagag",
"agagagagagagagagagagagagagagagagagagagagagagagagagagagagagagagagagagagagagagagagagagagagagagagagagagagagagagagagagagagagagagagag",
"agagagagagagagagagagagagagagagagagagagagagagagagagagagagagagagagagagagagagagagagagagagagagagagagagagagagagagagagagagagagagagagag"
};
