/* XPM */
static const char * IconSaveImage[] = {
/* width height ncolors chars_per_pixel */
"32 32 200 2",
/* colors */
"   c #A91E29",
" . c #364A81",
" X c #324787",
" o c #5B2C53",
" O c #864245",
" + c #924733",
" @ c #C7440E",
" # c #253B8E",
" $ c #C5440C",
" % c #4D5087",
" & c #C74504",
" * c #C53F02",
" = c #4A4F7A",
" - c #966E47",
" ; c #862E31",
" : c #724752",
" > c #444774",
" , c #D1733F",
" < c #C16F18",
" 1 c #2A3C8C",
" 2 c #7F4241",
" 3 c #7F4962",
" 4 c #883C36",
" 5 c #CA3D35",
" 6 c #4F2B6B",
" 7 c #985835",
" 8 c #CA5C03",
" 9 c #324283",
" 0 c #D41B00",
" q c #213B90",
" w c #C74A00",
" e c #A25D63",
" r c #D13900",
" t c #D40500",
" y c #6D5353",
" u c #9C575D",
" i c #8E5338",
" p c #6B557C",
" a c #2E418C",
" s c #493875",
" d c #D31102",
" f c #C74603",
" g c #74595D",
" h c #C43A00",
" j c #D1543B",
" k c #B04F21",
" l c #A8192A",
" z c #B36166",
" x c #8F433C",
" c c #C77473",
" v c #D45B20",
" b c #243E8F",
" n c #403D79",
" m c #7A4045",
" M c #81232B",
" N c #D36B61",
" B c #C33C02",
" V c #CE5931",
" C c #D4A13D",
" Z c #A8511C",
" A c #C8440A",
" S c #D26D63",
" D c #D32615",
" F c #D27C45",
" G c #F8F8F8",
" H c #3C3F7B",
" J c #A05D42",
" K c #C9400E",
" L c #98646F",
" P c #83314A",
" I c #A54747",
" U c #D38F6A",
" Y c #634873",
" T c #C73B02",
" R c #8D2940",
" E c #C53B00",
" W c #B59C6A",
" Q c #C53900",
" ! c None",
" ~ c #D06846",
" ^ c #8B4837",
" / c #243D8E",
" ( c #A4303C",
" ) c #A23D1C",
" _ c #B83B0A",
" ` c #635062",
" ' c #CAA446",
" ] c #67547D",
" [ c #C4CBE2",
" { c #B15E66",
" } c #223B8F",
" | c #7E4041",
".  c #C71F1C",
".. c #D38170",
".X c #612A4C",
".o c #293E8F",
".O c #AB5942",
".+ c #D31D00",
".@ c #603E62",
".# c #263C8C",
".$ c #203B90",
".% c #815354",
".& c #5A477D",
".* c #8C6883",
".= c #645880",
".- c #CF664E",
".; c #89463E",
".: c #CC6916",
".> c #253E8E",
"., c #2A3F89",
".< c #363B81",
".1 c #793C42",
".2 c #BF3D06",
".3 c #944F42",
".4 c #4D487D",
".5 c #AB5227",
".6 c #917677",
".7 c #614B5F",
".8 c #233C8F",
".9 c #595878",
".0 c #803342",
".q c #635C85",
".w c #CC3F19",
".e c #6A4557",
".r c #A4663A",
".t c #324183",
".y c #7E3E4D",
".u c #5E5C6C",
".i c #CA6A66",
".p c #8C5940",
".a c #BD5217",
".s c #494375",
".d c #C8C881",
".f c #CC5A29",
".g c #A9606D",
".h c #253D8D",
".j c #1F3A91",
".k c #D25C46",
".l c #CB6014",
".z c #C64302",
".x c #8A748D",
".c c #C7040A",
".v c #BB5818",
".b c #8A392A",
".n c #7E5349",
".m c #663463",
".M c #9E3637",
".N c #8F3146",
".B c #955445",
".V c #BE5914",
".C c #672946",
".Z c #70645F",
".A c #D16C37",
".S c #A76528",
".D c #FFFFFF",
".F c #6C5A5B",
".G c #CB817D",
".H c #D46B5B",
".J c #D23100",
".K c #D22D00",
".L c #9C2F1A",
".P c #C84442",
".I c #914230",
".U c #997787",
".Y c #B16721",
".T c #D4926B",
".R c #765D4A",
".E c #C53C00",
".W c #D37A14",
".Q c #7A586F",
".! c #D0532F",
".~ c #BA484B",
".^ c #AF3533",
"./ c #3C3E7E",
".( c #B54D11",
".) c #243C8E",
"._ c #CB512A",
".` c #70404E",
".' c #9F4723",
".] c #DEC5C7",
".[ c #C75A1C",
".{ c #CF3703",
".} c #B6828C",
".| c #D1711F",
"X  c #A44C60",
"X. c #D34E00",
"XX c #CD703C",
"Xo c #594062",
"XO c #C64007",
"X+ c #D0834C",
"X@ c #945C3C",
"X# c #BC3D07",
"X$ c #D1806E",
"X% c #A35223",
"X& c #6E4A52",
"X* c #5A4466",
"X= c #CE4908",
"X- c #C8420C",
"X; c #CB7C29",
"X: c #CF5120",
/* pixels */
" ! ! ! ! ! ! ! ! ! ! ! u M M M W.d.d.d.d.d.d.d.d.d.d.d.d.3 M M M",
" ! ! ! ! ! ! ! ! ! ! ! u M M M W.d.d.d.d.d.d.d.d.d.d.d.d.3 M M M",
" ! ! ! ! ! ! ! ! ! ! ! u M M M W.d.d.d.d.d.d.d.d.d.d.d.d.3 M M M",
" ! ! ! ! ! ! ! ! ! ! ! u M M M W.d.d.d.d.d.d.d.d.d.d.d.d.3 M M M",
" ! ! ! ! ! ! ! ! ! ! ! u M M M W.d.d.d.d.d.d.d.d.d.d.d.d.3 M M M",
" ! ! ! ! ! ! ! ! ! ! ! u M M M W.d.d.d.d.d.d.d.d.d.d.d.d.3 M M M",
" ! ! ! ! ! ! ! ! ! ! ! u M M M W.d.d.d.d.d.d.d.d.d.d.d.d.3 M M M",
" ! ! ! ! ! ! ! ! ! ! ! u M M M W.d.d.d.d.d.d.d.d.d.d.d.d.3 M M M",
" ! ! ! ! ! ! ! ! ! ! ! u M M M W.d.d.d.d.d.d.d.d.d.d.d.d.3 M M M",
" ! ! ! ! ! ! ! ! ! ! ! u M M M W.d.d.d.d.d.d.d.d.d.d.d.d.3 M M M",
" ! ! ! ! ! ! ! ! ! ! ! u M M M W.d.d.d.d.d.d.d.d.d.d.d.d.3 M M M",
".j.j.j./ 6 6 s.j.j.j.j.C M M M W.d.d.d.d.d.d.d.d.d.d.d.d.3 M M M",
".j # l t.K.J v.M.j.j.j.C M M M x.3.3.3.3.3.3.3.3.3.3.3.3 ; M M M",
".<.c.+ r $.n g ' R.j.j.C M M M M M M M M M M M M M M M M M M M M",
" P 0.{ :.j.j.j.8 d +.j.C M M M M e e e e e e e e e e M M M M M M",
"  X. n.j.j.y 1.B Q.1.j.C M M M M.D.D.D.D.D.D.D.D.D.D M M M M M M",
".@ k.j.j.m. .^.u O.j.j.C M M M M.D.] M e.D.D.D.D.D.D M M M M M M",
" ..W.N ( D T 8.O 5.$.j o M M M M.D.] M e.D.D.D.D.D.D M M M M M M",
".j = CX= h.;.~.w E.Z.&.j.X M M M.D.] M e.D.D.D.D.D.D M M M M M M",
".j.j aX@X*.P KX#.e z V.,.j.0 M M.D.] M e.D.D.D.D.D.D M M M M M M",
".j.j.j.j.4 j.[ p N A _.s.g.k.L.b [ [ [ [ [ G G G G G u u u u u u",
".j.j.j.j b <.A ~ & 4 ] c._ B 2.F.j.j.j.j.j ! ! ! ! ! ! ! ! ! ! !",
".j.j.j.j.j.t Z.:Xo.U.. @X#.r.=.j.j.j.j.j.j ! ! ! ! ! ! ! ! ! ! !",
".j.j.j.j.j.j.h -.TX+ * |.q.G F L.j.j Y 3.j ! ! ! ! ! ! ! ! ! ! !",
".j.j.j.j.j.j.j }.YX;.7.xX$ f w ,.9.j `X%.j ! ! ! ! ! ! ! ! ! ! !",
".j.j.j.j.j.j.j.j.j.S UXX h m.j J.H.% 9X&.j ! ! ! ! ! ! ! ! ! ! !",
".j.j.j.j.j.j.j.j.j.> 7.V H.o.*.-XO.'X  I.5 ! ! ! ! ! ! ! ! ! ! !",
".j.j.j.j.j.j.j.j.j.j.).R.6.}.f.E.` {.!X:.I ! ! ! ! ! ! ! ! ! ! !",
".j.j.j.j.j.j.j.j.j.j.j.j i.|.(.Q.iX-.2.v > ! ! ! ! ! ! ! ! ! ! !",
".j.j.j.j.j.j.j.j.j.j.j.j.j.p % S.z ).# / q ! ! ! ! ! ! ! ! ! ! !",
".j.j.j.j.j.j.j.j.j.j.j.j.j.j X.l.a.j.j.j.j ! ! ! ! ! ! ! ! ! ! !",
".j.j.j.j.j.j.j.j.j.j.j.j.j.j.j y ^.j.j.j.j ! ! ! ! ! ! ! ! ! ! !"
};
