/* XPM */
static const char * IconCrvProfile[] = {
/* width height ncolors chars_per_pixel */
"32 32 253 2",
/* colors */
"   c #280603",
" . c #BABAC7",
" X c #510E07",
" o c #4E4E88",
" O c #3D3D6A",
" + c #3B3B68",
" @ c #3E3E61",
" # c #2C2C4C",
" $ c #ABABC2",
" % c #6E6E9A",
" & c #AEAEBB",
" * c #BEBECE",
" = c #2A2A4A",
" - c #3D1714",
" ; c #693732",
" : c #795F5C",
" > c #7E7E99",
" , c #3F3F6F",
" < c #303053",
" 1 c #430B06",
" 2 c #DADADC",
" 3 c #604340",
" 4 c #380A05",
" 5 c #6F6F94",
" 6 c #454578",
" 7 c #434376",
" 8 c #2D131B",
" 9 c #C9C9D5",
" 0 c #323258",
" q c #4A0C06",
" w c #A2A2B2",
" e c #B5B5BE",
" r c #7070A2",
" t c #3F0B05",
" y c #5B5B94",
" u c #4A4A76",
" i c #727290",
" p c #757589",
" a c #2A0704",
" s c #290703",
" d c #B5ABAA",
" f c #A6A6B9",
" g c #B9B9C5",
" h c #4F4F88",
" j c #8A8AAE",
" k c #6F4541",
" l c #470C06",
" z c #A6908E",
" x c #4C2B43",
" c c #797990",
" v c #2B2B4A",
" b c #310804",
" n c #86615E",
" m c #BDBDCC",
" M c #292948",
" N c #444473",
" B c #CCCCD4",
" V c #4F4F8B",
" C c #4F0D07",
" Z c #764641",
" A c #4E0D06",
" S c #40406F",
" D c #3E3E6D",
" F c #440C06",
" G c #2F2F51",
" H c #42425D",
" J c #2D2D4F",
" K c #302C48",
" L c #9595B5",
" P c #2E0804",
" I c #424274",
" U c #484170",
" Y c #DDDDE1",
" T c #734641",
" R c #4B0D06",
" E c #313156",
" W c #34344F",
" Q c #53536A",
" ! c #352946",
" ~ c #46467B",
" ^ c #4C4C6D",
" / c #35355D",
" ( c #643632",
" ) c #C6C6D4",
" _ c #393964",
" ` c #565691",
" ' c None",
" ] c #BEADAB",
" [ c #282846",
" { c #6B3732",
" } c #4E4E89",
" | c #3F3F6D",
".  c #676787",
".. c #511A1F",
".X c #450B06",
".o c #3D3D6B",
".O c #440B05",
".+ c #624340",
".@ c #3A0A05",
".# c #2C2C4D",
".$ c #4C3352",
".% c #686895",
".& c #434374",
".* c #414172",
".= c #323256",
".- c #303054",
".; c #DADADD",
".: c #420B06",
".> c #410B05",
"., c #5F4340",
".< c #532931",
".1 c #47477B",
".2 c #2C0704",
".3 c #2B0703",
".4 c #B7ABAA",
".5 c #5E5E77",
".6 c #34345B",
".7 c #490C06",
".8 c #5D5D97",
".9 c #331E2F",
".0 c #3E0B05",
".q c #9D8F8D",
".w c #DBD7D7",
".e c #DAD7D6",
".r c #330804",
".t c #383862",
".y c #272744",
".u c #B4ABAA",
".i c #7777A3",
".p c #4D4D87",
".a c #460C06",
".s c #3C3C69",
".d c #4F4F75",
".f c #2B2B4B",
".g c #300804",
".h c #BCACAB",
".j c #421419",
".k c #464676",
".l c #51518E",
".z c #C8BCBA",
".x c #4E0D07",
".c c #754641",
".v c #4D0D06",
".b c #2F2F52",
".n c #D9D9DB",
".m c #371A25",
".M c #9D9DAA",
".N c #2B0B0C",
".B c #8383A1",
".V c #2D0804",
".C c #444477",
".Z c #7A7181",
".A c #474770",
".S c #492130",
".D c #4D202A",
".F c #333359",
".G c #4A0D06",
".H c #B4B4BD",
".J c #3F0A05",
".K c #48487E",
".L c #48171B",
".P c #350905",
".I c #340904",
".U c #373760",
".Y c #383857",
".T c #361613",
".R c #563839",
".E c #4C4C85",
".W c #656583",
".Q c #3C0A05",
".! c #3B3B67",
".~ c #2A2A49",
".^ c #411917",
"./ c #BDADAB",
".( c #282847",
".) c #50508C",
"._ c #535385",
".` c #666691",
".' c #410E0D",
".] c #3F3F6E",
".[ c #3D3D6C",
".{ c #440B06",
".} c #430B05",
".| c #2E2E50",
"X  c #614340",
"X. c #390A05",
"XX c #2C2C4E",
"Xo c #9C9CA8",
"XO c #545493",
"X+ c #57578C",
"X@ c #2E0704",
"X# c #434375",
"X$ c #323257",
"X% c #4A3D68",
"X& c #4B0C06",
"X* c #DCDCE0",
"X= c #303055",
"X- c #DADADE",
"X; c #571C15",
"X: c #A08F8E",
"X> c #B3B3BB",
"X, c #8383AD",
"X< c #717198",
"X1 c #47477C",
"X2 c #2B0704",
"X3 c #36365E",
"X4 c #2A0703",
"X5 c #B6ABAA",
"X6 c #978585",
"X7 c #C3BBBA",
"X8 c #B7B7C2",
"X9 c #480C06",
"X0 c #75759F",
"Xq c #9D8F8E",
"Xw c #D9D7D6",
"Xe c #320804",
"Xr c #BDBDCB",
"Xt c #53538E",
"Xy c #272745",
"Xu c #270703",
"Xi c #500D07",
"Xp c #2C2136",
"Xa c #3E3E6C",
"Xs c #450C06",
"Xd c #595997",
"Xf c #ACACC4",
"Xg c #C2C2C9",
"Xh c #9B9BA6",
"Xj c #2F0804",
"Xk c #ABABB9",
"Xl c #535391",
"Xz c #BBACAB",
"Xx c #424273",
"Xc c #4D0D07",
"Xv c #43436A",
"Xb c #4C0D06",
"Xn c #DBDBDE",
"Xm c #D9D9DC",
"XM c #B4B4BB",
"XN c #370905",
"XB c #360904",
"XV c #46467A",
"XC c #71718D",
"XZ c #444478",
"XA c #2B0803",
"XS c #B7B7CB",
"XD c #B6B6C0",
"XF c #5C5C96",
"XG c #4A4A81",
"XH c #4A191E",
"XJ c #3E0A05",
"XK c #5C4240",
"XL c #88625E",
/* pixels */
" ' ' ' ' ' ' ' c.; ' ' ' ' ' ' ' ' ' ' ' ' ' ' 2 @ & ' ' ' ' ' '",
" ' ' ' ' ' ' w _ u.; ' ' ' ' ' ' ' ' ' ' ' ' 'Xv.s.].; ' ' ' ' '",
" ' ' ' ' 'Xg.! S _ @ B ' ' ' ' ' ' ' ' ' ' ' > DXaX3 ^ ' ' ' ' '",
" ' ' '.; ' i , +.-.M ' ' ' ' ' ' ' ' ' ' 'X-.].*.F.YXm ' ' ' ' '",
" L.i.! E g , S E ^ ' ' ' ' ' ' ' ' ' ' ' ' ..C.!.~Xh ' ' ' ' ' '",
" *.)X#.#XaX#.t.(Xg ' ' ' ' ' ' ' ' ' ' ' ' 5 ~.t.y ' ' ' ' ' ' '",
" ' y.) <Xx IX= Q ' ' ' ' ' ' ' ' ' ' ' ' '.` ~.b HXDXg ' ' ' ' '",
" 'XfXl h 6 | KXM ' ' ' ' ' ' ' ' ' '.u.qXK.N 8.# # M.f.b @ wXn '",
" ' ' r U ~ !.^X6X7 ' ' 'Xw dXqXK.T    X4Xj.>.' 8.9.].o.U JXX.d )",
" ' ' 9.<.a.g.2.2.2 P.2X2 sXu sX@ b 4.0 1XsX& lXA.m.E.p } o N.|Xv",
" ' ' ' l.a.2.P.{.@XN.IXBX. t.: F.a.a.a.XXs R l.3.RXr m jXFXdX+.-",
" ' ' '.7.a.3XNXi AXb q.7X9 l.aXs ( kXz.w 'Xb l.3X  ' ' 'X*X, r Y",
" ' ' ' q l.3.,.z./XL T n.h.h.w ' ' ' ' ' ' ;Xb bX  ' ' ' ' ' ' '",
" ' ' 'X& l.3 3 ' ' ' ' ' ' ' ' ' ' ' ' ' '.cXbXe.g ' ' ' ' ' ' '",
" ' ' 'Xb l.3X  ' ' ' ' ' ' ' ' ' ' ' ' ' '.c.v.@Xj ' ' ' ' ' ' '",
" ' ' 'X; R b.+ ' ' ' ' ' ' ' ' ' ' ' ' ' './ AXJ.VX7 ' ' ' ' ' '",
" ' ' ' Z.v.r b ' ' ' ' ' ' ' ' ' ' ' ' ' './ A.}X2.4 ' ' ' ' ' '",
" ' ' ' z C.QXjX7 ' ' ' ' ' ' ' ' ' ' ' ' ' ' AX9X2 : ' ' ' ' ' '",
" ' ' ' ]Xi.a.3X: ' ' ' ' ' ' ' ' ' ' ' ' ' ' A qXj.+ ' ' ' ' ' '",
".n.H p.5XiXc b - 3 3X X X X5.4.4.e ' ' ' ' ' Z.vXe - ' ' ' ' ' '",
"Xy M.f #.L X.PX@X@X@.3.3.3 aX4.3.V PXj.+.+X: ;.v.@Xj ' ' ' ' ' '",
".AXxXZXVX%..XH.7 q.G l l l.{ 1.J.@XN.r.VX2.3.I AXJ.V.ZX8 ' ' ' '",
" f.C.1.K._.% x.D.jXH RXbXbXbXb.v.v.vXb RX9Xs.O.v.JX4Xp JX$.W.; '",
" ' . ' ' 'X*.8 `.t G.=X> ' './././.c.c {.v A A.xXc = S OX$ vXg '",
" ' ' ' ' ' 'XSXOXt.k.F.  ' ' ' ' ' ' ' ' '.w./.$.S.~X1 V }.` ' '",
" ' ' ' ' ' ' 'XS.8.l.EXV ' ' ' ' ' ' ' ' ' ' 'XG 7 MXk $ % 9 ' '",
" ' ' ' ' ' ' ' 'X* $X0 5Xn ' ' ' ' ' ' ' ' 'XnX1.* [ e ' ' ' ' '",
" ' ' ' ' ' ' ' ' ' ' ' ' ' ' ' ' ' ' ' ' ' 'XC.&.!.y.H ' ' ' ' '",
" ' ' ' ' ' ' ' ' ' ' ' ' ' ' ' ' ' ' ' ' '.( 0.].6 W ' ' ' ' ' '",
" ' ' ' ' ' ' ' ' ' ' ' ' ' ' ' ' ' ' ' ' ' / O.[ EXo ' ' ' ' ' '",
" ' ' ' ' ' ' ' ' ' ' ' ' ' ' ' ' ' ' ' ' '.K.C + c ' ' ' ' ' ' '",
" ' ' ' ' ' ' ' ' ' ' ' ' ' ' ' ' ' ' ' ' 'X<.BX- ' ' ' ' ' ' ' '"
};
