/* XPM */
static const char * IconDataSaveMatrixAs[] = {
/* width height ncolors chars_per_pixel */
"32 32 153 2",
/* colors */
"   c #FDEC00",
" . c #171831",
" X c #CCCDA7",
" o c #0A0D42",
" O c #D1C1C3",
" + c #07092B",
" @ c #06092A",
" # c #171A34",
" $ c #4D4A09",
" % c #DEDEB5",
" & c #D7CBCC",
" * c #090C3A",
" = c #07092E",
" - c #3F3505",
" ; c #7C6202",
" : c #090C3D",
" > c #484953",
" , c #1D1D0B",
" < c #191707",
" 1 c #F7C600",
" 2 c #171930",
" 3 c #FEE700",
" 4 c #666763",
" 5 c #FEDD00",
" 6 c #080B35",
" 7 c #717171",
" 8 c #806502",
" 9 c #382D04",
" 0 c #F4C000",
" q c #CFA400",
" w c #090B39",
" e c #191C42",
" r c #BDBDA4",
" t c #BCBDA3",
" y c #794D51",
" u c #7A5248",
" i c #CDCEAD",
" p c #302809",
" a c #383A53",
" s c Yellow", 
" d c #494B5D",
" f c Gray31",
" g c #8C6D00",
" h c #080A31",
" j c #070A30",
" k c #FFF600",
" l c #F8F8F8",
" z c #434343",
" x c #3A1216",
" c c #090D3F",
" v c #EEBC00",
" b c #FFDC00",
" n c #452024",
" m c #080A34",
" M c #484A55",
" N c #070A33",
" B c #7F5349",
" V c #C09701",
" C c #5C242A",
" Z c None",
" A c #393C5A",
" S c #CDCDA9",
" D c #351014",
" F c #73433D",
" G c #696B75",
" H c #07092C",
" J c #383806",
" K c #1B1B1B",
" L c #07092F",
" P c #282A4C",
" I c #9E9E03",
" U c #0A0C3F",
" Y c #3A1115",
" T c #37384A",
" R c #484954",
" E c #3D3907",
" W c #3D3B32",
" Q c #686A70",
" ! c #200D0F",
" ~ c #BCBD9E",
" ^ c #080B36",
" / c #ABAC97",
" ( c #06082A",
" ) c #BCBDA1",
" _ c #4D4D09",
" ` c #9A7A02",
" ' c #CDCEAB",
" ] c #676968",
" [ c #4B4B07",
" { c #080B39",
" } c #ECECBC",
" | c #D0C09A",
".  c #D5A700",
".. c #EEEE01",
".X c #494B5E",
".o c #8C676B",
".O c #BCBC9D",
".+ c #37394C",
".@ c #1B1E4B",
".# c #FEDC00",
".$ c #080A35",
".% c #5B5D62",
".& c #060929",
".* c #544705",
".= c #4A4D65",
".- c #DEDEB4",
".; c #8B8C7D",
".: c #805458",
".> c #696B76",
"., c #21130B",
".< c #20110A",
".1 c #4B3E09",
".2 c #7C7C04",
".3 c #090C3C",
".4 c White",
".5 c #E7B600",
".6 c Yellow",
".7 c #070930",
".8 c #FFFB00",
".9 c #FFF700",
".0 c #FFF100",
".q c #464646",
".w c #444444",
".e c #AF9496",
".r c #080B34",
".t c #3D3908",
".y c #BCBD9F",
".u c #272945",
".i c #080B37",
".p c #191C41",
".a c #47484D",
".s c #4D151B",
".d c #D7D7D7",
".f c #BCBDA2",
".g c #4B4B08",
".h c #ECECBD",
".j c #1A1C45",
".k c #070A2F",
".l c #FDFDC7",
".z c #3E3205",
".x c #1A1606",
".c c #8C8D83",
".v c #947400",
".b c #2E2609",
".n c #9D9E8D",
".m c Gray3",
".M c #484A54",
".N c #070A32",
".B c #52161C",
".V c #DCD8D8",
".C c #979887",
".Z c #BCBC9E",
".A c #1F0C0E",
/* pixels */
" Z Z Z Z Z Z Z Z Z Z Z Z Z Z Z Z Z Z Z Z Z Z Z Z Z Z Z Z Z Z Z Z",
" Z Z Z Z Z Z Z Z Z Z Z Z Z Z Z Z Z Z Z Z Z Z Z Z Z Z Z Z Z Z Z Z",
" Z Z Z Z Z Z Z Z Z Z Z Z Z Z Z Z Z Z Z Z Z Z Z Z Z Z Z Z Z Z Z Z",
" Z Z Z Z Z Z y.B.B.B.B B.l.l.l.l.l.l.l.l.l.l.l.l.l.l.l B.B.B.B.B",
" Z Z Z Z Z Z y.B.B.B.B B.l.l.l.l.l.l.l.l.l.l.l.l.l.l.l B.B.B.B.B",
" Z Z Z Z Z Z y.B.B.B.B B.h.y }.l.l.l.h.Z.l.l %.-.l.l.l B.B.B.B.B",
" Z Z Z.q <.d y.B.B.B.B B r.$.Z.l.l.l.f =.l.l.= >.l.l.l B.B.B.B.B",
" Z Z Z.q J f y.B.B.B.B B t.3 R.l.l.l.X j.l.l.3 L.l.l.l B.B.B.B.B",
" Z Z Z.q.m I n.B.B.B.B B.f o.&.l.l.l *.N.l ) h 6 ~.l.l B.B.B.B.B",
" Z Z Z.q.m.6 E.s.B.B.B B.f c.k ~.l ) 6 =.l d ..j M.l.l B.B.B.B.B",
" Z Z Z.q.m.6.. !.B.B.B B.f { :.M.l d H N.l ^.a.= @.l.l B.B.B.B.B",
" Z Z Z.q.m.6.6 I x.B.B B.f 6 U #.l.p (.i '.7.;.c + S.l B.B.B.B.B",
".m.g [ ,.m.6.6.6.t.s.B B.f.i P.7.n.N.% L Q.N.N.N.N ].l B.B.B.B.B",
".2.6.6 _.m.6.6.6 s.A.B B.f.r.c w.u ( / L e T.f.f A #.l B.B.B.B.B",
".m.6.6 _.m.6.6.6.6 I Y B.f 6.O.@ ^ 2.f m 6 4.l.l.> L S B.B.B.B.B",
".m k k $.m.6.6.6.6.6 E u.f 6.O G d 4.f.$.+ X.l.l i a.C B.B.B.B.B",
".m 1 1.1.m.6.6.6.6  .* u.l.l.l.l.l.l.l.l.l.l.l.l.l.l.l B.B.B.B.B",
".m.v.v p.m.6.6.8 3 ` D B.l.l.l.l.l.l.l.l.l.l.l.l.l.l.l B.B.B.B.B",
".x g g.b.m.6.9 5 q.,.B F | | | | | | | | | | | | | | | F.B.B.B.B",
".q.q.w K.m.0.#.5.z.s.B.B.B.B.B.B.B.B.B.B.B.B.B.B.B.B.B.B.B.B.B.B",
" Z Z Z.q.m b v 8 D.B.B.B.B.B.B.B.B.B.B.B.B.B.B.B.B.B.B.B.B.B.B.B",
" Z Z Z.q.m 0 V.<.B.B.B.B O O O O O O O O O O O O.e.B.B.B.B.B.B.B",
" Z Z Z.q.m.  9.s.B.B.B.B.4.4.4.4.4.4.4.4.4.4.4.4 O.B.B.B.B.B.B.B",
" Z Z Z.q.m ; D.B.B.B.B.B.4.4.B.B.B.4.4.4.4.4.4.4 O.B.B.B.B.B.B.B",
" Z Z Z.q - W y.B.B.B.B.B.4.4.B.B.B.4.4.4.4.4.4.4 O.B.B.B.B.B.B.B",
" Z Z Z 7 z.d.V C.B.B.B.B.4.4.B.B.B.4.4.4.4.4.4.4 O.B.B.B.B.B.B.B",
" Z Z Z Z Z Z Z.V C.B.B.B.4.4.B.B.B.4.4.4.4.4.4.4 O.B.B.B.B.B.B.B",
" Z Z Z Z Z Z Z Z.V C.B.B.4.4.:.:.:.4.4.4.4.4.4.4 O.B.B.B.B.B.B.B",
" Z Z Z Z Z Z Z Z Z.V.o y l l l l l l l l l l l l & y y y y y y y",
" Z Z Z Z Z Z Z Z Z Z Z Z Z Z Z Z Z Z Z Z Z Z Z Z Z Z Z Z Z Z Z Z",
" Z Z Z Z Z Z Z Z Z Z Z Z Z Z Z Z Z Z Z Z Z Z Z Z Z Z Z Z Z Z Z Z",
" Z Z Z Z Z Z Z Z Z Z Z Z Z Z Z Z Z Z Z Z Z Z Z Z Z Z Z Z Z Z Z Z"
};
