/* XPM */
static const char * IconViewUp[] = {
/* width height ncolors chars_per_pixel */
"32 32 156 2",
/* colors */
"   c #000000",
" . c #95858F",
" X c #587760",
" o c #6B2A3B",
" O c #A9A9A9",
" + c #42531C",
" @ c #978794",
" # c #141445",
" $ c #5E242E",
" % c #AEAEBB",
" & c #598F50",
" * c #175719",
" = c #B51010",
" - c #B0B0C0",
" ; c #141448",
" : c #792E3B",
" > c #186F09",
" , c #186D09",
" < c #176B08",
" 1 c #18551D",
" 2 c #176908",
" 3 c #17551C",
" 4 c #176708",
" 5 c #19195A",
" 6 c #2B5308",
" 7 c #154D1A",
" 8 c #9F3949",
" 9 c #E4CBCB",
" 0 c #2B183D",
" q c #D9A9A9",
" w c #5A9450",
" e c #5B7E65",
" r c #5A9250",
" t c #56222F",
" y c #572030",
" u c #18690F",
" i c #483D17",
" p c #656565",
" a c #4D591F",
" s c #16610D",
" d c #245828",
" f c #151548",
" g c #131346",
" h c #197009",
" j c #186C08",
" k c #18561C",
" l c #6F2A3A",
" z c #181858",
" x c #A3BB9E",
" c c #A1A7B0",
" v c #265E2D",
" b c #A84747",
" n c #246E17",
" m c #15154B",
" M c #702C3E",
" N c #3D3D3D",
" B c #592131",
" V c None",
" C c #121241",
" Z c #AE4753",
" A c #2D2D2D",
" S c #5A263F",
" D c #988796",
" F c #141446",
" G c #AEAEBC",
" H c #D6D6D6",
" J c #4C4C73",
" K c #17551A",
" L c #191958",
" P c #165319",
" I c #165119",
" U c #267518",
" Y c #257317",
" T c #B0B0C1",
" R c #141449",
" E c #3C3C63",
" W c #95B68F",
" Q c #111111",
" ! c #18571E",
" ~ c #18551E",
" ^ c #19195B",
" / c #010101",
" ( c #4B4B6E",
" ) c #56222D",
" _ c #505080",
" ` c #D8DDD7",
" ' c #131344",
" ] c #A93743",
" [ c #588A4F",
" { c #9C9C9C",
" } c #181856",
" | c #404070",
".  c #543431",
".. c #151549",
".X c #AFAFBF",
".o c #187009",
".O c #4E2135",
".+ c #A74B5B",
".@ c #8C8C8C",
".# c #186E09",
".$ c #1A1A5B",
".% c #176808",
".& c #55233F",
".* c #5A9350",
".= c #AEAEBA",
".- c #121242",
".; c #408333",
".: c #171754",
".> c #455617",
"., c #141447",
".< c #4C4C74",
".1 c #186D08",
".2 c #186B08",
".3 c #18551C",
".4 c #191959",
".5 c #A3BE9E",
".6 c #A3BC9E",
".7 c #16511A",
".8 c #246F17",
".9 c #246D17",
".0 c #246B17",
".q c #D8D8DC",
".w c #4E4E79",
".e c #69262A",
".r c #BDBDC8",
".t c #6E2B3C",
".y c #19195C",
".u c #441D37",
".i c #131342",
".p c #18690E",
".a c #185C18",
".s c #A60206",
".d c #265908",
".f c #592848",
".g c #AFAFBD",
".h c #C5AFAB",
".j c #131345",
".k c #5D232E",
".l c #2E5809",
".z c #402B25",
".x c #165219",
".c c #3E7A33",
".v c #36235A",
".b c #17174C",
".n c #15154A",
".m c #161616",
".M c #D7D7DA",
".N c #331E4D",
".B c #95B38F",
".V c #101010",
".C c #1A1A5C",
".Z c #166608",
".A c #166408",
".S c #331A39",
".D c #B9B9B9",
".F c #020202",
/* pixels */
" V V V V V V V V V V V V V V V.d 2 6 2 + B b a h.l h.l V V V V V",
" V V V V V V V V V V V V V V V.0 4.%.% i y l.>.o >.# U V V V V V",
" V V V V V V V V V V V V V V V `.c.A s.z.u.&. .p.# w V V V V V V",
" V V V V V V V V V V V V V V V V V [ 7.j m z.$ !.* V V V V V V V",
" V V V V V V V V V V V V V V V V V V X.j.n z.C e V V V V V V V V",
" V V V V V V V V V V V V V V V V V V %.j.b z.C T V V V V V V V V",
" V V V V V V V V V V q V V V V V V V.= g.n.4.C T V V V V V V V q",
" V V V V V V V V V V.s.h.h.h.h.h.h.h .., R.4.y D.h.h.h.h.h.h @ =",
" V V V V V V V V V V.+ j j ,.#.#.# > * ; F.4 5 u > >.#.#.# , k.+",
" V V V V V V V V V V.+ 2 2 <.2 j.1 ,.#...,.4 5.#.#.# , , j j.3.+",
" V V V V V V V V V V.+ 4.%.% 2 2 < < K R ; 5.4 , , j j < < < 3.+",
" V V V V V V V V V V ] x n.%.%.%.%.% P.n ; 5.4.a j < < < <.; c ]",
" V V V V V V V V V V 8 V `.9 4 4.%.%.x.n ; 5.4 ~ < < < < r V.X Z",
" V V V V V V V V V V 9 V V V & 4 4 4.7.n ;.4.4 ~ < < < r V V V 9",
" V V V V V V V V V V V V V V V.B.Z 4.7 R ; 5.4 1 < < W V V V V V",
" V N   O V V V V V V V N   N V V.6.8 I ; f.$ 5 1 Y.5 V V V V V V",
" V N   O V V V V V V V N   N V V V ` d ' ;.$ 5 v ` V V V V V V V",
" V N   O V V V V V V V N   N V V V V.=.-.j.$ L T V V V V V V V V",
" V N   O V V V V V V V N   N V V V V.= '.S.v 5 T V V V V V V V V",
" V N   O V V V V V V V N   N V V V V.M.i t.f ^.q V V V V V V V V",
" V N   O V V V V V V V N   N V V V V V C.e : ^ V V V V V V V V V",
" V N / O V V V V V V V N   N V V V V V ( ) M _ V V V V V V V V V",
" V N   O V V V V V V V N   N V V V V V J.k.t T V V V V V V V V V",
" V N   O V V V V V V V N   N V V V V V % $ o T V V V V V V V V V",
" V N   O V V V V V V V N   N V V V V V G.O S - V V V V V V V V V",
" V N   O V V V V V V V N   N V V V V V.r 0.N V V V V V V V V V V",
" V N  .@ V V V V V V V A   N V V V V V V # } V V V V V V V V V V",
" V.@ Q.m V V V V V V.D    .D V V V V V V F.: V V V V V V V V V V",
" V H  .F p V V V V H.V   A V V V V V V V E | V V V V V V V V V V",
" V V {   / / N N A    .V H V V V V V V V.<.w V V V V V V V V V V",
" V V V { N        .V N H V V V V V V V V.g.X V V V V V V V V V V",
" V V V V V V.D O H V V V V V V V V V V V.X T V V V V V V V V V V"
};
