/* XPM */
static const char * IconLgtSrc[] = {
/* width height ncolors chars_per_pixel */
"32 32 145 2",
/* colors */
"   c #140D0D",
" . c #231F1F",
" X c #ADADAD",
" o c #120B0B",
" O c #575252",
" + c #8C6F6F",
" @ c #666464",
" # c #1F1B1B",
" $ c #949191",
" % c #171313",
" & c #151111",
" * c #130F0F",
" = c #110D0D",
" - c #443535",
" ; c #261E1E",
" : c #BDBCBC",
" > c #D1C9C9",
" , c #FFC8C8",
" < c #AFAEAE",
" 1 c #140C0C",
" 2 c #686565",
" 3 c #8C6E6E",
" 4 c #8A6C6C",
" 5 c #1F1A1A",
" 6 c #646161",
" 7 c #171212",
" 8 c #151010",
" 9 c #130E0E",
" 0 c #585555",
" q c #545151",
" w c #4A3A3A",
" e c #876C6C",
" r c #483838",
" t c #F0BCBC",
" y c #3D3737",
" u c #4C4949",
" i c #614D4D",
" p c #BDBBBB",
" a c #BBB9B9",
" s c #5D4949",
" d c #AE8888",
" f c #3A3737",
" g c #1F1919",
" h c #646060",
" j c #C59B9B",
" k c #A19F9F",
" l c None",
" z c #130D0D",
" x c #503F3F",
" c c #A38080",
" v c #110B0B",
" b c #A17E7E",
" n c #959393",
" m c #D8D8D8",
" M c #D4A6A6",
" N c #120F0F",
" B c #100D0D",
" V c #3E3A3A",
" C c #BCBCBC",
" Z c #211A1A",
" A c #C99E9E",
" S c #666161",
" D c #E7C2C2",
" F c #1F1818",
" G c #C79C9C",
" H c #2E2A2A",
" J c #C59A9A",
" K c #262222",
" L c #150E0E",
" P c #130C0C",
" I c #585353",
" U c #110A0A",
" Y c #362B2B",
" T c #1C1818",
" R c #D8D7D7",
" E c #B59797",
" W c #141010",
" Q c #120E0E",
" ! c #B89090",
" ~ c #5F4949",
" ^ c #E0D8D8",
" / c #453636",
" ( c #929292",
" ) c #967575",
" _ c #3A3535",
" ` c #131212",
" ' c #231B1B",
" ] c #BCBBBB",
" [ c #C79B9B",
" { c #AD8888",
" } c #150D0D",
" | c #696666",
".  c #130B0B",
".. c #676464",
".X c #896B6B",
".o c #1E1919",
".O c #1C1717",
".+ c #181313",
".@ c #161111",
".# c #5B5858",
".$ c #E3B6B6",
".% c #120D0D",
".& c #666666",
".* c #A07E7E",
".= c #626262",
".- c #473737",
".; c #949393",
".: c #4D4A4A",
".> c #CEABAB",
"., c #494646",
".< c #D1A4A4",
".1 c #F6C5C5",
".2 c #5C4848",
".3 c #3D3A3A",
".4 c #2A2424",
".5 c #150C0C",
".6 c #E4E1E1",
".7 c #201A1A",
".8 c #C69C9C",
".9 c #413737",
".0 c #383838",
".q c #A2A0A0",
".w c #140E0E",
".e c #514040",
".r c #DBCECE",
".t c #A27F7F",
".y c #555151",
".u c #949292",
".i c #D9D9D9",
".p c #929090",
".a c #D7D7D7",
".s c #110E0E",
".d c #322B2B",
".f c #443636",
".g c #141414",
".h c #957575",
".j c #121212",
".k c #E8E4E4",
".l c #EAC5C5",
".z c #221B1B",
".x c #9C7F7F",
".c c #E9DBDB",
".v c #201919",
".b c #C89D9D",
".n c #C69B9B",
/* pixels */
" l l l l l l l l l l l l l l l l l l l l l l l l l l l.6.c l l l",
" l l l l l l l l l l l l l l l l l l l l l l l l l l.r.$ ,.1.k l",
" l l l l l l l l l l l l l l l l l l l l l l l.= q E J A , ,.l l",
" l l l l l l l l l l l l l l l l l l l l l l ( w ! J j.n.< t D l",
" l l l l l l l l l l l l l l l l l l l l.a h.j { j j.n.8 G.b ^ l",
" l l l l l l l l l l l l l l l l l l l k.7 1 ` e j.n.8 G G.> l l",
" l l l l l l l l l l l l l l l l l.a _. .5.z.;.d c.8 G G.b > l l",
" l l l l l l l l l l l l l l l l h o 1 1 S l l.&.9 + G.b 3 X l l",
" l l l l l l l l l l l l l l ] g P } y.a l l l l.&.g ..4.0.a l l",
" l l l l l l l l l l l l.a.y o.5 1 =.s u.i l l l l I.w # l l l l",
" l l l l l l l l l l l.p.7 1 1 L.@ 7 7 % T a l l p.5 o k l l l l",
" l l l l l l l l l C f. .5 1.- 4.t.t.t ; 5 K m l y 1 _ l l l l l",
" l l l l l l l l 6 * W   ~ G M M M M M G ; & @.q } o ] l l l l l",
" l l l l l l k # * & Z d M M M M M M M M 4 7.s ' 1.y l l l l l l",
" l l l l.a.y.% W W.e G M M M M M M M M M.t 7.% } U.a l l l l l l",
" l l l.p v z W *.h M M M M M M M M M M M.t.@ 1.  h l l l l l l l",
" l ] g.    W *.h M M M M M M M M M M M M.t L }.v.a l l l l l l l",
" h o.5 1 W W x M M M M M M M M M M M M M r 1. .p l l l l l l l l",
" 1.5 O., W F [ M M M M M M M M M M M M G     g l l l l l l l l l",
".z p : & Q.h M M M M M M M M M M M M M.X } o k l l l l l l l l l",
" l l 0 W - M M M M M M M M M M M M M M W   _ l l l l l l l l l l",
" l : & = { M M M M M M M M M M M M M.X & = ] l l l l l l l l l l",
" l.. 8 Y M M M M M M M M M M M M M ) W * 6 l l l l l l l l l l l",
" l.: W s M M M M M M M M M M M M ) W W =.a l l l l l l l l l l l",
" l 7 Q.* M M M M M M M M M M M [.v W.s h l l l l l l l l l l l l",
" l 7 Q b M M M M M M M M M M [.v W N 5 l l l l l l l l l l l l l",
" l.+ Q b M M M M M M M M M.h.v W * o.p l l l l l l l l l l l l l",
" l K & i M M M M M M M.n s * W 9 1 g l l l l l l l l l l l l l l",
" l |.O &.x M M M M d.2.s W W H } o ] l l l l l l l l l l l l l l",
" l l.#.o W g /.f B Q W &.3 : y 1 _ l l l l l l l l l l l l l l l",
" l l l |.+ 7 8 &.@ & V.u l $ } o ] l l l l l l l l l l l l l l l",
" l l l l R < 2 n < R l l l ' P h l l l l l l l l l l l l l l l l"
};
