/* XPM */
static const char * IconGenCamera[] = {
/* width height ncolors chars_per_pixel */
"32 32 53 1",
/* colors */
"  c #7D9BCD",
". c #333D35",
"X c #5F6660",
"o c #537054",
"O c #FFDCDC",
"+ c #505851",
"@ c #172319",
"# c #466047",
"$ c #434C44",
"% c #3B523C",
"& c #CFB5B3",
"* c #69625C",
"= c #2E422F",
"- c #4F6681",
"; c #58544E",
": c #8D807B",
"> c #A2D1A3",
", c None",
"< c #9FA9B4",
"1 c #95C196",
"2 c #8AB38B",
"3 c #7DA37E",
"4 c #364956",
"5 c #B3B8B9",
"6 c #9E8E8A",
"7 c #383B33",
"8 c #152417",
"9 c #08140A",
"0 c #233524",
"q c #768186",
"w c #CAD2DF",
"e c #5A5750",
"r c #5E7799",
"t c #7592C0",
"y c #1F2E30",
"u c #EECECD",
"i c #494942",
"p c #ABAEAC",
"a c #6681A7",
"s c #C8FFC8",
"d c #101D17",
"f c #626F78",
"g c #D7D7D7",
"h c #27383E",
"j c #9EA29F",
"k c #BEA7A4",
"l c #BBEFBB",
"z c #192219",
"x c #CACBCA",
"c c #8F9490",
"v c #B0E1B0",
"b c #BBBDBB",
"n c #9FACD1",
/* pixels */
",,,,,,,,,,,,,,,,,,,,,,,,,,,,,,,,",
",,,,,,,,,,,,,,,,,,,,,,,,,,,,,,,,",
",,,,,,,,c$99@$g,,,,,,,,,,,,,,,,,",
",,,,,,g@99=%=99c,,,,,gp$.$cb,,,,",
",,,,,,.93lsss>#9c,,,X9998999.g,,",
",,,,,c92ssssss299g,+9=lsss3999b,",
",,,,,98ssssssv999$X9=sssss8999@,",
",,,,b9osssssss=99@99lssssss#239+",
",,,,p91sssssss199993ssssssssss=9",
",,,,p91sssssss19999lssssssssss39",
",,,,p9osssssss=9999sssssssssss19",
",,,,,@8l3olsl=99999sssssssssss19",
",,,,,b98999999999.93=lssssssss39",
",,.p,,j999999999999990sssssssl89",
",599@Xbg.99999*kkz998lsssssss#99",
",ft-y99.cg9;kOOOOuiz93lssss>#999",
",<   t-y999:OOOOOOOO;998o%999*69",
",w      t-yzOOOOOOOOO&iz997i&Ok9",
",w         nOOOOOOOOOOOOuOOOOOk9",
",w         nOOOOOOOOOOOOOOOOOOk9",
",w         nOOOOOOOOOOOOOOOOOOk9",
",w         riOOOOOOOOOOOOOOOOOk9",
",w        ryiOOOOOOOOOOOOOOOOOk9",
",w     a4d99iOOOOOOOOOOOOOOOOOk9",
",h  t-y99.99iOOOOOOOOOOOOOOOOOk9",
",qrh99@cg,99eOOOOOOOOOOOOOOOOOk9",
",g9@Xb,,,x97iiiiiiiiiiiiiiiiii79",
",,x,,,,,,,jppppppppppppppppppppp",
",,,,,,,,,,,,,,,,,,,,,,,,,,,,,,,,",
",,,,,,,,,,,,,,,,,,,,,,,,,,,,,,,,",
",,,,,,,,,,,,,,,,,,,,,,,,,,,,,,,,",
",,,,,,,,,,,,,,,,,,,,,,,,,,,,,,,,"
};
